G04 EAGLE Gerber RS-274X export*
G75*
%MOMM*%
%FSLAX34Y34*%
%LPD*%
%INTop Copper*%
%IPPOS*%
%AMOC8*
5,1,8,0,0,1.08239X$1,22.5*%
G01*
%ADD10R,0.300000X0.850000*%
%ADD11R,0.850000X0.300000*%
%ADD12R,5.250000X5.250000*%
%ADD13C,0.280800*%
%ADD14C,0.500000*%
%ADD15C,0.402900*%
%ADD16R,1.800000X1.000000*%
%ADD17R,0.850000X0.950000*%
%ADD18R,0.900000X0.500000*%
%ADD19R,0.500000X0.500000*%
%ADD20R,1.778000X2.540000*%
%ADD21C,8.000000*%
%ADD22R,2.500000X1.200000*%
%ADD23C,0.125000*%
%ADD24R,1.000000X1.400000*%
%ADD25R,1.000000X1.100000*%
%ADD26C,1.100000*%
%ADD27C,0.152400*%
%ADD28C,0.406400*%
%ADD29C,0.304800*%
%ADD30C,0.457200*%
%ADD31C,0.431800*%
%ADD32C,0.508000*%
%ADD33C,0.453200*%
%ADD34C,0.450000*%
%ADD35C,0.609600*%
%ADD36C,0.503200*%
%ADD37C,0.254000*%
%ADD38C,0.812800*%
%ADD39C,0.203200*%

G36*
X290896Y4771D02*
X290896Y4771D01*
X290915Y4769D01*
X291017Y4791D01*
X291119Y4807D01*
X291136Y4817D01*
X291156Y4821D01*
X291245Y4874D01*
X291336Y4923D01*
X291350Y4937D01*
X291367Y4947D01*
X291434Y5026D01*
X291506Y5101D01*
X291514Y5119D01*
X291527Y5134D01*
X291566Y5230D01*
X291609Y5324D01*
X291611Y5344D01*
X291619Y5362D01*
X291637Y5529D01*
X291637Y269887D01*
X291634Y269908D01*
X291635Y269942D01*
X284730Y365636D01*
X284713Y365705D01*
X284706Y365776D01*
X284685Y365824D01*
X284672Y365875D01*
X284657Y365899D01*
X284651Y366265D01*
X284648Y366277D01*
X284650Y366290D01*
X284626Y366398D01*
X284606Y366507D01*
X284600Y366518D01*
X284597Y366530D01*
X284541Y366626D01*
X284487Y366722D01*
X284478Y366731D01*
X284471Y366742D01*
X284387Y366813D01*
X284306Y366888D01*
X284294Y366893D01*
X284284Y366901D01*
X284181Y366943D01*
X284081Y366987D01*
X284068Y366989D01*
X284056Y366993D01*
X283889Y367012D01*
X207778Y367012D01*
X207758Y367009D01*
X207739Y367011D01*
X207637Y366989D01*
X207535Y366972D01*
X207518Y366963D01*
X207498Y366959D01*
X207409Y366905D01*
X207318Y366857D01*
X207304Y366843D01*
X207287Y366832D01*
X207220Y366754D01*
X207148Y366679D01*
X207140Y366661D01*
X207127Y366646D01*
X207088Y366549D01*
X207045Y366456D01*
X207043Y366436D01*
X207035Y366417D01*
X207017Y366251D01*
X207017Y360579D01*
X206421Y359983D01*
X193579Y359983D01*
X192983Y360579D01*
X192983Y366251D01*
X192980Y366270D01*
X192982Y366290D01*
X192960Y366391D01*
X192944Y366493D01*
X192934Y366511D01*
X192930Y366530D01*
X192877Y366619D01*
X192828Y366711D01*
X192814Y366724D01*
X192804Y366742D01*
X192725Y366809D01*
X192650Y366880D01*
X192632Y366889D01*
X192617Y366901D01*
X192521Y366940D01*
X192427Y366984D01*
X192407Y366986D01*
X192389Y366993D01*
X192222Y367012D01*
X183416Y367012D01*
X183397Y367009D01*
X183377Y367011D01*
X183276Y366989D01*
X183174Y366972D01*
X183156Y366963D01*
X183137Y366959D01*
X183048Y366905D01*
X182956Y366857D01*
X182943Y366843D01*
X182926Y366832D01*
X182858Y366754D01*
X182787Y366679D01*
X182779Y366661D01*
X182766Y366646D01*
X182727Y366549D01*
X182683Y366456D01*
X182681Y366436D01*
X182674Y366417D01*
X182655Y366251D01*
X182655Y361830D01*
X181893Y361069D01*
X181841Y360995D01*
X181782Y360926D01*
X181769Y360896D01*
X181750Y360869D01*
X181723Y360782D01*
X181689Y360698D01*
X181685Y360656D01*
X181678Y360634D01*
X181678Y360602D01*
X181671Y360532D01*
X181666Y358108D01*
X181679Y358030D01*
X181683Y357950D01*
X181699Y357909D01*
X181706Y357865D01*
X181743Y357795D01*
X181771Y357721D01*
X181807Y357674D01*
X181820Y357648D01*
X181841Y357629D01*
X181872Y357587D01*
X183613Y355726D01*
X183540Y353511D01*
X180029Y350226D01*
X178110Y350290D01*
X178090Y350287D01*
X178071Y350290D01*
X177969Y350271D01*
X177866Y350258D01*
X177848Y350249D01*
X177829Y350246D01*
X177738Y350196D01*
X177645Y350150D01*
X177631Y350136D01*
X177614Y350127D01*
X177544Y350050D01*
X177470Y349978D01*
X177461Y349960D01*
X177448Y349945D01*
X177406Y349851D01*
X177359Y349758D01*
X177356Y349738D01*
X177348Y349720D01*
X177324Y349554D01*
X177260Y347635D01*
X173750Y344350D01*
X172024Y344407D01*
X171931Y344395D01*
X171837Y344390D01*
X171810Y344379D01*
X171781Y344376D01*
X171696Y344334D01*
X171608Y344300D01*
X171579Y344277D01*
X171559Y344268D01*
X171536Y344245D01*
X171475Y344198D01*
X164359Y337435D01*
X164310Y337370D01*
X164253Y337311D01*
X164237Y337275D01*
X163311Y336439D01*
X163306Y336433D01*
X163296Y336426D01*
X162393Y335567D01*
X162359Y335555D01*
X162314Y335522D01*
X162289Y335510D01*
X162269Y335489D01*
X162223Y335457D01*
X161396Y334709D01*
X161327Y334623D01*
X161255Y334539D01*
X161250Y334527D01*
X161242Y334517D01*
X161205Y334414D01*
X161163Y334311D01*
X161161Y334296D01*
X161158Y334286D01*
X161157Y334258D01*
X161145Y334145D01*
X161145Y333659D01*
X160593Y333107D01*
X160582Y333091D01*
X160566Y333079D01*
X160510Y332991D01*
X160450Y332908D01*
X160444Y332889D01*
X160433Y332872D01*
X160408Y332771D01*
X160377Y332672D01*
X160378Y332653D01*
X160373Y332633D01*
X160381Y332530D01*
X160384Y332427D01*
X160391Y332408D01*
X160392Y332388D01*
X160432Y332293D01*
X160468Y332196D01*
X160481Y332180D01*
X160488Y332162D01*
X160593Y332031D01*
X161145Y331479D01*
X161145Y328659D01*
X160593Y328107D01*
X160582Y328091D01*
X160566Y328079D01*
X160510Y327992D01*
X160450Y327908D01*
X160444Y327888D01*
X160433Y327872D01*
X160408Y327772D01*
X160377Y327672D01*
X160378Y327653D01*
X160373Y327633D01*
X160381Y327530D01*
X160384Y327427D01*
X160390Y327408D01*
X160392Y327388D01*
X160433Y327293D01*
X160468Y327196D01*
X160481Y327180D01*
X160488Y327162D01*
X160593Y327031D01*
X161186Y326438D01*
X161202Y326427D01*
X161214Y326411D01*
X161301Y326355D01*
X161385Y326295D01*
X161404Y326289D01*
X161421Y326278D01*
X161522Y326253D01*
X161620Y326222D01*
X161640Y326223D01*
X161660Y326218D01*
X161763Y326226D01*
X161866Y326229D01*
X161885Y326236D01*
X161905Y326237D01*
X162000Y326278D01*
X162097Y326313D01*
X162113Y326326D01*
X162131Y326333D01*
X162262Y326438D01*
X163414Y327590D01*
X164436Y327590D01*
X164526Y327604D01*
X164594Y327610D01*
X167041Y327610D01*
X167045Y327608D01*
X167086Y327604D01*
X167108Y327597D01*
X167140Y327598D01*
X167212Y327590D01*
X168234Y327590D01*
X169345Y326479D01*
X169345Y323659D01*
X168588Y322902D01*
X168534Y322828D01*
X168475Y322758D01*
X168463Y322728D01*
X168444Y322702D01*
X168417Y322615D01*
X168383Y322530D01*
X168379Y322489D01*
X168372Y322467D01*
X168373Y322435D01*
X168365Y322363D01*
X168365Y318772D01*
X167022Y317429D01*
X166969Y317355D01*
X166909Y317285D01*
X166897Y317255D01*
X166878Y317229D01*
X166851Y317142D01*
X166840Y317113D01*
X166827Y317085D01*
X166826Y317079D01*
X166817Y317057D01*
X166813Y317016D01*
X166806Y316994D01*
X166807Y316962D01*
X166799Y316890D01*
X166799Y316705D01*
X166813Y316615D01*
X166821Y316524D01*
X166833Y316494D01*
X166838Y316462D01*
X166881Y316382D01*
X166917Y316298D01*
X166943Y316266D01*
X166954Y316245D01*
X166977Y316223D01*
X167022Y316167D01*
X167029Y316160D01*
X167029Y307403D01*
X167032Y307383D01*
X167030Y307364D01*
X167052Y307262D01*
X167068Y307160D01*
X167078Y307143D01*
X167082Y307123D01*
X167135Y307034D01*
X167184Y306943D01*
X167198Y306929D01*
X167208Y306912D01*
X167287Y306845D01*
X167362Y306773D01*
X167380Y306765D01*
X167395Y306752D01*
X167491Y306713D01*
X167585Y306670D01*
X167605Y306668D01*
X167623Y306660D01*
X167790Y306642D01*
X170271Y306642D01*
X170362Y306657D01*
X170453Y306664D01*
X170454Y306664D01*
X175018Y306669D01*
X175083Y306680D01*
X175149Y306681D01*
X175204Y306700D01*
X175260Y306709D01*
X175319Y306740D01*
X175381Y306762D01*
X175427Y306798D01*
X175478Y306825D01*
X175523Y306873D01*
X175575Y306914D01*
X175624Y306979D01*
X175647Y307003D01*
X175655Y307021D01*
X175675Y307048D01*
X176095Y307771D01*
X176136Y307879D01*
X176179Y307987D01*
X176180Y307996D01*
X176182Y308001D01*
X176183Y308022D01*
X176198Y308153D01*
X176198Y312143D01*
X177764Y313710D01*
X181837Y313710D01*
X181863Y313714D01*
X181889Y313712D01*
X181984Y313734D01*
X182080Y313750D01*
X182103Y313762D01*
X182129Y313768D01*
X182276Y313849D01*
X182648Y314111D01*
X182672Y314134D01*
X182701Y314152D01*
X182760Y314220D01*
X182824Y314283D01*
X182839Y314313D01*
X182861Y314339D01*
X182895Y314422D01*
X182936Y314502D01*
X182941Y314536D01*
X182953Y314567D01*
X182972Y314734D01*
X182972Y314897D01*
X185055Y316981D01*
X188002Y316981D01*
X190085Y314897D01*
X190085Y311951D01*
X189640Y311506D01*
X189598Y311448D01*
X189549Y311396D01*
X189527Y311349D01*
X189497Y311306D01*
X189476Y311238D01*
X189445Y311173D01*
X189440Y311121D01*
X189424Y311071D01*
X189426Y310999D01*
X189418Y310928D01*
X189429Y310877D01*
X189431Y310825D01*
X189455Y310758D01*
X189471Y310688D01*
X189497Y310643D01*
X189515Y310594D01*
X189560Y310538D01*
X189597Y310477D01*
X189636Y310443D01*
X189669Y310402D01*
X189729Y310364D01*
X189784Y310317D01*
X189832Y310297D01*
X189876Y310269D01*
X189945Y310252D01*
X190012Y310225D01*
X190083Y310217D01*
X190114Y310209D01*
X190138Y310211D01*
X190179Y310206D01*
X191937Y310206D01*
X191957Y310210D01*
X191977Y310208D01*
X192078Y310230D01*
X192180Y310246D01*
X192198Y310256D01*
X192217Y310260D01*
X192306Y310313D01*
X192397Y310361D01*
X192411Y310376D01*
X192428Y310386D01*
X192495Y310465D01*
X192567Y310540D01*
X192575Y310558D01*
X192588Y310573D01*
X192627Y310669D01*
X192670Y310763D01*
X192673Y310782D01*
X192680Y310801D01*
X192698Y310968D01*
X192698Y313422D01*
X193443Y314166D01*
X202996Y314166D01*
X203740Y313422D01*
X203740Y303189D01*
X203755Y303099D01*
X203762Y303008D01*
X203774Y302978D01*
X203780Y302946D01*
X203803Y302901D01*
X203804Y302898D01*
X203812Y302884D01*
X203822Y302865D01*
X203858Y302781D01*
X203884Y302749D01*
X203895Y302729D01*
X203918Y302706D01*
X203920Y302704D01*
X203930Y302687D01*
X203941Y302677D01*
X203963Y302650D01*
X206724Y299889D01*
X206798Y299836D01*
X206867Y299777D01*
X206897Y299765D01*
X206924Y299746D01*
X207011Y299719D01*
X207095Y299685D01*
X207136Y299680D01*
X207159Y299673D01*
X207191Y299674D01*
X207262Y299666D01*
X214496Y299666D01*
X215240Y298922D01*
X215240Y288369D01*
X214496Y287625D01*
X204943Y287625D01*
X204198Y288369D01*
X204198Y296350D01*
X204197Y296360D01*
X204197Y296366D01*
X204191Y296395D01*
X204184Y296440D01*
X204177Y296531D01*
X204164Y296561D01*
X204159Y296593D01*
X204116Y296673D01*
X204080Y296757D01*
X204055Y296789D01*
X204044Y296810D01*
X204020Y296832D01*
X203975Y296888D01*
X202456Y298407D01*
X202382Y298461D01*
X202313Y298520D01*
X202283Y298532D01*
X202257Y298551D01*
X202170Y298578D01*
X202085Y298612D01*
X202044Y298616D01*
X202021Y298623D01*
X201989Y298623D01*
X201918Y298630D01*
X189391Y298630D01*
X189301Y298616D01*
X189210Y298609D01*
X189180Y298596D01*
X189148Y298591D01*
X189067Y298548D01*
X188983Y298512D01*
X188951Y298487D01*
X188930Y298476D01*
X188912Y298457D01*
X188910Y298455D01*
X188904Y298449D01*
X188852Y298407D01*
X182495Y292051D01*
X182484Y292034D01*
X182468Y292022D01*
X182412Y291935D01*
X182352Y291851D01*
X182346Y291832D01*
X182335Y291815D01*
X182310Y291715D01*
X182279Y291616D01*
X182280Y291596D01*
X182275Y291576D01*
X182283Y291473D01*
X182286Y291370D01*
X182293Y291351D01*
X182294Y291331D01*
X182335Y291236D01*
X182370Y291139D01*
X182383Y291123D01*
X182391Y291105D01*
X182495Y290974D01*
X183664Y289806D01*
X188236Y285233D01*
X188253Y285221D01*
X188265Y285206D01*
X188352Y285150D01*
X188436Y285089D01*
X188455Y285084D01*
X188472Y285073D01*
X188573Y285047D01*
X188671Y285017D01*
X188691Y285018D01*
X188711Y285013D01*
X188813Y285021D01*
X188917Y285023D01*
X188936Y285030D01*
X188956Y285032D01*
X189050Y285072D01*
X189148Y285108D01*
X189164Y285120D01*
X189182Y285128D01*
X189313Y285233D01*
X189516Y285436D01*
X189569Y285510D01*
X189629Y285579D01*
X189641Y285609D01*
X189660Y285636D01*
X189686Y285723D01*
X189721Y285807D01*
X189722Y285822D01*
X191822Y287922D01*
X194769Y287922D01*
X196852Y285839D01*
X196852Y282892D01*
X195072Y281111D01*
X195019Y281037D01*
X194959Y280968D01*
X194947Y280938D01*
X194928Y280911D01*
X194901Y280825D01*
X194867Y280740D01*
X194863Y280699D01*
X194856Y280676D01*
X194857Y280644D01*
X194849Y280573D01*
X194849Y274937D01*
X193265Y273353D01*
X193253Y273337D01*
X193238Y273325D01*
X193182Y273237D01*
X193121Y273154D01*
X193116Y273135D01*
X193105Y273118D01*
X193079Y273017D01*
X193049Y272918D01*
X193050Y272899D01*
X193045Y272879D01*
X193053Y272776D01*
X193055Y272673D01*
X193062Y272654D01*
X193064Y272634D01*
X193104Y272539D01*
X193140Y272442D01*
X193152Y272426D01*
X193160Y272408D01*
X193265Y272277D01*
X194849Y270693D01*
X194849Y265285D01*
X193282Y263718D01*
X190991Y263718D01*
X190901Y263704D01*
X190810Y263696D01*
X190780Y263684D01*
X190748Y263679D01*
X190667Y263636D01*
X190583Y263600D01*
X190551Y263574D01*
X190530Y263563D01*
X190508Y263540D01*
X190452Y263495D01*
X189664Y262707D01*
X189611Y262633D01*
X189551Y262564D01*
X189539Y262534D01*
X189520Y262508D01*
X189494Y262421D01*
X189459Y262336D01*
X189455Y262295D01*
X189448Y262273D01*
X189449Y262240D01*
X189441Y262169D01*
X189441Y261408D01*
X188003Y259970D01*
X187962Y259912D01*
X187912Y259860D01*
X187890Y259813D01*
X187860Y259771D01*
X187839Y259702D01*
X187809Y259637D01*
X187803Y259585D01*
X187787Y259535D01*
X187789Y259464D01*
X187781Y259393D01*
X187793Y259342D01*
X187794Y259290D01*
X187818Y259222D01*
X187834Y259152D01*
X187860Y259107D01*
X187878Y259059D01*
X187923Y259003D01*
X187960Y258941D01*
X187999Y258907D01*
X188032Y258867D01*
X188092Y258828D01*
X188147Y258781D01*
X188195Y258762D01*
X188239Y258734D01*
X188308Y258716D01*
X188375Y258689D01*
X188446Y258681D01*
X188477Y258673D01*
X188501Y258675D01*
X188542Y258671D01*
X191377Y258671D01*
X192735Y257313D01*
X192751Y257301D01*
X192763Y257286D01*
X192851Y257230D01*
X192934Y257169D01*
X192953Y257164D01*
X192970Y257153D01*
X193071Y257127D01*
X193170Y257097D01*
X193189Y257098D01*
X193209Y257093D01*
X193312Y257101D01*
X193415Y257103D01*
X193434Y257110D01*
X193454Y257112D01*
X193549Y257152D01*
X193646Y257188D01*
X193662Y257200D01*
X193680Y257208D01*
X193811Y257313D01*
X195169Y258671D01*
X199977Y258671D01*
X201559Y257089D01*
X201567Y257053D01*
X201583Y256951D01*
X201593Y256934D01*
X201597Y256914D01*
X201650Y256825D01*
X201699Y256734D01*
X201713Y256720D01*
X201723Y256703D01*
X201802Y256636D01*
X201877Y256564D01*
X201895Y256556D01*
X201910Y256543D01*
X202006Y256504D01*
X202100Y256461D01*
X202120Y256459D01*
X202138Y256451D01*
X202305Y256433D01*
X205442Y256433D01*
X210668Y251207D01*
X210726Y251165D01*
X210778Y251116D01*
X210825Y251094D01*
X210867Y251063D01*
X210936Y251042D01*
X211001Y251012D01*
X211053Y251006D01*
X211103Y250991D01*
X211174Y250993D01*
X211245Y250985D01*
X211296Y250996D01*
X211348Y250997D01*
X211416Y251022D01*
X211486Y251037D01*
X211531Y251064D01*
X211579Y251082D01*
X211635Y251127D01*
X211697Y251163D01*
X211731Y251203D01*
X211771Y251236D01*
X211810Y251296D01*
X211857Y251350D01*
X211876Y251399D01*
X211904Y251443D01*
X211922Y251512D01*
X211949Y251579D01*
X211957Y251650D01*
X211965Y251681D01*
X211963Y251704D01*
X211967Y251745D01*
X211967Y278842D01*
X220555Y287430D01*
X239104Y287430D01*
X239124Y287433D01*
X239144Y287431D01*
X239245Y287453D01*
X239347Y287470D01*
X239365Y287479D01*
X239384Y287483D01*
X239473Y287537D01*
X239564Y287585D01*
X239578Y287599D01*
X239595Y287610D01*
X239663Y287688D01*
X239734Y287763D01*
X239742Y287781D01*
X239755Y287796D01*
X239794Y287893D01*
X239837Y287986D01*
X239840Y288006D01*
X239847Y288025D01*
X239866Y288191D01*
X239866Y292003D01*
X240610Y292748D01*
X251663Y292748D01*
X252407Y292003D01*
X252407Y279951D01*
X251663Y279206D01*
X240610Y279206D01*
X239866Y279951D01*
X239866Y282603D01*
X239862Y282623D01*
X239865Y282643D01*
X239843Y282744D01*
X239826Y282846D01*
X239817Y282864D01*
X239812Y282883D01*
X239759Y282972D01*
X239711Y283063D01*
X239696Y283077D01*
X239686Y283094D01*
X239607Y283162D01*
X239532Y283233D01*
X239514Y283241D01*
X239499Y283254D01*
X239403Y283293D01*
X239309Y283336D01*
X239290Y283339D01*
X239271Y283346D01*
X239104Y283365D01*
X222555Y283365D01*
X222465Y283350D01*
X222374Y283343D01*
X222344Y283330D01*
X222312Y283325D01*
X222231Y283282D01*
X222147Y283246D01*
X222115Y283221D01*
X222095Y283210D01*
X222072Y283186D01*
X222016Y283142D01*
X216256Y277381D01*
X216203Y277307D01*
X216143Y277238D01*
X216131Y277207D01*
X216112Y277181D01*
X216085Y277094D01*
X216051Y277009D01*
X216047Y276968D01*
X216040Y276946D01*
X216041Y276914D01*
X216033Y276843D01*
X216033Y243282D01*
X216036Y243262D01*
X216034Y243243D01*
X216056Y243141D01*
X216072Y243039D01*
X216082Y243022D01*
X216086Y243002D01*
X216139Y242913D01*
X216188Y242822D01*
X216202Y242808D01*
X216212Y242791D01*
X216291Y242724D01*
X216366Y242652D01*
X216384Y242644D01*
X216399Y242631D01*
X216495Y242592D01*
X216589Y242549D01*
X216609Y242547D01*
X216627Y242539D01*
X216794Y242521D01*
X217458Y242521D01*
X219521Y240458D01*
X219521Y237542D01*
X217458Y235479D01*
X214282Y235479D01*
X214262Y235476D01*
X214243Y235478D01*
X214141Y235456D01*
X214039Y235440D01*
X214022Y235430D01*
X214002Y235426D01*
X213913Y235373D01*
X213822Y235324D01*
X213808Y235310D01*
X213791Y235300D01*
X213724Y235221D01*
X213652Y235146D01*
X213644Y235128D01*
X213631Y235113D01*
X213592Y235016D01*
X213549Y234923D01*
X213547Y234903D01*
X213539Y234885D01*
X213521Y234718D01*
X213521Y233542D01*
X211458Y231479D01*
X208542Y231479D01*
X206479Y233542D01*
X206479Y236458D01*
X207744Y237723D01*
X207797Y237797D01*
X207857Y237867D01*
X207869Y237897D01*
X207888Y237923D01*
X207915Y238010D01*
X207949Y238095D01*
X207953Y238136D01*
X207960Y238158D01*
X207959Y238190D01*
X207967Y238262D01*
X207967Y247843D01*
X207953Y247933D01*
X207945Y248024D01*
X207933Y248053D01*
X207928Y248085D01*
X207885Y248166D01*
X207849Y248250D01*
X207823Y248282D01*
X207812Y248303D01*
X207789Y248325D01*
X207744Y248381D01*
X203981Y252144D01*
X203907Y252197D01*
X203838Y252257D01*
X203807Y252269D01*
X203781Y252288D01*
X203694Y252315D01*
X203609Y252349D01*
X203568Y252353D01*
X203546Y252360D01*
X203514Y252359D01*
X203443Y252367D01*
X202305Y252367D01*
X202285Y252364D01*
X202266Y252366D01*
X202164Y252344D01*
X202062Y252328D01*
X202045Y252318D01*
X202025Y252314D01*
X201936Y252261D01*
X201845Y252212D01*
X201831Y252198D01*
X201814Y252188D01*
X201747Y252109D01*
X201675Y252034D01*
X201667Y252016D01*
X201654Y252001D01*
X201615Y251905D01*
X201572Y251811D01*
X201570Y251791D01*
X201562Y251773D01*
X201555Y251707D01*
X199977Y250129D01*
X195169Y250129D01*
X193811Y251487D01*
X193795Y251499D01*
X193783Y251514D01*
X193695Y251570D01*
X193612Y251631D01*
X193593Y251636D01*
X193576Y251647D01*
X193475Y251673D01*
X193376Y251703D01*
X193357Y251702D01*
X193337Y251707D01*
X193234Y251699D01*
X193131Y251697D01*
X193112Y251690D01*
X193092Y251688D01*
X192997Y251648D01*
X192900Y251612D01*
X192884Y251600D01*
X192866Y251592D01*
X192735Y251487D01*
X191360Y250112D01*
X191348Y250096D01*
X191333Y250084D01*
X191277Y249996D01*
X191216Y249913D01*
X191211Y249894D01*
X191200Y249877D01*
X191174Y249776D01*
X191144Y249677D01*
X191145Y249658D01*
X191140Y249638D01*
X191148Y249535D01*
X191150Y249432D01*
X191157Y249413D01*
X191159Y249393D01*
X191199Y249298D01*
X191235Y249201D01*
X191247Y249185D01*
X191255Y249167D01*
X191360Y249036D01*
X193071Y247325D01*
X193071Y241917D01*
X191504Y240350D01*
X186696Y240350D01*
X185129Y241917D01*
X185129Y241954D01*
X185126Y241974D01*
X185128Y241993D01*
X185106Y242095D01*
X185090Y242197D01*
X185080Y242214D01*
X185076Y242234D01*
X185023Y242323D01*
X184974Y242414D01*
X184960Y242428D01*
X184950Y242445D01*
X184871Y242512D01*
X184796Y242584D01*
X184778Y242592D01*
X184763Y242605D01*
X184667Y242644D01*
X184573Y242687D01*
X184553Y242689D01*
X184535Y242697D01*
X184368Y242715D01*
X176755Y242715D01*
X176665Y242701D01*
X176574Y242693D01*
X176544Y242681D01*
X176513Y242676D01*
X176432Y242633D01*
X176348Y242597D01*
X176316Y242571D01*
X176295Y242560D01*
X176273Y242537D01*
X176217Y242492D01*
X175394Y241669D01*
X175374Y241642D01*
X175349Y241620D01*
X175303Y241543D01*
X175251Y241470D01*
X175241Y241437D01*
X175223Y241408D01*
X175205Y241320D01*
X175178Y241235D01*
X175179Y241201D01*
X175172Y241168D01*
X175182Y241079D01*
X175185Y240989D01*
X175196Y240957D01*
X175200Y240923D01*
X175238Y240842D01*
X175269Y240758D01*
X175290Y240731D01*
X175304Y240701D01*
X175366Y240636D01*
X175423Y240566D01*
X175451Y240547D01*
X175474Y240523D01*
X175554Y240481D01*
X175630Y240433D01*
X175662Y240424D01*
X175692Y240409D01*
X175781Y240395D01*
X175868Y240373D01*
X175902Y240375D01*
X175935Y240370D01*
X176102Y240389D01*
X176492Y240478D01*
X176498Y240480D01*
X176504Y240481D01*
X176612Y240527D01*
X176720Y240571D01*
X176725Y240575D01*
X176730Y240577D01*
X176861Y240682D01*
X176949Y240770D01*
X177685Y240770D01*
X177686Y240770D01*
X177687Y240770D01*
X177854Y240789D01*
X179316Y241122D01*
X179691Y240886D01*
X179696Y240884D01*
X179701Y240880D01*
X179810Y240836D01*
X179918Y240791D01*
X179924Y240790D01*
X179929Y240788D01*
X180096Y240770D01*
X180106Y240770D01*
X180433Y240442D01*
X180434Y240442D01*
X180435Y240440D01*
X180567Y240336D01*
X184047Y238149D01*
X184053Y238147D01*
X184057Y238143D01*
X184144Y238108D01*
X184175Y238085D01*
X184260Y238019D01*
X184278Y238011D01*
X184288Y238004D01*
X184317Y237995D01*
X184415Y237955D01*
X184938Y237803D01*
X184961Y237800D01*
X184982Y237792D01*
X185149Y237773D01*
X185419Y237772D01*
X185510Y237787D01*
X185602Y237794D01*
X185631Y237806D01*
X185662Y237811D01*
X185744Y237854D01*
X185829Y237890D01*
X185860Y237915D01*
X185880Y237926D01*
X185902Y237949D01*
X185959Y237995D01*
X186696Y238732D01*
X191504Y238732D01*
X193071Y237165D01*
X193071Y231757D01*
X191504Y230190D01*
X186696Y230190D01*
X185950Y230936D01*
X185907Y230967D01*
X185870Y231006D01*
X185808Y231039D01*
X185750Y231080D01*
X185699Y231095D01*
X185652Y231120D01*
X185583Y231131D01*
X185515Y231152D01*
X185462Y231151D01*
X185409Y231159D01*
X185298Y231146D01*
X185270Y231146D01*
X185259Y231142D01*
X185243Y231140D01*
X184397Y230947D01*
X184391Y230945D01*
X184385Y230944D01*
X184299Y230908D01*
X184261Y230901D01*
X184155Y230889D01*
X184137Y230881D01*
X184124Y230879D01*
X184097Y230865D01*
X184000Y230824D01*
X182733Y230127D01*
X182673Y230081D01*
X182609Y230042D01*
X182577Y230005D01*
X182539Y229975D01*
X182498Y229912D01*
X182449Y229855D01*
X182431Y229810D01*
X182404Y229770D01*
X182385Y229697D01*
X182357Y229627D01*
X182349Y229562D01*
X182342Y229532D01*
X182343Y229506D01*
X182338Y229460D01*
X182338Y226521D01*
X182353Y226431D01*
X182360Y226340D01*
X182373Y226310D01*
X182378Y226278D01*
X182421Y226198D01*
X182456Y226114D01*
X182482Y226082D01*
X182493Y226061D01*
X182516Y226039D01*
X182561Y225983D01*
X184873Y223671D01*
X184873Y211347D01*
X182664Y209138D01*
X174541Y209138D01*
X172332Y211347D01*
X172332Y223671D01*
X174494Y225833D01*
X174547Y225907D01*
X174606Y225976D01*
X174619Y226006D01*
X174637Y226032D01*
X174664Y226119D01*
X174698Y226204D01*
X174703Y226245D01*
X174710Y226267D01*
X174709Y226300D01*
X174717Y226371D01*
X174717Y226717D01*
X174714Y226737D01*
X174716Y226757D01*
X174694Y226858D01*
X174677Y226960D01*
X174668Y226978D01*
X174663Y226997D01*
X174610Y227086D01*
X174562Y227178D01*
X174547Y227191D01*
X174537Y227209D01*
X174459Y227276D01*
X174384Y227347D01*
X174365Y227355D01*
X174350Y227368D01*
X174254Y227407D01*
X174161Y227451D01*
X174141Y227453D01*
X174122Y227460D01*
X173955Y227479D01*
X160330Y227475D01*
X160309Y227472D01*
X160288Y227474D01*
X160188Y227452D01*
X160087Y227435D01*
X160069Y227425D01*
X160048Y227421D01*
X159960Y227368D01*
X159870Y227320D01*
X159856Y227305D01*
X159837Y227294D01*
X159771Y227216D01*
X159701Y227142D01*
X159692Y227122D01*
X159678Y227106D01*
X159640Y227012D01*
X159597Y226919D01*
X159595Y226898D01*
X159587Y226878D01*
X159581Y226776D01*
X159570Y226674D01*
X159575Y226653D01*
X159573Y226632D01*
X159601Y226534D01*
X159622Y226434D01*
X159633Y226416D01*
X159639Y226395D01*
X159725Y226252D01*
X159754Y226214D01*
X159768Y226201D01*
X159777Y226185D01*
X159857Y226117D01*
X159933Y226045D01*
X159950Y226038D01*
X159964Y226026D01*
X160061Y225986D01*
X160156Y225943D01*
X160175Y225941D01*
X160192Y225934D01*
X160359Y225915D01*
X166280Y225915D01*
X168489Y223706D01*
X168489Y211383D01*
X166280Y209174D01*
X158157Y209174D01*
X155948Y211383D01*
X155948Y220057D01*
X155941Y220098D01*
X155944Y220138D01*
X155921Y220218D01*
X155908Y220300D01*
X155889Y220336D01*
X155878Y220375D01*
X155795Y220513D01*
X155793Y220517D01*
X155792Y220518D01*
X155792Y220519D01*
X146753Y232357D01*
X146752Y232372D01*
X146757Y232390D01*
X146749Y232494D01*
X146746Y232599D01*
X146739Y232617D01*
X146738Y232636D01*
X146697Y232732D01*
X146660Y232830D01*
X146649Y232845D01*
X146641Y232862D01*
X146536Y232993D01*
X146463Y233066D01*
X146463Y235077D01*
X146460Y235096D01*
X146462Y235116D01*
X146440Y235217D01*
X146424Y235319D01*
X146414Y235337D01*
X146410Y235356D01*
X146357Y235445D01*
X146308Y235537D01*
X146294Y235550D01*
X146284Y235567D01*
X146205Y235635D01*
X146130Y235706D01*
X146112Y235714D01*
X146097Y235727D01*
X146001Y235766D01*
X145907Y235810D01*
X145887Y235812D01*
X145869Y235819D01*
X145702Y235838D01*
X143979Y235838D01*
X143908Y235826D01*
X143837Y235824D01*
X143788Y235806D01*
X143736Y235798D01*
X143673Y235765D01*
X143606Y235740D01*
X143565Y235707D01*
X143519Y235683D01*
X143470Y235631D01*
X143414Y235586D01*
X143385Y235542D01*
X143350Y235505D01*
X143319Y235440D01*
X143281Y235379D01*
X143268Y235329D01*
X143246Y235282D01*
X143238Y235210D01*
X143221Y235141D01*
X143225Y235089D01*
X143219Y235037D01*
X143234Y234967D01*
X143240Y234896D01*
X143260Y234848D01*
X143271Y234797D01*
X143308Y234735D01*
X143336Y234669D01*
X143381Y234613D01*
X143397Y234586D01*
X143415Y234570D01*
X143441Y234538D01*
X143521Y234458D01*
X143521Y231542D01*
X141458Y229479D01*
X138542Y229479D01*
X136479Y231542D01*
X136479Y234458D01*
X136559Y234538D01*
X136601Y234596D01*
X136650Y234648D01*
X136672Y234696D01*
X136703Y234738D01*
X136724Y234807D01*
X136754Y234872D01*
X136760Y234923D01*
X136775Y234973D01*
X136773Y235045D01*
X136781Y235116D01*
X136770Y235167D01*
X136769Y235219D01*
X136744Y235286D01*
X136729Y235356D01*
X136702Y235401D01*
X136684Y235450D01*
X136639Y235506D01*
X136603Y235567D01*
X136563Y235601D01*
X136531Y235642D01*
X136470Y235681D01*
X136416Y235727D01*
X136367Y235747D01*
X136324Y235775D01*
X136254Y235792D01*
X136188Y235819D01*
X136116Y235827D01*
X136085Y235835D01*
X136062Y235833D01*
X136021Y235838D01*
X132979Y235838D01*
X132908Y235826D01*
X132837Y235824D01*
X132788Y235806D01*
X132736Y235798D01*
X132673Y235765D01*
X132606Y235740D01*
X132565Y235707D01*
X132519Y235683D01*
X132470Y235631D01*
X132414Y235586D01*
X132385Y235542D01*
X132350Y235505D01*
X132319Y235440D01*
X132281Y235379D01*
X132268Y235329D01*
X132246Y235282D01*
X132238Y235210D01*
X132221Y235141D01*
X132225Y235089D01*
X132219Y235037D01*
X132234Y234967D01*
X132240Y234896D01*
X132260Y234848D01*
X132271Y234797D01*
X132308Y234735D01*
X132336Y234669D01*
X132381Y234613D01*
X132397Y234586D01*
X132415Y234570D01*
X132441Y234538D01*
X132521Y234458D01*
X132521Y231542D01*
X130458Y229479D01*
X127542Y229479D01*
X126038Y230983D01*
X126022Y230994D01*
X126010Y231010D01*
X125922Y231066D01*
X125839Y231126D01*
X125820Y231132D01*
X125803Y231143D01*
X125702Y231168D01*
X125603Y231199D01*
X125584Y231198D01*
X125564Y231203D01*
X125461Y231195D01*
X125358Y231192D01*
X125339Y231185D01*
X125319Y231184D01*
X125224Y231143D01*
X125127Y231108D01*
X125111Y231095D01*
X125093Y231087D01*
X124962Y230983D01*
X123458Y229479D01*
X121033Y229479D01*
X121013Y229476D01*
X120994Y229478D01*
X120892Y229456D01*
X120790Y229440D01*
X120773Y229430D01*
X120753Y229426D01*
X120664Y229373D01*
X120573Y229324D01*
X120559Y229310D01*
X120542Y229300D01*
X120475Y229221D01*
X120404Y229146D01*
X120395Y229128D01*
X120382Y229113D01*
X120343Y229017D01*
X120300Y228923D01*
X120298Y228903D01*
X120290Y228885D01*
X120272Y228718D01*
X120272Y227950D01*
X118209Y225888D01*
X115293Y225888D01*
X113230Y227950D01*
X113230Y228684D01*
X113219Y228755D01*
X113217Y228826D01*
X113199Y228875D01*
X113191Y228927D01*
X113157Y228990D01*
X113132Y229057D01*
X113100Y229098D01*
X113076Y229144D01*
X113023Y229194D01*
X112979Y229249D01*
X112935Y229278D01*
X112897Y229313D01*
X112832Y229344D01*
X112772Y229382D01*
X112721Y229395D01*
X112674Y229417D01*
X112603Y229425D01*
X112533Y229443D01*
X112481Y229438D01*
X112430Y229444D01*
X112360Y229429D01*
X112288Y229423D01*
X112240Y229403D01*
X112189Y229392D01*
X112128Y229355D01*
X112062Y229327D01*
X112006Y229282D01*
X111978Y229266D01*
X111963Y229248D01*
X111931Y229222D01*
X111690Y228981D01*
X108773Y228981D01*
X106711Y231044D01*
X106711Y233961D01*
X107372Y234621D01*
X107383Y234637D01*
X107399Y234650D01*
X107455Y234737D01*
X107515Y234821D01*
X107521Y234840D01*
X107532Y234857D01*
X107557Y234957D01*
X107588Y235056D01*
X107587Y235076D01*
X107592Y235095D01*
X107584Y235198D01*
X107581Y235302D01*
X107574Y235321D01*
X107573Y235341D01*
X107532Y235435D01*
X107497Y235533D01*
X107484Y235549D01*
X107476Y235567D01*
X107372Y235698D01*
X106487Y236582D01*
X106487Y238108D01*
X106484Y238128D01*
X106486Y238148D01*
X106464Y238249D01*
X106448Y238351D01*
X106438Y238369D01*
X106434Y238388D01*
X106381Y238477D01*
X106332Y238568D01*
X106318Y238582D01*
X106308Y238599D01*
X106229Y238666D01*
X106154Y238738D01*
X106136Y238746D01*
X106121Y238759D01*
X106025Y238798D01*
X105931Y238841D01*
X105911Y238844D01*
X105893Y238851D01*
X105726Y238869D01*
X94803Y238869D01*
X94712Y238855D01*
X94622Y238848D01*
X94592Y238835D01*
X94560Y238830D01*
X94479Y238787D01*
X94395Y238751D01*
X94363Y238726D01*
X94342Y238715D01*
X94320Y238691D01*
X94264Y238646D01*
X93276Y237658D01*
X91773Y237658D01*
X91702Y237646D01*
X91631Y237644D01*
X91582Y237627D01*
X91530Y237618D01*
X91467Y237585D01*
X91400Y237560D01*
X91359Y237527D01*
X91313Y237503D01*
X91264Y237451D01*
X91208Y237406D01*
X91179Y237362D01*
X91144Y237325D01*
X91113Y237260D01*
X91075Y237199D01*
X91062Y237149D01*
X91040Y237102D01*
X91032Y237030D01*
X91015Y236961D01*
X91019Y236909D01*
X91013Y236857D01*
X91028Y236787D01*
X91034Y236716D01*
X91054Y236668D01*
X91065Y236617D01*
X91102Y236555D01*
X91130Y236489D01*
X91175Y236433D01*
X91191Y236406D01*
X91209Y236390D01*
X91235Y236358D01*
X96151Y231442D01*
X96151Y230983D01*
X96154Y230963D01*
X96152Y230943D01*
X96174Y230842D01*
X96191Y230740D01*
X96200Y230723D01*
X96204Y230703D01*
X96257Y230614D01*
X96306Y230523D01*
X96320Y230509D01*
X96330Y230492D01*
X96409Y230425D01*
X96484Y230353D01*
X96502Y230345D01*
X96517Y230332D01*
X96614Y230293D01*
X96707Y230250D01*
X96727Y230248D01*
X96746Y230240D01*
X96906Y230222D01*
X98831Y228297D01*
X98831Y220305D01*
X97494Y218968D01*
X97441Y218894D01*
X97381Y218824D01*
X97369Y218794D01*
X97350Y218768D01*
X97324Y218681D01*
X97289Y218596D01*
X97285Y218555D01*
X97278Y218533D01*
X97279Y218501D01*
X97271Y218429D01*
X97271Y212594D01*
X97277Y212554D01*
X97277Y212550D01*
X97282Y212526D01*
X97286Y212504D01*
X97293Y212413D01*
X97305Y212383D01*
X97311Y212351D01*
X97327Y212321D01*
X97329Y212309D01*
X97356Y212264D01*
X97389Y212187D01*
X97415Y212155D01*
X97426Y212134D01*
X97445Y212116D01*
X97455Y212098D01*
X97470Y212086D01*
X97494Y212056D01*
X97941Y211609D01*
X97945Y211569D01*
X97954Y211548D01*
X97958Y211526D01*
X98005Y211437D01*
X98047Y211345D01*
X98062Y211328D01*
X98073Y211308D01*
X98146Y211239D01*
X98215Y211165D01*
X98239Y211151D01*
X98251Y211139D01*
X98281Y211125D01*
X98358Y211078D01*
X100485Y210089D01*
X100563Y210067D01*
X100639Y210036D01*
X100694Y210030D01*
X100722Y210022D01*
X100750Y210024D01*
X100806Y210018D01*
X101692Y210018D01*
X102515Y209195D01*
X102555Y209167D01*
X102588Y209131D01*
X102695Y209066D01*
X102714Y209052D01*
X102722Y209050D01*
X102732Y209043D01*
X105621Y207699D01*
X105699Y207677D01*
X105775Y207647D01*
X105830Y207641D01*
X105857Y207633D01*
X105881Y207634D01*
X105919Y207602D01*
X105948Y207590D01*
X105963Y207579D01*
X105995Y207569D01*
X106073Y207535D01*
X107036Y207231D01*
X107047Y207209D01*
X107072Y207176D01*
X107090Y207137D01*
X107146Y207078D01*
X107194Y207012D01*
X107229Y206988D01*
X107258Y206958D01*
X107389Y206878D01*
X107397Y206873D01*
X107399Y206872D01*
X107401Y206871D01*
X107423Y206861D01*
X107824Y205762D01*
X107864Y205691D01*
X107896Y205616D01*
X107930Y205573D01*
X107944Y205548D01*
X107962Y205532D01*
X107966Y205483D01*
X107978Y205454D01*
X107981Y205435D01*
X107996Y205406D01*
X108027Y205326D01*
X108493Y204430D01*
X108486Y204407D01*
X108480Y204366D01*
X108465Y204326D01*
X108463Y204245D01*
X108451Y204164D01*
X108459Y204122D01*
X108457Y204080D01*
X108494Y203931D01*
X108495Y203922D01*
X108496Y203920D01*
X108497Y203917D01*
X108505Y203895D01*
X108012Y202835D01*
X107990Y202757D01*
X107959Y202681D01*
X107953Y202626D01*
X107946Y202598D01*
X107947Y202575D01*
X107915Y202537D01*
X107903Y202508D01*
X107892Y202493D01*
X107882Y202461D01*
X107848Y202383D01*
X107544Y201420D01*
X107522Y201409D01*
X107489Y201383D01*
X107450Y201366D01*
X107391Y201310D01*
X107325Y201261D01*
X107301Y201226D01*
X107271Y201198D01*
X107191Y201066D01*
X107186Y201059D01*
X107185Y201057D01*
X107184Y201054D01*
X107173Y201033D01*
X106075Y200632D01*
X106004Y200592D01*
X105929Y200560D01*
X105886Y200526D01*
X105861Y200511D01*
X105845Y200494D01*
X105796Y200489D01*
X105766Y200478D01*
X105748Y200475D01*
X105719Y200460D01*
X105639Y200429D01*
X102632Y198864D01*
X102606Y198844D01*
X102576Y198832D01*
X102445Y198727D01*
X101723Y198005D01*
X101168Y198005D01*
X101071Y197989D01*
X100973Y197980D01*
X100943Y197968D01*
X100925Y197965D01*
X100896Y197950D01*
X100816Y197919D01*
X98328Y196624D01*
X98261Y196574D01*
X98188Y196531D01*
X98163Y196501D01*
X98131Y196477D01*
X98083Y196408D01*
X98028Y196344D01*
X98014Y196307D01*
X97991Y196275D01*
X97968Y196194D01*
X97937Y196116D01*
X97931Y196064D01*
X97923Y196038D01*
X97925Y196008D01*
X97918Y195949D01*
X97918Y195937D01*
X96351Y194370D01*
X91543Y194370D01*
X89977Y195937D01*
X89977Y197830D01*
X89961Y197927D01*
X89951Y198025D01*
X89940Y198054D01*
X89937Y198073D01*
X89921Y198102D01*
X89891Y198181D01*
X89838Y198282D01*
X89941Y198609D01*
X89946Y198641D01*
X89958Y198671D01*
X89977Y198838D01*
X89977Y201345D01*
X91543Y202911D01*
X93713Y202911D01*
X93810Y202927D01*
X93908Y202937D01*
X93937Y202948D01*
X93956Y202951D01*
X93985Y202967D01*
X94064Y202997D01*
X94390Y203167D01*
X94408Y203180D01*
X94429Y203189D01*
X94507Y203254D01*
X94587Y203314D01*
X94600Y203333D01*
X94617Y203347D01*
X94670Y203433D01*
X94727Y203517D01*
X94733Y203538D01*
X94745Y203557D01*
X94767Y203656D01*
X94795Y203753D01*
X94794Y203775D01*
X94799Y203797D01*
X94789Y203897D01*
X94784Y203999D01*
X94776Y204020D01*
X94774Y204042D01*
X94732Y204134D01*
X94695Y204228D01*
X94681Y204245D01*
X94672Y204266D01*
X94603Y204340D01*
X94538Y204417D01*
X94519Y204429D01*
X94504Y204445D01*
X94360Y204532D01*
X94246Y204586D01*
X94167Y204608D01*
X94091Y204638D01*
X94036Y204645D01*
X94009Y204652D01*
X93980Y204651D01*
X93924Y204657D01*
X91543Y204657D01*
X89977Y206224D01*
X89977Y208558D01*
X89969Y208607D01*
X89970Y208656D01*
X89941Y208777D01*
X89937Y208801D01*
X89933Y208807D01*
X89930Y208819D01*
X89826Y209104D01*
X89906Y209274D01*
X89922Y209334D01*
X89925Y209339D01*
X89925Y209344D01*
X89927Y209353D01*
X89958Y209429D01*
X89964Y209484D01*
X89972Y209511D01*
X89970Y209540D01*
X89977Y209595D01*
X89977Y211632D01*
X90427Y212082D01*
X90473Y212147D01*
X90487Y212161D01*
X90490Y212167D01*
X90539Y212224D01*
X90551Y212255D01*
X90570Y212281D01*
X90597Y212368D01*
X90631Y212452D01*
X90636Y212494D01*
X90643Y212516D01*
X90642Y212549D01*
X90650Y212619D01*
X90657Y217721D01*
X90642Y217812D01*
X90635Y217903D01*
X90622Y217933D01*
X90617Y217964D01*
X90574Y218045D01*
X90538Y218130D01*
X90513Y218161D01*
X90502Y218182D01*
X90479Y218204D01*
X90434Y218261D01*
X88390Y220305D01*
X88390Y228297D01*
X89711Y229619D01*
X89723Y229635D01*
X89738Y229648D01*
X89795Y229735D01*
X89855Y229819D01*
X89861Y229838D01*
X89871Y229855D01*
X89897Y229955D01*
X89927Y230054D01*
X89927Y230074D01*
X89932Y230093D01*
X89924Y230196D01*
X89921Y230300D01*
X89914Y230318D01*
X89912Y230338D01*
X89872Y230433D01*
X89836Y230531D01*
X89824Y230546D01*
X89816Y230565D01*
X89711Y230696D01*
X86782Y233625D01*
X86708Y233678D01*
X86639Y233737D01*
X86608Y233750D01*
X86582Y233768D01*
X86495Y233795D01*
X86410Y233829D01*
X86369Y233834D01*
X86347Y233841D01*
X86315Y233840D01*
X86244Y233848D01*
X70524Y233848D01*
X58084Y246288D01*
X58084Y262632D01*
X58069Y262722D01*
X58062Y262813D01*
X58050Y262843D01*
X58044Y262875D01*
X58002Y262956D01*
X57966Y263040D01*
X57940Y263072D01*
X57929Y263092D01*
X57906Y263115D01*
X57861Y263171D01*
X55295Y265736D01*
X55221Y265789D01*
X55152Y265849D01*
X55122Y265861D01*
X55096Y265880D01*
X55009Y265907D01*
X54924Y265941D01*
X54883Y265945D01*
X54860Y265952D01*
X54828Y265951D01*
X54757Y265959D01*
X54032Y265959D01*
X54012Y265956D01*
X53993Y265958D01*
X53891Y265936D01*
X53789Y265920D01*
X53772Y265910D01*
X53752Y265906D01*
X53663Y265853D01*
X53572Y265804D01*
X53558Y265790D01*
X53541Y265780D01*
X53474Y265701D01*
X53402Y265626D01*
X53394Y265608D01*
X53381Y265593D01*
X53342Y265497D01*
X53299Y265403D01*
X53297Y265383D01*
X53289Y265365D01*
X53271Y265198D01*
X53271Y262474D01*
X52526Y261729D01*
X41474Y261729D01*
X40729Y262474D01*
X40729Y264298D01*
X40718Y264369D01*
X40716Y264441D01*
X40698Y264490D01*
X40690Y264541D01*
X40656Y264604D01*
X40631Y264672D01*
X40599Y264712D01*
X40574Y264758D01*
X40522Y264808D01*
X40478Y264864D01*
X40434Y264892D01*
X40396Y264928D01*
X40331Y264958D01*
X40271Y264997D01*
X40220Y265010D01*
X40173Y265031D01*
X40102Y265039D01*
X40032Y265057D01*
X39980Y265053D01*
X39929Y265059D01*
X39858Y265043D01*
X39787Y265038D01*
X39739Y265017D01*
X39688Y265006D01*
X39627Y264969D01*
X39561Y264941D01*
X39505Y264897D01*
X39477Y264880D01*
X39462Y264862D01*
X39430Y264837D01*
X36764Y262171D01*
X36711Y262097D01*
X36651Y262027D01*
X36639Y261997D01*
X36620Y261971D01*
X36593Y261884D01*
X36559Y261799D01*
X36555Y261758D01*
X36548Y261736D01*
X36549Y261704D01*
X36541Y261632D01*
X36541Y257948D01*
X32052Y253459D01*
X30785Y253459D01*
X30670Y253440D01*
X30554Y253423D01*
X30548Y253421D01*
X30542Y253420D01*
X30439Y253365D01*
X30335Y253312D01*
X30330Y253307D01*
X30325Y253304D01*
X30245Y253220D01*
X30162Y253136D01*
X30159Y253130D01*
X30155Y253126D01*
X30148Y253109D01*
X30082Y252989D01*
X29740Y252165D01*
X27835Y250260D01*
X25347Y249229D01*
X22653Y249229D01*
X20165Y250260D01*
X18260Y252165D01*
X17229Y254653D01*
X17229Y257347D01*
X18260Y259835D01*
X20165Y261740D01*
X22653Y262771D01*
X25347Y262771D01*
X27835Y261740D01*
X29740Y259835D01*
X29744Y259826D01*
X29768Y259787D01*
X29784Y259743D01*
X29833Y259683D01*
X29874Y259617D01*
X29909Y259587D01*
X29938Y259551D01*
X30003Y259509D01*
X30063Y259460D01*
X30106Y259443D01*
X30145Y259418D01*
X30220Y259400D01*
X30293Y259372D01*
X30339Y259370D01*
X30383Y259358D01*
X30461Y259364D01*
X30538Y259361D01*
X30583Y259374D01*
X30628Y259378D01*
X30700Y259408D01*
X30775Y259430D01*
X30812Y259456D01*
X30855Y259474D01*
X30961Y259559D01*
X30977Y259570D01*
X30980Y259574D01*
X30986Y259579D01*
X31236Y259829D01*
X31289Y259903D01*
X31349Y259973D01*
X31361Y260003D01*
X31380Y260029D01*
X31407Y260116D01*
X31441Y260201D01*
X31445Y260242D01*
X31452Y260264D01*
X31451Y260296D01*
X31459Y260368D01*
X31459Y264052D01*
X38341Y270934D01*
X39968Y270934D01*
X39988Y270937D01*
X40007Y270935D01*
X40109Y270957D01*
X40211Y270973D01*
X40228Y270983D01*
X40248Y270987D01*
X40337Y271040D01*
X40428Y271088D01*
X40442Y271103D01*
X40459Y271113D01*
X40526Y271192D01*
X40598Y271267D01*
X40606Y271285D01*
X40619Y271300D01*
X40658Y271396D01*
X40701Y271490D01*
X40703Y271510D01*
X40711Y271528D01*
X40729Y271695D01*
X40729Y274526D01*
X41474Y275271D01*
X52526Y275271D01*
X53271Y274526D01*
X53271Y271802D01*
X53274Y271782D01*
X53272Y271763D01*
X53294Y271661D01*
X53310Y271559D01*
X53320Y271542D01*
X53324Y271522D01*
X53377Y271433D01*
X53426Y271342D01*
X53440Y271328D01*
X53450Y271311D01*
X53529Y271244D01*
X53604Y271172D01*
X53622Y271164D01*
X53637Y271151D01*
X53733Y271112D01*
X53827Y271069D01*
X53847Y271067D01*
X53865Y271059D01*
X54032Y271041D01*
X57177Y271041D01*
X60594Y267623D01*
X60653Y267582D01*
X60705Y267532D01*
X60752Y267510D01*
X60794Y267480D01*
X60863Y267459D01*
X60928Y267429D01*
X60980Y267423D01*
X61029Y267407D01*
X61101Y267409D01*
X61172Y267401D01*
X61223Y267413D01*
X61275Y267414D01*
X61343Y267438D01*
X61413Y267454D01*
X61457Y267480D01*
X61506Y267498D01*
X61562Y267543D01*
X61624Y267580D01*
X61658Y267619D01*
X61698Y267652D01*
X61737Y267712D01*
X61784Y267767D01*
X61803Y267815D01*
X61831Y267859D01*
X61849Y267928D01*
X61876Y267995D01*
X61883Y268066D01*
X61891Y268097D01*
X61889Y268121D01*
X61894Y268162D01*
X61894Y299040D01*
X61879Y299130D01*
X61872Y299221D01*
X61860Y299251D01*
X61854Y299283D01*
X61812Y299363D01*
X61776Y299447D01*
X61750Y299479D01*
X61739Y299500D01*
X61716Y299522D01*
X61671Y299578D01*
X56656Y304593D01*
X56582Y304646D01*
X56513Y304706D01*
X56482Y304718D01*
X56456Y304737D01*
X56369Y304764D01*
X56284Y304798D01*
X56243Y304802D01*
X56221Y304809D01*
X56189Y304808D01*
X56118Y304816D01*
X30939Y304816D01*
X30824Y304797D01*
X30708Y304780D01*
X30702Y304777D01*
X30696Y304776D01*
X30593Y304722D01*
X30489Y304669D01*
X30484Y304664D01*
X30479Y304661D01*
X30399Y304577D01*
X30316Y304493D01*
X30313Y304487D01*
X30309Y304483D01*
X30302Y304466D01*
X30236Y304346D01*
X29684Y303014D01*
X27719Y301049D01*
X27707Y301033D01*
X27692Y301020D01*
X27636Y300933D01*
X27575Y300849D01*
X27569Y300830D01*
X27559Y300813D01*
X27533Y300713D01*
X27503Y300614D01*
X27503Y300594D01*
X27499Y300575D01*
X27507Y300472D01*
X27509Y300368D01*
X27516Y300349D01*
X27518Y300330D01*
X27558Y300235D01*
X27594Y300137D01*
X27606Y300122D01*
X27614Y300103D01*
X27719Y299972D01*
X29700Y297991D01*
X30731Y295503D01*
X30731Y292809D01*
X29700Y290321D01*
X27762Y288383D01*
X27751Y288367D01*
X27735Y288355D01*
X27679Y288268D01*
X27619Y288184D01*
X27613Y288165D01*
X27602Y288148D01*
X27577Y288047D01*
X27547Y287949D01*
X27547Y287929D01*
X27542Y287909D01*
X27550Y287806D01*
X27553Y287703D01*
X27560Y287684D01*
X27561Y287664D01*
X27602Y287569D01*
X27637Y287472D01*
X27650Y287456D01*
X27658Y287438D01*
X27762Y287307D01*
X29762Y285307D01*
X30793Y282818D01*
X30793Y280125D01*
X29762Y277636D01*
X27858Y275732D01*
X25369Y274701D01*
X22676Y274701D01*
X20187Y275732D01*
X18282Y277636D01*
X17252Y280125D01*
X17252Y282818D01*
X18282Y285307D01*
X20220Y287244D01*
X20231Y287261D01*
X20247Y287273D01*
X20303Y287360D01*
X20363Y287444D01*
X20369Y287463D01*
X20380Y287480D01*
X20405Y287580D01*
X20436Y287679D01*
X20435Y287699D01*
X20440Y287718D01*
X20432Y287821D01*
X20429Y287925D01*
X20422Y287944D01*
X20421Y287964D01*
X20380Y288059D01*
X20345Y288156D01*
X20332Y288172D01*
X20325Y288190D01*
X20220Y288321D01*
X18220Y290321D01*
X17189Y292809D01*
X17189Y295503D01*
X18220Y297991D01*
X20185Y299956D01*
X20196Y299972D01*
X20212Y299985D01*
X20268Y300072D01*
X20328Y300156D01*
X20334Y300175D01*
X20345Y300192D01*
X20370Y300292D01*
X20401Y300391D01*
X20400Y300411D01*
X20405Y300430D01*
X20397Y300533D01*
X20394Y300637D01*
X20387Y300656D01*
X20386Y300675D01*
X20345Y300770D01*
X20310Y300868D01*
X20297Y300883D01*
X20289Y300902D01*
X20185Y301033D01*
X18204Y303014D01*
X17173Y305502D01*
X17173Y308196D01*
X18204Y310684D01*
X20197Y312678D01*
X20209Y312694D01*
X20225Y312707D01*
X20281Y312794D01*
X20341Y312878D01*
X20347Y312897D01*
X20358Y312914D01*
X20383Y313014D01*
X20413Y313113D01*
X20413Y313133D01*
X20418Y313152D01*
X20410Y313255D01*
X20407Y313359D01*
X20400Y313377D01*
X20399Y313397D01*
X20358Y313492D01*
X20323Y313590D01*
X20310Y313605D01*
X20302Y313624D01*
X20197Y313755D01*
X18260Y315692D01*
X17229Y318180D01*
X17229Y320874D01*
X18260Y323363D01*
X20165Y325267D01*
X22653Y326298D01*
X25347Y326298D01*
X27835Y325267D01*
X29740Y323363D01*
X30771Y320874D01*
X30771Y319122D01*
X30785Y319032D01*
X30793Y318941D01*
X30805Y318911D01*
X30810Y318879D01*
X30853Y318798D01*
X30889Y318714D01*
X30915Y318682D01*
X30926Y318662D01*
X30949Y318639D01*
X30994Y318583D01*
X37679Y311899D01*
X37752Y311846D01*
X37822Y311786D01*
X37852Y311774D01*
X37878Y311755D01*
X37965Y311728D01*
X38050Y311694D01*
X38091Y311690D01*
X38113Y311683D01*
X38146Y311684D01*
X38217Y311676D01*
X59274Y311676D01*
X68753Y302197D01*
X68753Y251023D01*
X68768Y250932D01*
X68775Y250842D01*
X68788Y250812D01*
X68793Y250780D01*
X68836Y250699D01*
X68872Y250615D01*
X68897Y250583D01*
X68908Y250562D01*
X68932Y250540D01*
X68976Y250484D01*
X74720Y244740D01*
X74794Y244687D01*
X74864Y244628D01*
X74894Y244616D01*
X74920Y244597D01*
X75007Y244570D01*
X75092Y244536D01*
X75133Y244531D01*
X75155Y244524D01*
X75187Y244525D01*
X75259Y244517D01*
X82540Y244517D01*
X82560Y244521D01*
X82580Y244518D01*
X82681Y244540D01*
X82783Y244557D01*
X82801Y244566D01*
X82820Y244571D01*
X82909Y244624D01*
X83001Y244672D01*
X83014Y244687D01*
X83031Y244697D01*
X83099Y244776D01*
X83170Y244851D01*
X83178Y244869D01*
X83191Y244884D01*
X83230Y244980D01*
X83274Y245074D01*
X83276Y245093D01*
X83283Y245112D01*
X83302Y245279D01*
X83302Y250709D01*
X84869Y252276D01*
X87276Y252276D01*
X87366Y252291D01*
X87457Y252298D01*
X87486Y252310D01*
X87518Y252316D01*
X87599Y252358D01*
X87683Y252394D01*
X87715Y252420D01*
X87736Y252431D01*
X87758Y252454D01*
X87814Y252499D01*
X88590Y253275D01*
X88632Y253333D01*
X88681Y253385D01*
X88703Y253432D01*
X88733Y253474D01*
X88754Y253543D01*
X88785Y253608D01*
X88790Y253660D01*
X88806Y253710D01*
X88804Y253781D01*
X88812Y253852D01*
X88801Y253903D01*
X88799Y253955D01*
X88775Y254023D01*
X88759Y254093D01*
X88733Y254137D01*
X88715Y254186D01*
X88670Y254242D01*
X88633Y254304D01*
X88594Y254338D01*
X88561Y254378D01*
X88501Y254417D01*
X88446Y254464D01*
X88398Y254483D01*
X88354Y254511D01*
X88285Y254529D01*
X88218Y254556D01*
X88147Y254564D01*
X88116Y254572D01*
X88092Y254570D01*
X88051Y254574D01*
X84885Y254574D01*
X83318Y256141D01*
X83318Y259830D01*
X83304Y259920D01*
X83296Y260011D01*
X83284Y260040D01*
X83279Y260072D01*
X83236Y260153D01*
X83200Y260237D01*
X83174Y260269D01*
X83163Y260290D01*
X83140Y260312D01*
X83095Y260368D01*
X82339Y261125D01*
X82265Y261178D01*
X82195Y261237D01*
X82165Y261249D01*
X82139Y261268D01*
X82052Y261295D01*
X82026Y261305D01*
X79912Y263419D01*
X79912Y266349D01*
X81984Y268421D01*
X84914Y268421D01*
X86985Y266349D01*
X86985Y266135D01*
X87000Y266045D01*
X87007Y265954D01*
X87020Y265924D01*
X87025Y265892D01*
X87068Y265811D01*
X87103Y265727D01*
X87129Y265695D01*
X87140Y265675D01*
X87163Y265652D01*
X87208Y265596D01*
X89466Y263339D01*
X89480Y263329D01*
X90938Y261870D01*
X91013Y261817D01*
X91083Y261757D01*
X91112Y261745D01*
X91138Y261727D01*
X91226Y261700D01*
X91311Y261665D01*
X91351Y261661D01*
X91373Y261654D01*
X91406Y261655D01*
X91478Y261647D01*
X95465Y261654D01*
X95484Y261658D01*
X95503Y261655D01*
X95605Y261678D01*
X95708Y261695D01*
X95724Y261704D01*
X95743Y261708D01*
X95833Y261761D01*
X95925Y261810D01*
X95938Y261824D01*
X95954Y261834D01*
X96022Y261913D01*
X96094Y261989D01*
X96102Y262006D01*
X96114Y262021D01*
X96153Y262118D01*
X96197Y262212D01*
X96199Y262231D01*
X96206Y262249D01*
X96225Y262416D01*
X96225Y265920D01*
X96244Y265949D01*
X96304Y266032D01*
X96310Y266051D01*
X96320Y266068D01*
X96346Y266169D01*
X96376Y266268D01*
X96376Y266288D01*
X96380Y266307D01*
X96372Y266410D01*
X96370Y266513D01*
X96363Y266532D01*
X96361Y266552D01*
X96321Y266647D01*
X96285Y266744D01*
X96273Y266760D01*
X96265Y266778D01*
X96225Y266829D01*
X96225Y270920D01*
X96244Y270949D01*
X96304Y271032D01*
X96310Y271051D01*
X96320Y271068D01*
X96346Y271169D01*
X96376Y271268D01*
X96376Y271288D01*
X96380Y271307D01*
X96372Y271410D01*
X96370Y271513D01*
X96363Y271532D01*
X96361Y271552D01*
X96321Y271647D01*
X96285Y271744D01*
X96273Y271760D01*
X96265Y271778D01*
X96225Y271829D01*
X96225Y275920D01*
X96244Y275949D01*
X96304Y276032D01*
X96310Y276051D01*
X96320Y276068D01*
X96346Y276169D01*
X96376Y276268D01*
X96376Y276288D01*
X96380Y276307D01*
X96372Y276410D01*
X96370Y276513D01*
X96363Y276532D01*
X96361Y276552D01*
X96321Y276647D01*
X96285Y276744D01*
X96273Y276760D01*
X96265Y276778D01*
X96225Y276829D01*
X96225Y280920D01*
X96244Y280949D01*
X96304Y281032D01*
X96310Y281051D01*
X96320Y281068D01*
X96346Y281169D01*
X96376Y281268D01*
X96376Y281288D01*
X96380Y281307D01*
X96372Y281410D01*
X96370Y281513D01*
X96363Y281532D01*
X96361Y281552D01*
X96321Y281647D01*
X96285Y281744D01*
X96273Y281760D01*
X96265Y281778D01*
X96225Y281829D01*
X96225Y285920D01*
X96244Y285949D01*
X96304Y286032D01*
X96310Y286051D01*
X96320Y286068D01*
X96346Y286169D01*
X96376Y286268D01*
X96376Y286288D01*
X96380Y286307D01*
X96372Y286410D01*
X96370Y286513D01*
X96363Y286532D01*
X96361Y286552D01*
X96321Y286647D01*
X96285Y286744D01*
X96273Y286760D01*
X96265Y286778D01*
X96225Y286829D01*
X96225Y290920D01*
X96244Y290949D01*
X96304Y291032D01*
X96310Y291051D01*
X96320Y291068D01*
X96346Y291169D01*
X96376Y291268D01*
X96376Y291288D01*
X96380Y291307D01*
X96372Y291410D01*
X96370Y291513D01*
X96363Y291532D01*
X96361Y291552D01*
X96321Y291647D01*
X96285Y291744D01*
X96273Y291760D01*
X96265Y291778D01*
X96225Y291829D01*
X96225Y295920D01*
X96244Y295949D01*
X96304Y296032D01*
X96310Y296051D01*
X96320Y296068D01*
X96346Y296169D01*
X96376Y296268D01*
X96376Y296288D01*
X96380Y296307D01*
X96372Y296410D01*
X96370Y296513D01*
X96363Y296532D01*
X96361Y296552D01*
X96321Y296647D01*
X96285Y296744D01*
X96273Y296760D01*
X96265Y296778D01*
X96225Y296829D01*
X96225Y300315D01*
X96222Y300335D01*
X96224Y300354D01*
X96202Y300456D01*
X96185Y300558D01*
X96176Y300575D01*
X96172Y300595D01*
X96118Y300684D01*
X96070Y300775D01*
X96056Y300789D01*
X96045Y300806D01*
X95967Y300873D01*
X95892Y300945D01*
X95874Y300953D01*
X95858Y300966D01*
X95762Y301005D01*
X95669Y301048D01*
X95649Y301050D01*
X95630Y301058D01*
X95464Y301076D01*
X92689Y301076D01*
X92662Y301072D01*
X92609Y301072D01*
X91634Y300968D01*
X91571Y300993D01*
X91508Y301029D01*
X91458Y301039D01*
X91411Y301058D01*
X91293Y301071D01*
X91267Y301076D01*
X91258Y301075D01*
X91244Y301076D01*
X90822Y301076D01*
X90732Y301062D01*
X90641Y301054D01*
X90611Y301042D01*
X90579Y301037D01*
X90499Y300994D01*
X90415Y300958D01*
X90383Y300932D01*
X90362Y300921D01*
X90340Y300898D01*
X90284Y300853D01*
X88963Y299532D01*
X84155Y299532D01*
X82588Y301099D01*
X82588Y306507D01*
X84155Y308074D01*
X85844Y308074D01*
X85934Y308088D01*
X86025Y308096D01*
X86054Y308108D01*
X86086Y308113D01*
X86167Y308156D01*
X86251Y308192D01*
X86283Y308218D01*
X86304Y308229D01*
X86326Y308252D01*
X86382Y308297D01*
X88151Y310066D01*
X88204Y310140D01*
X88264Y310209D01*
X88276Y310240D01*
X88295Y310266D01*
X88322Y310353D01*
X88356Y310438D01*
X88360Y310479D01*
X88367Y310501D01*
X88366Y310533D01*
X88374Y310604D01*
X88374Y310856D01*
X90446Y312928D01*
X93376Y312928D01*
X95448Y310856D01*
X95448Y307911D01*
X95445Y307907D01*
X95396Y307855D01*
X95374Y307808D01*
X95343Y307766D01*
X95322Y307697D01*
X95292Y307632D01*
X95286Y307580D01*
X95271Y307531D01*
X95273Y307459D01*
X95265Y307388D01*
X95276Y307337D01*
X95277Y307285D01*
X95302Y307217D01*
X95317Y307147D01*
X95344Y307102D01*
X95362Y307054D01*
X95407Y306998D01*
X95443Y306936D01*
X95483Y306902D01*
X95516Y306862D01*
X95576Y306823D01*
X95630Y306776D01*
X95679Y306757D01*
X95722Y306729D01*
X95792Y306711D01*
X95859Y306684D01*
X95930Y306676D01*
X95961Y306668D01*
X95984Y306670D01*
X96025Y306666D01*
X103062Y306666D01*
X103076Y306660D01*
X103116Y306656D01*
X103138Y306649D01*
X103171Y306650D01*
X103242Y306642D01*
X105726Y306642D01*
X105746Y306645D01*
X105765Y306643D01*
X105867Y306665D01*
X105969Y306681D01*
X105986Y306691D01*
X106006Y306695D01*
X106095Y306748D01*
X106186Y306797D01*
X106200Y306811D01*
X106217Y306821D01*
X106284Y306900D01*
X106356Y306975D01*
X106364Y306993D01*
X106377Y307008D01*
X106416Y307104D01*
X106459Y307198D01*
X106461Y307218D01*
X106469Y307236D01*
X106487Y307403D01*
X106487Y316160D01*
X107002Y316675D01*
X107055Y316749D01*
X107115Y316818D01*
X107127Y316848D01*
X107146Y316875D01*
X107173Y316962D01*
X107207Y317046D01*
X107211Y317087D01*
X107218Y317110D01*
X107217Y317142D01*
X107225Y317213D01*
X107225Y322928D01*
X108026Y323729D01*
X108068Y323787D01*
X108117Y323839D01*
X108139Y323887D01*
X108170Y323929D01*
X108191Y323997D01*
X108221Y324062D01*
X108227Y324114D01*
X108242Y324164D01*
X108240Y324236D01*
X108248Y324307D01*
X108237Y324358D01*
X108236Y324410D01*
X108211Y324477D01*
X108196Y324547D01*
X108169Y324592D01*
X108151Y324641D01*
X108106Y324697D01*
X108070Y324758D01*
X108030Y324792D01*
X107998Y324833D01*
X107937Y324872D01*
X107883Y324918D01*
X107834Y324938D01*
X107791Y324966D01*
X107721Y324983D01*
X107655Y325010D01*
X107583Y325018D01*
X107552Y325026D01*
X107529Y325024D01*
X107488Y325029D01*
X106168Y325029D01*
X106148Y325026D01*
X106129Y325028D01*
X106027Y325006D01*
X105925Y324989D01*
X105908Y324980D01*
X105888Y324975D01*
X105799Y324922D01*
X105708Y324874D01*
X105694Y324859D01*
X105677Y324849D01*
X105610Y324771D01*
X105538Y324696D01*
X105530Y324678D01*
X105517Y324662D01*
X105478Y324566D01*
X105435Y324472D01*
X105433Y324453D01*
X105425Y324434D01*
X105407Y324267D01*
X105407Y321258D01*
X104662Y320513D01*
X85610Y320513D01*
X84865Y321258D01*
X84865Y322861D01*
X84862Y322881D01*
X84864Y322901D01*
X84842Y323002D01*
X84826Y323104D01*
X84816Y323122D01*
X84812Y323141D01*
X84759Y323230D01*
X84710Y323322D01*
X84696Y323335D01*
X84686Y323352D01*
X84607Y323420D01*
X84532Y323491D01*
X84514Y323499D01*
X84499Y323512D01*
X84403Y323551D01*
X84309Y323595D01*
X84289Y323597D01*
X84271Y323604D01*
X84139Y323619D01*
X84134Y323620D01*
X84131Y323620D01*
X84104Y323623D01*
X84070Y323623D01*
X83980Y323608D01*
X83889Y323601D01*
X83859Y323588D01*
X83827Y323583D01*
X83747Y323540D01*
X83663Y323504D01*
X83630Y323479D01*
X83610Y323468D01*
X83588Y323445D01*
X83532Y323400D01*
X81817Y321685D01*
X76409Y321685D01*
X74842Y323251D01*
X74842Y328059D01*
X76409Y329626D01*
X81817Y329626D01*
X83532Y327911D01*
X83606Y327858D01*
X83675Y327799D01*
X83705Y327786D01*
X83731Y327768D01*
X83818Y327741D01*
X83903Y327707D01*
X83944Y327702D01*
X83966Y327695D01*
X83999Y327696D01*
X84070Y327688D01*
X84104Y327688D01*
X84124Y327691D01*
X84143Y327689D01*
X84199Y327701D01*
X84212Y327702D01*
X84230Y327708D01*
X84245Y327711D01*
X84347Y327728D01*
X84364Y327737D01*
X84384Y327741D01*
X84473Y327795D01*
X84564Y327843D01*
X84578Y327857D01*
X84595Y327868D01*
X84662Y327946D01*
X84734Y328021D01*
X84742Y328039D01*
X84755Y328054D01*
X84794Y328151D01*
X84837Y328244D01*
X84839Y328264D01*
X84847Y328283D01*
X84865Y328449D01*
X84865Y332310D01*
X85610Y333055D01*
X85627Y333055D01*
X85647Y333058D01*
X85666Y333056D01*
X85768Y333078D01*
X85870Y333094D01*
X85887Y333104D01*
X85907Y333108D01*
X85996Y333161D01*
X86087Y333210D01*
X86101Y333224D01*
X86118Y333234D01*
X86185Y333313D01*
X86257Y333388D01*
X86265Y333406D01*
X86278Y333421D01*
X86317Y333517D01*
X86360Y333611D01*
X86362Y333631D01*
X86370Y333649D01*
X86388Y333816D01*
X86388Y344752D01*
X86385Y344772D01*
X86387Y344791D01*
X86365Y344893D01*
X86349Y344995D01*
X86339Y345012D01*
X86335Y345032D01*
X86282Y345121D01*
X86233Y345212D01*
X86219Y345226D01*
X86209Y345243D01*
X86130Y345310D01*
X86055Y345382D01*
X86037Y345390D01*
X86022Y345403D01*
X85926Y345442D01*
X85832Y345485D01*
X85812Y345487D01*
X85794Y345495D01*
X85627Y345513D01*
X85610Y345513D01*
X84865Y346258D01*
X84865Y349452D01*
X84862Y349471D01*
X84864Y349491D01*
X84842Y349592D01*
X84826Y349694D01*
X84816Y349712D01*
X84812Y349732D01*
X84759Y349821D01*
X84710Y349912D01*
X84696Y349926D01*
X84686Y349943D01*
X84607Y350010D01*
X84532Y350081D01*
X84514Y350090D01*
X84499Y350103D01*
X84403Y350141D01*
X84309Y350185D01*
X84289Y350187D01*
X84271Y350195D01*
X84104Y350213D01*
X83896Y350213D01*
X83806Y350198D01*
X83715Y350191D01*
X83685Y350178D01*
X83654Y350173D01*
X83573Y350131D01*
X83489Y350095D01*
X83457Y350069D01*
X83436Y350058D01*
X83414Y350035D01*
X83358Y349990D01*
X81643Y348275D01*
X76235Y348275D01*
X74668Y349842D01*
X74668Y354650D01*
X76235Y356216D01*
X81643Y356216D01*
X83358Y354501D01*
X83432Y354448D01*
X83501Y354389D01*
X83532Y354377D01*
X83558Y354358D01*
X83645Y354331D01*
X83730Y354297D01*
X83770Y354292D01*
X83793Y354286D01*
X83825Y354286D01*
X83896Y354278D01*
X84104Y354278D01*
X84124Y354282D01*
X84143Y354279D01*
X84245Y354301D01*
X84347Y354318D01*
X84364Y354327D01*
X84384Y354332D01*
X84473Y354385D01*
X84564Y354433D01*
X84578Y354448D01*
X84595Y354458D01*
X84662Y354537D01*
X84734Y354612D01*
X84742Y354630D01*
X84755Y354645D01*
X84794Y354741D01*
X84837Y354835D01*
X84839Y354854D01*
X84847Y354873D01*
X84865Y355040D01*
X84865Y357310D01*
X85610Y358055D01*
X104662Y358055D01*
X105407Y357310D01*
X105407Y354578D01*
X105410Y354558D01*
X105408Y354539D01*
X105430Y354437D01*
X105446Y354335D01*
X105456Y354318D01*
X105460Y354298D01*
X105513Y354209D01*
X105562Y354118D01*
X105576Y354104D01*
X105586Y354087D01*
X105665Y354020D01*
X105740Y353948D01*
X105758Y353940D01*
X105773Y353927D01*
X105869Y353888D01*
X105963Y353845D01*
X105983Y353843D01*
X106001Y353835D01*
X106044Y353830D01*
X111283Y348592D01*
X111283Y336458D01*
X111298Y336368D01*
X111305Y336277D01*
X111317Y336248D01*
X111323Y336216D01*
X111365Y336135D01*
X111401Y336051D01*
X111427Y336019D01*
X111438Y335998D01*
X111461Y335976D01*
X111506Y335920D01*
X112533Y334893D01*
X112607Y334840D01*
X112676Y334780D01*
X112706Y334768D01*
X112733Y334749D01*
X112820Y334723D01*
X112904Y334688D01*
X112945Y334684D01*
X112968Y334677D01*
X113000Y334678D01*
X113071Y334670D01*
X122833Y334670D01*
X129085Y328418D01*
X129085Y320292D01*
X129099Y320202D01*
X129107Y320111D01*
X129119Y320081D01*
X129124Y320049D01*
X129167Y319968D01*
X129203Y319884D01*
X129229Y319852D01*
X129240Y319832D01*
X129263Y319809D01*
X129308Y319753D01*
X131291Y317770D01*
X131291Y317665D01*
X131294Y317646D01*
X131292Y317626D01*
X131314Y317525D01*
X131330Y317423D01*
X131340Y317405D01*
X131344Y317386D01*
X131397Y317297D01*
X131446Y317205D01*
X131460Y317192D01*
X131470Y317175D01*
X131549Y317107D01*
X131624Y317036D01*
X131642Y317028D01*
X131657Y317015D01*
X131753Y316976D01*
X131847Y316932D01*
X131867Y316930D01*
X131885Y316923D01*
X132052Y316904D01*
X136307Y316904D01*
X136336Y316885D01*
X136419Y316825D01*
X136438Y316819D01*
X136455Y316809D01*
X136556Y316783D01*
X136655Y316753D01*
X136675Y316753D01*
X136694Y316749D01*
X136797Y316757D01*
X136900Y316759D01*
X136919Y316766D01*
X136939Y316768D01*
X137034Y316808D01*
X137131Y316844D01*
X137147Y316856D01*
X137165Y316864D01*
X137216Y316904D01*
X141307Y316904D01*
X141336Y316885D01*
X141419Y316825D01*
X141438Y316819D01*
X141455Y316809D01*
X141556Y316783D01*
X141655Y316753D01*
X141675Y316753D01*
X141694Y316749D01*
X141797Y316757D01*
X141900Y316759D01*
X141919Y316766D01*
X141939Y316768D01*
X142034Y316808D01*
X142131Y316844D01*
X142147Y316856D01*
X142165Y316864D01*
X142216Y316904D01*
X146307Y316904D01*
X146336Y316885D01*
X146419Y316825D01*
X146438Y316819D01*
X146455Y316809D01*
X146556Y316783D01*
X146655Y316753D01*
X146675Y316753D01*
X146694Y316749D01*
X146797Y316757D01*
X146900Y316759D01*
X146919Y316766D01*
X146939Y316768D01*
X147034Y316808D01*
X147131Y316844D01*
X147147Y316856D01*
X147165Y316864D01*
X147216Y316904D01*
X151307Y316904D01*
X151336Y316885D01*
X151419Y316825D01*
X151438Y316819D01*
X151455Y316809D01*
X151556Y316783D01*
X151655Y316753D01*
X151675Y316753D01*
X151694Y316749D01*
X151797Y316757D01*
X151900Y316759D01*
X151919Y316766D01*
X151939Y316768D01*
X152034Y316808D01*
X152131Y316844D01*
X152147Y316856D01*
X152165Y316864D01*
X152216Y316904D01*
X155185Y316904D01*
X155255Y316916D01*
X155327Y316918D01*
X155376Y316936D01*
X155427Y316944D01*
X155491Y316977D01*
X155558Y317002D01*
X155599Y317035D01*
X155645Y317059D01*
X155694Y317111D01*
X155750Y317156D01*
X155778Y317200D01*
X155814Y317237D01*
X155844Y317302D01*
X155883Y317363D01*
X155896Y317413D01*
X155918Y317460D01*
X155926Y317532D01*
X155943Y317601D01*
X155939Y317653D01*
X155945Y317705D01*
X155929Y317775D01*
X155924Y317846D01*
X155904Y317894D01*
X155892Y317945D01*
X155856Y318007D01*
X155828Y318073D01*
X155783Y318129D01*
X155766Y318156D01*
X155749Y318172D01*
X155723Y318204D01*
X155083Y318843D01*
X155083Y322363D01*
X155068Y322454D01*
X155061Y322544D01*
X155049Y322574D01*
X155043Y322606D01*
X155001Y322687D01*
X154965Y322771D01*
X154939Y322803D01*
X154928Y322824D01*
X154905Y322846D01*
X154860Y322902D01*
X154103Y323659D01*
X154103Y326479D01*
X154655Y327031D01*
X154666Y327047D01*
X154682Y327059D01*
X154713Y327108D01*
X154715Y327110D01*
X154716Y327112D01*
X154738Y327147D01*
X154798Y327230D01*
X154804Y327249D01*
X154815Y327266D01*
X154840Y327367D01*
X154871Y327466D01*
X154870Y327485D01*
X154875Y327505D01*
X154867Y327608D01*
X154864Y327711D01*
X154857Y327730D01*
X154856Y327750D01*
X154815Y327845D01*
X154780Y327942D01*
X154767Y327958D01*
X154759Y327976D01*
X154655Y328107D01*
X154103Y328659D01*
X154103Y331479D01*
X154655Y332031D01*
X154666Y332047D01*
X154682Y332059D01*
X154738Y332147D01*
X154798Y332230D01*
X154804Y332249D01*
X154815Y332266D01*
X154840Y332367D01*
X154871Y332466D01*
X154870Y332485D01*
X154875Y332505D01*
X154867Y332608D01*
X154864Y332711D01*
X154857Y332730D01*
X154856Y332750D01*
X154815Y332845D01*
X154780Y332942D01*
X154767Y332958D01*
X154759Y332976D01*
X154655Y333107D01*
X154103Y333659D01*
X154103Y336479D01*
X155214Y337590D01*
X155953Y337590D01*
X156024Y337601D01*
X156096Y337603D01*
X156144Y337621D01*
X156195Y337629D01*
X156259Y337663D01*
X156327Y337688D01*
X156384Y337730D01*
X156413Y337745D01*
X156429Y337762D01*
X156463Y337786D01*
X159498Y340527D01*
X159503Y340533D01*
X159512Y340540D01*
X167617Y348243D01*
X167671Y348313D01*
X167730Y348379D01*
X167744Y348411D01*
X167766Y348439D01*
X167794Y348523D01*
X167830Y348603D01*
X167836Y348648D01*
X167844Y348672D01*
X167844Y348703D01*
X167854Y348770D01*
X167914Y350587D01*
X171424Y353872D01*
X173343Y353808D01*
X173363Y353811D01*
X173383Y353808D01*
X173485Y353826D01*
X173587Y353840D01*
X173605Y353848D01*
X173625Y353852D01*
X173715Y353902D01*
X173809Y353947D01*
X173823Y353961D01*
X173840Y353971D01*
X173910Y354047D01*
X173984Y354120D01*
X173993Y354138D01*
X174006Y354153D01*
X174048Y354247D01*
X174095Y354340D01*
X174098Y354359D01*
X174106Y354378D01*
X174130Y354544D01*
X174193Y356463D01*
X175837Y358001D01*
X175900Y358082D01*
X175967Y358161D01*
X175974Y358179D01*
X175987Y358195D01*
X176020Y358293D01*
X176059Y358388D01*
X176062Y358413D01*
X176067Y358428D01*
X176067Y358460D01*
X176078Y358555D01*
X176081Y360543D01*
X176066Y360634D01*
X176059Y360726D01*
X176047Y360755D01*
X176042Y360786D01*
X175999Y360868D01*
X175963Y360952D01*
X175938Y360983D01*
X175927Y361004D01*
X175904Y361026D01*
X175858Y361083D01*
X175112Y361829D01*
X175112Y366251D01*
X175109Y366270D01*
X175111Y366290D01*
X175089Y366391D01*
X175073Y366493D01*
X175063Y366511D01*
X175059Y366530D01*
X175006Y366619D01*
X174957Y366711D01*
X174943Y366724D01*
X174933Y366742D01*
X174854Y366809D01*
X174779Y366880D01*
X174761Y366889D01*
X174746Y366901D01*
X174650Y366940D01*
X174556Y366984D01*
X174536Y366986D01*
X174518Y366993D01*
X174351Y367012D01*
X56199Y367012D01*
X56109Y366997D01*
X56018Y366990D01*
X55988Y366977D01*
X55956Y366972D01*
X55876Y366929D01*
X55792Y366894D01*
X55759Y366868D01*
X55739Y366857D01*
X55717Y366834D01*
X55661Y366789D01*
X53765Y364893D01*
X49869Y363279D01*
X45651Y363279D01*
X41755Y364893D01*
X39859Y366789D01*
X39785Y366842D01*
X39716Y366901D01*
X39686Y366914D01*
X39660Y366932D01*
X39573Y366959D01*
X39488Y366993D01*
X39447Y366998D01*
X39425Y367005D01*
X39392Y367004D01*
X39321Y367012D01*
X11025Y367012D01*
X10906Y366992D01*
X10788Y366974D01*
X10785Y366973D01*
X10782Y366972D01*
X10675Y366916D01*
X10569Y366861D01*
X10567Y366859D01*
X10565Y366857D01*
X10482Y366770D01*
X10399Y366684D01*
X10397Y366681D01*
X10395Y366679D01*
X10344Y366570D01*
X10293Y366462D01*
X10293Y366458D01*
X10292Y366456D01*
X10290Y366445D01*
X10265Y366296D01*
X4364Y267952D01*
X4366Y267934D01*
X4363Y267906D01*
X4363Y5529D01*
X4366Y5509D01*
X4364Y5490D01*
X4386Y5388D01*
X4402Y5286D01*
X4412Y5269D01*
X4416Y5249D01*
X4469Y5160D01*
X4518Y5069D01*
X4532Y5055D01*
X4542Y5038D01*
X4621Y4971D01*
X4696Y4899D01*
X4714Y4891D01*
X4729Y4878D01*
X4825Y4839D01*
X4919Y4796D01*
X4939Y4794D01*
X4957Y4786D01*
X5124Y4768D01*
X290876Y4768D01*
X290896Y4771D01*
G37*
G36*
X121797Y246732D02*
X121797Y246732D01*
X121900Y246734D01*
X121919Y246741D01*
X121939Y246743D01*
X122034Y246783D01*
X122131Y246819D01*
X122147Y246831D01*
X122165Y246839D01*
X122216Y246879D01*
X126307Y246879D01*
X126336Y246861D01*
X126419Y246800D01*
X126438Y246795D01*
X126455Y246784D01*
X126556Y246758D01*
X126654Y246728D01*
X126674Y246729D01*
X126694Y246724D01*
X126797Y246732D01*
X126900Y246734D01*
X126919Y246741D01*
X126939Y246743D01*
X127034Y246783D01*
X127131Y246819D01*
X127147Y246831D01*
X127165Y246839D01*
X127216Y246879D01*
X131307Y246879D01*
X131336Y246861D01*
X131419Y246800D01*
X131438Y246795D01*
X131455Y246784D01*
X131556Y246758D01*
X131654Y246728D01*
X131674Y246729D01*
X131694Y246724D01*
X131797Y246732D01*
X131900Y246734D01*
X131919Y246741D01*
X131939Y246743D01*
X132034Y246783D01*
X132131Y246819D01*
X132147Y246831D01*
X132165Y246839D01*
X132216Y246879D01*
X136307Y246879D01*
X136336Y246861D01*
X136419Y246800D01*
X136438Y246795D01*
X136455Y246784D01*
X136556Y246758D01*
X136654Y246728D01*
X136674Y246729D01*
X136694Y246724D01*
X136797Y246732D01*
X136900Y246734D01*
X136919Y246741D01*
X136939Y246743D01*
X137034Y246783D01*
X137131Y246819D01*
X137147Y246831D01*
X137165Y246839D01*
X137216Y246879D01*
X141307Y246879D01*
X141336Y246861D01*
X141419Y246800D01*
X141438Y246795D01*
X141455Y246784D01*
X141556Y246758D01*
X141654Y246728D01*
X141674Y246729D01*
X141694Y246724D01*
X141797Y246732D01*
X141900Y246734D01*
X141919Y246741D01*
X141939Y246743D01*
X142034Y246783D01*
X142131Y246819D01*
X142147Y246831D01*
X142165Y246839D01*
X142216Y246879D01*
X146307Y246879D01*
X146336Y246861D01*
X146419Y246800D01*
X146438Y246795D01*
X146455Y246784D01*
X146556Y246758D01*
X146654Y246728D01*
X146674Y246729D01*
X146694Y246724D01*
X146797Y246732D01*
X146900Y246734D01*
X146919Y246741D01*
X146939Y246743D01*
X147034Y246783D01*
X147131Y246819D01*
X147147Y246831D01*
X147165Y246839D01*
X147216Y246879D01*
X151307Y246879D01*
X151336Y246861D01*
X151419Y246800D01*
X151438Y246795D01*
X151455Y246784D01*
X151556Y246758D01*
X151654Y246728D01*
X151674Y246729D01*
X151694Y246724D01*
X151797Y246732D01*
X151900Y246734D01*
X151919Y246741D01*
X151939Y246743D01*
X152034Y246783D01*
X152131Y246819D01*
X152147Y246831D01*
X152165Y246839D01*
X152216Y246879D01*
X156307Y246879D01*
X156336Y246861D01*
X156419Y246800D01*
X156438Y246795D01*
X156455Y246784D01*
X156556Y246758D01*
X156654Y246728D01*
X156674Y246729D01*
X156694Y246724D01*
X156797Y246732D01*
X156900Y246734D01*
X156919Y246741D01*
X156939Y246743D01*
X157034Y246783D01*
X157131Y246819D01*
X157147Y246831D01*
X157165Y246839D01*
X157216Y246879D01*
X161307Y246879D01*
X161336Y246861D01*
X161419Y246800D01*
X161438Y246795D01*
X161455Y246784D01*
X161556Y246758D01*
X161654Y246728D01*
X161674Y246729D01*
X161694Y246724D01*
X161797Y246732D01*
X161900Y246734D01*
X161919Y246741D01*
X161939Y246743D01*
X162034Y246783D01*
X162131Y246819D01*
X162147Y246831D01*
X162165Y246839D01*
X162216Y246879D01*
X165488Y246879D01*
X165508Y246882D01*
X165528Y246880D01*
X165629Y246902D01*
X165731Y246919D01*
X165749Y246928D01*
X165768Y246933D01*
X165857Y246986D01*
X165949Y247034D01*
X165962Y247049D01*
X165979Y247059D01*
X166047Y247137D01*
X166118Y247212D01*
X166126Y247230D01*
X166139Y247246D01*
X166178Y247342D01*
X166222Y247436D01*
X166224Y247455D01*
X166231Y247474D01*
X166250Y247641D01*
X166250Y250920D01*
X166269Y250949D01*
X166329Y251032D01*
X166334Y251051D01*
X166345Y251068D01*
X166371Y251169D01*
X166401Y251268D01*
X166400Y251288D01*
X166405Y251307D01*
X166397Y251410D01*
X166395Y251513D01*
X166388Y251532D01*
X166386Y251552D01*
X166346Y251647D01*
X166310Y251744D01*
X166298Y251760D01*
X166290Y251778D01*
X166250Y251829D01*
X166250Y255920D01*
X166268Y255949D01*
X166329Y256032D01*
X166334Y256051D01*
X166345Y256068D01*
X166371Y256169D01*
X166401Y256267D01*
X166400Y256288D01*
X166405Y256307D01*
X166397Y256410D01*
X166395Y256513D01*
X166388Y256532D01*
X166386Y256552D01*
X166346Y256647D01*
X166310Y256744D01*
X166298Y256760D01*
X166290Y256778D01*
X166250Y256829D01*
X166250Y260919D01*
X166268Y260949D01*
X166329Y261032D01*
X166335Y261051D01*
X166345Y261068D01*
X166371Y261169D01*
X166401Y261267D01*
X166401Y261288D01*
X166405Y261307D01*
X166397Y261410D01*
X166395Y261513D01*
X166388Y261532D01*
X166386Y261552D01*
X166346Y261647D01*
X166310Y261744D01*
X166298Y261760D01*
X166290Y261778D01*
X166250Y261829D01*
X166250Y265920D01*
X166268Y265949D01*
X166329Y266032D01*
X166334Y266051D01*
X166345Y266068D01*
X166371Y266169D01*
X166401Y266267D01*
X166400Y266287D01*
X166405Y266307D01*
X166397Y266410D01*
X166395Y266513D01*
X166388Y266532D01*
X166386Y266552D01*
X166346Y266647D01*
X166310Y266744D01*
X166298Y266760D01*
X166290Y266778D01*
X166250Y266829D01*
X166250Y270920D01*
X166268Y270949D01*
X166329Y271032D01*
X166334Y271051D01*
X166345Y271068D01*
X166371Y271169D01*
X166401Y271267D01*
X166400Y271287D01*
X166405Y271307D01*
X166397Y271410D01*
X166395Y271513D01*
X166388Y271532D01*
X166386Y271552D01*
X166346Y271647D01*
X166310Y271744D01*
X166298Y271760D01*
X166290Y271778D01*
X166250Y271829D01*
X166250Y275920D01*
X166268Y275949D01*
X166329Y276032D01*
X166334Y276051D01*
X166345Y276068D01*
X166371Y276169D01*
X166401Y276267D01*
X166400Y276287D01*
X166405Y276307D01*
X166397Y276410D01*
X166395Y276513D01*
X166388Y276532D01*
X166386Y276552D01*
X166346Y276647D01*
X166310Y276744D01*
X166298Y276760D01*
X166290Y276778D01*
X166250Y276829D01*
X166250Y280920D01*
X166268Y280949D01*
X166329Y281032D01*
X166334Y281051D01*
X166345Y281068D01*
X166371Y281169D01*
X166401Y281267D01*
X166400Y281287D01*
X166405Y281307D01*
X166397Y281410D01*
X166395Y281513D01*
X166388Y281532D01*
X166386Y281552D01*
X166346Y281647D01*
X166310Y281744D01*
X166298Y281760D01*
X166290Y281778D01*
X166250Y281829D01*
X166250Y285920D01*
X166268Y285949D01*
X166329Y286032D01*
X166334Y286051D01*
X166345Y286068D01*
X166371Y286169D01*
X166401Y286267D01*
X166400Y286287D01*
X166405Y286307D01*
X166397Y286410D01*
X166395Y286513D01*
X166388Y286532D01*
X166386Y286552D01*
X166346Y286647D01*
X166310Y286744D01*
X166298Y286760D01*
X166290Y286778D01*
X166250Y286829D01*
X166250Y290920D01*
X166268Y290949D01*
X166329Y291032D01*
X166334Y291051D01*
X166345Y291068D01*
X166371Y291169D01*
X166401Y291267D01*
X166400Y291287D01*
X166405Y291307D01*
X166397Y291410D01*
X166395Y291513D01*
X166388Y291532D01*
X166386Y291552D01*
X166346Y291647D01*
X166310Y291744D01*
X166298Y291760D01*
X166290Y291778D01*
X166250Y291829D01*
X166250Y295920D01*
X166268Y295949D01*
X166329Y296032D01*
X166334Y296051D01*
X166345Y296068D01*
X166371Y296169D01*
X166401Y296267D01*
X166400Y296287D01*
X166405Y296307D01*
X166397Y296410D01*
X166395Y296513D01*
X166388Y296532D01*
X166386Y296552D01*
X166346Y296647D01*
X166310Y296744D01*
X166298Y296760D01*
X166290Y296778D01*
X166250Y296829D01*
X166250Y300920D01*
X166268Y300949D01*
X166329Y301032D01*
X166334Y301051D01*
X166345Y301068D01*
X166371Y301169D01*
X166401Y301267D01*
X166400Y301287D01*
X166405Y301307D01*
X166397Y301410D01*
X166395Y301513D01*
X166388Y301532D01*
X166386Y301552D01*
X166346Y301647D01*
X166310Y301744D01*
X166298Y301760D01*
X166290Y301778D01*
X166250Y301829D01*
X166250Y305101D01*
X166247Y305121D01*
X166249Y305141D01*
X166227Y305242D01*
X166210Y305344D01*
X166201Y305362D01*
X166196Y305381D01*
X166143Y305470D01*
X166095Y305562D01*
X166080Y305575D01*
X166070Y305592D01*
X165992Y305660D01*
X165917Y305731D01*
X165899Y305739D01*
X165883Y305752D01*
X165787Y305791D01*
X165693Y305835D01*
X165674Y305837D01*
X165655Y305844D01*
X165488Y305863D01*
X162209Y305863D01*
X162180Y305882D01*
X162097Y305942D01*
X162078Y305947D01*
X162061Y305958D01*
X161960Y305984D01*
X161861Y306014D01*
X161841Y306013D01*
X161822Y306018D01*
X161719Y306010D01*
X161616Y306008D01*
X161597Y306001D01*
X161577Y305999D01*
X161482Y305959D01*
X161385Y305923D01*
X161369Y305911D01*
X161351Y305903D01*
X161300Y305863D01*
X157209Y305863D01*
X157180Y305881D01*
X157097Y305942D01*
X157078Y305947D01*
X157061Y305958D01*
X156960Y305984D01*
X156862Y306014D01*
X156842Y306013D01*
X156822Y306018D01*
X156719Y306010D01*
X156616Y306008D01*
X156597Y306001D01*
X156577Y305999D01*
X156482Y305959D01*
X156385Y305923D01*
X156369Y305911D01*
X156351Y305903D01*
X156300Y305863D01*
X152209Y305863D01*
X152180Y305881D01*
X152097Y305942D01*
X152078Y305947D01*
X152061Y305958D01*
X151960Y305984D01*
X151862Y306014D01*
X151842Y306013D01*
X151822Y306018D01*
X151719Y306010D01*
X151616Y306008D01*
X151597Y306001D01*
X151577Y305999D01*
X151482Y305959D01*
X151385Y305923D01*
X151369Y305911D01*
X151351Y305903D01*
X151300Y305863D01*
X147209Y305863D01*
X147180Y305881D01*
X147097Y305942D01*
X147078Y305947D01*
X147061Y305958D01*
X146960Y305984D01*
X146862Y306014D01*
X146842Y306013D01*
X146822Y306018D01*
X146719Y306010D01*
X146616Y306008D01*
X146597Y306001D01*
X146577Y305999D01*
X146482Y305959D01*
X146385Y305923D01*
X146369Y305911D01*
X146351Y305903D01*
X146300Y305863D01*
X142209Y305863D01*
X142180Y305881D01*
X142097Y305942D01*
X142078Y305947D01*
X142061Y305958D01*
X141960Y305984D01*
X141862Y306014D01*
X141842Y306013D01*
X141822Y306018D01*
X141719Y306010D01*
X141616Y306008D01*
X141597Y306001D01*
X141577Y305999D01*
X141482Y305959D01*
X141385Y305923D01*
X141369Y305911D01*
X141351Y305903D01*
X141300Y305863D01*
X137209Y305863D01*
X137180Y305881D01*
X137097Y305942D01*
X137078Y305947D01*
X137061Y305958D01*
X136960Y305984D01*
X136862Y306014D01*
X136842Y306013D01*
X136822Y306018D01*
X136719Y306010D01*
X136616Y306008D01*
X136597Y306001D01*
X136577Y305999D01*
X136482Y305959D01*
X136385Y305923D01*
X136369Y305911D01*
X136351Y305903D01*
X136300Y305863D01*
X132209Y305863D01*
X132180Y305881D01*
X132097Y305942D01*
X132078Y305947D01*
X132061Y305958D01*
X131960Y305984D01*
X131862Y306014D01*
X131842Y306013D01*
X131822Y306018D01*
X131719Y306010D01*
X131616Y306008D01*
X131597Y306001D01*
X131577Y305999D01*
X131482Y305959D01*
X131385Y305923D01*
X131369Y305911D01*
X131351Y305903D01*
X131300Y305863D01*
X127209Y305863D01*
X127180Y305881D01*
X127097Y305942D01*
X127078Y305947D01*
X127061Y305958D01*
X126960Y305984D01*
X126862Y306014D01*
X126842Y306013D01*
X126822Y306018D01*
X126719Y306010D01*
X126616Y306008D01*
X126597Y306001D01*
X126577Y305999D01*
X126482Y305959D01*
X126385Y305923D01*
X126369Y305911D01*
X126351Y305903D01*
X126300Y305863D01*
X122209Y305863D01*
X122180Y305881D01*
X122097Y305942D01*
X122078Y305948D01*
X122061Y305958D01*
X121960Y305984D01*
X121862Y306014D01*
X121841Y306014D01*
X121822Y306018D01*
X121719Y306010D01*
X121616Y306008D01*
X121597Y306001D01*
X121577Y305999D01*
X121482Y305959D01*
X121385Y305923D01*
X121369Y305911D01*
X121351Y305903D01*
X121300Y305863D01*
X117209Y305863D01*
X117180Y305881D01*
X117097Y305942D01*
X117078Y305947D01*
X117061Y305958D01*
X116960Y305984D01*
X116862Y306014D01*
X116841Y306013D01*
X116822Y306018D01*
X116719Y306010D01*
X116616Y306008D01*
X116597Y306001D01*
X116577Y305999D01*
X116482Y305959D01*
X116385Y305923D01*
X116369Y305911D01*
X116351Y305903D01*
X116300Y305863D01*
X112209Y305863D01*
X112180Y305881D01*
X112097Y305942D01*
X112078Y305947D01*
X112061Y305958D01*
X111960Y305984D01*
X111862Y306014D01*
X111842Y306013D01*
X111822Y306018D01*
X111719Y306010D01*
X111616Y306008D01*
X111597Y306001D01*
X111577Y305999D01*
X111482Y305959D01*
X111385Y305923D01*
X111369Y305911D01*
X111351Y305903D01*
X111300Y305863D01*
X108028Y305863D01*
X108008Y305860D01*
X107988Y305862D01*
X107887Y305840D01*
X107785Y305823D01*
X107767Y305814D01*
X107748Y305809D01*
X107659Y305756D01*
X107567Y305708D01*
X107554Y305693D01*
X107537Y305683D01*
X107469Y305605D01*
X107398Y305530D01*
X107390Y305512D01*
X107377Y305496D01*
X107338Y305400D01*
X107294Y305306D01*
X107292Y305287D01*
X107285Y305268D01*
X107266Y305101D01*
X107266Y301822D01*
X107248Y301793D01*
X107187Y301710D01*
X107182Y301691D01*
X107171Y301674D01*
X107145Y301573D01*
X107115Y301475D01*
X107116Y301455D01*
X107111Y301435D01*
X107119Y301332D01*
X107121Y301229D01*
X107128Y301210D01*
X107130Y301190D01*
X107170Y301095D01*
X107206Y300998D01*
X107218Y300982D01*
X107226Y300964D01*
X107266Y300913D01*
X107266Y296822D01*
X107248Y296793D01*
X107187Y296710D01*
X107182Y296691D01*
X107171Y296674D01*
X107145Y296573D01*
X107115Y296475D01*
X107116Y296455D01*
X107111Y296435D01*
X107119Y296332D01*
X107121Y296229D01*
X107128Y296210D01*
X107130Y296190D01*
X107170Y296095D01*
X107206Y295998D01*
X107218Y295982D01*
X107226Y295964D01*
X107266Y295913D01*
X107266Y291822D01*
X107248Y291793D01*
X107187Y291710D01*
X107182Y291691D01*
X107171Y291674D01*
X107145Y291573D01*
X107115Y291475D01*
X107116Y291455D01*
X107111Y291435D01*
X107119Y291332D01*
X107121Y291229D01*
X107128Y291210D01*
X107130Y291190D01*
X107170Y291095D01*
X107206Y290998D01*
X107218Y290982D01*
X107226Y290964D01*
X107266Y290913D01*
X107266Y286822D01*
X107248Y286793D01*
X107187Y286710D01*
X107182Y286691D01*
X107171Y286674D01*
X107145Y286573D01*
X107115Y286475D01*
X107116Y286455D01*
X107111Y286435D01*
X107119Y286332D01*
X107121Y286229D01*
X107128Y286210D01*
X107130Y286190D01*
X107170Y286095D01*
X107206Y285998D01*
X107218Y285982D01*
X107226Y285964D01*
X107266Y285913D01*
X107266Y281822D01*
X107248Y281793D01*
X107187Y281710D01*
X107182Y281691D01*
X107171Y281674D01*
X107145Y281573D01*
X107115Y281475D01*
X107116Y281455D01*
X107111Y281435D01*
X107119Y281332D01*
X107121Y281229D01*
X107128Y281210D01*
X107130Y281190D01*
X107170Y281095D01*
X107206Y280998D01*
X107218Y280982D01*
X107226Y280964D01*
X107266Y280913D01*
X107266Y276822D01*
X107247Y276793D01*
X107187Y276710D01*
X107182Y276691D01*
X107171Y276674D01*
X107145Y276573D01*
X107115Y276475D01*
X107116Y276455D01*
X107111Y276435D01*
X107119Y276332D01*
X107121Y276229D01*
X107128Y276210D01*
X107130Y276190D01*
X107170Y276095D01*
X107206Y275998D01*
X107218Y275982D01*
X107226Y275964D01*
X107266Y275913D01*
X107266Y271822D01*
X107248Y271793D01*
X107187Y271710D01*
X107182Y271691D01*
X107171Y271674D01*
X107145Y271573D01*
X107115Y271475D01*
X107116Y271455D01*
X107111Y271435D01*
X107119Y271332D01*
X107121Y271229D01*
X107128Y271210D01*
X107130Y271190D01*
X107170Y271095D01*
X107206Y270998D01*
X107218Y270982D01*
X107226Y270964D01*
X107266Y270913D01*
X107266Y266822D01*
X107248Y266793D01*
X107187Y266710D01*
X107182Y266691D01*
X107171Y266674D01*
X107145Y266573D01*
X107115Y266475D01*
X107116Y266455D01*
X107111Y266435D01*
X107119Y266332D01*
X107121Y266229D01*
X107128Y266210D01*
X107130Y266190D01*
X107170Y266095D01*
X107206Y265998D01*
X107218Y265982D01*
X107226Y265964D01*
X107266Y265913D01*
X107266Y261822D01*
X107248Y261793D01*
X107187Y261710D01*
X107181Y261691D01*
X107171Y261674D01*
X107145Y261573D01*
X107115Y261475D01*
X107115Y261454D01*
X107111Y261435D01*
X107119Y261332D01*
X107121Y261229D01*
X107128Y261210D01*
X107130Y261190D01*
X107170Y261095D01*
X107206Y260998D01*
X107218Y260982D01*
X107226Y260964D01*
X107266Y260913D01*
X107266Y256822D01*
X107248Y256793D01*
X107187Y256710D01*
X107182Y256691D01*
X107171Y256674D01*
X107145Y256573D01*
X107115Y256475D01*
X107116Y256454D01*
X107111Y256435D01*
X107119Y256332D01*
X107121Y256229D01*
X107128Y256210D01*
X107130Y256190D01*
X107170Y256095D01*
X107206Y255998D01*
X107218Y255982D01*
X107226Y255964D01*
X107266Y255913D01*
X107266Y251822D01*
X107248Y251793D01*
X107187Y251710D01*
X107182Y251691D01*
X107171Y251674D01*
X107145Y251573D01*
X107115Y251475D01*
X107116Y251455D01*
X107111Y251435D01*
X107119Y251332D01*
X107121Y251229D01*
X107128Y251210D01*
X107130Y251190D01*
X107170Y251095D01*
X107206Y250998D01*
X107218Y250982D01*
X107226Y250964D01*
X107266Y250913D01*
X107266Y247641D01*
X107269Y247621D01*
X107267Y247601D01*
X107289Y247500D01*
X107306Y247398D01*
X107315Y247380D01*
X107320Y247361D01*
X107373Y247272D01*
X107421Y247180D01*
X107436Y247167D01*
X107446Y247150D01*
X107524Y247082D01*
X107599Y247011D01*
X107617Y247003D01*
X107633Y246990D01*
X107729Y246951D01*
X107823Y246907D01*
X107842Y246905D01*
X107861Y246898D01*
X108028Y246879D01*
X111307Y246879D01*
X111336Y246861D01*
X111419Y246800D01*
X111438Y246795D01*
X111455Y246784D01*
X111556Y246758D01*
X111654Y246728D01*
X111674Y246729D01*
X111694Y246724D01*
X111797Y246732D01*
X111900Y246734D01*
X111919Y246741D01*
X111939Y246743D01*
X112034Y246783D01*
X112131Y246819D01*
X112147Y246831D01*
X112165Y246839D01*
X112216Y246879D01*
X116307Y246879D01*
X116336Y246861D01*
X116419Y246800D01*
X116438Y246795D01*
X116455Y246784D01*
X116556Y246758D01*
X116654Y246728D01*
X116675Y246729D01*
X116694Y246724D01*
X116797Y246732D01*
X116900Y246734D01*
X116919Y246741D01*
X116939Y246743D01*
X117034Y246783D01*
X117131Y246819D01*
X117147Y246831D01*
X117165Y246839D01*
X117216Y246879D01*
X121306Y246879D01*
X121336Y246861D01*
X121419Y246800D01*
X121438Y246794D01*
X121455Y246784D01*
X121556Y246758D01*
X121654Y246728D01*
X121675Y246728D01*
X121694Y246724D01*
X121797Y246732D01*
G37*
G36*
X181395Y362354D02*
X181395Y362354D01*
X181394Y362355D01*
X181395Y362355D01*
X181395Y411343D01*
X195371Y411343D01*
X195371Y362355D01*
X195382Y362343D01*
X195382Y362344D01*
X195383Y362343D01*
X204383Y362343D01*
X204395Y362354D01*
X204394Y362355D01*
X204395Y362355D01*
X204395Y416355D01*
X204385Y416367D01*
X204384Y416366D01*
X204383Y416367D01*
X154383Y416367D01*
X154371Y416357D01*
X154372Y416356D01*
X154371Y416355D01*
X154371Y389967D01*
X134395Y389967D01*
X134395Y416355D01*
X134385Y416367D01*
X134384Y416366D01*
X134383Y416367D01*
X107383Y416367D01*
X107371Y416357D01*
X107372Y416356D01*
X107371Y416355D01*
X107371Y389967D01*
X87395Y389967D01*
X87395Y416355D01*
X87385Y416367D01*
X87384Y416366D01*
X87383Y416367D01*
X60383Y416367D01*
X60371Y416357D01*
X60372Y416356D01*
X60371Y416355D01*
X60371Y371955D01*
X60382Y371943D01*
X60382Y371944D01*
X60383Y371943D01*
X65383Y371943D01*
X65395Y371954D01*
X65394Y371955D01*
X65395Y371955D01*
X65395Y411343D01*
X82371Y411343D01*
X82371Y384955D01*
X82382Y384943D01*
X82382Y384944D01*
X82383Y384943D01*
X112383Y384943D01*
X112395Y384954D01*
X112394Y384955D01*
X112395Y384955D01*
X112395Y411343D01*
X129371Y411343D01*
X129371Y384955D01*
X129382Y384943D01*
X129382Y384944D01*
X129383Y384943D01*
X159383Y384943D01*
X159395Y384954D01*
X159394Y384955D01*
X159395Y384955D01*
X159395Y411343D01*
X176371Y411343D01*
X176371Y362355D01*
X176382Y362343D01*
X176382Y362344D01*
X176383Y362343D01*
X181383Y362343D01*
X181395Y362354D01*
G37*
%LPC*%
G36*
X29457Y100169D02*
X29457Y100169D01*
X28712Y100914D01*
X28712Y127366D01*
X29457Y128111D01*
X32777Y128111D01*
X32797Y128114D01*
X32816Y128112D01*
X32918Y128134D01*
X33020Y128150D01*
X33037Y128160D01*
X33057Y128164D01*
X33146Y128217D01*
X33237Y128266D01*
X33251Y128280D01*
X33268Y128290D01*
X33335Y128369D01*
X33407Y128444D01*
X33415Y128462D01*
X33428Y128477D01*
X33467Y128573D01*
X33510Y128667D01*
X33512Y128687D01*
X33520Y128705D01*
X33538Y128872D01*
X33538Y163159D01*
X33524Y163249D01*
X33516Y163340D01*
X33504Y163370D01*
X33499Y163402D01*
X33456Y163483D01*
X33420Y163567D01*
X33394Y163599D01*
X33383Y163619D01*
X33360Y163642D01*
X33315Y163698D01*
X32364Y164649D01*
X32364Y179701D01*
X33109Y180446D01*
X44161Y180446D01*
X44906Y179701D01*
X44906Y164649D01*
X44431Y164174D01*
X44378Y164100D01*
X44318Y164030D01*
X44306Y164000D01*
X44287Y163974D01*
X44260Y163887D01*
X44226Y163802D01*
X44222Y163761D01*
X44215Y163739D01*
X44216Y163707D01*
X44208Y163635D01*
X44208Y128872D01*
X44211Y128852D01*
X44209Y128833D01*
X44231Y128731D01*
X44247Y128629D01*
X44257Y128612D01*
X44261Y128592D01*
X44314Y128503D01*
X44363Y128412D01*
X44377Y128398D01*
X44387Y128381D01*
X44466Y128314D01*
X44541Y128242D01*
X44559Y128234D01*
X44574Y128221D01*
X44670Y128182D01*
X44764Y128139D01*
X44784Y128137D01*
X44802Y128129D01*
X44969Y128111D01*
X48289Y128111D01*
X49034Y127366D01*
X49034Y100914D01*
X48289Y100169D01*
X29457Y100169D01*
G37*
%LPD*%
%LPC*%
G36*
X252474Y173729D02*
X252474Y173729D01*
X251729Y174474D01*
X251729Y177452D01*
X251726Y177472D01*
X251728Y177491D01*
X251706Y177593D01*
X251690Y177695D01*
X251680Y177712D01*
X251676Y177732D01*
X251623Y177821D01*
X251574Y177912D01*
X251560Y177926D01*
X251550Y177943D01*
X251471Y178010D01*
X251396Y178082D01*
X251378Y178090D01*
X251363Y178103D01*
X251267Y178142D01*
X251173Y178185D01*
X251153Y178187D01*
X251135Y178195D01*
X250968Y178213D01*
X246504Y178213D01*
X237466Y187251D01*
X237466Y208004D01*
X237464Y208020D01*
X237466Y208037D01*
X237444Y208141D01*
X237427Y208247D01*
X237419Y208261D01*
X237416Y208277D01*
X237362Y208370D01*
X237312Y208464D01*
X237300Y208475D01*
X237291Y208490D01*
X237211Y208560D01*
X237133Y208633D01*
X237118Y208640D01*
X237106Y208651D01*
X237007Y208692D01*
X236910Y208737D01*
X236894Y208739D01*
X236878Y208745D01*
X236712Y208765D01*
X226727Y208852D01*
X225989Y209603D01*
X226001Y210922D01*
X225997Y210945D01*
X226000Y210968D01*
X225978Y211066D01*
X225963Y211165D01*
X225952Y211186D01*
X225947Y211209D01*
X225896Y211295D01*
X225850Y211384D01*
X225833Y211400D01*
X225821Y211420D01*
X225745Y211485D01*
X225673Y211555D01*
X225652Y211565D01*
X225634Y211580D01*
X225541Y211617D01*
X225451Y211660D01*
X225428Y211663D01*
X225406Y211672D01*
X225239Y211690D01*
X208781Y211690D01*
X206186Y214285D01*
X206186Y217862D01*
X208716Y220392D01*
X212383Y220392D01*
X212422Y220380D01*
X212507Y220346D01*
X212548Y220342D01*
X212571Y220335D01*
X212603Y220336D01*
X212674Y220328D01*
X225328Y220328D01*
X225344Y220330D01*
X225361Y220328D01*
X225465Y220350D01*
X225571Y220367D01*
X225585Y220375D01*
X225602Y220379D01*
X225694Y220433D01*
X225788Y220482D01*
X225800Y220494D01*
X225814Y220503D01*
X225884Y220583D01*
X225958Y220661D01*
X225964Y220676D01*
X225975Y220688D01*
X226016Y220787D01*
X226061Y220884D01*
X226063Y220900D01*
X226069Y220916D01*
X226089Y221082D01*
X226103Y222655D01*
X226854Y223393D01*
X252906Y223166D01*
X253643Y222415D01*
X253529Y209363D01*
X252779Y208625D01*
X242808Y208712D01*
X242785Y208708D01*
X242762Y208711D01*
X242664Y208689D01*
X242565Y208674D01*
X242544Y208663D01*
X242521Y208659D01*
X242435Y208607D01*
X242346Y208561D01*
X242330Y208544D01*
X242310Y208532D01*
X242245Y208456D01*
X242175Y208384D01*
X242165Y208363D01*
X242150Y208345D01*
X242113Y208252D01*
X242070Y208162D01*
X242067Y208139D01*
X242058Y208117D01*
X242040Y207951D01*
X242040Y189461D01*
X242055Y189371D01*
X242062Y189280D01*
X242074Y189250D01*
X242080Y189218D01*
X242122Y189138D01*
X242158Y189054D01*
X242184Y189022D01*
X242195Y189001D01*
X242218Y188979D01*
X242263Y188923D01*
X248176Y183010D01*
X248250Y182957D01*
X248319Y182897D01*
X248349Y182885D01*
X248376Y182866D01*
X248463Y182839D01*
X248547Y182805D01*
X248588Y182801D01*
X248611Y182794D01*
X248643Y182795D01*
X248714Y182787D01*
X250968Y182787D01*
X250988Y182790D01*
X251007Y182788D01*
X251109Y182810D01*
X251211Y182826D01*
X251228Y182836D01*
X251248Y182840D01*
X251337Y182893D01*
X251428Y182942D01*
X251442Y182956D01*
X251459Y182966D01*
X251526Y183045D01*
X251598Y183120D01*
X251606Y183138D01*
X251619Y183153D01*
X251658Y183249D01*
X251701Y183343D01*
X251703Y183363D01*
X251711Y183381D01*
X251729Y183548D01*
X251729Y186526D01*
X252474Y187271D01*
X263526Y187271D01*
X264271Y186526D01*
X264271Y185580D01*
X264274Y185560D01*
X264272Y185541D01*
X264294Y185439D01*
X264310Y185337D01*
X264320Y185320D01*
X264324Y185300D01*
X264377Y185211D01*
X264426Y185120D01*
X264440Y185106D01*
X264450Y185089D01*
X264529Y185022D01*
X264604Y184950D01*
X264622Y184942D01*
X264637Y184929D01*
X264733Y184890D01*
X264827Y184847D01*
X264847Y184845D01*
X264865Y184837D01*
X265032Y184819D01*
X267968Y184819D01*
X267988Y184822D01*
X268007Y184820D01*
X268109Y184842D01*
X268211Y184858D01*
X268228Y184868D01*
X268248Y184872D01*
X268337Y184925D01*
X268428Y184974D01*
X268442Y184988D01*
X268459Y184998D01*
X268526Y185077D01*
X268598Y185152D01*
X268606Y185170D01*
X268619Y185185D01*
X268658Y185281D01*
X268701Y185375D01*
X268703Y185395D01*
X268711Y185413D01*
X268729Y185580D01*
X268729Y186526D01*
X269474Y187271D01*
X280526Y187271D01*
X281271Y186526D01*
X281271Y174474D01*
X280526Y173729D01*
X269474Y173729D01*
X268729Y174474D01*
X268729Y175420D01*
X268726Y175440D01*
X268728Y175459D01*
X268706Y175561D01*
X268690Y175663D01*
X268680Y175680D01*
X268676Y175700D01*
X268623Y175789D01*
X268574Y175880D01*
X268560Y175894D01*
X268550Y175911D01*
X268471Y175978D01*
X268396Y176050D01*
X268378Y176058D01*
X268363Y176071D01*
X268267Y176110D01*
X268173Y176153D01*
X268153Y176155D01*
X268135Y176163D01*
X267968Y176181D01*
X265032Y176181D01*
X265012Y176178D01*
X264993Y176180D01*
X264891Y176158D01*
X264789Y176142D01*
X264772Y176132D01*
X264752Y176128D01*
X264663Y176075D01*
X264572Y176026D01*
X264558Y176012D01*
X264541Y176002D01*
X264474Y175923D01*
X264402Y175848D01*
X264394Y175830D01*
X264381Y175815D01*
X264342Y175719D01*
X264299Y175625D01*
X264297Y175605D01*
X264289Y175587D01*
X264271Y175420D01*
X264271Y174474D01*
X263526Y173729D01*
X252474Y173729D01*
G37*
%LPD*%
%LPC*%
G36*
X23609Y185904D02*
X23609Y185904D01*
X22864Y186649D01*
X22864Y188079D01*
X22861Y188099D01*
X22863Y188118D01*
X22841Y188220D01*
X22825Y188322D01*
X22815Y188339D01*
X22811Y188359D01*
X22758Y188448D01*
X22709Y188539D01*
X22695Y188553D01*
X22685Y188570D01*
X22606Y188637D01*
X22531Y188709D01*
X22513Y188717D01*
X22498Y188730D01*
X22402Y188769D01*
X22308Y188812D01*
X22288Y188814D01*
X22270Y188822D01*
X22103Y188840D01*
X18880Y188840D01*
X16920Y189652D01*
X12200Y194372D01*
X11388Y196332D01*
X11388Y236784D01*
X12200Y238745D01*
X13808Y240353D01*
X18153Y244698D01*
X20114Y245510D01*
X31349Y245510D01*
X31369Y245513D01*
X31388Y245511D01*
X31490Y245533D01*
X31592Y245549D01*
X31609Y245559D01*
X31629Y245563D01*
X31718Y245616D01*
X31809Y245665D01*
X31823Y245679D01*
X31840Y245689D01*
X31907Y245768D01*
X31979Y245843D01*
X31987Y245861D01*
X32000Y245876D01*
X32039Y245972D01*
X32082Y246066D01*
X32084Y246086D01*
X32092Y246104D01*
X32110Y246271D01*
X32110Y247701D01*
X32855Y248446D01*
X43907Y248446D01*
X44652Y247701D01*
X44652Y232649D01*
X43907Y231904D01*
X32855Y231904D01*
X32110Y232649D01*
X32110Y234079D01*
X32107Y234099D01*
X32109Y234118D01*
X32087Y234220D01*
X32071Y234322D01*
X32061Y234339D01*
X32057Y234359D01*
X32004Y234448D01*
X31955Y234539D01*
X31941Y234553D01*
X31931Y234570D01*
X31852Y234637D01*
X31777Y234709D01*
X31759Y234717D01*
X31744Y234730D01*
X31648Y234769D01*
X31554Y234812D01*
X31534Y234814D01*
X31516Y234822D01*
X31349Y234840D01*
X23700Y234840D01*
X23610Y234826D01*
X23519Y234818D01*
X23489Y234806D01*
X23457Y234801D01*
X23377Y234758D01*
X23293Y234722D01*
X23261Y234696D01*
X23240Y234685D01*
X23218Y234662D01*
X23162Y234617D01*
X22281Y233736D01*
X22228Y233662D01*
X22168Y233593D01*
X22156Y233563D01*
X22137Y233537D01*
X22110Y233450D01*
X22076Y233365D01*
X22072Y233324D01*
X22065Y233301D01*
X22066Y233269D01*
X22058Y233198D01*
X22058Y202733D01*
X22069Y202662D01*
X22071Y202590D01*
X22089Y202541D01*
X22097Y202490D01*
X22131Y202427D01*
X22156Y202359D01*
X22188Y202318D01*
X22213Y202272D01*
X22265Y202223D01*
X22309Y202167D01*
X22353Y202139D01*
X22391Y202103D01*
X22456Y202073D01*
X22516Y202034D01*
X22567Y202021D01*
X22614Y201999D01*
X22685Y201992D01*
X22755Y201974D01*
X22807Y201978D01*
X22858Y201972D01*
X22929Y201988D01*
X23000Y201993D01*
X23048Y202014D01*
X23099Y202025D01*
X23160Y202061D01*
X23226Y202090D01*
X23282Y202134D01*
X23310Y202151D01*
X23325Y202169D01*
X23357Y202194D01*
X23609Y202446D01*
X34661Y202446D01*
X35406Y201701D01*
X35406Y186649D01*
X34661Y185904D01*
X23609Y185904D01*
G37*
%LPD*%
%LPC*%
G36*
X258651Y48279D02*
X258651Y48279D01*
X254755Y49893D01*
X251773Y52875D01*
X250159Y56771D01*
X250159Y60989D01*
X251773Y64885D01*
X254758Y67870D01*
X254800Y67928D01*
X254849Y67980D01*
X254871Y68027D01*
X254902Y68069D01*
X254923Y68138D01*
X254953Y68203D01*
X254959Y68255D01*
X254974Y68305D01*
X254972Y68376D01*
X254980Y68447D01*
X254969Y68498D01*
X254968Y68550D01*
X254943Y68618D01*
X254928Y68688D01*
X254901Y68733D01*
X254883Y68781D01*
X254838Y68837D01*
X254802Y68899D01*
X254762Y68933D01*
X254729Y68973D01*
X254669Y69012D01*
X254615Y69059D01*
X254566Y69078D01*
X254523Y69106D01*
X254453Y69124D01*
X254386Y69151D01*
X254315Y69159D01*
X254284Y69167D01*
X254261Y69165D01*
X254220Y69169D01*
X249457Y69169D01*
X248712Y69914D01*
X248712Y96366D01*
X249457Y97111D01*
X268289Y97111D01*
X269034Y96366D01*
X269034Y69914D01*
X268289Y69169D01*
X267300Y69169D01*
X267230Y69158D01*
X267158Y69156D01*
X267109Y69138D01*
X267057Y69130D01*
X266994Y69096D01*
X266927Y69071D01*
X266886Y69039D01*
X266840Y69014D01*
X266791Y68962D01*
X266735Y68918D01*
X266707Y68874D01*
X266671Y68836D01*
X266641Y68771D01*
X266602Y68711D01*
X266589Y68660D01*
X266567Y68613D01*
X266559Y68542D01*
X266542Y68472D01*
X266546Y68420D01*
X266540Y68369D01*
X266555Y68298D01*
X266561Y68227D01*
X266581Y68179D01*
X266592Y68128D01*
X266629Y68067D01*
X266657Y68001D01*
X266702Y67945D01*
X266718Y67917D01*
X266736Y67902D01*
X266762Y67870D01*
X269747Y64885D01*
X271361Y60989D01*
X271361Y56771D01*
X269747Y52875D01*
X266765Y49893D01*
X262869Y48279D01*
X258651Y48279D01*
G37*
%LPD*%
%LPC*%
G36*
X72328Y190170D02*
X72328Y190170D01*
X70367Y190982D01*
X68866Y192483D01*
X68054Y194444D01*
X68054Y202980D01*
X68040Y203070D01*
X68032Y203161D01*
X68020Y203191D01*
X68015Y203223D01*
X67972Y203303D01*
X67936Y203387D01*
X67910Y203419D01*
X67899Y203440D01*
X67876Y203462D01*
X67831Y203518D01*
X58732Y212617D01*
X58658Y212670D01*
X58589Y212730D01*
X58559Y212742D01*
X58532Y212761D01*
X58446Y212788D01*
X58361Y212822D01*
X58320Y212826D01*
X58297Y212833D01*
X58265Y212832D01*
X58194Y212840D01*
X54913Y212840D01*
X54893Y212837D01*
X54874Y212839D01*
X54772Y212817D01*
X54670Y212801D01*
X54653Y212791D01*
X54633Y212787D01*
X54544Y212734D01*
X54453Y212685D01*
X54439Y212671D01*
X54422Y212661D01*
X54355Y212582D01*
X54283Y212507D01*
X54275Y212489D01*
X54262Y212474D01*
X54223Y212378D01*
X54180Y212284D01*
X54178Y212264D01*
X54170Y212246D01*
X54152Y212079D01*
X54152Y210649D01*
X53407Y209904D01*
X42355Y209904D01*
X41610Y210649D01*
X41610Y225701D01*
X42355Y226446D01*
X53407Y226446D01*
X54152Y225701D01*
X54152Y224271D01*
X54155Y224251D01*
X54153Y224232D01*
X54175Y224130D01*
X54191Y224028D01*
X54201Y224011D01*
X54205Y223991D01*
X54258Y223902D01*
X54307Y223811D01*
X54321Y223797D01*
X54331Y223780D01*
X54410Y223713D01*
X54485Y223641D01*
X54503Y223633D01*
X54518Y223620D01*
X54614Y223581D01*
X54708Y223538D01*
X54728Y223536D01*
X54746Y223528D01*
X54913Y223510D01*
X61780Y223510D01*
X63741Y222698D01*
X64794Y221645D01*
X64852Y221603D01*
X64904Y221554D01*
X64951Y221532D01*
X64993Y221501D01*
X65062Y221480D01*
X65127Y221450D01*
X65179Y221444D01*
X65228Y221429D01*
X65300Y221431D01*
X65371Y221423D01*
X65422Y221434D01*
X65474Y221435D01*
X65542Y221460D01*
X65612Y221475D01*
X65656Y221502D01*
X65705Y221520D01*
X65761Y221565D01*
X65823Y221601D01*
X65857Y221641D01*
X65897Y221673D01*
X65936Y221734D01*
X65983Y221788D01*
X66002Y221837D01*
X66030Y221880D01*
X66048Y221950D01*
X66075Y222016D01*
X66083Y222088D01*
X66090Y222119D01*
X66089Y222142D01*
X66093Y222183D01*
X66093Y223546D01*
X66370Y223823D01*
X66382Y223839D01*
X66397Y223851D01*
X66453Y223938D01*
X66514Y224022D01*
X66519Y224042D01*
X66530Y224058D01*
X66555Y224159D01*
X66586Y224258D01*
X66585Y224278D01*
X66590Y224297D01*
X66582Y224400D01*
X66580Y224503D01*
X66573Y224522D01*
X66571Y224542D01*
X66531Y224637D01*
X66495Y224734D01*
X66483Y224750D01*
X66475Y224768D01*
X66370Y224899D01*
X66036Y225233D01*
X66036Y228180D01*
X68120Y230263D01*
X71066Y230263D01*
X71605Y229724D01*
X71679Y229671D01*
X71749Y229611D01*
X71779Y229599D01*
X71805Y229580D01*
X71892Y229554D01*
X71977Y229520D01*
X72018Y229515D01*
X72040Y229508D01*
X72072Y229509D01*
X72144Y229501D01*
X72878Y229501D01*
X72968Y229516D01*
X73059Y229523D01*
X73089Y229536D01*
X73121Y229541D01*
X73201Y229584D01*
X73285Y229619D01*
X73317Y229645D01*
X73338Y229656D01*
X73360Y229679D01*
X73416Y229724D01*
X73914Y230222D01*
X80507Y230222D01*
X82431Y228297D01*
X82431Y220305D01*
X80507Y218380D01*
X73914Y218380D01*
X73239Y219055D01*
X73165Y219108D01*
X73096Y219168D01*
X73066Y219180D01*
X73039Y219198D01*
X72953Y219225D01*
X72868Y219259D01*
X72827Y219264D01*
X72804Y219271D01*
X72772Y219270D01*
X72701Y219278D01*
X72200Y219278D01*
X72110Y219263D01*
X72019Y219256D01*
X71990Y219243D01*
X71958Y219238D01*
X71877Y219195D01*
X71793Y219160D01*
X71761Y219134D01*
X71740Y219123D01*
X71718Y219100D01*
X71662Y219055D01*
X71123Y218516D01*
X69760Y218516D01*
X69690Y218504D01*
X69618Y218502D01*
X69569Y218485D01*
X69518Y218476D01*
X69454Y218443D01*
X69387Y218418D01*
X69346Y218385D01*
X69300Y218361D01*
X69251Y218309D01*
X69195Y218264D01*
X69167Y218220D01*
X69131Y218183D01*
X69101Y218118D01*
X69062Y218057D01*
X69049Y218007D01*
X69027Y217960D01*
X69019Y217888D01*
X69002Y217819D01*
X69006Y217767D01*
X69000Y217715D01*
X69015Y217645D01*
X69021Y217574D01*
X69041Y217526D01*
X69052Y217475D01*
X69089Y217413D01*
X69117Y217347D01*
X69162Y217291D01*
X69179Y217264D01*
X69196Y217249D01*
X69222Y217216D01*
X76304Y210135D01*
X77912Y208527D01*
X78724Y206566D01*
X78724Y194444D01*
X77912Y192483D01*
X76411Y190982D01*
X74450Y190170D01*
X72328Y190170D01*
G37*
%LPD*%
%LPC*%
G36*
X249457Y100169D02*
X249457Y100169D01*
X248712Y100914D01*
X248712Y127366D01*
X249457Y128111D01*
X268289Y128111D01*
X269034Y127366D01*
X269034Y100914D01*
X268289Y100169D01*
X249457Y100169D01*
G37*
%LPD*%
%LPC*%
G36*
X29457Y69169D02*
X29457Y69169D01*
X28712Y69914D01*
X28712Y96366D01*
X29457Y97111D01*
X48289Y97111D01*
X49034Y96366D01*
X49034Y69914D01*
X48289Y69169D01*
X29457Y69169D01*
G37*
%LPD*%
%LPC*%
G36*
X135619Y201703D02*
X135619Y201703D01*
X135554Y201705D01*
X135490Y201718D01*
X135406Y201711D01*
X135373Y201712D01*
X135355Y201706D01*
X135323Y201704D01*
X134662Y201575D01*
X134135Y201931D01*
X134118Y201938D01*
X134104Y201950D01*
X134056Y201970D01*
X134015Y201999D01*
X134000Y202004D01*
X133986Y202013D01*
X133826Y202064D01*
X133183Y202193D01*
X132811Y202753D01*
X132767Y202801D01*
X132730Y202855D01*
X132666Y202909D01*
X132643Y202933D01*
X132626Y202943D01*
X132602Y202963D01*
X132044Y203339D01*
X131923Y203964D01*
X131916Y203981D01*
X131915Y204000D01*
X131894Y204048D01*
X131886Y204097D01*
X131879Y204111D01*
X131876Y204127D01*
X131799Y204276D01*
X128736Y208883D01*
X128706Y208915D01*
X128684Y208952D01*
X128623Y209004D01*
X128569Y209063D01*
X128530Y209084D01*
X128497Y209112D01*
X128423Y209142D01*
X128352Y209180D01*
X128309Y209188D01*
X128269Y209204D01*
X128124Y209220D01*
X128110Y209222D01*
X128107Y209222D01*
X128102Y209222D01*
X123459Y209222D01*
X121251Y211431D01*
X121251Y223755D01*
X123459Y225964D01*
X131583Y225964D01*
X133792Y223755D01*
X133792Y216308D01*
X133807Y216218D01*
X133814Y216127D01*
X133827Y216098D01*
X133832Y216066D01*
X133875Y215985D01*
X133910Y215901D01*
X133936Y215869D01*
X133947Y215848D01*
X133970Y215826D01*
X134015Y215770D01*
X135006Y214779D01*
X135022Y214768D01*
X135035Y214752D01*
X135122Y214696D01*
X135206Y214636D01*
X135225Y214630D01*
X135242Y214619D01*
X135342Y214594D01*
X135441Y214563D01*
X135461Y214564D01*
X135480Y214559D01*
X135583Y214567D01*
X135687Y214570D01*
X135706Y214577D01*
X135725Y214578D01*
X135820Y214618D01*
X135918Y214654D01*
X135933Y214667D01*
X135952Y214674D01*
X136083Y214779D01*
X137025Y215721D01*
X137078Y215795D01*
X137137Y215865D01*
X137150Y215895D01*
X137168Y215921D01*
X137195Y216008D01*
X137229Y216093D01*
X137234Y216134D01*
X137241Y216156D01*
X137240Y216188D01*
X137248Y216260D01*
X137248Y223706D01*
X139457Y225915D01*
X147580Y225915D01*
X149789Y223706D01*
X149789Y211383D01*
X147580Y209174D01*
X143114Y209174D01*
X143112Y209173D01*
X143110Y209174D01*
X142988Y209153D01*
X142871Y209134D01*
X142869Y209133D01*
X142868Y209133D01*
X142759Y209075D01*
X142654Y209019D01*
X142652Y209018D01*
X142651Y209017D01*
X142530Y208901D01*
X141316Y207448D01*
X141302Y207424D01*
X141268Y207385D01*
X140960Y206927D01*
X140447Y206166D01*
X139934Y205405D01*
X139934Y205404D01*
X139421Y204643D01*
X139169Y204269D01*
X139162Y204253D01*
X139150Y204239D01*
X139130Y204191D01*
X139101Y204150D01*
X139096Y204134D01*
X139087Y204121D01*
X139036Y203961D01*
X138907Y203318D01*
X138347Y202945D01*
X138299Y202901D01*
X138245Y202865D01*
X138191Y202800D01*
X138167Y202778D01*
X138157Y202761D01*
X138137Y202737D01*
X137761Y202179D01*
X137136Y202057D01*
X137119Y202051D01*
X137100Y202049D01*
X137052Y202029D01*
X137003Y202021D01*
X136989Y202013D01*
X136973Y202010D01*
X136824Y201933D01*
X136278Y201570D01*
X135619Y201703D01*
G37*
%LPD*%
%LPC*%
G36*
X231542Y156479D02*
X231542Y156479D01*
X229479Y158542D01*
X229479Y161458D01*
X231542Y163521D01*
X233331Y163521D01*
X233421Y163535D01*
X233512Y163543D01*
X233541Y163555D01*
X233573Y163560D01*
X233654Y163603D01*
X233738Y163639D01*
X233770Y163665D01*
X233791Y163676D01*
X233813Y163699D01*
X233869Y163744D01*
X235658Y165533D01*
X250968Y165533D01*
X250988Y165536D01*
X251007Y165534D01*
X251109Y165556D01*
X251211Y165572D01*
X251228Y165582D01*
X251248Y165586D01*
X251337Y165639D01*
X251428Y165688D01*
X251442Y165702D01*
X251459Y165712D01*
X251526Y165791D01*
X251598Y165866D01*
X251606Y165884D01*
X251619Y165899D01*
X251658Y165995D01*
X251701Y166089D01*
X251703Y166109D01*
X251711Y166127D01*
X251729Y166294D01*
X251729Y169526D01*
X252474Y170271D01*
X263526Y170271D01*
X264271Y169526D01*
X264271Y157474D01*
X263526Y156729D01*
X252474Y156729D01*
X251729Y157474D01*
X251729Y160706D01*
X251726Y160726D01*
X251728Y160745D01*
X251706Y160847D01*
X251690Y160949D01*
X251680Y160966D01*
X251676Y160986D01*
X251623Y161075D01*
X251574Y161166D01*
X251560Y161180D01*
X251550Y161197D01*
X251471Y161264D01*
X251396Y161336D01*
X251378Y161344D01*
X251363Y161357D01*
X251267Y161396D01*
X251173Y161439D01*
X251153Y161441D01*
X251135Y161449D01*
X250968Y161467D01*
X237657Y161467D01*
X237567Y161453D01*
X237476Y161445D01*
X237447Y161433D01*
X237415Y161428D01*
X237334Y161385D01*
X237250Y161349D01*
X237218Y161323D01*
X237197Y161312D01*
X237175Y161289D01*
X237119Y161244D01*
X236744Y160869D01*
X236691Y160795D01*
X236631Y160726D01*
X236619Y160695D01*
X236600Y160669D01*
X236573Y160582D01*
X236539Y160497D01*
X236535Y160456D01*
X236528Y160434D01*
X236529Y160402D01*
X236521Y160331D01*
X236521Y158542D01*
X234458Y156479D01*
X231542Y156479D01*
G37*
%LPD*%
%LPC*%
G36*
X240610Y262206D02*
X240610Y262206D01*
X239866Y262951D01*
X239866Y265049D01*
X239854Y265119D01*
X239852Y265191D01*
X239834Y265240D01*
X239826Y265291D01*
X239792Y265355D01*
X239768Y265422D01*
X239735Y265463D01*
X239711Y265509D01*
X239659Y265558D01*
X239614Y265614D01*
X239570Y265642D01*
X239532Y265678D01*
X239467Y265708D01*
X239407Y265747D01*
X239357Y265760D01*
X239309Y265782D01*
X239238Y265790D01*
X239169Y265807D01*
X239117Y265803D01*
X239065Y265809D01*
X238995Y265794D01*
X238923Y265788D01*
X238876Y265768D01*
X238825Y265757D01*
X238763Y265720D01*
X238697Y265692D01*
X238641Y265647D01*
X238613Y265631D01*
X238598Y265613D01*
X238566Y265587D01*
X237458Y264479D01*
X234542Y264479D01*
X232479Y266542D01*
X232479Y269458D01*
X234542Y271521D01*
X237458Y271521D01*
X238566Y270413D01*
X238624Y270371D01*
X238676Y270322D01*
X238724Y270300D01*
X238766Y270269D01*
X238834Y270248D01*
X238899Y270218D01*
X238951Y270212D01*
X239001Y270197D01*
X239073Y270199D01*
X239144Y270191D01*
X239195Y270202D01*
X239247Y270203D01*
X239314Y270228D01*
X239384Y270243D01*
X239429Y270270D01*
X239478Y270288D01*
X239534Y270333D01*
X239595Y270369D01*
X239629Y270409D01*
X239670Y270442D01*
X239709Y270502D01*
X239755Y270556D01*
X239775Y270605D01*
X239803Y270649D01*
X239820Y270718D01*
X239847Y270785D01*
X239855Y270856D01*
X239863Y270887D01*
X239861Y270910D01*
X239866Y270951D01*
X239866Y275003D01*
X240610Y275748D01*
X251663Y275748D01*
X252407Y275003D01*
X252407Y262951D01*
X251663Y262206D01*
X240610Y262206D01*
G37*
%LPD*%
%LPC*%
G36*
X273542Y149479D02*
X273542Y149479D01*
X271479Y151542D01*
X271479Y154458D01*
X272451Y155430D01*
X272493Y155488D01*
X272542Y155540D01*
X272564Y155587D01*
X272594Y155629D01*
X272615Y155698D01*
X272646Y155763D01*
X272651Y155815D01*
X272667Y155865D01*
X272665Y155936D01*
X272673Y156007D01*
X272662Y156058D01*
X272660Y156110D01*
X272636Y156178D01*
X272620Y156248D01*
X272594Y156293D01*
X272576Y156341D01*
X272531Y156397D01*
X272494Y156459D01*
X272455Y156493D01*
X272422Y156533D01*
X272362Y156572D01*
X272307Y156619D01*
X272259Y156638D01*
X272215Y156666D01*
X272146Y156684D01*
X272079Y156711D01*
X272008Y156719D01*
X271977Y156727D01*
X271953Y156725D01*
X271912Y156729D01*
X269474Y156729D01*
X268729Y157474D01*
X268729Y169526D01*
X269474Y170271D01*
X280526Y170271D01*
X281271Y169526D01*
X281271Y157474D01*
X280526Y156729D01*
X278088Y156729D01*
X278017Y156718D01*
X277945Y156716D01*
X277896Y156698D01*
X277845Y156690D01*
X277782Y156656D01*
X277714Y156631D01*
X277674Y156599D01*
X277627Y156574D01*
X277578Y156522D01*
X277522Y156478D01*
X277494Y156434D01*
X277458Y156396D01*
X277428Y156331D01*
X277389Y156271D01*
X277376Y156220D01*
X277354Y156173D01*
X277347Y156102D01*
X277329Y156032D01*
X277333Y155980D01*
X277327Y155929D01*
X277343Y155858D01*
X277348Y155787D01*
X277369Y155739D01*
X277380Y155688D01*
X277416Y155627D01*
X277445Y155561D01*
X277489Y155505D01*
X277506Y155477D01*
X277524Y155462D01*
X277549Y155430D01*
X278521Y154458D01*
X278521Y151542D01*
X276458Y149479D01*
X273542Y149479D01*
G37*
%LPD*%
%LPC*%
G36*
X41474Y278729D02*
X41474Y278729D01*
X40729Y279474D01*
X40729Y291526D01*
X41474Y292271D01*
X52526Y292271D01*
X53271Y291526D01*
X53271Y289575D01*
X53282Y289505D01*
X53284Y289433D01*
X53302Y289384D01*
X53310Y289332D01*
X53344Y289269D01*
X53369Y289202D01*
X53401Y289161D01*
X53426Y289115D01*
X53477Y289066D01*
X53522Y289010D01*
X53566Y288982D01*
X53604Y288946D01*
X53669Y288916D01*
X53729Y288877D01*
X53780Y288864D01*
X53827Y288842D01*
X53898Y288834D01*
X53968Y288817D01*
X54020Y288821D01*
X54071Y288815D01*
X54142Y288830D01*
X54213Y288836D01*
X54261Y288856D01*
X54312Y288867D01*
X54373Y288904D01*
X54439Y288932D01*
X54495Y288977D01*
X54523Y288993D01*
X54538Y289011D01*
X54540Y289013D01*
X57463Y289013D01*
X59525Y286951D01*
X59525Y284034D01*
X57463Y281972D01*
X54537Y281972D01*
X54512Y281990D01*
X54460Y282039D01*
X54413Y282061D01*
X54371Y282091D01*
X54302Y282112D01*
X54237Y282143D01*
X54185Y282148D01*
X54136Y282164D01*
X54064Y282162D01*
X53993Y282170D01*
X53942Y282159D01*
X53890Y282157D01*
X53822Y282133D01*
X53752Y282117D01*
X53707Y282091D01*
X53659Y282073D01*
X53603Y282028D01*
X53541Y281991D01*
X53507Y281952D01*
X53467Y281919D01*
X53428Y281859D01*
X53381Y281804D01*
X53362Y281756D01*
X53334Y281712D01*
X53316Y281643D01*
X53289Y281576D01*
X53281Y281505D01*
X53273Y281474D01*
X53275Y281450D01*
X53271Y281409D01*
X53271Y279474D01*
X52526Y278729D01*
X41474Y278729D01*
G37*
%LPD*%
D10*
X164258Y311383D03*
X159258Y311383D03*
X154258Y311383D03*
X149258Y311383D03*
X144258Y311383D03*
X139258Y311383D03*
X134258Y311383D03*
X129258Y311383D03*
X124258Y311383D03*
X119258Y311383D03*
X114258Y311383D03*
X109258Y311383D03*
D11*
X101746Y303871D03*
X101746Y298871D03*
X101746Y293871D03*
X101746Y288871D03*
X101746Y283871D03*
X101746Y278871D03*
X101746Y273871D03*
X101746Y268871D03*
X101746Y263871D03*
X101746Y258871D03*
X101746Y253871D03*
X101746Y248871D03*
D10*
X109258Y241359D03*
X114258Y241359D03*
X119258Y241359D03*
X124258Y241359D03*
X129258Y241359D03*
X134258Y241359D03*
X139258Y241359D03*
X144258Y241359D03*
X149258Y241359D03*
X154258Y241359D03*
X159258Y241359D03*
X164258Y241359D03*
D11*
X171770Y248871D03*
X171770Y253871D03*
X171770Y258871D03*
X171770Y263871D03*
X171770Y268871D03*
X171770Y273871D03*
X171770Y278871D03*
X171770Y283871D03*
X171770Y288871D03*
X171770Y293871D03*
X171770Y298871D03*
X171770Y303871D03*
D12*
X136758Y276371D03*
D13*
X86643Y210524D02*
X84051Y210524D01*
X86643Y210524D02*
X86643Y207332D01*
X84051Y207332D01*
X84051Y210524D01*
X84051Y210000D02*
X86643Y210000D01*
X92651Y207332D02*
X95243Y207332D01*
X92651Y207332D02*
X92651Y210524D01*
X95243Y210524D01*
X95243Y207332D01*
X95243Y210000D02*
X92651Y210000D01*
X86643Y200237D02*
X84051Y200237D01*
X86643Y200237D02*
X86643Y197045D01*
X84051Y197045D01*
X84051Y200237D01*
X84051Y199713D02*
X86643Y199713D01*
X92651Y197045D02*
X95243Y197045D01*
X92651Y197045D02*
X92651Y200237D01*
X95243Y200237D01*
X95243Y197045D01*
X95243Y199713D02*
X92651Y199713D01*
X187677Y255996D02*
X190269Y255996D01*
X190269Y252804D01*
X187677Y252804D01*
X187677Y255996D01*
X187677Y255472D02*
X190269Y255472D01*
X196277Y252804D02*
X198869Y252804D01*
X196277Y252804D02*
X196277Y255996D01*
X198869Y255996D01*
X198869Y252804D01*
X198869Y255472D02*
X196277Y255472D01*
X196404Y243025D02*
X198996Y243025D01*
X196404Y243025D02*
X196404Y246217D01*
X198996Y246217D01*
X198996Y243025D01*
X198996Y245693D02*
X196404Y245693D01*
X190396Y246217D02*
X187804Y246217D01*
X190396Y246217D02*
X190396Y243025D01*
X187804Y243025D01*
X187804Y246217D01*
X187804Y245693D02*
X190396Y245693D01*
X79968Y249601D02*
X77376Y249601D01*
X79968Y249601D02*
X79968Y246409D01*
X77376Y246409D01*
X77376Y249601D01*
X77376Y249077D02*
X79968Y249077D01*
X85976Y246409D02*
X88568Y246409D01*
X85976Y246409D02*
X85976Y249601D01*
X88568Y249601D01*
X88568Y246409D01*
X88568Y249077D02*
X85976Y249077D01*
X77343Y342350D02*
X77343Y344942D01*
X80535Y344942D01*
X80535Y342350D01*
X77343Y342350D01*
X80535Y350950D02*
X80535Y353542D01*
X80535Y350950D02*
X77343Y350950D01*
X77343Y353542D01*
X80535Y353542D01*
X80709Y335551D02*
X80709Y332959D01*
X77517Y332959D01*
X77517Y335551D01*
X80709Y335551D01*
X77517Y326951D02*
X77517Y324359D01*
X77517Y326951D02*
X80709Y326951D01*
X80709Y324359D01*
X77517Y324359D01*
X85263Y302207D02*
X87855Y302207D01*
X85263Y302207D02*
X85263Y305399D01*
X87855Y305399D01*
X87855Y302207D01*
X87855Y304875D02*
X85263Y304875D01*
X79255Y305399D02*
X76663Y305399D01*
X79255Y305399D02*
X79255Y302207D01*
X76663Y302207D01*
X76663Y305399D01*
X76663Y304875D02*
X79255Y304875D01*
X85993Y257249D02*
X88585Y257249D01*
X85993Y257249D02*
X85993Y260441D01*
X88585Y260441D01*
X88585Y257249D01*
X88585Y259917D02*
X85993Y259917D01*
X79985Y260441D02*
X77393Y260441D01*
X79985Y260441D02*
X79985Y257249D01*
X77393Y257249D01*
X77393Y260441D01*
X77393Y259917D02*
X79985Y259917D01*
X189582Y269585D02*
X192174Y269585D01*
X192174Y266393D01*
X189582Y266393D01*
X189582Y269585D01*
X189582Y269061D02*
X192174Y269061D01*
X198182Y266393D02*
X200774Y266393D01*
X198182Y266393D02*
X198182Y269585D01*
X200774Y269585D01*
X200774Y266393D01*
X200774Y269061D02*
X198182Y269061D01*
X190396Y236057D02*
X187804Y236057D01*
X190396Y236057D02*
X190396Y232865D01*
X187804Y232865D01*
X187804Y236057D01*
X187804Y235533D02*
X190396Y235533D01*
X196404Y232865D02*
X198996Y232865D01*
X196404Y232865D02*
X196404Y236057D01*
X198996Y236057D01*
X198996Y232865D01*
X198996Y235533D02*
X196404Y235533D01*
D14*
X181103Y222109D02*
X176103Y222109D01*
X181103Y222109D02*
X181103Y212909D01*
X176103Y212909D01*
X176103Y222109D01*
X176103Y217659D02*
X181103Y217659D01*
X194803Y212909D02*
X199803Y212909D01*
X194803Y212909D02*
X194803Y222109D01*
X199803Y222109D01*
X199803Y212909D01*
X199803Y217659D02*
X194803Y217659D01*
X130021Y212993D02*
X125021Y212993D01*
X125021Y222193D01*
X130021Y222193D01*
X130021Y212993D01*
X130021Y217743D02*
X125021Y217743D01*
X111321Y222193D02*
X106321Y222193D01*
X111321Y222193D02*
X111321Y212993D01*
X106321Y212993D01*
X106321Y222193D01*
X106321Y217743D02*
X111321Y217743D01*
D13*
X189582Y279237D02*
X192174Y279237D01*
X192174Y276045D01*
X189582Y276045D01*
X189582Y279237D01*
X189582Y278713D02*
X192174Y278713D01*
X198182Y276045D02*
X200774Y276045D01*
X198182Y276045D02*
X198182Y279237D01*
X200774Y279237D01*
X200774Y276045D01*
X200774Y278713D02*
X198182Y278713D01*
X178872Y308443D02*
X178872Y311035D01*
X182064Y311035D01*
X182064Y308443D01*
X178872Y308443D01*
X182064Y317043D02*
X182064Y319635D01*
X182064Y317043D02*
X178872Y317043D01*
X178872Y319635D01*
X182064Y319635D01*
D15*
X95546Y221665D02*
X91674Y221665D01*
X91674Y226937D01*
X95546Y226937D01*
X95546Y221665D01*
X95546Y225493D02*
X91674Y225493D01*
X79146Y226937D02*
X75274Y226937D01*
X79146Y226937D02*
X79146Y221665D01*
X75274Y221665D01*
X75274Y226937D01*
X75274Y225493D02*
X79146Y225493D01*
D14*
X159719Y212944D02*
X164719Y212944D01*
X159719Y212944D02*
X159719Y222144D01*
X164719Y222144D01*
X164719Y212944D01*
X164719Y217694D02*
X159719Y217694D01*
X146019Y222144D02*
X141019Y222144D01*
X146019Y222144D02*
X146019Y212944D01*
X141019Y212944D01*
X141019Y222144D01*
X141019Y217694D02*
X146019Y217694D01*
D16*
X95136Y351784D03*
X95136Y326784D03*
D17*
X198219Y308146D03*
X198219Y293646D03*
X209719Y293646D03*
X209719Y308146D03*
D18*
X199883Y364855D03*
D19*
X178883Y364855D03*
D13*
X180903Y354708D02*
X179011Y352937D01*
X176831Y355266D01*
X178723Y357037D01*
X180903Y354708D01*
X180063Y355605D02*
X177193Y355605D01*
X172443Y351161D02*
X170551Y349390D01*
X172443Y351161D02*
X174623Y348832D01*
X172731Y347061D01*
X170551Y349390D01*
X170913Y349729D02*
X173783Y349729D01*
D20*
X38873Y114140D03*
D21*
X123873Y98640D02*
X173873Y98640D01*
D20*
X258873Y114140D03*
X38873Y83140D03*
X258873Y83140D03*
D22*
G36*
X252551Y242900D02*
X227553Y243118D01*
X227657Y255116D01*
X252655Y254898D01*
X252551Y242900D01*
G37*
G36*
X252263Y209901D02*
X227265Y210119D01*
X227369Y222117D01*
X252367Y221899D01*
X252263Y209901D01*
G37*
D23*
X159249Y329444D02*
X155999Y329444D01*
X155999Y330694D01*
X159249Y330694D01*
X159249Y329444D01*
X159249Y330631D02*
X155999Y330631D01*
X164199Y329444D02*
X167449Y329444D01*
X164199Y329444D02*
X164199Y330694D01*
X167449Y330694D01*
X167449Y329444D01*
X167449Y330631D02*
X164199Y330631D01*
X159249Y334444D02*
X155999Y334444D01*
X155999Y335694D01*
X159249Y335694D01*
X159249Y334444D01*
X159249Y335631D02*
X155999Y335631D01*
X164199Y334444D02*
X167449Y334444D01*
X164199Y334444D02*
X164199Y335694D01*
X167449Y335694D01*
X167449Y334444D01*
X167449Y335631D02*
X164199Y335631D01*
X159249Y324444D02*
X155999Y324444D01*
X155999Y325694D01*
X159249Y325694D01*
X159249Y324444D01*
X159249Y325631D02*
X155999Y325631D01*
X164199Y324444D02*
X167449Y324444D01*
X164199Y324444D02*
X164199Y325694D01*
X167449Y325694D01*
X167449Y324444D01*
X167449Y325631D02*
X164199Y325631D01*
D24*
X38635Y172175D03*
X29135Y194175D03*
X48135Y194175D03*
X38381Y240175D03*
X47881Y218175D03*
X28881Y218175D03*
D25*
X47000Y285500D03*
X47000Y268500D03*
X246136Y268977D03*
X246136Y285977D03*
X275000Y163500D03*
X275000Y180500D03*
X258000Y163500D03*
X258000Y180500D03*
D19*
X178884Y364904D03*
D18*
X200000Y365000D03*
D26*
X24000Y319527D03*
X23944Y306849D03*
X23960Y294156D03*
X24022Y281472D03*
X24000Y256000D03*
X24000Y268707D03*
D27*
X79113Y325655D02*
X94007Y325655D01*
X95136Y326784D01*
X95413Y327061D01*
X108582Y327061D02*
X111364Y329843D01*
X120833Y329843D01*
X124258Y326419D02*
X124258Y311383D01*
X108582Y327061D02*
X95413Y327061D01*
X120833Y329843D02*
X124258Y326419D01*
X94674Y352246D02*
X78939Y352246D01*
X94674Y352246D02*
X95136Y351784D01*
X105216Y351784D01*
X109250Y347750D02*
X109250Y335301D01*
X111914Y332637D01*
X109250Y347750D02*
X105216Y351784D01*
X111914Y332637D02*
X121991Y332637D01*
X129258Y316928D02*
X129258Y311383D01*
X127052Y327576D02*
X121991Y332637D01*
X127052Y327576D02*
X127052Y319134D01*
X129258Y316928D01*
X159500Y241629D02*
X159258Y241359D01*
X159500Y241629D02*
X159500Y236625D01*
X188973Y244748D02*
X189100Y244621D01*
X188973Y244748D02*
X188973Y254400D01*
X170342Y235008D02*
X161117Y235008D01*
X170342Y235008D02*
X172274Y236940D01*
X172274Y241424D01*
X175598Y244748D01*
X188973Y244748D01*
X161117Y235008D02*
X159500Y236625D01*
D28*
X163829Y219098D02*
X163829Y217775D01*
X163599Y217544D01*
X162219Y217544D01*
X160688Y219076D01*
X161219Y218544D02*
X162219Y217544D01*
X161219Y218544D02*
X161039Y218544D01*
D29*
X149258Y241359D02*
X149282Y241847D01*
D28*
X162219Y219871D02*
X162219Y217544D01*
D29*
X149258Y234224D02*
X149258Y241359D01*
X149258Y234224D02*
X150208Y233273D01*
D28*
X162219Y217544D01*
D30*
X193296Y284365D03*
D29*
X190878Y278639D02*
X190878Y277641D01*
X190878Y278639D02*
X180646Y288871D01*
X189878Y280948D02*
X189878Y278641D01*
X190878Y277641D01*
D31*
X189878Y280948D02*
X193296Y284365D01*
D30*
X186528Y313424D03*
X135552Y210325D03*
X135483Y205617D03*
D29*
X180468Y309739D02*
X180502Y309773D01*
X181292Y309739D02*
X186528Y313424D01*
X181292Y309739D02*
X180468Y309739D01*
D28*
X141463Y212775D02*
X135483Y205617D01*
X139966Y213292D02*
X143519Y217544D01*
X141463Y212775D02*
X139966Y213292D01*
X142805Y216485D02*
X143519Y217544D01*
X137080Y211106D02*
X133999Y211115D01*
X127521Y217593D01*
X137080Y211106D02*
X143519Y217544D01*
X135552Y210325D02*
X135483Y205617D01*
D32*
X127521Y217593D01*
X135483Y205617D02*
X142805Y216485D01*
D29*
X171770Y288871D02*
X180646Y288871D01*
X177066Y303877D02*
X171770Y303871D01*
X177066Y303877D02*
X180468Y309739D01*
D30*
X69650Y222073D03*
X178528Y232163D03*
X182731Y234476D03*
D29*
X188846Y234715D02*
X189100Y234461D01*
D30*
X185884Y262881D03*
X69593Y226706D03*
D27*
X77210Y224466D02*
X77210Y224301D01*
D29*
X185884Y262881D02*
X190878Y267872D01*
D28*
X190878Y267989D01*
D29*
X185384Y274179D02*
X185384Y277529D01*
X190878Y268685D02*
X190878Y267989D01*
X190878Y268685D02*
X185384Y274179D01*
X185384Y277529D02*
X179042Y283871D01*
X92500Y303871D02*
X86627Y303871D01*
D33*
X91911Y309391D03*
D28*
X91911Y309155D01*
X86627Y303871D01*
D33*
X83449Y264884D03*
D28*
X86559Y303803D02*
X86627Y303871D01*
X87289Y260845D02*
X87289Y258845D01*
X83449Y264685D02*
X83449Y264884D01*
X83449Y264685D02*
X87289Y260845D01*
D29*
X92500Y303871D02*
X91911Y309391D01*
D30*
X178624Y237056D03*
D32*
X189085Y234476D02*
X189100Y234461D01*
D29*
X71998Y224301D02*
X69593Y226706D01*
X71998Y224301D02*
X77210Y224301D01*
X74982Y222073D01*
X69650Y222073D01*
X69650Y226649D02*
X69593Y226706D01*
X69650Y226649D02*
X69650Y222073D01*
X69593Y226706D02*
X74969Y226706D01*
X77210Y224466D01*
D28*
X178592Y219482D02*
X178603Y217509D01*
X178592Y219482D02*
X178592Y219482D01*
X178592Y219551D01*
X178585Y221008D01*
X182731Y234476D02*
X189100Y234461D01*
D32*
X178528Y217584D02*
X178603Y217509D01*
X178528Y217584D02*
X178528Y232163D01*
D28*
X178528Y236959D02*
X178624Y237056D01*
D32*
X178528Y236959D02*
X178528Y232163D01*
X182731Y234476D02*
X178624Y237056D01*
X182731Y234476D02*
X178528Y232163D01*
D29*
X154357Y236303D02*
X154258Y237510D01*
X154238Y236418D02*
X154357Y236303D01*
X160082Y230778D01*
D28*
X177147Y230782D02*
X178528Y232163D01*
X177147Y230782D02*
X160082Y230778D01*
D29*
X171770Y283871D02*
X179042Y283871D01*
X154258Y241359D02*
X154238Y241339D01*
X154238Y236418D01*
X101746Y258871D02*
X87289Y258845D01*
X92500Y303871D02*
X101746Y303871D01*
D30*
X123423Y287706D03*
X136758Y276371D03*
X123423Y265036D03*
X123423Y276371D03*
X136758Y287706D03*
X150093Y287706D03*
X150093Y276371D03*
X150093Y265036D03*
X136758Y265036D03*
X113009Y265036D03*
X112882Y275990D03*
X113009Y287706D03*
X160634Y264909D03*
X160634Y276371D03*
X160581Y287714D03*
X113009Y253036D03*
X123423Y253036D03*
X136702Y253176D03*
X150093Y253120D03*
X160593Y253071D03*
X113009Y299706D03*
X123423Y299706D03*
X136758Y299706D03*
X150093Y299706D03*
X160581Y299714D03*
D27*
X190229Y293646D02*
X198219Y293646D01*
X190229Y293603D02*
X190229Y293646D01*
D34*
X190229Y293603D03*
D27*
X209719Y308146D02*
X217727Y308146D01*
X217727Y308140D01*
D34*
X217727Y308140D03*
D35*
X85347Y198641D02*
X85180Y198808D01*
D36*
X12714Y363153D03*
X21381Y363000D03*
X30762Y363000D03*
X40143Y363000D03*
X58905Y363000D03*
X68286Y363000D03*
X77667Y363000D03*
X87048Y363000D03*
X96429Y363000D03*
X105810Y363000D03*
X115191Y363000D03*
X124572Y363000D03*
X133953Y363000D03*
X143334Y363000D03*
X152715Y363000D03*
X162096Y363000D03*
X210874Y363000D03*
X217255Y363000D03*
X224636Y363000D03*
X234017Y363000D03*
X243398Y363000D03*
X252779Y363000D03*
X262160Y363000D03*
X271541Y363000D03*
X280922Y363000D03*
X12170Y353747D03*
X11634Y344055D03*
X11238Y334984D03*
X10455Y325170D03*
X9847Y316022D03*
X9490Y306890D03*
X8873Y297333D03*
X8873Y287952D03*
X8873Y278571D03*
X8873Y269190D03*
X8873Y259809D03*
X8873Y250428D03*
X8873Y241047D03*
X8873Y231666D03*
X8873Y222285D03*
X8873Y212904D03*
X8873Y184761D03*
X8873Y175380D03*
X8873Y165999D03*
X8873Y97205D03*
X8873Y87824D03*
X8873Y78443D03*
X8873Y69062D03*
X8873Y59681D03*
X8873Y50300D03*
X8873Y40919D03*
X8873Y31538D03*
X8873Y22157D03*
X8873Y12776D03*
X15127Y9649D03*
X24508Y9649D03*
X33889Y9649D03*
X43270Y9649D03*
X52651Y9649D03*
X62032Y9649D03*
X71413Y9649D03*
X80794Y9649D03*
X90175Y9649D03*
X99556Y9649D03*
X108937Y9649D03*
X118318Y9649D03*
X127699Y9649D03*
X137080Y9649D03*
X146461Y9649D03*
X155842Y9649D03*
X165223Y9649D03*
X174604Y9649D03*
X183985Y9649D03*
X193366Y9649D03*
X202747Y9649D03*
X212128Y9649D03*
X221509Y9649D03*
X230890Y9649D03*
X240271Y9649D03*
X249652Y9649D03*
X259033Y9649D03*
X268414Y9649D03*
X277795Y9649D03*
X287176Y9649D03*
X287176Y19030D03*
X287176Y28411D03*
X287176Y37792D03*
X287176Y47173D03*
X287176Y56554D03*
X287176Y65935D03*
X287176Y75316D03*
X287176Y84697D03*
X287176Y94078D03*
X287176Y103459D03*
X287176Y112840D03*
X287176Y122221D03*
X287176Y131602D03*
X287176Y140983D03*
X287176Y150364D03*
X287176Y159745D03*
X287176Y169126D03*
X287176Y178507D03*
X287176Y187888D03*
X287176Y197269D03*
X287176Y206650D03*
X287176Y216031D03*
X287176Y225412D03*
X287176Y234793D03*
X287176Y244174D03*
X287176Y253555D03*
X287176Y262936D03*
X287176Y272317D03*
X287176Y281698D03*
X287176Y291079D03*
X286176Y300460D03*
X286176Y309841D03*
X285176Y319222D03*
X284049Y328603D03*
X284049Y337984D03*
X283049Y347365D03*
X282049Y355746D03*
X199985Y365000D03*
X8873Y106586D03*
X8873Y115967D03*
X8873Y125348D03*
X8873Y134729D03*
X8873Y144110D03*
X8873Y153491D03*
X8873Y203523D03*
X8873Y194142D03*
D34*
X151415Y319435D03*
X151436Y330310D03*
X151424Y342560D03*
X157000Y343000D03*
X162000Y347000D03*
X165746Y351242D03*
X170353Y356392D03*
X172134Y363258D03*
X172000Y328633D03*
X172000Y334000D03*
X174000Y340000D03*
X179498Y345529D03*
X184785Y350280D03*
X186190Y356508D03*
X146586Y319411D03*
X141418Y319448D03*
X136336Y319394D03*
X131656Y326532D03*
X131710Y321389D03*
X129439Y331405D03*
X125787Y335057D03*
X124089Y342752D03*
X129516Y342745D03*
X135026Y342662D03*
X146040Y342599D03*
X27000Y348000D03*
X47000Y336000D03*
X35000Y331000D03*
X63000Y345000D03*
X49000Y345000D03*
X26000Y333000D03*
X51000Y327000D03*
X237000Y344000D03*
X253000Y325000D03*
X233000Y326000D03*
X257000Y343000D03*
X272000Y352000D03*
X248000Y352000D03*
X230000Y353000D03*
X269000Y308000D03*
X270000Y329000D03*
X253000Y313000D03*
X277000Y271000D03*
X269000Y280000D03*
X224000Y316000D03*
X264000Y260000D03*
X277000Y246000D03*
X264000Y247000D03*
X266000Y233000D03*
X251553Y237716D03*
X227000Y290000D03*
X228000Y275000D03*
X207000Y284000D03*
X209000Y318000D03*
X57000Y233000D03*
X59000Y201000D03*
X40000Y351000D03*
X63000Y355000D03*
X55000Y350000D03*
X21000Y355000D03*
X21000Y341000D03*
X37000Y341000D03*
X58000Y338000D03*
X61000Y327000D03*
X60000Y318000D03*
X246000Y333000D03*
X229000Y334000D03*
X226000Y343000D03*
X271000Y342000D03*
X277000Y317000D03*
X265000Y321000D03*
X264000Y297000D03*
X278000Y298000D03*
X262000Y333000D03*
X263000Y354000D03*
X245000Y308000D03*
X203000Y346000D03*
X210701Y353773D03*
X211000Y336000D03*
X189117Y343506D03*
X183746Y334945D03*
X202773Y329084D03*
X201955Y354954D03*
X193508Y352238D03*
X211000Y344000D03*
X192567Y334986D03*
X217000Y352000D03*
X222000Y331000D03*
X214000Y328000D03*
X223000Y354000D03*
X241000Y320000D03*
X275000Y213000D03*
X263000Y209000D03*
X261000Y220000D03*
D37*
X199883Y364855D02*
X199883Y364898D01*
X199985Y365000D01*
D34*
X42444Y322245D03*
X50909Y316263D03*
D30*
X24009Y269036D03*
D27*
X24009Y268716D01*
X24000Y268707D01*
D36*
X190241Y363115D03*
D34*
X185054Y363105D03*
X247372Y344076D03*
X203053Y337709D03*
X49697Y360861D03*
X74444Y293245D03*
X92444Y294245D03*
X89444Y276245D03*
X83444Y293245D03*
X77444Y279245D03*
X195717Y325577D03*
X73000Y319000D03*
X83000Y319000D03*
X94000Y318000D03*
X140453Y342662D03*
X151493Y336111D03*
X171994Y323496D03*
X180601Y325480D03*
X185229Y291603D03*
X207553Y202716D03*
X212553Y225716D03*
X194553Y198716D03*
X211553Y195716D03*
X225553Y195716D03*
X228553Y232716D03*
X106553Y196716D03*
X118152Y222638D03*
X120571Y337527D03*
X117960Y342688D03*
X151429Y325097D03*
X170160Y225193D03*
X135490Y225467D03*
D29*
X101746Y253871D02*
X93138Y253871D01*
X87272Y248005D01*
D30*
X100219Y206461D03*
D27*
X197573Y254400D02*
X204600Y254400D01*
X210000Y249000D02*
X210000Y235000D01*
X210000Y249000D02*
X204600Y254400D01*
D34*
X210000Y235000D03*
D27*
X47107Y268393D02*
X47000Y268500D01*
X47107Y268393D02*
X48000Y267500D01*
X245557Y285397D02*
X246136Y285977D01*
X245557Y285397D02*
X221397Y285397D01*
X214000Y278000D01*
X214000Y241000D01*
X216000Y239000D01*
D34*
X216000Y239000D03*
D30*
X73389Y195505D03*
X73389Y200505D03*
X73389Y205505D03*
D38*
X60719Y218175D01*
X47881Y218175D01*
X73389Y205505D02*
X73389Y195505D01*
X73389Y200505D02*
X73389Y205505D01*
D30*
X210505Y216074D03*
X215470Y216072D03*
D35*
X258000Y180500D02*
X275000Y180500D01*
D34*
X24000Y256000D03*
D27*
X25000Y257000D01*
D30*
X100250Y201562D03*
X104384Y204071D03*
D28*
X93968Y224301D02*
X93968Y224301D01*
X93610Y224301D01*
X93968Y224301D02*
X93968Y208907D01*
X93947Y208928D01*
D29*
X100219Y206461D01*
X100250Y201562D02*
X93947Y198641D01*
X100250Y201562D02*
X100219Y206461D01*
X104384Y204071D01*
X100250Y201562D01*
D28*
X93947Y208928D02*
X93968Y224301D01*
D32*
X210505Y216074D02*
X215469Y216074D01*
X215470Y216072D01*
X239753Y216072D01*
X239816Y216009D01*
X104384Y204071D02*
X93947Y208928D01*
X93947Y198641D02*
X104384Y204071D01*
D39*
X247452Y180500D02*
X258000Y180500D01*
X239753Y188199D02*
X239753Y216072D01*
X239753Y188199D02*
X247452Y180500D01*
D37*
X31000Y256000D02*
X24000Y256000D01*
X34000Y259000D02*
X34000Y263000D01*
X39393Y268393D01*
X47107Y268393D01*
X34000Y259000D02*
X31000Y256000D01*
X47000Y268500D02*
X56125Y268500D01*
X60625Y264000D01*
X60625Y247340D01*
X93610Y230390D02*
X93610Y224301D01*
X71576Y236389D02*
X60625Y247340D01*
X71576Y236389D02*
X87611Y236389D01*
X93610Y230390D01*
D35*
X210570Y216009D02*
X239816Y216009D01*
X210570Y216009D02*
X210505Y216074D01*
D27*
X57275Y306849D02*
X23944Y306849D01*
X57275Y306849D02*
X63927Y300197D01*
X63927Y248708D01*
X92434Y239691D02*
X93645Y240902D01*
X92434Y239691D02*
X72944Y239691D01*
X108289Y240902D02*
X109258Y241359D01*
X72944Y239691D02*
X63927Y248708D01*
X93645Y240902D02*
X108289Y240902D01*
D34*
X24000Y307000D03*
D27*
X23944Y306944D01*
X23944Y306849D01*
X94674Y248871D02*
X101746Y248871D01*
X92331Y246528D02*
X92331Y243540D01*
X91276Y242485D01*
X92331Y246528D02*
X94674Y248871D01*
X91276Y242485D02*
X74101Y242485D01*
X66721Y249865D01*
X66721Y301355D01*
X58432Y309643D01*
X27175Y319527D02*
X24000Y319527D01*
X37059Y309643D02*
X58432Y309643D01*
X37059Y309643D02*
X27175Y319527D01*
D34*
X24000Y319000D03*
D27*
X24000Y319527D01*
D37*
X164258Y318258D02*
X164258Y311383D01*
X165824Y319824D02*
X165824Y325069D01*
X165824Y319824D02*
X164258Y318258D01*
X159258Y318262D02*
X159258Y311383D01*
X157624Y319896D02*
X157624Y325069D01*
X157624Y319896D02*
X159258Y318262D01*
D27*
X119258Y317610D02*
X119258Y311383D01*
X119258Y317610D02*
X117339Y319530D01*
X116108Y319530D01*
D34*
X116108Y319530D03*
D27*
X55997Y285500D02*
X47000Y285500D01*
X55997Y285500D02*
X56005Y285492D01*
D34*
X56005Y285492D03*
X110232Y232502D03*
X24000Y294000D03*
D27*
X23960Y294040D01*
X23960Y294156D01*
X114258Y241359D02*
X114258Y235436D01*
X111324Y232502D01*
X110232Y232502D01*
D34*
X116751Y229409D03*
X24000Y281000D03*
D27*
X24000Y281449D02*
X24022Y281472D01*
X24000Y281449D02*
X24000Y281000D01*
X116751Y233807D02*
X116751Y229409D01*
X119258Y236314D02*
X119258Y241359D01*
X119258Y236314D02*
X116751Y233807D01*
X122000Y233000D02*
X124258Y235258D01*
D34*
X122000Y233000D03*
X275000Y153000D03*
D27*
X275000Y163500D01*
X124258Y235258D02*
X124258Y241359D01*
X129258Y241359D02*
X129258Y233258D01*
X129000Y233000D01*
D34*
X129000Y233000D03*
X233000Y160000D03*
D27*
X236500Y163500D02*
X258000Y163500D01*
X236500Y163500D02*
X233000Y160000D01*
X139258Y233742D02*
X139258Y241359D01*
X139258Y233742D02*
X140000Y233000D01*
D34*
X140000Y233000D03*
D27*
X245159Y268000D02*
X246136Y268977D01*
X245159Y268000D02*
X236000Y268000D01*
D34*
X236000Y268000D03*
D27*
X172318Y247811D02*
X171770Y248871D01*
X109258Y311383D02*
X109258Y322086D01*
X116393Y324773D02*
X116946Y325326D01*
X116393Y324773D02*
X111945Y324773D01*
X109258Y322086D01*
D34*
X116946Y325326D03*
D29*
X161404Y338483D02*
X172587Y349111D01*
X161404Y338483D02*
X157624Y335069D01*
X178946Y364792D02*
X178883Y364855D01*
X178867Y354987D01*
D38*
X29135Y194175D02*
X19942Y194175D01*
X21175Y240175D02*
X38381Y240175D01*
X21175Y240175D02*
X16723Y235723D01*
X16723Y197394D02*
X19942Y194175D01*
X16723Y197394D02*
X16723Y235723D01*
X38635Y172175D02*
X38873Y171937D01*
X38873Y122000D01*
D36*
X39000Y122000D03*
X39000Y115000D03*
X39000Y107000D03*
D28*
X38873Y114140D02*
X38873Y122000D01*
X39000Y122000D02*
X39000Y115000D01*
X39000Y107000D01*
X38873Y114140D02*
X38873Y114873D01*
X39000Y115000D01*
D36*
X39000Y91000D03*
X39000Y83000D03*
X39000Y76000D03*
X259000Y122000D03*
X259000Y107000D03*
X259000Y114000D03*
X259000Y91000D03*
X259000Y83000D03*
X259000Y75000D03*
D27*
X181441Y293871D02*
X171770Y293871D01*
X181441Y293871D02*
X188233Y300663D01*
X209719Y294019D02*
X209719Y293646D01*
X209719Y294019D02*
X203075Y300663D01*
X188233Y300663D01*
X181897Y298871D02*
X171770Y298871D01*
X181897Y298871D02*
X191200Y308174D01*
X198191Y308174D01*
X198219Y308146D01*
M02*
