G04 EAGLE Gerber RS-274X export*
G75*
%MOMM*%
%FSLAX34Y34*%
%LPD*%
%INBottom Copper*%
%IPPOS*%
%AMOC8*
5,1,8,0,0,1.08239X$1,22.5*%
G01*
%ADD10R,0.762000X1.524000*%
%ADD11C,0.270000*%
%ADD12C,0.300000*%
%ADD13C,0.457200*%
%ADD14C,0.453200*%
%ADD15C,0.450000*%
%ADD16C,0.503200*%
%ADD17C,0.152400*%

G36*
X290896Y4771D02*
X290896Y4771D01*
X290915Y4769D01*
X291017Y4791D01*
X291119Y4807D01*
X291136Y4817D01*
X291156Y4821D01*
X291245Y4874D01*
X291336Y4923D01*
X291350Y4937D01*
X291367Y4947D01*
X291434Y5026D01*
X291506Y5101D01*
X291514Y5119D01*
X291527Y5134D01*
X291566Y5230D01*
X291609Y5324D01*
X291611Y5344D01*
X291619Y5362D01*
X291637Y5529D01*
X291637Y269887D01*
X291634Y269908D01*
X291635Y269942D01*
X284730Y365636D01*
X284713Y365705D01*
X284706Y365776D01*
X284685Y365824D01*
X284672Y365875D01*
X284657Y365899D01*
X284651Y366221D01*
X284649Y366233D01*
X284651Y366246D01*
X284627Y366354D01*
X284607Y366463D01*
X284601Y366474D01*
X284598Y366486D01*
X284542Y366581D01*
X284488Y366678D01*
X284479Y366686D01*
X284472Y366697D01*
X284388Y366769D01*
X284307Y366844D01*
X284295Y366849D01*
X284285Y366857D01*
X284183Y366898D01*
X284082Y366943D01*
X284069Y366944D01*
X284057Y366949D01*
X283890Y366968D01*
X56155Y366968D01*
X56064Y366953D01*
X55974Y366946D01*
X55944Y366933D01*
X55912Y366928D01*
X55831Y366885D01*
X55747Y366849D01*
X55715Y366824D01*
X55694Y366813D01*
X55672Y366789D01*
X55616Y366745D01*
X53765Y364893D01*
X49869Y363279D01*
X45651Y363279D01*
X41755Y364893D01*
X39904Y366745D01*
X39830Y366798D01*
X39760Y366857D01*
X39730Y366869D01*
X39704Y366888D01*
X39617Y366915D01*
X39532Y366949D01*
X39491Y366954D01*
X39469Y366961D01*
X39437Y366960D01*
X39365Y366968D01*
X11022Y366968D01*
X10903Y366948D01*
X10785Y366930D01*
X10782Y366928D01*
X10779Y366928D01*
X10673Y366871D01*
X10567Y366816D01*
X10565Y366814D01*
X10562Y366813D01*
X10479Y366726D01*
X10396Y366639D01*
X10395Y366637D01*
X10392Y366634D01*
X10342Y366525D01*
X10291Y366417D01*
X10290Y366414D01*
X10289Y366411D01*
X10288Y366400D01*
X10262Y366252D01*
X4364Y267952D01*
X4366Y267934D01*
X4363Y267906D01*
X4363Y5529D01*
X4366Y5509D01*
X4364Y5490D01*
X4386Y5388D01*
X4402Y5286D01*
X4412Y5269D01*
X4416Y5249D01*
X4469Y5160D01*
X4518Y5069D01*
X4532Y5055D01*
X4542Y5038D01*
X4621Y4971D01*
X4696Y4899D01*
X4714Y4891D01*
X4729Y4878D01*
X4825Y4839D01*
X4919Y4796D01*
X4939Y4794D01*
X4957Y4786D01*
X5124Y4768D01*
X290876Y4768D01*
X290896Y4771D01*
G37*
%LPC*%
G36*
X224036Y140074D02*
X224036Y140074D01*
X215450Y148660D01*
X215450Y174228D01*
X215435Y174318D01*
X215428Y174409D01*
X215415Y174439D01*
X215410Y174471D01*
X215367Y174552D01*
X215331Y174635D01*
X215306Y174668D01*
X215295Y174688D01*
X215271Y174710D01*
X215227Y174766D01*
X207043Y182950D01*
X206969Y183003D01*
X206899Y183063D01*
X206869Y183075D01*
X206843Y183094D01*
X206756Y183121D01*
X206671Y183155D01*
X206630Y183159D01*
X206608Y183166D01*
X206576Y183165D01*
X206504Y183173D01*
X137016Y183173D01*
X136926Y183159D01*
X136835Y183151D01*
X136805Y183139D01*
X136773Y183134D01*
X136692Y183091D01*
X136608Y183055D01*
X136576Y183029D01*
X136555Y183018D01*
X136533Y182995D01*
X136477Y182950D01*
X122684Y169157D01*
X107884Y169157D01*
X107864Y169154D01*
X107845Y169156D01*
X107743Y169134D01*
X107641Y169118D01*
X107624Y169108D01*
X107604Y169104D01*
X107515Y169051D01*
X107424Y169002D01*
X107410Y168988D01*
X107393Y168978D01*
X107326Y168899D01*
X107254Y168824D01*
X107246Y168806D01*
X107233Y168791D01*
X107194Y168695D01*
X107151Y168601D01*
X107149Y168581D01*
X107141Y168563D01*
X107123Y168396D01*
X107123Y163044D01*
X106378Y162299D01*
X97706Y162299D01*
X96961Y163044D01*
X96961Y179336D01*
X97706Y180081D01*
X99248Y180081D01*
X99268Y180084D01*
X99287Y180082D01*
X99389Y180104D01*
X99491Y180120D01*
X99508Y180130D01*
X99528Y180134D01*
X99617Y180187D01*
X99708Y180236D01*
X99722Y180250D01*
X99739Y180260D01*
X99806Y180339D01*
X99878Y180414D01*
X99886Y180432D01*
X99899Y180447D01*
X99938Y180543D01*
X99981Y180637D01*
X99983Y180657D01*
X99991Y180675D01*
X100009Y180842D01*
X100009Y184884D01*
X105158Y190033D01*
X115843Y190033D01*
X115933Y190047D01*
X116024Y190055D01*
X116053Y190067D01*
X116085Y190072D01*
X116166Y190115D01*
X116250Y190151D01*
X116282Y190177D01*
X116303Y190188D01*
X116325Y190211D01*
X116381Y190256D01*
X121744Y195619D01*
X121797Y195693D01*
X121857Y195762D01*
X121869Y195793D01*
X121888Y195819D01*
X121915Y195906D01*
X121949Y195991D01*
X121953Y196032D01*
X121960Y196054D01*
X121959Y196086D01*
X121967Y196157D01*
X121967Y228718D01*
X121964Y228738D01*
X121966Y228757D01*
X121944Y228859D01*
X121928Y228961D01*
X121918Y228978D01*
X121914Y228998D01*
X121861Y229087D01*
X121812Y229178D01*
X121798Y229192D01*
X121788Y229209D01*
X121709Y229276D01*
X121634Y229348D01*
X121616Y229356D01*
X121601Y229369D01*
X121505Y229408D01*
X121411Y229451D01*
X121391Y229453D01*
X121373Y229461D01*
X121206Y229479D01*
X120542Y229479D01*
X118479Y231542D01*
X118479Y234458D01*
X120542Y236521D01*
X123458Y236521D01*
X124962Y235017D01*
X124978Y235006D01*
X124990Y234990D01*
X125078Y234934D01*
X125161Y234874D01*
X125180Y234868D01*
X125197Y234857D01*
X125298Y234832D01*
X125397Y234801D01*
X125416Y234802D01*
X125436Y234797D01*
X125539Y234805D01*
X125642Y234808D01*
X125661Y234815D01*
X125681Y234816D01*
X125776Y234857D01*
X125873Y234892D01*
X125889Y234905D01*
X125907Y234913D01*
X126038Y235017D01*
X127542Y236521D01*
X130458Y236521D01*
X132521Y234458D01*
X132521Y231542D01*
X130458Y229479D01*
X129794Y229479D01*
X129774Y229476D01*
X129755Y229478D01*
X129653Y229456D01*
X129551Y229440D01*
X129534Y229430D01*
X129514Y229426D01*
X129425Y229373D01*
X129334Y229324D01*
X129320Y229310D01*
X129303Y229300D01*
X129236Y229221D01*
X129164Y229146D01*
X129156Y229128D01*
X129143Y229113D01*
X129104Y229016D01*
X129061Y228923D01*
X129059Y228903D01*
X129051Y228885D01*
X129033Y228718D01*
X129033Y196527D01*
X129047Y196437D01*
X129055Y196346D01*
X129067Y196317D01*
X129072Y196285D01*
X129115Y196204D01*
X129151Y196120D01*
X129177Y196088D01*
X129188Y196067D01*
X129211Y196045D01*
X129256Y195989D01*
X134989Y190256D01*
X135063Y190203D01*
X135132Y190143D01*
X135163Y190131D01*
X135189Y190112D01*
X135276Y190085D01*
X135361Y190051D01*
X135402Y190047D01*
X135424Y190040D01*
X135456Y190041D01*
X135527Y190033D01*
X228842Y190033D01*
X234329Y184546D01*
X234329Y181170D01*
X234332Y181150D01*
X234330Y181131D01*
X234352Y181029D01*
X234368Y180927D01*
X234378Y180910D01*
X234382Y180890D01*
X234435Y180801D01*
X234484Y180710D01*
X234498Y180696D01*
X234508Y180679D01*
X234587Y180612D01*
X234662Y180540D01*
X234680Y180532D01*
X234695Y180519D01*
X234791Y180480D01*
X234885Y180437D01*
X234905Y180435D01*
X234923Y180427D01*
X235090Y180409D01*
X236632Y180409D01*
X237377Y179664D01*
X237377Y163372D01*
X236530Y162525D01*
X236519Y162509D01*
X236503Y162497D01*
X236447Y162409D01*
X236387Y162326D01*
X236381Y162307D01*
X236370Y162290D01*
X236345Y162189D01*
X236314Y162090D01*
X236315Y162071D01*
X236310Y162051D01*
X236318Y161948D01*
X236321Y161845D01*
X236328Y161826D01*
X236329Y161806D01*
X236370Y161711D01*
X236405Y161614D01*
X236418Y161598D01*
X236426Y161580D01*
X236521Y161461D01*
X236521Y158542D01*
X234458Y156479D01*
X231542Y156479D01*
X229479Y158542D01*
X229479Y161509D01*
X229492Y161527D01*
X229513Y161596D01*
X229544Y161661D01*
X229549Y161713D01*
X229565Y161762D01*
X229563Y161834D01*
X229571Y161905D01*
X229560Y161956D01*
X229558Y162008D01*
X229534Y162076D01*
X229518Y162146D01*
X229492Y162190D01*
X229474Y162239D01*
X229429Y162295D01*
X229392Y162357D01*
X229353Y162391D01*
X229320Y162431D01*
X229260Y162470D01*
X229205Y162517D01*
X229157Y162536D01*
X229113Y162564D01*
X229044Y162582D01*
X228977Y162609D01*
X228906Y162617D01*
X228875Y162625D01*
X228851Y162623D01*
X228810Y162627D01*
X227960Y162627D01*
X227215Y163372D01*
X227215Y179664D01*
X227960Y180409D01*
X229502Y180409D01*
X229522Y180412D01*
X229541Y180410D01*
X229643Y180432D01*
X229745Y180448D01*
X229762Y180458D01*
X229782Y180462D01*
X229871Y180515D01*
X229962Y180564D01*
X229976Y180578D01*
X229993Y180588D01*
X230060Y180667D01*
X230132Y180742D01*
X230140Y180760D01*
X230153Y180775D01*
X230192Y180871D01*
X230235Y180965D01*
X230237Y180985D01*
X230245Y181003D01*
X230263Y181170D01*
X230263Y182547D01*
X230249Y182637D01*
X230241Y182728D01*
X230229Y182757D01*
X230224Y182789D01*
X230181Y182870D01*
X230145Y182954D01*
X230119Y182986D01*
X230108Y183007D01*
X230085Y183029D01*
X230040Y183085D01*
X227381Y185744D01*
X227307Y185797D01*
X227238Y185857D01*
X227207Y185869D01*
X227181Y185888D01*
X227094Y185915D01*
X227009Y185949D01*
X226968Y185953D01*
X226946Y185960D01*
X226914Y185959D01*
X226843Y185967D01*
X211613Y185967D01*
X211542Y185956D01*
X211471Y185954D01*
X211422Y185936D01*
X211370Y185928D01*
X211307Y185894D01*
X211240Y185869D01*
X211199Y185837D01*
X211153Y185812D01*
X211104Y185761D01*
X211048Y185716D01*
X211019Y185672D01*
X210984Y185634D01*
X210953Y185569D01*
X210915Y185509D01*
X210902Y185458D01*
X210880Y185411D01*
X210872Y185340D01*
X210854Y185270D01*
X210859Y185218D01*
X210853Y185167D01*
X210868Y185096D01*
X210874Y185025D01*
X210894Y184977D01*
X210905Y184926D01*
X210942Y184865D01*
X210970Y184799D01*
X211015Y184743D01*
X211031Y184715D01*
X211049Y184700D01*
X211050Y184699D01*
X211053Y184693D01*
X211057Y184690D01*
X211075Y184668D01*
X218101Y177641D01*
X219515Y176227D01*
X219515Y150659D01*
X219530Y150569D01*
X219537Y150478D01*
X219550Y150449D01*
X219555Y150417D01*
X219597Y150336D01*
X219633Y150252D01*
X219659Y150220D01*
X219670Y150199D01*
X219693Y150177D01*
X219738Y150121D01*
X225497Y144362D01*
X225571Y144309D01*
X225640Y144250D01*
X225670Y144238D01*
X225697Y144219D01*
X225784Y144192D01*
X225868Y144158D01*
X225909Y144153D01*
X225932Y144146D01*
X225964Y144147D01*
X226035Y144139D01*
X270254Y144139D01*
X270344Y144154D01*
X270435Y144161D01*
X270465Y144174D01*
X270497Y144179D01*
X270578Y144222D01*
X270662Y144257D01*
X270694Y144283D01*
X270714Y144294D01*
X270737Y144318D01*
X270793Y144362D01*
X272744Y146314D01*
X272797Y146388D01*
X272857Y146457D01*
X272869Y146488D01*
X272888Y146514D01*
X272915Y146601D01*
X272949Y146686D01*
X272953Y146727D01*
X272960Y146749D01*
X272959Y146781D01*
X272967Y146852D01*
X272967Y149738D01*
X272953Y149828D01*
X272945Y149919D01*
X272933Y149949D01*
X272928Y149981D01*
X272885Y150062D01*
X272849Y150146D01*
X272823Y150178D01*
X272812Y150198D01*
X272789Y150221D01*
X272744Y150277D01*
X271479Y151542D01*
X271479Y154458D01*
X273542Y156521D01*
X276458Y156521D01*
X278521Y154458D01*
X278521Y151542D01*
X277256Y150277D01*
X277203Y150203D01*
X277143Y150133D01*
X277131Y150103D01*
X277112Y150077D01*
X277085Y149990D01*
X277051Y149905D01*
X277047Y149864D01*
X277040Y149842D01*
X277041Y149810D01*
X277033Y149738D01*
X277033Y144853D01*
X272254Y140074D01*
X224036Y140074D01*
G37*
%LPD*%
%LPC*%
G36*
X113542Y223479D02*
X113542Y223479D01*
X112277Y224744D01*
X112203Y224797D01*
X112133Y224857D01*
X112103Y224869D01*
X112077Y224888D01*
X111990Y224915D01*
X111905Y224949D01*
X111864Y224953D01*
X111842Y224960D01*
X111810Y224959D01*
X111738Y224967D01*
X106158Y224967D01*
X104175Y226950D01*
X104101Y227003D01*
X104032Y227063D01*
X104001Y227075D01*
X103975Y227094D01*
X103888Y227121D01*
X103803Y227155D01*
X103762Y227159D01*
X103740Y227166D01*
X103708Y227165D01*
X103637Y227173D01*
X100001Y227173D01*
X97184Y229990D01*
X97126Y230032D01*
X97074Y230081D01*
X97026Y230103D01*
X96984Y230134D01*
X96916Y230155D01*
X96851Y230185D01*
X96799Y230191D01*
X96749Y230206D01*
X96677Y230204D01*
X96606Y230212D01*
X96555Y230201D01*
X96503Y230200D01*
X96436Y230175D01*
X96366Y230160D01*
X96321Y230133D01*
X96272Y230115D01*
X96216Y230070D01*
X96155Y230034D01*
X96121Y229994D01*
X96080Y229961D01*
X96041Y229901D01*
X95995Y229847D01*
X95975Y229798D01*
X95947Y229755D01*
X95930Y229685D01*
X95903Y229619D01*
X95895Y229547D01*
X95887Y229516D01*
X95889Y229493D01*
X95888Y229484D01*
X93801Y227397D01*
X90854Y227397D01*
X90301Y227950D01*
X90285Y227962D01*
X90273Y227977D01*
X90186Y228033D01*
X90102Y228094D01*
X90083Y228100D01*
X90066Y228110D01*
X89965Y228136D01*
X89867Y228166D01*
X89847Y228166D01*
X89827Y228170D01*
X89724Y228162D01*
X89621Y228160D01*
X89602Y228153D01*
X89582Y228151D01*
X89487Y228111D01*
X89390Y228075D01*
X89374Y228063D01*
X89356Y228055D01*
X89225Y227950D01*
X88623Y227348D01*
X85677Y227348D01*
X83593Y229432D01*
X83593Y232378D01*
X85677Y234462D01*
X88623Y234462D01*
X89176Y233909D01*
X89192Y233897D01*
X89205Y233882D01*
X89292Y233826D01*
X89376Y233766D01*
X89395Y233760D01*
X89412Y233749D01*
X89512Y233724D01*
X89611Y233693D01*
X89631Y233694D01*
X89650Y233689D01*
X89753Y233697D01*
X89857Y233700D01*
X89875Y233706D01*
X89895Y233708D01*
X89990Y233748D01*
X90088Y233784D01*
X90103Y233796D01*
X90122Y233804D01*
X90253Y233909D01*
X90860Y234516D01*
X90896Y234522D01*
X90968Y234524D01*
X91017Y234542D01*
X91068Y234551D01*
X91131Y234584D01*
X91199Y234609D01*
X91239Y234641D01*
X91285Y234666D01*
X91335Y234718D01*
X91391Y234762D01*
X91419Y234806D01*
X91455Y234844D01*
X91485Y234909D01*
X91524Y234969D01*
X91536Y235020D01*
X91558Y235067D01*
X91566Y235138D01*
X91584Y235208D01*
X91580Y235260D01*
X91586Y235312D01*
X91570Y235382D01*
X91565Y235453D01*
X91544Y235501D01*
X91533Y235552D01*
X91496Y235614D01*
X91468Y235679D01*
X91424Y235735D01*
X91407Y235763D01*
X91389Y235778D01*
X91364Y235810D01*
X73587Y253587D01*
X72173Y255001D01*
X72173Y268843D01*
X72159Y268933D01*
X72151Y269024D01*
X72139Y269053D01*
X72134Y269085D01*
X72091Y269166D01*
X72055Y269250D01*
X72029Y269282D01*
X72018Y269303D01*
X71995Y269325D01*
X71950Y269381D01*
X70984Y270347D01*
X70910Y270400D01*
X70841Y270460D01*
X70810Y270472D01*
X70784Y270491D01*
X70697Y270518D01*
X70612Y270552D01*
X70571Y270556D01*
X70549Y270563D01*
X70517Y270562D01*
X70446Y270570D01*
X47604Y270570D01*
X39405Y278769D01*
X39331Y278822D01*
X39262Y278881D01*
X39232Y278893D01*
X39206Y278912D01*
X39119Y278939D01*
X39034Y278973D01*
X38993Y278978D01*
X38970Y278985D01*
X38938Y278984D01*
X38867Y278992D01*
X27286Y278992D01*
X27196Y278977D01*
X27105Y278970D01*
X27075Y278957D01*
X27043Y278952D01*
X26963Y278909D01*
X26879Y278873D01*
X26846Y278848D01*
X26826Y278837D01*
X26804Y278813D01*
X26748Y278769D01*
X25458Y277479D01*
X22542Y277479D01*
X20479Y279542D01*
X20479Y282458D01*
X22542Y284521D01*
X25458Y284521D01*
X26699Y283280D01*
X26773Y283227D01*
X26842Y283167D01*
X26873Y283155D01*
X26899Y283136D01*
X26986Y283110D01*
X27071Y283076D01*
X27112Y283071D01*
X27134Y283064D01*
X27166Y283065D01*
X27237Y283057D01*
X37230Y283057D01*
X37301Y283069D01*
X37373Y283070D01*
X37422Y283088D01*
X37473Y283097D01*
X37537Y283130D01*
X37604Y283155D01*
X37645Y283187D01*
X37691Y283212D01*
X37740Y283264D01*
X37796Y283309D01*
X37824Y283352D01*
X37860Y283390D01*
X37890Y283455D01*
X37929Y283516D01*
X37942Y283566D01*
X37964Y283613D01*
X37971Y283685D01*
X37989Y283754D01*
X37985Y283806D01*
X37991Y283858D01*
X37975Y283928D01*
X37970Y283999D01*
X37949Y284047D01*
X37938Y284098D01*
X37902Y284160D01*
X37874Y284226D01*
X37829Y284282D01*
X37812Y284309D01*
X37794Y284324D01*
X37769Y284357D01*
X30381Y291744D01*
X30307Y291797D01*
X30238Y291857D01*
X30207Y291869D01*
X30181Y291888D01*
X30094Y291915D01*
X30009Y291949D01*
X29968Y291953D01*
X29946Y291960D01*
X29914Y291959D01*
X29843Y291967D01*
X27262Y291967D01*
X27172Y291953D01*
X27081Y291945D01*
X27051Y291933D01*
X27019Y291928D01*
X26938Y291885D01*
X26854Y291849D01*
X26822Y291823D01*
X26802Y291812D01*
X26779Y291789D01*
X26723Y291744D01*
X25458Y290479D01*
X22542Y290479D01*
X20479Y292542D01*
X20479Y295458D01*
X22542Y297521D01*
X25458Y297521D01*
X26723Y296256D01*
X26797Y296203D01*
X26867Y296143D01*
X26897Y296131D01*
X26923Y296112D01*
X27010Y296085D01*
X27095Y296051D01*
X27136Y296047D01*
X27158Y296040D01*
X27190Y296041D01*
X27262Y296033D01*
X31842Y296033D01*
X49619Y278256D01*
X49693Y278203D01*
X49762Y278143D01*
X49793Y278131D01*
X49819Y278112D01*
X49906Y278085D01*
X49991Y278051D01*
X50032Y278047D01*
X50054Y278040D01*
X50086Y278041D01*
X50157Y278033D01*
X73842Y278033D01*
X79033Y272842D01*
X79033Y268505D01*
X79044Y268435D01*
X79046Y268363D01*
X79064Y268314D01*
X79072Y268262D01*
X79106Y268199D01*
X79131Y268132D01*
X79163Y268091D01*
X79188Y268045D01*
X79240Y267996D01*
X79284Y267940D01*
X79328Y267912D01*
X79366Y267876D01*
X79431Y267846D01*
X79491Y267807D01*
X79542Y267794D01*
X79589Y267772D01*
X79660Y267764D01*
X79730Y267747D01*
X79782Y267751D01*
X79833Y267745D01*
X79904Y267760D01*
X79975Y267766D01*
X80023Y267786D01*
X80074Y267797D01*
X80135Y267834D01*
X80201Y267862D01*
X80257Y267907D01*
X80285Y267923D01*
X80300Y267941D01*
X80332Y267967D01*
X81651Y269286D01*
X84581Y269286D01*
X86653Y267214D01*
X86653Y264284D01*
X84581Y262212D01*
X81651Y262212D01*
X80332Y263531D01*
X80274Y263573D01*
X80222Y263622D01*
X80175Y263644D01*
X80133Y263675D01*
X80064Y263696D01*
X79999Y263726D01*
X79947Y263732D01*
X79897Y263747D01*
X79826Y263745D01*
X79755Y263753D01*
X79704Y263742D01*
X79652Y263741D01*
X79584Y263716D01*
X79514Y263701D01*
X79469Y263674D01*
X79421Y263656D01*
X79365Y263611D01*
X79303Y263575D01*
X79269Y263535D01*
X79229Y263502D01*
X79190Y263442D01*
X79143Y263388D01*
X79124Y263339D01*
X79096Y263296D01*
X79078Y263226D01*
X79051Y263159D01*
X79043Y263088D01*
X79035Y263057D01*
X79037Y263034D01*
X79033Y262993D01*
X79033Y258157D01*
X79047Y258067D01*
X79055Y257976D01*
X79067Y257947D01*
X79072Y257915D01*
X79115Y257834D01*
X79151Y257750D01*
X79177Y257718D01*
X79188Y257697D01*
X79211Y257675D01*
X79256Y257619D01*
X96662Y240213D01*
X96720Y240171D01*
X96772Y240122D01*
X96792Y240113D01*
X96801Y240104D01*
X96828Y240094D01*
X96861Y240069D01*
X96930Y240048D01*
X96995Y240018D01*
X97023Y240015D01*
X97029Y240012D01*
X97056Y240009D01*
X97097Y239997D01*
X97155Y239999D01*
X97196Y239994D01*
X97200Y239994D01*
X97205Y239995D01*
X97239Y239991D01*
X97290Y240002D01*
X97342Y240003D01*
X97410Y240028D01*
X97415Y240029D01*
X97443Y240034D01*
X97448Y240036D01*
X97480Y240043D01*
X97525Y240070D01*
X97573Y240088D01*
X97629Y240132D01*
X97660Y240149D01*
X97665Y240154D01*
X97691Y240169D01*
X97725Y240209D01*
X97765Y240242D01*
X97802Y240298D01*
X97830Y240327D01*
X97834Y240337D01*
X97851Y240356D01*
X97870Y240405D01*
X97898Y240449D01*
X97913Y240508D01*
X97933Y240550D01*
X97935Y240565D01*
X97943Y240585D01*
X97951Y240656D01*
X97959Y240687D01*
X97957Y240710D01*
X97961Y240751D01*
X97961Y257205D01*
X98706Y257950D01*
X107378Y257950D01*
X108123Y257205D01*
X108123Y240913D01*
X107378Y240168D01*
X98544Y240168D01*
X98474Y240157D01*
X98402Y240155D01*
X98353Y240137D01*
X98302Y240129D01*
X98238Y240095D01*
X98171Y240070D01*
X98130Y240038D01*
X98084Y240013D01*
X98035Y239961D01*
X97979Y239917D01*
X97951Y239873D01*
X97915Y239835D01*
X97885Y239770D01*
X97846Y239710D01*
X97833Y239659D01*
X97811Y239612D01*
X97803Y239541D01*
X97786Y239471D01*
X97790Y239419D01*
X97784Y239368D01*
X97799Y239297D01*
X97805Y239226D01*
X97825Y239178D01*
X97836Y239127D01*
X97873Y239066D01*
X97901Y239000D01*
X97946Y238944D01*
X97962Y238916D01*
X97980Y238901D01*
X98006Y238869D01*
X102619Y234256D01*
X102693Y234203D01*
X102762Y234143D01*
X102793Y234131D01*
X102819Y234112D01*
X102906Y234085D01*
X102991Y234051D01*
X103032Y234047D01*
X103054Y234040D01*
X103086Y234041D01*
X103157Y234033D01*
X106738Y234033D01*
X106828Y234047D01*
X106919Y234055D01*
X106949Y234067D01*
X106981Y234072D01*
X107062Y234115D01*
X107146Y234151D01*
X107178Y234177D01*
X107198Y234188D01*
X107221Y234211D01*
X107277Y234256D01*
X108542Y235521D01*
X111458Y235521D01*
X113521Y233458D01*
X113521Y231282D01*
X113524Y231262D01*
X113522Y231243D01*
X113544Y231141D01*
X113560Y231039D01*
X113570Y231022D01*
X113574Y231002D01*
X113627Y230913D01*
X113676Y230822D01*
X113690Y230808D01*
X113700Y230791D01*
X113779Y230724D01*
X113854Y230652D01*
X113872Y230644D01*
X113887Y230631D01*
X113983Y230592D01*
X114077Y230549D01*
X114097Y230547D01*
X114115Y230539D01*
X114282Y230521D01*
X116458Y230521D01*
X118521Y228458D01*
X118521Y225542D01*
X116458Y223479D01*
X113542Y223479D01*
G37*
%LPD*%
%LPC*%
G36*
X54546Y281972D02*
X54546Y281972D01*
X52484Y284034D01*
X52484Y286951D01*
X54546Y289013D01*
X57463Y289013D01*
X58728Y287748D01*
X58802Y287695D01*
X58872Y287635D01*
X58902Y287623D01*
X58928Y287605D01*
X59015Y287578D01*
X59100Y287544D01*
X59141Y287539D01*
X59163Y287532D01*
X59195Y287533D01*
X59266Y287525D01*
X97335Y287525D01*
X97425Y287540D01*
X97516Y287547D01*
X97546Y287560D01*
X97578Y287565D01*
X97658Y287608D01*
X97742Y287643D01*
X97774Y287669D01*
X97795Y287680D01*
X97817Y287703D01*
X97873Y287748D01*
X100786Y290661D01*
X100839Y290735D01*
X100899Y290804D01*
X100911Y290835D01*
X100930Y290861D01*
X100957Y290948D01*
X100991Y291033D01*
X100995Y291074D01*
X101002Y291096D01*
X101001Y291128D01*
X101009Y291199D01*
X101009Y295287D01*
X101006Y295307D01*
X101008Y295326D01*
X100986Y295428D01*
X100970Y295530D01*
X100960Y295547D01*
X100956Y295567D01*
X100903Y295656D01*
X100854Y295747D01*
X100840Y295761D01*
X100830Y295778D01*
X100751Y295845D01*
X100676Y295917D01*
X100658Y295925D01*
X100643Y295938D01*
X100547Y295977D01*
X100453Y296020D01*
X100433Y296022D01*
X100415Y296030D01*
X100248Y296048D01*
X98706Y296048D01*
X97961Y296793D01*
X97961Y313085D01*
X98706Y313830D01*
X100248Y313830D01*
X100268Y313833D01*
X100287Y313831D01*
X100389Y313853D01*
X100491Y313869D01*
X100508Y313879D01*
X100528Y313883D01*
X100617Y313936D01*
X100708Y313985D01*
X100722Y313999D01*
X100739Y314009D01*
X100806Y314088D01*
X100878Y314163D01*
X100886Y314181D01*
X100899Y314196D01*
X100938Y314292D01*
X100981Y314386D01*
X100983Y314406D01*
X100991Y314424D01*
X101009Y314591D01*
X101009Y317884D01*
X104158Y321033D01*
X111738Y321033D01*
X111828Y321047D01*
X111919Y321055D01*
X111949Y321067D01*
X111981Y321072D01*
X112062Y321115D01*
X112146Y321151D01*
X112178Y321177D01*
X112198Y321188D01*
X112221Y321211D01*
X112277Y321256D01*
X113542Y322521D01*
X115430Y322521D01*
X115450Y322524D01*
X115470Y322522D01*
X115571Y322544D01*
X115673Y322560D01*
X115691Y322570D01*
X115710Y322574D01*
X115799Y322627D01*
X115891Y322676D01*
X115904Y322690D01*
X115921Y322700D01*
X115989Y322779D01*
X116060Y322854D01*
X116068Y322872D01*
X116081Y322887D01*
X116120Y322983D01*
X116164Y323077D01*
X116166Y323097D01*
X116173Y323115D01*
X116192Y323282D01*
X116192Y324688D01*
X117457Y325953D01*
X117510Y326027D01*
X117569Y326097D01*
X117581Y326127D01*
X117600Y326153D01*
X117627Y326240D01*
X117661Y326325D01*
X117666Y326366D01*
X117673Y326388D01*
X117672Y326420D01*
X117680Y326492D01*
X117680Y329130D01*
X117665Y329220D01*
X117658Y329311D01*
X117645Y329341D01*
X117640Y329373D01*
X117597Y329454D01*
X117562Y329538D01*
X117536Y329570D01*
X117525Y329590D01*
X117501Y329613D01*
X117457Y329669D01*
X111235Y335890D01*
X111235Y345759D01*
X111221Y345849D01*
X111213Y345940D01*
X111201Y345970D01*
X111196Y346002D01*
X111153Y346083D01*
X111117Y346167D01*
X111091Y346199D01*
X111080Y346219D01*
X111057Y346241D01*
X111012Y346297D01*
X109297Y348012D01*
X109297Y353484D01*
X110832Y355019D01*
X115704Y355019D01*
X117050Y353673D01*
X117066Y353661D01*
X117078Y353645D01*
X117166Y353589D01*
X117249Y353529D01*
X117268Y353523D01*
X117285Y353512D01*
X117386Y353487D01*
X117485Y353457D01*
X117504Y353457D01*
X117524Y353452D01*
X117627Y353460D01*
X117730Y353463D01*
X117749Y353470D01*
X117769Y353471D01*
X117864Y353512D01*
X117961Y353547D01*
X117977Y353560D01*
X117995Y353568D01*
X118126Y353673D01*
X119472Y355019D01*
X124344Y355019D01*
X125851Y353512D01*
X125925Y353459D01*
X125994Y353399D01*
X126024Y353387D01*
X126050Y353368D01*
X126137Y353341D01*
X126222Y353307D01*
X126263Y353303D01*
X126285Y353296D01*
X126318Y353297D01*
X126389Y353289D01*
X127294Y353289D01*
X127314Y353292D01*
X127333Y353290D01*
X127435Y353312D01*
X127537Y353328D01*
X127554Y353338D01*
X127574Y353342D01*
X127663Y353395D01*
X127754Y353444D01*
X127768Y353458D01*
X127785Y353468D01*
X127852Y353547D01*
X127924Y353622D01*
X127932Y353640D01*
X127945Y353655D01*
X127984Y353751D01*
X128027Y353845D01*
X128029Y353865D01*
X128037Y353883D01*
X128055Y354050D01*
X128055Y355904D01*
X129678Y357527D01*
X138974Y357527D01*
X140597Y355904D01*
X140597Y346608D01*
X138974Y344985D01*
X129678Y344985D01*
X128055Y346608D01*
X128055Y348462D01*
X128052Y348482D01*
X128054Y348501D01*
X128032Y348603D01*
X128016Y348705D01*
X128006Y348722D01*
X128002Y348742D01*
X127949Y348831D01*
X127900Y348922D01*
X127886Y348936D01*
X127876Y348953D01*
X127797Y349020D01*
X127722Y349092D01*
X127704Y349100D01*
X127689Y349113D01*
X127593Y349152D01*
X127499Y349195D01*
X127479Y349197D01*
X127461Y349205D01*
X127294Y349223D01*
X126640Y349223D01*
X126620Y349220D01*
X126601Y349222D01*
X126499Y349200D01*
X126397Y349184D01*
X126380Y349174D01*
X126360Y349170D01*
X126271Y349117D01*
X126180Y349068D01*
X126166Y349054D01*
X126149Y349044D01*
X126082Y348965D01*
X126010Y348890D01*
X126002Y348872D01*
X125989Y348857D01*
X125950Y348761D01*
X125907Y348667D01*
X125905Y348647D01*
X125897Y348629D01*
X125879Y348462D01*
X125879Y348012D01*
X124344Y346477D01*
X119472Y346477D01*
X118126Y347823D01*
X118110Y347835D01*
X118098Y347851D01*
X118010Y347907D01*
X117927Y347967D01*
X117908Y347973D01*
X117891Y347984D01*
X117790Y348009D01*
X117691Y348039D01*
X117672Y348039D01*
X117652Y348044D01*
X117549Y348036D01*
X117446Y348033D01*
X117427Y348026D01*
X117407Y348025D01*
X117312Y347984D01*
X117215Y347949D01*
X117199Y347936D01*
X117181Y347928D01*
X117050Y347823D01*
X115524Y346297D01*
X115471Y346223D01*
X115411Y346154D01*
X115399Y346124D01*
X115380Y346098D01*
X115353Y346011D01*
X115319Y345926D01*
X115315Y345885D01*
X115308Y345863D01*
X115309Y345830D01*
X115301Y345759D01*
X115301Y337889D01*
X115315Y337799D01*
X115323Y337708D01*
X115335Y337679D01*
X115340Y337647D01*
X115383Y337566D01*
X115419Y337482D01*
X115445Y337450D01*
X115456Y337429D01*
X115479Y337407D01*
X115524Y337351D01*
X121745Y331130D01*
X121745Y326492D01*
X121760Y326402D01*
X121767Y326311D01*
X121780Y326281D01*
X121785Y326249D01*
X121828Y326168D01*
X121863Y326084D01*
X121889Y326052D01*
X121900Y326032D01*
X121923Y326009D01*
X121968Y325953D01*
X123233Y324688D01*
X123233Y321772D01*
X121171Y319709D01*
X119282Y319709D01*
X119262Y319706D01*
X119243Y319708D01*
X119141Y319686D01*
X119039Y319670D01*
X119022Y319660D01*
X119002Y319656D01*
X118913Y319603D01*
X118822Y319554D01*
X118808Y319540D01*
X118791Y319530D01*
X118724Y319451D01*
X118652Y319376D01*
X118644Y319358D01*
X118631Y319343D01*
X118592Y319247D01*
X118549Y319153D01*
X118547Y319133D01*
X118539Y319115D01*
X118521Y318948D01*
X118521Y317542D01*
X116458Y315479D01*
X113542Y315479D01*
X112277Y316744D01*
X112203Y316797D01*
X112133Y316857D01*
X112103Y316869D01*
X112077Y316888D01*
X111990Y316915D01*
X111905Y316949D01*
X111864Y316953D01*
X111842Y316960D01*
X111810Y316959D01*
X111738Y316967D01*
X106157Y316967D01*
X106067Y316953D01*
X105976Y316945D01*
X105947Y316933D01*
X105915Y316928D01*
X105834Y316885D01*
X105750Y316849D01*
X105718Y316823D01*
X105697Y316812D01*
X105675Y316789D01*
X105619Y316744D01*
X105298Y316423D01*
X105245Y316349D01*
X105185Y316280D01*
X105173Y316249D01*
X105154Y316223D01*
X105127Y316136D01*
X105093Y316051D01*
X105089Y316010D01*
X105082Y315988D01*
X105083Y315956D01*
X105075Y315885D01*
X105075Y314591D01*
X105078Y314574D01*
X105076Y314557D01*
X105076Y314555D01*
X105076Y314552D01*
X105098Y314450D01*
X105114Y314348D01*
X105124Y314331D01*
X105128Y314311D01*
X105181Y314222D01*
X105230Y314131D01*
X105244Y314117D01*
X105254Y314100D01*
X105333Y314033D01*
X105408Y313961D01*
X105426Y313953D01*
X105441Y313940D01*
X105537Y313901D01*
X105631Y313858D01*
X105651Y313856D01*
X105669Y313848D01*
X105836Y313830D01*
X107378Y313830D01*
X108123Y313085D01*
X108123Y296793D01*
X107378Y296048D01*
X105836Y296048D01*
X105816Y296045D01*
X105797Y296047D01*
X105695Y296025D01*
X105593Y296009D01*
X105576Y295999D01*
X105556Y295995D01*
X105467Y295942D01*
X105376Y295893D01*
X105362Y295879D01*
X105345Y295869D01*
X105278Y295790D01*
X105206Y295715D01*
X105198Y295697D01*
X105185Y295682D01*
X105146Y295586D01*
X105103Y295492D01*
X105101Y295472D01*
X105093Y295454D01*
X105075Y295287D01*
X105075Y289200D01*
X99334Y283460D01*
X59266Y283460D01*
X59176Y283445D01*
X59085Y283438D01*
X59056Y283425D01*
X59024Y283420D01*
X58943Y283377D01*
X58859Y283341D01*
X58827Y283316D01*
X58806Y283305D01*
X58784Y283281D01*
X58728Y283237D01*
X57463Y281972D01*
X54546Y281972D01*
G37*
%LPD*%
%LPC*%
G36*
X138542Y229479D02*
X138542Y229479D01*
X136479Y231542D01*
X136479Y234458D01*
X137744Y235723D01*
X137797Y235797D01*
X137857Y235867D01*
X137869Y235897D01*
X137888Y235923D01*
X137915Y236010D01*
X137949Y236095D01*
X137953Y236136D01*
X137960Y236158D01*
X137959Y236190D01*
X137967Y236262D01*
X137967Y239842D01*
X145952Y247827D01*
X172637Y247827D01*
X172727Y247841D01*
X172818Y247849D01*
X172847Y247861D01*
X172879Y247866D01*
X172960Y247909D01*
X173044Y247945D01*
X173076Y247971D01*
X173097Y247982D01*
X173119Y248005D01*
X173175Y248050D01*
X176158Y251033D01*
X188474Y251033D01*
X188494Y251036D01*
X188513Y251034D01*
X188615Y251056D01*
X188717Y251072D01*
X188734Y251082D01*
X188754Y251086D01*
X188843Y251139D01*
X188934Y251188D01*
X188948Y251202D01*
X188965Y251212D01*
X189032Y251291D01*
X189104Y251366D01*
X189112Y251384D01*
X189125Y251399D01*
X189164Y251495D01*
X189207Y251589D01*
X189209Y251609D01*
X189217Y251627D01*
X189235Y251794D01*
X189235Y257465D01*
X189236Y257469D01*
X189235Y257485D01*
X189235Y257530D01*
X189234Y257538D01*
X189234Y257542D01*
X189230Y257561D01*
X189229Y257571D01*
X189226Y257673D01*
X189219Y257693D01*
X189217Y257715D01*
X189197Y257762D01*
X189196Y257772D01*
X189181Y257800D01*
X189177Y257808D01*
X189143Y257904D01*
X189129Y257921D01*
X189121Y257941D01*
X189016Y258072D01*
X187430Y259658D01*
X187430Y262604D01*
X189514Y264688D01*
X192460Y264688D01*
X194544Y262604D01*
X194544Y259658D01*
X194144Y259258D01*
X194102Y259200D01*
X194053Y259148D01*
X194031Y259101D01*
X194001Y259059D01*
X193980Y258990D01*
X193949Y258925D01*
X193944Y258873D01*
X193928Y258823D01*
X193930Y258752D01*
X193922Y258681D01*
X193933Y258630D01*
X193935Y258578D01*
X193959Y258510D01*
X193975Y258440D01*
X194001Y258395D01*
X194019Y258347D01*
X194064Y258291D01*
X194101Y258229D01*
X194140Y258195D01*
X194173Y258155D01*
X194233Y258116D01*
X194288Y258069D01*
X194336Y258050D01*
X194380Y258022D01*
X194449Y258004D01*
X194516Y257977D01*
X194587Y257969D01*
X194618Y257961D01*
X194642Y257963D01*
X194683Y257959D01*
X198652Y257959D01*
X199397Y257214D01*
X199397Y251862D01*
X199400Y251842D01*
X199398Y251823D01*
X199420Y251721D01*
X199436Y251619D01*
X199446Y251602D01*
X199450Y251582D01*
X199503Y251493D01*
X199552Y251402D01*
X199566Y251388D01*
X199576Y251371D01*
X199655Y251304D01*
X199730Y251232D01*
X199748Y251224D01*
X199763Y251211D01*
X199859Y251172D01*
X199953Y251129D01*
X199973Y251127D01*
X199991Y251119D01*
X200158Y251101D01*
X208911Y251101D01*
X209001Y251115D01*
X209092Y251123D01*
X209121Y251135D01*
X209153Y251140D01*
X209234Y251183D01*
X209318Y251219D01*
X209350Y251245D01*
X209371Y251256D01*
X209393Y251279D01*
X209449Y251324D01*
X216744Y258619D01*
X216797Y258693D01*
X216857Y258762D01*
X216869Y258793D01*
X216888Y258819D01*
X216915Y258906D01*
X216949Y258991D01*
X216953Y259032D01*
X216960Y259054D01*
X216959Y259086D01*
X216967Y259157D01*
X216967Y264842D01*
X222158Y270033D01*
X232738Y270033D01*
X232828Y270047D01*
X232919Y270055D01*
X232949Y270067D01*
X232981Y270072D01*
X233062Y270115D01*
X233146Y270151D01*
X233178Y270177D01*
X233198Y270188D01*
X233221Y270211D01*
X233277Y270256D01*
X234542Y271521D01*
X237458Y271521D01*
X239521Y269458D01*
X239521Y266542D01*
X237458Y264479D01*
X234542Y264479D01*
X233277Y265744D01*
X233203Y265797D01*
X233133Y265857D01*
X233103Y265869D01*
X233077Y265888D01*
X232990Y265915D01*
X232905Y265949D01*
X232864Y265953D01*
X232842Y265960D01*
X232810Y265959D01*
X232738Y265967D01*
X224157Y265967D01*
X224067Y265953D01*
X223976Y265945D01*
X223947Y265933D01*
X223915Y265928D01*
X223834Y265885D01*
X223750Y265849D01*
X223718Y265823D01*
X223697Y265812D01*
X223675Y265789D01*
X223619Y265744D01*
X221256Y263381D01*
X221203Y263307D01*
X221143Y263238D01*
X221131Y263207D01*
X221112Y263181D01*
X221085Y263094D01*
X221070Y263057D01*
X221061Y263036D01*
X221060Y263032D01*
X221051Y263009D01*
X221047Y262968D01*
X221040Y262946D01*
X221041Y262914D01*
X221033Y262843D01*
X221033Y257158D01*
X210910Y247035D01*
X200158Y247035D01*
X200138Y247032D01*
X200119Y247034D01*
X200017Y247012D01*
X199915Y246996D01*
X199898Y246986D01*
X199878Y246982D01*
X199789Y246929D01*
X199698Y246880D01*
X199684Y246866D01*
X199667Y246856D01*
X199600Y246777D01*
X199528Y246702D01*
X199520Y246684D01*
X199507Y246669D01*
X199468Y246573D01*
X199425Y246479D01*
X199423Y246459D01*
X199415Y246441D01*
X199397Y246274D01*
X199397Y240922D01*
X198652Y240177D01*
X189980Y240177D01*
X189235Y240922D01*
X189235Y246206D01*
X189232Y246226D01*
X189234Y246245D01*
X189212Y246347D01*
X189196Y246449D01*
X189186Y246466D01*
X189182Y246486D01*
X189129Y246575D01*
X189080Y246666D01*
X189066Y246680D01*
X189056Y246697D01*
X188977Y246764D01*
X188902Y246836D01*
X188884Y246844D01*
X188869Y246857D01*
X188773Y246896D01*
X188679Y246939D01*
X188659Y246941D01*
X188641Y246949D01*
X188474Y246967D01*
X178157Y246967D01*
X178067Y246953D01*
X177976Y246945D01*
X177947Y246933D01*
X177915Y246928D01*
X177834Y246885D01*
X177750Y246849D01*
X177718Y246823D01*
X177697Y246812D01*
X177675Y246789D01*
X177619Y246744D01*
X174636Y243761D01*
X147951Y243761D01*
X147861Y243747D01*
X147770Y243739D01*
X147741Y243727D01*
X147709Y243722D01*
X147628Y243679D01*
X147544Y243643D01*
X147512Y243617D01*
X147491Y243606D01*
X147469Y243583D01*
X147413Y243538D01*
X142256Y238381D01*
X142203Y238307D01*
X142143Y238238D01*
X142131Y238207D01*
X142112Y238181D01*
X142085Y238094D01*
X142051Y238009D01*
X142047Y237968D01*
X142040Y237946D01*
X142041Y237914D01*
X142033Y237843D01*
X142033Y236262D01*
X142047Y236172D01*
X142055Y236081D01*
X142067Y236051D01*
X142072Y236019D01*
X142115Y235938D01*
X142151Y235854D01*
X142177Y235822D01*
X142188Y235802D01*
X142211Y235779D01*
X142256Y235723D01*
X143521Y234458D01*
X143521Y231542D01*
X141458Y229479D01*
X138542Y229479D01*
G37*
%LPD*%
%LPC*%
G36*
X258651Y48279D02*
X258651Y48279D01*
X254755Y49893D01*
X251773Y52875D01*
X250159Y56771D01*
X250159Y60989D01*
X251773Y64885D01*
X254755Y67867D01*
X258651Y69481D01*
X262869Y69481D01*
X266765Y67867D01*
X269747Y64885D01*
X271361Y60989D01*
X271361Y56771D01*
X269747Y52875D01*
X266765Y49893D01*
X262869Y48279D01*
X258651Y48279D01*
G37*
%LPD*%
%LPC*%
G36*
X228080Y296057D02*
X228080Y296057D01*
X227335Y296802D01*
X227335Y313094D01*
X228080Y313839D01*
X236752Y313839D01*
X237497Y313094D01*
X237497Y296802D01*
X236752Y296057D01*
X228080Y296057D01*
G37*
%LPD*%
%LPC*%
G36*
X189980Y296057D02*
X189980Y296057D01*
X189235Y296802D01*
X189235Y313094D01*
X189980Y313839D01*
X198652Y313839D01*
X199397Y313094D01*
X199397Y296802D01*
X198652Y296057D01*
X189980Y296057D01*
G37*
%LPD*%
%LPC*%
G36*
X60606Y240168D02*
X60606Y240168D01*
X59861Y240913D01*
X59861Y257205D01*
X60606Y257950D01*
X69278Y257950D01*
X70023Y257205D01*
X70023Y240913D01*
X69278Y240168D01*
X60606Y240168D01*
G37*
%LPD*%
%LPC*%
G36*
X227960Y106747D02*
X227960Y106747D01*
X227215Y107492D01*
X227215Y123784D01*
X227960Y124529D01*
X236632Y124529D01*
X237377Y123784D01*
X237377Y107492D01*
X236632Y106747D01*
X227960Y106747D01*
G37*
%LPD*%
%LPC*%
G36*
X189860Y106747D02*
X189860Y106747D01*
X189115Y107492D01*
X189115Y123784D01*
X189860Y124529D01*
X198532Y124529D01*
X199277Y123784D01*
X199277Y107492D01*
X198532Y106747D01*
X189860Y106747D01*
G37*
%LPD*%
%LPC*%
G36*
X97706Y106419D02*
X97706Y106419D01*
X96961Y107164D01*
X96961Y123456D01*
X97706Y124201D01*
X106378Y124201D01*
X107123Y123456D01*
X107123Y107164D01*
X106378Y106419D01*
X97706Y106419D01*
G37*
%LPD*%
%LPC*%
G36*
X59606Y106419D02*
X59606Y106419D01*
X58861Y107164D01*
X58861Y123456D01*
X59606Y124201D01*
X68278Y124201D01*
X69023Y123456D01*
X69023Y107164D01*
X68278Y106419D01*
X59606Y106419D01*
G37*
%LPD*%
%LPC*%
G36*
X257431Y71213D02*
X257431Y71213D01*
X255213Y73431D01*
X255213Y76569D01*
X257106Y78462D01*
X257118Y78478D01*
X257134Y78490D01*
X257190Y78578D01*
X257250Y78661D01*
X257256Y78680D01*
X257267Y78697D01*
X257292Y78798D01*
X257322Y78897D01*
X257322Y78916D01*
X257327Y78936D01*
X257319Y79039D01*
X257316Y79142D01*
X257309Y79161D01*
X257308Y79181D01*
X257267Y79276D01*
X257232Y79373D01*
X257219Y79389D01*
X257211Y79407D01*
X257106Y79538D01*
X255213Y81431D01*
X255213Y84569D01*
X257106Y86462D01*
X257118Y86478D01*
X257134Y86490D01*
X257164Y86537D01*
X257180Y86555D01*
X257193Y86583D01*
X257250Y86661D01*
X257256Y86680D01*
X257267Y86697D01*
X257292Y86798D01*
X257322Y86897D01*
X257322Y86916D01*
X257327Y86936D01*
X257319Y87039D01*
X257316Y87142D01*
X257309Y87161D01*
X257308Y87181D01*
X257267Y87276D01*
X257232Y87373D01*
X257219Y87389D01*
X257211Y87407D01*
X257106Y87538D01*
X255213Y89431D01*
X255213Y92569D01*
X257431Y94787D01*
X260569Y94787D01*
X262787Y92569D01*
X262787Y89431D01*
X260894Y87538D01*
X260882Y87522D01*
X260866Y87510D01*
X260810Y87422D01*
X260750Y87339D01*
X260744Y87320D01*
X260733Y87303D01*
X260708Y87202D01*
X260678Y87103D01*
X260678Y87084D01*
X260673Y87064D01*
X260681Y86961D01*
X260684Y86858D01*
X260691Y86839D01*
X260692Y86819D01*
X260733Y86724D01*
X260768Y86627D01*
X260781Y86611D01*
X260789Y86593D01*
X260861Y86502D01*
X260867Y86492D01*
X260874Y86486D01*
X260894Y86462D01*
X262787Y84569D01*
X262787Y81431D01*
X260894Y79538D01*
X260882Y79522D01*
X260866Y79510D01*
X260810Y79422D01*
X260750Y79339D01*
X260744Y79320D01*
X260733Y79303D01*
X260708Y79202D01*
X260678Y79103D01*
X260678Y79084D01*
X260673Y79064D01*
X260681Y78961D01*
X260684Y78858D01*
X260691Y78839D01*
X260692Y78819D01*
X260733Y78724D01*
X260768Y78627D01*
X260781Y78611D01*
X260789Y78593D01*
X260894Y78462D01*
X262787Y76569D01*
X262787Y73431D01*
X260569Y71213D01*
X257431Y71213D01*
G37*
%LPD*%
%LPC*%
G36*
X257431Y103213D02*
X257431Y103213D01*
X255213Y105431D01*
X255213Y108569D01*
X256606Y109962D01*
X256618Y109978D01*
X256634Y109990D01*
X256690Y110078D01*
X256750Y110161D01*
X256756Y110180D01*
X256767Y110197D01*
X256792Y110298D01*
X256822Y110397D01*
X256822Y110416D01*
X256827Y110436D01*
X256819Y110539D01*
X256816Y110642D01*
X256809Y110661D01*
X256808Y110681D01*
X256767Y110776D01*
X256732Y110873D01*
X256719Y110889D01*
X256711Y110907D01*
X256606Y111038D01*
X255213Y112431D01*
X255213Y115569D01*
X257106Y117462D01*
X257118Y117478D01*
X257134Y117490D01*
X257190Y117578D01*
X257250Y117661D01*
X257256Y117680D01*
X257267Y117697D01*
X257292Y117798D01*
X257322Y117897D01*
X257322Y117916D01*
X257327Y117936D01*
X257319Y118039D01*
X257316Y118142D01*
X257309Y118161D01*
X257308Y118181D01*
X257267Y118276D01*
X257232Y118373D01*
X257219Y118389D01*
X257211Y118407D01*
X257106Y118538D01*
X255213Y120431D01*
X255213Y123569D01*
X257431Y125787D01*
X260569Y125787D01*
X262787Y123569D01*
X262787Y120431D01*
X260894Y118538D01*
X260882Y118522D01*
X260866Y118510D01*
X260810Y118422D01*
X260750Y118339D01*
X260744Y118320D01*
X260733Y118303D01*
X260708Y118202D01*
X260678Y118103D01*
X260678Y118084D01*
X260673Y118064D01*
X260681Y117961D01*
X260684Y117858D01*
X260691Y117839D01*
X260692Y117819D01*
X260733Y117724D01*
X260768Y117627D01*
X260781Y117611D01*
X260789Y117593D01*
X260894Y117462D01*
X262787Y115569D01*
X262787Y112431D01*
X261394Y111038D01*
X261382Y111022D01*
X261366Y111010D01*
X261310Y110922D01*
X261250Y110839D01*
X261244Y110820D01*
X261233Y110803D01*
X261208Y110702D01*
X261178Y110603D01*
X261178Y110584D01*
X261173Y110564D01*
X261181Y110461D01*
X261184Y110358D01*
X261191Y110339D01*
X261192Y110319D01*
X261233Y110224D01*
X261268Y110127D01*
X261281Y110111D01*
X261289Y110093D01*
X261394Y109962D01*
X262787Y108569D01*
X262787Y105431D01*
X260569Y103213D01*
X257431Y103213D01*
G37*
%LPD*%
%LPC*%
G36*
X37431Y103213D02*
X37431Y103213D01*
X35213Y105431D01*
X35213Y108569D01*
X37106Y110462D01*
X37118Y110478D01*
X37134Y110490D01*
X37190Y110578D01*
X37250Y110661D01*
X37256Y110680D01*
X37267Y110697D01*
X37292Y110798D01*
X37322Y110897D01*
X37322Y110916D01*
X37327Y110936D01*
X37319Y111039D01*
X37316Y111142D01*
X37309Y111161D01*
X37308Y111181D01*
X37267Y111276D01*
X37232Y111373D01*
X37219Y111389D01*
X37211Y111407D01*
X37106Y111538D01*
X35213Y113431D01*
X35213Y116569D01*
X36606Y117962D01*
X36618Y117978D01*
X36634Y117990D01*
X36690Y118078D01*
X36750Y118161D01*
X36756Y118180D01*
X36767Y118197D01*
X36792Y118298D01*
X36822Y118397D01*
X36822Y118416D01*
X36827Y118436D01*
X36819Y118539D01*
X36816Y118642D01*
X36809Y118661D01*
X36808Y118681D01*
X36767Y118776D01*
X36732Y118873D01*
X36719Y118889D01*
X36711Y118907D01*
X36606Y119038D01*
X35213Y120431D01*
X35213Y123569D01*
X37431Y125787D01*
X40569Y125787D01*
X42787Y123569D01*
X42787Y120431D01*
X41394Y119038D01*
X41382Y119022D01*
X41366Y119010D01*
X41310Y118922D01*
X41250Y118839D01*
X41244Y118820D01*
X41233Y118803D01*
X41208Y118702D01*
X41178Y118603D01*
X41178Y118584D01*
X41173Y118564D01*
X41181Y118461D01*
X41184Y118358D01*
X41191Y118339D01*
X41192Y118319D01*
X41233Y118224D01*
X41268Y118127D01*
X41281Y118111D01*
X41289Y118093D01*
X41394Y117962D01*
X42787Y116569D01*
X42787Y113431D01*
X40894Y111538D01*
X40882Y111522D01*
X40866Y111510D01*
X40810Y111422D01*
X40750Y111339D01*
X40744Y111320D01*
X40733Y111303D01*
X40708Y111202D01*
X40678Y111103D01*
X40678Y111084D01*
X40673Y111064D01*
X40681Y110961D01*
X40684Y110858D01*
X40691Y110839D01*
X40692Y110819D01*
X40733Y110724D01*
X40768Y110627D01*
X40781Y110611D01*
X40789Y110593D01*
X40894Y110462D01*
X42787Y108569D01*
X42787Y105431D01*
X40569Y103213D01*
X37431Y103213D01*
G37*
%LPD*%
%LPC*%
G36*
X37431Y72213D02*
X37431Y72213D01*
X35213Y74431D01*
X35213Y77569D01*
X36606Y78962D01*
X36618Y78978D01*
X36634Y78990D01*
X36690Y79078D01*
X36750Y79161D01*
X36756Y79180D01*
X36767Y79197D01*
X36792Y79298D01*
X36822Y79397D01*
X36822Y79416D01*
X36827Y79436D01*
X36819Y79539D01*
X36816Y79642D01*
X36809Y79661D01*
X36808Y79681D01*
X36767Y79776D01*
X36732Y79873D01*
X36719Y79889D01*
X36711Y79907D01*
X36606Y80038D01*
X35213Y81431D01*
X35213Y84569D01*
X37106Y86462D01*
X37118Y86478D01*
X37134Y86490D01*
X37164Y86537D01*
X37180Y86555D01*
X37193Y86583D01*
X37250Y86661D01*
X37256Y86680D01*
X37267Y86697D01*
X37292Y86798D01*
X37322Y86897D01*
X37322Y86916D01*
X37327Y86936D01*
X37319Y87039D01*
X37316Y87142D01*
X37309Y87161D01*
X37308Y87181D01*
X37267Y87276D01*
X37232Y87373D01*
X37219Y87389D01*
X37211Y87407D01*
X37106Y87538D01*
X35213Y89431D01*
X35213Y92569D01*
X37431Y94787D01*
X40569Y94787D01*
X42787Y92569D01*
X42787Y89431D01*
X40894Y87538D01*
X40882Y87522D01*
X40866Y87510D01*
X40810Y87422D01*
X40750Y87339D01*
X40744Y87320D01*
X40733Y87303D01*
X40708Y87202D01*
X40678Y87103D01*
X40678Y87084D01*
X40673Y87064D01*
X40681Y86961D01*
X40684Y86858D01*
X40691Y86839D01*
X40692Y86819D01*
X40733Y86724D01*
X40768Y86627D01*
X40781Y86611D01*
X40789Y86593D01*
X40861Y86502D01*
X40867Y86492D01*
X40874Y86486D01*
X40894Y86462D01*
X42787Y84569D01*
X42787Y81431D01*
X41394Y80038D01*
X41382Y80022D01*
X41366Y80010D01*
X41310Y79922D01*
X41250Y79839D01*
X41244Y79820D01*
X41233Y79803D01*
X41208Y79702D01*
X41178Y79603D01*
X41178Y79584D01*
X41173Y79564D01*
X41181Y79461D01*
X41184Y79358D01*
X41191Y79339D01*
X41192Y79319D01*
X41233Y79224D01*
X41268Y79127D01*
X41281Y79111D01*
X41289Y79093D01*
X41394Y78962D01*
X42787Y77569D01*
X42787Y74431D01*
X40569Y72213D01*
X37431Y72213D01*
G37*
%LPD*%
%LPC*%
G36*
X103916Y195948D02*
X103916Y195948D01*
X101832Y198032D01*
X101832Y198342D01*
X101829Y198361D01*
X101831Y198381D01*
X101809Y198482D01*
X101793Y198584D01*
X101783Y198602D01*
X101779Y198621D01*
X101726Y198710D01*
X101677Y198802D01*
X101663Y198815D01*
X101653Y198832D01*
X101574Y198900D01*
X101499Y198971D01*
X101481Y198979D01*
X101466Y198992D01*
X101370Y199031D01*
X101276Y199075D01*
X101256Y199077D01*
X101238Y199084D01*
X101071Y199103D01*
X99331Y199103D01*
X97248Y201186D01*
X97248Y204133D01*
X99331Y206216D01*
X101129Y206216D01*
X101148Y206219D01*
X101168Y206217D01*
X101269Y206239D01*
X101371Y206256D01*
X101389Y206265D01*
X101408Y206270D01*
X101497Y206323D01*
X101589Y206371D01*
X101602Y206386D01*
X101619Y206396D01*
X101687Y206474D01*
X101758Y206549D01*
X101766Y206567D01*
X101779Y206583D01*
X101818Y206679D01*
X101862Y206773D01*
X101864Y206792D01*
X101871Y206811D01*
X101890Y206978D01*
X101890Y207994D01*
X103973Y210078D01*
X106920Y210078D01*
X109003Y207994D01*
X109003Y205048D01*
X107478Y203522D01*
X107466Y203506D01*
X107451Y203494D01*
X107395Y203407D01*
X107335Y203323D01*
X107329Y203304D01*
X107318Y203287D01*
X107292Y203186D01*
X107262Y203088D01*
X107263Y203068D01*
X107258Y203048D01*
X107266Y202945D01*
X107269Y202842D01*
X107275Y202823D01*
X107277Y202803D01*
X107317Y202708D01*
X107353Y202611D01*
X107365Y202595D01*
X107373Y202577D01*
X107478Y202446D01*
X108946Y200978D01*
X108946Y198032D01*
X106862Y195948D01*
X103916Y195948D01*
G37*
%LPD*%
%LPC*%
G36*
X71916Y191948D02*
X71916Y191948D01*
X69832Y194032D01*
X69832Y196978D01*
X70321Y197467D01*
X70332Y197483D01*
X70348Y197495D01*
X70404Y197583D01*
X70464Y197666D01*
X70470Y197685D01*
X70481Y197702D01*
X70506Y197803D01*
X70537Y197902D01*
X70536Y197921D01*
X70541Y197941D01*
X70533Y198044D01*
X70530Y198147D01*
X70523Y198166D01*
X70522Y198186D01*
X70481Y198281D01*
X70446Y198378D01*
X70433Y198394D01*
X70426Y198412D01*
X70321Y198543D01*
X69832Y199032D01*
X69832Y201978D01*
X70321Y202467D01*
X70332Y202483D01*
X70348Y202495D01*
X70404Y202583D01*
X70464Y202666D01*
X70470Y202685D01*
X70481Y202702D01*
X70506Y202803D01*
X70537Y202902D01*
X70536Y202921D01*
X70541Y202941D01*
X70533Y203044D01*
X70530Y203147D01*
X70523Y203166D01*
X70522Y203186D01*
X70481Y203281D01*
X70446Y203378D01*
X70433Y203394D01*
X70426Y203412D01*
X70321Y203543D01*
X69832Y204032D01*
X69832Y206978D01*
X71916Y209062D01*
X74862Y209062D01*
X76946Y206978D01*
X76946Y204032D01*
X76457Y203543D01*
X76446Y203527D01*
X76430Y203515D01*
X76374Y203427D01*
X76314Y203344D01*
X76308Y203325D01*
X76297Y203308D01*
X76272Y203207D01*
X76241Y203108D01*
X76242Y203089D01*
X76237Y203069D01*
X76245Y202966D01*
X76248Y202863D01*
X76255Y202844D01*
X76256Y202824D01*
X76297Y202729D01*
X76332Y202632D01*
X76345Y202616D01*
X76352Y202598D01*
X76457Y202467D01*
X76946Y201978D01*
X76946Y199032D01*
X76457Y198543D01*
X76446Y198527D01*
X76430Y198515D01*
X76374Y198427D01*
X76314Y198344D01*
X76308Y198325D01*
X76297Y198308D01*
X76272Y198207D01*
X76241Y198108D01*
X76242Y198089D01*
X76237Y198069D01*
X76245Y197966D01*
X76248Y197863D01*
X76255Y197844D01*
X76256Y197824D01*
X76297Y197729D01*
X76332Y197632D01*
X76345Y197616D01*
X76352Y197598D01*
X76457Y197467D01*
X76946Y196978D01*
X76946Y194032D01*
X74862Y191948D01*
X71916Y191948D01*
G37*
%LPD*%
%LPC*%
G36*
X177054Y228606D02*
X177054Y228606D01*
X174971Y230690D01*
X174971Y233778D01*
X174973Y233789D01*
X175004Y233888D01*
X175003Y233908D01*
X175008Y233927D01*
X175000Y234030D01*
X174998Y234134D01*
X174991Y234153D01*
X174989Y234173D01*
X174949Y234267D01*
X174913Y234365D01*
X174901Y234380D01*
X174893Y234399D01*
X174788Y234530D01*
X173774Y235544D01*
X173774Y238491D01*
X175857Y240574D01*
X178804Y240574D01*
X181039Y238339D01*
X181042Y238333D01*
X181056Y238320D01*
X181067Y238303D01*
X181145Y238235D01*
X181220Y238164D01*
X181238Y238156D01*
X181253Y238143D01*
X181350Y238104D01*
X181443Y238060D01*
X181463Y238058D01*
X181482Y238051D01*
X181648Y238032D01*
X184204Y238032D01*
X186287Y235949D01*
X186287Y233002D01*
X184204Y230919D01*
X182629Y230919D01*
X182539Y230904D01*
X182448Y230897D01*
X182418Y230884D01*
X182386Y230879D01*
X182305Y230836D01*
X182221Y230801D01*
X182189Y230775D01*
X182169Y230764D01*
X182146Y230741D01*
X182091Y230696D01*
X180001Y228606D01*
X177054Y228606D01*
G37*
%LPD*%
%LPC*%
G36*
X208542Y231479D02*
X208542Y231479D01*
X206479Y233542D01*
X206479Y236458D01*
X208542Y238521D01*
X211718Y238521D01*
X211738Y238524D01*
X211757Y238522D01*
X211859Y238544D01*
X211961Y238560D01*
X211978Y238570D01*
X211998Y238574D01*
X212087Y238627D01*
X212178Y238676D01*
X212192Y238690D01*
X212209Y238700D01*
X212276Y238779D01*
X212348Y238854D01*
X212356Y238872D01*
X212369Y238887D01*
X212408Y238983D01*
X212451Y239077D01*
X212453Y239097D01*
X212461Y239115D01*
X212479Y239282D01*
X212479Y240458D01*
X214542Y242521D01*
X217458Y242521D01*
X219521Y240458D01*
X219521Y237542D01*
X217458Y235479D01*
X214282Y235479D01*
X214262Y235476D01*
X214243Y235478D01*
X214141Y235456D01*
X214039Y235440D01*
X214022Y235430D01*
X214002Y235426D01*
X213913Y235373D01*
X213822Y235324D01*
X213808Y235310D01*
X213791Y235300D01*
X213724Y235221D01*
X213652Y235146D01*
X213644Y235128D01*
X213631Y235113D01*
X213592Y235016D01*
X213549Y234923D01*
X213547Y234903D01*
X213539Y234885D01*
X213521Y234718D01*
X213521Y233542D01*
X211458Y231479D01*
X208542Y231479D01*
G37*
%LPD*%
%LPC*%
G36*
X187875Y203419D02*
X187875Y203419D01*
X185792Y205503D01*
X185792Y208449D01*
X187875Y210533D01*
X190822Y210533D01*
X191310Y210044D01*
X191326Y210033D01*
X191339Y210017D01*
X191426Y209961D01*
X191510Y209901D01*
X191529Y209895D01*
X191546Y209884D01*
X191646Y209859D01*
X191745Y209828D01*
X191765Y209829D01*
X191784Y209824D01*
X191887Y209832D01*
X191991Y209835D01*
X192009Y209842D01*
X192029Y209843D01*
X192124Y209883D01*
X192222Y209919D01*
X192237Y209932D01*
X192256Y209939D01*
X192387Y210044D01*
X192875Y210533D01*
X195822Y210533D01*
X197905Y208449D01*
X197905Y205503D01*
X195822Y203419D01*
X192875Y203419D01*
X192387Y203908D01*
X192370Y203919D01*
X192358Y203935D01*
X192271Y203991D01*
X192187Y204051D01*
X192168Y204057D01*
X192151Y204068D01*
X192051Y204093D01*
X191952Y204124D01*
X191932Y204123D01*
X191912Y204128D01*
X191810Y204120D01*
X191706Y204117D01*
X191687Y204110D01*
X191667Y204109D01*
X191572Y204068D01*
X191475Y204033D01*
X191459Y204020D01*
X191441Y204012D01*
X191310Y203908D01*
X190822Y203419D01*
X187875Y203419D01*
G37*
%LPD*%
%LPC*%
G36*
X137392Y196768D02*
X137392Y196768D01*
X135309Y198852D01*
X135309Y201798D01*
X135748Y202238D01*
X135760Y202254D01*
X135775Y202266D01*
X135831Y202353D01*
X135891Y202437D01*
X135897Y202457D01*
X135908Y202473D01*
X135933Y202574D01*
X135964Y202673D01*
X135963Y202692D01*
X135968Y202712D01*
X135960Y202815D01*
X135957Y202918D01*
X135951Y202937D01*
X135949Y202957D01*
X135909Y203052D01*
X135873Y203149D01*
X135861Y203165D01*
X135853Y203183D01*
X135748Y203314D01*
X135242Y203820D01*
X135242Y206767D01*
X137326Y208850D01*
X140272Y208850D01*
X142356Y206767D01*
X142356Y203820D01*
X141916Y203381D01*
X141905Y203365D01*
X141889Y203352D01*
X141833Y203265D01*
X141773Y203181D01*
X141767Y203162D01*
X141756Y203145D01*
X141731Y203045D01*
X141700Y202946D01*
X141701Y202926D01*
X141696Y202907D01*
X141704Y202804D01*
X141707Y202700D01*
X141714Y202681D01*
X141715Y202662D01*
X141756Y202567D01*
X141791Y202469D01*
X141804Y202453D01*
X141811Y202435D01*
X141916Y202304D01*
X142422Y201798D01*
X142422Y198852D01*
X140339Y196768D01*
X137392Y196768D01*
G37*
%LPD*%
%LPC*%
G36*
X182718Y315089D02*
X182718Y315089D01*
X180634Y317173D01*
X180634Y320119D01*
X182718Y322203D01*
X185664Y322203D01*
X187748Y320119D01*
X187748Y317173D01*
X185664Y315089D01*
X182718Y315089D01*
G37*
%LPD*%
%LPC*%
G36*
X191822Y280809D02*
X191822Y280809D01*
X189739Y282892D01*
X189739Y285839D01*
X191822Y287922D01*
X194769Y287922D01*
X196852Y285839D01*
X196852Y282892D01*
X194769Y280809D01*
X191822Y280809D01*
G37*
%LPD*%
%LPC*%
G36*
X90446Y305854D02*
X90446Y305854D01*
X88374Y307926D01*
X88374Y310856D01*
X90446Y312928D01*
X93376Y312928D01*
X95448Y310856D01*
X95448Y307926D01*
X93376Y305854D01*
X90446Y305854D01*
G37*
%LPD*%
%LPC*%
G36*
X22542Y315479D02*
X22542Y315479D01*
X20479Y317542D01*
X20479Y320458D01*
X22542Y322521D01*
X25458Y322521D01*
X27521Y320458D01*
X27521Y317542D01*
X25458Y315479D01*
X22542Y315479D01*
G37*
%LPD*%
%LPC*%
G36*
X22542Y303479D02*
X22542Y303479D01*
X20479Y305542D01*
X20479Y308458D01*
X22542Y310521D01*
X25458Y310521D01*
X27521Y308458D01*
X27521Y305542D01*
X25458Y303479D01*
X22542Y303479D01*
G37*
%LPD*%
%LPC*%
G36*
X22542Y252479D02*
X22542Y252479D01*
X20479Y254542D01*
X20479Y257458D01*
X22542Y259521D01*
X25458Y259521D01*
X27521Y257458D01*
X27521Y254542D01*
X25458Y252479D01*
X22542Y252479D01*
G37*
%LPD*%
D10*
X64942Y304939D03*
X64942Y249059D03*
X103042Y304939D03*
X103042Y249059D03*
X232416Y249068D03*
X232416Y304948D03*
X194316Y249068D03*
X194316Y304948D03*
X63942Y171190D03*
X63942Y115310D03*
X102042Y171190D03*
X102042Y115310D03*
X194196Y171518D03*
X194196Y115638D03*
X232296Y171518D03*
X232296Y115638D03*
D11*
X123258Y352398D02*
X120558Y352398D01*
X123258Y352398D02*
X123258Y349098D01*
X120558Y349098D01*
X120558Y352398D01*
X120558Y351663D02*
X123258Y351663D01*
X114618Y352398D02*
X111918Y352398D01*
X114618Y352398D02*
X114618Y349098D01*
X111918Y349098D01*
X111918Y352398D01*
X111918Y351663D02*
X114618Y351663D01*
D12*
X155366Y354756D02*
X155366Y347756D01*
X148366Y347756D01*
X148366Y354756D01*
X155366Y354756D01*
X155366Y350606D02*
X148366Y350606D01*
X148366Y353456D02*
X155366Y353456D01*
X137826Y354756D02*
X137826Y347756D01*
X130826Y347756D01*
X130826Y354756D01*
X137826Y354756D01*
X137826Y350606D02*
X130826Y350606D01*
X130826Y353456D02*
X137826Y353456D01*
D13*
X193296Y284365D03*
X184191Y318646D03*
X138865Y200325D03*
X138799Y205293D03*
X87150Y230905D03*
X178528Y232163D03*
X182731Y234476D03*
X190987Y261131D03*
X92328Y230954D03*
D14*
X91911Y309391D03*
X83116Y265749D03*
D13*
X177330Y237018D03*
X123423Y287706D03*
X136758Y276117D03*
X123423Y265036D03*
X123423Y276371D03*
X136758Y287706D03*
X150093Y287706D03*
X150093Y276371D03*
X150093Y265036D03*
X136758Y265036D03*
X113009Y265036D03*
X112882Y275990D03*
X113009Y287706D03*
X160634Y264909D03*
X160634Y276371D03*
X160581Y287714D03*
X113009Y253036D03*
X123423Y253036D03*
X136702Y253176D03*
X150093Y253120D03*
X160593Y253071D03*
X113009Y299706D03*
X123423Y299706D03*
X136758Y299706D03*
X150093Y299706D03*
X160581Y299714D03*
D15*
X184500Y294500D03*
X212500Y309500D03*
D16*
X12714Y363153D03*
X21381Y363000D03*
X30762Y363000D03*
X40143Y363000D03*
X58905Y363000D03*
X68286Y363000D03*
X77667Y363000D03*
X87048Y363000D03*
X96429Y363000D03*
X105810Y363000D03*
X115191Y363000D03*
X124572Y363000D03*
X133953Y363000D03*
X143334Y363000D03*
X152715Y363000D03*
X162096Y363000D03*
X210874Y363000D03*
X217255Y363000D03*
X224636Y363000D03*
X234017Y363000D03*
X243398Y363000D03*
X252779Y363000D03*
X262160Y363000D03*
X271541Y363000D03*
X280922Y363000D03*
X12170Y353747D03*
X11634Y344055D03*
X11238Y334984D03*
X10455Y325170D03*
X9847Y316022D03*
X9490Y306890D03*
X8873Y297333D03*
X8873Y287952D03*
X8873Y278571D03*
X8873Y269190D03*
X8873Y259809D03*
X8873Y250428D03*
X8873Y241047D03*
X8873Y231666D03*
X8873Y222285D03*
X8873Y212904D03*
X8873Y184761D03*
X8873Y175380D03*
X8873Y165999D03*
X8873Y97205D03*
X8873Y87824D03*
X8873Y78443D03*
X8873Y69062D03*
X8873Y59681D03*
X8873Y50300D03*
X8873Y40919D03*
X8873Y31538D03*
X8873Y22157D03*
X8873Y12776D03*
X15127Y9649D03*
X24508Y9649D03*
X33889Y9649D03*
X43270Y9649D03*
X52651Y9649D03*
X62032Y9649D03*
X71413Y9649D03*
X80794Y9649D03*
X90175Y9649D03*
X99556Y9649D03*
X108937Y9649D03*
X118318Y9649D03*
X127699Y9649D03*
X137080Y9649D03*
X146461Y9649D03*
X155842Y9649D03*
X165223Y9649D03*
X174604Y9649D03*
X183985Y9649D03*
X193366Y9649D03*
X202747Y9649D03*
X212128Y9649D03*
X221509Y9649D03*
X230890Y9649D03*
X240271Y9649D03*
X249652Y9649D03*
X259033Y9649D03*
X268414Y9649D03*
X277795Y9649D03*
X287176Y9649D03*
X287176Y19030D03*
X287176Y28411D03*
X287176Y37792D03*
X287176Y47173D03*
X287176Y56554D03*
X287176Y65935D03*
X287176Y75316D03*
X287176Y84697D03*
X287176Y94078D03*
X287176Y103459D03*
X287176Y112840D03*
X287176Y122221D03*
X287176Y131602D03*
X287176Y140983D03*
X287176Y150364D03*
X287176Y159745D03*
X287176Y169126D03*
X287176Y178507D03*
X287176Y187888D03*
X287176Y197269D03*
X287176Y206650D03*
X287176Y216031D03*
X287176Y225412D03*
X287176Y234793D03*
X287176Y244174D03*
X287176Y253555D03*
X287176Y262936D03*
X287176Y272317D03*
X287176Y281698D03*
X287176Y291079D03*
X286176Y300460D03*
X286176Y309841D03*
X285176Y319222D03*
X284049Y328603D03*
X284049Y337984D03*
X283049Y347365D03*
X282049Y355746D03*
X199985Y365000D03*
X8873Y106586D03*
X8873Y115967D03*
X8873Y125348D03*
X8873Y134729D03*
X8873Y144110D03*
X8873Y153491D03*
X8873Y203523D03*
X8873Y194142D03*
D15*
X152000Y325000D03*
X152000Y331000D03*
X152000Y339000D03*
X157000Y343000D03*
X162000Y347000D03*
X165746Y351242D03*
X170353Y356392D03*
X172134Y363258D03*
X172000Y328000D03*
X172000Y334000D03*
X174000Y340000D03*
X180736Y345370D03*
X186231Y348463D03*
X186190Y356508D03*
X119000Y338000D03*
X118000Y344000D03*
X125000Y343000D03*
X132000Y342000D03*
X139000Y342000D03*
X146000Y342000D03*
X27000Y348000D03*
X47000Y336000D03*
X35000Y331000D03*
X63000Y345000D03*
X49000Y345000D03*
X26000Y333000D03*
X51000Y327000D03*
X237000Y344000D03*
X253000Y325000D03*
X233000Y326000D03*
X257000Y343000D03*
X272000Y352000D03*
X248000Y352000D03*
X230000Y353000D03*
X269000Y308000D03*
X270000Y329000D03*
X253000Y313000D03*
X277000Y271000D03*
X269000Y280000D03*
X224000Y316000D03*
X264000Y260000D03*
X277000Y246000D03*
X264000Y247000D03*
X266000Y233000D03*
X250000Y235000D03*
X231000Y232000D03*
X250000Y251000D03*
X227000Y290000D03*
X228000Y275000D03*
X207000Y284000D03*
X183000Y312000D03*
X209000Y318000D03*
X57000Y233000D03*
X72000Y230000D03*
X59000Y201000D03*
X40000Y351000D03*
X63000Y355000D03*
X55000Y350000D03*
X21000Y355000D03*
X21000Y341000D03*
X37000Y341000D03*
X58000Y338000D03*
X61000Y327000D03*
X60000Y318000D03*
X246000Y333000D03*
X229000Y334000D03*
X226000Y343000D03*
X271000Y342000D03*
X277000Y317000D03*
X265000Y321000D03*
X264000Y297000D03*
X278000Y298000D03*
X262000Y333000D03*
X263000Y354000D03*
X245000Y308000D03*
X203000Y346000D03*
X210701Y353773D03*
X211000Y336000D03*
X189117Y343506D03*
X183000Y334000D03*
X197617Y332520D03*
X201955Y354954D03*
X193508Y352238D03*
X211000Y344000D03*
X196872Y344193D03*
X217000Y352000D03*
X222000Y331000D03*
X214000Y328000D03*
X223000Y354000D03*
X241000Y320000D03*
X275000Y213000D03*
X263000Y209000D03*
X261000Y220000D03*
X224000Y208000D03*
X42444Y322245D03*
X50909Y316263D03*
D13*
X24009Y269036D03*
D16*
X190241Y363115D03*
D15*
X185054Y363105D03*
X247372Y344076D03*
X203053Y337709D03*
X49697Y360861D03*
X74444Y293245D03*
X92444Y294245D03*
X89444Y276245D03*
X83444Y293245D03*
X77444Y279245D03*
X193061Y335915D03*
X73000Y319000D03*
X83000Y319000D03*
X94000Y318000D03*
X152000Y318000D03*
X146000Y318000D03*
X140000Y318000D03*
X134000Y318000D03*
X134000Y324000D03*
X133000Y330000D03*
X129000Y334000D03*
X124000Y337000D03*
D13*
X105389Y199505D03*
D15*
X210000Y235000D03*
X216000Y239000D03*
D13*
X73389Y195505D03*
X73389Y200505D03*
X73389Y205505D03*
X189348Y206976D03*
X194348Y206976D03*
D15*
X24000Y256000D03*
D13*
X100805Y202660D03*
X105447Y206521D03*
D15*
X24000Y307000D03*
X24000Y319000D03*
X115000Y319000D03*
D17*
X103042Y317042D02*
X103042Y304939D01*
X103042Y317042D02*
X105000Y319000D01*
X115000Y319000D01*
X103042Y304939D02*
X103042Y290042D01*
X98492Y285492D02*
X56005Y285492D01*
X98492Y285492D02*
X103042Y290042D01*
D15*
X56005Y285492D03*
X110000Y232000D03*
X24000Y294000D03*
D17*
X102000Y232000D02*
X110000Y232000D01*
X77000Y257000D02*
X77000Y272000D01*
X73000Y276000D01*
X31000Y294000D02*
X24000Y294000D01*
X77000Y257000D02*
X102000Y232000D01*
X73000Y276000D02*
X49000Y276000D01*
X31000Y294000D01*
D15*
X115000Y227000D03*
X24000Y281000D03*
D17*
X107000Y227000D02*
X115000Y227000D01*
X107000Y227000D02*
X104794Y229206D01*
X100843Y229206D01*
X74206Y270000D02*
X71603Y272603D01*
X71000Y273206D01*
X74206Y255843D02*
X100843Y229206D01*
X74206Y255843D02*
X74206Y270000D01*
X71603Y272603D02*
X48446Y272603D01*
X40024Y281024D01*
X24024Y281024D01*
X24000Y281000D01*
D15*
X122000Y233000D03*
D17*
X102042Y184042D02*
X102042Y171190D01*
X106000Y188000D02*
X117000Y188000D01*
X124000Y195000D01*
X106000Y188000D02*
X102042Y184042D01*
X124000Y230000D02*
X122000Y232000D01*
X122000Y233000D01*
X124000Y230000D02*
X124000Y195000D01*
X121842Y171190D02*
X102042Y171190D01*
X121842Y171190D02*
X135858Y185206D01*
X207662Y185206D02*
X217482Y175385D01*
X217482Y149502D01*
X224878Y142107D01*
X271412Y142107D01*
X207662Y185206D02*
X135858Y185206D01*
D15*
X275000Y153000D03*
D17*
X275000Y145695D01*
X271412Y142107D01*
D15*
X129000Y233000D03*
D17*
X127000Y231000D01*
X127000Y195370D01*
X232296Y183704D02*
X232296Y171518D01*
X134370Y188000D02*
X127000Y195370D01*
X134370Y188000D02*
X228000Y188000D01*
X232296Y183704D01*
X232296Y171518D02*
X232296Y160704D01*
X233000Y160000D01*
D15*
X233000Y160000D03*
X140000Y233000D03*
D17*
X140000Y239000D01*
X146794Y245794D01*
X173794Y245794D02*
X177000Y249000D01*
X194248Y249000D02*
X194316Y249068D01*
X194248Y249000D02*
X177000Y249000D01*
X173794Y245794D02*
X146794Y245794D01*
X194316Y249068D02*
X210068Y249068D01*
X219000Y258000D02*
X219000Y264000D01*
X223000Y268000D01*
X236000Y268000D01*
X219000Y258000D02*
X210068Y249068D01*
D15*
X236000Y268000D03*
X119712Y323230D03*
D17*
X113268Y336732D02*
X113268Y350748D01*
X119712Y330288D02*
X119712Y323230D01*
X119712Y330288D02*
X113268Y336732D01*
D16*
X39000Y122000D03*
X39000Y115000D03*
X39000Y107000D03*
D17*
X133908Y350838D02*
X134326Y351256D01*
X122416Y351256D02*
X121908Y350748D01*
X122416Y351256D02*
X134326Y351256D01*
D16*
X39000Y91000D03*
X39000Y83000D03*
X39000Y76000D03*
X259000Y122000D03*
X259000Y107000D03*
X259000Y114000D03*
X259000Y91000D03*
X259000Y83000D03*
X259000Y75000D03*
M02*
