G04 EAGLE Gerber RS-274X export*
G75*
%MOMM*%
%FSLAX34Y34*%
%LPD*%
%INSilkscreen Bottom*%
%IPPOS*%
%AMOC8*
5,1,8,0,0,1.08239X$1,22.5*%
G01*
%ADD10C,0.203200*%
%ADD11C,0.152400*%
%ADD12C,0.050800*%
%ADD13C,0.127000*%


D10*
X96392Y302399D02*
X71292Y302399D01*
X58592Y292399D02*
X58592Y261599D01*
X71592Y251599D02*
X96392Y251599D01*
X109392Y261599D02*
X109392Y292399D01*
X71292Y276999D02*
X71296Y277311D01*
X71307Y277622D01*
X71326Y277933D01*
X71353Y278244D01*
X71388Y278554D01*
X71429Y278862D01*
X71479Y279170D01*
X71536Y279477D01*
X71601Y279782D01*
X71673Y280085D01*
X71752Y280386D01*
X71839Y280686D01*
X71933Y280983D01*
X72034Y281278D01*
X72143Y281570D01*
X72259Y281859D01*
X72382Y282146D01*
X72511Y282429D01*
X72648Y282709D01*
X72792Y282986D01*
X72942Y283259D01*
X73099Y283528D01*
X73262Y283793D01*
X73432Y284055D01*
X73609Y284312D01*
X73791Y284564D01*
X73980Y284812D01*
X74175Y285056D01*
X74375Y285294D01*
X74582Y285528D01*
X74794Y285756D01*
X75012Y285979D01*
X75235Y286197D01*
X75463Y286409D01*
X75697Y286616D01*
X75935Y286816D01*
X76179Y287011D01*
X76427Y287200D01*
X76679Y287382D01*
X76936Y287559D01*
X77198Y287729D01*
X77463Y287892D01*
X77732Y288049D01*
X78005Y288199D01*
X78282Y288343D01*
X78562Y288480D01*
X78845Y288609D01*
X79132Y288732D01*
X79421Y288848D01*
X79713Y288957D01*
X80008Y289058D01*
X80305Y289152D01*
X80605Y289239D01*
X80906Y289318D01*
X81209Y289390D01*
X81514Y289455D01*
X81821Y289512D01*
X82129Y289562D01*
X82437Y289603D01*
X82747Y289638D01*
X83058Y289665D01*
X83369Y289684D01*
X83680Y289695D01*
X83992Y289699D01*
X84304Y289695D01*
X84615Y289684D01*
X84926Y289665D01*
X85237Y289638D01*
X85547Y289603D01*
X85855Y289562D01*
X86163Y289512D01*
X86470Y289455D01*
X86775Y289390D01*
X87078Y289318D01*
X87379Y289239D01*
X87679Y289152D01*
X87976Y289058D01*
X88271Y288957D01*
X88563Y288848D01*
X88852Y288732D01*
X89139Y288609D01*
X89422Y288480D01*
X89702Y288343D01*
X89979Y288199D01*
X90252Y288049D01*
X90521Y287892D01*
X90786Y287729D01*
X91048Y287559D01*
X91305Y287382D01*
X91557Y287200D01*
X91805Y287011D01*
X92049Y286816D01*
X92287Y286616D01*
X92521Y286409D01*
X92749Y286197D01*
X92972Y285979D01*
X93190Y285756D01*
X93402Y285528D01*
X93609Y285294D01*
X93809Y285056D01*
X94004Y284812D01*
X94193Y284564D01*
X94375Y284312D01*
X94552Y284055D01*
X94722Y283793D01*
X94885Y283528D01*
X95042Y283259D01*
X95192Y282986D01*
X95336Y282709D01*
X95473Y282429D01*
X95602Y282146D01*
X95725Y281859D01*
X95841Y281570D01*
X95950Y281278D01*
X96051Y280983D01*
X96145Y280686D01*
X96232Y280386D01*
X96311Y280085D01*
X96383Y279782D01*
X96448Y279477D01*
X96505Y279170D01*
X96555Y278862D01*
X96596Y278554D01*
X96631Y278244D01*
X96658Y277933D01*
X96677Y277622D01*
X96688Y277311D01*
X96692Y276999D01*
X96688Y276687D01*
X96677Y276376D01*
X96658Y276065D01*
X96631Y275754D01*
X96596Y275444D01*
X96555Y275136D01*
X96505Y274828D01*
X96448Y274521D01*
X96383Y274216D01*
X96311Y273913D01*
X96232Y273612D01*
X96145Y273312D01*
X96051Y273015D01*
X95950Y272720D01*
X95841Y272428D01*
X95725Y272139D01*
X95602Y271852D01*
X95473Y271569D01*
X95336Y271289D01*
X95192Y271012D01*
X95042Y270739D01*
X94885Y270470D01*
X94722Y270205D01*
X94552Y269943D01*
X94375Y269686D01*
X94193Y269434D01*
X94004Y269186D01*
X93809Y268942D01*
X93609Y268704D01*
X93402Y268470D01*
X93190Y268242D01*
X92972Y268019D01*
X92749Y267801D01*
X92521Y267589D01*
X92287Y267382D01*
X92049Y267182D01*
X91805Y266987D01*
X91557Y266798D01*
X91305Y266616D01*
X91048Y266439D01*
X90786Y266269D01*
X90521Y266106D01*
X90252Y265949D01*
X89979Y265799D01*
X89702Y265655D01*
X89422Y265518D01*
X89139Y265389D01*
X88852Y265266D01*
X88563Y265150D01*
X88271Y265041D01*
X87976Y264940D01*
X87679Y264846D01*
X87379Y264759D01*
X87078Y264680D01*
X86775Y264608D01*
X86470Y264543D01*
X86163Y264486D01*
X85855Y264436D01*
X85547Y264395D01*
X85237Y264360D01*
X84926Y264333D01*
X84615Y264314D01*
X84304Y264303D01*
X83992Y264299D01*
X83680Y264303D01*
X83369Y264314D01*
X83058Y264333D01*
X82747Y264360D01*
X82437Y264395D01*
X82129Y264436D01*
X81821Y264486D01*
X81514Y264543D01*
X81209Y264608D01*
X80906Y264680D01*
X80605Y264759D01*
X80305Y264846D01*
X80008Y264940D01*
X79713Y265041D01*
X79421Y265150D01*
X79132Y265266D01*
X78845Y265389D01*
X78562Y265518D01*
X78282Y265655D01*
X78005Y265799D01*
X77732Y265949D01*
X77463Y266106D01*
X77198Y266269D01*
X76936Y266439D01*
X76679Y266616D01*
X76427Y266798D01*
X76179Y266987D01*
X75935Y267182D01*
X75697Y267382D01*
X75463Y267589D01*
X75235Y267801D01*
X75012Y268019D01*
X74794Y268242D01*
X74582Y268470D01*
X74375Y268704D01*
X74175Y268942D01*
X73980Y269186D01*
X73791Y269434D01*
X73609Y269686D01*
X73432Y269943D01*
X73262Y270205D01*
X73099Y270470D01*
X72942Y270739D01*
X72792Y271012D01*
X72648Y271289D01*
X72511Y271569D01*
X72382Y271852D01*
X72259Y272139D01*
X72143Y272428D01*
X72034Y272720D01*
X71933Y273015D01*
X71839Y273312D01*
X71752Y273612D01*
X71673Y273913D01*
X71601Y274216D01*
X71536Y274521D01*
X71479Y274828D01*
X71429Y275136D01*
X71388Y275444D01*
X71353Y275754D01*
X71326Y276065D01*
X71307Y276376D01*
X71296Y276687D01*
X71292Y276999D01*
D11*
X80464Y273023D02*
X80466Y273096D01*
X80472Y273170D01*
X80482Y273242D01*
X80496Y273314D01*
X80513Y273386D01*
X80535Y273456D01*
X80560Y273525D01*
X80589Y273592D01*
X80622Y273658D01*
X80658Y273722D01*
X80697Y273783D01*
X80740Y273843D01*
X80786Y273900D01*
X80835Y273955D01*
X80887Y274007D01*
X80942Y274056D01*
X80999Y274102D01*
X81059Y274145D01*
X81120Y274184D01*
X81184Y274220D01*
X81250Y274253D01*
X81317Y274282D01*
X81386Y274307D01*
X81457Y274329D01*
X81528Y274346D01*
X81600Y274360D01*
X81673Y274370D01*
X81746Y274376D01*
X81819Y274378D01*
X80464Y273023D02*
X80466Y272920D01*
X80471Y272818D01*
X80481Y272715D01*
X80493Y272614D01*
X80510Y272512D01*
X80530Y272411D01*
X80554Y272312D01*
X80581Y272213D01*
X80612Y272115D01*
X80646Y272018D01*
X80684Y271922D01*
X80725Y271828D01*
X80770Y271736D01*
X80818Y271645D01*
X80869Y271556D01*
X80923Y271468D01*
X80980Y271383D01*
X81041Y271300D01*
X81104Y271219D01*
X81170Y271141D01*
X81239Y271064D01*
X81311Y270991D01*
X85205Y271160D02*
X85276Y271162D01*
X85347Y271167D01*
X85417Y271177D01*
X85487Y271190D01*
X85556Y271206D01*
X85624Y271226D01*
X85691Y271250D01*
X85756Y271277D01*
X85820Y271308D01*
X85883Y271342D01*
X85943Y271379D01*
X86001Y271419D01*
X86058Y271462D01*
X86112Y271508D01*
X86163Y271557D01*
X86212Y271608D01*
X86258Y271662D01*
X86301Y271719D01*
X86341Y271777D01*
X86378Y271838D01*
X86412Y271900D01*
X86443Y271964D01*
X86470Y272029D01*
X86494Y272096D01*
X86514Y272164D01*
X86530Y272233D01*
X86543Y272303D01*
X86553Y272373D01*
X86558Y272444D01*
X86560Y272515D01*
X86558Y272611D01*
X86553Y272707D01*
X86544Y272803D01*
X86531Y272898D01*
X86515Y272993D01*
X86495Y273087D01*
X86471Y273180D01*
X86444Y273272D01*
X86414Y273364D01*
X86380Y273454D01*
X86343Y273542D01*
X86302Y273629D01*
X86259Y273715D01*
X86212Y273799D01*
X86161Y273881D01*
X86108Y273961D01*
X86052Y274039D01*
X84020Y271837D02*
X84057Y271777D01*
X84098Y271718D01*
X84142Y271662D01*
X84189Y271608D01*
X84239Y271557D01*
X84291Y271508D01*
X84345Y271462D01*
X84402Y271419D01*
X84461Y271378D01*
X84522Y271341D01*
X84585Y271307D01*
X84650Y271277D01*
X84716Y271250D01*
X84783Y271226D01*
X84852Y271206D01*
X84921Y271190D01*
X84992Y271177D01*
X85062Y271167D01*
X85134Y271162D01*
X85205Y271160D01*
X83004Y273701D02*
X82967Y273761D01*
X82926Y273820D01*
X82882Y273876D01*
X82835Y273930D01*
X82785Y273981D01*
X82733Y274030D01*
X82679Y274076D01*
X82622Y274120D01*
X82563Y274160D01*
X82502Y274197D01*
X82439Y274231D01*
X82374Y274261D01*
X82308Y274288D01*
X82241Y274312D01*
X82172Y274332D01*
X82103Y274348D01*
X82032Y274361D01*
X81962Y274371D01*
X81890Y274376D01*
X81819Y274378D01*
X83004Y273700D02*
X84020Y271838D01*
X85205Y277620D02*
X86560Y279314D01*
X80464Y279314D01*
X80464Y281007D02*
X80464Y277620D01*
D10*
X200966Y251608D02*
X226066Y251608D01*
X238766Y261608D02*
X238766Y292408D01*
X225766Y302408D02*
X200966Y302408D01*
X187966Y292408D02*
X187966Y261608D01*
X200666Y277008D02*
X200670Y277320D01*
X200681Y277631D01*
X200700Y277942D01*
X200727Y278253D01*
X200762Y278563D01*
X200803Y278871D01*
X200853Y279179D01*
X200910Y279486D01*
X200975Y279791D01*
X201047Y280094D01*
X201126Y280395D01*
X201213Y280695D01*
X201307Y280992D01*
X201408Y281287D01*
X201517Y281579D01*
X201633Y281868D01*
X201756Y282155D01*
X201885Y282438D01*
X202022Y282718D01*
X202166Y282995D01*
X202316Y283268D01*
X202473Y283537D01*
X202636Y283802D01*
X202806Y284064D01*
X202983Y284321D01*
X203165Y284573D01*
X203354Y284821D01*
X203549Y285065D01*
X203749Y285303D01*
X203956Y285537D01*
X204168Y285765D01*
X204386Y285988D01*
X204609Y286206D01*
X204837Y286418D01*
X205071Y286625D01*
X205309Y286825D01*
X205553Y287020D01*
X205801Y287209D01*
X206053Y287391D01*
X206310Y287568D01*
X206572Y287738D01*
X206837Y287901D01*
X207106Y288058D01*
X207379Y288208D01*
X207656Y288352D01*
X207936Y288489D01*
X208219Y288618D01*
X208506Y288741D01*
X208795Y288857D01*
X209087Y288966D01*
X209382Y289067D01*
X209679Y289161D01*
X209979Y289248D01*
X210280Y289327D01*
X210583Y289399D01*
X210888Y289464D01*
X211195Y289521D01*
X211503Y289571D01*
X211811Y289612D01*
X212121Y289647D01*
X212432Y289674D01*
X212743Y289693D01*
X213054Y289704D01*
X213366Y289708D01*
X213678Y289704D01*
X213989Y289693D01*
X214300Y289674D01*
X214611Y289647D01*
X214921Y289612D01*
X215229Y289571D01*
X215537Y289521D01*
X215844Y289464D01*
X216149Y289399D01*
X216452Y289327D01*
X216753Y289248D01*
X217053Y289161D01*
X217350Y289067D01*
X217645Y288966D01*
X217937Y288857D01*
X218226Y288741D01*
X218513Y288618D01*
X218796Y288489D01*
X219076Y288352D01*
X219353Y288208D01*
X219626Y288058D01*
X219895Y287901D01*
X220160Y287738D01*
X220422Y287568D01*
X220679Y287391D01*
X220931Y287209D01*
X221179Y287020D01*
X221423Y286825D01*
X221661Y286625D01*
X221895Y286418D01*
X222123Y286206D01*
X222346Y285988D01*
X222564Y285765D01*
X222776Y285537D01*
X222983Y285303D01*
X223183Y285065D01*
X223378Y284821D01*
X223567Y284573D01*
X223749Y284321D01*
X223926Y284064D01*
X224096Y283802D01*
X224259Y283537D01*
X224416Y283268D01*
X224566Y282995D01*
X224710Y282718D01*
X224847Y282438D01*
X224976Y282155D01*
X225099Y281868D01*
X225215Y281579D01*
X225324Y281287D01*
X225425Y280992D01*
X225519Y280695D01*
X225606Y280395D01*
X225685Y280094D01*
X225757Y279791D01*
X225822Y279486D01*
X225879Y279179D01*
X225929Y278871D01*
X225970Y278563D01*
X226005Y278253D01*
X226032Y277942D01*
X226051Y277631D01*
X226062Y277320D01*
X226066Y277008D01*
X226062Y276696D01*
X226051Y276385D01*
X226032Y276074D01*
X226005Y275763D01*
X225970Y275453D01*
X225929Y275145D01*
X225879Y274837D01*
X225822Y274530D01*
X225757Y274225D01*
X225685Y273922D01*
X225606Y273621D01*
X225519Y273321D01*
X225425Y273024D01*
X225324Y272729D01*
X225215Y272437D01*
X225099Y272148D01*
X224976Y271861D01*
X224847Y271578D01*
X224710Y271298D01*
X224566Y271021D01*
X224416Y270748D01*
X224259Y270479D01*
X224096Y270214D01*
X223926Y269952D01*
X223749Y269695D01*
X223567Y269443D01*
X223378Y269195D01*
X223183Y268951D01*
X222983Y268713D01*
X222776Y268479D01*
X222564Y268251D01*
X222346Y268028D01*
X222123Y267810D01*
X221895Y267598D01*
X221661Y267391D01*
X221423Y267191D01*
X221179Y266996D01*
X220931Y266807D01*
X220679Y266625D01*
X220422Y266448D01*
X220160Y266278D01*
X219895Y266115D01*
X219626Y265958D01*
X219353Y265808D01*
X219076Y265664D01*
X218796Y265527D01*
X218513Y265398D01*
X218226Y265275D01*
X217937Y265159D01*
X217645Y265050D01*
X217350Y264949D01*
X217053Y264855D01*
X216753Y264768D01*
X216452Y264689D01*
X216149Y264617D01*
X215844Y264552D01*
X215537Y264495D01*
X215229Y264445D01*
X214921Y264404D01*
X214611Y264369D01*
X214300Y264342D01*
X213989Y264323D01*
X213678Y264312D01*
X213366Y264308D01*
X213054Y264312D01*
X212743Y264323D01*
X212432Y264342D01*
X212121Y264369D01*
X211811Y264404D01*
X211503Y264445D01*
X211195Y264495D01*
X210888Y264552D01*
X210583Y264617D01*
X210280Y264689D01*
X209979Y264768D01*
X209679Y264855D01*
X209382Y264949D01*
X209087Y265050D01*
X208795Y265159D01*
X208506Y265275D01*
X208219Y265398D01*
X207936Y265527D01*
X207656Y265664D01*
X207379Y265808D01*
X207106Y265958D01*
X206837Y266115D01*
X206572Y266278D01*
X206310Y266448D01*
X206053Y266625D01*
X205801Y266807D01*
X205553Y266996D01*
X205309Y267191D01*
X205071Y267391D01*
X204837Y267598D01*
X204609Y267810D01*
X204386Y268028D01*
X204168Y268251D01*
X203956Y268479D01*
X203749Y268713D01*
X203549Y268951D01*
X203354Y269195D01*
X203165Y269443D01*
X202983Y269695D01*
X202806Y269952D01*
X202636Y270214D01*
X202473Y270479D01*
X202316Y270748D01*
X202166Y271021D01*
X202022Y271298D01*
X201885Y271578D01*
X201756Y271861D01*
X201633Y272148D01*
X201517Y272437D01*
X201408Y272729D01*
X201307Y273024D01*
X201213Y273321D01*
X201126Y273621D01*
X201047Y273922D01*
X200975Y274225D01*
X200910Y274530D01*
X200853Y274837D01*
X200803Y275145D01*
X200762Y275453D01*
X200727Y275763D01*
X200700Y276074D01*
X200681Y276385D01*
X200670Y276696D01*
X200666Y277008D01*
D11*
X211798Y274032D02*
X211800Y274105D01*
X211806Y274179D01*
X211816Y274251D01*
X211830Y274323D01*
X211847Y274395D01*
X211869Y274465D01*
X211894Y274534D01*
X211923Y274601D01*
X211956Y274667D01*
X211992Y274731D01*
X212031Y274792D01*
X212074Y274852D01*
X212120Y274909D01*
X212169Y274964D01*
X212221Y275016D01*
X212276Y275065D01*
X212333Y275111D01*
X212393Y275154D01*
X212454Y275193D01*
X212518Y275229D01*
X212584Y275262D01*
X212651Y275291D01*
X212720Y275316D01*
X212791Y275338D01*
X212862Y275355D01*
X212934Y275369D01*
X213007Y275379D01*
X213080Y275385D01*
X213153Y275387D01*
X211798Y274032D02*
X211800Y273929D01*
X211805Y273827D01*
X211815Y273724D01*
X211827Y273623D01*
X211844Y273521D01*
X211864Y273420D01*
X211888Y273321D01*
X211915Y273222D01*
X211946Y273124D01*
X211980Y273027D01*
X212018Y272931D01*
X212059Y272837D01*
X212104Y272745D01*
X212152Y272654D01*
X212203Y272565D01*
X212257Y272477D01*
X212314Y272392D01*
X212375Y272309D01*
X212438Y272228D01*
X212504Y272150D01*
X212573Y272073D01*
X212645Y272000D01*
X216539Y272169D02*
X216610Y272171D01*
X216681Y272176D01*
X216751Y272186D01*
X216821Y272199D01*
X216890Y272215D01*
X216958Y272235D01*
X217025Y272259D01*
X217090Y272286D01*
X217154Y272317D01*
X217217Y272351D01*
X217277Y272388D01*
X217335Y272428D01*
X217392Y272471D01*
X217446Y272517D01*
X217497Y272566D01*
X217546Y272617D01*
X217592Y272671D01*
X217635Y272728D01*
X217675Y272786D01*
X217712Y272847D01*
X217746Y272909D01*
X217777Y272973D01*
X217804Y273038D01*
X217828Y273105D01*
X217848Y273173D01*
X217864Y273242D01*
X217877Y273312D01*
X217887Y273382D01*
X217892Y273453D01*
X217894Y273524D01*
X217892Y273620D01*
X217887Y273716D01*
X217878Y273812D01*
X217865Y273907D01*
X217849Y274002D01*
X217829Y274096D01*
X217805Y274189D01*
X217778Y274281D01*
X217748Y274373D01*
X217714Y274463D01*
X217677Y274551D01*
X217636Y274638D01*
X217593Y274724D01*
X217546Y274808D01*
X217495Y274890D01*
X217442Y274970D01*
X217386Y275048D01*
X215354Y272846D02*
X215391Y272786D01*
X215432Y272727D01*
X215476Y272671D01*
X215523Y272617D01*
X215573Y272566D01*
X215625Y272517D01*
X215679Y272471D01*
X215736Y272428D01*
X215795Y272387D01*
X215856Y272350D01*
X215919Y272316D01*
X215984Y272286D01*
X216050Y272259D01*
X216117Y272235D01*
X216186Y272215D01*
X216255Y272199D01*
X216326Y272186D01*
X216396Y272176D01*
X216468Y272171D01*
X216539Y272169D01*
X214338Y274710D02*
X214301Y274770D01*
X214260Y274829D01*
X214216Y274885D01*
X214169Y274939D01*
X214119Y274990D01*
X214067Y275039D01*
X214013Y275085D01*
X213956Y275129D01*
X213897Y275169D01*
X213836Y275206D01*
X213773Y275240D01*
X213708Y275270D01*
X213642Y275297D01*
X213575Y275321D01*
X213506Y275341D01*
X213437Y275357D01*
X213366Y275370D01*
X213296Y275380D01*
X213224Y275385D01*
X213153Y275387D01*
X214338Y274709D02*
X215354Y272847D01*
X217894Y280492D02*
X217892Y280569D01*
X217886Y280646D01*
X217876Y280723D01*
X217863Y280799D01*
X217845Y280874D01*
X217824Y280948D01*
X217799Y281021D01*
X217770Y281093D01*
X217738Y281163D01*
X217703Y281232D01*
X217663Y281298D01*
X217621Y281363D01*
X217575Y281425D01*
X217526Y281485D01*
X217475Y281542D01*
X217420Y281597D01*
X217363Y281648D01*
X217303Y281697D01*
X217241Y281743D01*
X217176Y281785D01*
X217110Y281825D01*
X217041Y281860D01*
X216971Y281892D01*
X216899Y281921D01*
X216826Y281946D01*
X216752Y281967D01*
X216677Y281985D01*
X216601Y281998D01*
X216524Y282008D01*
X216447Y282014D01*
X216370Y282016D01*
X217894Y280492D02*
X217892Y280407D01*
X217887Y280322D01*
X217877Y280238D01*
X217865Y280154D01*
X217848Y280071D01*
X217828Y279988D01*
X217804Y279907D01*
X217777Y279826D01*
X217747Y279747D01*
X217713Y279669D01*
X217675Y279593D01*
X217635Y279518D01*
X217591Y279446D01*
X217544Y279375D01*
X217494Y279306D01*
X217441Y279240D01*
X217386Y279176D01*
X217327Y279114D01*
X217266Y279055D01*
X217203Y278999D01*
X217137Y278945D01*
X217068Y278895D01*
X216998Y278847D01*
X216926Y278803D01*
X216852Y278761D01*
X216776Y278723D01*
X216698Y278689D01*
X216619Y278657D01*
X216539Y278629D01*
X215185Y281508D02*
X215240Y281563D01*
X215297Y281616D01*
X215357Y281665D01*
X215420Y281712D01*
X215484Y281756D01*
X215551Y281796D01*
X215619Y281834D01*
X215690Y281868D01*
X215761Y281899D01*
X215834Y281926D01*
X215908Y281950D01*
X215984Y281970D01*
X216060Y281986D01*
X216137Y281999D01*
X216214Y282009D01*
X216292Y282014D01*
X216370Y282016D01*
X215185Y281508D02*
X211798Y278629D01*
X211798Y282016D01*
D10*
X95392Y168650D02*
X70292Y168650D01*
X57592Y158650D02*
X57592Y127850D01*
X70592Y117850D02*
X95392Y117850D01*
X108392Y127850D02*
X108392Y158650D01*
X70292Y143250D02*
X70296Y143562D01*
X70307Y143873D01*
X70326Y144184D01*
X70353Y144495D01*
X70388Y144805D01*
X70429Y145113D01*
X70479Y145421D01*
X70536Y145728D01*
X70601Y146033D01*
X70673Y146336D01*
X70752Y146637D01*
X70839Y146937D01*
X70933Y147234D01*
X71034Y147529D01*
X71143Y147821D01*
X71259Y148110D01*
X71382Y148397D01*
X71511Y148680D01*
X71648Y148960D01*
X71792Y149237D01*
X71942Y149510D01*
X72099Y149779D01*
X72262Y150044D01*
X72432Y150306D01*
X72609Y150563D01*
X72791Y150815D01*
X72980Y151063D01*
X73175Y151307D01*
X73375Y151545D01*
X73582Y151779D01*
X73794Y152007D01*
X74012Y152230D01*
X74235Y152448D01*
X74463Y152660D01*
X74697Y152867D01*
X74935Y153067D01*
X75179Y153262D01*
X75427Y153451D01*
X75679Y153633D01*
X75936Y153810D01*
X76198Y153980D01*
X76463Y154143D01*
X76732Y154300D01*
X77005Y154450D01*
X77282Y154594D01*
X77562Y154731D01*
X77845Y154860D01*
X78132Y154983D01*
X78421Y155099D01*
X78713Y155208D01*
X79008Y155309D01*
X79305Y155403D01*
X79605Y155490D01*
X79906Y155569D01*
X80209Y155641D01*
X80514Y155706D01*
X80821Y155763D01*
X81129Y155813D01*
X81437Y155854D01*
X81747Y155889D01*
X82058Y155916D01*
X82369Y155935D01*
X82680Y155946D01*
X82992Y155950D01*
X83304Y155946D01*
X83615Y155935D01*
X83926Y155916D01*
X84237Y155889D01*
X84547Y155854D01*
X84855Y155813D01*
X85163Y155763D01*
X85470Y155706D01*
X85775Y155641D01*
X86078Y155569D01*
X86379Y155490D01*
X86679Y155403D01*
X86976Y155309D01*
X87271Y155208D01*
X87563Y155099D01*
X87852Y154983D01*
X88139Y154860D01*
X88422Y154731D01*
X88702Y154594D01*
X88979Y154450D01*
X89252Y154300D01*
X89521Y154143D01*
X89786Y153980D01*
X90048Y153810D01*
X90305Y153633D01*
X90557Y153451D01*
X90805Y153262D01*
X91049Y153067D01*
X91287Y152867D01*
X91521Y152660D01*
X91749Y152448D01*
X91972Y152230D01*
X92190Y152007D01*
X92402Y151779D01*
X92609Y151545D01*
X92809Y151307D01*
X93004Y151063D01*
X93193Y150815D01*
X93375Y150563D01*
X93552Y150306D01*
X93722Y150044D01*
X93885Y149779D01*
X94042Y149510D01*
X94192Y149237D01*
X94336Y148960D01*
X94473Y148680D01*
X94602Y148397D01*
X94725Y148110D01*
X94841Y147821D01*
X94950Y147529D01*
X95051Y147234D01*
X95145Y146937D01*
X95232Y146637D01*
X95311Y146336D01*
X95383Y146033D01*
X95448Y145728D01*
X95505Y145421D01*
X95555Y145113D01*
X95596Y144805D01*
X95631Y144495D01*
X95658Y144184D01*
X95677Y143873D01*
X95688Y143562D01*
X95692Y143250D01*
X95688Y142938D01*
X95677Y142627D01*
X95658Y142316D01*
X95631Y142005D01*
X95596Y141695D01*
X95555Y141387D01*
X95505Y141079D01*
X95448Y140772D01*
X95383Y140467D01*
X95311Y140164D01*
X95232Y139863D01*
X95145Y139563D01*
X95051Y139266D01*
X94950Y138971D01*
X94841Y138679D01*
X94725Y138390D01*
X94602Y138103D01*
X94473Y137820D01*
X94336Y137540D01*
X94192Y137263D01*
X94042Y136990D01*
X93885Y136721D01*
X93722Y136456D01*
X93552Y136194D01*
X93375Y135937D01*
X93193Y135685D01*
X93004Y135437D01*
X92809Y135193D01*
X92609Y134955D01*
X92402Y134721D01*
X92190Y134493D01*
X91972Y134270D01*
X91749Y134052D01*
X91521Y133840D01*
X91287Y133633D01*
X91049Y133433D01*
X90805Y133238D01*
X90557Y133049D01*
X90305Y132867D01*
X90048Y132690D01*
X89786Y132520D01*
X89521Y132357D01*
X89252Y132200D01*
X88979Y132050D01*
X88702Y131906D01*
X88422Y131769D01*
X88139Y131640D01*
X87852Y131517D01*
X87563Y131401D01*
X87271Y131292D01*
X86976Y131191D01*
X86679Y131097D01*
X86379Y131010D01*
X86078Y130931D01*
X85775Y130859D01*
X85470Y130794D01*
X85163Y130737D01*
X84855Y130687D01*
X84547Y130646D01*
X84237Y130611D01*
X83926Y130584D01*
X83615Y130565D01*
X83304Y130554D01*
X82992Y130550D01*
X82680Y130554D01*
X82369Y130565D01*
X82058Y130584D01*
X81747Y130611D01*
X81437Y130646D01*
X81129Y130687D01*
X80821Y130737D01*
X80514Y130794D01*
X80209Y130859D01*
X79906Y130931D01*
X79605Y131010D01*
X79305Y131097D01*
X79008Y131191D01*
X78713Y131292D01*
X78421Y131401D01*
X78132Y131517D01*
X77845Y131640D01*
X77562Y131769D01*
X77282Y131906D01*
X77005Y132050D01*
X76732Y132200D01*
X76463Y132357D01*
X76198Y132520D01*
X75936Y132690D01*
X75679Y132867D01*
X75427Y133049D01*
X75179Y133238D01*
X74935Y133433D01*
X74697Y133633D01*
X74463Y133840D01*
X74235Y134052D01*
X74012Y134270D01*
X73794Y134493D01*
X73582Y134721D01*
X73375Y134955D01*
X73175Y135193D01*
X72980Y135437D01*
X72791Y135685D01*
X72609Y135937D01*
X72432Y136194D01*
X72262Y136456D01*
X72099Y136721D01*
X71942Y136990D01*
X71792Y137263D01*
X71648Y137540D01*
X71511Y137820D01*
X71382Y138103D01*
X71259Y138390D01*
X71143Y138679D01*
X71034Y138971D01*
X70933Y139266D01*
X70839Y139563D01*
X70752Y139863D01*
X70673Y140164D01*
X70601Y140467D01*
X70536Y140772D01*
X70479Y141079D01*
X70429Y141387D01*
X70388Y141695D01*
X70353Y142005D01*
X70326Y142316D01*
X70307Y142627D01*
X70296Y142938D01*
X70292Y143250D01*
D11*
X78464Y140274D02*
X78466Y140347D01*
X78472Y140421D01*
X78482Y140493D01*
X78496Y140565D01*
X78513Y140637D01*
X78535Y140707D01*
X78560Y140776D01*
X78589Y140843D01*
X78622Y140909D01*
X78658Y140973D01*
X78697Y141034D01*
X78740Y141094D01*
X78786Y141151D01*
X78835Y141206D01*
X78887Y141258D01*
X78942Y141307D01*
X78999Y141353D01*
X79059Y141396D01*
X79120Y141435D01*
X79184Y141471D01*
X79250Y141504D01*
X79317Y141533D01*
X79386Y141558D01*
X79457Y141580D01*
X79528Y141597D01*
X79600Y141611D01*
X79673Y141621D01*
X79746Y141627D01*
X79819Y141629D01*
X78464Y140274D02*
X78466Y140171D01*
X78471Y140069D01*
X78481Y139966D01*
X78493Y139865D01*
X78510Y139763D01*
X78530Y139662D01*
X78554Y139563D01*
X78581Y139464D01*
X78612Y139366D01*
X78646Y139269D01*
X78684Y139173D01*
X78725Y139079D01*
X78770Y138987D01*
X78818Y138896D01*
X78869Y138807D01*
X78923Y138719D01*
X78980Y138634D01*
X79041Y138551D01*
X79104Y138470D01*
X79170Y138392D01*
X79239Y138315D01*
X79311Y138242D01*
X83205Y138411D02*
X83276Y138413D01*
X83347Y138418D01*
X83417Y138428D01*
X83487Y138441D01*
X83556Y138457D01*
X83624Y138477D01*
X83691Y138501D01*
X83756Y138528D01*
X83820Y138559D01*
X83883Y138593D01*
X83943Y138630D01*
X84001Y138670D01*
X84058Y138713D01*
X84112Y138759D01*
X84163Y138808D01*
X84212Y138859D01*
X84258Y138913D01*
X84301Y138970D01*
X84341Y139028D01*
X84378Y139089D01*
X84412Y139151D01*
X84443Y139215D01*
X84470Y139280D01*
X84494Y139347D01*
X84514Y139415D01*
X84530Y139484D01*
X84543Y139554D01*
X84553Y139624D01*
X84558Y139695D01*
X84560Y139766D01*
X84558Y139862D01*
X84553Y139958D01*
X84544Y140054D01*
X84531Y140149D01*
X84515Y140244D01*
X84495Y140338D01*
X84471Y140431D01*
X84444Y140523D01*
X84414Y140615D01*
X84380Y140705D01*
X84343Y140793D01*
X84302Y140880D01*
X84259Y140966D01*
X84212Y141050D01*
X84161Y141132D01*
X84108Y141212D01*
X84052Y141290D01*
X82020Y139088D02*
X82057Y139028D01*
X82098Y138969D01*
X82142Y138913D01*
X82189Y138859D01*
X82239Y138808D01*
X82291Y138759D01*
X82345Y138713D01*
X82402Y138670D01*
X82461Y138629D01*
X82522Y138592D01*
X82585Y138558D01*
X82650Y138528D01*
X82716Y138501D01*
X82783Y138477D01*
X82852Y138457D01*
X82921Y138441D01*
X82992Y138428D01*
X83062Y138418D01*
X83134Y138413D01*
X83205Y138411D01*
X81004Y140952D02*
X80967Y141012D01*
X80926Y141071D01*
X80882Y141127D01*
X80835Y141181D01*
X80785Y141232D01*
X80733Y141281D01*
X80679Y141327D01*
X80622Y141371D01*
X80563Y141411D01*
X80502Y141448D01*
X80439Y141482D01*
X80374Y141512D01*
X80308Y141539D01*
X80241Y141563D01*
X80172Y141583D01*
X80103Y141599D01*
X80032Y141612D01*
X79962Y141622D01*
X79890Y141627D01*
X79819Y141629D01*
X81004Y140951D02*
X82020Y139089D01*
X78464Y144871D02*
X78464Y146565D01*
X78466Y146646D01*
X78472Y146726D01*
X78481Y146806D01*
X78495Y146885D01*
X78512Y146964D01*
X78533Y147042D01*
X78557Y147119D01*
X78585Y147194D01*
X78617Y147268D01*
X78652Y147341D01*
X78691Y147412D01*
X78733Y147480D01*
X78778Y147547D01*
X78826Y147612D01*
X78878Y147674D01*
X78932Y147733D01*
X78989Y147790D01*
X79048Y147844D01*
X79110Y147896D01*
X79175Y147944D01*
X79242Y147989D01*
X79311Y148031D01*
X79381Y148070D01*
X79454Y148105D01*
X79528Y148137D01*
X79603Y148165D01*
X79680Y148189D01*
X79758Y148210D01*
X79837Y148227D01*
X79916Y148241D01*
X79996Y148250D01*
X80076Y148256D01*
X80157Y148258D01*
X80238Y148256D01*
X80318Y148250D01*
X80398Y148241D01*
X80477Y148227D01*
X80556Y148210D01*
X80634Y148189D01*
X80711Y148165D01*
X80786Y148137D01*
X80860Y148105D01*
X80933Y148070D01*
X81004Y148031D01*
X81072Y147989D01*
X81139Y147944D01*
X81204Y147896D01*
X81266Y147844D01*
X81325Y147790D01*
X81382Y147733D01*
X81436Y147674D01*
X81488Y147612D01*
X81536Y147547D01*
X81581Y147480D01*
X81623Y147412D01*
X81662Y147341D01*
X81697Y147268D01*
X81729Y147194D01*
X81757Y147119D01*
X81781Y147042D01*
X81802Y146964D01*
X81819Y146885D01*
X81833Y146806D01*
X81842Y146726D01*
X81848Y146646D01*
X81850Y146565D01*
X84560Y146903D02*
X84560Y144871D01*
X84560Y146903D02*
X84558Y146975D01*
X84552Y147047D01*
X84543Y147119D01*
X84529Y147189D01*
X84512Y147260D01*
X84491Y147329D01*
X84467Y147396D01*
X84439Y147463D01*
X84407Y147528D01*
X84372Y147591D01*
X84334Y147652D01*
X84293Y147711D01*
X84248Y147768D01*
X84201Y147822D01*
X84150Y147874D01*
X84097Y147923D01*
X84042Y147969D01*
X83984Y148012D01*
X83924Y148052D01*
X83862Y148088D01*
X83798Y148122D01*
X83732Y148151D01*
X83665Y148178D01*
X83596Y148200D01*
X83527Y148219D01*
X83456Y148235D01*
X83385Y148246D01*
X83313Y148254D01*
X83241Y148258D01*
X83169Y148258D01*
X83097Y148254D01*
X83025Y148246D01*
X82954Y148235D01*
X82883Y148219D01*
X82814Y148200D01*
X82745Y148178D01*
X82678Y148151D01*
X82612Y148122D01*
X82548Y148088D01*
X82486Y148052D01*
X82426Y148012D01*
X82368Y147969D01*
X82313Y147923D01*
X82260Y147874D01*
X82209Y147822D01*
X82162Y147768D01*
X82117Y147711D01*
X82076Y147652D01*
X82038Y147591D01*
X82003Y147528D01*
X81971Y147463D01*
X81943Y147396D01*
X81919Y147329D01*
X81898Y147260D01*
X81881Y147189D01*
X81867Y147119D01*
X81858Y147047D01*
X81852Y146975D01*
X81850Y146903D01*
X81851Y146903D02*
X81851Y145549D01*
D10*
X200546Y168978D02*
X225646Y168978D01*
X187846Y158978D02*
X187846Y128178D01*
X200846Y118178D02*
X225646Y118178D01*
X238646Y128178D02*
X238646Y158978D01*
X200546Y143578D02*
X200550Y143890D01*
X200561Y144201D01*
X200580Y144512D01*
X200607Y144823D01*
X200642Y145133D01*
X200683Y145441D01*
X200733Y145749D01*
X200790Y146056D01*
X200855Y146361D01*
X200927Y146664D01*
X201006Y146965D01*
X201093Y147265D01*
X201187Y147562D01*
X201288Y147857D01*
X201397Y148149D01*
X201513Y148438D01*
X201636Y148725D01*
X201765Y149008D01*
X201902Y149288D01*
X202046Y149565D01*
X202196Y149838D01*
X202353Y150107D01*
X202516Y150372D01*
X202686Y150634D01*
X202863Y150891D01*
X203045Y151143D01*
X203234Y151391D01*
X203429Y151635D01*
X203629Y151873D01*
X203836Y152107D01*
X204048Y152335D01*
X204266Y152558D01*
X204489Y152776D01*
X204717Y152988D01*
X204951Y153195D01*
X205189Y153395D01*
X205433Y153590D01*
X205681Y153779D01*
X205933Y153961D01*
X206190Y154138D01*
X206452Y154308D01*
X206717Y154471D01*
X206986Y154628D01*
X207259Y154778D01*
X207536Y154922D01*
X207816Y155059D01*
X208099Y155188D01*
X208386Y155311D01*
X208675Y155427D01*
X208967Y155536D01*
X209262Y155637D01*
X209559Y155731D01*
X209859Y155818D01*
X210160Y155897D01*
X210463Y155969D01*
X210768Y156034D01*
X211075Y156091D01*
X211383Y156141D01*
X211691Y156182D01*
X212001Y156217D01*
X212312Y156244D01*
X212623Y156263D01*
X212934Y156274D01*
X213246Y156278D01*
X213558Y156274D01*
X213869Y156263D01*
X214180Y156244D01*
X214491Y156217D01*
X214801Y156182D01*
X215109Y156141D01*
X215417Y156091D01*
X215724Y156034D01*
X216029Y155969D01*
X216332Y155897D01*
X216633Y155818D01*
X216933Y155731D01*
X217230Y155637D01*
X217525Y155536D01*
X217817Y155427D01*
X218106Y155311D01*
X218393Y155188D01*
X218676Y155059D01*
X218956Y154922D01*
X219233Y154778D01*
X219506Y154628D01*
X219775Y154471D01*
X220040Y154308D01*
X220302Y154138D01*
X220559Y153961D01*
X220811Y153779D01*
X221059Y153590D01*
X221303Y153395D01*
X221541Y153195D01*
X221775Y152988D01*
X222003Y152776D01*
X222226Y152558D01*
X222444Y152335D01*
X222656Y152107D01*
X222863Y151873D01*
X223063Y151635D01*
X223258Y151391D01*
X223447Y151143D01*
X223629Y150891D01*
X223806Y150634D01*
X223976Y150372D01*
X224139Y150107D01*
X224296Y149838D01*
X224446Y149565D01*
X224590Y149288D01*
X224727Y149008D01*
X224856Y148725D01*
X224979Y148438D01*
X225095Y148149D01*
X225204Y147857D01*
X225305Y147562D01*
X225399Y147265D01*
X225486Y146965D01*
X225565Y146664D01*
X225637Y146361D01*
X225702Y146056D01*
X225759Y145749D01*
X225809Y145441D01*
X225850Y145133D01*
X225885Y144823D01*
X225912Y144512D01*
X225931Y144201D01*
X225942Y143890D01*
X225946Y143578D01*
X225942Y143266D01*
X225931Y142955D01*
X225912Y142644D01*
X225885Y142333D01*
X225850Y142023D01*
X225809Y141715D01*
X225759Y141407D01*
X225702Y141100D01*
X225637Y140795D01*
X225565Y140492D01*
X225486Y140191D01*
X225399Y139891D01*
X225305Y139594D01*
X225204Y139299D01*
X225095Y139007D01*
X224979Y138718D01*
X224856Y138431D01*
X224727Y138148D01*
X224590Y137868D01*
X224446Y137591D01*
X224296Y137318D01*
X224139Y137049D01*
X223976Y136784D01*
X223806Y136522D01*
X223629Y136265D01*
X223447Y136013D01*
X223258Y135765D01*
X223063Y135521D01*
X222863Y135283D01*
X222656Y135049D01*
X222444Y134821D01*
X222226Y134598D01*
X222003Y134380D01*
X221775Y134168D01*
X221541Y133961D01*
X221303Y133761D01*
X221059Y133566D01*
X220811Y133377D01*
X220559Y133195D01*
X220302Y133018D01*
X220040Y132848D01*
X219775Y132685D01*
X219506Y132528D01*
X219233Y132378D01*
X218956Y132234D01*
X218676Y132097D01*
X218393Y131968D01*
X218106Y131845D01*
X217817Y131729D01*
X217525Y131620D01*
X217230Y131519D01*
X216933Y131425D01*
X216633Y131338D01*
X216332Y131259D01*
X216029Y131187D01*
X215724Y131122D01*
X215417Y131065D01*
X215109Y131015D01*
X214801Y130974D01*
X214491Y130939D01*
X214180Y130912D01*
X213869Y130893D01*
X213558Y130882D01*
X213246Y130878D01*
X212934Y130882D01*
X212623Y130893D01*
X212312Y130912D01*
X212001Y130939D01*
X211691Y130974D01*
X211383Y131015D01*
X211075Y131065D01*
X210768Y131122D01*
X210463Y131187D01*
X210160Y131259D01*
X209859Y131338D01*
X209559Y131425D01*
X209262Y131519D01*
X208967Y131620D01*
X208675Y131729D01*
X208386Y131845D01*
X208099Y131968D01*
X207816Y132097D01*
X207536Y132234D01*
X207259Y132378D01*
X206986Y132528D01*
X206717Y132685D01*
X206452Y132848D01*
X206190Y133018D01*
X205933Y133195D01*
X205681Y133377D01*
X205433Y133566D01*
X205189Y133761D01*
X204951Y133961D01*
X204717Y134168D01*
X204489Y134380D01*
X204266Y134598D01*
X204048Y134821D01*
X203836Y135049D01*
X203629Y135283D01*
X203429Y135521D01*
X203234Y135765D01*
X203045Y136013D01*
X202863Y136265D01*
X202686Y136522D01*
X202516Y136784D01*
X202353Y137049D01*
X202196Y137318D01*
X202046Y137591D01*
X201902Y137868D01*
X201765Y138148D01*
X201636Y138431D01*
X201513Y138718D01*
X201397Y139007D01*
X201288Y139299D01*
X201187Y139594D01*
X201093Y139891D01*
X201006Y140191D01*
X200927Y140492D01*
X200855Y140795D01*
X200790Y141100D01*
X200733Y141407D01*
X200683Y141715D01*
X200642Y142023D01*
X200607Y142333D01*
X200580Y142644D01*
X200561Y142955D01*
X200550Y143266D01*
X200546Y143578D01*
D11*
X209718Y140602D02*
X209720Y140675D01*
X209726Y140749D01*
X209736Y140821D01*
X209750Y140893D01*
X209767Y140965D01*
X209789Y141035D01*
X209814Y141104D01*
X209843Y141171D01*
X209876Y141237D01*
X209912Y141301D01*
X209951Y141362D01*
X209994Y141422D01*
X210040Y141479D01*
X210089Y141534D01*
X210141Y141586D01*
X210196Y141635D01*
X210253Y141681D01*
X210313Y141724D01*
X210374Y141763D01*
X210438Y141799D01*
X210504Y141832D01*
X210571Y141861D01*
X210640Y141886D01*
X210711Y141908D01*
X210782Y141925D01*
X210854Y141939D01*
X210927Y141949D01*
X211000Y141955D01*
X211073Y141957D01*
X209718Y140602D02*
X209720Y140499D01*
X209725Y140397D01*
X209735Y140294D01*
X209747Y140193D01*
X209764Y140091D01*
X209784Y139990D01*
X209808Y139891D01*
X209835Y139792D01*
X209866Y139694D01*
X209900Y139597D01*
X209938Y139501D01*
X209979Y139407D01*
X210024Y139315D01*
X210072Y139224D01*
X210123Y139135D01*
X210177Y139047D01*
X210234Y138962D01*
X210295Y138879D01*
X210358Y138798D01*
X210424Y138720D01*
X210493Y138643D01*
X210565Y138570D01*
X214459Y138739D02*
X214530Y138741D01*
X214601Y138746D01*
X214671Y138756D01*
X214741Y138769D01*
X214810Y138785D01*
X214878Y138805D01*
X214945Y138829D01*
X215010Y138856D01*
X215074Y138887D01*
X215137Y138921D01*
X215197Y138958D01*
X215255Y138998D01*
X215312Y139041D01*
X215366Y139087D01*
X215417Y139136D01*
X215466Y139187D01*
X215512Y139241D01*
X215555Y139298D01*
X215595Y139356D01*
X215632Y139417D01*
X215666Y139479D01*
X215697Y139543D01*
X215724Y139608D01*
X215748Y139675D01*
X215768Y139743D01*
X215784Y139812D01*
X215797Y139882D01*
X215807Y139952D01*
X215812Y140023D01*
X215814Y140094D01*
X215812Y140190D01*
X215807Y140286D01*
X215798Y140382D01*
X215785Y140477D01*
X215769Y140572D01*
X215749Y140666D01*
X215725Y140759D01*
X215698Y140851D01*
X215668Y140943D01*
X215634Y141033D01*
X215597Y141121D01*
X215556Y141208D01*
X215513Y141294D01*
X215466Y141378D01*
X215415Y141460D01*
X215362Y141540D01*
X215306Y141618D01*
X213274Y139416D02*
X213311Y139356D01*
X213352Y139297D01*
X213396Y139241D01*
X213443Y139187D01*
X213493Y139136D01*
X213545Y139087D01*
X213599Y139041D01*
X213656Y138998D01*
X213715Y138957D01*
X213776Y138920D01*
X213839Y138886D01*
X213904Y138856D01*
X213970Y138829D01*
X214037Y138805D01*
X214106Y138785D01*
X214175Y138769D01*
X214246Y138756D01*
X214316Y138746D01*
X214388Y138741D01*
X214459Y138739D01*
X212258Y141280D02*
X212221Y141340D01*
X212180Y141399D01*
X212136Y141455D01*
X212089Y141509D01*
X212039Y141560D01*
X211987Y141609D01*
X211933Y141655D01*
X211876Y141699D01*
X211817Y141739D01*
X211756Y141776D01*
X211693Y141810D01*
X211628Y141840D01*
X211562Y141867D01*
X211495Y141891D01*
X211426Y141911D01*
X211357Y141927D01*
X211286Y141940D01*
X211216Y141950D01*
X211144Y141955D01*
X211073Y141957D01*
X212258Y141279D02*
X213274Y139417D01*
X211073Y145199D02*
X215814Y146554D01*
X211073Y145199D02*
X211073Y148586D01*
X212427Y147570D02*
X209718Y147570D01*
D12*
X106834Y347302D02*
X106834Y354414D01*
X104858Y354414D01*
X104771Y354412D01*
X104683Y354406D01*
X104596Y354397D01*
X104510Y354383D01*
X104424Y354366D01*
X104340Y354345D01*
X104256Y354320D01*
X104173Y354291D01*
X104092Y354259D01*
X104012Y354224D01*
X103934Y354185D01*
X103857Y354142D01*
X103783Y354096D01*
X103711Y354047D01*
X103641Y353995D01*
X103573Y353939D01*
X103508Y353881D01*
X103445Y353820D01*
X103386Y353756D01*
X103329Y353689D01*
X103275Y353621D01*
X103224Y353549D01*
X103177Y353476D01*
X103132Y353401D01*
X103091Y353323D01*
X103054Y353244D01*
X103020Y353164D01*
X102990Y353082D01*
X102963Y352999D01*
X102940Y352914D01*
X102921Y352829D01*
X102906Y352743D01*
X102894Y352656D01*
X102886Y352569D01*
X102882Y352482D01*
X102882Y352394D01*
X102886Y352307D01*
X102894Y352220D01*
X102906Y352133D01*
X102921Y352047D01*
X102940Y351962D01*
X102963Y351877D01*
X102990Y351794D01*
X103020Y351712D01*
X103054Y351632D01*
X103091Y351553D01*
X103132Y351475D01*
X103177Y351400D01*
X103224Y351327D01*
X103275Y351255D01*
X103329Y351187D01*
X103386Y351120D01*
X103445Y351056D01*
X103508Y350995D01*
X103573Y350937D01*
X103641Y350881D01*
X103711Y350829D01*
X103783Y350780D01*
X103857Y350734D01*
X103934Y350691D01*
X104012Y350652D01*
X104092Y350617D01*
X104173Y350585D01*
X104256Y350556D01*
X104340Y350531D01*
X104424Y350510D01*
X104510Y350493D01*
X104596Y350479D01*
X104683Y350470D01*
X104771Y350464D01*
X104858Y350462D01*
X104858Y350463D02*
X106834Y350463D01*
X104463Y350463D02*
X102883Y347302D01*
X100017Y351253D02*
X97646Y351253D01*
X97568Y351251D01*
X97491Y351245D01*
X97414Y351236D01*
X97338Y351223D01*
X97262Y351206D01*
X97187Y351185D01*
X97114Y351161D01*
X97041Y351133D01*
X96970Y351101D01*
X96901Y351066D01*
X96834Y351028D01*
X96768Y350987D01*
X96705Y350942D01*
X96644Y350894D01*
X96585Y350844D01*
X96529Y350790D01*
X96475Y350734D01*
X96425Y350675D01*
X96377Y350614D01*
X96332Y350551D01*
X96291Y350485D01*
X96253Y350418D01*
X96218Y350349D01*
X96186Y350278D01*
X96158Y350205D01*
X96134Y350132D01*
X96113Y350057D01*
X96096Y349981D01*
X96083Y349905D01*
X96074Y349828D01*
X96068Y349751D01*
X96066Y349673D01*
X96065Y349673D02*
X96065Y349278D01*
X96067Y349191D01*
X96073Y349103D01*
X96082Y349016D01*
X96096Y348930D01*
X96113Y348844D01*
X96134Y348760D01*
X96159Y348676D01*
X96188Y348593D01*
X96220Y348512D01*
X96255Y348432D01*
X96294Y348354D01*
X96337Y348277D01*
X96383Y348203D01*
X96432Y348131D01*
X96484Y348061D01*
X96540Y347993D01*
X96598Y347928D01*
X96659Y347865D01*
X96723Y347806D01*
X96790Y347749D01*
X96858Y347695D01*
X96930Y347644D01*
X97003Y347597D01*
X97078Y347552D01*
X97156Y347511D01*
X97235Y347474D01*
X97315Y347440D01*
X97397Y347410D01*
X97480Y347383D01*
X97565Y347360D01*
X97650Y347341D01*
X97736Y347326D01*
X97823Y347314D01*
X97910Y347306D01*
X97997Y347302D01*
X98085Y347302D01*
X98172Y347306D01*
X98259Y347314D01*
X98346Y347326D01*
X98432Y347341D01*
X98517Y347360D01*
X98602Y347383D01*
X98685Y347410D01*
X98767Y347440D01*
X98847Y347474D01*
X98926Y347511D01*
X99004Y347552D01*
X99079Y347597D01*
X99152Y347644D01*
X99224Y347695D01*
X99292Y347749D01*
X99359Y347806D01*
X99423Y347865D01*
X99484Y347928D01*
X99542Y347993D01*
X99598Y348061D01*
X99650Y348131D01*
X99699Y348203D01*
X99745Y348277D01*
X99788Y348354D01*
X99827Y348432D01*
X99862Y348512D01*
X99894Y348593D01*
X99923Y348676D01*
X99948Y348760D01*
X99969Y348844D01*
X99986Y348930D01*
X100000Y349016D01*
X100009Y349103D01*
X100015Y349191D01*
X100017Y349278D01*
X100017Y351253D01*
X100015Y351363D01*
X100009Y351474D01*
X100000Y351583D01*
X99986Y351693D01*
X99969Y351802D01*
X99948Y351910D01*
X99923Y352018D01*
X99895Y352124D01*
X99862Y352230D01*
X99826Y352334D01*
X99787Y352437D01*
X99744Y352539D01*
X99697Y352639D01*
X99647Y352737D01*
X99594Y352834D01*
X99537Y352928D01*
X99477Y353021D01*
X99413Y353111D01*
X99347Y353199D01*
X99277Y353285D01*
X99205Y353368D01*
X99130Y353449D01*
X99052Y353527D01*
X98971Y353602D01*
X98888Y353674D01*
X98802Y353744D01*
X98714Y353810D01*
X98624Y353874D01*
X98531Y353934D01*
X98437Y353991D01*
X98340Y354044D01*
X98242Y354094D01*
X98142Y354141D01*
X98040Y354184D01*
X97937Y354223D01*
X97833Y354259D01*
X97727Y354292D01*
X97621Y354320D01*
X97513Y354345D01*
X97405Y354366D01*
X97296Y354383D01*
X97186Y354397D01*
X97077Y354406D01*
X96966Y354412D01*
X96856Y354414D01*
D13*
X158971Y356019D02*
X158971Y346494D01*
M02*
