G04 EAGLE Gerber RS-274X export*
G75*
%MOMM*%
%FSLAX34Y34*%
%LPD*%
%INSoldermask Top*%
%IPPOS*%
%AMOC8*
5,1,8,0,0,1.08239X$1,22.5*%
G01*
%ADD10C,1.901600*%
%ADD11R,0.401600X0.951600*%
%ADD12R,0.951600X0.401600*%
%ADD13R,5.351600X5.351600*%
%ADD14C,0.384959*%
%ADD15C,0.605878*%
%ADD16C,0.508209*%
%ADD17R,1.901600X1.101600*%
%ADD18R,0.951600X1.051600*%
%ADD19R,1.879600X2.641600*%
%ADD20C,8.101600*%
%ADD21R,2.601600X1.301600*%
%ADD22C,0.225022*%
%ADD23R,1.101600X1.501600*%
%ADD24R,1.101600X1.201600*%
%ADD25R,0.601600X0.601600*%
%ADD26R,1.001600X0.601600*%
%ADD27C,1.201600*%


D10*
X260760Y58880D03*
X47760Y373880D03*
D11*
X164258Y311383D03*
X159258Y311383D03*
X154258Y311383D03*
X149258Y311383D03*
X144258Y311383D03*
X139258Y311383D03*
X134258Y311383D03*
X129258Y311383D03*
X124258Y311383D03*
X119258Y311383D03*
X114258Y311383D03*
X109258Y311383D03*
D12*
X101746Y303871D03*
X101746Y298871D03*
X101746Y293871D03*
X101746Y288871D03*
X101746Y283871D03*
X101746Y278871D03*
X101746Y273871D03*
X101746Y268871D03*
X101746Y263871D03*
X101746Y258871D03*
X101746Y253871D03*
X101746Y248871D03*
D11*
X109258Y241359D03*
X114258Y241359D03*
X119258Y241359D03*
X124258Y241359D03*
X129258Y241359D03*
X134258Y241359D03*
X139258Y241359D03*
X144258Y241359D03*
X149258Y241359D03*
X154258Y241359D03*
X159258Y241359D03*
X164258Y241359D03*
D12*
X171770Y248871D03*
X171770Y253871D03*
X171770Y258871D03*
X171770Y263871D03*
X171770Y268871D03*
X171770Y273871D03*
X171770Y278871D03*
X171770Y283871D03*
X171770Y288871D03*
X171770Y293871D03*
X171770Y298871D03*
X171770Y303871D03*
D13*
X136758Y276371D03*
D14*
X86630Y210511D02*
X84064Y210511D01*
X86630Y210511D02*
X86630Y207345D01*
X84064Y207345D01*
X84064Y210511D01*
X92664Y207345D02*
X95230Y207345D01*
X92664Y207345D02*
X92664Y210511D01*
X95230Y210511D01*
X95230Y207345D01*
X86630Y200224D02*
X84064Y200224D01*
X86630Y200224D02*
X86630Y197058D01*
X84064Y197058D01*
X84064Y200224D01*
X92664Y197058D02*
X95230Y197058D01*
X92664Y197058D02*
X92664Y200224D01*
X95230Y200224D01*
X95230Y197058D01*
X187690Y255983D02*
X190256Y255983D01*
X190256Y252817D01*
X187690Y252817D01*
X187690Y255983D01*
X196290Y252817D02*
X198856Y252817D01*
X196290Y252817D02*
X196290Y255983D01*
X198856Y255983D01*
X198856Y252817D01*
X198983Y243038D02*
X196417Y243038D01*
X196417Y246204D01*
X198983Y246204D01*
X198983Y243038D01*
X190383Y246204D02*
X187817Y246204D01*
X190383Y246204D02*
X190383Y243038D01*
X187817Y243038D01*
X187817Y246204D01*
X79955Y249588D02*
X77389Y249588D01*
X79955Y249588D02*
X79955Y246422D01*
X77389Y246422D01*
X77389Y249588D01*
X85989Y246422D02*
X88555Y246422D01*
X85989Y246422D02*
X85989Y249588D01*
X88555Y249588D01*
X88555Y246422D01*
X77356Y342363D02*
X77356Y344929D01*
X80522Y344929D01*
X80522Y342363D01*
X77356Y342363D01*
X80522Y350963D02*
X80522Y353529D01*
X80522Y350963D02*
X77356Y350963D01*
X77356Y353529D01*
X80522Y353529D01*
X80696Y335538D02*
X80696Y332972D01*
X77530Y332972D01*
X77530Y335538D01*
X80696Y335538D01*
X77530Y326938D02*
X77530Y324372D01*
X77530Y326938D02*
X80696Y326938D01*
X80696Y324372D01*
X77530Y324372D01*
X85276Y302220D02*
X87842Y302220D01*
X85276Y302220D02*
X85276Y305386D01*
X87842Y305386D01*
X87842Y302220D01*
X79242Y305386D02*
X76676Y305386D01*
X79242Y305386D02*
X79242Y302220D01*
X76676Y302220D01*
X76676Y305386D01*
X86006Y257262D02*
X88572Y257262D01*
X86006Y257262D02*
X86006Y260428D01*
X88572Y260428D01*
X88572Y257262D01*
X79972Y260428D02*
X77406Y260428D01*
X79972Y260428D02*
X79972Y257262D01*
X77406Y257262D01*
X77406Y260428D01*
X189595Y269572D02*
X192161Y269572D01*
X192161Y266406D01*
X189595Y266406D01*
X189595Y269572D01*
X198195Y266406D02*
X200761Y266406D01*
X198195Y266406D02*
X198195Y269572D01*
X200761Y269572D01*
X200761Y266406D01*
X190383Y236044D02*
X187817Y236044D01*
X190383Y236044D02*
X190383Y232878D01*
X187817Y232878D01*
X187817Y236044D01*
X196417Y232878D02*
X198983Y232878D01*
X196417Y232878D02*
X196417Y236044D01*
X198983Y236044D01*
X198983Y232878D01*
D15*
X181082Y222088D02*
X176124Y222088D01*
X181082Y222088D02*
X181082Y212930D01*
X176124Y212930D01*
X176124Y222088D01*
X176124Y218686D02*
X181082Y218686D01*
X194824Y212930D02*
X199782Y212930D01*
X194824Y212930D02*
X194824Y222088D01*
X199782Y222088D01*
X199782Y212930D01*
X199782Y218686D02*
X194824Y218686D01*
X130000Y213014D02*
X125042Y213014D01*
X125042Y222172D01*
X130000Y222172D01*
X130000Y213014D01*
X130000Y218770D02*
X125042Y218770D01*
X111300Y222172D02*
X106342Y222172D01*
X111300Y222172D02*
X111300Y213014D01*
X106342Y213014D01*
X106342Y222172D01*
X106342Y218770D02*
X111300Y218770D01*
D14*
X189595Y279224D02*
X192161Y279224D01*
X192161Y276058D01*
X189595Y276058D01*
X189595Y279224D01*
X198195Y276058D02*
X200761Y276058D01*
X198195Y276058D02*
X198195Y279224D01*
X200761Y279224D01*
X200761Y276058D01*
X178885Y308456D02*
X178885Y311022D01*
X182051Y311022D01*
X182051Y308456D01*
X178885Y308456D01*
X182051Y317056D02*
X182051Y319622D01*
X182051Y317056D02*
X178885Y317056D01*
X178885Y319622D01*
X182051Y319622D01*
D16*
X95527Y221684D02*
X91693Y221684D01*
X91693Y226918D01*
X95527Y226918D01*
X95527Y221684D01*
X95527Y226512D02*
X91693Y226512D01*
X79127Y226918D02*
X75293Y226918D01*
X79127Y226918D02*
X79127Y221684D01*
X75293Y221684D01*
X75293Y226918D01*
X75293Y226512D02*
X79127Y226512D01*
D15*
X159740Y212965D02*
X164698Y212965D01*
X159740Y212965D02*
X159740Y222123D01*
X164698Y222123D01*
X164698Y212965D01*
X164698Y218721D02*
X159740Y218721D01*
X145998Y222123D02*
X141040Y222123D01*
X145998Y222123D02*
X145998Y212965D01*
X141040Y212965D01*
X141040Y222123D01*
X141040Y218721D02*
X145998Y218721D01*
D17*
X95136Y351784D03*
X95136Y326784D03*
D18*
X198219Y308146D03*
X198219Y293646D03*
X209719Y293646D03*
X209719Y308146D03*
D14*
X179011Y352955D02*
X180885Y354708D01*
X179011Y352955D02*
X176849Y355266D01*
X178723Y357019D01*
X180885Y354708D01*
X179104Y356612D02*
X178288Y356612D01*
X172443Y351143D02*
X170569Y349390D01*
X172443Y351143D02*
X174605Y348832D01*
X172731Y347079D01*
X170569Y349390D01*
X172008Y350736D02*
X172824Y350736D01*
D19*
X38873Y114140D03*
D20*
X123873Y98640D02*
X173873Y98640D01*
D19*
X258873Y114140D03*
X38873Y83140D03*
X258873Y83140D03*
D21*
G36*
X253054Y242387D02*
X227040Y242614D01*
X227154Y255629D01*
X253168Y255402D01*
X253054Y242387D01*
G37*
G36*
X252766Y209388D02*
X226752Y209615D01*
X226866Y222630D01*
X252880Y222403D01*
X252766Y209388D01*
G37*
D22*
X159257Y329436D02*
X155991Y329436D01*
X155991Y330702D01*
X159257Y330702D01*
X159257Y329436D01*
X164191Y329436D02*
X167457Y329436D01*
X164191Y329436D02*
X164191Y330702D01*
X167457Y330702D01*
X167457Y329436D01*
X159257Y334436D02*
X155991Y334436D01*
X155991Y335702D01*
X159257Y335702D01*
X159257Y334436D01*
X164191Y334436D02*
X167457Y334436D01*
X164191Y334436D02*
X164191Y335702D01*
X167457Y335702D01*
X167457Y334436D01*
X159257Y324436D02*
X155991Y324436D01*
X155991Y325702D01*
X159257Y325702D01*
X159257Y324436D01*
X164191Y324436D02*
X167457Y324436D01*
X164191Y324436D02*
X164191Y325702D01*
X167457Y325702D01*
X167457Y324436D01*
D23*
X38635Y172175D03*
X29135Y194175D03*
X48135Y194175D03*
X38381Y240175D03*
X47881Y218175D03*
X28881Y218175D03*
D24*
X47000Y285500D03*
X47000Y268500D03*
X246136Y268977D03*
X246136Y285977D03*
X275000Y163500D03*
X275000Y180500D03*
X258000Y163500D03*
X258000Y180500D03*
D25*
X178884Y364904D03*
D26*
X200000Y365000D03*
D27*
X24000Y319527D03*
X23944Y306849D03*
X23960Y294156D03*
X24022Y281472D03*
X24000Y256000D03*
X24000Y268707D03*
D14*
X217366Y319971D02*
X219932Y319971D01*
X217366Y319971D02*
X217366Y323137D01*
X219932Y323137D01*
X219932Y319971D01*
X211332Y323137D02*
X208766Y323137D01*
X211332Y323137D02*
X211332Y319971D01*
X208766Y319971D01*
X208766Y323137D01*
X227519Y303441D02*
X227519Y300875D01*
X224353Y300875D01*
X224353Y303441D01*
X227519Y303441D01*
X224353Y294841D02*
X224353Y292275D01*
X224353Y294841D02*
X227519Y294841D01*
X227519Y292275D01*
X224353Y292275D01*
M02*
