G04 EAGLE Gerber RS-274X export*
G75*
%MOMM*%
%FSLAX34Y34*%
%LPD*%
%INSoldermask Bottom*%
%IPPOS*%
%AMOC8*
5,1,8,0,0,1.08239X$1,22.5*%
G01*
%ADD10C,1.901600*%
%ADD11R,0.863600X1.625600*%
%ADD12C,0.372125*%
%ADD13C,0.396575*%


D10*
X260760Y58880D03*
X47760Y373880D03*
D11*
X64942Y304939D03*
X64942Y249059D03*
X103042Y304939D03*
X103042Y249059D03*
X232416Y249068D03*
X232416Y304948D03*
X194316Y249068D03*
X194316Y304948D03*
X63942Y171190D03*
X63942Y115310D03*
X102042Y171190D03*
X102042Y115310D03*
X194196Y171518D03*
X194196Y115638D03*
X232296Y171518D03*
X232296Y115638D03*
D12*
X123256Y352396D02*
X120560Y352396D01*
X123256Y352396D02*
X123256Y349100D01*
X120560Y349100D01*
X120560Y352396D01*
X114616Y352396D02*
X111920Y352396D01*
X114616Y352396D02*
X114616Y349100D01*
X111920Y349100D01*
X111920Y352396D01*
D13*
X155391Y354781D02*
X155391Y347731D01*
X148341Y347731D01*
X148341Y354781D01*
X155391Y354781D01*
X155391Y351499D02*
X148341Y351499D01*
X137851Y354781D02*
X137851Y347731D01*
X130801Y347731D01*
X130801Y354781D01*
X137851Y354781D01*
X137851Y351499D02*
X130801Y351499D01*
M02*
