G04 EAGLE Gerber RS-274X export*
G75*
%MOMM*%
%FSLAX34Y34*%
%LPD*%
%INSoldermask Bottom*%
%IPPOS*%
%AMOC8*
5,1,8,0,0,1.08239X$1,22.5*%
G01*
%ADD10C,1.927000*%
%ADD11R,0.889000X1.651000*%
%ADD12C,0.400200*%
%ADD13C,0.428259*%


D10*
X260760Y58880D03*
X47760Y373880D03*
D11*
X64942Y304939D03*
X64942Y249059D03*
X103042Y304939D03*
X103042Y249059D03*
X232416Y249068D03*
X232416Y304948D03*
X194316Y249068D03*
X194316Y304948D03*
X63942Y171190D03*
X63942Y115310D03*
X102042Y171190D03*
X102042Y115310D03*
X194196Y171518D03*
X194196Y115638D03*
X232296Y171518D03*
X232296Y115638D03*
D12*
X123242Y352382D02*
X120574Y352382D01*
X123242Y352382D02*
X123242Y349114D01*
X120574Y349114D01*
X120574Y352382D01*
X114602Y352382D02*
X111934Y352382D01*
X114602Y352382D02*
X114602Y349114D01*
X111934Y349114D01*
X111934Y352382D01*
D13*
X155360Y354750D02*
X155360Y347762D01*
X148372Y347762D01*
X148372Y354750D01*
X155360Y354750D01*
X155360Y351831D02*
X148372Y351831D01*
X137820Y354750D02*
X137820Y347762D01*
X130832Y347762D01*
X130832Y354750D01*
X137820Y354750D01*
X137820Y351831D02*
X130832Y351831D01*
M02*
