G04 EAGLE Gerber RS-274X export*
G75*
%MOMM*%
%FSLAX34Y34*%
%LPD*%
%IN*%
%IPPOS*%
%AMOC8*
5,1,8,0,0,1.08239X$1,22.5*%
G01*
%ADD10C,0.254000*%


D10*
X2000Y2405D02*
X294000Y2405D01*
X294000Y270000D01*
X287000Y367000D01*
X286804Y370698D01*
X286189Y375369D01*
X285169Y379969D01*
X283752Y384463D01*
X281949Y388816D01*
X279774Y392995D01*
X277242Y396969D01*
X274374Y400707D01*
X271190Y404181D01*
X267717Y407364D01*
X263979Y410233D01*
X260005Y412764D01*
X255825Y414940D01*
X251472Y416743D01*
X246979Y418160D01*
X242379Y419179D01*
X237707Y419794D01*
X233000Y420000D01*
X63000Y420000D01*
X61281Y419973D01*
X56489Y419614D01*
X51746Y418838D01*
X47089Y417652D01*
X42553Y416065D01*
X38173Y414088D01*
X33982Y411737D01*
X30011Y409030D01*
X26292Y405987D01*
X22852Y402631D01*
X19717Y398989D01*
X16912Y395086D01*
X14458Y390955D01*
X12373Y386625D01*
X10673Y382130D01*
X9372Y377504D01*
X8478Y372782D01*
X8000Y368000D01*
X2000Y268000D01*
X2000Y2405D01*
X269760Y58487D02*
X269692Y57704D01*
X269555Y56930D01*
X269352Y56171D01*
X269083Y55433D01*
X268751Y54720D01*
X268358Y54040D01*
X267907Y53396D01*
X267402Y52794D01*
X266846Y52238D01*
X266244Y51733D01*
X265600Y51282D01*
X264920Y50889D01*
X264207Y50557D01*
X263469Y50288D01*
X262710Y50085D01*
X261936Y49949D01*
X261153Y49880D01*
X260367Y49880D01*
X259584Y49949D01*
X258810Y50085D01*
X258051Y50288D01*
X257313Y50557D01*
X256600Y50889D01*
X255920Y51282D01*
X255276Y51733D01*
X254674Y52238D01*
X254118Y52794D01*
X253613Y53396D01*
X253162Y54040D01*
X252769Y54720D01*
X252437Y55433D01*
X252168Y56171D01*
X251965Y56930D01*
X251829Y57704D01*
X251760Y58487D01*
X251760Y59273D01*
X251829Y60056D01*
X251965Y60830D01*
X252168Y61589D01*
X252437Y62327D01*
X252769Y63040D01*
X253162Y63720D01*
X253613Y64364D01*
X254118Y64966D01*
X254674Y65522D01*
X255276Y66027D01*
X255920Y66478D01*
X256600Y66871D01*
X257313Y67203D01*
X258051Y67472D01*
X258810Y67675D01*
X259584Y67812D01*
X260367Y67880D01*
X261153Y67880D01*
X261936Y67812D01*
X262710Y67675D01*
X263469Y67472D01*
X264207Y67203D01*
X264920Y66871D01*
X265600Y66478D01*
X266244Y66027D01*
X266846Y65522D01*
X267402Y64966D01*
X267907Y64364D01*
X268358Y63720D01*
X268751Y63040D01*
X269083Y62327D01*
X269352Y61589D01*
X269555Y60830D01*
X269692Y60056D01*
X269760Y59273D01*
X269760Y58487D01*
X56760Y373487D02*
X56692Y372704D01*
X56555Y371930D01*
X56352Y371171D01*
X56083Y370433D01*
X55751Y369720D01*
X55358Y369040D01*
X54907Y368396D01*
X54402Y367794D01*
X53846Y367238D01*
X53244Y366733D01*
X52600Y366282D01*
X51920Y365889D01*
X51207Y365557D01*
X50469Y365288D01*
X49710Y365085D01*
X48936Y364949D01*
X48153Y364880D01*
X47367Y364880D01*
X46584Y364949D01*
X45810Y365085D01*
X45051Y365288D01*
X44313Y365557D01*
X43600Y365889D01*
X42920Y366282D01*
X42276Y366733D01*
X41674Y367238D01*
X41118Y367794D01*
X40613Y368396D01*
X40162Y369040D01*
X39769Y369720D01*
X39437Y370433D01*
X39168Y371171D01*
X38965Y371930D01*
X38829Y372704D01*
X38760Y373487D01*
X38760Y374273D01*
X38829Y375056D01*
X38965Y375830D01*
X39168Y376589D01*
X39437Y377327D01*
X39769Y378040D01*
X40162Y378720D01*
X40613Y379364D01*
X41118Y379966D01*
X41674Y380522D01*
X42276Y381027D01*
X42920Y381478D01*
X43600Y381871D01*
X44313Y382203D01*
X45051Y382472D01*
X45810Y382675D01*
X46584Y382812D01*
X47367Y382880D01*
X48153Y382880D01*
X48936Y382812D01*
X49710Y382675D01*
X50469Y382472D01*
X51207Y382203D01*
X51920Y381871D01*
X52600Y381478D01*
X53244Y381027D01*
X53846Y380522D01*
X54402Y379966D01*
X54907Y379364D01*
X55358Y378720D01*
X55751Y378040D01*
X56083Y377327D01*
X56352Y376589D01*
X56555Y375830D01*
X56692Y375056D01*
X56760Y374273D01*
X56760Y373487D01*
M02*
