G04 EAGLE Gerber RS-274X export*
G75*
%MOMM*%
%FSLAX34Y34*%
%LPD*%
%INSilkscreen Bottom*%
%IPPOS*%
%AMOC8*
5,1,8,0,0,1.08239X$1,22.5*%
G01*
%ADD10C,0.152400*%
%ADD11C,0.101600*%
%ADD12C,0.203200*%
%ADD13C,0.050800*%
%ADD14C,0.127000*%


D10*
X24601Y16110D02*
X24575Y19835D01*
X28317Y17378D02*
X19004Y17313D01*
X19004Y17312D02*
X18918Y17313D01*
X18832Y17319D01*
X18746Y17328D01*
X18661Y17341D01*
X18577Y17359D01*
X18494Y17380D01*
X18411Y17404D01*
X18330Y17433D01*
X18250Y17466D01*
X18172Y17502D01*
X18096Y17541D01*
X18021Y17584D01*
X17949Y17631D01*
X17879Y17680D01*
X17811Y17733D01*
X17746Y17790D01*
X17683Y17848D01*
X17623Y17910D01*
X17566Y17975D01*
X17512Y18042D01*
X17461Y18111D01*
X17414Y18183D01*
X17370Y18257D01*
X17329Y18333D01*
X17292Y18411D01*
X17259Y18490D01*
X17229Y18571D01*
X17203Y18653D01*
X17181Y18736D01*
X17162Y18820D01*
X17148Y18905D01*
X17137Y18990D01*
X17131Y19076D01*
X17128Y19162D01*
X17129Y19162D02*
X17124Y19783D01*
X17096Y23821D02*
X17717Y23826D01*
X17713Y24446D01*
X17092Y24442D01*
X17096Y23821D01*
X17056Y29550D02*
X24507Y29602D01*
X24468Y35190D01*
X24465Y35274D01*
X24459Y35357D01*
X24449Y35440D01*
X24436Y35522D01*
X24418Y35604D01*
X24397Y35685D01*
X24373Y35765D01*
X24345Y35844D01*
X24313Y35921D01*
X24278Y35997D01*
X24239Y36071D01*
X24198Y36144D01*
X24153Y36214D01*
X24105Y36283D01*
X24053Y36349D01*
X23999Y36413D01*
X23943Y36474D01*
X23883Y36533D01*
X23821Y36588D01*
X23756Y36642D01*
X23689Y36692D01*
X23620Y36739D01*
X23549Y36783D01*
X23476Y36824D01*
X23402Y36861D01*
X23325Y36895D01*
X23247Y36926D01*
X23168Y36953D01*
X23088Y36976D01*
X23007Y36996D01*
X22925Y37012D01*
X22842Y37025D01*
X22759Y37034D01*
X22676Y37039D01*
X22592Y37040D01*
X17004Y37001D01*
X17030Y33275D02*
X24481Y33327D01*
X16952Y44465D02*
X16930Y47570D01*
X16952Y44465D02*
X16955Y44381D01*
X16961Y44298D01*
X16971Y44215D01*
X16984Y44133D01*
X17002Y44051D01*
X17023Y43970D01*
X17047Y43890D01*
X17075Y43811D01*
X17107Y43734D01*
X17142Y43658D01*
X17181Y43584D01*
X17222Y43511D01*
X17267Y43441D01*
X17315Y43372D01*
X17367Y43306D01*
X17421Y43242D01*
X17477Y43181D01*
X17537Y43122D01*
X17599Y43066D01*
X17664Y43013D01*
X17731Y42963D01*
X17800Y42916D01*
X17871Y42872D01*
X17944Y42831D01*
X18018Y42794D01*
X18095Y42760D01*
X18173Y42729D01*
X18252Y42702D01*
X18332Y42679D01*
X18413Y42659D01*
X18495Y42643D01*
X18578Y42630D01*
X18661Y42621D01*
X18744Y42616D01*
X18828Y42615D01*
X18828Y42616D02*
X21932Y42637D01*
X22031Y42640D01*
X22130Y42646D01*
X22228Y42657D01*
X22326Y42671D01*
X22423Y42689D01*
X22519Y42712D01*
X22614Y42737D01*
X22708Y42767D01*
X22801Y42801D01*
X22893Y42838D01*
X22983Y42878D01*
X23071Y42923D01*
X23158Y42970D01*
X23242Y43021D01*
X23325Y43076D01*
X23405Y43133D01*
X23483Y43194D01*
X23558Y43258D01*
X23631Y43325D01*
X23701Y43395D01*
X23768Y43467D01*
X23832Y43542D01*
X23894Y43619D01*
X23952Y43699D01*
X24007Y43781D01*
X24058Y43866D01*
X24107Y43952D01*
X24151Y44040D01*
X24193Y44130D01*
X24230Y44221D01*
X24264Y44314D01*
X24294Y44408D01*
X24321Y44503D01*
X24344Y44599D01*
X24362Y44696D01*
X24377Y44794D01*
X24388Y44892D01*
X24396Y44990D01*
X24399Y45089D01*
X24398Y45188D01*
X24393Y45286D01*
X24385Y45385D01*
X24373Y45483D01*
X24356Y45580D01*
X24336Y45677D01*
X24312Y45773D01*
X24284Y45867D01*
X24253Y45961D01*
X24217Y46053D01*
X24178Y46144D01*
X24136Y46233D01*
X24090Y46321D01*
X24041Y46406D01*
X23988Y46490D01*
X23932Y46571D01*
X23873Y46650D01*
X23810Y46727D01*
X23745Y46801D01*
X23677Y46872D01*
X23606Y46941D01*
X23532Y47007D01*
X23456Y47069D01*
X23377Y47129D01*
X23296Y47186D01*
X23213Y47239D01*
X23128Y47289D01*
X23040Y47335D01*
X22952Y47378D01*
X22861Y47418D01*
X22769Y47454D01*
X22675Y47486D01*
X22581Y47514D01*
X22485Y47539D01*
X22389Y47559D01*
X22291Y47576D01*
X22193Y47589D01*
X22095Y47598D01*
X21996Y47604D01*
X21898Y47605D01*
X21897Y47604D02*
X20656Y47596D01*
X20690Y42629D01*
X15657Y52119D02*
X29281Y57181D01*
X27974Y66623D02*
X16798Y66545D01*
X16820Y63441D01*
X16819Y63441D02*
X16822Y63357D01*
X16828Y63274D01*
X16838Y63191D01*
X16851Y63109D01*
X16869Y63027D01*
X16890Y62946D01*
X16914Y62866D01*
X16942Y62787D01*
X16974Y62710D01*
X17009Y62634D01*
X17048Y62560D01*
X17089Y62487D01*
X17134Y62417D01*
X17182Y62348D01*
X17234Y62282D01*
X17288Y62218D01*
X17344Y62157D01*
X17404Y62098D01*
X17466Y62042D01*
X17531Y61989D01*
X17598Y61939D01*
X17667Y61892D01*
X17738Y61848D01*
X17811Y61807D01*
X17885Y61770D01*
X17962Y61736D01*
X18040Y61705D01*
X18119Y61678D01*
X18199Y61655D01*
X18280Y61635D01*
X18362Y61619D01*
X18445Y61606D01*
X18528Y61597D01*
X18611Y61592D01*
X18695Y61591D01*
X22420Y61617D01*
X22504Y61620D01*
X22587Y61626D01*
X22670Y61636D01*
X22752Y61649D01*
X22834Y61667D01*
X22915Y61688D01*
X22995Y61712D01*
X23074Y61740D01*
X23151Y61772D01*
X23227Y61807D01*
X23301Y61846D01*
X23374Y61887D01*
X23444Y61932D01*
X23513Y61980D01*
X23579Y62032D01*
X23643Y62086D01*
X23704Y62142D01*
X23763Y62202D01*
X23818Y62264D01*
X23872Y62329D01*
X23922Y62396D01*
X23969Y62465D01*
X24013Y62536D01*
X24054Y62609D01*
X24091Y62683D01*
X24125Y62760D01*
X24156Y62838D01*
X24183Y62917D01*
X24206Y62997D01*
X24226Y63078D01*
X24242Y63160D01*
X24255Y63243D01*
X24264Y63326D01*
X24269Y63409D01*
X24270Y63493D01*
X24248Y66597D01*
X16747Y73801D02*
X16726Y76906D01*
X16747Y73801D02*
X16750Y73717D01*
X16756Y73634D01*
X16766Y73551D01*
X16779Y73469D01*
X16797Y73387D01*
X16818Y73306D01*
X16842Y73226D01*
X16870Y73147D01*
X16902Y73070D01*
X16937Y72994D01*
X16976Y72920D01*
X17017Y72847D01*
X17062Y72777D01*
X17110Y72708D01*
X17162Y72642D01*
X17216Y72578D01*
X17272Y72517D01*
X17332Y72458D01*
X17394Y72402D01*
X17459Y72349D01*
X17526Y72299D01*
X17595Y72252D01*
X17666Y72208D01*
X17739Y72167D01*
X17813Y72130D01*
X17890Y72096D01*
X17968Y72065D01*
X18047Y72038D01*
X18127Y72015D01*
X18208Y71995D01*
X18290Y71979D01*
X18373Y71966D01*
X18456Y71957D01*
X18539Y71952D01*
X18623Y71951D01*
X18623Y71952D02*
X21727Y71973D01*
X21826Y71976D01*
X21925Y71982D01*
X22023Y71993D01*
X22121Y72007D01*
X22218Y72025D01*
X22314Y72048D01*
X22409Y72073D01*
X22503Y72103D01*
X22596Y72137D01*
X22688Y72174D01*
X22778Y72214D01*
X22866Y72259D01*
X22953Y72306D01*
X23037Y72357D01*
X23120Y72412D01*
X23200Y72469D01*
X23278Y72530D01*
X23353Y72594D01*
X23426Y72661D01*
X23496Y72731D01*
X23563Y72803D01*
X23627Y72878D01*
X23689Y72955D01*
X23747Y73035D01*
X23802Y73117D01*
X23853Y73202D01*
X23902Y73288D01*
X23946Y73376D01*
X23988Y73466D01*
X24025Y73557D01*
X24059Y73650D01*
X24089Y73744D01*
X24116Y73839D01*
X24139Y73935D01*
X24157Y74032D01*
X24172Y74130D01*
X24183Y74228D01*
X24191Y74326D01*
X24194Y74425D01*
X24193Y74524D01*
X24188Y74622D01*
X24180Y74721D01*
X24168Y74819D01*
X24151Y74916D01*
X24131Y75013D01*
X24107Y75109D01*
X24079Y75203D01*
X24048Y75297D01*
X24012Y75389D01*
X23973Y75480D01*
X23931Y75569D01*
X23885Y75657D01*
X23836Y75742D01*
X23783Y75826D01*
X23727Y75907D01*
X23668Y75986D01*
X23605Y76063D01*
X23540Y76137D01*
X23472Y76208D01*
X23401Y76277D01*
X23327Y76343D01*
X23251Y76405D01*
X23172Y76465D01*
X23091Y76522D01*
X23008Y76575D01*
X22923Y76625D01*
X22835Y76671D01*
X22747Y76714D01*
X22656Y76754D01*
X22564Y76790D01*
X22470Y76822D01*
X22376Y76850D01*
X22280Y76875D01*
X22184Y76895D01*
X22086Y76912D01*
X21988Y76925D01*
X21890Y76934D01*
X21791Y76940D01*
X21693Y76941D01*
X21693Y76940D02*
X20451Y76932D01*
X20486Y71965D01*
X21023Y83974D02*
X21003Y86768D01*
X21023Y83974D02*
X21022Y83882D01*
X21016Y83790D01*
X21007Y83698D01*
X20994Y83607D01*
X20977Y83516D01*
X20957Y83426D01*
X20932Y83337D01*
X20904Y83249D01*
X20872Y83163D01*
X20836Y83078D01*
X20797Y82994D01*
X20754Y82913D01*
X20708Y82833D01*
X20659Y82755D01*
X20606Y82679D01*
X20550Y82606D01*
X20491Y82535D01*
X20429Y82466D01*
X20365Y82401D01*
X20297Y82338D01*
X20227Y82278D01*
X20154Y82221D01*
X20079Y82167D01*
X20002Y82117D01*
X19923Y82069D01*
X19842Y82026D01*
X19759Y81985D01*
X19674Y81948D01*
X19588Y81915D01*
X19501Y81886D01*
X19412Y81860D01*
X19323Y81838D01*
X19232Y81820D01*
X19141Y81806D01*
X19049Y81795D01*
X18957Y81789D01*
X18865Y81786D01*
X18773Y81787D01*
X18681Y81793D01*
X18589Y81802D01*
X18498Y81815D01*
X18407Y81832D01*
X18317Y81852D01*
X18228Y81877D01*
X18140Y81905D01*
X18054Y81937D01*
X17969Y81973D01*
X17885Y82012D01*
X17804Y82055D01*
X17724Y82101D01*
X17646Y82150D01*
X17570Y82203D01*
X17497Y82259D01*
X17426Y82318D01*
X17357Y82380D01*
X17292Y82445D01*
X17229Y82512D01*
X17169Y82582D01*
X17112Y82655D01*
X17058Y82730D01*
X17008Y82807D01*
X16960Y82886D01*
X16917Y82967D01*
X16876Y83050D01*
X16839Y83135D01*
X16806Y83221D01*
X16777Y83308D01*
X16751Y83397D01*
X16729Y83486D01*
X16711Y83577D01*
X16697Y83668D01*
X16686Y83760D01*
X16680Y83852D01*
X16677Y83944D01*
X16676Y83944D02*
X16657Y86738D01*
X22245Y86777D01*
X22331Y86776D01*
X22417Y86770D01*
X22502Y86761D01*
X22588Y86748D01*
X22672Y86730D01*
X22755Y86709D01*
X22838Y86685D01*
X22919Y86656D01*
X22999Y86623D01*
X23077Y86587D01*
X23153Y86548D01*
X23228Y86505D01*
X23300Y86458D01*
X23370Y86409D01*
X23438Y86356D01*
X23503Y86300D01*
X23566Y86241D01*
X23626Y86179D01*
X23683Y86114D01*
X23737Y86047D01*
X23788Y85978D01*
X23835Y85906D01*
X23879Y85832D01*
X23920Y85756D01*
X23957Y85678D01*
X23990Y85599D01*
X24020Y85518D01*
X24046Y85436D01*
X24068Y85353D01*
X24087Y85269D01*
X24101Y85184D01*
X24112Y85099D01*
X24118Y85013D01*
X24121Y84927D01*
X24120Y84927D02*
X24138Y82444D01*
X16622Y91750D02*
X24038Y96769D01*
X24073Y91802D02*
X16587Y96717D01*
X16558Y100894D02*
X23974Y105913D01*
X24009Y100946D02*
X16524Y105861D01*
D11*
X32707Y315236D02*
X32658Y322347D01*
X34633Y322361D02*
X30682Y322334D01*
X27469Y322311D02*
X27519Y315199D01*
X25126Y318344D02*
X27469Y322311D01*
X25126Y318344D02*
X22728Y322278D01*
X22778Y315166D01*
X16951Y315125D02*
X16873Y315126D01*
X16796Y315132D01*
X16719Y315141D01*
X16642Y315153D01*
X16566Y315170D01*
X16492Y315190D01*
X16418Y315214D01*
X16345Y315241D01*
X16274Y315272D01*
X16204Y315307D01*
X16137Y315344D01*
X16071Y315385D01*
X16007Y315430D01*
X15946Y315477D01*
X15886Y315527D01*
X15830Y315580D01*
X15776Y315636D01*
X15725Y315695D01*
X15677Y315755D01*
X15632Y315818D01*
X15590Y315884D01*
X15551Y315951D01*
X15516Y316020D01*
X15484Y316091D01*
X15455Y316163D01*
X15430Y316236D01*
X15409Y316311D01*
X15392Y316387D01*
X15378Y316463D01*
X15368Y316540D01*
X15361Y316617D01*
X15359Y316695D01*
X16951Y315125D02*
X17066Y315128D01*
X17180Y315135D01*
X17294Y315145D01*
X17408Y315160D01*
X17521Y315178D01*
X17633Y315200D01*
X17745Y315227D01*
X17856Y315256D01*
X17965Y315290D01*
X18073Y315328D01*
X18180Y315369D01*
X18286Y315414D01*
X18390Y315462D01*
X18492Y315514D01*
X18592Y315569D01*
X18691Y315628D01*
X18787Y315690D01*
X18881Y315756D01*
X18973Y315825D01*
X19062Y315896D01*
X19149Y315971D01*
X19233Y316049D01*
X19315Y316129D01*
X19085Y320672D02*
X19083Y320750D01*
X19076Y320827D01*
X19066Y320904D01*
X19052Y320980D01*
X19035Y321056D01*
X19014Y321130D01*
X18989Y321204D01*
X18960Y321276D01*
X18929Y321346D01*
X18893Y321416D01*
X18855Y321483D01*
X18813Y321548D01*
X18767Y321611D01*
X18719Y321672D01*
X18668Y321730D01*
X18614Y321786D01*
X18558Y321839D01*
X18499Y321889D01*
X18437Y321937D01*
X18374Y321981D01*
X18308Y322022D01*
X18240Y322060D01*
X18171Y322094D01*
X18099Y322125D01*
X18027Y322152D01*
X17953Y322176D01*
X17878Y322196D01*
X17802Y322213D01*
X17726Y322225D01*
X17649Y322234D01*
X17571Y322240D01*
X17494Y322241D01*
X17493Y322241D02*
X17387Y322238D01*
X17282Y322232D01*
X17176Y322222D01*
X17071Y322208D01*
X16967Y322190D01*
X16863Y322169D01*
X16760Y322143D01*
X16658Y322115D01*
X16557Y322082D01*
X16458Y322046D01*
X16359Y322007D01*
X16263Y321964D01*
X16167Y321917D01*
X16074Y321868D01*
X15982Y321814D01*
X15893Y321758D01*
X15805Y321699D01*
X15720Y321636D01*
X18304Y319284D02*
X18372Y319326D01*
X18436Y319372D01*
X18499Y319421D01*
X18559Y319473D01*
X18616Y319528D01*
X18671Y319585D01*
X18723Y319645D01*
X18771Y319708D01*
X18817Y319773D01*
X18859Y319840D01*
X18898Y319909D01*
X18933Y319980D01*
X18965Y320053D01*
X18994Y320127D01*
X19018Y320203D01*
X19039Y320279D01*
X19056Y320357D01*
X19069Y320435D01*
X19078Y320514D01*
X19084Y320593D01*
X19085Y320672D01*
X16140Y318083D02*
X16072Y318041D01*
X16008Y317995D01*
X15945Y317946D01*
X15885Y317894D01*
X15828Y317839D01*
X15773Y317782D01*
X15721Y317722D01*
X15673Y317659D01*
X15627Y317594D01*
X15585Y317527D01*
X15546Y317458D01*
X15511Y317387D01*
X15479Y317314D01*
X15450Y317240D01*
X15426Y317164D01*
X15405Y317088D01*
X15388Y317010D01*
X15375Y316932D01*
X15366Y316853D01*
X15360Y316774D01*
X15359Y316695D01*
X16140Y318083D02*
X18305Y319284D01*
X30602Y308333D02*
X30652Y301221D01*
X32577Y308347D02*
X28626Y308319D01*
X24247Y301176D02*
X22666Y301165D01*
X24247Y301177D02*
X24325Y301179D01*
X24402Y301186D01*
X24479Y301196D01*
X24555Y301210D01*
X24631Y301227D01*
X24705Y301248D01*
X24779Y301273D01*
X24851Y301302D01*
X24921Y301333D01*
X24991Y301369D01*
X25058Y301407D01*
X25123Y301449D01*
X25186Y301495D01*
X25247Y301543D01*
X25305Y301594D01*
X25361Y301648D01*
X25414Y301704D01*
X25464Y301763D01*
X25512Y301825D01*
X25556Y301888D01*
X25597Y301954D01*
X25635Y302022D01*
X25669Y302091D01*
X25700Y302163D01*
X25727Y302235D01*
X25751Y302309D01*
X25771Y302384D01*
X25788Y302460D01*
X25800Y302536D01*
X25809Y302613D01*
X25815Y302691D01*
X25816Y302768D01*
X25788Y306719D01*
X25786Y306797D01*
X25779Y306874D01*
X25769Y306951D01*
X25755Y307027D01*
X25738Y307103D01*
X25717Y307177D01*
X25692Y307251D01*
X25663Y307323D01*
X25632Y307393D01*
X25596Y307463D01*
X25558Y307530D01*
X25516Y307595D01*
X25470Y307658D01*
X25422Y307719D01*
X25371Y307777D01*
X25317Y307833D01*
X25261Y307886D01*
X25202Y307936D01*
X25140Y307984D01*
X25077Y308028D01*
X25011Y308069D01*
X24943Y308107D01*
X24874Y308141D01*
X24802Y308172D01*
X24730Y308199D01*
X24656Y308223D01*
X24581Y308243D01*
X24505Y308260D01*
X24429Y308272D01*
X24352Y308281D01*
X24275Y308287D01*
X24197Y308288D01*
X22617Y308277D01*
X19272Y308254D02*
X19321Y301142D01*
X19302Y303908D02*
X15321Y308226D01*
X17711Y305477D02*
X15370Y301114D01*
X31926Y296342D02*
X31976Y289230D01*
X33902Y296356D02*
X29951Y296328D01*
X26830Y296307D02*
X26880Y289195D01*
X26830Y296307D02*
X24855Y296293D01*
X24769Y296290D01*
X24683Y296284D01*
X24597Y296274D01*
X24512Y296261D01*
X24428Y296243D01*
X24344Y296222D01*
X24262Y296197D01*
X24180Y296169D01*
X24100Y296137D01*
X24021Y296102D01*
X23944Y296063D01*
X23869Y296021D01*
X23796Y295976D01*
X23724Y295928D01*
X23655Y295876D01*
X23588Y295822D01*
X23524Y295765D01*
X23462Y295704D01*
X23403Y295642D01*
X23346Y295577D01*
X23293Y295509D01*
X23242Y295439D01*
X23195Y295367D01*
X23151Y295293D01*
X23110Y295217D01*
X23072Y295140D01*
X23038Y295060D01*
X23007Y294980D01*
X22980Y294898D01*
X22957Y294815D01*
X22937Y294731D01*
X22921Y294647D01*
X22908Y294561D01*
X22899Y294475D01*
X22894Y294389D01*
X22893Y294303D01*
X22893Y294304D02*
X22915Y291143D01*
X22918Y291057D01*
X22924Y290971D01*
X22934Y290885D01*
X22947Y290800D01*
X22965Y290716D01*
X22986Y290632D01*
X23011Y290550D01*
X23039Y290468D01*
X23071Y290388D01*
X23106Y290309D01*
X23145Y290232D01*
X23187Y290157D01*
X23232Y290084D01*
X23280Y290012D01*
X23332Y289943D01*
X23386Y289876D01*
X23444Y289812D01*
X23504Y289750D01*
X23566Y289691D01*
X23631Y289634D01*
X23699Y289581D01*
X23769Y289530D01*
X23841Y289483D01*
X23915Y289439D01*
X23991Y289398D01*
X24068Y289360D01*
X24148Y289326D01*
X24228Y289295D01*
X24310Y289268D01*
X24393Y289245D01*
X24477Y289225D01*
X24562Y289209D01*
X24647Y289196D01*
X24733Y289187D01*
X24819Y289182D01*
X24905Y289181D01*
X26880Y289195D01*
X19307Y291118D02*
X19285Y294278D01*
X19286Y294279D02*
X19283Y294366D01*
X19277Y294453D01*
X19267Y294540D01*
X19253Y294626D01*
X19235Y294712D01*
X19213Y294797D01*
X19188Y294880D01*
X19159Y294963D01*
X19126Y295044D01*
X19090Y295124D01*
X19050Y295201D01*
X19007Y295277D01*
X18960Y295352D01*
X18911Y295423D01*
X18858Y295493D01*
X18802Y295560D01*
X18743Y295625D01*
X18682Y295687D01*
X18618Y295747D01*
X18551Y295803D01*
X18482Y295856D01*
X18410Y295907D01*
X18336Y295954D01*
X18261Y295997D01*
X18183Y296038D01*
X18104Y296075D01*
X18023Y296108D01*
X17941Y296138D01*
X17857Y296164D01*
X17773Y296186D01*
X17687Y296205D01*
X17601Y296219D01*
X17514Y296230D01*
X17427Y296238D01*
X17340Y296241D01*
X17253Y296240D01*
X17165Y296236D01*
X17078Y296227D01*
X16992Y296215D01*
X16906Y296199D01*
X16820Y296179D01*
X16736Y296156D01*
X16653Y296129D01*
X16571Y296098D01*
X16491Y296063D01*
X16412Y296025D01*
X16335Y295984D01*
X16260Y295939D01*
X16187Y295891D01*
X16116Y295840D01*
X16048Y295785D01*
X15982Y295728D01*
X15918Y295668D01*
X15858Y295605D01*
X15800Y295539D01*
X15745Y295471D01*
X15693Y295401D01*
X15645Y295328D01*
X15599Y295254D01*
X15557Y295177D01*
X15518Y295099D01*
X15483Y295019D01*
X15452Y294937D01*
X15424Y294854D01*
X15400Y294770D01*
X15379Y294685D01*
X15362Y294599D01*
X15350Y294513D01*
X15341Y294426D01*
X15335Y294339D01*
X15334Y294251D01*
X15356Y291090D01*
X15359Y291003D01*
X15365Y290916D01*
X15375Y290829D01*
X15389Y290743D01*
X15407Y290657D01*
X15429Y290572D01*
X15454Y290489D01*
X15483Y290406D01*
X15516Y290325D01*
X15552Y290245D01*
X15592Y290168D01*
X15635Y290092D01*
X15682Y290017D01*
X15731Y289946D01*
X15784Y289876D01*
X15840Y289809D01*
X15899Y289744D01*
X15960Y289682D01*
X16024Y289622D01*
X16091Y289566D01*
X16160Y289513D01*
X16232Y289462D01*
X16306Y289415D01*
X16381Y289372D01*
X16459Y289331D01*
X16538Y289294D01*
X16619Y289261D01*
X16701Y289231D01*
X16785Y289205D01*
X16869Y289183D01*
X16955Y289164D01*
X17041Y289150D01*
X17128Y289139D01*
X17215Y289131D01*
X17302Y289128D01*
X17390Y289129D01*
X17477Y289133D01*
X17564Y289142D01*
X17650Y289154D01*
X17736Y289170D01*
X17822Y289190D01*
X17906Y289213D01*
X17989Y289240D01*
X18071Y289271D01*
X18151Y289306D01*
X18230Y289344D01*
X18307Y289385D01*
X18382Y289430D01*
X18455Y289478D01*
X18526Y289529D01*
X18594Y289584D01*
X18660Y289641D01*
X18724Y289701D01*
X18784Y289764D01*
X18842Y289830D01*
X18897Y289898D01*
X18949Y289968D01*
X18997Y290041D01*
X19043Y290115D01*
X19085Y290192D01*
X19124Y290270D01*
X19159Y290350D01*
X19190Y290432D01*
X19218Y290515D01*
X19242Y290599D01*
X19263Y290684D01*
X19280Y290770D01*
X19292Y290856D01*
X19301Y290943D01*
X19307Y291030D01*
X19308Y291118D01*
X29278Y284324D02*
X29327Y277212D01*
X31253Y284338D02*
X27302Y284310D01*
X24182Y284288D02*
X24232Y277176D01*
X24182Y284288D02*
X22207Y284274D01*
X22206Y284275D02*
X22120Y284272D01*
X22034Y284266D01*
X21948Y284256D01*
X21863Y284243D01*
X21779Y284225D01*
X21695Y284204D01*
X21613Y284179D01*
X21531Y284151D01*
X21451Y284119D01*
X21372Y284084D01*
X21295Y284045D01*
X21220Y284003D01*
X21147Y283958D01*
X21075Y283910D01*
X21006Y283858D01*
X20939Y283804D01*
X20875Y283747D01*
X20813Y283686D01*
X20754Y283624D01*
X20697Y283559D01*
X20644Y283491D01*
X20593Y283421D01*
X20546Y283349D01*
X20502Y283275D01*
X20461Y283199D01*
X20423Y283122D01*
X20389Y283042D01*
X20358Y282962D01*
X20331Y282880D01*
X20308Y282797D01*
X20288Y282713D01*
X20272Y282629D01*
X20259Y282543D01*
X20250Y282457D01*
X20245Y282371D01*
X20244Y282285D01*
X20245Y282285D02*
X20267Y279124D01*
X20266Y279124D02*
X20269Y279038D01*
X20275Y278952D01*
X20285Y278866D01*
X20298Y278781D01*
X20316Y278697D01*
X20337Y278613D01*
X20362Y278531D01*
X20390Y278449D01*
X20422Y278369D01*
X20457Y278290D01*
X20496Y278213D01*
X20538Y278138D01*
X20583Y278065D01*
X20631Y277993D01*
X20683Y277924D01*
X20737Y277857D01*
X20795Y277793D01*
X20855Y277731D01*
X20917Y277672D01*
X20982Y277615D01*
X21050Y277562D01*
X21120Y277511D01*
X21192Y277464D01*
X21266Y277420D01*
X21342Y277379D01*
X21419Y277341D01*
X21499Y277307D01*
X21579Y277276D01*
X21661Y277249D01*
X21744Y277226D01*
X21828Y277206D01*
X21913Y277190D01*
X21998Y277177D01*
X22084Y277168D01*
X22170Y277163D01*
X22256Y277162D01*
X22256Y277163D02*
X24232Y277176D01*
X16160Y277120D02*
X16111Y284232D01*
X16951Y277126D02*
X15370Y277114D01*
X15321Y284226D02*
X16901Y284237D01*
X30948Y268174D02*
X32133Y268183D01*
X30948Y268174D02*
X30976Y264223D01*
X33346Y264240D01*
X33424Y264242D01*
X33501Y264249D01*
X33578Y264259D01*
X33654Y264273D01*
X33730Y264290D01*
X33804Y264311D01*
X33878Y264336D01*
X33950Y264365D01*
X34021Y264396D01*
X34090Y264432D01*
X34157Y264471D01*
X34222Y264512D01*
X34285Y264558D01*
X34346Y264606D01*
X34404Y264657D01*
X34460Y264711D01*
X34513Y264767D01*
X34563Y264826D01*
X34611Y264888D01*
X34655Y264951D01*
X34696Y265017D01*
X34734Y265085D01*
X34768Y265154D01*
X34799Y265226D01*
X34826Y265298D01*
X34850Y265372D01*
X34870Y265447D01*
X34887Y265523D01*
X34899Y265599D01*
X34908Y265676D01*
X34914Y265754D01*
X34915Y265831D01*
X34888Y269782D01*
X34887Y269782D02*
X34885Y269860D01*
X34878Y269937D01*
X34868Y270014D01*
X34854Y270090D01*
X34837Y270166D01*
X34816Y270240D01*
X34791Y270314D01*
X34762Y270386D01*
X34731Y270456D01*
X34695Y270526D01*
X34657Y270593D01*
X34615Y270658D01*
X34569Y270721D01*
X34521Y270782D01*
X34470Y270840D01*
X34416Y270896D01*
X34360Y270949D01*
X34301Y270999D01*
X34239Y271047D01*
X34176Y271091D01*
X34110Y271132D01*
X34042Y271170D01*
X33973Y271204D01*
X33901Y271235D01*
X33829Y271262D01*
X33755Y271286D01*
X33680Y271306D01*
X33604Y271323D01*
X33528Y271335D01*
X33451Y271344D01*
X33374Y271350D01*
X33296Y271351D01*
X33296Y271352D02*
X30926Y271335D01*
X27074Y271308D02*
X27124Y264197D01*
X23173Y264169D02*
X27074Y271308D01*
X23123Y271281D02*
X23173Y264169D01*
X19321Y264142D02*
X19272Y271254D01*
X17296Y271240D01*
X17296Y271241D02*
X17210Y271238D01*
X17124Y271232D01*
X17038Y271222D01*
X16953Y271209D01*
X16869Y271191D01*
X16785Y271170D01*
X16703Y271145D01*
X16621Y271117D01*
X16541Y271085D01*
X16462Y271050D01*
X16385Y271011D01*
X16310Y270969D01*
X16237Y270924D01*
X16165Y270876D01*
X16096Y270824D01*
X16029Y270770D01*
X15965Y270713D01*
X15903Y270652D01*
X15844Y270590D01*
X15787Y270525D01*
X15734Y270457D01*
X15683Y270387D01*
X15636Y270315D01*
X15592Y270241D01*
X15551Y270165D01*
X15513Y270088D01*
X15479Y270008D01*
X15448Y269928D01*
X15421Y269846D01*
X15398Y269763D01*
X15378Y269679D01*
X15362Y269595D01*
X15349Y269509D01*
X15340Y269423D01*
X15335Y269337D01*
X15334Y269251D01*
X15356Y266090D01*
X15359Y266004D01*
X15365Y265918D01*
X15375Y265832D01*
X15388Y265747D01*
X15406Y265663D01*
X15427Y265579D01*
X15452Y265497D01*
X15480Y265415D01*
X15512Y265335D01*
X15547Y265256D01*
X15586Y265179D01*
X15628Y265104D01*
X15673Y265031D01*
X15721Y264959D01*
X15773Y264890D01*
X15827Y264823D01*
X15885Y264759D01*
X15945Y264697D01*
X16007Y264638D01*
X16072Y264581D01*
X16140Y264528D01*
X16210Y264477D01*
X16282Y264430D01*
X16356Y264386D01*
X16432Y264345D01*
X16509Y264307D01*
X16589Y264273D01*
X16669Y264242D01*
X16751Y264215D01*
X16834Y264192D01*
X16918Y264172D01*
X17003Y264156D01*
X17088Y264143D01*
X17174Y264134D01*
X17260Y264129D01*
X17346Y264128D01*
X19321Y264142D01*
X31976Y251230D02*
X33951Y251244D01*
X31976Y251230D02*
X31888Y251231D01*
X31801Y251237D01*
X31714Y251246D01*
X31628Y251258D01*
X31542Y251275D01*
X31457Y251296D01*
X31373Y251320D01*
X31290Y251348D01*
X31208Y251379D01*
X31128Y251414D01*
X31050Y251453D01*
X30973Y251495D01*
X30899Y251541D01*
X30826Y251589D01*
X30756Y251641D01*
X30688Y251696D01*
X30622Y251754D01*
X30559Y251814D01*
X30499Y251878D01*
X30442Y251944D01*
X30387Y252012D01*
X30336Y252083D01*
X30288Y252156D01*
X30243Y252231D01*
X30202Y252308D01*
X30164Y252387D01*
X30129Y252467D01*
X30098Y252549D01*
X30071Y252632D01*
X30048Y252716D01*
X30028Y252802D01*
X30012Y252888D01*
X30000Y252974D01*
X29991Y253061D01*
X29987Y253148D01*
X29986Y253236D01*
X29989Y253323D01*
X29997Y253410D01*
X30008Y253497D01*
X30022Y253583D01*
X30041Y253669D01*
X30063Y253753D01*
X30089Y253837D01*
X30119Y253919D01*
X30152Y254000D01*
X30189Y254079D01*
X30230Y254157D01*
X30273Y254232D01*
X30320Y254306D01*
X30371Y254378D01*
X30424Y254447D01*
X30480Y254514D01*
X30540Y254578D01*
X30602Y254639D01*
X30667Y254698D01*
X30734Y254754D01*
X30804Y254807D01*
X30875Y254856D01*
X30950Y254903D01*
X31026Y254946D01*
X31103Y254986D01*
X31183Y255022D01*
X31264Y255055D01*
X31347Y255084D01*
X31430Y255109D01*
X31515Y255131D01*
X31601Y255149D01*
X31687Y255163D01*
X31774Y255173D01*
X31861Y255179D01*
X31948Y255182D01*
X31531Y258340D02*
X33902Y258356D01*
X31531Y258339D02*
X31452Y258336D01*
X31374Y258330D01*
X31296Y258320D01*
X31218Y258305D01*
X31141Y258287D01*
X31066Y258266D01*
X30991Y258240D01*
X30918Y258211D01*
X30847Y258178D01*
X30777Y258141D01*
X30709Y258101D01*
X30643Y258058D01*
X30579Y258012D01*
X30518Y257962D01*
X30459Y257910D01*
X30403Y257854D01*
X30350Y257796D01*
X30300Y257735D01*
X30253Y257672D01*
X30209Y257607D01*
X30168Y257539D01*
X30131Y257470D01*
X30097Y257399D01*
X30067Y257326D01*
X30041Y257252D01*
X30018Y257176D01*
X29999Y257100D01*
X29984Y257022D01*
X29973Y256945D01*
X29966Y256866D01*
X29962Y256787D01*
X29963Y256709D01*
X29967Y256630D01*
X29976Y256552D01*
X29988Y256474D01*
X30004Y256397D01*
X30024Y256320D01*
X30048Y256245D01*
X30075Y256172D01*
X30106Y256099D01*
X30141Y256028D01*
X30179Y255959D01*
X30221Y255893D01*
X30266Y255828D01*
X30314Y255765D01*
X30365Y255705D01*
X30419Y255648D01*
X30475Y255593D01*
X30535Y255542D01*
X30597Y255493D01*
X30661Y255447D01*
X30728Y255405D01*
X30796Y255366D01*
X30866Y255331D01*
X30938Y255299D01*
X31012Y255271D01*
X31087Y255246D01*
X31163Y255225D01*
X31240Y255208D01*
X31317Y255195D01*
X31396Y255186D01*
X31474Y255180D01*
X31553Y255179D01*
X33133Y255190D01*
X26982Y258308D02*
X24661Y251179D01*
X22241Y258275D01*
X19321Y251142D02*
X17346Y251128D01*
X17258Y251129D01*
X17171Y251135D01*
X17084Y251144D01*
X16998Y251156D01*
X16912Y251173D01*
X16827Y251194D01*
X16743Y251218D01*
X16660Y251246D01*
X16578Y251277D01*
X16498Y251312D01*
X16420Y251351D01*
X16343Y251393D01*
X16269Y251439D01*
X16196Y251487D01*
X16126Y251539D01*
X16058Y251594D01*
X15992Y251652D01*
X15929Y251712D01*
X15869Y251776D01*
X15812Y251842D01*
X15757Y251910D01*
X15706Y251981D01*
X15658Y252054D01*
X15613Y252129D01*
X15572Y252206D01*
X15534Y252285D01*
X15499Y252365D01*
X15468Y252447D01*
X15441Y252530D01*
X15418Y252614D01*
X15398Y252700D01*
X15382Y252786D01*
X15370Y252872D01*
X15361Y252959D01*
X15357Y253046D01*
X15356Y253134D01*
X15359Y253221D01*
X15367Y253308D01*
X15378Y253395D01*
X15392Y253481D01*
X15411Y253567D01*
X15433Y253651D01*
X15459Y253735D01*
X15489Y253817D01*
X15522Y253898D01*
X15559Y253977D01*
X15600Y254055D01*
X15643Y254130D01*
X15690Y254204D01*
X15741Y254276D01*
X15794Y254345D01*
X15850Y254412D01*
X15910Y254476D01*
X15972Y254537D01*
X16037Y254596D01*
X16104Y254652D01*
X16174Y254705D01*
X16245Y254754D01*
X16320Y254801D01*
X16396Y254844D01*
X16473Y254884D01*
X16553Y254920D01*
X16634Y254953D01*
X16717Y254982D01*
X16800Y255007D01*
X16885Y255029D01*
X16971Y255047D01*
X17057Y255061D01*
X17144Y255071D01*
X17231Y255077D01*
X17318Y255080D01*
X16901Y258237D02*
X19272Y258254D01*
X16901Y258237D02*
X16822Y258234D01*
X16744Y258228D01*
X16666Y258218D01*
X16588Y258203D01*
X16511Y258185D01*
X16436Y258164D01*
X16361Y258138D01*
X16288Y258109D01*
X16217Y258076D01*
X16147Y258039D01*
X16079Y257999D01*
X16013Y257956D01*
X15949Y257910D01*
X15888Y257860D01*
X15829Y257808D01*
X15773Y257752D01*
X15720Y257694D01*
X15670Y257633D01*
X15623Y257570D01*
X15579Y257505D01*
X15538Y257437D01*
X15501Y257368D01*
X15467Y257297D01*
X15437Y257224D01*
X15411Y257150D01*
X15388Y257074D01*
X15369Y256998D01*
X15354Y256920D01*
X15343Y256843D01*
X15336Y256764D01*
X15332Y256685D01*
X15333Y256607D01*
X15337Y256528D01*
X15346Y256450D01*
X15358Y256372D01*
X15374Y256295D01*
X15394Y256218D01*
X15418Y256143D01*
X15445Y256070D01*
X15476Y255997D01*
X15511Y255926D01*
X15549Y255857D01*
X15591Y255791D01*
X15636Y255726D01*
X15684Y255663D01*
X15735Y255603D01*
X15789Y255546D01*
X15845Y255491D01*
X15905Y255440D01*
X15967Y255391D01*
X16031Y255345D01*
X16098Y255303D01*
X16166Y255264D01*
X16236Y255229D01*
X16308Y255197D01*
X16382Y255169D01*
X16457Y255144D01*
X16533Y255123D01*
X16610Y255106D01*
X16687Y255093D01*
X16766Y255084D01*
X16844Y255078D01*
X16923Y255077D01*
X18503Y255088D01*
D12*
X71292Y302399D02*
X96392Y302399D01*
X58592Y292399D02*
X58592Y261599D01*
X71592Y251599D02*
X96392Y251599D01*
X109392Y261599D02*
X109392Y292399D01*
X71292Y276999D02*
X71296Y277311D01*
X71307Y277622D01*
X71326Y277933D01*
X71353Y278244D01*
X71388Y278554D01*
X71429Y278862D01*
X71479Y279170D01*
X71536Y279477D01*
X71601Y279782D01*
X71673Y280085D01*
X71752Y280386D01*
X71839Y280686D01*
X71933Y280983D01*
X72034Y281278D01*
X72143Y281570D01*
X72259Y281859D01*
X72382Y282146D01*
X72511Y282429D01*
X72648Y282709D01*
X72792Y282986D01*
X72942Y283259D01*
X73099Y283528D01*
X73262Y283793D01*
X73432Y284055D01*
X73609Y284312D01*
X73791Y284564D01*
X73980Y284812D01*
X74175Y285056D01*
X74375Y285294D01*
X74582Y285528D01*
X74794Y285756D01*
X75012Y285979D01*
X75235Y286197D01*
X75463Y286409D01*
X75697Y286616D01*
X75935Y286816D01*
X76179Y287011D01*
X76427Y287200D01*
X76679Y287382D01*
X76936Y287559D01*
X77198Y287729D01*
X77463Y287892D01*
X77732Y288049D01*
X78005Y288199D01*
X78282Y288343D01*
X78562Y288480D01*
X78845Y288609D01*
X79132Y288732D01*
X79421Y288848D01*
X79713Y288957D01*
X80008Y289058D01*
X80305Y289152D01*
X80605Y289239D01*
X80906Y289318D01*
X81209Y289390D01*
X81514Y289455D01*
X81821Y289512D01*
X82129Y289562D01*
X82437Y289603D01*
X82747Y289638D01*
X83058Y289665D01*
X83369Y289684D01*
X83680Y289695D01*
X83992Y289699D01*
X84304Y289695D01*
X84615Y289684D01*
X84926Y289665D01*
X85237Y289638D01*
X85547Y289603D01*
X85855Y289562D01*
X86163Y289512D01*
X86470Y289455D01*
X86775Y289390D01*
X87078Y289318D01*
X87379Y289239D01*
X87679Y289152D01*
X87976Y289058D01*
X88271Y288957D01*
X88563Y288848D01*
X88852Y288732D01*
X89139Y288609D01*
X89422Y288480D01*
X89702Y288343D01*
X89979Y288199D01*
X90252Y288049D01*
X90521Y287892D01*
X90786Y287729D01*
X91048Y287559D01*
X91305Y287382D01*
X91557Y287200D01*
X91805Y287011D01*
X92049Y286816D01*
X92287Y286616D01*
X92521Y286409D01*
X92749Y286197D01*
X92972Y285979D01*
X93190Y285756D01*
X93402Y285528D01*
X93609Y285294D01*
X93809Y285056D01*
X94004Y284812D01*
X94193Y284564D01*
X94375Y284312D01*
X94552Y284055D01*
X94722Y283793D01*
X94885Y283528D01*
X95042Y283259D01*
X95192Y282986D01*
X95336Y282709D01*
X95473Y282429D01*
X95602Y282146D01*
X95725Y281859D01*
X95841Y281570D01*
X95950Y281278D01*
X96051Y280983D01*
X96145Y280686D01*
X96232Y280386D01*
X96311Y280085D01*
X96383Y279782D01*
X96448Y279477D01*
X96505Y279170D01*
X96555Y278862D01*
X96596Y278554D01*
X96631Y278244D01*
X96658Y277933D01*
X96677Y277622D01*
X96688Y277311D01*
X96692Y276999D01*
X96688Y276687D01*
X96677Y276376D01*
X96658Y276065D01*
X96631Y275754D01*
X96596Y275444D01*
X96555Y275136D01*
X96505Y274828D01*
X96448Y274521D01*
X96383Y274216D01*
X96311Y273913D01*
X96232Y273612D01*
X96145Y273312D01*
X96051Y273015D01*
X95950Y272720D01*
X95841Y272428D01*
X95725Y272139D01*
X95602Y271852D01*
X95473Y271569D01*
X95336Y271289D01*
X95192Y271012D01*
X95042Y270739D01*
X94885Y270470D01*
X94722Y270205D01*
X94552Y269943D01*
X94375Y269686D01*
X94193Y269434D01*
X94004Y269186D01*
X93809Y268942D01*
X93609Y268704D01*
X93402Y268470D01*
X93190Y268242D01*
X92972Y268019D01*
X92749Y267801D01*
X92521Y267589D01*
X92287Y267382D01*
X92049Y267182D01*
X91805Y266987D01*
X91557Y266798D01*
X91305Y266616D01*
X91048Y266439D01*
X90786Y266269D01*
X90521Y266106D01*
X90252Y265949D01*
X89979Y265799D01*
X89702Y265655D01*
X89422Y265518D01*
X89139Y265389D01*
X88852Y265266D01*
X88563Y265150D01*
X88271Y265041D01*
X87976Y264940D01*
X87679Y264846D01*
X87379Y264759D01*
X87078Y264680D01*
X86775Y264608D01*
X86470Y264543D01*
X86163Y264486D01*
X85855Y264436D01*
X85547Y264395D01*
X85237Y264360D01*
X84926Y264333D01*
X84615Y264314D01*
X84304Y264303D01*
X83992Y264299D01*
X83680Y264303D01*
X83369Y264314D01*
X83058Y264333D01*
X82747Y264360D01*
X82437Y264395D01*
X82129Y264436D01*
X81821Y264486D01*
X81514Y264543D01*
X81209Y264608D01*
X80906Y264680D01*
X80605Y264759D01*
X80305Y264846D01*
X80008Y264940D01*
X79713Y265041D01*
X79421Y265150D01*
X79132Y265266D01*
X78845Y265389D01*
X78562Y265518D01*
X78282Y265655D01*
X78005Y265799D01*
X77732Y265949D01*
X77463Y266106D01*
X77198Y266269D01*
X76936Y266439D01*
X76679Y266616D01*
X76427Y266798D01*
X76179Y266987D01*
X75935Y267182D01*
X75697Y267382D01*
X75463Y267589D01*
X75235Y267801D01*
X75012Y268019D01*
X74794Y268242D01*
X74582Y268470D01*
X74375Y268704D01*
X74175Y268942D01*
X73980Y269186D01*
X73791Y269434D01*
X73609Y269686D01*
X73432Y269943D01*
X73262Y270205D01*
X73099Y270470D01*
X72942Y270739D01*
X72792Y271012D01*
X72648Y271289D01*
X72511Y271569D01*
X72382Y271852D01*
X72259Y272139D01*
X72143Y272428D01*
X72034Y272720D01*
X71933Y273015D01*
X71839Y273312D01*
X71752Y273612D01*
X71673Y273913D01*
X71601Y274216D01*
X71536Y274521D01*
X71479Y274828D01*
X71429Y275136D01*
X71388Y275444D01*
X71353Y275754D01*
X71326Y276065D01*
X71307Y276376D01*
X71296Y276687D01*
X71292Y276999D01*
D10*
X80464Y273023D02*
X80466Y273096D01*
X80472Y273170D01*
X80482Y273242D01*
X80496Y273314D01*
X80513Y273386D01*
X80535Y273456D01*
X80560Y273525D01*
X80589Y273592D01*
X80622Y273658D01*
X80658Y273722D01*
X80697Y273783D01*
X80740Y273843D01*
X80786Y273900D01*
X80835Y273955D01*
X80887Y274007D01*
X80942Y274056D01*
X80999Y274102D01*
X81059Y274145D01*
X81120Y274184D01*
X81184Y274220D01*
X81250Y274253D01*
X81317Y274282D01*
X81386Y274307D01*
X81457Y274329D01*
X81528Y274346D01*
X81600Y274360D01*
X81673Y274370D01*
X81746Y274376D01*
X81819Y274378D01*
X80464Y273023D02*
X80466Y272920D01*
X80471Y272818D01*
X80481Y272715D01*
X80493Y272614D01*
X80510Y272512D01*
X80530Y272411D01*
X80554Y272312D01*
X80581Y272213D01*
X80612Y272115D01*
X80646Y272018D01*
X80684Y271922D01*
X80725Y271828D01*
X80770Y271736D01*
X80818Y271645D01*
X80869Y271556D01*
X80923Y271468D01*
X80980Y271383D01*
X81041Y271300D01*
X81104Y271219D01*
X81170Y271141D01*
X81239Y271064D01*
X81311Y270991D01*
X85205Y271160D02*
X85276Y271162D01*
X85347Y271167D01*
X85417Y271177D01*
X85487Y271190D01*
X85556Y271206D01*
X85624Y271226D01*
X85691Y271250D01*
X85756Y271277D01*
X85820Y271308D01*
X85883Y271342D01*
X85943Y271379D01*
X86001Y271419D01*
X86058Y271462D01*
X86112Y271508D01*
X86163Y271557D01*
X86212Y271608D01*
X86258Y271662D01*
X86301Y271719D01*
X86341Y271777D01*
X86378Y271838D01*
X86412Y271900D01*
X86443Y271964D01*
X86470Y272029D01*
X86494Y272096D01*
X86514Y272164D01*
X86530Y272233D01*
X86543Y272303D01*
X86553Y272373D01*
X86558Y272444D01*
X86560Y272515D01*
X86558Y272611D01*
X86553Y272707D01*
X86544Y272803D01*
X86531Y272898D01*
X86515Y272993D01*
X86495Y273087D01*
X86471Y273180D01*
X86444Y273272D01*
X86414Y273364D01*
X86380Y273454D01*
X86343Y273542D01*
X86302Y273629D01*
X86259Y273715D01*
X86212Y273799D01*
X86161Y273881D01*
X86108Y273961D01*
X86052Y274039D01*
X84020Y271837D02*
X84057Y271777D01*
X84098Y271718D01*
X84142Y271662D01*
X84189Y271608D01*
X84239Y271557D01*
X84291Y271508D01*
X84345Y271462D01*
X84402Y271419D01*
X84461Y271378D01*
X84522Y271341D01*
X84585Y271307D01*
X84650Y271277D01*
X84716Y271250D01*
X84783Y271226D01*
X84852Y271206D01*
X84921Y271190D01*
X84992Y271177D01*
X85062Y271167D01*
X85134Y271162D01*
X85205Y271160D01*
X83004Y273701D02*
X82967Y273761D01*
X82926Y273820D01*
X82882Y273876D01*
X82835Y273930D01*
X82785Y273981D01*
X82733Y274030D01*
X82679Y274076D01*
X82622Y274120D01*
X82563Y274160D01*
X82502Y274197D01*
X82439Y274231D01*
X82374Y274261D01*
X82308Y274288D01*
X82241Y274312D01*
X82172Y274332D01*
X82103Y274348D01*
X82032Y274361D01*
X81962Y274371D01*
X81890Y274376D01*
X81819Y274378D01*
X83004Y273700D02*
X84020Y271838D01*
X85205Y277620D02*
X86560Y279314D01*
X80464Y279314D01*
X80464Y281007D02*
X80464Y277620D01*
D12*
X200966Y251608D02*
X226066Y251608D01*
X238766Y261608D02*
X238766Y292408D01*
X225766Y302408D02*
X200966Y302408D01*
X187966Y292408D02*
X187966Y261608D01*
X200666Y277008D02*
X200670Y277320D01*
X200681Y277631D01*
X200700Y277942D01*
X200727Y278253D01*
X200762Y278563D01*
X200803Y278871D01*
X200853Y279179D01*
X200910Y279486D01*
X200975Y279791D01*
X201047Y280094D01*
X201126Y280395D01*
X201213Y280695D01*
X201307Y280992D01*
X201408Y281287D01*
X201517Y281579D01*
X201633Y281868D01*
X201756Y282155D01*
X201885Y282438D01*
X202022Y282718D01*
X202166Y282995D01*
X202316Y283268D01*
X202473Y283537D01*
X202636Y283802D01*
X202806Y284064D01*
X202983Y284321D01*
X203165Y284573D01*
X203354Y284821D01*
X203549Y285065D01*
X203749Y285303D01*
X203956Y285537D01*
X204168Y285765D01*
X204386Y285988D01*
X204609Y286206D01*
X204837Y286418D01*
X205071Y286625D01*
X205309Y286825D01*
X205553Y287020D01*
X205801Y287209D01*
X206053Y287391D01*
X206310Y287568D01*
X206572Y287738D01*
X206837Y287901D01*
X207106Y288058D01*
X207379Y288208D01*
X207656Y288352D01*
X207936Y288489D01*
X208219Y288618D01*
X208506Y288741D01*
X208795Y288857D01*
X209087Y288966D01*
X209382Y289067D01*
X209679Y289161D01*
X209979Y289248D01*
X210280Y289327D01*
X210583Y289399D01*
X210888Y289464D01*
X211195Y289521D01*
X211503Y289571D01*
X211811Y289612D01*
X212121Y289647D01*
X212432Y289674D01*
X212743Y289693D01*
X213054Y289704D01*
X213366Y289708D01*
X213678Y289704D01*
X213989Y289693D01*
X214300Y289674D01*
X214611Y289647D01*
X214921Y289612D01*
X215229Y289571D01*
X215537Y289521D01*
X215844Y289464D01*
X216149Y289399D01*
X216452Y289327D01*
X216753Y289248D01*
X217053Y289161D01*
X217350Y289067D01*
X217645Y288966D01*
X217937Y288857D01*
X218226Y288741D01*
X218513Y288618D01*
X218796Y288489D01*
X219076Y288352D01*
X219353Y288208D01*
X219626Y288058D01*
X219895Y287901D01*
X220160Y287738D01*
X220422Y287568D01*
X220679Y287391D01*
X220931Y287209D01*
X221179Y287020D01*
X221423Y286825D01*
X221661Y286625D01*
X221895Y286418D01*
X222123Y286206D01*
X222346Y285988D01*
X222564Y285765D01*
X222776Y285537D01*
X222983Y285303D01*
X223183Y285065D01*
X223378Y284821D01*
X223567Y284573D01*
X223749Y284321D01*
X223926Y284064D01*
X224096Y283802D01*
X224259Y283537D01*
X224416Y283268D01*
X224566Y282995D01*
X224710Y282718D01*
X224847Y282438D01*
X224976Y282155D01*
X225099Y281868D01*
X225215Y281579D01*
X225324Y281287D01*
X225425Y280992D01*
X225519Y280695D01*
X225606Y280395D01*
X225685Y280094D01*
X225757Y279791D01*
X225822Y279486D01*
X225879Y279179D01*
X225929Y278871D01*
X225970Y278563D01*
X226005Y278253D01*
X226032Y277942D01*
X226051Y277631D01*
X226062Y277320D01*
X226066Y277008D01*
X226062Y276696D01*
X226051Y276385D01*
X226032Y276074D01*
X226005Y275763D01*
X225970Y275453D01*
X225929Y275145D01*
X225879Y274837D01*
X225822Y274530D01*
X225757Y274225D01*
X225685Y273922D01*
X225606Y273621D01*
X225519Y273321D01*
X225425Y273024D01*
X225324Y272729D01*
X225215Y272437D01*
X225099Y272148D01*
X224976Y271861D01*
X224847Y271578D01*
X224710Y271298D01*
X224566Y271021D01*
X224416Y270748D01*
X224259Y270479D01*
X224096Y270214D01*
X223926Y269952D01*
X223749Y269695D01*
X223567Y269443D01*
X223378Y269195D01*
X223183Y268951D01*
X222983Y268713D01*
X222776Y268479D01*
X222564Y268251D01*
X222346Y268028D01*
X222123Y267810D01*
X221895Y267598D01*
X221661Y267391D01*
X221423Y267191D01*
X221179Y266996D01*
X220931Y266807D01*
X220679Y266625D01*
X220422Y266448D01*
X220160Y266278D01*
X219895Y266115D01*
X219626Y265958D01*
X219353Y265808D01*
X219076Y265664D01*
X218796Y265527D01*
X218513Y265398D01*
X218226Y265275D01*
X217937Y265159D01*
X217645Y265050D01*
X217350Y264949D01*
X217053Y264855D01*
X216753Y264768D01*
X216452Y264689D01*
X216149Y264617D01*
X215844Y264552D01*
X215537Y264495D01*
X215229Y264445D01*
X214921Y264404D01*
X214611Y264369D01*
X214300Y264342D01*
X213989Y264323D01*
X213678Y264312D01*
X213366Y264308D01*
X213054Y264312D01*
X212743Y264323D01*
X212432Y264342D01*
X212121Y264369D01*
X211811Y264404D01*
X211503Y264445D01*
X211195Y264495D01*
X210888Y264552D01*
X210583Y264617D01*
X210280Y264689D01*
X209979Y264768D01*
X209679Y264855D01*
X209382Y264949D01*
X209087Y265050D01*
X208795Y265159D01*
X208506Y265275D01*
X208219Y265398D01*
X207936Y265527D01*
X207656Y265664D01*
X207379Y265808D01*
X207106Y265958D01*
X206837Y266115D01*
X206572Y266278D01*
X206310Y266448D01*
X206053Y266625D01*
X205801Y266807D01*
X205553Y266996D01*
X205309Y267191D01*
X205071Y267391D01*
X204837Y267598D01*
X204609Y267810D01*
X204386Y268028D01*
X204168Y268251D01*
X203956Y268479D01*
X203749Y268713D01*
X203549Y268951D01*
X203354Y269195D01*
X203165Y269443D01*
X202983Y269695D01*
X202806Y269952D01*
X202636Y270214D01*
X202473Y270479D01*
X202316Y270748D01*
X202166Y271021D01*
X202022Y271298D01*
X201885Y271578D01*
X201756Y271861D01*
X201633Y272148D01*
X201517Y272437D01*
X201408Y272729D01*
X201307Y273024D01*
X201213Y273321D01*
X201126Y273621D01*
X201047Y273922D01*
X200975Y274225D01*
X200910Y274530D01*
X200853Y274837D01*
X200803Y275145D01*
X200762Y275453D01*
X200727Y275763D01*
X200700Y276074D01*
X200681Y276385D01*
X200670Y276696D01*
X200666Y277008D01*
D10*
X211798Y274032D02*
X211800Y274105D01*
X211806Y274179D01*
X211816Y274251D01*
X211830Y274323D01*
X211847Y274395D01*
X211869Y274465D01*
X211894Y274534D01*
X211923Y274601D01*
X211956Y274667D01*
X211992Y274731D01*
X212031Y274792D01*
X212074Y274852D01*
X212120Y274909D01*
X212169Y274964D01*
X212221Y275016D01*
X212276Y275065D01*
X212333Y275111D01*
X212393Y275154D01*
X212454Y275193D01*
X212518Y275229D01*
X212584Y275262D01*
X212651Y275291D01*
X212720Y275316D01*
X212791Y275338D01*
X212862Y275355D01*
X212934Y275369D01*
X213007Y275379D01*
X213080Y275385D01*
X213153Y275387D01*
X211798Y274032D02*
X211800Y273929D01*
X211805Y273827D01*
X211815Y273724D01*
X211827Y273623D01*
X211844Y273521D01*
X211864Y273420D01*
X211888Y273321D01*
X211915Y273222D01*
X211946Y273124D01*
X211980Y273027D01*
X212018Y272931D01*
X212059Y272837D01*
X212104Y272745D01*
X212152Y272654D01*
X212203Y272565D01*
X212257Y272477D01*
X212314Y272392D01*
X212375Y272309D01*
X212438Y272228D01*
X212504Y272150D01*
X212573Y272073D01*
X212645Y272000D01*
X216539Y272169D02*
X216610Y272171D01*
X216681Y272176D01*
X216751Y272186D01*
X216821Y272199D01*
X216890Y272215D01*
X216958Y272235D01*
X217025Y272259D01*
X217090Y272286D01*
X217154Y272317D01*
X217217Y272351D01*
X217277Y272388D01*
X217335Y272428D01*
X217392Y272471D01*
X217446Y272517D01*
X217497Y272566D01*
X217546Y272617D01*
X217592Y272671D01*
X217635Y272728D01*
X217675Y272786D01*
X217712Y272847D01*
X217746Y272909D01*
X217777Y272973D01*
X217804Y273038D01*
X217828Y273105D01*
X217848Y273173D01*
X217864Y273242D01*
X217877Y273312D01*
X217887Y273382D01*
X217892Y273453D01*
X217894Y273524D01*
X217892Y273620D01*
X217887Y273716D01*
X217878Y273812D01*
X217865Y273907D01*
X217849Y274002D01*
X217829Y274096D01*
X217805Y274189D01*
X217778Y274281D01*
X217748Y274373D01*
X217714Y274463D01*
X217677Y274551D01*
X217636Y274638D01*
X217593Y274724D01*
X217546Y274808D01*
X217495Y274890D01*
X217442Y274970D01*
X217386Y275048D01*
X215354Y272846D02*
X215391Y272786D01*
X215432Y272727D01*
X215476Y272671D01*
X215523Y272617D01*
X215573Y272566D01*
X215625Y272517D01*
X215679Y272471D01*
X215736Y272428D01*
X215795Y272387D01*
X215856Y272350D01*
X215919Y272316D01*
X215984Y272286D01*
X216050Y272259D01*
X216117Y272235D01*
X216186Y272215D01*
X216255Y272199D01*
X216326Y272186D01*
X216396Y272176D01*
X216468Y272171D01*
X216539Y272169D01*
X214338Y274710D02*
X214301Y274770D01*
X214260Y274829D01*
X214216Y274885D01*
X214169Y274939D01*
X214119Y274990D01*
X214067Y275039D01*
X214013Y275085D01*
X213956Y275129D01*
X213897Y275169D01*
X213836Y275206D01*
X213773Y275240D01*
X213708Y275270D01*
X213642Y275297D01*
X213575Y275321D01*
X213506Y275341D01*
X213437Y275357D01*
X213366Y275370D01*
X213296Y275380D01*
X213224Y275385D01*
X213153Y275387D01*
X214338Y274709D02*
X215354Y272847D01*
X217894Y280492D02*
X217892Y280569D01*
X217886Y280646D01*
X217876Y280723D01*
X217863Y280799D01*
X217845Y280874D01*
X217824Y280948D01*
X217799Y281021D01*
X217770Y281093D01*
X217738Y281163D01*
X217703Y281232D01*
X217663Y281298D01*
X217621Y281363D01*
X217575Y281425D01*
X217526Y281485D01*
X217475Y281542D01*
X217420Y281597D01*
X217363Y281648D01*
X217303Y281697D01*
X217241Y281743D01*
X217176Y281785D01*
X217110Y281825D01*
X217041Y281860D01*
X216971Y281892D01*
X216899Y281921D01*
X216826Y281946D01*
X216752Y281967D01*
X216677Y281985D01*
X216601Y281998D01*
X216524Y282008D01*
X216447Y282014D01*
X216370Y282016D01*
X217894Y280492D02*
X217892Y280407D01*
X217887Y280322D01*
X217877Y280238D01*
X217865Y280154D01*
X217848Y280071D01*
X217828Y279988D01*
X217804Y279907D01*
X217777Y279826D01*
X217747Y279747D01*
X217713Y279669D01*
X217675Y279593D01*
X217635Y279518D01*
X217591Y279446D01*
X217544Y279375D01*
X217494Y279306D01*
X217441Y279240D01*
X217386Y279176D01*
X217327Y279114D01*
X217266Y279055D01*
X217203Y278999D01*
X217137Y278945D01*
X217068Y278895D01*
X216998Y278847D01*
X216926Y278803D01*
X216852Y278761D01*
X216776Y278723D01*
X216698Y278689D01*
X216619Y278657D01*
X216539Y278629D01*
X215185Y281508D02*
X215240Y281563D01*
X215297Y281616D01*
X215357Y281665D01*
X215420Y281712D01*
X215484Y281756D01*
X215551Y281796D01*
X215619Y281834D01*
X215690Y281868D01*
X215761Y281899D01*
X215834Y281926D01*
X215908Y281950D01*
X215984Y281970D01*
X216060Y281986D01*
X216137Y281999D01*
X216214Y282009D01*
X216292Y282014D01*
X216370Y282016D01*
X215185Y281508D02*
X211798Y278629D01*
X211798Y282016D01*
D12*
X95392Y168650D02*
X70292Y168650D01*
X57592Y158650D02*
X57592Y127850D01*
X70592Y117850D02*
X95392Y117850D01*
X108392Y127850D02*
X108392Y158650D01*
X70292Y143250D02*
X70296Y143562D01*
X70307Y143873D01*
X70326Y144184D01*
X70353Y144495D01*
X70388Y144805D01*
X70429Y145113D01*
X70479Y145421D01*
X70536Y145728D01*
X70601Y146033D01*
X70673Y146336D01*
X70752Y146637D01*
X70839Y146937D01*
X70933Y147234D01*
X71034Y147529D01*
X71143Y147821D01*
X71259Y148110D01*
X71382Y148397D01*
X71511Y148680D01*
X71648Y148960D01*
X71792Y149237D01*
X71942Y149510D01*
X72099Y149779D01*
X72262Y150044D01*
X72432Y150306D01*
X72609Y150563D01*
X72791Y150815D01*
X72980Y151063D01*
X73175Y151307D01*
X73375Y151545D01*
X73582Y151779D01*
X73794Y152007D01*
X74012Y152230D01*
X74235Y152448D01*
X74463Y152660D01*
X74697Y152867D01*
X74935Y153067D01*
X75179Y153262D01*
X75427Y153451D01*
X75679Y153633D01*
X75936Y153810D01*
X76198Y153980D01*
X76463Y154143D01*
X76732Y154300D01*
X77005Y154450D01*
X77282Y154594D01*
X77562Y154731D01*
X77845Y154860D01*
X78132Y154983D01*
X78421Y155099D01*
X78713Y155208D01*
X79008Y155309D01*
X79305Y155403D01*
X79605Y155490D01*
X79906Y155569D01*
X80209Y155641D01*
X80514Y155706D01*
X80821Y155763D01*
X81129Y155813D01*
X81437Y155854D01*
X81747Y155889D01*
X82058Y155916D01*
X82369Y155935D01*
X82680Y155946D01*
X82992Y155950D01*
X83304Y155946D01*
X83615Y155935D01*
X83926Y155916D01*
X84237Y155889D01*
X84547Y155854D01*
X84855Y155813D01*
X85163Y155763D01*
X85470Y155706D01*
X85775Y155641D01*
X86078Y155569D01*
X86379Y155490D01*
X86679Y155403D01*
X86976Y155309D01*
X87271Y155208D01*
X87563Y155099D01*
X87852Y154983D01*
X88139Y154860D01*
X88422Y154731D01*
X88702Y154594D01*
X88979Y154450D01*
X89252Y154300D01*
X89521Y154143D01*
X89786Y153980D01*
X90048Y153810D01*
X90305Y153633D01*
X90557Y153451D01*
X90805Y153262D01*
X91049Y153067D01*
X91287Y152867D01*
X91521Y152660D01*
X91749Y152448D01*
X91972Y152230D01*
X92190Y152007D01*
X92402Y151779D01*
X92609Y151545D01*
X92809Y151307D01*
X93004Y151063D01*
X93193Y150815D01*
X93375Y150563D01*
X93552Y150306D01*
X93722Y150044D01*
X93885Y149779D01*
X94042Y149510D01*
X94192Y149237D01*
X94336Y148960D01*
X94473Y148680D01*
X94602Y148397D01*
X94725Y148110D01*
X94841Y147821D01*
X94950Y147529D01*
X95051Y147234D01*
X95145Y146937D01*
X95232Y146637D01*
X95311Y146336D01*
X95383Y146033D01*
X95448Y145728D01*
X95505Y145421D01*
X95555Y145113D01*
X95596Y144805D01*
X95631Y144495D01*
X95658Y144184D01*
X95677Y143873D01*
X95688Y143562D01*
X95692Y143250D01*
X95688Y142938D01*
X95677Y142627D01*
X95658Y142316D01*
X95631Y142005D01*
X95596Y141695D01*
X95555Y141387D01*
X95505Y141079D01*
X95448Y140772D01*
X95383Y140467D01*
X95311Y140164D01*
X95232Y139863D01*
X95145Y139563D01*
X95051Y139266D01*
X94950Y138971D01*
X94841Y138679D01*
X94725Y138390D01*
X94602Y138103D01*
X94473Y137820D01*
X94336Y137540D01*
X94192Y137263D01*
X94042Y136990D01*
X93885Y136721D01*
X93722Y136456D01*
X93552Y136194D01*
X93375Y135937D01*
X93193Y135685D01*
X93004Y135437D01*
X92809Y135193D01*
X92609Y134955D01*
X92402Y134721D01*
X92190Y134493D01*
X91972Y134270D01*
X91749Y134052D01*
X91521Y133840D01*
X91287Y133633D01*
X91049Y133433D01*
X90805Y133238D01*
X90557Y133049D01*
X90305Y132867D01*
X90048Y132690D01*
X89786Y132520D01*
X89521Y132357D01*
X89252Y132200D01*
X88979Y132050D01*
X88702Y131906D01*
X88422Y131769D01*
X88139Y131640D01*
X87852Y131517D01*
X87563Y131401D01*
X87271Y131292D01*
X86976Y131191D01*
X86679Y131097D01*
X86379Y131010D01*
X86078Y130931D01*
X85775Y130859D01*
X85470Y130794D01*
X85163Y130737D01*
X84855Y130687D01*
X84547Y130646D01*
X84237Y130611D01*
X83926Y130584D01*
X83615Y130565D01*
X83304Y130554D01*
X82992Y130550D01*
X82680Y130554D01*
X82369Y130565D01*
X82058Y130584D01*
X81747Y130611D01*
X81437Y130646D01*
X81129Y130687D01*
X80821Y130737D01*
X80514Y130794D01*
X80209Y130859D01*
X79906Y130931D01*
X79605Y131010D01*
X79305Y131097D01*
X79008Y131191D01*
X78713Y131292D01*
X78421Y131401D01*
X78132Y131517D01*
X77845Y131640D01*
X77562Y131769D01*
X77282Y131906D01*
X77005Y132050D01*
X76732Y132200D01*
X76463Y132357D01*
X76198Y132520D01*
X75936Y132690D01*
X75679Y132867D01*
X75427Y133049D01*
X75179Y133238D01*
X74935Y133433D01*
X74697Y133633D01*
X74463Y133840D01*
X74235Y134052D01*
X74012Y134270D01*
X73794Y134493D01*
X73582Y134721D01*
X73375Y134955D01*
X73175Y135193D01*
X72980Y135437D01*
X72791Y135685D01*
X72609Y135937D01*
X72432Y136194D01*
X72262Y136456D01*
X72099Y136721D01*
X71942Y136990D01*
X71792Y137263D01*
X71648Y137540D01*
X71511Y137820D01*
X71382Y138103D01*
X71259Y138390D01*
X71143Y138679D01*
X71034Y138971D01*
X70933Y139266D01*
X70839Y139563D01*
X70752Y139863D01*
X70673Y140164D01*
X70601Y140467D01*
X70536Y140772D01*
X70479Y141079D01*
X70429Y141387D01*
X70388Y141695D01*
X70353Y142005D01*
X70326Y142316D01*
X70307Y142627D01*
X70296Y142938D01*
X70292Y143250D01*
D10*
X78464Y140274D02*
X78466Y140347D01*
X78472Y140421D01*
X78482Y140493D01*
X78496Y140565D01*
X78513Y140637D01*
X78535Y140707D01*
X78560Y140776D01*
X78589Y140843D01*
X78622Y140909D01*
X78658Y140973D01*
X78697Y141034D01*
X78740Y141094D01*
X78786Y141151D01*
X78835Y141206D01*
X78887Y141258D01*
X78942Y141307D01*
X78999Y141353D01*
X79059Y141396D01*
X79120Y141435D01*
X79184Y141471D01*
X79250Y141504D01*
X79317Y141533D01*
X79386Y141558D01*
X79457Y141580D01*
X79528Y141597D01*
X79600Y141611D01*
X79673Y141621D01*
X79746Y141627D01*
X79819Y141629D01*
X78464Y140274D02*
X78466Y140171D01*
X78471Y140069D01*
X78481Y139966D01*
X78493Y139865D01*
X78510Y139763D01*
X78530Y139662D01*
X78554Y139563D01*
X78581Y139464D01*
X78612Y139366D01*
X78646Y139269D01*
X78684Y139173D01*
X78725Y139079D01*
X78770Y138987D01*
X78818Y138896D01*
X78869Y138807D01*
X78923Y138719D01*
X78980Y138634D01*
X79041Y138551D01*
X79104Y138470D01*
X79170Y138392D01*
X79239Y138315D01*
X79311Y138242D01*
X83205Y138411D02*
X83276Y138413D01*
X83347Y138418D01*
X83417Y138428D01*
X83487Y138441D01*
X83556Y138457D01*
X83624Y138477D01*
X83691Y138501D01*
X83756Y138528D01*
X83820Y138559D01*
X83883Y138593D01*
X83943Y138630D01*
X84001Y138670D01*
X84058Y138713D01*
X84112Y138759D01*
X84163Y138808D01*
X84212Y138859D01*
X84258Y138913D01*
X84301Y138970D01*
X84341Y139028D01*
X84378Y139089D01*
X84412Y139151D01*
X84443Y139215D01*
X84470Y139280D01*
X84494Y139347D01*
X84514Y139415D01*
X84530Y139484D01*
X84543Y139554D01*
X84553Y139624D01*
X84558Y139695D01*
X84560Y139766D01*
X84558Y139862D01*
X84553Y139958D01*
X84544Y140054D01*
X84531Y140149D01*
X84515Y140244D01*
X84495Y140338D01*
X84471Y140431D01*
X84444Y140523D01*
X84414Y140615D01*
X84380Y140705D01*
X84343Y140793D01*
X84302Y140880D01*
X84259Y140966D01*
X84212Y141050D01*
X84161Y141132D01*
X84108Y141212D01*
X84052Y141290D01*
X82020Y139088D02*
X82057Y139028D01*
X82098Y138969D01*
X82142Y138913D01*
X82189Y138859D01*
X82239Y138808D01*
X82291Y138759D01*
X82345Y138713D01*
X82402Y138670D01*
X82461Y138629D01*
X82522Y138592D01*
X82585Y138558D01*
X82650Y138528D01*
X82716Y138501D01*
X82783Y138477D01*
X82852Y138457D01*
X82921Y138441D01*
X82992Y138428D01*
X83062Y138418D01*
X83134Y138413D01*
X83205Y138411D01*
X81004Y140952D02*
X80967Y141012D01*
X80926Y141071D01*
X80882Y141127D01*
X80835Y141181D01*
X80785Y141232D01*
X80733Y141281D01*
X80679Y141327D01*
X80622Y141371D01*
X80563Y141411D01*
X80502Y141448D01*
X80439Y141482D01*
X80374Y141512D01*
X80308Y141539D01*
X80241Y141563D01*
X80172Y141583D01*
X80103Y141599D01*
X80032Y141612D01*
X79962Y141622D01*
X79890Y141627D01*
X79819Y141629D01*
X81004Y140951D02*
X82020Y139089D01*
X78464Y144871D02*
X78464Y146565D01*
X78466Y146646D01*
X78472Y146726D01*
X78481Y146806D01*
X78495Y146885D01*
X78512Y146964D01*
X78533Y147042D01*
X78557Y147119D01*
X78585Y147194D01*
X78617Y147268D01*
X78652Y147341D01*
X78691Y147412D01*
X78733Y147480D01*
X78778Y147547D01*
X78826Y147612D01*
X78878Y147674D01*
X78932Y147733D01*
X78989Y147790D01*
X79048Y147844D01*
X79110Y147896D01*
X79175Y147944D01*
X79242Y147989D01*
X79311Y148031D01*
X79381Y148070D01*
X79454Y148105D01*
X79528Y148137D01*
X79603Y148165D01*
X79680Y148189D01*
X79758Y148210D01*
X79837Y148227D01*
X79916Y148241D01*
X79996Y148250D01*
X80076Y148256D01*
X80157Y148258D01*
X80238Y148256D01*
X80318Y148250D01*
X80398Y148241D01*
X80477Y148227D01*
X80556Y148210D01*
X80634Y148189D01*
X80711Y148165D01*
X80786Y148137D01*
X80860Y148105D01*
X80933Y148070D01*
X81004Y148031D01*
X81072Y147989D01*
X81139Y147944D01*
X81204Y147896D01*
X81266Y147844D01*
X81325Y147790D01*
X81382Y147733D01*
X81436Y147674D01*
X81488Y147612D01*
X81536Y147547D01*
X81581Y147480D01*
X81623Y147412D01*
X81662Y147341D01*
X81697Y147268D01*
X81729Y147194D01*
X81757Y147119D01*
X81781Y147042D01*
X81802Y146964D01*
X81819Y146885D01*
X81833Y146806D01*
X81842Y146726D01*
X81848Y146646D01*
X81850Y146565D01*
X84560Y146903D02*
X84560Y144871D01*
X84560Y146903D02*
X84558Y146975D01*
X84552Y147047D01*
X84543Y147119D01*
X84529Y147189D01*
X84512Y147260D01*
X84491Y147329D01*
X84467Y147396D01*
X84439Y147463D01*
X84407Y147528D01*
X84372Y147591D01*
X84334Y147652D01*
X84293Y147711D01*
X84248Y147768D01*
X84201Y147822D01*
X84150Y147874D01*
X84097Y147923D01*
X84042Y147969D01*
X83984Y148012D01*
X83924Y148052D01*
X83862Y148088D01*
X83798Y148122D01*
X83732Y148151D01*
X83665Y148178D01*
X83596Y148200D01*
X83527Y148219D01*
X83456Y148235D01*
X83385Y148246D01*
X83313Y148254D01*
X83241Y148258D01*
X83169Y148258D01*
X83097Y148254D01*
X83025Y148246D01*
X82954Y148235D01*
X82883Y148219D01*
X82814Y148200D01*
X82745Y148178D01*
X82678Y148151D01*
X82612Y148122D01*
X82548Y148088D01*
X82486Y148052D01*
X82426Y148012D01*
X82368Y147969D01*
X82313Y147923D01*
X82260Y147874D01*
X82209Y147822D01*
X82162Y147768D01*
X82117Y147711D01*
X82076Y147652D01*
X82038Y147591D01*
X82003Y147528D01*
X81971Y147463D01*
X81943Y147396D01*
X81919Y147329D01*
X81898Y147260D01*
X81881Y147189D01*
X81867Y147119D01*
X81858Y147047D01*
X81852Y146975D01*
X81850Y146903D01*
X81851Y146903D02*
X81851Y145549D01*
D12*
X200546Y168978D02*
X225646Y168978D01*
X187846Y158978D02*
X187846Y128178D01*
X200846Y118178D02*
X225646Y118178D01*
X238646Y128178D02*
X238646Y158978D01*
X200546Y143578D02*
X200550Y143890D01*
X200561Y144201D01*
X200580Y144512D01*
X200607Y144823D01*
X200642Y145133D01*
X200683Y145441D01*
X200733Y145749D01*
X200790Y146056D01*
X200855Y146361D01*
X200927Y146664D01*
X201006Y146965D01*
X201093Y147265D01*
X201187Y147562D01*
X201288Y147857D01*
X201397Y148149D01*
X201513Y148438D01*
X201636Y148725D01*
X201765Y149008D01*
X201902Y149288D01*
X202046Y149565D01*
X202196Y149838D01*
X202353Y150107D01*
X202516Y150372D01*
X202686Y150634D01*
X202863Y150891D01*
X203045Y151143D01*
X203234Y151391D01*
X203429Y151635D01*
X203629Y151873D01*
X203836Y152107D01*
X204048Y152335D01*
X204266Y152558D01*
X204489Y152776D01*
X204717Y152988D01*
X204951Y153195D01*
X205189Y153395D01*
X205433Y153590D01*
X205681Y153779D01*
X205933Y153961D01*
X206190Y154138D01*
X206452Y154308D01*
X206717Y154471D01*
X206986Y154628D01*
X207259Y154778D01*
X207536Y154922D01*
X207816Y155059D01*
X208099Y155188D01*
X208386Y155311D01*
X208675Y155427D01*
X208967Y155536D01*
X209262Y155637D01*
X209559Y155731D01*
X209859Y155818D01*
X210160Y155897D01*
X210463Y155969D01*
X210768Y156034D01*
X211075Y156091D01*
X211383Y156141D01*
X211691Y156182D01*
X212001Y156217D01*
X212312Y156244D01*
X212623Y156263D01*
X212934Y156274D01*
X213246Y156278D01*
X213558Y156274D01*
X213869Y156263D01*
X214180Y156244D01*
X214491Y156217D01*
X214801Y156182D01*
X215109Y156141D01*
X215417Y156091D01*
X215724Y156034D01*
X216029Y155969D01*
X216332Y155897D01*
X216633Y155818D01*
X216933Y155731D01*
X217230Y155637D01*
X217525Y155536D01*
X217817Y155427D01*
X218106Y155311D01*
X218393Y155188D01*
X218676Y155059D01*
X218956Y154922D01*
X219233Y154778D01*
X219506Y154628D01*
X219775Y154471D01*
X220040Y154308D01*
X220302Y154138D01*
X220559Y153961D01*
X220811Y153779D01*
X221059Y153590D01*
X221303Y153395D01*
X221541Y153195D01*
X221775Y152988D01*
X222003Y152776D01*
X222226Y152558D01*
X222444Y152335D01*
X222656Y152107D01*
X222863Y151873D01*
X223063Y151635D01*
X223258Y151391D01*
X223447Y151143D01*
X223629Y150891D01*
X223806Y150634D01*
X223976Y150372D01*
X224139Y150107D01*
X224296Y149838D01*
X224446Y149565D01*
X224590Y149288D01*
X224727Y149008D01*
X224856Y148725D01*
X224979Y148438D01*
X225095Y148149D01*
X225204Y147857D01*
X225305Y147562D01*
X225399Y147265D01*
X225486Y146965D01*
X225565Y146664D01*
X225637Y146361D01*
X225702Y146056D01*
X225759Y145749D01*
X225809Y145441D01*
X225850Y145133D01*
X225885Y144823D01*
X225912Y144512D01*
X225931Y144201D01*
X225942Y143890D01*
X225946Y143578D01*
X225942Y143266D01*
X225931Y142955D01*
X225912Y142644D01*
X225885Y142333D01*
X225850Y142023D01*
X225809Y141715D01*
X225759Y141407D01*
X225702Y141100D01*
X225637Y140795D01*
X225565Y140492D01*
X225486Y140191D01*
X225399Y139891D01*
X225305Y139594D01*
X225204Y139299D01*
X225095Y139007D01*
X224979Y138718D01*
X224856Y138431D01*
X224727Y138148D01*
X224590Y137868D01*
X224446Y137591D01*
X224296Y137318D01*
X224139Y137049D01*
X223976Y136784D01*
X223806Y136522D01*
X223629Y136265D01*
X223447Y136013D01*
X223258Y135765D01*
X223063Y135521D01*
X222863Y135283D01*
X222656Y135049D01*
X222444Y134821D01*
X222226Y134598D01*
X222003Y134380D01*
X221775Y134168D01*
X221541Y133961D01*
X221303Y133761D01*
X221059Y133566D01*
X220811Y133377D01*
X220559Y133195D01*
X220302Y133018D01*
X220040Y132848D01*
X219775Y132685D01*
X219506Y132528D01*
X219233Y132378D01*
X218956Y132234D01*
X218676Y132097D01*
X218393Y131968D01*
X218106Y131845D01*
X217817Y131729D01*
X217525Y131620D01*
X217230Y131519D01*
X216933Y131425D01*
X216633Y131338D01*
X216332Y131259D01*
X216029Y131187D01*
X215724Y131122D01*
X215417Y131065D01*
X215109Y131015D01*
X214801Y130974D01*
X214491Y130939D01*
X214180Y130912D01*
X213869Y130893D01*
X213558Y130882D01*
X213246Y130878D01*
X212934Y130882D01*
X212623Y130893D01*
X212312Y130912D01*
X212001Y130939D01*
X211691Y130974D01*
X211383Y131015D01*
X211075Y131065D01*
X210768Y131122D01*
X210463Y131187D01*
X210160Y131259D01*
X209859Y131338D01*
X209559Y131425D01*
X209262Y131519D01*
X208967Y131620D01*
X208675Y131729D01*
X208386Y131845D01*
X208099Y131968D01*
X207816Y132097D01*
X207536Y132234D01*
X207259Y132378D01*
X206986Y132528D01*
X206717Y132685D01*
X206452Y132848D01*
X206190Y133018D01*
X205933Y133195D01*
X205681Y133377D01*
X205433Y133566D01*
X205189Y133761D01*
X204951Y133961D01*
X204717Y134168D01*
X204489Y134380D01*
X204266Y134598D01*
X204048Y134821D01*
X203836Y135049D01*
X203629Y135283D01*
X203429Y135521D01*
X203234Y135765D01*
X203045Y136013D01*
X202863Y136265D01*
X202686Y136522D01*
X202516Y136784D01*
X202353Y137049D01*
X202196Y137318D01*
X202046Y137591D01*
X201902Y137868D01*
X201765Y138148D01*
X201636Y138431D01*
X201513Y138718D01*
X201397Y139007D01*
X201288Y139299D01*
X201187Y139594D01*
X201093Y139891D01*
X201006Y140191D01*
X200927Y140492D01*
X200855Y140795D01*
X200790Y141100D01*
X200733Y141407D01*
X200683Y141715D01*
X200642Y142023D01*
X200607Y142333D01*
X200580Y142644D01*
X200561Y142955D01*
X200550Y143266D01*
X200546Y143578D01*
D10*
X209718Y140602D02*
X209720Y140675D01*
X209726Y140749D01*
X209736Y140821D01*
X209750Y140893D01*
X209767Y140965D01*
X209789Y141035D01*
X209814Y141104D01*
X209843Y141171D01*
X209876Y141237D01*
X209912Y141301D01*
X209951Y141362D01*
X209994Y141422D01*
X210040Y141479D01*
X210089Y141534D01*
X210141Y141586D01*
X210196Y141635D01*
X210253Y141681D01*
X210313Y141724D01*
X210374Y141763D01*
X210438Y141799D01*
X210504Y141832D01*
X210571Y141861D01*
X210640Y141886D01*
X210711Y141908D01*
X210782Y141925D01*
X210854Y141939D01*
X210927Y141949D01*
X211000Y141955D01*
X211073Y141957D01*
X209718Y140602D02*
X209720Y140499D01*
X209725Y140397D01*
X209735Y140294D01*
X209747Y140193D01*
X209764Y140091D01*
X209784Y139990D01*
X209808Y139891D01*
X209835Y139792D01*
X209866Y139694D01*
X209900Y139597D01*
X209938Y139501D01*
X209979Y139407D01*
X210024Y139315D01*
X210072Y139224D01*
X210123Y139135D01*
X210177Y139047D01*
X210234Y138962D01*
X210295Y138879D01*
X210358Y138798D01*
X210424Y138720D01*
X210493Y138643D01*
X210565Y138570D01*
X214459Y138739D02*
X214530Y138741D01*
X214601Y138746D01*
X214671Y138756D01*
X214741Y138769D01*
X214810Y138785D01*
X214878Y138805D01*
X214945Y138829D01*
X215010Y138856D01*
X215074Y138887D01*
X215137Y138921D01*
X215197Y138958D01*
X215255Y138998D01*
X215312Y139041D01*
X215366Y139087D01*
X215417Y139136D01*
X215466Y139187D01*
X215512Y139241D01*
X215555Y139298D01*
X215595Y139356D01*
X215632Y139417D01*
X215666Y139479D01*
X215697Y139543D01*
X215724Y139608D01*
X215748Y139675D01*
X215768Y139743D01*
X215784Y139812D01*
X215797Y139882D01*
X215807Y139952D01*
X215812Y140023D01*
X215814Y140094D01*
X215812Y140190D01*
X215807Y140286D01*
X215798Y140382D01*
X215785Y140477D01*
X215769Y140572D01*
X215749Y140666D01*
X215725Y140759D01*
X215698Y140851D01*
X215668Y140943D01*
X215634Y141033D01*
X215597Y141121D01*
X215556Y141208D01*
X215513Y141294D01*
X215466Y141378D01*
X215415Y141460D01*
X215362Y141540D01*
X215306Y141618D01*
X213274Y139416D02*
X213311Y139356D01*
X213352Y139297D01*
X213396Y139241D01*
X213443Y139187D01*
X213493Y139136D01*
X213545Y139087D01*
X213599Y139041D01*
X213656Y138998D01*
X213715Y138957D01*
X213776Y138920D01*
X213839Y138886D01*
X213904Y138856D01*
X213970Y138829D01*
X214037Y138805D01*
X214106Y138785D01*
X214175Y138769D01*
X214246Y138756D01*
X214316Y138746D01*
X214388Y138741D01*
X214459Y138739D01*
X212258Y141280D02*
X212221Y141340D01*
X212180Y141399D01*
X212136Y141455D01*
X212089Y141509D01*
X212039Y141560D01*
X211987Y141609D01*
X211933Y141655D01*
X211876Y141699D01*
X211817Y141739D01*
X211756Y141776D01*
X211693Y141810D01*
X211628Y141840D01*
X211562Y141867D01*
X211495Y141891D01*
X211426Y141911D01*
X211357Y141927D01*
X211286Y141940D01*
X211216Y141950D01*
X211144Y141955D01*
X211073Y141957D01*
X212258Y141279D02*
X213274Y139417D01*
X211073Y145199D02*
X215814Y146554D01*
X211073Y145199D02*
X211073Y148586D01*
X212427Y147570D02*
X209718Y147570D01*
D13*
X106834Y347302D02*
X106834Y354414D01*
X104858Y354414D01*
X104771Y354412D01*
X104683Y354406D01*
X104596Y354397D01*
X104510Y354383D01*
X104424Y354366D01*
X104340Y354345D01*
X104256Y354320D01*
X104173Y354291D01*
X104092Y354259D01*
X104012Y354224D01*
X103934Y354185D01*
X103857Y354142D01*
X103783Y354096D01*
X103711Y354047D01*
X103641Y353995D01*
X103573Y353939D01*
X103508Y353881D01*
X103445Y353820D01*
X103386Y353756D01*
X103329Y353689D01*
X103275Y353621D01*
X103224Y353549D01*
X103177Y353476D01*
X103132Y353401D01*
X103091Y353323D01*
X103054Y353244D01*
X103020Y353164D01*
X102990Y353082D01*
X102963Y352999D01*
X102940Y352914D01*
X102921Y352829D01*
X102906Y352743D01*
X102894Y352656D01*
X102886Y352569D01*
X102882Y352482D01*
X102882Y352394D01*
X102886Y352307D01*
X102894Y352220D01*
X102906Y352133D01*
X102921Y352047D01*
X102940Y351962D01*
X102963Y351877D01*
X102990Y351794D01*
X103020Y351712D01*
X103054Y351632D01*
X103091Y351553D01*
X103132Y351475D01*
X103177Y351400D01*
X103224Y351327D01*
X103275Y351255D01*
X103329Y351187D01*
X103386Y351120D01*
X103445Y351056D01*
X103508Y350995D01*
X103573Y350937D01*
X103641Y350881D01*
X103711Y350829D01*
X103783Y350780D01*
X103857Y350734D01*
X103934Y350691D01*
X104012Y350652D01*
X104092Y350617D01*
X104173Y350585D01*
X104256Y350556D01*
X104340Y350531D01*
X104424Y350510D01*
X104510Y350493D01*
X104596Y350479D01*
X104683Y350470D01*
X104771Y350464D01*
X104858Y350462D01*
X104858Y350463D02*
X106834Y350463D01*
X104463Y350463D02*
X102883Y347302D01*
X100017Y351253D02*
X97646Y351253D01*
X97568Y351251D01*
X97491Y351245D01*
X97414Y351236D01*
X97338Y351223D01*
X97262Y351206D01*
X97187Y351185D01*
X97114Y351161D01*
X97041Y351133D01*
X96970Y351101D01*
X96901Y351066D01*
X96834Y351028D01*
X96768Y350987D01*
X96705Y350942D01*
X96644Y350894D01*
X96585Y350844D01*
X96529Y350790D01*
X96475Y350734D01*
X96425Y350675D01*
X96377Y350614D01*
X96332Y350551D01*
X96291Y350485D01*
X96253Y350418D01*
X96218Y350349D01*
X96186Y350278D01*
X96158Y350205D01*
X96134Y350132D01*
X96113Y350057D01*
X96096Y349981D01*
X96083Y349905D01*
X96074Y349828D01*
X96068Y349751D01*
X96066Y349673D01*
X96065Y349673D02*
X96065Y349278D01*
X96067Y349191D01*
X96073Y349103D01*
X96082Y349016D01*
X96096Y348930D01*
X96113Y348844D01*
X96134Y348760D01*
X96159Y348676D01*
X96188Y348593D01*
X96220Y348512D01*
X96255Y348432D01*
X96294Y348354D01*
X96337Y348277D01*
X96383Y348203D01*
X96432Y348131D01*
X96484Y348061D01*
X96540Y347993D01*
X96598Y347928D01*
X96659Y347865D01*
X96723Y347806D01*
X96790Y347749D01*
X96858Y347695D01*
X96930Y347644D01*
X97003Y347597D01*
X97078Y347552D01*
X97156Y347511D01*
X97235Y347474D01*
X97315Y347440D01*
X97397Y347410D01*
X97480Y347383D01*
X97565Y347360D01*
X97650Y347341D01*
X97736Y347326D01*
X97823Y347314D01*
X97910Y347306D01*
X97997Y347302D01*
X98085Y347302D01*
X98172Y347306D01*
X98259Y347314D01*
X98346Y347326D01*
X98432Y347341D01*
X98517Y347360D01*
X98602Y347383D01*
X98685Y347410D01*
X98767Y347440D01*
X98847Y347474D01*
X98926Y347511D01*
X99004Y347552D01*
X99079Y347597D01*
X99152Y347644D01*
X99224Y347695D01*
X99292Y347749D01*
X99359Y347806D01*
X99423Y347865D01*
X99484Y347928D01*
X99542Y347993D01*
X99598Y348061D01*
X99650Y348131D01*
X99699Y348203D01*
X99745Y348277D01*
X99788Y348354D01*
X99827Y348432D01*
X99862Y348512D01*
X99894Y348593D01*
X99923Y348676D01*
X99948Y348760D01*
X99969Y348844D01*
X99986Y348930D01*
X100000Y349016D01*
X100009Y349103D01*
X100015Y349191D01*
X100017Y349278D01*
X100017Y351253D01*
X100015Y351363D01*
X100009Y351474D01*
X100000Y351583D01*
X99986Y351693D01*
X99969Y351802D01*
X99948Y351910D01*
X99923Y352018D01*
X99895Y352124D01*
X99862Y352230D01*
X99826Y352334D01*
X99787Y352437D01*
X99744Y352539D01*
X99697Y352639D01*
X99647Y352737D01*
X99594Y352834D01*
X99537Y352928D01*
X99477Y353021D01*
X99413Y353111D01*
X99347Y353199D01*
X99277Y353285D01*
X99205Y353368D01*
X99130Y353449D01*
X99052Y353527D01*
X98971Y353602D01*
X98888Y353674D01*
X98802Y353744D01*
X98714Y353810D01*
X98624Y353874D01*
X98531Y353934D01*
X98437Y353991D01*
X98340Y354044D01*
X98242Y354094D01*
X98142Y354141D01*
X98040Y354184D01*
X97937Y354223D01*
X97833Y354259D01*
X97727Y354292D01*
X97621Y354320D01*
X97513Y354345D01*
X97405Y354366D01*
X97296Y354383D01*
X97186Y354397D01*
X97077Y354406D01*
X96966Y354412D01*
X96856Y354414D01*
D14*
X158971Y356019D02*
X158971Y346494D01*
M02*
