G04 EAGLE Gerber RS-274X export*
G75*
%MOMM*%
%FSLAX34Y34*%
%LPD*%
%INSolderpaste Top*%
%IPPOS*%
%AMOC8*
5,1,8,0,0,1.08239X$1,22.5*%
G01*
%ADD10R,0.300000X0.850000*%
%ADD11R,0.850000X0.300000*%
%ADD12C,0.280800*%
%ADD13C,0.500000*%
%ADD14C,0.402900*%
%ADD15R,1.800000X1.000000*%
%ADD16R,0.850000X0.950000*%
%ADD17R,4.000000X4.000000*%
%ADD18R,4.064000X6.096000*%
%ADD19R,2.500000X1.200000*%
%ADD20R,1.000000X1.400000*%
%ADD21R,1.000000X1.100000*%
%ADD22C,0.270000*%

G36*
X156578Y279462D02*
X156578Y279462D01*
X156580Y279461D01*
X156623Y279481D01*
X156667Y279499D01*
X156667Y279501D01*
X156669Y279502D01*
X156702Y279587D01*
X156702Y296189D01*
X156701Y296191D01*
X156702Y296193D01*
X156682Y296236D01*
X156664Y296280D01*
X156662Y296280D01*
X156661Y296282D01*
X156576Y296315D01*
X139974Y296315D01*
X139972Y296314D01*
X139970Y296315D01*
X139927Y296295D01*
X139883Y296277D01*
X139883Y296275D01*
X139881Y296274D01*
X139848Y296189D01*
X139848Y279587D01*
X139849Y279585D01*
X139848Y279583D01*
X139868Y279540D01*
X139886Y279496D01*
X139888Y279496D01*
X139889Y279494D01*
X139974Y279461D01*
X156576Y279461D01*
X156578Y279462D01*
G37*
G36*
X133544Y279462D02*
X133544Y279462D01*
X133546Y279461D01*
X133589Y279481D01*
X133633Y279499D01*
X133633Y279501D01*
X133635Y279502D01*
X133668Y279587D01*
X133668Y296189D01*
X133667Y296191D01*
X133668Y296193D01*
X133648Y296236D01*
X133630Y296280D01*
X133628Y296280D01*
X133627Y296282D01*
X133542Y296315D01*
X116940Y296315D01*
X116938Y296314D01*
X116936Y296315D01*
X116893Y296295D01*
X116849Y296277D01*
X116849Y296275D01*
X116847Y296274D01*
X116814Y296189D01*
X116814Y279587D01*
X116815Y279585D01*
X116814Y279583D01*
X116834Y279540D01*
X116852Y279496D01*
X116854Y279496D01*
X116855Y279494D01*
X116940Y279461D01*
X133542Y279461D01*
X133544Y279462D01*
G37*
G36*
X156578Y256428D02*
X156578Y256428D01*
X156580Y256427D01*
X156623Y256447D01*
X156667Y256465D01*
X156667Y256467D01*
X156669Y256468D01*
X156702Y256553D01*
X156702Y273155D01*
X156701Y273157D01*
X156702Y273159D01*
X156682Y273202D01*
X156664Y273246D01*
X156662Y273246D01*
X156661Y273248D01*
X156576Y273281D01*
X139974Y273281D01*
X139972Y273280D01*
X139970Y273281D01*
X139927Y273261D01*
X139883Y273243D01*
X139883Y273241D01*
X139881Y273240D01*
X139848Y273155D01*
X139848Y256553D01*
X139849Y256551D01*
X139848Y256549D01*
X139868Y256506D01*
X139886Y256462D01*
X139888Y256462D01*
X139889Y256460D01*
X139974Y256427D01*
X156576Y256427D01*
X156578Y256428D01*
G37*
G36*
X133544Y256428D02*
X133544Y256428D01*
X133546Y256427D01*
X133589Y256447D01*
X133633Y256465D01*
X133633Y256467D01*
X133635Y256468D01*
X133668Y256553D01*
X133668Y273155D01*
X133667Y273157D01*
X133668Y273159D01*
X133648Y273202D01*
X133630Y273246D01*
X133628Y273246D01*
X133627Y273248D01*
X133542Y273281D01*
X116940Y273281D01*
X116938Y273280D01*
X116936Y273281D01*
X116893Y273261D01*
X116849Y273243D01*
X116849Y273241D01*
X116847Y273240D01*
X116814Y273155D01*
X116814Y256553D01*
X116815Y256551D01*
X116814Y256549D01*
X116834Y256506D01*
X116852Y256462D01*
X116854Y256462D01*
X116855Y256460D01*
X116940Y256427D01*
X133542Y256427D01*
X133544Y256428D01*
G37*
D10*
X164258Y311383D03*
X159258Y311383D03*
X154258Y311383D03*
X149258Y311383D03*
X144258Y311383D03*
X139258Y311383D03*
X134258Y311383D03*
X129258Y311383D03*
X124258Y311383D03*
X119258Y311383D03*
X114258Y311383D03*
X109258Y311383D03*
D11*
X101746Y303871D03*
X101746Y298871D03*
X101746Y293871D03*
X101746Y288871D03*
X101746Y283871D03*
X101746Y278871D03*
X101746Y273871D03*
X101746Y268871D03*
X101746Y263871D03*
X101746Y258871D03*
X101746Y253871D03*
X101746Y248871D03*
D10*
X109258Y241359D03*
X114258Y241359D03*
X119258Y241359D03*
X124258Y241359D03*
X129258Y241359D03*
X134258Y241359D03*
X139258Y241359D03*
X144258Y241359D03*
X149258Y241359D03*
X154258Y241359D03*
X159258Y241359D03*
X164258Y241359D03*
D11*
X171770Y248871D03*
X171770Y253871D03*
X171770Y258871D03*
X171770Y263871D03*
X171770Y268871D03*
X171770Y273871D03*
X171770Y278871D03*
X171770Y283871D03*
X171770Y288871D03*
X171770Y293871D03*
X171770Y298871D03*
X171770Y303871D03*
D12*
X86643Y210524D02*
X84051Y210524D01*
X86643Y210524D02*
X86643Y207332D01*
X84051Y207332D01*
X84051Y210524D01*
X84051Y210000D02*
X86643Y210000D01*
X92651Y207332D02*
X95243Y207332D01*
X92651Y207332D02*
X92651Y210524D01*
X95243Y210524D01*
X95243Y207332D01*
X95243Y210000D02*
X92651Y210000D01*
X86643Y200237D02*
X84051Y200237D01*
X86643Y200237D02*
X86643Y197045D01*
X84051Y197045D01*
X84051Y200237D01*
X84051Y199713D02*
X86643Y199713D01*
X92651Y197045D02*
X95243Y197045D01*
X92651Y197045D02*
X92651Y200237D01*
X95243Y200237D01*
X95243Y197045D01*
X95243Y199713D02*
X92651Y199713D01*
X187677Y255996D02*
X190269Y255996D01*
X190269Y252804D01*
X187677Y252804D01*
X187677Y255996D01*
X187677Y255472D02*
X190269Y255472D01*
X196277Y252804D02*
X198869Y252804D01*
X196277Y252804D02*
X196277Y255996D01*
X198869Y255996D01*
X198869Y252804D01*
X198869Y255472D02*
X196277Y255472D01*
X196404Y243025D02*
X198996Y243025D01*
X196404Y243025D02*
X196404Y246217D01*
X198996Y246217D01*
X198996Y243025D01*
X198996Y245693D02*
X196404Y245693D01*
X190396Y246217D02*
X187804Y246217D01*
X190396Y246217D02*
X190396Y243025D01*
X187804Y243025D01*
X187804Y246217D01*
X187804Y245693D02*
X190396Y245693D01*
X79968Y249601D02*
X77376Y249601D01*
X79968Y249601D02*
X79968Y246409D01*
X77376Y246409D01*
X77376Y249601D01*
X77376Y249077D02*
X79968Y249077D01*
X85976Y246409D02*
X88568Y246409D01*
X85976Y246409D02*
X85976Y249601D01*
X88568Y249601D01*
X88568Y246409D01*
X88568Y249077D02*
X85976Y249077D01*
X77343Y342350D02*
X77343Y344942D01*
X80535Y344942D01*
X80535Y342350D01*
X77343Y342350D01*
X80535Y350950D02*
X80535Y353542D01*
X80535Y350950D02*
X77343Y350950D01*
X77343Y353542D01*
X80535Y353542D01*
X80709Y335551D02*
X80709Y332959D01*
X77517Y332959D01*
X77517Y335551D01*
X80709Y335551D01*
X77517Y326951D02*
X77517Y324359D01*
X77517Y326951D02*
X80709Y326951D01*
X80709Y324359D01*
X77517Y324359D01*
X85263Y302207D02*
X87855Y302207D01*
X85263Y302207D02*
X85263Y305399D01*
X87855Y305399D01*
X87855Y302207D01*
X87855Y304875D02*
X85263Y304875D01*
X79255Y305399D02*
X76663Y305399D01*
X79255Y305399D02*
X79255Y302207D01*
X76663Y302207D01*
X76663Y305399D01*
X76663Y304875D02*
X79255Y304875D01*
X85993Y257249D02*
X88585Y257249D01*
X85993Y257249D02*
X85993Y260441D01*
X88585Y260441D01*
X88585Y257249D01*
X88585Y259917D02*
X85993Y259917D01*
X79985Y260441D02*
X77393Y260441D01*
X79985Y260441D02*
X79985Y257249D01*
X77393Y257249D01*
X77393Y260441D01*
X77393Y259917D02*
X79985Y259917D01*
X189582Y269585D02*
X192174Y269585D01*
X192174Y266393D01*
X189582Y266393D01*
X189582Y269585D01*
X189582Y269061D02*
X192174Y269061D01*
X198182Y266393D02*
X200774Y266393D01*
X198182Y266393D02*
X198182Y269585D01*
X200774Y269585D01*
X200774Y266393D01*
X200774Y269061D02*
X198182Y269061D01*
X190396Y236057D02*
X187804Y236057D01*
X190396Y236057D02*
X190396Y232865D01*
X187804Y232865D01*
X187804Y236057D01*
X187804Y235533D02*
X190396Y235533D01*
X196404Y232865D02*
X198996Y232865D01*
X196404Y232865D02*
X196404Y236057D01*
X198996Y236057D01*
X198996Y232865D01*
X198996Y235533D02*
X196404Y235533D01*
D13*
X181103Y222109D02*
X176103Y222109D01*
X181103Y222109D02*
X181103Y212909D01*
X176103Y212909D01*
X176103Y222109D01*
X176103Y217659D02*
X181103Y217659D01*
X194803Y212909D02*
X199803Y212909D01*
X194803Y212909D02*
X194803Y222109D01*
X199803Y222109D01*
X199803Y212909D01*
X199803Y217659D02*
X194803Y217659D01*
X130021Y212993D02*
X125021Y212993D01*
X125021Y222193D01*
X130021Y222193D01*
X130021Y212993D01*
X130021Y217743D02*
X125021Y217743D01*
X111321Y222193D02*
X106321Y222193D01*
X111321Y222193D02*
X111321Y212993D01*
X106321Y212993D01*
X106321Y222193D01*
X106321Y217743D02*
X111321Y217743D01*
D12*
X189582Y279237D02*
X192174Y279237D01*
X192174Y276045D01*
X189582Y276045D01*
X189582Y279237D01*
X189582Y278713D02*
X192174Y278713D01*
X198182Y276045D02*
X200774Y276045D01*
X198182Y276045D02*
X198182Y279237D01*
X200774Y279237D01*
X200774Y276045D01*
X200774Y278713D02*
X198182Y278713D01*
X181158Y302553D02*
X181158Y305145D01*
X184350Y305145D01*
X184350Y302553D01*
X181158Y302553D01*
X184350Y311153D02*
X184350Y313745D01*
X184350Y311153D02*
X181158Y311153D01*
X181158Y313745D01*
X184350Y313745D01*
D14*
X95546Y221665D02*
X91674Y221665D01*
X91674Y226937D01*
X95546Y226937D01*
X95546Y221665D01*
X95546Y225493D02*
X91674Y225493D01*
X79146Y226937D02*
X75274Y226937D01*
X79146Y226937D02*
X79146Y221665D01*
X75274Y221665D01*
X75274Y226937D01*
X75274Y225493D02*
X79146Y225493D01*
D13*
X159719Y212944D02*
X164719Y212944D01*
X159719Y212944D02*
X159719Y222144D01*
X164719Y222144D01*
X164719Y212944D01*
X164719Y217694D02*
X159719Y217694D01*
X146019Y222144D02*
X141019Y222144D01*
X146019Y222144D02*
X146019Y212944D01*
X141019Y212944D01*
X141019Y222144D01*
X141019Y217694D02*
X146019Y217694D01*
D15*
X95136Y351784D03*
X95136Y326784D03*
D16*
X200437Y307407D03*
X200437Y292907D03*
X211937Y292907D03*
X211937Y307407D03*
D17*
X148873Y98640D03*
D18*
X29493Y98640D03*
X268253Y98640D03*
D19*
G36*
X252551Y242900D02*
X227553Y243118D01*
X227657Y255116D01*
X252655Y254898D01*
X252551Y242900D01*
G37*
G36*
X252263Y209901D02*
X227265Y210119D01*
X227369Y222117D01*
X252367Y221899D01*
X252263Y209901D01*
G37*
D20*
X38635Y172175D03*
X29135Y194175D03*
X48135Y194175D03*
X38381Y240175D03*
X47881Y218175D03*
X28881Y218175D03*
D21*
X47000Y285500D03*
X47000Y268500D03*
X246136Y268977D03*
X246136Y285977D03*
X275000Y163500D03*
X275000Y180500D03*
X258000Y163500D03*
X258000Y180500D03*
D22*
X158819Y323261D02*
X158819Y325961D01*
X158819Y323261D02*
X155519Y323261D01*
X155519Y325961D01*
X158819Y325961D01*
X158819Y325826D02*
X155519Y325826D01*
X158819Y331901D02*
X158819Y334601D01*
X158819Y331901D02*
X155519Y331901D01*
X155519Y334601D01*
X158819Y334601D01*
X158819Y334466D02*
X155519Y334466D01*
X148586Y326011D02*
X148586Y323311D01*
X145286Y323311D01*
X145286Y326011D01*
X148586Y326011D01*
X148586Y325876D02*
X145286Y325876D01*
X148586Y331951D02*
X148586Y334651D01*
X148586Y331951D02*
X145286Y331951D01*
X145286Y334651D01*
X148586Y334651D01*
X148586Y334516D02*
X145286Y334516D01*
X186566Y334670D02*
X186566Y331970D01*
X186566Y334670D02*
X189866Y334670D01*
X189866Y331970D01*
X186566Y331970D01*
X186566Y334535D02*
X189866Y334535D01*
X186566Y326030D02*
X186566Y323330D01*
X186566Y326030D02*
X189866Y326030D01*
X189866Y323330D01*
X186566Y323330D01*
X186566Y325895D02*
X189866Y325895D01*
X169090Y326046D02*
X169090Y323346D01*
X165790Y323346D01*
X165790Y326046D01*
X169090Y326046D01*
X169090Y325911D02*
X165790Y325911D01*
X169090Y331986D02*
X169090Y334686D01*
X169090Y331986D02*
X165790Y331986D01*
X165790Y334686D01*
X169090Y334686D01*
X169090Y334551D02*
X165790Y334551D01*
X170847Y354689D02*
X173547Y354689D01*
X170847Y354689D02*
X170847Y357989D01*
X173547Y357989D01*
X173547Y354689D01*
X173547Y357254D02*
X170847Y357254D01*
X179487Y354689D02*
X182187Y354689D01*
X179487Y354689D02*
X179487Y357989D01*
X182187Y357989D01*
X182187Y354689D01*
X182187Y357254D02*
X179487Y357254D01*
X179483Y326029D02*
X179483Y323329D01*
X176183Y323329D01*
X176183Y326029D01*
X179483Y326029D01*
X179483Y325894D02*
X176183Y325894D01*
X179483Y331969D02*
X179483Y334669D01*
X179483Y331969D02*
X176183Y331969D01*
X176183Y334669D01*
X179483Y334669D01*
X179483Y334534D02*
X176183Y334534D01*
X163803Y341422D02*
X163803Y344122D01*
X163803Y341422D02*
X160503Y341422D01*
X160503Y344122D01*
X163803Y344122D01*
X163803Y343987D02*
X160503Y343987D01*
X163803Y350062D02*
X163803Y352762D01*
X163803Y350062D02*
X160503Y350062D01*
X160503Y352762D01*
X163803Y352762D01*
X163803Y352627D02*
X160503Y352627D01*
X170797Y344500D02*
X173497Y344500D01*
X170797Y344500D02*
X170797Y347800D01*
X173497Y347800D01*
X173497Y344500D01*
X173497Y347065D02*
X170797Y347065D01*
X179437Y344500D02*
X182137Y344500D01*
X179437Y344500D02*
X179437Y347800D01*
X182137Y347800D01*
X182137Y344500D01*
X182137Y347065D02*
X179437Y347065D01*
X190139Y344417D02*
X192839Y344417D01*
X190139Y344417D02*
X190139Y347717D01*
X192839Y347717D01*
X192839Y344417D01*
X192839Y346982D02*
X190139Y346982D01*
X198779Y344417D02*
X201479Y344417D01*
X198779Y344417D02*
X198779Y347717D01*
X201479Y347717D01*
X201479Y344417D01*
X201479Y346982D02*
X198779Y346982D01*
X212704Y347343D02*
X212704Y344643D01*
X209404Y344643D01*
X209404Y347343D01*
X212704Y347343D01*
X212704Y347208D02*
X209404Y347208D01*
X212704Y353283D02*
X212704Y355983D01*
X212704Y353283D02*
X209404Y353283D01*
X209404Y355983D01*
X212704Y355983D01*
X212704Y355848D02*
X209404Y355848D01*
D12*
X215616Y318609D02*
X218208Y318609D01*
X215616Y318609D02*
X215616Y321801D01*
X218208Y321801D01*
X218208Y318609D01*
X218208Y321277D02*
X215616Y321277D01*
X209608Y321801D02*
X207016Y321801D01*
X209608Y321801D02*
X209608Y318609D01*
X207016Y318609D01*
X207016Y321801D01*
X207016Y321277D02*
X209608Y321277D01*
X226886Y309602D02*
X226886Y307010D01*
X223694Y307010D01*
X223694Y309602D01*
X226886Y309602D01*
X223694Y301002D02*
X223694Y298410D01*
X223694Y301002D02*
X226886Y301002D01*
X226886Y298410D01*
X223694Y298410D01*
M02*
