G04 EAGLE Gerber RS-274X export*
G75*
%MOMM*%
%FSLAX34Y34*%
%LPD*%
%INSoldermask Top*%
%IPPOS*%
%AMOC8*
5,1,8,0,0,1.08239X$1,22.5*%
G01*
%ADD10C,1.927000*%
%ADD11R,0.427000X0.977000*%
%ADD12R,0.977000X0.427000*%
%ADD13R,5.377000X5.377000*%
%ADD14C,0.406869*%
%ADD15C,0.631119*%
%ADD16C,0.531859*%
%ADD17R,1.927000X1.127000*%
%ADD18R,0.977000X1.077000*%
%ADD19R,1.905000X2.667000*%
%ADD20C,8.127000*%
%ADD21R,2.627000X1.327000*%
%ADD22R,1.127000X1.527000*%
%ADD23R,1.127000X1.227000*%
%ADD24R,0.627000X0.627000*%
%ADD25R,1.027000X0.627000*%
%ADD26C,1.227000*%
%ADD27C,0.400200*%


D10*
X260760Y58880D03*
X47760Y373880D03*
D11*
X164258Y311383D03*
X159258Y311383D03*
X154258Y311383D03*
X149258Y311383D03*
X144258Y311383D03*
X139258Y311383D03*
X134258Y311383D03*
X129258Y311383D03*
X124258Y311383D03*
X119258Y311383D03*
X114258Y311383D03*
X109258Y311383D03*
D12*
X101746Y303871D03*
X101746Y298871D03*
X101746Y293871D03*
X101746Y288871D03*
X101746Y283871D03*
X101746Y278871D03*
X101746Y273871D03*
X101746Y268871D03*
X101746Y263871D03*
X101746Y258871D03*
X101746Y253871D03*
X101746Y248871D03*
D11*
X109258Y241359D03*
X114258Y241359D03*
X119258Y241359D03*
X124258Y241359D03*
X129258Y241359D03*
X134258Y241359D03*
X139258Y241359D03*
X144258Y241359D03*
X149258Y241359D03*
X154258Y241359D03*
X159258Y241359D03*
X164258Y241359D03*
D12*
X171770Y248871D03*
X171770Y253871D03*
X171770Y258871D03*
X171770Y263871D03*
X171770Y268871D03*
X171770Y273871D03*
X171770Y278871D03*
X171770Y283871D03*
X171770Y288871D03*
X171770Y293871D03*
X171770Y298871D03*
X171770Y303871D03*
D13*
X136758Y276371D03*
D14*
X86648Y210529D02*
X84046Y210529D01*
X86648Y210529D02*
X86648Y207327D01*
X84046Y207327D01*
X84046Y210529D01*
X92646Y207327D02*
X95248Y207327D01*
X92646Y207327D02*
X92646Y210529D01*
X95248Y210529D01*
X95248Y207327D01*
X86648Y200242D02*
X84046Y200242D01*
X86648Y200242D02*
X86648Y197040D01*
X84046Y197040D01*
X84046Y200242D01*
X92646Y197040D02*
X95248Y197040D01*
X92646Y197040D02*
X92646Y200242D01*
X95248Y200242D01*
X95248Y197040D01*
X187672Y256001D02*
X190274Y256001D01*
X190274Y252799D01*
X187672Y252799D01*
X187672Y256001D01*
X196272Y252799D02*
X198874Y252799D01*
X196272Y252799D02*
X196272Y256001D01*
X198874Y256001D01*
X198874Y252799D01*
X199001Y243020D02*
X196399Y243020D01*
X196399Y246222D01*
X199001Y246222D01*
X199001Y243020D01*
X190401Y246222D02*
X187799Y246222D01*
X190401Y246222D02*
X190401Y243020D01*
X187799Y243020D01*
X187799Y246222D01*
X79973Y249606D02*
X77371Y249606D01*
X79973Y249606D02*
X79973Y246404D01*
X77371Y246404D01*
X77371Y249606D01*
X85971Y246404D02*
X88573Y246404D01*
X85971Y246404D02*
X85971Y249606D01*
X88573Y249606D01*
X88573Y246404D01*
X77338Y342345D02*
X77338Y344947D01*
X80540Y344947D01*
X80540Y342345D01*
X77338Y342345D01*
X80540Y350945D02*
X80540Y353547D01*
X80540Y350945D02*
X77338Y350945D01*
X77338Y353547D01*
X80540Y353547D01*
X80714Y335556D02*
X80714Y332954D01*
X77512Y332954D01*
X77512Y335556D01*
X80714Y335556D01*
X77512Y326956D02*
X77512Y324354D01*
X77512Y326956D02*
X80714Y326956D01*
X80714Y324354D01*
X77512Y324354D01*
X85258Y302202D02*
X87860Y302202D01*
X85258Y302202D02*
X85258Y305404D01*
X87860Y305404D01*
X87860Y302202D01*
X79260Y305404D02*
X76658Y305404D01*
X79260Y305404D02*
X79260Y302202D01*
X76658Y302202D01*
X76658Y305404D01*
X85988Y257244D02*
X88590Y257244D01*
X85988Y257244D02*
X85988Y260446D01*
X88590Y260446D01*
X88590Y257244D01*
X79990Y260446D02*
X77388Y260446D01*
X79990Y260446D02*
X79990Y257244D01*
X77388Y257244D01*
X77388Y260446D01*
X189577Y269590D02*
X192179Y269590D01*
X192179Y266388D01*
X189577Y266388D01*
X189577Y269590D01*
X198177Y266388D02*
X200779Y266388D01*
X198177Y266388D02*
X198177Y269590D01*
X200779Y269590D01*
X200779Y266388D01*
X190401Y236062D02*
X187799Y236062D01*
X190401Y236062D02*
X190401Y232860D01*
X187799Y232860D01*
X187799Y236062D01*
X196399Y232860D02*
X199001Y232860D01*
X196399Y232860D02*
X196399Y236062D01*
X199001Y236062D01*
X199001Y232860D01*
D15*
X181083Y222089D02*
X176123Y222089D01*
X181083Y222089D02*
X181083Y212929D01*
X176123Y212929D01*
X176123Y222089D01*
X176123Y218924D02*
X181083Y218924D01*
X194823Y212929D02*
X199783Y212929D01*
X194823Y212929D02*
X194823Y222089D01*
X199783Y222089D01*
X199783Y212929D01*
X199783Y218924D02*
X194823Y218924D01*
X130001Y213013D02*
X125041Y213013D01*
X125041Y222173D01*
X130001Y222173D01*
X130001Y213013D01*
X130001Y219008D02*
X125041Y219008D01*
X111301Y222173D02*
X106341Y222173D01*
X111301Y222173D02*
X111301Y213013D01*
X106341Y213013D01*
X106341Y222173D01*
X106341Y219008D02*
X111301Y219008D01*
D14*
X189577Y279242D02*
X192179Y279242D01*
X192179Y276040D01*
X189577Y276040D01*
X189577Y279242D01*
X198177Y276040D02*
X200779Y276040D01*
X198177Y276040D02*
X198177Y279242D01*
X200779Y279242D01*
X200779Y276040D01*
X181153Y302548D02*
X181153Y305150D01*
X184355Y305150D01*
X184355Y302548D01*
X181153Y302548D01*
X184355Y311148D02*
X184355Y313750D01*
X184355Y311148D02*
X181153Y311148D01*
X181153Y313750D01*
X184355Y313750D01*
D16*
X95536Y221675D02*
X91684Y221675D01*
X91684Y226927D01*
X95536Y226927D01*
X95536Y221675D01*
X95536Y226728D02*
X91684Y226728D01*
X79136Y226927D02*
X75284Y226927D01*
X79136Y226927D02*
X79136Y221675D01*
X75284Y221675D01*
X75284Y226927D01*
X75284Y226728D02*
X79136Y226728D01*
D15*
X159739Y212964D02*
X164699Y212964D01*
X159739Y212964D02*
X159739Y222124D01*
X164699Y222124D01*
X164699Y212964D01*
X164699Y218959D02*
X159739Y218959D01*
X145999Y222124D02*
X141039Y222124D01*
X145999Y222124D02*
X145999Y212964D01*
X141039Y212964D01*
X141039Y222124D01*
X141039Y218959D02*
X145999Y218959D01*
D17*
X95136Y351784D03*
X95136Y326784D03*
D18*
X200437Y307407D03*
X200437Y292907D03*
X211937Y292907D03*
X211937Y307407D03*
D19*
X38873Y114140D03*
D20*
X123873Y98640D02*
X173873Y98640D01*
D19*
X258873Y114140D03*
X38873Y83140D03*
X258873Y83140D03*
D21*
G36*
X253180Y242259D02*
X226912Y242488D01*
X227028Y255757D01*
X253296Y255528D01*
X253180Y242259D01*
G37*
G36*
X252892Y209260D02*
X226624Y209489D01*
X226740Y222758D01*
X253008Y222529D01*
X252892Y209260D01*
G37*
D22*
X38635Y172175D03*
X29135Y194175D03*
X48135Y194175D03*
X38381Y240175D03*
X47881Y218175D03*
X28881Y218175D03*
D23*
X47000Y285500D03*
X47000Y268500D03*
X246136Y268977D03*
X246136Y285977D03*
X275000Y163500D03*
X275000Y180500D03*
X258000Y163500D03*
X258000Y180500D03*
D24*
X211119Y364388D03*
D25*
X232100Y364445D03*
D26*
X24000Y319527D03*
X23944Y306849D03*
X23960Y294156D03*
X24022Y281472D03*
X24000Y256000D03*
X24000Y268707D03*
D27*
X158803Y323277D02*
X158803Y325945D01*
X158803Y323277D02*
X155535Y323277D01*
X155535Y325945D01*
X158803Y325945D01*
X158803Y331917D02*
X158803Y334585D01*
X158803Y331917D02*
X155535Y331917D01*
X155535Y334585D01*
X158803Y334585D01*
X148570Y325995D02*
X148570Y323327D01*
X145302Y323327D01*
X145302Y325995D01*
X148570Y325995D01*
X148570Y331967D02*
X148570Y334635D01*
X148570Y331967D02*
X145302Y331967D01*
X145302Y334635D01*
X148570Y334635D01*
X186582Y334654D02*
X186582Y331986D01*
X186582Y334654D02*
X189850Y334654D01*
X189850Y331986D01*
X186582Y331986D01*
X186582Y326014D02*
X186582Y323346D01*
X186582Y326014D02*
X189850Y326014D01*
X189850Y323346D01*
X186582Y323346D01*
X169074Y323362D02*
X169074Y326030D01*
X169074Y323362D02*
X165806Y323362D01*
X165806Y326030D01*
X169074Y326030D01*
X169074Y332002D02*
X169074Y334670D01*
X169074Y332002D02*
X165806Y332002D01*
X165806Y334670D01*
X169074Y334670D01*
X170863Y354705D02*
X173531Y354705D01*
X170863Y354705D02*
X170863Y357973D01*
X173531Y357973D01*
X173531Y354705D01*
X179503Y354705D02*
X182171Y354705D01*
X179503Y354705D02*
X179503Y357973D01*
X182171Y357973D01*
X182171Y354705D01*
X179467Y326013D02*
X179467Y323345D01*
X176199Y323345D01*
X176199Y326013D01*
X179467Y326013D01*
X179467Y331985D02*
X179467Y334653D01*
X179467Y331985D02*
X176199Y331985D01*
X176199Y334653D01*
X179467Y334653D01*
X163787Y341438D02*
X163787Y344106D01*
X163787Y341438D02*
X160519Y341438D01*
X160519Y344106D01*
X163787Y344106D01*
X163787Y350078D02*
X163787Y352746D01*
X163787Y350078D02*
X160519Y350078D01*
X160519Y352746D01*
X163787Y352746D01*
X170813Y344516D02*
X173481Y344516D01*
X170813Y344516D02*
X170813Y347784D01*
X173481Y347784D01*
X173481Y344516D01*
X179453Y344516D02*
X182121Y344516D01*
X179453Y344516D02*
X179453Y347784D01*
X182121Y347784D01*
X182121Y344516D01*
X190155Y344433D02*
X192823Y344433D01*
X190155Y344433D02*
X190155Y347701D01*
X192823Y347701D01*
X192823Y344433D01*
X198795Y344433D02*
X201463Y344433D01*
X198795Y344433D02*
X198795Y347701D01*
X201463Y347701D01*
X201463Y344433D01*
X212688Y344659D02*
X212688Y347327D01*
X212688Y344659D02*
X209420Y344659D01*
X209420Y347327D01*
X212688Y347327D01*
X212688Y353299D02*
X212688Y355967D01*
X212688Y353299D02*
X209420Y353299D01*
X209420Y355967D01*
X212688Y355967D01*
D14*
X215611Y318604D02*
X218213Y318604D01*
X215611Y318604D02*
X215611Y321806D01*
X218213Y321806D01*
X218213Y318604D01*
X209613Y321806D02*
X207011Y321806D01*
X209613Y321806D02*
X209613Y318604D01*
X207011Y318604D01*
X207011Y321806D01*
X226891Y309607D02*
X226891Y307005D01*
X223689Y307005D01*
X223689Y309607D01*
X226891Y309607D01*
X223689Y301007D02*
X223689Y298405D01*
X223689Y301007D02*
X226891Y301007D01*
X226891Y298405D01*
X223689Y298405D01*
X45576Y299628D02*
X45576Y297026D01*
X45576Y299628D02*
X48778Y299628D01*
X48778Y297026D01*
X45576Y297026D01*
X48778Y305626D02*
X48778Y308228D01*
X48778Y305626D02*
X45576Y305626D01*
X45576Y308228D01*
X48778Y308228D01*
X266254Y146589D02*
X266254Y143987D01*
X263052Y143987D01*
X263052Y146589D01*
X266254Y146589D01*
X263052Y137989D02*
X263052Y135387D01*
X263052Y137989D02*
X266254Y137989D01*
X266254Y135387D01*
X263052Y135387D01*
X276601Y144030D02*
X276601Y146632D01*
X276601Y144030D02*
X273399Y144030D01*
X273399Y146632D01*
X276601Y146632D01*
X273399Y138032D02*
X273399Y135430D01*
X273399Y138032D02*
X276601Y138032D01*
X276601Y135430D01*
X273399Y135430D01*
X258466Y265539D02*
X258466Y268141D01*
X261668Y268141D01*
X261668Y265539D01*
X258466Y265539D01*
X261668Y274139D02*
X261668Y276741D01*
X261668Y274139D02*
X258466Y274139D01*
X258466Y276741D01*
X261668Y276741D01*
M02*
