M48
;GenerationSoftware,Autodesk,EAGLE,9.6.2*%
;CreationDate,2022-08-09T03:25:49Z*%
FMAT,2
ICI,OFF
METRIC,TZ,000.000
T5C0.200
T4C0.250
T3C0.254
T2C0.300
T1C1.800
%
G90
M71
T1
X4776Y37388
X26076Y5888
T2
X5890Y36300
X28618Y30046
X28618Y30984
X17610Y30940
X28518Y31922
X28405Y32860
X28405Y33798
X28305Y34737
X28205Y35575
X887Y10659
X887Y11597
X887Y12535
X887Y13473
X887Y14411
X887Y15349
X887Y20352
X887Y19414
X17231Y36330
X18153Y36312
X18992Y36300
X28718Y27232
X21913Y36345
X23195Y36427
X10581Y36300
X3900Y12200
X3900Y11500
X3900Y10700
X3900Y9100
X3900Y8300
X3900Y7600
X25900Y12200
X25900Y10700
X25900Y11400
X25900Y9100
X25900Y8300
X25900Y7500
X19893Y36300
X1271Y36315
X2138Y36300
X3076Y36300
X4014Y36300
X887Y5030
X6829Y36300
X7767Y36300
X8705Y36300
X9643Y36300
X11519Y36300
X12457Y36300
X13395Y36300
X14323Y36338
X15297Y36338
X16269Y36335
X24340Y36300
X25278Y36300
X26216Y36300
X27154Y36300
X28092Y36300
X1217Y35375
X1163Y34406
X1124Y33498
X1046Y32517
X985Y31602
X949Y30689
X887Y29733
X887Y28795
X887Y27857
X887Y26919
X887Y25981
X887Y25043
X887Y24105
X887Y23167
X887Y22228
X887Y21290
X887Y18476
X887Y17538
X887Y16600
X887Y9721
X887Y8782
X887Y7844
X887Y6906
X887Y5968
X887Y4092
X887Y3154
X887Y2216
X887Y1278
X1513Y965
X2451Y965
X3389Y965
X4327Y965
X5265Y965
X6203Y965
X7141Y965
X8079Y965
X9018Y965
X9956Y965
X10894Y965
X11832Y965
X12770Y965
X13708Y965
X14646Y965
X15584Y965
X16522Y965
X17460Y965
X18399Y965
X19337Y965
X20275Y965
X21213Y965
X22151Y965
X23089Y965
X24027Y965
X24965Y965
X25903Y965
X26841Y965
X27779Y965
X28718Y965
X28718Y1903
X28718Y2841
X28718Y3779
X28718Y4717
X28718Y5655
X28718Y6593
X28718Y7532
X28718Y8470
X28718Y9408
X28718Y10346
X28718Y11284
X28718Y12222
X28718Y13160
X28718Y14098
X28718Y15036
X28718Y15974
X28718Y16913
X28718Y17851
X28718Y18789
X28718Y19727
X28718Y20665
X28718Y21603
X28718Y22541
X28718Y23479
X28718Y24417
X28718Y25355
X28718Y26294
X28718Y28170
X28718Y29108
T3
X13555Y21032
X13548Y20562
X6965Y22207
X17853Y23216
X18273Y23448
X18588Y26288
X6959Y22671
X19330Y28437
X2401Y26904
X17862Y23706
X12342Y28771
X13676Y27637
X12342Y26504
X12342Y27637
X13676Y28771
X15009Y28771
X15009Y27637
X15009Y26504
X13676Y26504
X11301Y26504
X11288Y27599
X16063Y26491
X16063Y27637
X16058Y28771
X11301Y25304
X12342Y25304
X13670Y25318
X15009Y25312
X16059Y25307
X11301Y29971
X12342Y29971
X13676Y29971
X15009Y29971
X16058Y29971
X11301Y28771
X10022Y20646
X7339Y19551
X7339Y20051
X7339Y20551
X21051Y21607
X21547Y21607
X10025Y20156
X10438Y20407
T4
X9191Y30939
X8345Y26488
T5
X27700Y24600
X26400Y24700
X26600Y23300
X25155Y23772
X22700Y29000
X22800Y27500
X20700Y28400
X20012Y28460
X5700Y23300
X5900Y20100
X4000Y35100
X6300Y35500
X5500Y35000
X2100Y35500
X2100Y34100
X3700Y34100
X5800Y33800
X6100Y32700
X6000Y31800
X24600Y33300
X22900Y33400
X22600Y34300
X27100Y34200
X27700Y31700
X26500Y32100
X26400Y29700
X27800Y29800
X26200Y33300
X26300Y35400
X24500Y30800
X22200Y33100
X21919Y35146
X24100Y32000
X27500Y21300
X26300Y20900
X26100Y22000
X4244Y32225
X5091Y31626
X13166Y32653
X24737Y34408
X4970Y36086
X7444Y29325
X9244Y29425
X8944Y27625
X8344Y29325
X7744Y27925
X7300Y31900
X8300Y31900
X9400Y31800
X13973Y33968
X20755Y20272
X21255Y22572
X19455Y19872
X21155Y19572
X22555Y19572
X22855Y23272
X10655Y19672
X11815Y22264
X12057Y33753
X11796Y34269
X17016Y22519
X13336Y31973
X17683Y33997
X18390Y33976
X19215Y33950
X19917Y33945
X20426Y35533
X20416Y36304
X12944Y33140
X12579Y33506
X12409Y34275
X12952Y34275
X19791Y35533
X19156Y35562
X17086Y33955
X15519Y34240
X13933Y31985
X13940Y32754
X13977Y33365
X19583Y33375
X19603Y32681
X20259Y33337
X20239Y32702
X13471Y34174
X15032Y33972
X21919Y35781
X21919Y34511
X16275Y35785
X23993Y35552
X14809Y36024
X13871Y35970
X12937Y35967
X11992Y35951
X15160Y31933
X17261Y31960
X18306Y31900
X19909Y31965
X19204Y31874
X14493Y33967
X21254Y33704
X21692Y32745
X20958Y32769
X13549Y22547
X21961Y33594
X2700Y34800
X21000Y23500
X21600Y23900
X4700Y33600
X3500Y33100
X6300Y34500
X4900Y34500
X2600Y33300
X2400Y25600
X5100Y32700
X23700Y34400
X2400Y30700
X2400Y31900
X11611Y31953
X5600Y28549
X11023Y23250
X2400Y29400
X11675Y22941
X2400Y28100
X12200Y23300
X27500Y15300
X12900Y23300
X23300Y16000
X14000Y23300
X23600Y26800
X11695Y32533
X25300Y32500
X23300Y32600
X25700Y34300
X27200Y35200
X24800Y35200
X23000Y35300
X26900Y30800
X27000Y32900
X25300Y31300
X27700Y27100
X26900Y28000
X22400Y31600
X26400Y26000
X20614Y33881
M30