G04 EAGLE Gerber RS-274X export*
G75*
%MOMM*%
%FSLAX34Y34*%
%LPD*%
%INCopper Layer 15*%
%IPPOS*%
%AMOC8*
5,1,8,0,0,1.08239X$1,22.5*%
G01*
%ADD10C,0.457200*%
%ADD11C,0.453200*%
%ADD12C,0.403200*%
%ADD13C,0.503200*%

G36*
X163518Y245145D02*
X163518Y245145D01*
X163609Y245152D01*
X163639Y245164D01*
X163671Y245170D01*
X163751Y245212D01*
X163835Y245248D01*
X163867Y245274D01*
X163888Y245285D01*
X163910Y245308D01*
X163966Y245353D01*
X166506Y247893D01*
X166559Y247967D01*
X166619Y248036D01*
X166631Y248066D01*
X166650Y248092D01*
X166677Y248179D01*
X166711Y248264D01*
X166715Y248305D01*
X166722Y248328D01*
X166721Y248360D01*
X166729Y248431D01*
X166729Y320286D01*
X220592Y320286D01*
X220612Y320289D01*
X220632Y320287D01*
X220733Y320309D01*
X220835Y320325D01*
X220853Y320335D01*
X220872Y320339D01*
X220961Y320392D01*
X221052Y320441D01*
X221066Y320455D01*
X221083Y320465D01*
X221151Y320544D01*
X221222Y320619D01*
X221230Y320637D01*
X221243Y320652D01*
X221282Y320748D01*
X221325Y320842D01*
X221328Y320862D01*
X221335Y320880D01*
X221354Y321047D01*
X221354Y366190D01*
X221352Y366201D01*
X221353Y366208D01*
X221351Y366215D01*
X221353Y366229D01*
X221331Y366331D01*
X221314Y366433D01*
X221305Y366450D01*
X221300Y366470D01*
X221247Y366559D01*
X221199Y366650D01*
X221184Y366664D01*
X221174Y366681D01*
X221095Y366748D01*
X221020Y366820D01*
X221002Y366828D01*
X220987Y366841D01*
X220891Y366880D01*
X220797Y366923D01*
X220778Y366925D01*
X220759Y366933D01*
X220592Y366951D01*
X70337Y366951D01*
X70317Y366948D01*
X70298Y366950D01*
X70196Y366928D01*
X70094Y366912D01*
X70077Y366902D01*
X70057Y366898D01*
X69968Y366845D01*
X69877Y366796D01*
X69863Y366782D01*
X69846Y366772D01*
X69779Y366693D01*
X69708Y366618D01*
X69699Y366600D01*
X69686Y366585D01*
X69647Y366489D01*
X69604Y366395D01*
X69602Y366375D01*
X69594Y366357D01*
X69576Y366190D01*
X69576Y321710D01*
X69579Y321690D01*
X69577Y321671D01*
X69599Y321569D01*
X69616Y321467D01*
X69625Y321450D01*
X69629Y321430D01*
X69682Y321341D01*
X69731Y321250D01*
X69745Y321236D01*
X69755Y321219D01*
X69834Y321152D01*
X69909Y321081D01*
X69927Y321072D01*
X69942Y321059D01*
X70038Y321020D01*
X70132Y320977D01*
X70152Y320975D01*
X70170Y320967D01*
X70337Y320949D01*
X104501Y320949D01*
X104501Y254527D01*
X104516Y254437D01*
X104523Y254346D01*
X104535Y254316D01*
X104541Y254284D01*
X104583Y254204D01*
X104619Y254120D01*
X104645Y254088D01*
X104656Y254067D01*
X104679Y254045D01*
X104724Y253989D01*
X113360Y245353D01*
X113434Y245300D01*
X113503Y245240D01*
X113533Y245228D01*
X113559Y245209D01*
X113646Y245182D01*
X113731Y245148D01*
X113772Y245144D01*
X113795Y245137D01*
X113827Y245138D01*
X113898Y245130D01*
X163428Y245130D01*
X163518Y245145D01*
G37*
G36*
X167467Y215300D02*
X167467Y215300D01*
X167558Y215307D01*
X167587Y215319D01*
X167619Y215325D01*
X167700Y215367D01*
X167784Y215403D01*
X167816Y215429D01*
X167837Y215440D01*
X167859Y215463D01*
X167915Y215508D01*
X194446Y242039D01*
X194499Y242113D01*
X194559Y242183D01*
X194571Y242213D01*
X194590Y242239D01*
X194617Y242326D01*
X194651Y242411D01*
X194655Y242452D01*
X194662Y242474D01*
X194661Y242506D01*
X194669Y242577D01*
X194669Y275355D01*
X194666Y275375D01*
X194668Y275394D01*
X194646Y275496D01*
X194630Y275598D01*
X194620Y275615D01*
X194616Y275635D01*
X194563Y275724D01*
X194514Y275815D01*
X194500Y275829D01*
X194490Y275846D01*
X194411Y275913D01*
X194336Y275985D01*
X194318Y275993D01*
X194303Y276006D01*
X194207Y276045D01*
X194113Y276088D01*
X194093Y276090D01*
X194075Y276098D01*
X193908Y276116D01*
X172318Y276116D01*
X172298Y276113D01*
X172279Y276115D01*
X172177Y276093D01*
X172075Y276077D01*
X172058Y276067D01*
X172038Y276063D01*
X171949Y276010D01*
X171858Y275961D01*
X171844Y275947D01*
X171827Y275937D01*
X171760Y275858D01*
X171689Y275783D01*
X171680Y275765D01*
X171667Y275750D01*
X171628Y275654D01*
X171585Y275560D01*
X171583Y275540D01*
X171575Y275522D01*
X171557Y275355D01*
X171557Y240937D01*
X111673Y240937D01*
X101324Y251286D01*
X101324Y315868D01*
X101321Y315888D01*
X101323Y315907D01*
X101301Y316009D01*
X101285Y316111D01*
X101275Y316128D01*
X101271Y316148D01*
X101218Y316237D01*
X101169Y316328D01*
X101155Y316342D01*
X101145Y316359D01*
X101066Y316426D01*
X100991Y316498D01*
X100973Y316506D01*
X100958Y316519D01*
X100862Y316558D01*
X100768Y316601D01*
X100748Y316603D01*
X100730Y316611D01*
X100563Y316629D01*
X97593Y316629D01*
X97503Y316615D01*
X97412Y316607D01*
X97382Y316595D01*
X97350Y316590D01*
X97269Y316547D01*
X97185Y316511D01*
X97153Y316485D01*
X97133Y316474D01*
X97110Y316451D01*
X97054Y316406D01*
X95361Y314713D01*
X92639Y314713D01*
X90946Y316406D01*
X90872Y316459D01*
X90802Y316519D01*
X90772Y316531D01*
X90746Y316550D01*
X90659Y316577D01*
X90574Y316611D01*
X90533Y316615D01*
X90511Y316622D01*
X90479Y316621D01*
X90407Y316629D01*
X85593Y316629D01*
X85503Y316615D01*
X85412Y316607D01*
X85382Y316595D01*
X85350Y316590D01*
X85269Y316547D01*
X85185Y316511D01*
X85153Y316485D01*
X85133Y316474D01*
X85110Y316451D01*
X85054Y316406D01*
X84361Y315713D01*
X81639Y315713D01*
X80946Y316406D01*
X80872Y316459D01*
X80802Y316519D01*
X80772Y316531D01*
X80746Y316550D01*
X80659Y316577D01*
X80574Y316611D01*
X80533Y316615D01*
X80511Y316622D01*
X80479Y316621D01*
X80407Y316629D01*
X75593Y316629D01*
X75503Y316615D01*
X75412Y316607D01*
X75382Y316595D01*
X75350Y316590D01*
X75269Y316547D01*
X75185Y316511D01*
X75153Y316485D01*
X75133Y316474D01*
X75110Y316451D01*
X75054Y316406D01*
X74361Y315713D01*
X71639Y315713D01*
X70946Y316406D01*
X70872Y316459D01*
X70802Y316519D01*
X70772Y316531D01*
X70746Y316550D01*
X70659Y316577D01*
X70574Y316611D01*
X70533Y316615D01*
X70511Y316622D01*
X70479Y316621D01*
X70407Y316629D01*
X66591Y316629D01*
X66571Y316626D01*
X66552Y316628D01*
X66450Y316606D01*
X66348Y316590D01*
X66331Y316580D01*
X66311Y316576D01*
X66222Y316523D01*
X66131Y316474D01*
X66117Y316460D01*
X66100Y316450D01*
X66033Y316371D01*
X65962Y316296D01*
X65953Y316278D01*
X65940Y316263D01*
X65901Y316167D01*
X65858Y316073D01*
X65856Y316053D01*
X65848Y316035D01*
X65830Y315868D01*
X65830Y216046D01*
X65833Y216026D01*
X65831Y216007D01*
X65853Y215905D01*
X65870Y215803D01*
X65879Y215786D01*
X65883Y215766D01*
X65936Y215677D01*
X65985Y215586D01*
X65999Y215572D01*
X66009Y215555D01*
X66088Y215488D01*
X66163Y215417D01*
X66181Y215408D01*
X66196Y215395D01*
X66292Y215356D01*
X66386Y215313D01*
X66406Y215311D01*
X66424Y215303D01*
X66591Y215285D01*
X167377Y215285D01*
X167467Y215300D01*
G37*
G36*
X218439Y175982D02*
X218439Y175982D01*
X218458Y175980D01*
X218560Y176002D01*
X218662Y176019D01*
X218679Y176028D01*
X218699Y176032D01*
X218788Y176085D01*
X218879Y176134D01*
X218893Y176148D01*
X218910Y176158D01*
X218977Y176237D01*
X219049Y176312D01*
X219057Y176330D01*
X219070Y176345D01*
X219109Y176441D01*
X219152Y176535D01*
X219154Y176555D01*
X219162Y176573D01*
X219180Y176740D01*
X219180Y246288D01*
X219169Y246359D01*
X219167Y246430D01*
X219149Y246479D01*
X219141Y246531D01*
X219107Y246594D01*
X219082Y246661D01*
X219050Y246702D01*
X219025Y246748D01*
X218974Y246797D01*
X218929Y246853D01*
X218885Y246882D01*
X218847Y246918D01*
X218782Y246948D01*
X218722Y246986D01*
X218671Y246999D01*
X218624Y247021D01*
X218553Y247029D01*
X218483Y247047D01*
X218431Y247042D01*
X218380Y247048D01*
X218309Y247033D01*
X218238Y247027D01*
X218190Y247007D01*
X218139Y246996D01*
X218078Y246959D01*
X218012Y246931D01*
X217956Y246886D01*
X217928Y246870D01*
X217913Y246852D01*
X217881Y246826D01*
X157636Y186581D01*
X114024Y186581D01*
X114024Y210331D01*
X114021Y210351D01*
X114023Y210370D01*
X114001Y210472D01*
X113985Y210574D01*
X113975Y210591D01*
X113971Y210611D01*
X113918Y210700D01*
X113869Y210791D01*
X113855Y210805D01*
X113845Y210822D01*
X113766Y210889D01*
X113691Y210961D01*
X113673Y210969D01*
X113658Y210982D01*
X113562Y211021D01*
X113468Y211064D01*
X113448Y211066D01*
X113430Y211074D01*
X113263Y211092D01*
X67464Y211092D01*
X67444Y211089D01*
X67425Y211091D01*
X67323Y211069D01*
X67221Y211053D01*
X67204Y211043D01*
X67184Y211039D01*
X67095Y210986D01*
X67004Y210937D01*
X66990Y210923D01*
X66973Y210913D01*
X66906Y210834D01*
X66835Y210759D01*
X66826Y210741D01*
X66813Y210726D01*
X66774Y210630D01*
X66731Y210536D01*
X66729Y210516D01*
X66721Y210498D01*
X66703Y210331D01*
X66703Y176740D01*
X66706Y176720D01*
X66704Y176701D01*
X66726Y176599D01*
X66743Y176497D01*
X66752Y176480D01*
X66756Y176460D01*
X66809Y176371D01*
X66858Y176280D01*
X66872Y176266D01*
X66882Y176249D01*
X66961Y176182D01*
X67036Y176111D01*
X67054Y176102D01*
X67069Y176089D01*
X67165Y176050D01*
X67259Y176007D01*
X67279Y176005D01*
X67297Y175997D01*
X67464Y175979D01*
X218419Y175979D01*
X218439Y175982D01*
G37*
G36*
X157295Y189392D02*
X157295Y189392D01*
X157386Y189399D01*
X157416Y189411D01*
X157448Y189417D01*
X157528Y189459D01*
X157612Y189495D01*
X157644Y189521D01*
X157665Y189532D01*
X157687Y189555D01*
X157743Y189600D01*
X221017Y252874D01*
X221070Y252948D01*
X221130Y253017D01*
X221142Y253047D01*
X221161Y253073D01*
X221188Y253160D01*
X221222Y253245D01*
X221226Y253286D01*
X221233Y253309D01*
X221232Y253341D01*
X221240Y253412D01*
X221240Y305167D01*
X221229Y305238D01*
X221227Y305309D01*
X221209Y305358D01*
X221200Y305410D01*
X221167Y305473D01*
X221142Y305540D01*
X221110Y305581D01*
X221085Y305627D01*
X221034Y305676D01*
X220989Y305732D01*
X220945Y305761D01*
X220907Y305796D01*
X220842Y305827D01*
X220782Y305865D01*
X220731Y305878D01*
X220684Y305900D01*
X220613Y305908D01*
X220543Y305925D01*
X220491Y305921D01*
X220440Y305927D01*
X220369Y305912D01*
X220298Y305906D01*
X220250Y305886D01*
X220199Y305875D01*
X220138Y305838D01*
X220072Y305810D01*
X220016Y305765D01*
X219988Y305749D01*
X219973Y305731D01*
X219941Y305705D01*
X219088Y304853D01*
X216366Y304853D01*
X214440Y306778D01*
X214440Y309501D01*
X216366Y311426D01*
X219088Y311426D01*
X219941Y310574D01*
X219999Y310532D01*
X220051Y310483D01*
X220098Y310461D01*
X220140Y310430D01*
X220209Y310409D01*
X220274Y310379D01*
X220326Y310373D01*
X220376Y310358D01*
X220447Y310360D01*
X220518Y310352D01*
X220569Y310363D01*
X220621Y310364D01*
X220689Y310389D01*
X220759Y310404D01*
X220803Y310431D01*
X220852Y310449D01*
X220908Y310494D01*
X220970Y310530D01*
X221004Y310570D01*
X221044Y310603D01*
X221083Y310663D01*
X221130Y310717D01*
X221149Y310766D01*
X221177Y310810D01*
X221195Y310879D01*
X221222Y310946D01*
X221230Y311017D01*
X221238Y311048D01*
X221236Y311071D01*
X221240Y311112D01*
X221240Y313796D01*
X221225Y313886D01*
X221218Y313977D01*
X221206Y314007D01*
X221200Y314039D01*
X221158Y314120D01*
X221122Y314204D01*
X221096Y314236D01*
X221085Y314256D01*
X221062Y314279D01*
X221017Y314335D01*
X220713Y314639D01*
X220713Y317298D01*
X220712Y317305D01*
X220712Y317306D01*
X220711Y317313D01*
X220710Y317317D01*
X220712Y317337D01*
X220690Y317438D01*
X220674Y317540D01*
X220664Y317558D01*
X220660Y317577D01*
X220607Y317666D01*
X220558Y317758D01*
X220544Y317771D01*
X220534Y317789D01*
X220455Y317856D01*
X220380Y317927D01*
X220362Y317936D01*
X220347Y317948D01*
X220251Y317987D01*
X220157Y318031D01*
X220137Y318033D01*
X220119Y318040D01*
X219952Y318059D01*
X213048Y318059D01*
X213028Y318056D01*
X213009Y318058D01*
X212907Y318036D01*
X212805Y318019D01*
X212788Y318010D01*
X212768Y318006D01*
X212679Y317952D01*
X212588Y317904D01*
X212574Y317890D01*
X212557Y317879D01*
X212490Y317801D01*
X212418Y317726D01*
X212410Y317708D01*
X212397Y317693D01*
X212358Y317596D01*
X212315Y317503D01*
X212313Y317483D01*
X212305Y317464D01*
X212287Y317298D01*
X212287Y316639D01*
X210361Y314713D01*
X207639Y314713D01*
X205713Y316639D01*
X205713Y317298D01*
X205712Y317305D01*
X205712Y317306D01*
X205711Y317313D01*
X205710Y317317D01*
X205712Y317337D01*
X205690Y317438D01*
X205674Y317540D01*
X205664Y317558D01*
X205660Y317577D01*
X205607Y317666D01*
X205558Y317758D01*
X205544Y317771D01*
X205534Y317789D01*
X205455Y317856D01*
X205380Y317927D01*
X205362Y317936D01*
X205347Y317948D01*
X205251Y317987D01*
X205157Y318031D01*
X205137Y318033D01*
X205119Y318040D01*
X204952Y318059D01*
X170159Y318059D01*
X170139Y318056D01*
X170120Y318058D01*
X170018Y318036D01*
X169916Y318019D01*
X169899Y318010D01*
X169879Y318006D01*
X169790Y317952D01*
X169699Y317904D01*
X169685Y317890D01*
X169668Y317879D01*
X169601Y317801D01*
X169530Y317726D01*
X169521Y317708D01*
X169508Y317693D01*
X169469Y317596D01*
X169426Y317503D01*
X169424Y317483D01*
X169416Y317464D01*
X169398Y317298D01*
X169398Y278276D01*
X169401Y278256D01*
X169399Y278237D01*
X169421Y278135D01*
X169438Y278033D01*
X169447Y278016D01*
X169451Y277996D01*
X169504Y277907D01*
X169553Y277816D01*
X169567Y277802D01*
X169577Y277785D01*
X169656Y277718D01*
X169731Y277647D01*
X169749Y277638D01*
X169764Y277625D01*
X169860Y277586D01*
X169954Y277543D01*
X169974Y277541D01*
X169992Y277533D01*
X170159Y277515D01*
X196322Y277515D01*
X196322Y241126D01*
X167558Y212362D01*
X117708Y212362D01*
X117688Y212359D01*
X117669Y212361D01*
X117567Y212339D01*
X117465Y212323D01*
X117448Y212313D01*
X117428Y212309D01*
X117339Y212256D01*
X117248Y212207D01*
X117234Y212193D01*
X117217Y212183D01*
X117150Y212104D01*
X117079Y212029D01*
X117070Y212011D01*
X117057Y211996D01*
X117018Y211900D01*
X116975Y211806D01*
X116973Y211786D01*
X116965Y211768D01*
X116947Y211601D01*
X116947Y190138D01*
X116950Y190118D01*
X116948Y190099D01*
X116970Y189997D01*
X116987Y189895D01*
X116996Y189878D01*
X117000Y189858D01*
X117053Y189769D01*
X117102Y189678D01*
X117116Y189664D01*
X117126Y189647D01*
X117205Y189580D01*
X117280Y189509D01*
X117298Y189500D01*
X117313Y189487D01*
X117409Y189448D01*
X117503Y189405D01*
X117523Y189403D01*
X117541Y189395D01*
X117708Y189377D01*
X157205Y189377D01*
X157295Y189392D01*
G37*
%LPC*%
G36*
X113639Y223713D02*
X113639Y223713D01*
X111713Y225639D01*
X111713Y227952D01*
X111710Y227972D01*
X111712Y227991D01*
X111690Y228093D01*
X111674Y228195D01*
X111664Y228212D01*
X111660Y228232D01*
X111607Y228321D01*
X111558Y228412D01*
X111544Y228426D01*
X111534Y228443D01*
X111455Y228510D01*
X111380Y228582D01*
X111362Y228590D01*
X111347Y228603D01*
X111251Y228642D01*
X111157Y228685D01*
X111137Y228687D01*
X111119Y228695D01*
X110952Y228713D01*
X108639Y228713D01*
X106713Y230639D01*
X106713Y233361D01*
X108639Y235287D01*
X111361Y235287D01*
X113287Y233361D01*
X113287Y231048D01*
X113290Y231028D01*
X113288Y231009D01*
X113310Y230907D01*
X113326Y230805D01*
X113336Y230788D01*
X113340Y230768D01*
X113393Y230679D01*
X113442Y230588D01*
X113456Y230574D01*
X113466Y230557D01*
X113545Y230490D01*
X113620Y230418D01*
X113638Y230410D01*
X113653Y230397D01*
X113749Y230358D01*
X113843Y230315D01*
X113863Y230313D01*
X113881Y230305D01*
X114048Y230287D01*
X116361Y230287D01*
X118287Y228361D01*
X118287Y225639D01*
X116361Y223713D01*
X113639Y223713D01*
G37*
%LPD*%
%LPC*%
G36*
X120639Y229713D02*
X120639Y229713D01*
X118713Y231639D01*
X118713Y234361D01*
X120639Y236287D01*
X123361Y236287D01*
X124962Y234686D01*
X124978Y234675D01*
X124990Y234659D01*
X125078Y234603D01*
X125161Y234543D01*
X125180Y234537D01*
X125197Y234526D01*
X125298Y234501D01*
X125397Y234471D01*
X125416Y234471D01*
X125436Y234466D01*
X125539Y234474D01*
X125642Y234477D01*
X125661Y234484D01*
X125681Y234485D01*
X125776Y234526D01*
X125873Y234561D01*
X125889Y234574D01*
X125907Y234582D01*
X126038Y234686D01*
X127639Y236287D01*
X130361Y236287D01*
X132287Y234361D01*
X132287Y231639D01*
X130361Y229713D01*
X127639Y229713D01*
X126038Y231314D01*
X126022Y231325D01*
X126010Y231341D01*
X125922Y231397D01*
X125839Y231457D01*
X125820Y231463D01*
X125803Y231474D01*
X125702Y231499D01*
X125603Y231529D01*
X125584Y231529D01*
X125564Y231534D01*
X125461Y231526D01*
X125358Y231523D01*
X125339Y231516D01*
X125319Y231515D01*
X125224Y231474D01*
X125127Y231439D01*
X125111Y231426D01*
X125093Y231418D01*
X124962Y231314D01*
X123361Y229713D01*
X120639Y229713D01*
G37*
%LPD*%
%LPC*%
G36*
X114639Y315713D02*
X114639Y315713D01*
X112713Y317639D01*
X112713Y320361D01*
X114639Y322287D01*
X117361Y322287D01*
X117462Y322186D01*
X117478Y322175D01*
X117490Y322159D01*
X117577Y322103D01*
X117661Y322043D01*
X117680Y322037D01*
X117697Y322026D01*
X117798Y322001D01*
X117896Y321971D01*
X117916Y321971D01*
X117936Y321966D01*
X118039Y321974D01*
X118142Y321977D01*
X118161Y321984D01*
X118181Y321985D01*
X118276Y322026D01*
X118373Y322061D01*
X118389Y322074D01*
X118407Y322082D01*
X118538Y322186D01*
X120639Y324287D01*
X123361Y324287D01*
X125287Y322361D01*
X125287Y319639D01*
X123361Y317713D01*
X120639Y317713D01*
X120538Y317814D01*
X120522Y317825D01*
X120510Y317841D01*
X120422Y317897D01*
X120339Y317957D01*
X120320Y317963D01*
X120303Y317974D01*
X120202Y317999D01*
X120103Y318029D01*
X120084Y318029D01*
X120064Y318034D01*
X119961Y318026D01*
X119858Y318023D01*
X119839Y318016D01*
X119819Y318015D01*
X119724Y317974D01*
X119627Y317939D01*
X119611Y317926D01*
X119593Y317918D01*
X119462Y317814D01*
X117361Y315713D01*
X114639Y315713D01*
G37*
%LPD*%
%LPC*%
G36*
X183867Y288316D02*
X183867Y288316D01*
X181942Y290241D01*
X181942Y292964D01*
X183867Y294890D01*
X186552Y294890D01*
X186642Y294904D01*
X186733Y294911D01*
X186763Y294924D01*
X186795Y294929D01*
X186875Y294972D01*
X186959Y295008D01*
X186991Y295033D01*
X187012Y295044D01*
X187034Y295068D01*
X187090Y295113D01*
X188867Y296890D01*
X191590Y296890D01*
X193515Y294964D01*
X193515Y292241D01*
X191590Y290316D01*
X188905Y290316D01*
X188815Y290301D01*
X188724Y290294D01*
X188695Y290282D01*
X188663Y290276D01*
X188582Y290234D01*
X188498Y290198D01*
X188466Y290172D01*
X188445Y290161D01*
X188423Y290138D01*
X188367Y290093D01*
X186590Y288316D01*
X183867Y288316D01*
G37*
%LPD*%
%LPC*%
G36*
X91082Y290958D02*
X91082Y290958D01*
X89157Y292884D01*
X89157Y295607D01*
X91082Y297532D01*
X93805Y297532D01*
X95731Y295607D01*
X95731Y292884D01*
X93805Y290958D01*
X91082Y290958D01*
G37*
%LPD*%
%LPC*%
G36*
X73082Y289958D02*
X73082Y289958D01*
X71157Y291884D01*
X71157Y294607D01*
X73082Y296532D01*
X75805Y296532D01*
X77731Y294607D01*
X77731Y291884D01*
X75805Y289958D01*
X73082Y289958D01*
G37*
%LPD*%
%LPC*%
G36*
X82082Y289958D02*
X82082Y289958D01*
X80157Y291884D01*
X80157Y294607D01*
X82082Y296532D01*
X84805Y296532D01*
X86731Y294607D01*
X86731Y291884D01*
X84805Y289958D01*
X82082Y289958D01*
G37*
%LPD*%
%LPC*%
G36*
X205639Y280713D02*
X205639Y280713D01*
X203713Y282639D01*
X203713Y285361D01*
X205639Y287287D01*
X208361Y287287D01*
X210287Y285361D01*
X210287Y282639D01*
X208361Y280713D01*
X205639Y280713D01*
G37*
%LPD*%
%LPC*%
G36*
X76082Y275958D02*
X76082Y275958D01*
X74157Y277884D01*
X74157Y280607D01*
X76082Y282532D01*
X78805Y282532D01*
X80731Y280607D01*
X80731Y277884D01*
X78805Y275958D01*
X76082Y275958D01*
G37*
%LPD*%
%LPC*%
G36*
X88082Y272958D02*
X88082Y272958D01*
X86157Y274884D01*
X86157Y277607D01*
X88082Y279532D01*
X90805Y279532D01*
X92731Y277607D01*
X92731Y274884D01*
X90805Y272958D01*
X88082Y272958D01*
G37*
%LPD*%
%LPC*%
G36*
X138639Y229713D02*
X138639Y229713D01*
X136713Y231639D01*
X136713Y234361D01*
X138639Y236287D01*
X141361Y236287D01*
X143287Y234361D01*
X143287Y231639D01*
X141361Y229713D01*
X138639Y229713D01*
G37*
%LPD*%
%LPC*%
G36*
X70639Y226713D02*
X70639Y226713D01*
X68713Y228639D01*
X68713Y231361D01*
X70639Y233287D01*
X73361Y233287D01*
X75287Y231361D01*
X75287Y228639D01*
X73361Y226713D01*
X70639Y226713D01*
G37*
%LPD*%
D10*
X193296Y284365D03*
X186528Y313424D03*
X138865Y200325D03*
X138799Y205293D03*
X87150Y230905D03*
X178528Y232163D03*
X182731Y234476D03*
X190987Y261131D03*
X92328Y230954D03*
D11*
X91911Y309391D03*
X83116Y265749D03*
D10*
X177330Y237018D03*
X123423Y287706D03*
X136758Y276371D03*
X123423Y265036D03*
X123423Y276371D03*
X136758Y287706D03*
X150093Y287706D03*
X150093Y276371D03*
X150093Y265036D03*
X136758Y265036D03*
X113009Y265036D03*
X112882Y275990D03*
X113009Y287706D03*
X160634Y264909D03*
X160634Y276371D03*
X160581Y287714D03*
X113009Y253036D03*
X123423Y253036D03*
X136702Y253176D03*
X150093Y253120D03*
X160593Y253071D03*
X113009Y299706D03*
X123423Y299706D03*
X136758Y299706D03*
X150093Y299706D03*
X160581Y299714D03*
D12*
X190229Y293603D03*
X217727Y308140D03*
D13*
X12714Y363153D03*
X21381Y363000D03*
X30762Y363000D03*
X40143Y363000D03*
X58905Y363000D03*
X68286Y363000D03*
X77667Y363000D03*
X87048Y363000D03*
X96429Y363000D03*
X105810Y363000D03*
X115191Y363000D03*
X124572Y363000D03*
X133953Y363000D03*
X143334Y363000D03*
X152715Y363000D03*
X162096Y363000D03*
X210874Y363000D03*
X217255Y363000D03*
X224636Y363000D03*
X234017Y363000D03*
X243398Y363000D03*
X252779Y363000D03*
X262160Y363000D03*
X271541Y363000D03*
X280922Y363000D03*
X12170Y353747D03*
X11634Y344055D03*
X11238Y334984D03*
X10455Y325170D03*
X9847Y316022D03*
X9490Y306890D03*
X8873Y297333D03*
X8873Y287952D03*
X8873Y278571D03*
X8873Y269190D03*
X8873Y259809D03*
X8873Y250428D03*
X8873Y241047D03*
X8873Y231666D03*
X8873Y222285D03*
X8873Y212904D03*
X8873Y184761D03*
X8873Y175380D03*
X8873Y165999D03*
X8873Y97205D03*
X8873Y87824D03*
X8873Y78443D03*
X8873Y69062D03*
X8873Y59681D03*
X8873Y50300D03*
X8873Y40919D03*
X8873Y31538D03*
X8873Y22157D03*
X8873Y12776D03*
X15127Y9649D03*
X24508Y9649D03*
X33889Y9649D03*
X43270Y9649D03*
X52651Y9649D03*
X62032Y9649D03*
X71413Y9649D03*
X80794Y9649D03*
X90175Y9649D03*
X99556Y9649D03*
X108937Y9649D03*
X118318Y9649D03*
X127699Y9649D03*
X137080Y9649D03*
X146461Y9649D03*
X155842Y9649D03*
X165223Y9649D03*
X174604Y9649D03*
X183985Y9649D03*
X193366Y9649D03*
X202747Y9649D03*
X212128Y9649D03*
X221509Y9649D03*
X230890Y9649D03*
X240271Y9649D03*
X249652Y9649D03*
X259033Y9649D03*
X268414Y9649D03*
X277795Y9649D03*
X287176Y9649D03*
X287176Y19030D03*
X287176Y28411D03*
X287176Y37792D03*
X287176Y47173D03*
X287176Y56554D03*
X287176Y65935D03*
X287176Y75316D03*
X287176Y84697D03*
X287176Y94078D03*
X287176Y103459D03*
X287176Y112840D03*
X287176Y122221D03*
X287176Y131602D03*
X287176Y140983D03*
X287176Y150364D03*
X287176Y159745D03*
X287176Y169126D03*
X287176Y178507D03*
X287176Y187888D03*
X287176Y197269D03*
X287176Y206650D03*
X287176Y216031D03*
X287176Y225412D03*
X287176Y234793D03*
X287176Y244174D03*
X287176Y253555D03*
X287176Y262936D03*
X287176Y272317D03*
X287176Y281698D03*
X287176Y291079D03*
X286176Y300460D03*
X286176Y309841D03*
X285176Y319222D03*
X284049Y328603D03*
X284049Y337984D03*
X283049Y347365D03*
X282049Y355746D03*
X199985Y365000D03*
X8873Y106586D03*
X8873Y115967D03*
X8873Y125348D03*
X8873Y134729D03*
X8873Y144110D03*
X8873Y153491D03*
X8873Y203523D03*
X8873Y194142D03*
D12*
X151365Y325248D03*
X151379Y331000D03*
X151481Y342273D03*
X157000Y343000D03*
X162000Y347000D03*
X165746Y351242D03*
X170353Y356392D03*
X172134Y363258D03*
X172000Y328633D03*
X172000Y334000D03*
X174000Y340000D03*
X179498Y345529D03*
X184785Y350280D03*
X186190Y356508D03*
X145669Y325338D03*
X140028Y325534D03*
X134179Y325384D03*
X130414Y329778D03*
X126242Y333425D03*
X121702Y336391D03*
X118580Y340854D03*
X124089Y342752D03*
X129516Y342745D03*
X135026Y342662D03*
X146040Y342599D03*
X27000Y348000D03*
X47000Y336000D03*
X35000Y331000D03*
X63000Y345000D03*
X49000Y345000D03*
X26000Y333000D03*
X51000Y327000D03*
X237000Y344000D03*
X253000Y325000D03*
X233000Y326000D03*
X257000Y343000D03*
X272000Y352000D03*
X248000Y352000D03*
X230000Y353000D03*
X269000Y308000D03*
X270000Y329000D03*
X253000Y313000D03*
X277000Y271000D03*
X269000Y280000D03*
X224000Y316000D03*
X264000Y260000D03*
X277000Y246000D03*
X264000Y247000D03*
X266000Y233000D03*
X250000Y235000D03*
X231000Y232000D03*
X250000Y251000D03*
X227000Y290000D03*
X228000Y275000D03*
X207000Y284000D03*
X209000Y318000D03*
X57000Y233000D03*
X72000Y230000D03*
X59000Y201000D03*
X40000Y351000D03*
X63000Y355000D03*
X55000Y350000D03*
X21000Y355000D03*
X21000Y341000D03*
X37000Y341000D03*
X58000Y338000D03*
X61000Y327000D03*
X60000Y318000D03*
X246000Y333000D03*
X229000Y334000D03*
X226000Y343000D03*
X271000Y342000D03*
X277000Y317000D03*
X265000Y321000D03*
X264000Y297000D03*
X278000Y298000D03*
X262000Y333000D03*
X263000Y354000D03*
X245000Y308000D03*
X203000Y346000D03*
X210701Y353773D03*
X211000Y336000D03*
X189117Y343506D03*
X183000Y337264D03*
X202773Y329084D03*
X201955Y354954D03*
X193508Y352238D03*
X211000Y344000D03*
X192567Y334986D03*
X217000Y352000D03*
X222000Y331000D03*
X214000Y328000D03*
X223000Y354000D03*
X241000Y320000D03*
X275000Y213000D03*
X263000Y209000D03*
X261000Y220000D03*
X224000Y208000D03*
X42444Y322245D03*
X50909Y316263D03*
D10*
X24009Y269036D03*
D13*
X190241Y363115D03*
D12*
X185054Y363105D03*
X247372Y344076D03*
X203053Y337709D03*
X49697Y360861D03*
X74444Y293245D03*
X92444Y294245D03*
X89444Y276245D03*
X83444Y293245D03*
X77444Y279245D03*
X195717Y325577D03*
X73000Y319000D03*
X83000Y319000D03*
X94000Y318000D03*
X140453Y342662D03*
X151091Y336743D03*
X171994Y323496D03*
X181512Y326226D03*
X185229Y291603D03*
D10*
X105389Y199505D03*
D12*
X210000Y235000D03*
X216000Y239000D03*
D10*
X73389Y195505D03*
X73389Y200505D03*
X73389Y205505D03*
X189348Y206976D03*
X194348Y206976D03*
D12*
X24000Y256000D03*
D10*
X100805Y202660D03*
X105447Y206521D03*
D12*
X24000Y307000D03*
X24000Y319000D03*
X116000Y319000D03*
X56005Y285492D03*
X110000Y232000D03*
X24000Y294000D03*
X115000Y227000D03*
X24000Y281000D03*
X122000Y233000D03*
X275000Y153000D03*
X129000Y233000D03*
X233000Y160000D03*
X140000Y233000D03*
X236000Y268000D03*
X122000Y321000D03*
D13*
X39000Y122000D03*
X39000Y115000D03*
X39000Y107000D03*
X39000Y91000D03*
X39000Y83000D03*
X39000Y76000D03*
X259000Y122000D03*
X259000Y107000D03*
X259000Y114000D03*
X259000Y91000D03*
X259000Y83000D03*
X259000Y75000D03*
M02*
