G04 EAGLE Gerber RS-274X export*
G75*
%MOMM*%
%FSLAX34Y34*%
%LPD*%
%INCopper Layer 2*%
%IPPOS*%
%AMOC8*
5,1,8,0,0,1.08239X$1,22.5*%
G01*
%ADD10C,0.403200*%
%ADD11C,0.457200*%
%ADD12C,0.453200*%
%ADD13C,0.503200*%

G36*
X290896Y4771D02*
X290896Y4771D01*
X290915Y4769D01*
X291017Y4791D01*
X291119Y4807D01*
X291136Y4817D01*
X291156Y4821D01*
X291245Y4874D01*
X291336Y4923D01*
X291350Y4937D01*
X291367Y4947D01*
X291434Y5026D01*
X291506Y5101D01*
X291514Y5119D01*
X291527Y5134D01*
X291566Y5230D01*
X291609Y5324D01*
X291611Y5344D01*
X291619Y5362D01*
X291637Y5529D01*
X291637Y269887D01*
X291634Y269908D01*
X291635Y269942D01*
X284730Y365636D01*
X284713Y365705D01*
X284706Y365776D01*
X284685Y365824D01*
X284672Y365875D01*
X284657Y365899D01*
X284651Y366238D01*
X284649Y366251D01*
X284650Y366263D01*
X284627Y366372D01*
X284607Y366480D01*
X284601Y366491D01*
X284598Y366504D01*
X284541Y366599D01*
X284488Y366695D01*
X284478Y366704D01*
X284472Y366715D01*
X284388Y366787D01*
X284306Y366861D01*
X284295Y366866D01*
X284285Y366875D01*
X284182Y366916D01*
X284081Y366961D01*
X284069Y366962D01*
X284057Y366967D01*
X283890Y366985D01*
X56172Y366985D01*
X56082Y366970D01*
X55991Y366963D01*
X55961Y366951D01*
X55929Y366945D01*
X55849Y366903D01*
X55765Y366867D01*
X55733Y366841D01*
X55712Y366830D01*
X55690Y366807D01*
X55634Y366762D01*
X53765Y364893D01*
X49869Y363279D01*
X45651Y363279D01*
X41755Y364893D01*
X39886Y366762D01*
X39812Y366815D01*
X39743Y366875D01*
X39713Y366887D01*
X39686Y366906D01*
X39599Y366933D01*
X39515Y366967D01*
X39474Y366971D01*
X39451Y366978D01*
X39419Y366977D01*
X39348Y366985D01*
X11023Y366985D01*
X10904Y366966D01*
X10786Y366947D01*
X10783Y366946D01*
X10780Y366945D01*
X10674Y366889D01*
X10568Y366834D01*
X10566Y366832D01*
X10563Y366830D01*
X10480Y366743D01*
X10397Y366657D01*
X10396Y366654D01*
X10394Y366652D01*
X10343Y366543D01*
X10292Y366435D01*
X10291Y366431D01*
X10290Y366429D01*
X10289Y366418D01*
X10263Y366270D01*
X4364Y267952D01*
X4366Y267934D01*
X4363Y267906D01*
X4363Y5529D01*
X4366Y5509D01*
X4364Y5490D01*
X4386Y5388D01*
X4402Y5286D01*
X4412Y5269D01*
X4416Y5249D01*
X4469Y5160D01*
X4518Y5069D01*
X4532Y5055D01*
X4542Y5038D01*
X4621Y4971D01*
X4696Y4899D01*
X4714Y4891D01*
X4729Y4878D01*
X4825Y4839D01*
X4919Y4796D01*
X4939Y4794D01*
X4957Y4786D01*
X5124Y4768D01*
X290876Y4768D01*
X290896Y4771D01*
G37*
%LPC*%
G36*
X258651Y48279D02*
X258651Y48279D01*
X254755Y49893D01*
X251773Y52875D01*
X250159Y56771D01*
X250159Y60989D01*
X251773Y64885D01*
X254755Y67867D01*
X258651Y69481D01*
X262869Y69481D01*
X266765Y67867D01*
X269747Y64885D01*
X271361Y60989D01*
X271361Y56771D01*
X269747Y52875D01*
X266765Y49893D01*
X262869Y48279D01*
X258651Y48279D01*
G37*
%LPD*%
%LPC*%
G36*
X132887Y315375D02*
X132887Y315375D01*
X130962Y317301D01*
X130962Y317536D01*
X130959Y317555D01*
X130961Y317575D01*
X130939Y317677D01*
X130922Y317779D01*
X130913Y317796D01*
X130909Y317816D01*
X130855Y317905D01*
X130807Y317996D01*
X130793Y318010D01*
X130782Y318027D01*
X130704Y318094D01*
X130629Y318165D01*
X130611Y318174D01*
X130595Y318187D01*
X130499Y318225D01*
X130406Y318269D01*
X130386Y318271D01*
X130367Y318279D01*
X130201Y318297D01*
X127851Y318297D01*
X126436Y319712D01*
X126420Y319723D01*
X126408Y319739D01*
X126341Y319782D01*
X126302Y319815D01*
X126281Y319824D01*
X126237Y319855D01*
X126218Y319861D01*
X126201Y319872D01*
X126100Y319897D01*
X126090Y319900D01*
X126074Y319907D01*
X126067Y319908D01*
X126002Y319928D01*
X125982Y319927D01*
X125962Y319932D01*
X125859Y319924D01*
X125756Y319921D01*
X125737Y319914D01*
X125717Y319913D01*
X125657Y319887D01*
X125646Y319885D01*
X125619Y319871D01*
X125525Y319837D01*
X125509Y319824D01*
X125491Y319817D01*
X125442Y319778D01*
X125429Y319770D01*
X125414Y319755D01*
X125360Y319712D01*
X123361Y317713D01*
X120639Y317713D01*
X120538Y317814D01*
X120522Y317825D01*
X120510Y317841D01*
X120422Y317897D01*
X120339Y317957D01*
X120320Y317963D01*
X120303Y317974D01*
X120202Y317999D01*
X120103Y318029D01*
X120084Y318029D01*
X120064Y318034D01*
X119961Y318026D01*
X119858Y318023D01*
X119839Y318016D01*
X119819Y318015D01*
X119724Y317974D01*
X119627Y317939D01*
X119611Y317926D01*
X119593Y317918D01*
X119462Y317814D01*
X117361Y315713D01*
X114639Y315713D01*
X112713Y317639D01*
X112713Y320361D01*
X114639Y322287D01*
X117361Y322287D01*
X117462Y322186D01*
X117478Y322175D01*
X117490Y322159D01*
X117577Y322103D01*
X117661Y322043D01*
X117680Y322037D01*
X117697Y322026D01*
X117798Y322001D01*
X117896Y321971D01*
X117916Y321971D01*
X117936Y321966D01*
X118039Y321974D01*
X118142Y321977D01*
X118161Y321984D01*
X118181Y321985D01*
X118276Y322026D01*
X118373Y322061D01*
X118389Y322074D01*
X118407Y322082D01*
X118538Y322186D01*
X120639Y324287D01*
X123361Y324287D01*
X124776Y322872D01*
X124792Y322860D01*
X124805Y322845D01*
X124892Y322789D01*
X124976Y322729D01*
X124995Y322723D01*
X125012Y322712D01*
X125112Y322687D01*
X125211Y322656D01*
X125231Y322657D01*
X125250Y322652D01*
X125353Y322660D01*
X125457Y322663D01*
X125476Y322669D01*
X125495Y322671D01*
X125590Y322711D01*
X125688Y322747D01*
X125703Y322759D01*
X125722Y322767D01*
X125853Y322872D01*
X127851Y324871D01*
X130574Y324871D01*
X132499Y322945D01*
X132499Y322710D01*
X132502Y322690D01*
X132500Y322670D01*
X132522Y322569D01*
X132539Y322467D01*
X132548Y322450D01*
X132552Y322430D01*
X132606Y322341D01*
X132654Y322250D01*
X132668Y322236D01*
X132679Y322219D01*
X132757Y322152D01*
X132832Y322080D01*
X132850Y322072D01*
X132866Y322059D01*
X132962Y322020D01*
X133055Y321977D01*
X133075Y321975D01*
X133094Y321967D01*
X133260Y321949D01*
X135610Y321949D01*
X137535Y320023D01*
X137535Y317301D01*
X135610Y315375D01*
X132887Y315375D01*
G37*
%LPD*%
%LPC*%
G36*
X71916Y191948D02*
X71916Y191948D01*
X69832Y194032D01*
X69832Y196978D01*
X70321Y197467D01*
X70332Y197483D01*
X70348Y197495D01*
X70404Y197583D01*
X70464Y197666D01*
X70470Y197685D01*
X70481Y197702D01*
X70506Y197803D01*
X70537Y197902D01*
X70536Y197921D01*
X70541Y197941D01*
X70533Y198044D01*
X70530Y198147D01*
X70523Y198166D01*
X70522Y198186D01*
X70481Y198281D01*
X70446Y198378D01*
X70433Y198394D01*
X70426Y198412D01*
X70321Y198543D01*
X69832Y199032D01*
X69832Y201978D01*
X70321Y202467D01*
X70332Y202483D01*
X70348Y202495D01*
X70404Y202583D01*
X70464Y202666D01*
X70470Y202685D01*
X70481Y202702D01*
X70506Y202803D01*
X70537Y202902D01*
X70536Y202921D01*
X70541Y202941D01*
X70533Y203044D01*
X70530Y203147D01*
X70523Y203166D01*
X70522Y203186D01*
X70481Y203281D01*
X70446Y203378D01*
X70433Y203394D01*
X70426Y203412D01*
X70321Y203543D01*
X69832Y204032D01*
X69832Y206978D01*
X71916Y209062D01*
X74862Y209062D01*
X76946Y206978D01*
X76946Y204032D01*
X76457Y203543D01*
X76446Y203527D01*
X76430Y203515D01*
X76374Y203427D01*
X76314Y203344D01*
X76308Y203325D01*
X76297Y203308D01*
X76272Y203207D01*
X76241Y203108D01*
X76242Y203089D01*
X76237Y203069D01*
X76245Y202966D01*
X76248Y202863D01*
X76255Y202844D01*
X76256Y202824D01*
X76297Y202729D01*
X76332Y202632D01*
X76345Y202616D01*
X76352Y202598D01*
X76457Y202467D01*
X76946Y201978D01*
X76946Y199032D01*
X76457Y198543D01*
X76446Y198527D01*
X76430Y198515D01*
X76374Y198427D01*
X76314Y198344D01*
X76308Y198325D01*
X76297Y198308D01*
X76272Y198207D01*
X76241Y198108D01*
X76242Y198089D01*
X76237Y198069D01*
X76245Y197966D01*
X76248Y197863D01*
X76255Y197844D01*
X76256Y197824D01*
X76297Y197729D01*
X76332Y197632D01*
X76345Y197616D01*
X76352Y197598D01*
X76457Y197467D01*
X76946Y196978D01*
X76946Y194032D01*
X74862Y191948D01*
X71916Y191948D01*
G37*
%LPD*%
%LPC*%
G36*
X176560Y227475D02*
X176560Y227475D01*
X174476Y229559D01*
X174476Y232692D01*
X174491Y232739D01*
X174490Y232758D01*
X174495Y232778D01*
X174487Y232881D01*
X174484Y232984D01*
X174477Y233003D01*
X174476Y233023D01*
X174435Y233118D01*
X174400Y233215D01*
X174387Y233231D01*
X174380Y233249D01*
X174275Y233380D01*
X173413Y234242D01*
X173413Y237188D01*
X175497Y239272D01*
X178443Y239272D01*
X179432Y238283D01*
X179448Y238272D01*
X179460Y238256D01*
X179548Y238200D01*
X179631Y238140D01*
X179651Y238134D01*
X179667Y238123D01*
X179768Y238098D01*
X179867Y238067D01*
X179887Y238068D01*
X179906Y238063D01*
X180009Y238071D01*
X180112Y238074D01*
X180131Y238081D01*
X180151Y238082D01*
X180246Y238123D01*
X180343Y238158D01*
X180359Y238171D01*
X180377Y238178D01*
X180494Y238272D01*
X183443Y238272D01*
X185527Y236188D01*
X185527Y233242D01*
X183443Y231158D01*
X182351Y231158D01*
X182331Y231155D01*
X182312Y231157D01*
X182210Y231135D01*
X182108Y231119D01*
X182091Y231109D01*
X182071Y231105D01*
X181982Y231052D01*
X181891Y231003D01*
X181877Y230989D01*
X181860Y230979D01*
X181793Y230900D01*
X181721Y230825D01*
X181713Y230807D01*
X181700Y230792D01*
X181661Y230696D01*
X181618Y230602D01*
X181616Y230582D01*
X181608Y230564D01*
X181590Y230397D01*
X181590Y229559D01*
X179506Y227475D01*
X176560Y227475D01*
G37*
%LPD*%
%LPC*%
G36*
X103875Y190419D02*
X103875Y190419D01*
X101792Y192503D01*
X101792Y195449D01*
X102565Y196223D01*
X102577Y196239D01*
X102592Y196251D01*
X102648Y196338D01*
X102708Y196422D01*
X102714Y196441D01*
X102725Y196458D01*
X102750Y196558D01*
X102781Y196657D01*
X102780Y196677D01*
X102785Y196697D01*
X102777Y196800D01*
X102774Y196903D01*
X102768Y196922D01*
X102766Y196942D01*
X102726Y197037D01*
X102690Y197134D01*
X102678Y197150D01*
X102670Y197168D01*
X102565Y197299D01*
X101832Y198032D01*
X101832Y200978D01*
X103916Y203062D01*
X106862Y203062D01*
X108946Y200978D01*
X108946Y198032D01*
X108172Y197258D01*
X108161Y197242D01*
X108145Y197230D01*
X108089Y197143D01*
X108029Y197059D01*
X108023Y197040D01*
X108012Y197023D01*
X107987Y196922D01*
X107956Y196824D01*
X107957Y196804D01*
X107952Y196784D01*
X107960Y196681D01*
X107963Y196578D01*
X107970Y196559D01*
X107971Y196539D01*
X108012Y196444D01*
X108047Y196347D01*
X108060Y196331D01*
X108068Y196313D01*
X108172Y196182D01*
X108905Y195449D01*
X108905Y192503D01*
X106822Y190419D01*
X103875Y190419D01*
G37*
%LPD*%
%LPC*%
G36*
X137825Y196868D02*
X137825Y196868D01*
X135741Y198952D01*
X135741Y201898D01*
X136397Y202554D01*
X136408Y202570D01*
X136424Y202582D01*
X136480Y202670D01*
X136540Y202753D01*
X136546Y202772D01*
X136557Y202789D01*
X136582Y202890D01*
X136613Y202989D01*
X136612Y203008D01*
X136617Y203028D01*
X136609Y203131D01*
X136606Y203234D01*
X136599Y203253D01*
X136598Y203273D01*
X136557Y203368D01*
X136522Y203465D01*
X136509Y203481D01*
X136502Y203499D01*
X136397Y203630D01*
X135741Y204286D01*
X135741Y207232D01*
X137825Y209316D01*
X140771Y209316D01*
X142855Y207232D01*
X142855Y204286D01*
X142199Y203630D01*
X142188Y203614D01*
X142172Y203602D01*
X142116Y203514D01*
X142056Y203431D01*
X142050Y203412D01*
X142039Y203395D01*
X142014Y203294D01*
X141983Y203195D01*
X141984Y203176D01*
X141979Y203156D01*
X141987Y203053D01*
X141990Y202950D01*
X141997Y202931D01*
X141998Y202911D01*
X142039Y202816D01*
X142074Y202719D01*
X142087Y202703D01*
X142094Y202685D01*
X142199Y202554D01*
X142855Y201898D01*
X142855Y198952D01*
X140771Y196868D01*
X137825Y196868D01*
G37*
%LPD*%
%LPC*%
G36*
X85677Y227348D02*
X85677Y227348D01*
X83593Y229432D01*
X83593Y232378D01*
X85677Y234462D01*
X88623Y234462D01*
X89176Y233909D01*
X89192Y233897D01*
X89205Y233882D01*
X89292Y233826D01*
X89376Y233766D01*
X89395Y233760D01*
X89412Y233749D01*
X89512Y233724D01*
X89611Y233693D01*
X89631Y233694D01*
X89650Y233689D01*
X89753Y233697D01*
X89857Y233700D01*
X89875Y233706D01*
X89895Y233708D01*
X89990Y233748D01*
X90088Y233784D01*
X90103Y233796D01*
X90122Y233804D01*
X90253Y233909D01*
X90854Y234511D01*
X93801Y234511D01*
X95884Y232427D01*
X95884Y229481D01*
X93801Y227397D01*
X90854Y227397D01*
X90301Y227950D01*
X90285Y227962D01*
X90273Y227977D01*
X90186Y228033D01*
X90102Y228094D01*
X90083Y228100D01*
X90066Y228110D01*
X89965Y228136D01*
X89867Y228166D01*
X89847Y228166D01*
X89827Y228170D01*
X89724Y228162D01*
X89621Y228160D01*
X89602Y228153D01*
X89582Y228151D01*
X89487Y228111D01*
X89390Y228075D01*
X89374Y228063D01*
X89356Y228055D01*
X89225Y227950D01*
X88623Y227348D01*
X85677Y227348D01*
G37*
%LPD*%
%LPC*%
G36*
X187875Y203419D02*
X187875Y203419D01*
X185792Y205503D01*
X185792Y208449D01*
X187875Y210533D01*
X190822Y210533D01*
X191310Y210044D01*
X191326Y210033D01*
X191339Y210017D01*
X191426Y209961D01*
X191510Y209901D01*
X191529Y209895D01*
X191546Y209884D01*
X191646Y209859D01*
X191745Y209828D01*
X191765Y209829D01*
X191784Y209824D01*
X191887Y209832D01*
X191991Y209835D01*
X192009Y209842D01*
X192029Y209843D01*
X192124Y209883D01*
X192222Y209919D01*
X192237Y209932D01*
X192256Y209939D01*
X192387Y210044D01*
X192875Y210533D01*
X195822Y210533D01*
X197905Y208449D01*
X197905Y205503D01*
X195822Y203419D01*
X192875Y203419D01*
X192387Y203908D01*
X192370Y203919D01*
X192358Y203935D01*
X192271Y203991D01*
X192187Y204051D01*
X192168Y204057D01*
X192151Y204068D01*
X192051Y204093D01*
X191952Y204124D01*
X191932Y204123D01*
X191912Y204128D01*
X191810Y204120D01*
X191706Y204117D01*
X191687Y204110D01*
X191667Y204109D01*
X191572Y204068D01*
X191475Y204033D01*
X191459Y204020D01*
X191441Y204012D01*
X191310Y203908D01*
X190822Y203419D01*
X187875Y203419D01*
G37*
%LPD*%
%LPC*%
G36*
X208639Y231713D02*
X208639Y231713D01*
X206713Y233639D01*
X206713Y236361D01*
X208639Y238287D01*
X211361Y238287D01*
X211414Y238234D01*
X211472Y238193D01*
X211524Y238143D01*
X211571Y238121D01*
X211613Y238091D01*
X211682Y238070D01*
X211747Y238040D01*
X211799Y238034D01*
X211849Y238018D01*
X211920Y238020D01*
X211991Y238012D01*
X212042Y238024D01*
X212094Y238025D01*
X212162Y238049D01*
X212232Y238065D01*
X212277Y238091D01*
X212325Y238109D01*
X212381Y238154D01*
X212443Y238191D01*
X212477Y238230D01*
X212517Y238263D01*
X212556Y238323D01*
X212603Y238378D01*
X212622Y238426D01*
X212650Y238470D01*
X212668Y238539D01*
X212695Y238606D01*
X212703Y238677D01*
X212711Y238708D01*
X212709Y238732D01*
X212713Y238773D01*
X212713Y240361D01*
X214639Y242287D01*
X217361Y242287D01*
X219287Y240361D01*
X219287Y237639D01*
X217361Y235713D01*
X214639Y235713D01*
X214586Y235766D01*
X214528Y235807D01*
X214476Y235857D01*
X214429Y235879D01*
X214387Y235909D01*
X214318Y235930D01*
X214253Y235960D01*
X214201Y235966D01*
X214151Y235982D01*
X214080Y235980D01*
X214009Y235988D01*
X213958Y235976D01*
X213906Y235975D01*
X213838Y235951D01*
X213768Y235935D01*
X213723Y235909D01*
X213675Y235891D01*
X213619Y235846D01*
X213557Y235809D01*
X213523Y235770D01*
X213483Y235737D01*
X213444Y235677D01*
X213397Y235622D01*
X213378Y235574D01*
X213350Y235530D01*
X213332Y235461D01*
X213305Y235394D01*
X213297Y235323D01*
X213289Y235292D01*
X213291Y235268D01*
X213287Y235227D01*
X213287Y233639D01*
X211361Y231713D01*
X208639Y231713D01*
G37*
%LPD*%
%LPC*%
G36*
X113639Y223713D02*
X113639Y223713D01*
X111713Y225639D01*
X111713Y227952D01*
X111710Y227972D01*
X111712Y227991D01*
X111690Y228093D01*
X111674Y228195D01*
X111664Y228212D01*
X111660Y228232D01*
X111607Y228321D01*
X111558Y228412D01*
X111544Y228426D01*
X111534Y228443D01*
X111455Y228510D01*
X111380Y228582D01*
X111362Y228590D01*
X111347Y228603D01*
X111251Y228642D01*
X111157Y228685D01*
X111137Y228687D01*
X111119Y228695D01*
X110952Y228713D01*
X108639Y228713D01*
X106713Y230639D01*
X106713Y233361D01*
X108639Y235287D01*
X111361Y235287D01*
X113287Y233361D01*
X113287Y231048D01*
X113290Y231028D01*
X113288Y231009D01*
X113310Y230907D01*
X113326Y230805D01*
X113336Y230788D01*
X113340Y230768D01*
X113393Y230679D01*
X113442Y230588D01*
X113456Y230574D01*
X113466Y230557D01*
X113545Y230490D01*
X113620Y230418D01*
X113638Y230410D01*
X113653Y230397D01*
X113749Y230358D01*
X113843Y230315D01*
X113863Y230313D01*
X113881Y230305D01*
X114048Y230287D01*
X116361Y230287D01*
X118287Y228361D01*
X118287Y225639D01*
X116361Y223713D01*
X113639Y223713D01*
G37*
%LPD*%
%LPC*%
G36*
X120639Y229713D02*
X120639Y229713D01*
X118713Y231639D01*
X118713Y234361D01*
X120639Y236287D01*
X123361Y236287D01*
X124962Y234686D01*
X124978Y234675D01*
X124990Y234659D01*
X125078Y234603D01*
X125161Y234543D01*
X125180Y234537D01*
X125197Y234526D01*
X125298Y234501D01*
X125397Y234471D01*
X125416Y234471D01*
X125436Y234466D01*
X125539Y234474D01*
X125642Y234477D01*
X125661Y234484D01*
X125681Y234485D01*
X125776Y234526D01*
X125873Y234561D01*
X125889Y234574D01*
X125907Y234582D01*
X126038Y234686D01*
X127639Y236287D01*
X130361Y236287D01*
X132287Y234361D01*
X132287Y231639D01*
X130361Y229713D01*
X127639Y229713D01*
X126038Y231314D01*
X126022Y231325D01*
X126010Y231341D01*
X125922Y231397D01*
X125839Y231457D01*
X125820Y231463D01*
X125803Y231474D01*
X125702Y231499D01*
X125603Y231529D01*
X125584Y231529D01*
X125564Y231534D01*
X125461Y231526D01*
X125358Y231523D01*
X125339Y231516D01*
X125319Y231515D01*
X125224Y231474D01*
X125127Y231439D01*
X125111Y231426D01*
X125093Y231418D01*
X124962Y231314D01*
X123361Y229713D01*
X120639Y229713D01*
G37*
%LPD*%
%LPC*%
G36*
X182718Y315089D02*
X182718Y315089D01*
X180634Y317173D01*
X180634Y320119D01*
X182718Y322203D01*
X185664Y322203D01*
X187748Y320119D01*
X187748Y317173D01*
X185664Y315089D01*
X182718Y315089D01*
G37*
%LPD*%
%LPC*%
G36*
X191822Y280809D02*
X191822Y280809D01*
X189739Y282892D01*
X189739Y285839D01*
X191822Y287922D01*
X194769Y287922D01*
X196852Y285839D01*
X196852Y282892D01*
X194769Y280809D01*
X191822Y280809D01*
G37*
%LPD*%
%LPC*%
G36*
X189514Y257574D02*
X189514Y257574D01*
X187430Y259658D01*
X187430Y262604D01*
X189514Y264688D01*
X192460Y264688D01*
X194544Y262604D01*
X194544Y259658D01*
X192460Y257574D01*
X189514Y257574D01*
G37*
%LPD*%
%LPC*%
G36*
X90446Y305854D02*
X90446Y305854D01*
X88374Y307926D01*
X88374Y310856D01*
X90446Y312928D01*
X93376Y312928D01*
X95448Y310856D01*
X95448Y307926D01*
X93376Y305854D01*
X90446Y305854D01*
G37*
%LPD*%
%LPC*%
G36*
X81651Y262212D02*
X81651Y262212D01*
X79579Y264284D01*
X79579Y267214D01*
X81651Y269286D01*
X84581Y269286D01*
X86653Y267214D01*
X86653Y264284D01*
X84581Y262212D01*
X81651Y262212D01*
G37*
%LPD*%
%LPC*%
G36*
X22639Y315713D02*
X22639Y315713D01*
X20713Y317639D01*
X20713Y320361D01*
X22639Y322287D01*
X25361Y322287D01*
X27287Y320361D01*
X27287Y317639D01*
X25361Y315713D01*
X22639Y315713D01*
G37*
%LPD*%
%LPC*%
G36*
X22639Y303713D02*
X22639Y303713D01*
X20713Y305639D01*
X20713Y308361D01*
X22639Y310287D01*
X25361Y310287D01*
X27287Y308361D01*
X27287Y305639D01*
X25361Y303713D01*
X22639Y303713D01*
G37*
%LPD*%
%LPC*%
G36*
X22639Y290713D02*
X22639Y290713D01*
X20713Y292639D01*
X20713Y295361D01*
X22639Y297287D01*
X25361Y297287D01*
X27287Y295361D01*
X27287Y292639D01*
X25361Y290713D01*
X22639Y290713D01*
G37*
%LPD*%
%LPC*%
G36*
X54643Y282206D02*
X54643Y282206D01*
X52718Y284131D01*
X52718Y286854D01*
X54643Y288779D01*
X57366Y288779D01*
X59291Y286854D01*
X59291Y284131D01*
X57366Y282206D01*
X54643Y282206D01*
G37*
%LPD*%
%LPC*%
G36*
X22639Y277713D02*
X22639Y277713D01*
X20713Y279639D01*
X20713Y282361D01*
X22639Y284287D01*
X25361Y284287D01*
X27287Y282361D01*
X27287Y279639D01*
X25361Y277713D01*
X22639Y277713D01*
G37*
%LPD*%
%LPC*%
G36*
X234639Y264713D02*
X234639Y264713D01*
X232713Y266639D01*
X232713Y269361D01*
X234639Y271287D01*
X237361Y271287D01*
X239287Y269361D01*
X239287Y266639D01*
X237361Y264713D01*
X234639Y264713D01*
G37*
%LPD*%
%LPC*%
G36*
X22639Y252713D02*
X22639Y252713D01*
X20713Y254639D01*
X20713Y257361D01*
X22639Y259287D01*
X25361Y259287D01*
X27287Y257361D01*
X27287Y254639D01*
X25361Y252713D01*
X22639Y252713D01*
G37*
%LPD*%
%LPC*%
G36*
X180639Y240713D02*
X180639Y240713D01*
X178713Y242639D01*
X178713Y245361D01*
X180639Y247287D01*
X183361Y247287D01*
X185287Y245361D01*
X185287Y242639D01*
X183361Y240713D01*
X180639Y240713D01*
G37*
%LPD*%
%LPC*%
G36*
X138639Y229713D02*
X138639Y229713D01*
X136713Y231639D01*
X136713Y234361D01*
X138639Y236287D01*
X141361Y236287D01*
X143287Y234361D01*
X143287Y231639D01*
X141361Y229713D01*
X138639Y229713D01*
G37*
%LPD*%
%LPC*%
G36*
X165139Y228213D02*
X165139Y228213D01*
X163213Y230139D01*
X163213Y232861D01*
X165139Y234787D01*
X167861Y234787D01*
X169787Y232861D01*
X169787Y230139D01*
X167861Y228213D01*
X165139Y228213D01*
G37*
%LPD*%
%LPC*%
G36*
X231639Y156713D02*
X231639Y156713D01*
X229713Y158639D01*
X229713Y161361D01*
X231639Y163287D01*
X234361Y163287D01*
X236287Y161361D01*
X236287Y158639D01*
X234361Y156713D01*
X231639Y156713D01*
G37*
%LPD*%
%LPC*%
G36*
X272639Y148713D02*
X272639Y148713D01*
X270713Y150639D01*
X270713Y153361D01*
X272639Y155287D01*
X275361Y155287D01*
X277287Y153361D01*
X277287Y150639D01*
X275361Y148713D01*
X272639Y148713D01*
G37*
%LPD*%
D10*
X166500Y231500D03*
X182000Y244000D03*
D11*
X193296Y284365D03*
X184191Y318646D03*
X139298Y200425D03*
X139298Y205759D03*
X87150Y230905D03*
X178033Y231032D03*
X181970Y234715D03*
X190987Y261131D03*
X92328Y230954D03*
D12*
X91911Y309391D03*
X83116Y265749D03*
D11*
X176970Y235715D03*
X123423Y287706D03*
X136758Y276371D03*
X123423Y265036D03*
X123423Y276371D03*
X136758Y287706D03*
X150093Y287706D03*
X150093Y276371D03*
X150093Y265036D03*
X136758Y265036D03*
X113009Y265036D03*
X112882Y275990D03*
X113009Y287706D03*
X160634Y264909D03*
X160634Y276371D03*
X160581Y287714D03*
X113009Y253036D03*
X123423Y253036D03*
X136702Y253176D03*
X150093Y253120D03*
X160593Y253071D03*
X113009Y299706D03*
X123423Y299706D03*
X136758Y299706D03*
X150093Y299706D03*
X160581Y299714D03*
D10*
X184500Y294500D03*
X212500Y309500D03*
D13*
X12714Y363153D03*
X21381Y363000D03*
X30762Y363000D03*
X40143Y363000D03*
X58905Y363000D03*
X68286Y363000D03*
X77667Y363000D03*
X87048Y363000D03*
X96429Y363000D03*
X105810Y363000D03*
X115191Y363000D03*
X124572Y363000D03*
X133953Y363000D03*
X143334Y363000D03*
X152715Y363000D03*
X162096Y363000D03*
X210874Y363000D03*
X217255Y363000D03*
X224636Y363000D03*
X234017Y363000D03*
X243398Y363000D03*
X252779Y363000D03*
X262160Y363000D03*
X271541Y363000D03*
X280922Y363000D03*
X12170Y353747D03*
X11634Y344055D03*
X11238Y334984D03*
X10455Y325170D03*
X9847Y316022D03*
X9490Y306890D03*
X8873Y297333D03*
X8873Y287952D03*
X8873Y278571D03*
X8873Y269190D03*
X8873Y259809D03*
X8873Y250428D03*
X8873Y241047D03*
X8873Y231666D03*
X8873Y222285D03*
X8873Y212904D03*
X8873Y184761D03*
X8873Y175380D03*
X8873Y165999D03*
X8873Y97205D03*
X8873Y87824D03*
X8873Y78443D03*
X8873Y69062D03*
X8873Y59681D03*
X8873Y50300D03*
X8873Y40919D03*
X8873Y31538D03*
X8873Y22157D03*
X8873Y12776D03*
X15127Y9649D03*
X24508Y9649D03*
X33889Y9649D03*
X43270Y9649D03*
X52651Y9649D03*
X62032Y9649D03*
X71413Y9649D03*
X80794Y9649D03*
X90175Y9649D03*
X99556Y9649D03*
X108937Y9649D03*
X118318Y9649D03*
X127699Y9649D03*
X137080Y9649D03*
X146461Y9649D03*
X155842Y9649D03*
X165223Y9649D03*
X174604Y9649D03*
X183985Y9649D03*
X193366Y9649D03*
X202747Y9649D03*
X212128Y9649D03*
X221509Y9649D03*
X230890Y9649D03*
X240271Y9649D03*
X249652Y9649D03*
X259033Y9649D03*
X268414Y9649D03*
X277795Y9649D03*
X287176Y9649D03*
X287176Y19030D03*
X287176Y28411D03*
X287176Y37792D03*
X287176Y47173D03*
X287176Y56554D03*
X287176Y65935D03*
X287176Y75316D03*
X287176Y84697D03*
X287176Y94078D03*
X287176Y103459D03*
X287176Y112840D03*
X287176Y122221D03*
X287176Y131602D03*
X287176Y140983D03*
X287176Y150364D03*
X287176Y159745D03*
X287176Y169126D03*
X287176Y178507D03*
X287176Y187888D03*
X287176Y197269D03*
X287176Y206650D03*
X287176Y216031D03*
X287176Y225412D03*
X287176Y234793D03*
X287176Y244174D03*
X287176Y253555D03*
X287176Y262936D03*
X287176Y272317D03*
X287176Y281698D03*
X287176Y291079D03*
X286176Y300460D03*
X286176Y309841D03*
X285176Y319222D03*
X284049Y328603D03*
X284049Y337984D03*
X283049Y347365D03*
X282049Y355746D03*
X199985Y365000D03*
X8873Y106586D03*
X8873Y115967D03*
X8873Y125348D03*
X8873Y134729D03*
X8873Y144110D03*
X8873Y153491D03*
X8873Y203523D03*
X8873Y194142D03*
D10*
X152000Y325000D03*
X152000Y331000D03*
X152000Y339000D03*
X157000Y343000D03*
X162000Y347000D03*
X167000Y350000D03*
X166959Y357140D03*
X170403Y363059D03*
X172000Y328000D03*
X172000Y334000D03*
X174000Y340000D03*
X180000Y343000D03*
X183000Y349733D03*
X182959Y356814D03*
X146000Y326000D03*
X141000Y329000D03*
X136000Y333000D03*
X130000Y334000D03*
X124000Y334000D03*
X119000Y338000D03*
X118000Y344000D03*
X125000Y343000D03*
X132000Y342000D03*
X139000Y342000D03*
X146000Y342000D03*
X27000Y348000D03*
X47000Y336000D03*
X35000Y331000D03*
X55000Y347000D03*
X44000Y347000D03*
X26000Y333000D03*
X54000Y325000D03*
X237000Y344000D03*
X253000Y325000D03*
X233000Y326000D03*
X257000Y343000D03*
X272000Y352000D03*
X248000Y352000D03*
X230000Y353000D03*
X269000Y308000D03*
X270000Y329000D03*
X253000Y313000D03*
X277000Y274000D03*
X270000Y286000D03*
X224000Y316000D03*
X264000Y260000D03*
X277000Y246000D03*
X264000Y247000D03*
X266000Y233000D03*
X250000Y235000D03*
X231000Y232000D03*
X250000Y251000D03*
X227000Y290000D03*
X228000Y275000D03*
X207000Y284000D03*
X183000Y312000D03*
X209000Y318000D03*
X57000Y233000D03*
X72000Y230000D03*
X59000Y201000D03*
X38000Y354000D03*
X55000Y353000D03*
X47000Y355000D03*
X21000Y355000D03*
X21000Y341000D03*
X37000Y341000D03*
X58000Y338000D03*
X61000Y327000D03*
X60000Y318000D03*
X246000Y333000D03*
X229000Y334000D03*
X226000Y343000D03*
X271000Y342000D03*
X277000Y317000D03*
X265000Y321000D03*
X264000Y297000D03*
X278000Y298000D03*
X262000Y333000D03*
X263000Y354000D03*
X245000Y308000D03*
X203000Y346000D03*
X210701Y353773D03*
X211000Y336000D03*
X189117Y343506D03*
X183000Y334000D03*
X197617Y332520D03*
X201955Y354954D03*
X191507Y355896D03*
X211000Y344000D03*
X196872Y344193D03*
X217000Y352000D03*
X222000Y331000D03*
X214000Y328000D03*
X223000Y354000D03*
X241000Y320000D03*
X275000Y213000D03*
X263000Y209000D03*
X261000Y220000D03*
X224000Y208000D03*
X42444Y322245D03*
X50909Y316263D03*
D11*
X24009Y269036D03*
D13*
X190241Y363000D03*
D10*
X185170Y363028D03*
X247372Y344076D03*
X203053Y337709D03*
X49697Y360861D03*
X74444Y293245D03*
X92444Y294245D03*
X89444Y276245D03*
X83444Y293245D03*
X77444Y279245D03*
D11*
X105389Y199505D03*
X105348Y193976D03*
D10*
X210000Y235000D03*
X216000Y239000D03*
D11*
X73389Y195505D03*
X73389Y200505D03*
X73389Y205505D03*
X189348Y206976D03*
X194348Y206976D03*
D10*
X24000Y256000D03*
X24000Y307000D03*
X24000Y319000D03*
X134249Y318662D03*
X129212Y321584D03*
X116000Y319000D03*
X56005Y285492D03*
X110000Y232000D03*
X24000Y294000D03*
X115000Y227000D03*
X24000Y281000D03*
X122000Y233000D03*
X274000Y152000D03*
X129000Y233000D03*
X233000Y160000D03*
X140000Y233000D03*
X236000Y268000D03*
X122000Y321000D03*
M02*
