G04 EAGLE Gerber RS-274X export*
G75*
%MOMM*%
%FSLAX34Y34*%
%LPD*%
%INCopper Layer 15*%
%IPPOS*%
%AMOC8*
5,1,8,0,0,1.08239X$1,22.5*%
G01*
%ADD10C,0.403200*%
%ADD11C,0.457200*%
%ADD12C,0.453200*%
%ADD13C,0.503200*%

G36*
X163518Y245145D02*
X163518Y245145D01*
X163609Y245152D01*
X163639Y245164D01*
X163671Y245170D01*
X163751Y245212D01*
X163835Y245248D01*
X163867Y245274D01*
X163888Y245285D01*
X163910Y245308D01*
X163966Y245353D01*
X166506Y247893D01*
X166559Y247967D01*
X166619Y248036D01*
X166631Y248066D01*
X166650Y248092D01*
X166677Y248179D01*
X166711Y248264D01*
X166715Y248305D01*
X166722Y248328D01*
X166721Y248360D01*
X166729Y248431D01*
X166729Y324792D01*
X217911Y324792D01*
X217931Y324795D01*
X217950Y324793D01*
X218052Y324815D01*
X218154Y324832D01*
X218171Y324841D01*
X218191Y324845D01*
X218280Y324898D01*
X218371Y324947D01*
X218385Y324961D01*
X218402Y324971D01*
X218469Y325050D01*
X218541Y325125D01*
X218549Y325143D01*
X218562Y325158D01*
X218601Y325254D01*
X218644Y325348D01*
X218646Y325368D01*
X218654Y325386D01*
X218672Y325553D01*
X218672Y366190D01*
X218670Y366201D01*
X218671Y366208D01*
X218670Y366215D01*
X218671Y366229D01*
X218649Y366331D01*
X218633Y366433D01*
X218623Y366450D01*
X218619Y366470D01*
X218566Y366559D01*
X218517Y366650D01*
X218503Y366664D01*
X218493Y366681D01*
X218414Y366748D01*
X218339Y366820D01*
X218321Y366828D01*
X218306Y366841D01*
X218210Y366880D01*
X218116Y366923D01*
X218096Y366925D01*
X218078Y366933D01*
X217911Y366951D01*
X70337Y366951D01*
X70317Y366948D01*
X70298Y366950D01*
X70196Y366928D01*
X70094Y366912D01*
X70077Y366902D01*
X70057Y366898D01*
X69968Y366845D01*
X69877Y366796D01*
X69863Y366782D01*
X69846Y366772D01*
X69779Y366693D01*
X69708Y366618D01*
X69699Y366600D01*
X69686Y366585D01*
X69647Y366489D01*
X69604Y366395D01*
X69602Y366375D01*
X69594Y366357D01*
X69576Y366190D01*
X69576Y321710D01*
X69579Y321690D01*
X69577Y321671D01*
X69599Y321569D01*
X69616Y321467D01*
X69625Y321450D01*
X69629Y321430D01*
X69682Y321341D01*
X69731Y321250D01*
X69745Y321236D01*
X69755Y321219D01*
X69834Y321152D01*
X69909Y321081D01*
X69927Y321072D01*
X69942Y321059D01*
X70038Y321020D01*
X70132Y320977D01*
X70152Y320975D01*
X70170Y320967D01*
X70337Y320949D01*
X104501Y320949D01*
X104501Y254527D01*
X104516Y254437D01*
X104523Y254346D01*
X104535Y254316D01*
X104541Y254284D01*
X104583Y254204D01*
X104619Y254120D01*
X104645Y254088D01*
X104656Y254067D01*
X104679Y254045D01*
X104724Y253989D01*
X113360Y245353D01*
X113434Y245300D01*
X113503Y245240D01*
X113533Y245228D01*
X113559Y245209D01*
X113646Y245182D01*
X113731Y245148D01*
X113772Y245144D01*
X113795Y245137D01*
X113827Y245138D01*
X113898Y245130D01*
X163428Y245130D01*
X163518Y245145D01*
G37*
G36*
X167328Y215300D02*
X167328Y215300D01*
X167419Y215307D01*
X167449Y215319D01*
X167481Y215325D01*
X167561Y215367D01*
X167645Y215403D01*
X167677Y215429D01*
X167698Y215440D01*
X167720Y215463D01*
X167776Y215508D01*
X194446Y242178D01*
X194492Y242242D01*
X194511Y242262D01*
X194515Y242270D01*
X194559Y242321D01*
X194571Y242351D01*
X194590Y242377D01*
X194617Y242464D01*
X194651Y242549D01*
X194655Y242590D01*
X194662Y242613D01*
X194661Y242645D01*
X194669Y242716D01*
X194669Y275355D01*
X194666Y275375D01*
X194668Y275394D01*
X194646Y275496D01*
X194630Y275598D01*
X194620Y275615D01*
X194616Y275635D01*
X194563Y275724D01*
X194514Y275815D01*
X194500Y275829D01*
X194490Y275846D01*
X194411Y275913D01*
X194336Y275985D01*
X194318Y275993D01*
X194303Y276006D01*
X194207Y276045D01*
X194113Y276088D01*
X194093Y276090D01*
X194075Y276098D01*
X193908Y276116D01*
X172318Y276116D01*
X172298Y276113D01*
X172279Y276115D01*
X172177Y276093D01*
X172075Y276077D01*
X172058Y276067D01*
X172038Y276063D01*
X171949Y276010D01*
X171858Y275961D01*
X171844Y275947D01*
X171827Y275937D01*
X171760Y275858D01*
X171689Y275783D01*
X171680Y275765D01*
X171667Y275750D01*
X171628Y275654D01*
X171585Y275560D01*
X171583Y275540D01*
X171575Y275522D01*
X171557Y275355D01*
X171557Y240937D01*
X111673Y240937D01*
X101324Y251286D01*
X101324Y315868D01*
X101321Y315888D01*
X101323Y315907D01*
X101301Y316009D01*
X101285Y316111D01*
X101275Y316128D01*
X101271Y316148D01*
X101218Y316237D01*
X101169Y316328D01*
X101155Y316342D01*
X101145Y316359D01*
X101066Y316426D01*
X100991Y316498D01*
X100973Y316506D01*
X100958Y316519D01*
X100862Y316558D01*
X100768Y316601D01*
X100748Y316603D01*
X100730Y316611D01*
X100563Y316629D01*
X66591Y316629D01*
X66571Y316626D01*
X66552Y316628D01*
X66450Y316606D01*
X66348Y316590D01*
X66331Y316580D01*
X66311Y316576D01*
X66222Y316523D01*
X66131Y316474D01*
X66117Y316460D01*
X66100Y316450D01*
X66033Y316371D01*
X65962Y316296D01*
X65953Y316278D01*
X65940Y316263D01*
X65901Y316167D01*
X65858Y316073D01*
X65856Y316053D01*
X65848Y316035D01*
X65830Y315868D01*
X65830Y216046D01*
X65833Y216026D01*
X65831Y216007D01*
X65853Y215905D01*
X65870Y215803D01*
X65879Y215786D01*
X65883Y215766D01*
X65936Y215677D01*
X65985Y215586D01*
X65999Y215572D01*
X66009Y215555D01*
X66088Y215488D01*
X66163Y215417D01*
X66181Y215408D01*
X66196Y215395D01*
X66292Y215356D01*
X66386Y215313D01*
X66406Y215311D01*
X66424Y215303D01*
X66591Y215285D01*
X167238Y215285D01*
X167328Y215300D01*
G37*
G36*
X218439Y175982D02*
X218439Y175982D01*
X218458Y175980D01*
X218560Y176002D01*
X218662Y176019D01*
X218679Y176028D01*
X218699Y176032D01*
X218788Y176085D01*
X218879Y176134D01*
X218893Y176148D01*
X218910Y176158D01*
X218977Y176237D01*
X219049Y176312D01*
X219057Y176330D01*
X219070Y176345D01*
X219109Y176441D01*
X219152Y176535D01*
X219154Y176555D01*
X219162Y176573D01*
X219180Y176740D01*
X219180Y247288D01*
X219169Y247359D01*
X219167Y247430D01*
X219149Y247479D01*
X219141Y247531D01*
X219107Y247594D01*
X219082Y247661D01*
X219050Y247702D01*
X219025Y247748D01*
X218974Y247797D01*
X218929Y247853D01*
X218885Y247882D01*
X218847Y247918D01*
X218782Y247948D01*
X218722Y247986D01*
X218671Y247999D01*
X218624Y248021D01*
X218553Y248029D01*
X218483Y248047D01*
X218431Y248042D01*
X218380Y248048D01*
X218309Y248033D01*
X218238Y248027D01*
X218190Y248007D01*
X218139Y247996D01*
X218078Y247959D01*
X218012Y247931D01*
X217956Y247886D01*
X217928Y247870D01*
X217913Y247852D01*
X217881Y247826D01*
X156636Y186581D01*
X114024Y186581D01*
X114024Y210331D01*
X114021Y210351D01*
X114023Y210370D01*
X114001Y210472D01*
X113985Y210574D01*
X113975Y210591D01*
X113971Y210611D01*
X113918Y210700D01*
X113869Y210791D01*
X113855Y210805D01*
X113845Y210822D01*
X113766Y210889D01*
X113691Y210961D01*
X113673Y210969D01*
X113658Y210982D01*
X113562Y211021D01*
X113468Y211064D01*
X113448Y211066D01*
X113430Y211074D01*
X113263Y211092D01*
X67464Y211092D01*
X67444Y211089D01*
X67425Y211091D01*
X67323Y211069D01*
X67221Y211053D01*
X67204Y211043D01*
X67184Y211039D01*
X67095Y210986D01*
X67004Y210937D01*
X66990Y210923D01*
X66973Y210913D01*
X66906Y210834D01*
X66835Y210759D01*
X66826Y210741D01*
X66813Y210726D01*
X66774Y210630D01*
X66731Y210536D01*
X66729Y210516D01*
X66721Y210498D01*
X66703Y210331D01*
X66703Y176740D01*
X66706Y176720D01*
X66704Y176701D01*
X66726Y176599D01*
X66743Y176497D01*
X66752Y176480D01*
X66756Y176460D01*
X66809Y176371D01*
X66858Y176280D01*
X66872Y176266D01*
X66882Y176249D01*
X66961Y176182D01*
X67036Y176111D01*
X67054Y176102D01*
X67069Y176089D01*
X67165Y176050D01*
X67259Y176007D01*
X67279Y176005D01*
X67297Y175997D01*
X67464Y175979D01*
X218419Y175979D01*
X218439Y175982D01*
G37*
G36*
X157295Y189392D02*
X157295Y189392D01*
X157386Y189399D01*
X157416Y189411D01*
X157448Y189417D01*
X157528Y189459D01*
X157612Y189495D01*
X157644Y189521D01*
X157665Y189532D01*
X157687Y189555D01*
X157743Y189600D01*
X218830Y250687D01*
X218883Y250761D01*
X218943Y250830D01*
X218955Y250860D01*
X218974Y250886D01*
X219001Y250973D01*
X219035Y251058D01*
X219039Y251099D01*
X219046Y251122D01*
X219045Y251154D01*
X219053Y251225D01*
X219053Y322251D01*
X219050Y322271D01*
X219052Y322290D01*
X219030Y322392D01*
X219014Y322494D01*
X219004Y322511D01*
X219000Y322531D01*
X218947Y322620D01*
X218898Y322711D01*
X218884Y322725D01*
X218874Y322742D01*
X218795Y322809D01*
X218720Y322881D01*
X218702Y322889D01*
X218687Y322902D01*
X218591Y322941D01*
X218497Y322984D01*
X218477Y322986D01*
X218459Y322994D01*
X218292Y323012D01*
X170159Y323012D01*
X170139Y323009D01*
X170120Y323011D01*
X170018Y322989D01*
X169916Y322973D01*
X169899Y322963D01*
X169879Y322959D01*
X169790Y322906D01*
X169699Y322857D01*
X169685Y322843D01*
X169668Y322833D01*
X169601Y322754D01*
X169530Y322679D01*
X169521Y322661D01*
X169508Y322646D01*
X169469Y322550D01*
X169426Y322456D01*
X169424Y322436D01*
X169416Y322418D01*
X169398Y322251D01*
X169398Y278276D01*
X169401Y278256D01*
X169399Y278237D01*
X169421Y278135D01*
X169438Y278033D01*
X169447Y278016D01*
X169451Y277996D01*
X169504Y277907D01*
X169553Y277816D01*
X169567Y277802D01*
X169577Y277785D01*
X169656Y277718D01*
X169731Y277647D01*
X169749Y277638D01*
X169764Y277625D01*
X169860Y277586D01*
X169954Y277543D01*
X169974Y277541D01*
X169992Y277533D01*
X170159Y277515D01*
X196322Y277515D01*
X196322Y241126D01*
X167558Y212362D01*
X117708Y212362D01*
X117688Y212359D01*
X117669Y212361D01*
X117567Y212339D01*
X117465Y212323D01*
X117448Y212313D01*
X117428Y212309D01*
X117339Y212256D01*
X117248Y212207D01*
X117234Y212193D01*
X117217Y212183D01*
X117150Y212104D01*
X117079Y212029D01*
X117070Y212011D01*
X117057Y211996D01*
X117018Y211900D01*
X116975Y211806D01*
X116973Y211786D01*
X116965Y211768D01*
X116947Y211601D01*
X116947Y190138D01*
X116950Y190118D01*
X116948Y190099D01*
X116970Y189997D01*
X116987Y189895D01*
X116996Y189878D01*
X117000Y189858D01*
X117053Y189769D01*
X117102Y189678D01*
X117116Y189664D01*
X117126Y189647D01*
X117205Y189580D01*
X117280Y189509D01*
X117298Y189500D01*
X117313Y189487D01*
X117409Y189448D01*
X117503Y189405D01*
X117523Y189403D01*
X117541Y189395D01*
X117708Y189377D01*
X157205Y189377D01*
X157295Y189392D01*
G37*
%LPC*%
G36*
X132887Y315375D02*
X132887Y315375D01*
X130962Y317301D01*
X130962Y317536D01*
X130959Y317555D01*
X130961Y317575D01*
X130939Y317677D01*
X130922Y317779D01*
X130913Y317796D01*
X130909Y317816D01*
X130855Y317905D01*
X130807Y317996D01*
X130793Y318010D01*
X130782Y318027D01*
X130704Y318094D01*
X130629Y318165D01*
X130611Y318174D01*
X130595Y318187D01*
X130499Y318225D01*
X130406Y318269D01*
X130386Y318271D01*
X130367Y318279D01*
X130201Y318297D01*
X127851Y318297D01*
X126436Y319712D01*
X126420Y319723D01*
X126408Y319739D01*
X126321Y319795D01*
X126237Y319855D01*
X126218Y319861D01*
X126201Y319872D01*
X126100Y319897D01*
X126002Y319928D01*
X125982Y319927D01*
X125962Y319932D01*
X125859Y319924D01*
X125756Y319921D01*
X125737Y319914D01*
X125717Y319913D01*
X125622Y319872D01*
X125525Y319837D01*
X125509Y319824D01*
X125491Y319817D01*
X125360Y319712D01*
X123361Y317713D01*
X120639Y317713D01*
X120538Y317814D01*
X120522Y317825D01*
X120510Y317841D01*
X120422Y317897D01*
X120339Y317957D01*
X120320Y317963D01*
X120303Y317974D01*
X120202Y317999D01*
X120103Y318029D01*
X120084Y318029D01*
X120064Y318034D01*
X119961Y318026D01*
X119858Y318023D01*
X119839Y318016D01*
X119819Y318015D01*
X119724Y317974D01*
X119627Y317939D01*
X119611Y317926D01*
X119593Y317918D01*
X119462Y317814D01*
X117361Y315713D01*
X114639Y315713D01*
X112713Y317639D01*
X112713Y320361D01*
X114639Y322287D01*
X117361Y322287D01*
X117462Y322186D01*
X117478Y322175D01*
X117490Y322159D01*
X117577Y322103D01*
X117661Y322043D01*
X117680Y322037D01*
X117697Y322026D01*
X117798Y322001D01*
X117896Y321971D01*
X117916Y321971D01*
X117936Y321966D01*
X118039Y321974D01*
X118142Y321977D01*
X118161Y321984D01*
X118181Y321985D01*
X118276Y322026D01*
X118373Y322061D01*
X118389Y322074D01*
X118407Y322082D01*
X118538Y322186D01*
X120639Y324287D01*
X123361Y324287D01*
X124776Y322872D01*
X124792Y322860D01*
X124805Y322845D01*
X124892Y322789D01*
X124976Y322729D01*
X124995Y322723D01*
X125012Y322712D01*
X125112Y322687D01*
X125211Y322656D01*
X125231Y322657D01*
X125250Y322652D01*
X125353Y322660D01*
X125457Y322663D01*
X125476Y322669D01*
X125495Y322671D01*
X125590Y322711D01*
X125688Y322747D01*
X125703Y322759D01*
X125722Y322767D01*
X125853Y322872D01*
X127851Y324871D01*
X130574Y324871D01*
X132499Y322945D01*
X132499Y322710D01*
X132502Y322690D01*
X132500Y322670D01*
X132522Y322569D01*
X132539Y322467D01*
X132548Y322450D01*
X132552Y322430D01*
X132606Y322341D01*
X132654Y322250D01*
X132668Y322236D01*
X132679Y322219D01*
X132757Y322152D01*
X132832Y322080D01*
X132850Y322072D01*
X132866Y322059D01*
X132962Y322020D01*
X133055Y321977D01*
X133075Y321975D01*
X133094Y321967D01*
X133260Y321949D01*
X135610Y321949D01*
X137535Y320023D01*
X137535Y317301D01*
X135610Y315375D01*
X132887Y315375D01*
G37*
%LPD*%
%LPC*%
G36*
X113639Y223713D02*
X113639Y223713D01*
X111713Y225639D01*
X111713Y227952D01*
X111710Y227972D01*
X111712Y227991D01*
X111690Y228093D01*
X111674Y228195D01*
X111664Y228212D01*
X111660Y228232D01*
X111607Y228321D01*
X111558Y228412D01*
X111544Y228426D01*
X111534Y228443D01*
X111455Y228510D01*
X111380Y228582D01*
X111362Y228590D01*
X111347Y228603D01*
X111251Y228642D01*
X111157Y228685D01*
X111137Y228687D01*
X111119Y228695D01*
X110952Y228713D01*
X108639Y228713D01*
X106713Y230639D01*
X106713Y233361D01*
X108639Y235287D01*
X111361Y235287D01*
X113287Y233361D01*
X113287Y231048D01*
X113290Y231028D01*
X113288Y231009D01*
X113310Y230907D01*
X113326Y230805D01*
X113336Y230788D01*
X113340Y230768D01*
X113393Y230679D01*
X113442Y230588D01*
X113456Y230574D01*
X113466Y230557D01*
X113545Y230490D01*
X113620Y230418D01*
X113638Y230410D01*
X113653Y230397D01*
X113749Y230358D01*
X113843Y230315D01*
X113863Y230313D01*
X113881Y230305D01*
X114048Y230287D01*
X116361Y230287D01*
X118287Y228361D01*
X118287Y225639D01*
X116361Y223713D01*
X113639Y223713D01*
G37*
%LPD*%
%LPC*%
G36*
X120639Y229713D02*
X120639Y229713D01*
X118713Y231639D01*
X118713Y234361D01*
X120639Y236287D01*
X123361Y236287D01*
X124962Y234686D01*
X124978Y234675D01*
X124990Y234659D01*
X125078Y234603D01*
X125161Y234543D01*
X125180Y234537D01*
X125197Y234526D01*
X125298Y234501D01*
X125397Y234471D01*
X125416Y234471D01*
X125436Y234466D01*
X125539Y234474D01*
X125642Y234477D01*
X125661Y234484D01*
X125681Y234485D01*
X125776Y234526D01*
X125873Y234561D01*
X125889Y234574D01*
X125907Y234582D01*
X126038Y234686D01*
X127639Y236287D01*
X130361Y236287D01*
X132287Y234361D01*
X132287Y231639D01*
X130361Y229713D01*
X127639Y229713D01*
X126038Y231314D01*
X126022Y231325D01*
X126010Y231341D01*
X125922Y231397D01*
X125839Y231457D01*
X125820Y231463D01*
X125803Y231474D01*
X125702Y231499D01*
X125603Y231529D01*
X125584Y231529D01*
X125564Y231534D01*
X125461Y231526D01*
X125358Y231523D01*
X125339Y231516D01*
X125319Y231515D01*
X125224Y231474D01*
X125127Y231439D01*
X125111Y231426D01*
X125093Y231418D01*
X124962Y231314D01*
X123361Y229713D01*
X120639Y229713D01*
G37*
%LPD*%
%LPC*%
G36*
X207639Y314713D02*
X207639Y314713D01*
X205713Y316639D01*
X205713Y319361D01*
X207639Y321287D01*
X210361Y321287D01*
X212287Y319361D01*
X212287Y316639D01*
X210361Y314713D01*
X207639Y314713D01*
G37*
%LPD*%
%LPC*%
G36*
X181639Y308713D02*
X181639Y308713D01*
X179713Y310639D01*
X179713Y313361D01*
X181639Y315287D01*
X184361Y315287D01*
X186287Y313361D01*
X186287Y310639D01*
X184361Y308713D01*
X181639Y308713D01*
G37*
%LPD*%
%LPC*%
G36*
X211139Y306213D02*
X211139Y306213D01*
X209213Y308139D01*
X209213Y310861D01*
X211139Y312787D01*
X213861Y312787D01*
X215787Y310861D01*
X215787Y308139D01*
X213861Y306213D01*
X211139Y306213D01*
G37*
%LPD*%
%LPC*%
G36*
X183139Y291213D02*
X183139Y291213D01*
X181213Y293139D01*
X181213Y295861D01*
X183139Y297787D01*
X185861Y297787D01*
X187787Y295861D01*
X187787Y293139D01*
X185861Y291213D01*
X183139Y291213D01*
G37*
%LPD*%
%LPC*%
G36*
X91082Y290958D02*
X91082Y290958D01*
X89157Y292884D01*
X89157Y295607D01*
X91082Y297532D01*
X93805Y297532D01*
X95731Y295607D01*
X95731Y292884D01*
X93805Y290958D01*
X91082Y290958D01*
G37*
%LPD*%
%LPC*%
G36*
X73082Y289958D02*
X73082Y289958D01*
X71157Y291884D01*
X71157Y294607D01*
X73082Y296532D01*
X75805Y296532D01*
X77731Y294607D01*
X77731Y291884D01*
X75805Y289958D01*
X73082Y289958D01*
G37*
%LPD*%
%LPC*%
G36*
X82082Y289958D02*
X82082Y289958D01*
X80157Y291884D01*
X80157Y294607D01*
X82082Y296532D01*
X84805Y296532D01*
X86731Y294607D01*
X86731Y291884D01*
X84805Y289958D01*
X82082Y289958D01*
G37*
%LPD*%
%LPC*%
G36*
X205639Y280713D02*
X205639Y280713D01*
X203713Y282639D01*
X203713Y285361D01*
X205639Y287287D01*
X208361Y287287D01*
X210287Y285361D01*
X210287Y282639D01*
X208361Y280713D01*
X205639Y280713D01*
G37*
%LPD*%
%LPC*%
G36*
X76082Y275958D02*
X76082Y275958D01*
X74157Y277884D01*
X74157Y280607D01*
X76082Y282532D01*
X78805Y282532D01*
X80731Y280607D01*
X80731Y277884D01*
X78805Y275958D01*
X76082Y275958D01*
G37*
%LPD*%
%LPC*%
G36*
X88082Y272958D02*
X88082Y272958D01*
X86157Y274884D01*
X86157Y277607D01*
X88082Y279532D01*
X90805Y279532D01*
X92731Y277607D01*
X92731Y274884D01*
X90805Y272958D01*
X88082Y272958D01*
G37*
%LPD*%
%LPC*%
G36*
X180639Y240713D02*
X180639Y240713D01*
X178713Y242639D01*
X178713Y245361D01*
X180639Y247287D01*
X183361Y247287D01*
X185287Y245361D01*
X185287Y242639D01*
X183361Y240713D01*
X180639Y240713D01*
G37*
%LPD*%
%LPC*%
G36*
X138639Y229713D02*
X138639Y229713D01*
X136713Y231639D01*
X136713Y234361D01*
X138639Y236287D01*
X141361Y236287D01*
X143287Y234361D01*
X143287Y231639D01*
X141361Y229713D01*
X138639Y229713D01*
G37*
%LPD*%
%LPC*%
G36*
X165139Y228213D02*
X165139Y228213D01*
X163213Y230139D01*
X163213Y232861D01*
X165139Y234787D01*
X167861Y234787D01*
X169787Y232861D01*
X169787Y230139D01*
X167861Y228213D01*
X165139Y228213D01*
G37*
%LPD*%
%LPC*%
G36*
X70639Y226713D02*
X70639Y226713D01*
X68713Y228639D01*
X68713Y231361D01*
X70639Y233287D01*
X73361Y233287D01*
X75287Y231361D01*
X75287Y228639D01*
X73361Y226713D01*
X70639Y226713D01*
G37*
%LPD*%
D10*
X166500Y231500D03*
X182000Y244000D03*
D11*
X193296Y284365D03*
X184191Y318646D03*
X139298Y200425D03*
X139298Y205759D03*
X87150Y230905D03*
X178033Y231032D03*
X181970Y234715D03*
X190987Y261131D03*
X92328Y230954D03*
D12*
X91911Y309391D03*
X83116Y265749D03*
D11*
X176970Y235715D03*
X123423Y287706D03*
X136758Y276371D03*
X123423Y265036D03*
X123423Y276371D03*
X136758Y287706D03*
X150093Y287706D03*
X150093Y276371D03*
X150093Y265036D03*
X136758Y265036D03*
X113009Y265036D03*
X112882Y275990D03*
X113009Y287706D03*
X160634Y264909D03*
X160634Y276371D03*
X160581Y287714D03*
X113009Y253036D03*
X123423Y253036D03*
X136702Y253176D03*
X150093Y253120D03*
X160593Y253071D03*
X113009Y299706D03*
X123423Y299706D03*
X136758Y299706D03*
X150093Y299706D03*
X160581Y299714D03*
D10*
X184500Y294500D03*
X212500Y309500D03*
D13*
X12714Y363153D03*
X21381Y363000D03*
X30762Y363000D03*
X40143Y363000D03*
X58905Y363000D03*
X68286Y363000D03*
X77667Y363000D03*
X87048Y363000D03*
X96429Y363000D03*
X105810Y363000D03*
X115191Y363000D03*
X124572Y363000D03*
X133953Y363000D03*
X143334Y363000D03*
X152715Y363000D03*
X162096Y363000D03*
X210874Y363000D03*
X217255Y363000D03*
X224636Y363000D03*
X234017Y363000D03*
X243398Y363000D03*
X252779Y363000D03*
X262160Y363000D03*
X271541Y363000D03*
X280922Y363000D03*
X12170Y353747D03*
X11634Y344055D03*
X11238Y334984D03*
X10455Y325170D03*
X9847Y316022D03*
X9490Y306890D03*
X8873Y297333D03*
X8873Y287952D03*
X8873Y278571D03*
X8873Y269190D03*
X8873Y259809D03*
X8873Y250428D03*
X8873Y241047D03*
X8873Y231666D03*
X8873Y222285D03*
X8873Y212904D03*
X8873Y184761D03*
X8873Y175380D03*
X8873Y165999D03*
X8873Y97205D03*
X8873Y87824D03*
X8873Y78443D03*
X8873Y69062D03*
X8873Y59681D03*
X8873Y50300D03*
X8873Y40919D03*
X8873Y31538D03*
X8873Y22157D03*
X8873Y12776D03*
X15127Y9649D03*
X24508Y9649D03*
X33889Y9649D03*
X43270Y9649D03*
X52651Y9649D03*
X62032Y9649D03*
X71413Y9649D03*
X80794Y9649D03*
X90175Y9649D03*
X99556Y9649D03*
X108937Y9649D03*
X118318Y9649D03*
X127699Y9649D03*
X137080Y9649D03*
X146461Y9649D03*
X155842Y9649D03*
X165223Y9649D03*
X174604Y9649D03*
X183985Y9649D03*
X193366Y9649D03*
X202747Y9649D03*
X212128Y9649D03*
X221509Y9649D03*
X230890Y9649D03*
X240271Y9649D03*
X249652Y9649D03*
X259033Y9649D03*
X268414Y9649D03*
X277795Y9649D03*
X287176Y9649D03*
X287176Y19030D03*
X287176Y28411D03*
X287176Y37792D03*
X287176Y47173D03*
X287176Y56554D03*
X287176Y65935D03*
X287176Y75316D03*
X287176Y84697D03*
X287176Y94078D03*
X287176Y103459D03*
X287176Y112840D03*
X287176Y122221D03*
X287176Y131602D03*
X287176Y140983D03*
X287176Y150364D03*
X287176Y159745D03*
X287176Y169126D03*
X287176Y178507D03*
X287176Y187888D03*
X287176Y197269D03*
X287176Y206650D03*
X287176Y216031D03*
X287176Y225412D03*
X287176Y234793D03*
X287176Y244174D03*
X287176Y253555D03*
X287176Y262936D03*
X287176Y272317D03*
X287176Y281698D03*
X287176Y291079D03*
X286176Y300460D03*
X286176Y309841D03*
X285176Y319222D03*
X284049Y328603D03*
X284049Y337984D03*
X283049Y347365D03*
X282049Y355746D03*
X199985Y365000D03*
X8873Y106586D03*
X8873Y115967D03*
X8873Y125348D03*
X8873Y134729D03*
X8873Y144110D03*
X8873Y153491D03*
X8873Y203523D03*
X8873Y194142D03*
D10*
X152000Y325000D03*
X152000Y331000D03*
X152000Y339000D03*
X157000Y343000D03*
X162000Y347000D03*
X165746Y351242D03*
X170353Y356392D03*
X170403Y363059D03*
X172000Y328000D03*
X172000Y334000D03*
X174000Y340000D03*
X180736Y345370D03*
X186231Y348463D03*
X186190Y356508D03*
X146000Y326000D03*
X141000Y329000D03*
X136000Y333000D03*
X130000Y334000D03*
X124000Y334000D03*
X119000Y338000D03*
X118000Y344000D03*
X125000Y343000D03*
X132000Y342000D03*
X139000Y342000D03*
X146000Y342000D03*
X27000Y348000D03*
X47000Y336000D03*
X35000Y331000D03*
X55000Y347000D03*
X44000Y347000D03*
X26000Y333000D03*
X54000Y325000D03*
X237000Y344000D03*
X253000Y325000D03*
X233000Y326000D03*
X257000Y343000D03*
X272000Y352000D03*
X248000Y352000D03*
X230000Y353000D03*
X269000Y308000D03*
X270000Y329000D03*
X253000Y313000D03*
X277000Y274000D03*
X270000Y286000D03*
X224000Y316000D03*
X264000Y260000D03*
X277000Y246000D03*
X264000Y247000D03*
X266000Y233000D03*
X250000Y235000D03*
X231000Y232000D03*
X250000Y251000D03*
X227000Y290000D03*
X228000Y275000D03*
X207000Y284000D03*
X183000Y312000D03*
X209000Y318000D03*
X57000Y233000D03*
X72000Y230000D03*
X59000Y201000D03*
X38000Y354000D03*
X55000Y353000D03*
X47000Y355000D03*
X21000Y355000D03*
X21000Y341000D03*
X37000Y341000D03*
X58000Y338000D03*
X61000Y327000D03*
X60000Y318000D03*
X246000Y333000D03*
X229000Y334000D03*
X226000Y343000D03*
X271000Y342000D03*
X277000Y317000D03*
X265000Y321000D03*
X264000Y297000D03*
X278000Y298000D03*
X262000Y333000D03*
X263000Y354000D03*
X245000Y308000D03*
X203000Y346000D03*
X210701Y353773D03*
X211000Y336000D03*
X189117Y343506D03*
X183000Y334000D03*
X197617Y332520D03*
X201955Y354954D03*
X193508Y352238D03*
X211000Y344000D03*
X196872Y344193D03*
X217000Y352000D03*
X222000Y331000D03*
X214000Y328000D03*
X223000Y354000D03*
X241000Y320000D03*
X275000Y213000D03*
X263000Y209000D03*
X261000Y220000D03*
X224000Y208000D03*
X42444Y322245D03*
X50909Y316263D03*
D11*
X24009Y269036D03*
D13*
X190241Y363115D03*
D10*
X185170Y363028D03*
X247372Y344076D03*
X203053Y337709D03*
X49697Y360861D03*
X74444Y293245D03*
X92444Y294245D03*
X89444Y276245D03*
X83444Y293245D03*
X77444Y279245D03*
X193061Y335915D03*
D11*
X105389Y199505D03*
X105348Y193976D03*
D10*
X210000Y235000D03*
X216000Y239000D03*
D11*
X73389Y195505D03*
X73389Y200505D03*
X73389Y205505D03*
X189348Y206976D03*
X194348Y206976D03*
D10*
X24000Y256000D03*
X24000Y307000D03*
X24000Y319000D03*
X134249Y318662D03*
X129212Y321584D03*
X116000Y319000D03*
X56005Y285492D03*
X110000Y232000D03*
X24000Y294000D03*
X115000Y227000D03*
X24000Y281000D03*
X122000Y233000D03*
X274000Y152000D03*
X129000Y233000D03*
X233000Y160000D03*
X140000Y233000D03*
X236000Y268000D03*
X122000Y321000D03*
M02*
