G04 EAGLE Gerber RS-274X export*
G75*
%MOMM*%
%FSLAX34Y34*%
%LPD*%
%INSilkscreen Top*%
%IPPOS*%
%AMOC8*
5,1,8,0,0,1.08239X$1,22.5*%
G01*
%ADD10C,0.076200*%
%ADD11C,0.127000*%
%ADD12C,0.152400*%
%ADD13C,0.203200*%
%ADD14C,0.101600*%
%ADD15C,0.200000*%
%ADD16C,0.250000*%
%ADD17C,0.120000*%
%ADD18C,0.100000*%
%ADD19C,0.050800*%


D10*
X119987Y50509D02*
X119987Y44780D01*
X119985Y44702D01*
X119980Y44624D01*
X119970Y44547D01*
X119957Y44470D01*
X119941Y44394D01*
X119921Y44319D01*
X119897Y44245D01*
X119870Y44172D01*
X119839Y44100D01*
X119805Y44030D01*
X119768Y43962D01*
X119727Y43895D01*
X119683Y43830D01*
X119637Y43768D01*
X119587Y43708D01*
X119535Y43650D01*
X119480Y43595D01*
X119422Y43543D01*
X119362Y43493D01*
X119300Y43447D01*
X119235Y43403D01*
X119169Y43362D01*
X119100Y43325D01*
X119030Y43291D01*
X118958Y43260D01*
X118885Y43233D01*
X118811Y43209D01*
X118736Y43189D01*
X118660Y43173D01*
X118583Y43160D01*
X118506Y43150D01*
X118428Y43145D01*
X118350Y43143D01*
X117532Y43143D01*
X123681Y43143D02*
X123681Y50509D01*
X123681Y43143D02*
X126955Y43143D01*
X131375Y43143D02*
X133012Y43143D01*
X131375Y43143D02*
X131297Y43145D01*
X131219Y43150D01*
X131142Y43160D01*
X131065Y43173D01*
X130989Y43189D01*
X130914Y43209D01*
X130840Y43233D01*
X130767Y43260D01*
X130695Y43291D01*
X130625Y43325D01*
X130557Y43362D01*
X130490Y43403D01*
X130425Y43447D01*
X130363Y43493D01*
X130303Y43543D01*
X130245Y43595D01*
X130190Y43650D01*
X130138Y43708D01*
X130088Y43768D01*
X130042Y43830D01*
X129998Y43895D01*
X129957Y43962D01*
X129920Y44030D01*
X129886Y44100D01*
X129855Y44172D01*
X129828Y44245D01*
X129804Y44319D01*
X129784Y44394D01*
X129768Y44470D01*
X129755Y44547D01*
X129745Y44624D01*
X129740Y44702D01*
X129738Y44780D01*
X129738Y48872D01*
X129740Y48952D01*
X129746Y49032D01*
X129756Y49112D01*
X129769Y49191D01*
X129787Y49270D01*
X129808Y49347D01*
X129834Y49423D01*
X129863Y49498D01*
X129895Y49572D01*
X129931Y49644D01*
X129971Y49714D01*
X130014Y49781D01*
X130060Y49847D01*
X130110Y49910D01*
X130162Y49971D01*
X130217Y50030D01*
X130276Y50085D01*
X130336Y50137D01*
X130400Y50187D01*
X130466Y50233D01*
X130533Y50276D01*
X130603Y50316D01*
X130675Y50352D01*
X130749Y50384D01*
X130823Y50413D01*
X130900Y50439D01*
X130977Y50460D01*
X131056Y50478D01*
X131135Y50491D01*
X131215Y50501D01*
X131295Y50507D01*
X131375Y50509D01*
X133012Y50509D01*
X137543Y50509D02*
X137543Y44780D01*
X137544Y44780D02*
X137542Y44702D01*
X137537Y44624D01*
X137527Y44547D01*
X137514Y44470D01*
X137498Y44394D01*
X137478Y44319D01*
X137454Y44245D01*
X137427Y44172D01*
X137396Y44100D01*
X137362Y44030D01*
X137325Y43962D01*
X137284Y43895D01*
X137240Y43830D01*
X137194Y43768D01*
X137144Y43708D01*
X137092Y43650D01*
X137037Y43595D01*
X136979Y43543D01*
X136919Y43493D01*
X136857Y43447D01*
X136792Y43403D01*
X136726Y43362D01*
X136657Y43325D01*
X136587Y43291D01*
X136515Y43260D01*
X136442Y43233D01*
X136368Y43209D01*
X136293Y43189D01*
X136217Y43173D01*
X136140Y43160D01*
X136063Y43150D01*
X135985Y43145D01*
X135907Y43143D01*
X135088Y43143D01*
X141237Y43143D02*
X141237Y50509D01*
X141237Y43143D02*
X144511Y43143D01*
X148932Y43143D02*
X150568Y43143D01*
X148932Y43143D02*
X148854Y43145D01*
X148776Y43150D01*
X148699Y43160D01*
X148622Y43173D01*
X148546Y43189D01*
X148471Y43209D01*
X148397Y43233D01*
X148324Y43260D01*
X148252Y43291D01*
X148182Y43325D01*
X148114Y43362D01*
X148047Y43403D01*
X147982Y43447D01*
X147920Y43493D01*
X147860Y43543D01*
X147802Y43595D01*
X147747Y43650D01*
X147695Y43708D01*
X147645Y43768D01*
X147599Y43830D01*
X147555Y43895D01*
X147514Y43962D01*
X147477Y44030D01*
X147443Y44100D01*
X147412Y44172D01*
X147385Y44245D01*
X147361Y44319D01*
X147341Y44394D01*
X147325Y44470D01*
X147312Y44547D01*
X147302Y44624D01*
X147297Y44702D01*
X147295Y44780D01*
X147295Y48872D01*
X147297Y48952D01*
X147303Y49032D01*
X147313Y49112D01*
X147326Y49191D01*
X147344Y49270D01*
X147365Y49347D01*
X147391Y49423D01*
X147420Y49498D01*
X147452Y49572D01*
X147488Y49644D01*
X147528Y49714D01*
X147571Y49781D01*
X147617Y49847D01*
X147667Y49910D01*
X147719Y49971D01*
X147774Y50030D01*
X147833Y50085D01*
X147893Y50137D01*
X147957Y50187D01*
X148023Y50233D01*
X148090Y50276D01*
X148160Y50316D01*
X148232Y50352D01*
X148306Y50384D01*
X148380Y50413D01*
X148457Y50439D01*
X148534Y50460D01*
X148613Y50478D01*
X148692Y50491D01*
X148772Y50501D01*
X148852Y50507D01*
X148932Y50509D01*
X150568Y50509D01*
X155100Y50509D02*
X155100Y44780D01*
X155098Y44702D01*
X155093Y44624D01*
X155083Y44547D01*
X155070Y44470D01*
X155054Y44394D01*
X155034Y44319D01*
X155010Y44245D01*
X154983Y44172D01*
X154952Y44100D01*
X154918Y44030D01*
X154881Y43962D01*
X154840Y43895D01*
X154796Y43830D01*
X154750Y43768D01*
X154700Y43708D01*
X154648Y43650D01*
X154593Y43595D01*
X154535Y43543D01*
X154475Y43493D01*
X154413Y43447D01*
X154348Y43403D01*
X154282Y43362D01*
X154213Y43325D01*
X154143Y43291D01*
X154071Y43260D01*
X153998Y43233D01*
X153924Y43209D01*
X153849Y43189D01*
X153773Y43173D01*
X153696Y43160D01*
X153619Y43150D01*
X153541Y43145D01*
X153463Y43143D01*
X152645Y43143D01*
X158794Y43143D02*
X158794Y50509D01*
X158794Y43143D02*
X162068Y43143D01*
X166488Y43143D02*
X168125Y43143D01*
X166488Y43143D02*
X166410Y43145D01*
X166332Y43150D01*
X166255Y43160D01*
X166178Y43173D01*
X166102Y43189D01*
X166027Y43209D01*
X165953Y43233D01*
X165880Y43260D01*
X165808Y43291D01*
X165738Y43325D01*
X165670Y43362D01*
X165603Y43403D01*
X165538Y43447D01*
X165476Y43493D01*
X165416Y43543D01*
X165358Y43595D01*
X165303Y43650D01*
X165251Y43708D01*
X165201Y43768D01*
X165155Y43830D01*
X165111Y43895D01*
X165070Y43962D01*
X165033Y44030D01*
X164999Y44100D01*
X164968Y44172D01*
X164941Y44245D01*
X164917Y44319D01*
X164897Y44394D01*
X164881Y44470D01*
X164868Y44547D01*
X164858Y44624D01*
X164853Y44702D01*
X164851Y44780D01*
X164851Y48872D01*
X164853Y48952D01*
X164859Y49032D01*
X164869Y49112D01*
X164882Y49191D01*
X164900Y49270D01*
X164921Y49347D01*
X164947Y49423D01*
X164976Y49498D01*
X165008Y49572D01*
X165044Y49644D01*
X165084Y49714D01*
X165127Y49781D01*
X165173Y49847D01*
X165223Y49910D01*
X165275Y49971D01*
X165330Y50030D01*
X165389Y50085D01*
X165449Y50137D01*
X165513Y50187D01*
X165579Y50233D01*
X165646Y50276D01*
X165716Y50316D01*
X165788Y50352D01*
X165862Y50384D01*
X165936Y50413D01*
X166013Y50439D01*
X166090Y50460D01*
X166169Y50478D01*
X166248Y50491D01*
X166328Y50501D01*
X166408Y50507D01*
X166488Y50509D01*
X168125Y50509D01*
X172656Y50509D02*
X172656Y44780D01*
X172654Y44702D01*
X172649Y44624D01*
X172639Y44547D01*
X172626Y44470D01*
X172610Y44394D01*
X172590Y44319D01*
X172566Y44245D01*
X172539Y44172D01*
X172508Y44100D01*
X172474Y44030D01*
X172437Y43962D01*
X172396Y43895D01*
X172352Y43830D01*
X172306Y43768D01*
X172256Y43708D01*
X172204Y43650D01*
X172149Y43595D01*
X172091Y43543D01*
X172031Y43493D01*
X171969Y43447D01*
X171904Y43403D01*
X171838Y43362D01*
X171769Y43325D01*
X171699Y43291D01*
X171627Y43260D01*
X171554Y43233D01*
X171480Y43209D01*
X171405Y43189D01*
X171329Y43173D01*
X171252Y43160D01*
X171175Y43150D01*
X171097Y43145D01*
X171019Y43143D01*
X170201Y43143D01*
X176350Y43143D02*
X176350Y50509D01*
X176350Y43143D02*
X179624Y43143D01*
X184044Y43143D02*
X185681Y43143D01*
X184044Y43143D02*
X183966Y43145D01*
X183888Y43150D01*
X183811Y43160D01*
X183734Y43173D01*
X183658Y43189D01*
X183583Y43209D01*
X183509Y43233D01*
X183436Y43260D01*
X183364Y43291D01*
X183294Y43325D01*
X183226Y43362D01*
X183159Y43403D01*
X183094Y43447D01*
X183032Y43493D01*
X182972Y43543D01*
X182914Y43595D01*
X182859Y43650D01*
X182807Y43708D01*
X182757Y43768D01*
X182711Y43830D01*
X182667Y43895D01*
X182626Y43962D01*
X182589Y44030D01*
X182555Y44100D01*
X182524Y44172D01*
X182497Y44245D01*
X182473Y44319D01*
X182453Y44394D01*
X182437Y44470D01*
X182424Y44547D01*
X182414Y44624D01*
X182409Y44702D01*
X182407Y44780D01*
X182407Y48872D01*
X182409Y48952D01*
X182415Y49032D01*
X182425Y49112D01*
X182438Y49191D01*
X182456Y49270D01*
X182477Y49347D01*
X182503Y49423D01*
X182532Y49498D01*
X182564Y49572D01*
X182600Y49644D01*
X182640Y49714D01*
X182683Y49781D01*
X182729Y49847D01*
X182779Y49910D01*
X182831Y49971D01*
X182886Y50030D01*
X182945Y50085D01*
X183005Y50137D01*
X183069Y50187D01*
X183135Y50233D01*
X183202Y50276D01*
X183272Y50316D01*
X183344Y50352D01*
X183418Y50384D01*
X183492Y50413D01*
X183569Y50439D01*
X183646Y50460D01*
X183725Y50478D01*
X183804Y50491D01*
X183884Y50501D01*
X183964Y50507D01*
X184044Y50509D01*
X185681Y50509D01*
D11*
X209646Y376808D02*
X212609Y376787D01*
X210655Y379764D02*
X210603Y372356D01*
X210602Y372356D02*
X210603Y372281D01*
X210609Y372206D01*
X210618Y372132D01*
X210630Y372058D01*
X210647Y371985D01*
X210667Y371912D01*
X210691Y371841D01*
X210718Y371771D01*
X210749Y371703D01*
X210783Y371636D01*
X210821Y371571D01*
X210862Y371508D01*
X210906Y371447D01*
X210953Y371389D01*
X211003Y371332D01*
X211055Y371279D01*
X211111Y371228D01*
X211169Y371180D01*
X211229Y371136D01*
X211291Y371094D01*
X211356Y371055D01*
X211422Y371020D01*
X211490Y370988D01*
X211560Y370960D01*
X211631Y370935D01*
X211703Y370914D01*
X211776Y370896D01*
X211849Y370883D01*
X211924Y370873D01*
X211999Y370866D01*
X212074Y370864D01*
X212568Y370861D01*
X215811Y370838D02*
X215814Y371332D01*
X216308Y371328D01*
X216305Y370835D01*
X215811Y370838D01*
X220409Y370806D02*
X220451Y376732D01*
X224896Y376701D01*
X224895Y376702D02*
X224970Y376700D01*
X225045Y376693D01*
X225120Y376683D01*
X225193Y376670D01*
X225266Y376652D01*
X225339Y376631D01*
X225409Y376606D01*
X225479Y376578D01*
X225547Y376546D01*
X225613Y376511D01*
X225678Y376472D01*
X225740Y376430D01*
X225800Y376386D01*
X225858Y376338D01*
X225914Y376287D01*
X225966Y376234D01*
X226016Y376177D01*
X226063Y376119D01*
X226107Y376058D01*
X226148Y375995D01*
X226186Y375930D01*
X226220Y375863D01*
X226251Y375795D01*
X226278Y375725D01*
X226302Y375654D01*
X226322Y375581D01*
X226339Y375508D01*
X226351Y375434D01*
X226360Y375360D01*
X226366Y375285D01*
X226367Y375210D01*
X226367Y375209D02*
X226336Y370765D01*
X223373Y370785D02*
X223414Y376712D01*
X232327Y370723D02*
X234797Y370705D01*
X232328Y370722D02*
X232253Y370724D01*
X232178Y370731D01*
X232103Y370741D01*
X232030Y370754D01*
X231957Y370772D01*
X231884Y370793D01*
X231814Y370818D01*
X231744Y370846D01*
X231676Y370878D01*
X231610Y370913D01*
X231545Y370952D01*
X231483Y370994D01*
X231423Y371038D01*
X231365Y371086D01*
X231309Y371137D01*
X231257Y371190D01*
X231207Y371247D01*
X231160Y371305D01*
X231116Y371366D01*
X231075Y371429D01*
X231037Y371494D01*
X231003Y371561D01*
X230972Y371629D01*
X230945Y371699D01*
X230921Y371770D01*
X230901Y371843D01*
X230884Y371916D01*
X230872Y371990D01*
X230863Y372064D01*
X230857Y372139D01*
X230856Y372214D01*
X230856Y372215D02*
X230873Y374684D01*
X230876Y374772D01*
X230882Y374861D01*
X230893Y374949D01*
X230907Y375036D01*
X230926Y375123D01*
X230948Y375209D01*
X230974Y375294D01*
X231004Y375377D01*
X231037Y375459D01*
X231075Y375540D01*
X231116Y375618D01*
X231160Y375695D01*
X231208Y375770D01*
X231259Y375843D01*
X231313Y375913D01*
X231370Y375980D01*
X231430Y376045D01*
X231493Y376108D01*
X231559Y376167D01*
X231628Y376223D01*
X231699Y376277D01*
X231772Y376327D01*
X231847Y376373D01*
X231925Y376417D01*
X232004Y376456D01*
X232085Y376492D01*
X232168Y376525D01*
X232252Y376554D01*
X232337Y376578D01*
X232423Y376599D01*
X232510Y376617D01*
X232597Y376630D01*
X232686Y376639D01*
X232774Y376645D01*
X232863Y376646D01*
X232951Y376643D01*
X233040Y376637D01*
X233128Y376626D01*
X233215Y376612D01*
X233302Y376593D01*
X233388Y376571D01*
X233473Y376545D01*
X233556Y376515D01*
X233638Y376482D01*
X233719Y376444D01*
X233797Y376403D01*
X233874Y376359D01*
X233949Y376311D01*
X234022Y376260D01*
X234092Y376206D01*
X234159Y376149D01*
X234224Y376089D01*
X234287Y376026D01*
X234346Y375960D01*
X234402Y375891D01*
X234456Y375820D01*
X234506Y375747D01*
X234552Y375672D01*
X234596Y375594D01*
X234635Y375515D01*
X234671Y375434D01*
X234704Y375351D01*
X234733Y375267D01*
X234757Y375182D01*
X234778Y375096D01*
X234796Y375009D01*
X234809Y374922D01*
X234818Y374833D01*
X234824Y374745D01*
X234825Y374656D01*
X234824Y374656D02*
X234817Y373669D01*
X230866Y373696D01*
X238459Y369692D02*
X242485Y380530D01*
X250038Y379489D02*
X249976Y370599D01*
X247506Y370617D01*
X247507Y370616D02*
X247432Y370618D01*
X247357Y370625D01*
X247282Y370635D01*
X247209Y370648D01*
X247136Y370666D01*
X247063Y370687D01*
X246993Y370712D01*
X246923Y370740D01*
X246855Y370772D01*
X246789Y370807D01*
X246724Y370846D01*
X246662Y370888D01*
X246602Y370932D01*
X246544Y370980D01*
X246488Y371031D01*
X246436Y371084D01*
X246386Y371141D01*
X246339Y371199D01*
X246295Y371260D01*
X246254Y371323D01*
X246216Y371388D01*
X246182Y371455D01*
X246151Y371523D01*
X246124Y371593D01*
X246100Y371664D01*
X246080Y371737D01*
X246063Y371810D01*
X246051Y371884D01*
X246042Y371958D01*
X246036Y372033D01*
X246035Y372108D01*
X246035Y372109D02*
X246056Y375072D01*
X246055Y375072D02*
X246057Y375147D01*
X246064Y375222D01*
X246074Y375297D01*
X246087Y375370D01*
X246105Y375443D01*
X246126Y375516D01*
X246151Y375586D01*
X246179Y375656D01*
X246211Y375724D01*
X246246Y375790D01*
X246285Y375855D01*
X246327Y375917D01*
X246371Y375977D01*
X246419Y376035D01*
X246470Y376091D01*
X246523Y376143D01*
X246580Y376193D01*
X246638Y376240D01*
X246699Y376284D01*
X246762Y376325D01*
X246827Y376363D01*
X246894Y376397D01*
X246962Y376428D01*
X247032Y376455D01*
X247103Y376479D01*
X247176Y376499D01*
X247249Y376516D01*
X247323Y376528D01*
X247397Y376537D01*
X247472Y376543D01*
X247547Y376544D01*
X247548Y376543D02*
X250017Y376526D01*
X255796Y370559D02*
X258266Y370542D01*
X255796Y370558D02*
X255721Y370560D01*
X255646Y370567D01*
X255571Y370577D01*
X255498Y370590D01*
X255425Y370608D01*
X255352Y370629D01*
X255282Y370654D01*
X255212Y370682D01*
X255144Y370714D01*
X255078Y370749D01*
X255013Y370788D01*
X254951Y370830D01*
X254891Y370874D01*
X254833Y370922D01*
X254777Y370973D01*
X254725Y371026D01*
X254675Y371083D01*
X254628Y371141D01*
X254584Y371202D01*
X254543Y371265D01*
X254505Y371330D01*
X254471Y371397D01*
X254440Y371465D01*
X254413Y371535D01*
X254389Y371606D01*
X254369Y371679D01*
X254352Y371752D01*
X254340Y371826D01*
X254331Y371900D01*
X254325Y371975D01*
X254324Y372050D01*
X254325Y372051D02*
X254342Y374520D01*
X254345Y374608D01*
X254351Y374697D01*
X254362Y374785D01*
X254376Y374872D01*
X254395Y374959D01*
X254417Y375045D01*
X254443Y375130D01*
X254473Y375213D01*
X254506Y375295D01*
X254544Y375376D01*
X254585Y375454D01*
X254629Y375531D01*
X254677Y375606D01*
X254728Y375679D01*
X254782Y375749D01*
X254839Y375816D01*
X254899Y375881D01*
X254962Y375944D01*
X255028Y376003D01*
X255097Y376059D01*
X255168Y376113D01*
X255241Y376163D01*
X255316Y376209D01*
X255394Y376253D01*
X255473Y376292D01*
X255554Y376328D01*
X255637Y376361D01*
X255721Y376390D01*
X255806Y376414D01*
X255892Y376435D01*
X255979Y376453D01*
X256066Y376466D01*
X256155Y376475D01*
X256243Y376481D01*
X256332Y376482D01*
X256420Y376479D01*
X256509Y376473D01*
X256597Y376462D01*
X256684Y376448D01*
X256771Y376429D01*
X256857Y376407D01*
X256942Y376381D01*
X257025Y376351D01*
X257107Y376318D01*
X257188Y376280D01*
X257266Y376239D01*
X257343Y376195D01*
X257418Y376147D01*
X257491Y376096D01*
X257561Y376042D01*
X257628Y375985D01*
X257693Y375925D01*
X257756Y375862D01*
X257815Y375796D01*
X257871Y375727D01*
X257925Y375656D01*
X257975Y375583D01*
X258021Y375508D01*
X258065Y375430D01*
X258104Y375351D01*
X258140Y375270D01*
X258173Y375187D01*
X258202Y375103D01*
X258226Y375018D01*
X258247Y374932D01*
X258265Y374845D01*
X258278Y374758D01*
X258287Y374669D01*
X258293Y374581D01*
X258294Y374492D01*
X258293Y374493D02*
X258286Y373505D01*
X254335Y373532D01*
X263931Y373959D02*
X266154Y373944D01*
X263931Y373960D02*
X263849Y373959D01*
X263767Y373953D01*
X263685Y373944D01*
X263604Y373931D01*
X263523Y373914D01*
X263443Y373893D01*
X263365Y373869D01*
X263288Y373841D01*
X263212Y373809D01*
X263137Y373773D01*
X263065Y373734D01*
X262994Y373692D01*
X262926Y373646D01*
X262860Y373598D01*
X262796Y373546D01*
X262735Y373491D01*
X262676Y373433D01*
X262620Y373372D01*
X262567Y373309D01*
X262518Y373244D01*
X262471Y373176D01*
X262428Y373106D01*
X262388Y373034D01*
X262351Y372960D01*
X262318Y372885D01*
X262289Y372808D01*
X262263Y372730D01*
X262242Y372650D01*
X262224Y372570D01*
X262209Y372489D01*
X262199Y372407D01*
X262193Y372325D01*
X262190Y372243D01*
X262191Y372161D01*
X262197Y372079D01*
X262206Y371997D01*
X262219Y371916D01*
X262236Y371835D01*
X262257Y371755D01*
X262281Y371677D01*
X262309Y371600D01*
X262341Y371524D01*
X262377Y371449D01*
X262416Y371377D01*
X262458Y371306D01*
X262504Y371238D01*
X262552Y371172D01*
X262604Y371108D01*
X262659Y371047D01*
X262717Y370988D01*
X262778Y370932D01*
X262841Y370879D01*
X262906Y370830D01*
X262974Y370783D01*
X263044Y370740D01*
X263116Y370700D01*
X263190Y370663D01*
X263265Y370630D01*
X263342Y370601D01*
X263420Y370575D01*
X263500Y370554D01*
X263580Y370536D01*
X263661Y370521D01*
X263743Y370511D01*
X263825Y370505D01*
X263907Y370502D01*
X266130Y370487D01*
X266161Y374931D01*
X266161Y374932D02*
X266160Y375007D01*
X266154Y375082D01*
X266145Y375156D01*
X266133Y375230D01*
X266116Y375303D01*
X266096Y375376D01*
X266072Y375447D01*
X266045Y375517D01*
X266014Y375585D01*
X265980Y375652D01*
X265942Y375717D01*
X265901Y375780D01*
X265857Y375841D01*
X265810Y375899D01*
X265760Y375956D01*
X265708Y376009D01*
X265652Y376060D01*
X265594Y376108D01*
X265534Y376152D01*
X265472Y376194D01*
X265407Y376233D01*
X265341Y376268D01*
X265273Y376300D01*
X265203Y376328D01*
X265133Y376353D01*
X265060Y376374D01*
X264987Y376392D01*
X264914Y376405D01*
X264839Y376415D01*
X264764Y376422D01*
X264689Y376424D01*
X264689Y376423D02*
X262714Y376437D01*
X270164Y370458D02*
X274156Y376357D01*
X270205Y376385D02*
X274115Y370431D01*
X277479Y370407D02*
X281471Y376306D01*
X277520Y376334D02*
X281430Y370380D01*
D12*
X240000Y140000D02*
X57000Y140000D01*
X58000Y141000D01*
X239000Y142000D02*
X240000Y140000D01*
X238999Y142000D02*
X237873Y144186D01*
X236693Y146345D01*
X235462Y148474D01*
X234178Y150573D01*
X232845Y152639D01*
X231461Y154673D01*
X230029Y156673D01*
X228548Y158637D01*
X227020Y160565D01*
X225446Y162455D01*
X223826Y164306D01*
X222162Y166117D01*
X220454Y167887D01*
X218703Y169615D01*
X216911Y171300D01*
X215079Y172941D01*
X213207Y174537D01*
X211298Y176087D01*
X209350Y177591D01*
X207368Y179046D01*
X205350Y180453D01*
X203298Y181810D01*
X201215Y183117D01*
X199100Y184373D01*
X196955Y185578D01*
X194781Y186729D01*
X192581Y187828D01*
X190354Y188873D01*
X188102Y189863D01*
X185827Y190799D01*
X183530Y191678D01*
X181213Y192502D01*
X178875Y193269D01*
X176520Y193979D01*
X174149Y194632D01*
X171762Y195227D01*
X169361Y195763D01*
X166949Y196242D01*
X164525Y196661D01*
X162092Y197021D01*
X159650Y197322D01*
X157202Y197564D01*
X154749Y197746D01*
X152293Y197868D01*
X149834Y197931D01*
X147374Y197934D01*
X144915Y197877D01*
X142458Y197760D01*
X140004Y197584D01*
X137556Y197348D01*
X135114Y197053D01*
X132680Y196698D01*
X130255Y196284D01*
X127841Y195812D01*
X125440Y195281D01*
X123051Y194692D01*
X120678Y194044D01*
X118322Y193340D01*
X115983Y192578D01*
X113663Y191760D01*
X111364Y190885D01*
X109087Y189955D01*
X106833Y188970D01*
X104604Y187931D01*
X102400Y186837D01*
X100224Y185690D01*
X98077Y184491D01*
X95959Y183240D01*
X93872Y181938D01*
X91817Y180585D01*
X89796Y179183D01*
X87810Y177732D01*
X85860Y176234D01*
X83946Y174688D01*
X82071Y173096D01*
X80235Y171460D01*
X78439Y169779D01*
X76684Y168055D01*
X74972Y166288D01*
X73304Y164481D01*
X71680Y162634D01*
X70101Y160748D01*
X68568Y158823D01*
X67083Y156863D01*
X65646Y154866D01*
X64258Y152836D01*
X62919Y150772D01*
X61631Y148677D01*
X60395Y146550D01*
X59210Y144394D01*
X58078Y142210D01*
X57000Y140000D01*
X59000Y141000D02*
X238000Y141000D01*
X238000Y142000D02*
X59000Y142000D01*
X237000Y143000D02*
X238000Y142000D01*
X237000Y143000D02*
X237000Y144000D01*
X237000Y143000D02*
X59000Y143000D01*
X61000Y145000D01*
X61000Y144000D01*
X237000Y144000D01*
X236000Y145000D01*
X61000Y145000D01*
X62000Y146000D01*
X236000Y146000D01*
X236000Y147000D01*
X62000Y147000D01*
X63000Y148000D01*
X235000Y148000D01*
X63000Y149000D02*
X63000Y150000D01*
X64000Y149000D01*
X234000Y149000D01*
D13*
X233000Y150000D02*
X64000Y150000D01*
X233000Y150000D02*
X233000Y151000D01*
X65000Y151000D01*
X67000Y153000D01*
X232000Y153000D01*
X230000Y155000D01*
X66000Y155000D01*
X67000Y154000D02*
X65000Y152000D01*
X68000Y156000D02*
X69000Y157000D01*
X229000Y157000D01*
X230000Y156000D01*
X228000Y158000D02*
X70000Y158000D01*
X226000Y160000D02*
X228000Y158000D01*
X226000Y160000D02*
X71000Y160000D01*
X72000Y161000D01*
X72000Y162000D01*
X225000Y162000D01*
X224000Y163000D01*
X74000Y163000D01*
X75000Y164000D01*
X223000Y164000D01*
X221000Y166000D01*
X76000Y166000D01*
X75000Y165000D01*
X76000Y166000D02*
X77000Y167000D01*
X220000Y167000D01*
X218000Y169000D01*
X79000Y169000D01*
X80000Y170000D01*
X217000Y170000D01*
X216000Y171000D02*
X81000Y171000D01*
X215000Y172000D02*
X216000Y171000D01*
X215000Y172000D02*
X83000Y172000D01*
X84000Y173000D01*
X84000Y174000D01*
X213000Y174000D01*
X214000Y173000D01*
X213000Y174000D02*
X211000Y176000D01*
X88000Y176000D01*
X86000Y176000D01*
X88000Y176000D02*
X89000Y177000D01*
X209000Y177000D01*
X208000Y178000D01*
X90000Y178000D01*
X91000Y179000D01*
X206000Y179000D01*
X205000Y180000D01*
X94000Y180000D01*
X93000Y180000D01*
X94000Y180000D02*
X95000Y181000D01*
X203000Y181000D01*
X201000Y183000D01*
X97000Y183000D01*
X96000Y182000D01*
X97000Y183000D02*
X98000Y184000D01*
X101000Y184000D01*
X198000Y184000D01*
X197000Y185000D01*
X195000Y185000D01*
X102000Y185000D01*
X101000Y184000D01*
X102000Y185000D02*
X103000Y186000D01*
X104000Y186000D01*
X194000Y186000D01*
X195000Y185000D01*
X194000Y186000D02*
X193000Y187000D01*
X105000Y187000D01*
X104000Y186000D01*
X105000Y187000D02*
X106000Y188000D01*
X190000Y188000D01*
X189000Y189000D01*
X109000Y189000D01*
X110000Y190000D01*
X185000Y190000D01*
X184000Y191000D01*
X115000Y191000D01*
X116000Y192000D01*
X120000Y192000D01*
X179000Y192000D01*
X178000Y193000D01*
X174000Y193000D01*
X121000Y193000D01*
X120000Y192000D01*
X121000Y193000D02*
X122000Y194000D01*
X129000Y194000D01*
X173000Y194000D02*
X174000Y193000D01*
X173000Y194000D02*
X129000Y194000D01*
X128000Y195000D01*
X170000Y195000D01*
X83000Y97000D02*
X50000Y97000D01*
X50000Y99000D02*
X83000Y99000D01*
X50000Y99000D02*
X50000Y100000D01*
X83000Y100000D01*
X83000Y101000D01*
X50000Y101000D01*
X50000Y102000D01*
X83000Y102000D01*
X83000Y104000D01*
X50000Y104000D01*
X50000Y106000D01*
X83000Y106000D01*
X83000Y107000D01*
X50000Y107000D01*
X83000Y102000D02*
X83000Y99000D01*
X83000Y97000D01*
X83000Y99000D02*
X83012Y99992D01*
X83049Y100984D01*
X83109Y101974D01*
X83194Y102962D01*
X83303Y103949D01*
X83437Y104932D01*
X83594Y105911D01*
X83775Y106887D01*
X83980Y107858D01*
X84209Y108823D01*
X84461Y109783D01*
X84737Y110736D01*
X85036Y111682D01*
X85358Y112620D01*
X85703Y113551D01*
X86070Y114472D01*
X86460Y115385D01*
X86873Y116287D01*
X87307Y117179D01*
X87763Y118060D01*
X88240Y118930D01*
X88739Y119788D01*
X89258Y120633D01*
X89798Y121466D01*
X90358Y122285D01*
X90938Y123090D01*
X91538Y123880D01*
X92156Y124656D01*
X92794Y125416D01*
X93450Y126160D01*
X94124Y126888D01*
X94816Y127600D01*
X95524Y128294D01*
X96250Y128971D01*
X96992Y129629D01*
X97750Y130270D01*
X98523Y130891D01*
X99312Y131494D01*
X100114Y132077D01*
X100931Y132640D01*
X101762Y133183D01*
X102605Y133706D01*
X103461Y134207D01*
X104329Y134688D01*
X105209Y135147D01*
X106099Y135585D01*
X107000Y136000D01*
X107000Y136001D02*
X108235Y136537D01*
X109480Y137050D01*
X110736Y137538D01*
X112000Y138001D01*
X83000Y108000D02*
X50000Y108000D01*
X83000Y108000D02*
X83000Y110000D01*
X51000Y110000D01*
X50000Y109000D01*
X51000Y110000D02*
X52000Y111000D01*
X84000Y111000D01*
X52000Y111000D02*
X50000Y111000D01*
X51000Y112000D01*
X51000Y113000D01*
X85000Y113000D01*
X85000Y114000D01*
X51000Y114000D01*
X51000Y116000D01*
X85000Y116000D01*
X86000Y117000D01*
X52000Y117000D01*
X51000Y118000D01*
X52000Y119000D01*
X87000Y119000D01*
X88000Y120000D01*
X52000Y120000D01*
X53000Y121000D01*
X88000Y121000D01*
X88000Y122000D01*
X89000Y123000D01*
X90000Y123000D01*
X89000Y123000D02*
X54000Y123000D01*
X53000Y122000D01*
X54000Y123000D02*
X54000Y124000D01*
X53000Y124000D01*
X54000Y125000D01*
X91000Y125000D01*
X92000Y126000D01*
X54000Y126000D01*
X54000Y128000D01*
X92000Y128000D01*
X93000Y127000D01*
X94000Y128000D01*
X94000Y129000D01*
X54000Y129000D01*
X55000Y130000D01*
X55000Y131000D01*
X94000Y131000D01*
X95000Y130000D01*
X96000Y131000D01*
X98000Y131000D01*
X97000Y132000D01*
X55000Y132000D01*
X56000Y133000D01*
X100000Y133000D01*
X101000Y134000D01*
X56000Y134000D01*
X57000Y135000D01*
X103000Y135000D01*
X104000Y136000D01*
X57000Y136000D01*
X58000Y137000D01*
X59000Y136000D01*
X107000Y136000D01*
X107000Y137000D01*
X58000Y137000D01*
X58000Y138000D01*
X59000Y139000D01*
X107000Y139000D01*
X106000Y138000D02*
X111000Y138000D01*
X107000Y139000D02*
X106000Y138000D01*
X107000Y139000D02*
X112000Y139000D01*
X113000Y139000D01*
X112000Y139000D02*
X111000Y138000D01*
X113000Y139000D02*
X115000Y139000D01*
D14*
X113000Y139000D02*
X119000Y139000D01*
X106000Y135000D02*
X104000Y134000D01*
X106000Y135000D02*
X106878Y135426D01*
X107766Y135831D01*
X108663Y136215D01*
X109569Y136578D01*
X110483Y136920D01*
X111405Y137240D01*
X112335Y137538D01*
X113271Y137814D01*
X114213Y138068D01*
X115161Y138299D01*
X116114Y138508D01*
X117072Y138695D01*
X118034Y138859D01*
X119000Y139000D01*
X179000Y139000D01*
X184000Y139000D01*
X179000Y139000D02*
X179997Y138829D01*
X180990Y138634D01*
X181977Y138414D01*
X182959Y138171D01*
X183935Y137904D01*
X184903Y137613D01*
X185865Y137299D01*
X186818Y136961D01*
X187763Y136601D01*
X188699Y136217D01*
X189626Y135811D01*
X190542Y135382D01*
X191447Y134931D01*
X192341Y134458D01*
X193224Y133963D01*
X194094Y133447D01*
X194951Y132911D01*
X195795Y132353D01*
X196625Y131775D01*
X197440Y131177D01*
X198241Y130559D01*
X199027Y129922D01*
X199797Y129266D01*
X200550Y128591D01*
X201287Y127898D01*
X202007Y127187D01*
X202710Y126460D01*
X203394Y125715D01*
X204060Y124953D01*
X204707Y124176D01*
X205336Y123383D01*
X205944Y122576D01*
X206533Y121753D01*
X207102Y120917D01*
X207650Y120066D01*
X208177Y119203D01*
X208683Y118327D01*
X209167Y117439D01*
X209630Y116540D01*
X210071Y115629D01*
X210489Y114708D01*
X210885Y113778D01*
X211258Y112837D01*
X211608Y111888D01*
X211935Y110931D01*
X212238Y109966D01*
X212518Y108994D01*
X212774Y108016D01*
X213006Y107031D01*
X213214Y106041D01*
X213398Y105046D01*
X213557Y104048D01*
X213692Y103045D01*
X213803Y102040D01*
X213889Y101032D01*
X213951Y100022D01*
X213988Y99011D01*
X214000Y98000D01*
X249000Y98000D01*
D13*
X240000Y139000D02*
X184000Y139000D01*
X240000Y139000D02*
X240000Y137000D01*
X239000Y138000D01*
X188000Y138000D01*
X186000Y138000D01*
X188000Y138000D02*
X189000Y137000D01*
X240000Y137000D01*
X241000Y136000D01*
X241000Y135000D01*
D15*
X241000Y136000D02*
X191000Y136000D01*
X241000Y135000D02*
X242000Y134000D01*
X241000Y135000D02*
X194000Y135000D01*
X193000Y135000D01*
X194000Y135000D02*
X196000Y133000D01*
X242000Y133000D01*
X243000Y132000D01*
X198000Y132000D01*
X199000Y131000D01*
X243000Y131000D01*
X243000Y130000D01*
X200000Y130000D01*
X201000Y129000D01*
X244000Y129000D01*
X244000Y128000D01*
X202000Y128000D01*
X203000Y127000D01*
X204000Y127000D01*
X244000Y127000D01*
X244000Y126000D01*
X205000Y126000D01*
X204000Y127000D01*
X205000Y126000D02*
X205000Y125000D01*
X244000Y125000D01*
X245000Y124000D01*
X245000Y123000D01*
X207000Y123000D01*
X206000Y124000D01*
X207000Y123000D02*
X208000Y122000D01*
X245000Y122000D01*
X245000Y121000D01*
X208000Y121000D01*
X209000Y120000D01*
X246000Y120000D01*
X246000Y119000D01*
X209000Y119000D01*
X210000Y118000D01*
X246000Y118000D01*
X246000Y117000D01*
X210000Y117000D01*
X211000Y116000D01*
X247000Y116000D01*
X247000Y115000D01*
X211000Y115000D01*
X212000Y114000D01*
X247000Y114000D01*
X247000Y113000D01*
X212000Y113000D01*
X212000Y112000D02*
X247000Y112000D01*
X247000Y111000D01*
X213000Y111000D01*
X213000Y110000D01*
X247000Y110000D01*
X248000Y109000D01*
X213000Y109000D01*
X214000Y108000D01*
X214000Y107000D01*
X247000Y107000D01*
X248000Y108000D01*
X248000Y106000D01*
X214000Y106000D01*
X214000Y104000D01*
X215000Y105000D02*
X248000Y105000D01*
X215000Y105000D02*
X215000Y103000D01*
X216000Y104000D01*
X248000Y104000D01*
X248000Y103000D01*
X215000Y103000D01*
X248000Y103000D02*
X248000Y101000D01*
X216000Y101000D01*
X215000Y102000D01*
X215000Y101000D01*
X216000Y101000D01*
X248000Y101000D02*
X248000Y100000D01*
X216000Y100000D01*
X215000Y101000D01*
X215000Y99000D01*
X249000Y99000D01*
X48945Y98338D02*
X48945Y96785D01*
X48945Y98338D02*
X48975Y100846D01*
X49065Y103352D01*
X49215Y105855D01*
X49426Y108354D01*
X49696Y110847D01*
X50026Y113333D01*
X50415Y115811D01*
X50863Y118278D01*
X51371Y120734D01*
X51937Y123177D01*
X52562Y125606D01*
X53245Y128019D01*
X53985Y130415D01*
X54783Y132792D01*
X55637Y135150D01*
X56548Y137487D01*
X57515Y139801D01*
X248833Y99755D02*
X248833Y98437D01*
X248833Y99755D02*
X248806Y102020D01*
X248726Y104283D01*
X248592Y106544D01*
X248405Y108801D01*
X248165Y111053D01*
X247872Y113299D01*
X247525Y115537D01*
X247126Y117766D01*
X246675Y119985D01*
X246171Y122193D01*
X245615Y124389D01*
X245007Y126571D01*
X244348Y128737D01*
X243638Y130888D01*
X242878Y133021D01*
X242067Y135136D01*
X241207Y137231D01*
X240297Y139305D01*
X239339Y141357D01*
X238332Y143386D01*
X237278Y145390D01*
X236176Y147369D01*
X235029Y149322D01*
X233835Y151246D01*
X232597Y153143D01*
X162534Y196663D02*
X148291Y196663D01*
X162534Y196663D02*
X162833Y196363D01*
X146777Y196212D02*
X133578Y196212D01*
X146777Y196212D02*
X147193Y196628D01*
D16*
X170508Y315121D02*
X170510Y315191D01*
X170516Y315261D01*
X170526Y315330D01*
X170539Y315399D01*
X170557Y315467D01*
X170578Y315534D01*
X170603Y315599D01*
X170632Y315663D01*
X170664Y315726D01*
X170700Y315786D01*
X170739Y315844D01*
X170781Y315900D01*
X170826Y315954D01*
X170874Y316005D01*
X170925Y316053D01*
X170979Y316098D01*
X171035Y316140D01*
X171093Y316179D01*
X171153Y316215D01*
X171216Y316247D01*
X171280Y316276D01*
X171345Y316301D01*
X171412Y316322D01*
X171480Y316340D01*
X171549Y316353D01*
X171618Y316363D01*
X171688Y316369D01*
X171758Y316371D01*
X171828Y316369D01*
X171898Y316363D01*
X171967Y316353D01*
X172036Y316340D01*
X172104Y316322D01*
X172171Y316301D01*
X172236Y316276D01*
X172300Y316247D01*
X172363Y316215D01*
X172423Y316179D01*
X172481Y316140D01*
X172537Y316098D01*
X172591Y316053D01*
X172642Y316005D01*
X172690Y315954D01*
X172735Y315900D01*
X172777Y315844D01*
X172816Y315786D01*
X172852Y315726D01*
X172884Y315663D01*
X172913Y315599D01*
X172938Y315534D01*
X172959Y315467D01*
X172977Y315399D01*
X172990Y315330D01*
X173000Y315261D01*
X173006Y315191D01*
X173008Y315121D01*
X173006Y315051D01*
X173000Y314981D01*
X172990Y314912D01*
X172977Y314843D01*
X172959Y314775D01*
X172938Y314708D01*
X172913Y314643D01*
X172884Y314579D01*
X172852Y314516D01*
X172816Y314456D01*
X172777Y314398D01*
X172735Y314342D01*
X172690Y314288D01*
X172642Y314237D01*
X172591Y314189D01*
X172537Y314144D01*
X172481Y314102D01*
X172423Y314063D01*
X172363Y314027D01*
X172300Y313995D01*
X172236Y313966D01*
X172171Y313941D01*
X172104Y313920D01*
X172036Y313902D01*
X171967Y313889D01*
X171898Y313879D01*
X171828Y313873D01*
X171758Y313871D01*
X171688Y313873D01*
X171618Y313879D01*
X171549Y313889D01*
X171480Y313902D01*
X171412Y313920D01*
X171345Y313941D01*
X171280Y313966D01*
X171216Y313995D01*
X171153Y314027D01*
X171093Y314063D01*
X171035Y314102D01*
X170979Y314144D01*
X170925Y314189D01*
X170874Y314237D01*
X170826Y314288D01*
X170781Y314342D01*
X170739Y314398D01*
X170700Y314456D01*
X170664Y314516D01*
X170632Y314579D01*
X170603Y314643D01*
X170578Y314708D01*
X170557Y314775D01*
X170539Y314843D01*
X170526Y314912D01*
X170516Y314981D01*
X170510Y315051D01*
X170508Y315121D01*
D10*
X140187Y270199D02*
X133329Y270199D01*
X140187Y269437D02*
X140187Y270961D01*
X133329Y270961D02*
X133329Y269437D01*
X140187Y275282D02*
X140187Y276806D01*
X140187Y275282D02*
X140185Y275205D01*
X140179Y275128D01*
X140169Y275051D01*
X140156Y274975D01*
X140138Y274900D01*
X140117Y274826D01*
X140092Y274753D01*
X140063Y274681D01*
X140031Y274611D01*
X139996Y274542D01*
X139956Y274476D01*
X139914Y274411D01*
X139868Y274349D01*
X139819Y274289D01*
X139768Y274232D01*
X139713Y274177D01*
X139656Y274126D01*
X139596Y274077D01*
X139534Y274031D01*
X139469Y273989D01*
X139403Y273949D01*
X139334Y273914D01*
X139264Y273882D01*
X139192Y273853D01*
X139119Y273828D01*
X139045Y273807D01*
X138970Y273789D01*
X138894Y273776D01*
X138817Y273766D01*
X138740Y273760D01*
X138663Y273758D01*
X134853Y273758D01*
X134776Y273760D01*
X134699Y273766D01*
X134622Y273776D01*
X134546Y273789D01*
X134471Y273807D01*
X134397Y273828D01*
X134324Y273853D01*
X134252Y273882D01*
X134182Y273914D01*
X134113Y273949D01*
X134047Y273989D01*
X133982Y274031D01*
X133920Y274077D01*
X133860Y274126D01*
X133803Y274177D01*
X133748Y274232D01*
X133697Y274289D01*
X133648Y274349D01*
X133602Y274411D01*
X133560Y274476D01*
X133520Y274542D01*
X133485Y274611D01*
X133453Y274681D01*
X133424Y274753D01*
X133399Y274826D01*
X133378Y274900D01*
X133360Y274975D01*
X133347Y275051D01*
X133337Y275128D01*
X133331Y275205D01*
X133329Y275282D01*
X133329Y276806D01*
X140187Y279495D02*
X140187Y281400D01*
X140185Y281485D01*
X140179Y281571D01*
X140170Y281656D01*
X140156Y281740D01*
X140139Y281824D01*
X140118Y281907D01*
X140094Y281989D01*
X140066Y282069D01*
X140034Y282149D01*
X139998Y282227D01*
X139960Y282303D01*
X139917Y282377D01*
X139872Y282449D01*
X139823Y282520D01*
X139771Y282588D01*
X139717Y282653D01*
X139659Y282716D01*
X139598Y282777D01*
X139535Y282835D01*
X139470Y282889D01*
X139402Y282941D01*
X139331Y282990D01*
X139259Y283035D01*
X139185Y283078D01*
X139109Y283116D01*
X139031Y283152D01*
X138951Y283184D01*
X138871Y283212D01*
X138789Y283236D01*
X138706Y283257D01*
X138622Y283274D01*
X138538Y283288D01*
X138453Y283297D01*
X138367Y283303D01*
X138282Y283305D01*
X138197Y283303D01*
X138111Y283297D01*
X138026Y283288D01*
X137942Y283274D01*
X137858Y283257D01*
X137775Y283236D01*
X137693Y283212D01*
X137613Y283184D01*
X137533Y283152D01*
X137455Y283116D01*
X137379Y283078D01*
X137305Y283035D01*
X137233Y282990D01*
X137162Y282941D01*
X137094Y282889D01*
X137029Y282835D01*
X136966Y282777D01*
X136905Y282716D01*
X136847Y282653D01*
X136793Y282588D01*
X136741Y282520D01*
X136692Y282449D01*
X136647Y282377D01*
X136604Y282303D01*
X136566Y282227D01*
X136530Y282149D01*
X136498Y282069D01*
X136470Y281989D01*
X136446Y281907D01*
X136425Y281824D01*
X136408Y281740D01*
X136394Y281656D01*
X136385Y281571D01*
X136379Y281485D01*
X136377Y281400D01*
X133329Y281781D02*
X133329Y279495D01*
X133329Y281781D02*
X133331Y281858D01*
X133337Y281935D01*
X133347Y282012D01*
X133360Y282088D01*
X133378Y282163D01*
X133399Y282237D01*
X133424Y282310D01*
X133453Y282382D01*
X133485Y282452D01*
X133520Y282521D01*
X133560Y282587D01*
X133602Y282652D01*
X133648Y282714D01*
X133697Y282774D01*
X133748Y282831D01*
X133803Y282886D01*
X133860Y282937D01*
X133920Y282986D01*
X133982Y283032D01*
X134047Y283074D01*
X134113Y283114D01*
X134182Y283149D01*
X134252Y283181D01*
X134324Y283210D01*
X134397Y283235D01*
X134471Y283256D01*
X134546Y283274D01*
X134622Y283287D01*
X134699Y283297D01*
X134776Y283303D01*
X134853Y283305D01*
X134930Y283303D01*
X135007Y283297D01*
X135084Y283287D01*
X135160Y283274D01*
X135235Y283256D01*
X135309Y283235D01*
X135382Y283210D01*
X135454Y283181D01*
X135524Y283149D01*
X135593Y283114D01*
X135659Y283074D01*
X135724Y283032D01*
X135786Y282986D01*
X135846Y282937D01*
X135903Y282886D01*
X135958Y282831D01*
X136009Y282774D01*
X136058Y282714D01*
X136104Y282652D01*
X136146Y282587D01*
X136186Y282521D01*
X136221Y282452D01*
X136253Y282382D01*
X136282Y282310D01*
X136307Y282237D01*
X136328Y282163D01*
X136346Y282088D01*
X136359Y282012D01*
X136369Y281935D01*
X136375Y281858D01*
X136377Y281781D01*
X136377Y280257D01*
X73444Y208515D02*
X71920Y208515D01*
X71843Y208517D01*
X71766Y208523D01*
X71689Y208533D01*
X71613Y208546D01*
X71538Y208564D01*
X71464Y208585D01*
X71391Y208610D01*
X71319Y208639D01*
X71249Y208671D01*
X71180Y208706D01*
X71114Y208746D01*
X71049Y208788D01*
X70987Y208834D01*
X70927Y208883D01*
X70870Y208934D01*
X70815Y208989D01*
X70764Y209046D01*
X70715Y209106D01*
X70669Y209168D01*
X70627Y209233D01*
X70587Y209299D01*
X70552Y209368D01*
X70520Y209438D01*
X70491Y209510D01*
X70466Y209583D01*
X70445Y209657D01*
X70427Y209732D01*
X70414Y209808D01*
X70404Y209885D01*
X70398Y209962D01*
X70396Y210039D01*
X70396Y213849D01*
X70398Y213926D01*
X70404Y214003D01*
X70414Y214080D01*
X70427Y214156D01*
X70445Y214231D01*
X70466Y214305D01*
X70491Y214378D01*
X70520Y214450D01*
X70552Y214520D01*
X70587Y214589D01*
X70627Y214655D01*
X70669Y214720D01*
X70715Y214782D01*
X70764Y214842D01*
X70815Y214899D01*
X70870Y214954D01*
X70927Y215005D01*
X70987Y215054D01*
X71049Y215100D01*
X71114Y215142D01*
X71180Y215182D01*
X71249Y215217D01*
X71319Y215249D01*
X71391Y215278D01*
X71464Y215303D01*
X71538Y215324D01*
X71613Y215342D01*
X71689Y215355D01*
X71766Y215365D01*
X71843Y215371D01*
X71920Y215373D01*
X73444Y215373D01*
X76134Y213849D02*
X78039Y215373D01*
X78039Y208515D01*
X76134Y208515D02*
X79944Y208515D01*
X86379Y186177D02*
X87903Y186177D01*
X86379Y186177D02*
X86302Y186179D01*
X86225Y186185D01*
X86148Y186195D01*
X86072Y186208D01*
X85997Y186226D01*
X85923Y186247D01*
X85850Y186272D01*
X85778Y186301D01*
X85708Y186333D01*
X85639Y186368D01*
X85573Y186408D01*
X85508Y186450D01*
X85446Y186496D01*
X85386Y186545D01*
X85329Y186596D01*
X85274Y186651D01*
X85223Y186708D01*
X85174Y186768D01*
X85128Y186830D01*
X85086Y186895D01*
X85046Y186961D01*
X85011Y187030D01*
X84979Y187100D01*
X84950Y187172D01*
X84925Y187245D01*
X84904Y187319D01*
X84886Y187394D01*
X84873Y187470D01*
X84863Y187547D01*
X84857Y187624D01*
X84855Y187701D01*
X84855Y191511D01*
X84857Y191588D01*
X84863Y191665D01*
X84873Y191742D01*
X84886Y191818D01*
X84904Y191893D01*
X84925Y191967D01*
X84950Y192040D01*
X84979Y192112D01*
X85011Y192182D01*
X85046Y192251D01*
X85086Y192317D01*
X85128Y192382D01*
X85174Y192444D01*
X85223Y192504D01*
X85274Y192561D01*
X85329Y192616D01*
X85386Y192667D01*
X85446Y192716D01*
X85508Y192762D01*
X85573Y192804D01*
X85639Y192844D01*
X85708Y192879D01*
X85778Y192911D01*
X85850Y192940D01*
X85923Y192965D01*
X85997Y192986D01*
X86072Y193004D01*
X86148Y193017D01*
X86225Y193027D01*
X86302Y193033D01*
X86379Y193035D01*
X87903Y193035D01*
X92687Y193035D02*
X92769Y193033D01*
X92850Y193027D01*
X92931Y193018D01*
X93012Y193004D01*
X93091Y192987D01*
X93170Y192966D01*
X93248Y192941D01*
X93324Y192912D01*
X93399Y192880D01*
X93473Y192844D01*
X93545Y192805D01*
X93614Y192763D01*
X93682Y192717D01*
X93747Y192668D01*
X93810Y192616D01*
X93870Y192561D01*
X93928Y192503D01*
X93983Y192443D01*
X94035Y192380D01*
X94084Y192315D01*
X94130Y192247D01*
X94172Y192178D01*
X94211Y192106D01*
X94247Y192032D01*
X94279Y191957D01*
X94308Y191881D01*
X94333Y191803D01*
X94354Y191724D01*
X94371Y191645D01*
X94385Y191564D01*
X94394Y191483D01*
X94400Y191402D01*
X94402Y191320D01*
X92687Y193035D02*
X92595Y193033D01*
X92503Y193027D01*
X92411Y193018D01*
X92319Y193004D01*
X92229Y192987D01*
X92139Y192966D01*
X92050Y192941D01*
X91962Y192912D01*
X91875Y192880D01*
X91790Y192844D01*
X91707Y192805D01*
X91625Y192762D01*
X91545Y192716D01*
X91467Y192666D01*
X91391Y192614D01*
X91318Y192558D01*
X91247Y192499D01*
X91178Y192437D01*
X91112Y192372D01*
X91049Y192305D01*
X90989Y192235D01*
X90931Y192163D01*
X90877Y192088D01*
X90826Y192011D01*
X90778Y191932D01*
X90734Y191851D01*
X90693Y191768D01*
X90655Y191684D01*
X90621Y191598D01*
X90591Y191511D01*
X93830Y189986D02*
X93889Y190045D01*
X93945Y190106D01*
X93998Y190169D01*
X94049Y190235D01*
X94096Y190303D01*
X94140Y190373D01*
X94181Y190445D01*
X94219Y190519D01*
X94253Y190594D01*
X94284Y190671D01*
X94311Y190749D01*
X94335Y190829D01*
X94356Y190909D01*
X94372Y190990D01*
X94385Y191072D01*
X94395Y191154D01*
X94400Y191237D01*
X94402Y191320D01*
X93830Y189987D02*
X90592Y186177D01*
X94402Y186177D01*
X204671Y252385D02*
X204671Y259243D01*
X206576Y259243D01*
X206661Y259241D01*
X206747Y259235D01*
X206832Y259226D01*
X206916Y259212D01*
X207000Y259195D01*
X207083Y259174D01*
X207165Y259150D01*
X207245Y259122D01*
X207325Y259090D01*
X207403Y259054D01*
X207479Y259016D01*
X207553Y258973D01*
X207625Y258928D01*
X207696Y258879D01*
X207764Y258827D01*
X207829Y258773D01*
X207892Y258715D01*
X207953Y258654D01*
X208011Y258591D01*
X208065Y258526D01*
X208117Y258458D01*
X208166Y258387D01*
X208211Y258315D01*
X208254Y258241D01*
X208292Y258165D01*
X208328Y258087D01*
X208360Y258007D01*
X208388Y257927D01*
X208412Y257845D01*
X208433Y257762D01*
X208450Y257678D01*
X208464Y257594D01*
X208473Y257509D01*
X208479Y257423D01*
X208481Y257338D01*
X208479Y257253D01*
X208473Y257167D01*
X208464Y257082D01*
X208450Y256998D01*
X208433Y256914D01*
X208412Y256831D01*
X208388Y256749D01*
X208360Y256669D01*
X208328Y256589D01*
X208292Y256511D01*
X208254Y256435D01*
X208211Y256361D01*
X208166Y256289D01*
X208117Y256218D01*
X208065Y256150D01*
X208011Y256085D01*
X207953Y256022D01*
X207892Y255961D01*
X207829Y255903D01*
X207764Y255849D01*
X207696Y255797D01*
X207625Y255748D01*
X207553Y255703D01*
X207479Y255660D01*
X207403Y255622D01*
X207325Y255586D01*
X207245Y255554D01*
X207165Y255526D01*
X207083Y255502D01*
X207000Y255481D01*
X206916Y255464D01*
X206832Y255450D01*
X206747Y255441D01*
X206661Y255435D01*
X206576Y255433D01*
X204671Y255433D01*
X206957Y255433D02*
X208481Y252385D01*
X211479Y257719D02*
X213384Y259243D01*
X213384Y252385D01*
X211479Y252385D02*
X215289Y252385D01*
X206973Y242193D02*
X205449Y242193D01*
X205372Y242195D01*
X205295Y242201D01*
X205218Y242211D01*
X205142Y242224D01*
X205067Y242242D01*
X204993Y242263D01*
X204920Y242288D01*
X204848Y242317D01*
X204778Y242349D01*
X204709Y242384D01*
X204643Y242424D01*
X204578Y242466D01*
X204516Y242512D01*
X204456Y242561D01*
X204399Y242612D01*
X204344Y242667D01*
X204293Y242724D01*
X204244Y242784D01*
X204198Y242846D01*
X204156Y242911D01*
X204116Y242977D01*
X204081Y243046D01*
X204049Y243116D01*
X204020Y243188D01*
X203995Y243261D01*
X203974Y243335D01*
X203956Y243410D01*
X203943Y243486D01*
X203933Y243563D01*
X203927Y243640D01*
X203925Y243717D01*
X203925Y247527D01*
X203927Y247604D01*
X203933Y247681D01*
X203943Y247758D01*
X203956Y247834D01*
X203974Y247909D01*
X203995Y247983D01*
X204020Y248056D01*
X204049Y248128D01*
X204081Y248198D01*
X204116Y248267D01*
X204156Y248333D01*
X204198Y248398D01*
X204244Y248460D01*
X204293Y248520D01*
X204344Y248577D01*
X204399Y248632D01*
X204456Y248683D01*
X204516Y248732D01*
X204578Y248778D01*
X204643Y248820D01*
X204709Y248860D01*
X204778Y248895D01*
X204848Y248927D01*
X204920Y248956D01*
X204993Y248981D01*
X205067Y249002D01*
X205142Y249020D01*
X205218Y249033D01*
X205295Y249043D01*
X205372Y249049D01*
X205449Y249051D01*
X206973Y249051D01*
X209662Y242193D02*
X211948Y242193D01*
X212025Y242195D01*
X212102Y242201D01*
X212179Y242211D01*
X212255Y242224D01*
X212330Y242242D01*
X212404Y242263D01*
X212477Y242288D01*
X212549Y242317D01*
X212619Y242349D01*
X212688Y242384D01*
X212754Y242424D01*
X212819Y242466D01*
X212881Y242512D01*
X212941Y242561D01*
X212998Y242612D01*
X213053Y242667D01*
X213104Y242724D01*
X213153Y242784D01*
X213199Y242846D01*
X213241Y242911D01*
X213281Y242977D01*
X213316Y243046D01*
X213348Y243116D01*
X213377Y243188D01*
X213402Y243261D01*
X213423Y243335D01*
X213441Y243410D01*
X213454Y243486D01*
X213464Y243563D01*
X213470Y243640D01*
X213472Y243717D01*
X213472Y244479D01*
X213470Y244556D01*
X213464Y244633D01*
X213454Y244710D01*
X213441Y244786D01*
X213423Y244861D01*
X213402Y244935D01*
X213377Y245008D01*
X213348Y245080D01*
X213316Y245150D01*
X213281Y245219D01*
X213241Y245285D01*
X213199Y245350D01*
X213153Y245412D01*
X213104Y245472D01*
X213053Y245529D01*
X212998Y245584D01*
X212941Y245635D01*
X212881Y245684D01*
X212819Y245730D01*
X212754Y245772D01*
X212688Y245812D01*
X212619Y245847D01*
X212549Y245879D01*
X212477Y245908D01*
X212404Y245933D01*
X212330Y245954D01*
X212255Y245972D01*
X212179Y245985D01*
X212102Y245995D01*
X212025Y246001D01*
X211948Y246003D01*
X209662Y246003D01*
X209662Y249051D01*
X213472Y249051D01*
X66575Y244593D02*
X65051Y244593D01*
X64974Y244595D01*
X64897Y244601D01*
X64820Y244611D01*
X64744Y244624D01*
X64669Y244642D01*
X64595Y244663D01*
X64522Y244688D01*
X64450Y244717D01*
X64380Y244749D01*
X64311Y244784D01*
X64245Y244824D01*
X64180Y244866D01*
X64118Y244912D01*
X64058Y244961D01*
X64001Y245012D01*
X63946Y245067D01*
X63895Y245124D01*
X63846Y245184D01*
X63800Y245246D01*
X63758Y245311D01*
X63718Y245377D01*
X63683Y245446D01*
X63651Y245516D01*
X63622Y245588D01*
X63597Y245661D01*
X63576Y245735D01*
X63558Y245810D01*
X63545Y245886D01*
X63535Y245963D01*
X63529Y246040D01*
X63527Y246117D01*
X63527Y249927D01*
X63529Y250004D01*
X63535Y250081D01*
X63545Y250158D01*
X63558Y250234D01*
X63576Y250309D01*
X63597Y250383D01*
X63622Y250456D01*
X63651Y250528D01*
X63683Y250598D01*
X63718Y250667D01*
X63758Y250733D01*
X63800Y250798D01*
X63846Y250860D01*
X63895Y250920D01*
X63946Y250977D01*
X64001Y251032D01*
X64058Y251083D01*
X64118Y251132D01*
X64180Y251178D01*
X64245Y251220D01*
X64311Y251260D01*
X64380Y251295D01*
X64450Y251327D01*
X64522Y251356D01*
X64595Y251381D01*
X64669Y251402D01*
X64744Y251420D01*
X64820Y251433D01*
X64897Y251443D01*
X64974Y251449D01*
X65051Y251451D01*
X66575Y251451D01*
X69265Y246498D02*
X69267Y246583D01*
X69273Y246669D01*
X69282Y246754D01*
X69296Y246838D01*
X69313Y246922D01*
X69334Y247005D01*
X69358Y247087D01*
X69386Y247167D01*
X69418Y247247D01*
X69454Y247325D01*
X69492Y247401D01*
X69535Y247475D01*
X69580Y247547D01*
X69629Y247618D01*
X69681Y247686D01*
X69735Y247751D01*
X69793Y247814D01*
X69854Y247875D01*
X69917Y247933D01*
X69982Y247987D01*
X70050Y248039D01*
X70121Y248088D01*
X70193Y248133D01*
X70267Y248176D01*
X70343Y248214D01*
X70421Y248250D01*
X70501Y248282D01*
X70581Y248310D01*
X70663Y248334D01*
X70746Y248355D01*
X70830Y248372D01*
X70914Y248386D01*
X70999Y248395D01*
X71085Y248401D01*
X71170Y248403D01*
X71255Y248401D01*
X71341Y248395D01*
X71426Y248386D01*
X71510Y248372D01*
X71594Y248355D01*
X71677Y248334D01*
X71759Y248310D01*
X71839Y248282D01*
X71919Y248250D01*
X71997Y248214D01*
X72073Y248176D01*
X72147Y248133D01*
X72219Y248088D01*
X72290Y248039D01*
X72358Y247987D01*
X72423Y247933D01*
X72486Y247875D01*
X72547Y247814D01*
X72605Y247751D01*
X72659Y247686D01*
X72711Y247618D01*
X72760Y247547D01*
X72805Y247475D01*
X72848Y247401D01*
X72886Y247325D01*
X72922Y247247D01*
X72954Y247167D01*
X72982Y247087D01*
X73006Y247005D01*
X73027Y246922D01*
X73044Y246838D01*
X73058Y246754D01*
X73067Y246669D01*
X73073Y246583D01*
X73075Y246498D01*
X73073Y246413D01*
X73067Y246327D01*
X73058Y246242D01*
X73044Y246158D01*
X73027Y246074D01*
X73006Y245991D01*
X72982Y245909D01*
X72954Y245829D01*
X72922Y245749D01*
X72886Y245671D01*
X72848Y245595D01*
X72805Y245521D01*
X72760Y245449D01*
X72711Y245378D01*
X72659Y245310D01*
X72605Y245245D01*
X72547Y245182D01*
X72486Y245121D01*
X72423Y245063D01*
X72358Y245009D01*
X72290Y244957D01*
X72219Y244908D01*
X72147Y244863D01*
X72073Y244820D01*
X71997Y244782D01*
X71919Y244746D01*
X71839Y244714D01*
X71759Y244686D01*
X71677Y244662D01*
X71594Y244641D01*
X71510Y244624D01*
X71426Y244610D01*
X71341Y244601D01*
X71255Y244595D01*
X71170Y244593D01*
X71085Y244595D01*
X70999Y244601D01*
X70914Y244610D01*
X70830Y244624D01*
X70746Y244641D01*
X70663Y244662D01*
X70581Y244686D01*
X70501Y244714D01*
X70421Y244746D01*
X70343Y244782D01*
X70267Y244820D01*
X70193Y244863D01*
X70121Y244908D01*
X70050Y244957D01*
X69982Y245009D01*
X69917Y245063D01*
X69854Y245121D01*
X69793Y245182D01*
X69735Y245245D01*
X69681Y245310D01*
X69629Y245378D01*
X69580Y245449D01*
X69535Y245521D01*
X69492Y245595D01*
X69454Y245671D01*
X69418Y245749D01*
X69386Y245829D01*
X69358Y245909D01*
X69334Y245991D01*
X69313Y246074D01*
X69296Y246158D01*
X69282Y246242D01*
X69273Y246327D01*
X69267Y246413D01*
X69265Y246498D01*
X69646Y249927D02*
X69648Y250004D01*
X69654Y250081D01*
X69664Y250158D01*
X69677Y250234D01*
X69695Y250309D01*
X69716Y250383D01*
X69741Y250456D01*
X69770Y250528D01*
X69802Y250598D01*
X69837Y250667D01*
X69877Y250733D01*
X69919Y250798D01*
X69965Y250860D01*
X70014Y250920D01*
X70065Y250977D01*
X70120Y251032D01*
X70177Y251083D01*
X70237Y251132D01*
X70299Y251178D01*
X70364Y251220D01*
X70430Y251260D01*
X70499Y251295D01*
X70569Y251327D01*
X70641Y251356D01*
X70714Y251381D01*
X70788Y251402D01*
X70863Y251420D01*
X70939Y251433D01*
X71016Y251443D01*
X71093Y251449D01*
X71170Y251451D01*
X71247Y251449D01*
X71324Y251443D01*
X71401Y251433D01*
X71477Y251420D01*
X71552Y251402D01*
X71626Y251381D01*
X71699Y251356D01*
X71771Y251327D01*
X71841Y251295D01*
X71910Y251260D01*
X71976Y251220D01*
X72041Y251178D01*
X72103Y251132D01*
X72163Y251083D01*
X72220Y251032D01*
X72275Y250977D01*
X72326Y250920D01*
X72375Y250860D01*
X72421Y250798D01*
X72463Y250733D01*
X72503Y250667D01*
X72538Y250598D01*
X72570Y250528D01*
X72599Y250456D01*
X72624Y250383D01*
X72645Y250309D01*
X72663Y250234D01*
X72676Y250158D01*
X72686Y250081D01*
X72692Y250004D01*
X72694Y249927D01*
X72692Y249850D01*
X72686Y249773D01*
X72676Y249696D01*
X72663Y249620D01*
X72645Y249545D01*
X72624Y249471D01*
X72599Y249398D01*
X72570Y249326D01*
X72538Y249256D01*
X72503Y249187D01*
X72463Y249121D01*
X72421Y249056D01*
X72375Y248994D01*
X72326Y248934D01*
X72275Y248877D01*
X72220Y248822D01*
X72163Y248771D01*
X72103Y248722D01*
X72041Y248676D01*
X71976Y248634D01*
X71910Y248594D01*
X71841Y248559D01*
X71771Y248527D01*
X71699Y248498D01*
X71626Y248473D01*
X71552Y248452D01*
X71477Y248434D01*
X71401Y248421D01*
X71324Y248411D01*
X71247Y248405D01*
X71170Y248403D01*
X71093Y248405D01*
X71016Y248411D01*
X70939Y248421D01*
X70863Y248434D01*
X70788Y248452D01*
X70714Y248473D01*
X70641Y248498D01*
X70569Y248527D01*
X70499Y248559D01*
X70430Y248594D01*
X70364Y248634D01*
X70299Y248676D01*
X70237Y248722D01*
X70177Y248771D01*
X70120Y248822D01*
X70065Y248877D01*
X70014Y248934D01*
X69965Y248994D01*
X69919Y249056D01*
X69877Y249121D01*
X69837Y249187D01*
X69802Y249256D01*
X69770Y249326D01*
X69741Y249398D01*
X69716Y249471D01*
X69695Y249545D01*
X69677Y249620D01*
X69664Y249696D01*
X69654Y249773D01*
X69648Y249850D01*
X69646Y249927D01*
X73605Y343605D02*
X73605Y345129D01*
X73605Y343605D02*
X73603Y343528D01*
X73597Y343451D01*
X73587Y343374D01*
X73574Y343298D01*
X73556Y343223D01*
X73535Y343149D01*
X73510Y343076D01*
X73481Y343004D01*
X73449Y342934D01*
X73414Y342865D01*
X73374Y342799D01*
X73332Y342734D01*
X73286Y342672D01*
X73237Y342612D01*
X73186Y342555D01*
X73131Y342500D01*
X73074Y342449D01*
X73014Y342400D01*
X72952Y342354D01*
X72887Y342312D01*
X72821Y342272D01*
X72752Y342237D01*
X72682Y342205D01*
X72610Y342176D01*
X72537Y342151D01*
X72463Y342130D01*
X72388Y342112D01*
X72312Y342099D01*
X72235Y342089D01*
X72158Y342083D01*
X72081Y342081D01*
X68271Y342081D01*
X68194Y342083D01*
X68117Y342089D01*
X68040Y342099D01*
X67964Y342112D01*
X67889Y342130D01*
X67815Y342151D01*
X67742Y342176D01*
X67670Y342205D01*
X67600Y342237D01*
X67531Y342272D01*
X67465Y342312D01*
X67400Y342354D01*
X67338Y342400D01*
X67278Y342449D01*
X67221Y342500D01*
X67166Y342555D01*
X67115Y342612D01*
X67066Y342672D01*
X67020Y342734D01*
X66978Y342799D01*
X66938Y342865D01*
X66903Y342934D01*
X66871Y343004D01*
X66842Y343076D01*
X66817Y343149D01*
X66796Y343223D01*
X66778Y343298D01*
X66765Y343374D01*
X66755Y343451D01*
X66749Y343528D01*
X66747Y343605D01*
X66747Y345129D01*
X69795Y347819D02*
X69795Y350105D01*
X69797Y350182D01*
X69803Y350259D01*
X69813Y350336D01*
X69826Y350412D01*
X69844Y350487D01*
X69865Y350561D01*
X69890Y350634D01*
X69919Y350706D01*
X69951Y350776D01*
X69986Y350845D01*
X70026Y350911D01*
X70068Y350976D01*
X70114Y351038D01*
X70163Y351098D01*
X70214Y351155D01*
X70269Y351210D01*
X70326Y351261D01*
X70386Y351310D01*
X70448Y351356D01*
X70513Y351398D01*
X70579Y351438D01*
X70648Y351473D01*
X70718Y351505D01*
X70790Y351534D01*
X70863Y351559D01*
X70937Y351580D01*
X71012Y351598D01*
X71088Y351611D01*
X71165Y351621D01*
X71242Y351627D01*
X71319Y351629D01*
X71700Y351629D01*
X71785Y351627D01*
X71871Y351621D01*
X71956Y351612D01*
X72040Y351598D01*
X72124Y351581D01*
X72207Y351560D01*
X72289Y351536D01*
X72369Y351508D01*
X72449Y351476D01*
X72527Y351440D01*
X72603Y351402D01*
X72677Y351359D01*
X72749Y351314D01*
X72820Y351265D01*
X72888Y351213D01*
X72953Y351159D01*
X73016Y351101D01*
X73077Y351040D01*
X73135Y350977D01*
X73189Y350912D01*
X73241Y350844D01*
X73290Y350773D01*
X73335Y350701D01*
X73378Y350627D01*
X73416Y350551D01*
X73452Y350473D01*
X73484Y350393D01*
X73512Y350313D01*
X73536Y350231D01*
X73557Y350148D01*
X73574Y350064D01*
X73588Y349980D01*
X73597Y349895D01*
X73603Y349809D01*
X73605Y349724D01*
X73603Y349639D01*
X73597Y349553D01*
X73588Y349468D01*
X73574Y349384D01*
X73557Y349300D01*
X73536Y349217D01*
X73512Y349135D01*
X73484Y349055D01*
X73452Y348975D01*
X73416Y348897D01*
X73378Y348821D01*
X73335Y348747D01*
X73290Y348675D01*
X73241Y348604D01*
X73189Y348536D01*
X73135Y348471D01*
X73077Y348408D01*
X73016Y348347D01*
X72953Y348289D01*
X72888Y348235D01*
X72820Y348183D01*
X72749Y348134D01*
X72677Y348089D01*
X72603Y348046D01*
X72527Y348008D01*
X72449Y347972D01*
X72369Y347940D01*
X72289Y347912D01*
X72207Y347888D01*
X72124Y347867D01*
X72040Y347850D01*
X71956Y347836D01*
X71871Y347827D01*
X71785Y347821D01*
X71700Y347819D01*
X69795Y347819D01*
X69686Y347821D01*
X69578Y347827D01*
X69469Y347836D01*
X69361Y347850D01*
X69254Y347867D01*
X69147Y347889D01*
X69041Y347914D01*
X68936Y347942D01*
X68832Y347975D01*
X68730Y348011D01*
X68629Y348051D01*
X68529Y348094D01*
X68431Y348141D01*
X68334Y348192D01*
X68240Y348246D01*
X68147Y348303D01*
X68057Y348363D01*
X67968Y348427D01*
X67882Y348494D01*
X67799Y348563D01*
X67718Y348636D01*
X67640Y348712D01*
X67564Y348790D01*
X67491Y348871D01*
X67422Y348954D01*
X67355Y349040D01*
X67291Y349129D01*
X67231Y349219D01*
X67174Y349312D01*
X67120Y349406D01*
X67069Y349503D01*
X67022Y349601D01*
X66979Y349701D01*
X66939Y349802D01*
X66903Y349904D01*
X66870Y350008D01*
X66842Y350113D01*
X66817Y350219D01*
X66795Y350326D01*
X66778Y350433D01*
X66764Y350541D01*
X66755Y350650D01*
X66749Y350758D01*
X66747Y350867D01*
X73145Y328122D02*
X73145Y326598D01*
X73143Y326521D01*
X73137Y326444D01*
X73127Y326367D01*
X73114Y326291D01*
X73096Y326216D01*
X73075Y326142D01*
X73050Y326069D01*
X73021Y325997D01*
X72989Y325927D01*
X72954Y325858D01*
X72914Y325792D01*
X72872Y325727D01*
X72826Y325665D01*
X72777Y325605D01*
X72726Y325548D01*
X72671Y325493D01*
X72614Y325442D01*
X72554Y325393D01*
X72492Y325347D01*
X72427Y325305D01*
X72361Y325265D01*
X72292Y325230D01*
X72222Y325198D01*
X72150Y325169D01*
X72077Y325144D01*
X72003Y325123D01*
X71928Y325105D01*
X71852Y325092D01*
X71775Y325082D01*
X71698Y325076D01*
X71621Y325074D01*
X67811Y325074D01*
X67734Y325076D01*
X67657Y325082D01*
X67580Y325092D01*
X67504Y325105D01*
X67429Y325123D01*
X67355Y325144D01*
X67282Y325169D01*
X67210Y325198D01*
X67140Y325230D01*
X67071Y325265D01*
X67005Y325305D01*
X66940Y325347D01*
X66878Y325393D01*
X66818Y325442D01*
X66761Y325493D01*
X66706Y325548D01*
X66655Y325605D01*
X66606Y325665D01*
X66560Y325727D01*
X66518Y325792D01*
X66478Y325858D01*
X66443Y325927D01*
X66411Y325997D01*
X66382Y326069D01*
X66357Y326142D01*
X66336Y326216D01*
X66318Y326291D01*
X66305Y326367D01*
X66295Y326444D01*
X66289Y326521D01*
X66287Y326598D01*
X66287Y328122D01*
X66287Y330811D02*
X67049Y330811D01*
X66287Y330811D02*
X66287Y334621D01*
X73145Y332716D01*
X58776Y300484D02*
X57252Y300484D01*
X57175Y300486D01*
X57098Y300492D01*
X57021Y300502D01*
X56945Y300515D01*
X56870Y300533D01*
X56796Y300554D01*
X56723Y300579D01*
X56651Y300608D01*
X56581Y300640D01*
X56512Y300675D01*
X56446Y300715D01*
X56381Y300757D01*
X56319Y300803D01*
X56259Y300852D01*
X56202Y300903D01*
X56147Y300958D01*
X56096Y301015D01*
X56047Y301075D01*
X56001Y301137D01*
X55959Y301202D01*
X55919Y301268D01*
X55884Y301337D01*
X55852Y301407D01*
X55823Y301479D01*
X55798Y301552D01*
X55777Y301626D01*
X55759Y301701D01*
X55746Y301777D01*
X55736Y301854D01*
X55730Y301931D01*
X55728Y302008D01*
X55728Y305818D01*
X55730Y305895D01*
X55736Y305972D01*
X55746Y306049D01*
X55759Y306125D01*
X55777Y306200D01*
X55798Y306274D01*
X55823Y306347D01*
X55852Y306419D01*
X55884Y306489D01*
X55919Y306558D01*
X55959Y306624D01*
X56001Y306689D01*
X56047Y306751D01*
X56096Y306811D01*
X56147Y306868D01*
X56202Y306923D01*
X56259Y306974D01*
X56319Y307023D01*
X56381Y307069D01*
X56446Y307111D01*
X56512Y307151D01*
X56581Y307186D01*
X56651Y307218D01*
X56723Y307247D01*
X56796Y307272D01*
X56870Y307293D01*
X56945Y307311D01*
X57021Y307324D01*
X57098Y307334D01*
X57175Y307340D01*
X57252Y307342D01*
X58776Y307342D01*
X61465Y305818D02*
X63370Y307342D01*
X63370Y300484D01*
X61465Y300484D02*
X65275Y300484D01*
X68323Y305818D02*
X70228Y307342D01*
X70228Y300484D01*
X68323Y300484D02*
X72133Y300484D01*
X59125Y254941D02*
X57601Y254941D01*
X57524Y254943D01*
X57447Y254949D01*
X57370Y254959D01*
X57294Y254972D01*
X57219Y254990D01*
X57145Y255011D01*
X57072Y255036D01*
X57000Y255065D01*
X56930Y255097D01*
X56861Y255132D01*
X56795Y255172D01*
X56730Y255214D01*
X56668Y255260D01*
X56608Y255309D01*
X56551Y255360D01*
X56496Y255415D01*
X56445Y255472D01*
X56396Y255532D01*
X56350Y255594D01*
X56308Y255659D01*
X56268Y255725D01*
X56233Y255794D01*
X56201Y255864D01*
X56172Y255936D01*
X56147Y256009D01*
X56126Y256083D01*
X56108Y256158D01*
X56095Y256234D01*
X56085Y256311D01*
X56079Y256388D01*
X56077Y256465D01*
X56077Y260275D01*
X56079Y260352D01*
X56085Y260429D01*
X56095Y260506D01*
X56108Y260582D01*
X56126Y260657D01*
X56147Y260731D01*
X56172Y260804D01*
X56201Y260876D01*
X56233Y260946D01*
X56268Y261015D01*
X56308Y261081D01*
X56350Y261146D01*
X56396Y261208D01*
X56445Y261268D01*
X56496Y261325D01*
X56551Y261380D01*
X56608Y261431D01*
X56668Y261480D01*
X56730Y261526D01*
X56795Y261568D01*
X56861Y261608D01*
X56930Y261643D01*
X57000Y261675D01*
X57072Y261704D01*
X57145Y261729D01*
X57219Y261750D01*
X57294Y261768D01*
X57370Y261781D01*
X57447Y261791D01*
X57524Y261797D01*
X57601Y261799D01*
X59125Y261799D01*
X61814Y260275D02*
X63719Y261799D01*
X63719Y254941D01*
X61814Y254941D02*
X65624Y254941D01*
X72483Y260085D02*
X72481Y260167D01*
X72475Y260248D01*
X72466Y260329D01*
X72452Y260410D01*
X72435Y260489D01*
X72414Y260568D01*
X72389Y260646D01*
X72360Y260722D01*
X72328Y260797D01*
X72292Y260871D01*
X72253Y260943D01*
X72211Y261012D01*
X72165Y261080D01*
X72116Y261145D01*
X72064Y261208D01*
X72009Y261268D01*
X71951Y261326D01*
X71891Y261381D01*
X71828Y261433D01*
X71763Y261482D01*
X71695Y261528D01*
X71626Y261570D01*
X71554Y261609D01*
X71480Y261645D01*
X71405Y261677D01*
X71329Y261706D01*
X71251Y261731D01*
X71172Y261752D01*
X71093Y261769D01*
X71012Y261783D01*
X70931Y261792D01*
X70850Y261798D01*
X70768Y261800D01*
X70768Y261799D02*
X70676Y261797D01*
X70584Y261791D01*
X70492Y261782D01*
X70400Y261768D01*
X70310Y261751D01*
X70220Y261730D01*
X70131Y261705D01*
X70043Y261676D01*
X69956Y261644D01*
X69871Y261608D01*
X69788Y261569D01*
X69706Y261526D01*
X69626Y261480D01*
X69548Y261430D01*
X69472Y261378D01*
X69399Y261322D01*
X69328Y261263D01*
X69259Y261201D01*
X69193Y261136D01*
X69130Y261069D01*
X69070Y260999D01*
X69012Y260927D01*
X68958Y260852D01*
X68907Y260775D01*
X68859Y260696D01*
X68815Y260615D01*
X68774Y260532D01*
X68736Y260448D01*
X68702Y260362D01*
X68672Y260275D01*
X71911Y258751D02*
X71970Y258810D01*
X72026Y258871D01*
X72079Y258934D01*
X72130Y259000D01*
X72177Y259068D01*
X72221Y259138D01*
X72262Y259210D01*
X72300Y259284D01*
X72334Y259359D01*
X72365Y259436D01*
X72392Y259514D01*
X72416Y259594D01*
X72437Y259674D01*
X72453Y259755D01*
X72466Y259837D01*
X72476Y259919D01*
X72481Y260002D01*
X72483Y260085D01*
X71911Y258751D02*
X68672Y254941D01*
X72482Y254941D01*
X208065Y265323D02*
X209589Y265323D01*
X208065Y265323D02*
X207988Y265325D01*
X207911Y265331D01*
X207834Y265341D01*
X207758Y265354D01*
X207683Y265372D01*
X207609Y265393D01*
X207536Y265418D01*
X207464Y265447D01*
X207394Y265479D01*
X207325Y265514D01*
X207259Y265554D01*
X207194Y265596D01*
X207132Y265642D01*
X207072Y265691D01*
X207015Y265742D01*
X206960Y265797D01*
X206909Y265854D01*
X206860Y265914D01*
X206814Y265976D01*
X206772Y266041D01*
X206732Y266107D01*
X206697Y266176D01*
X206665Y266246D01*
X206636Y266318D01*
X206611Y266391D01*
X206590Y266465D01*
X206572Y266540D01*
X206559Y266616D01*
X206549Y266693D01*
X206543Y266770D01*
X206541Y266847D01*
X206541Y270657D01*
X206543Y270734D01*
X206549Y270811D01*
X206559Y270888D01*
X206572Y270964D01*
X206590Y271039D01*
X206611Y271113D01*
X206636Y271186D01*
X206665Y271258D01*
X206697Y271328D01*
X206732Y271397D01*
X206772Y271463D01*
X206814Y271528D01*
X206860Y271590D01*
X206909Y271650D01*
X206960Y271707D01*
X207015Y271762D01*
X207072Y271813D01*
X207132Y271862D01*
X207194Y271908D01*
X207259Y271950D01*
X207325Y271990D01*
X207394Y272025D01*
X207464Y272057D01*
X207536Y272086D01*
X207609Y272111D01*
X207683Y272132D01*
X207758Y272150D01*
X207834Y272163D01*
X207911Y272173D01*
X207988Y272179D01*
X208065Y272181D01*
X209589Y272181D01*
X212278Y270657D02*
X214183Y272181D01*
X214183Y265323D01*
X212278Y265323D02*
X216088Y265323D01*
X219136Y265323D02*
X221041Y265323D01*
X221126Y265325D01*
X221212Y265331D01*
X221297Y265340D01*
X221381Y265354D01*
X221465Y265371D01*
X221548Y265392D01*
X221630Y265416D01*
X221710Y265444D01*
X221790Y265476D01*
X221868Y265512D01*
X221944Y265550D01*
X222018Y265593D01*
X222090Y265638D01*
X222161Y265687D01*
X222229Y265739D01*
X222294Y265793D01*
X222357Y265851D01*
X222418Y265912D01*
X222476Y265975D01*
X222530Y266040D01*
X222582Y266108D01*
X222631Y266179D01*
X222676Y266251D01*
X222719Y266325D01*
X222757Y266401D01*
X222793Y266479D01*
X222825Y266559D01*
X222853Y266639D01*
X222877Y266721D01*
X222898Y266804D01*
X222915Y266888D01*
X222929Y266972D01*
X222938Y267057D01*
X222944Y267143D01*
X222946Y267228D01*
X222944Y267313D01*
X222938Y267399D01*
X222929Y267484D01*
X222915Y267568D01*
X222898Y267652D01*
X222877Y267735D01*
X222853Y267817D01*
X222825Y267897D01*
X222793Y267977D01*
X222757Y268055D01*
X222719Y268131D01*
X222676Y268205D01*
X222631Y268277D01*
X222582Y268348D01*
X222530Y268416D01*
X222476Y268481D01*
X222418Y268544D01*
X222357Y268605D01*
X222294Y268663D01*
X222229Y268717D01*
X222161Y268769D01*
X222090Y268818D01*
X222018Y268863D01*
X221944Y268906D01*
X221868Y268944D01*
X221790Y268980D01*
X221710Y269012D01*
X221630Y269040D01*
X221548Y269064D01*
X221465Y269085D01*
X221381Y269102D01*
X221297Y269116D01*
X221212Y269125D01*
X221126Y269131D01*
X221041Y269133D01*
X221422Y272181D02*
X219136Y272181D01*
X221422Y272181D02*
X221499Y272179D01*
X221576Y272173D01*
X221653Y272163D01*
X221729Y272150D01*
X221804Y272132D01*
X221878Y272111D01*
X221951Y272086D01*
X222023Y272057D01*
X222093Y272025D01*
X222162Y271990D01*
X222228Y271950D01*
X222293Y271908D01*
X222355Y271862D01*
X222415Y271813D01*
X222472Y271762D01*
X222527Y271707D01*
X222578Y271650D01*
X222627Y271590D01*
X222673Y271528D01*
X222715Y271463D01*
X222755Y271397D01*
X222790Y271328D01*
X222822Y271258D01*
X222851Y271186D01*
X222876Y271113D01*
X222897Y271039D01*
X222915Y270964D01*
X222928Y270888D01*
X222938Y270811D01*
X222944Y270734D01*
X222946Y270657D01*
X222944Y270580D01*
X222938Y270503D01*
X222928Y270426D01*
X222915Y270350D01*
X222897Y270275D01*
X222876Y270201D01*
X222851Y270128D01*
X222822Y270056D01*
X222790Y269986D01*
X222755Y269917D01*
X222715Y269851D01*
X222673Y269786D01*
X222627Y269724D01*
X222578Y269664D01*
X222527Y269607D01*
X222472Y269552D01*
X222415Y269501D01*
X222355Y269452D01*
X222293Y269406D01*
X222228Y269364D01*
X222162Y269324D01*
X222093Y269289D01*
X222023Y269257D01*
X221951Y269228D01*
X221878Y269203D01*
X221804Y269182D01*
X221729Y269164D01*
X221653Y269151D01*
X221576Y269141D01*
X221499Y269135D01*
X221422Y269133D01*
X219898Y269133D01*
X206688Y231698D02*
X205164Y231698D01*
X205087Y231700D01*
X205010Y231706D01*
X204933Y231716D01*
X204857Y231729D01*
X204782Y231747D01*
X204708Y231768D01*
X204635Y231793D01*
X204563Y231822D01*
X204493Y231854D01*
X204424Y231889D01*
X204358Y231929D01*
X204293Y231971D01*
X204231Y232017D01*
X204171Y232066D01*
X204114Y232117D01*
X204059Y232172D01*
X204008Y232229D01*
X203959Y232289D01*
X203913Y232351D01*
X203871Y232416D01*
X203831Y232482D01*
X203796Y232551D01*
X203764Y232621D01*
X203735Y232693D01*
X203710Y232766D01*
X203689Y232840D01*
X203671Y232915D01*
X203658Y232991D01*
X203648Y233068D01*
X203642Y233145D01*
X203640Y233222D01*
X203640Y237032D01*
X203642Y237109D01*
X203648Y237186D01*
X203658Y237263D01*
X203671Y237339D01*
X203689Y237414D01*
X203710Y237488D01*
X203735Y237561D01*
X203764Y237633D01*
X203796Y237703D01*
X203831Y237772D01*
X203871Y237838D01*
X203913Y237903D01*
X203959Y237965D01*
X204008Y238025D01*
X204059Y238082D01*
X204114Y238137D01*
X204171Y238188D01*
X204231Y238237D01*
X204293Y238283D01*
X204358Y238325D01*
X204424Y238365D01*
X204493Y238400D01*
X204563Y238432D01*
X204635Y238461D01*
X204708Y238486D01*
X204782Y238507D01*
X204857Y238525D01*
X204933Y238538D01*
X205010Y238548D01*
X205087Y238554D01*
X205164Y238556D01*
X206688Y238556D01*
X209377Y237032D02*
X211282Y238556D01*
X211282Y231698D01*
X209377Y231698D02*
X213187Y231698D01*
X216235Y231698D02*
X218521Y231698D01*
X218598Y231700D01*
X218675Y231706D01*
X218752Y231716D01*
X218828Y231729D01*
X218903Y231747D01*
X218977Y231768D01*
X219050Y231793D01*
X219122Y231822D01*
X219192Y231854D01*
X219261Y231889D01*
X219327Y231929D01*
X219392Y231971D01*
X219454Y232017D01*
X219514Y232066D01*
X219571Y232117D01*
X219626Y232172D01*
X219677Y232229D01*
X219726Y232289D01*
X219772Y232351D01*
X219814Y232416D01*
X219854Y232482D01*
X219889Y232551D01*
X219921Y232621D01*
X219950Y232693D01*
X219975Y232766D01*
X219996Y232840D01*
X220014Y232915D01*
X220027Y232991D01*
X220037Y233068D01*
X220043Y233145D01*
X220045Y233222D01*
X220045Y233984D01*
X220043Y234061D01*
X220037Y234138D01*
X220027Y234215D01*
X220014Y234291D01*
X219996Y234366D01*
X219975Y234440D01*
X219950Y234513D01*
X219921Y234585D01*
X219889Y234655D01*
X219854Y234724D01*
X219814Y234790D01*
X219772Y234855D01*
X219726Y234917D01*
X219677Y234977D01*
X219626Y235034D01*
X219571Y235089D01*
X219514Y235140D01*
X219454Y235189D01*
X219392Y235235D01*
X219327Y235277D01*
X219261Y235317D01*
X219192Y235352D01*
X219122Y235384D01*
X219050Y235413D01*
X218977Y235438D01*
X218903Y235459D01*
X218828Y235477D01*
X218752Y235490D01*
X218675Y235500D01*
X218598Y235506D01*
X218521Y235508D01*
X216235Y235508D01*
X216235Y238556D01*
X220045Y238556D01*
D17*
X190503Y224509D02*
X185403Y224509D01*
X185403Y210509D02*
X190503Y210509D01*
D10*
X184621Y201402D02*
X183097Y201402D01*
X183020Y201404D01*
X182943Y201410D01*
X182866Y201420D01*
X182790Y201433D01*
X182715Y201451D01*
X182641Y201472D01*
X182568Y201497D01*
X182496Y201526D01*
X182426Y201558D01*
X182357Y201593D01*
X182291Y201633D01*
X182226Y201675D01*
X182164Y201721D01*
X182104Y201770D01*
X182047Y201821D01*
X181992Y201876D01*
X181941Y201933D01*
X181892Y201993D01*
X181846Y202055D01*
X181804Y202120D01*
X181764Y202186D01*
X181729Y202255D01*
X181697Y202325D01*
X181668Y202397D01*
X181643Y202470D01*
X181622Y202544D01*
X181604Y202619D01*
X181591Y202695D01*
X181581Y202772D01*
X181575Y202849D01*
X181573Y202926D01*
X181573Y206736D01*
X181575Y206813D01*
X181581Y206890D01*
X181591Y206967D01*
X181604Y207043D01*
X181622Y207118D01*
X181643Y207192D01*
X181668Y207265D01*
X181697Y207337D01*
X181729Y207407D01*
X181764Y207476D01*
X181804Y207542D01*
X181846Y207607D01*
X181892Y207669D01*
X181941Y207729D01*
X181992Y207786D01*
X182047Y207841D01*
X182104Y207892D01*
X182164Y207941D01*
X182226Y207987D01*
X182291Y208029D01*
X182357Y208069D01*
X182426Y208104D01*
X182496Y208136D01*
X182568Y208165D01*
X182641Y208190D01*
X182715Y208211D01*
X182790Y208229D01*
X182866Y208242D01*
X182943Y208252D01*
X183020Y208258D01*
X183097Y208260D01*
X184621Y208260D01*
X187311Y206736D02*
X189216Y208260D01*
X189216Y201402D01*
X187311Y201402D02*
X191121Y201402D01*
X194169Y202926D02*
X195693Y208260D01*
X194169Y202926D02*
X197979Y202926D01*
X196836Y204450D02*
X196836Y201402D01*
D17*
X120721Y210593D02*
X115621Y210593D01*
X115621Y224593D02*
X120721Y224593D01*
D10*
X112619Y200810D02*
X111095Y200810D01*
X111018Y200812D01*
X110941Y200818D01*
X110864Y200828D01*
X110788Y200841D01*
X110713Y200859D01*
X110639Y200880D01*
X110566Y200905D01*
X110494Y200934D01*
X110424Y200966D01*
X110355Y201001D01*
X110289Y201041D01*
X110224Y201083D01*
X110162Y201129D01*
X110102Y201178D01*
X110045Y201229D01*
X109990Y201284D01*
X109939Y201341D01*
X109890Y201401D01*
X109844Y201463D01*
X109802Y201528D01*
X109762Y201594D01*
X109727Y201663D01*
X109695Y201733D01*
X109666Y201805D01*
X109641Y201878D01*
X109620Y201952D01*
X109602Y202027D01*
X109589Y202103D01*
X109579Y202180D01*
X109573Y202257D01*
X109571Y202334D01*
X109571Y206144D01*
X109573Y206221D01*
X109579Y206298D01*
X109589Y206375D01*
X109602Y206451D01*
X109620Y206526D01*
X109641Y206600D01*
X109666Y206673D01*
X109695Y206745D01*
X109727Y206815D01*
X109762Y206884D01*
X109802Y206950D01*
X109844Y207015D01*
X109890Y207077D01*
X109939Y207137D01*
X109990Y207194D01*
X110045Y207249D01*
X110102Y207300D01*
X110162Y207349D01*
X110224Y207395D01*
X110289Y207437D01*
X110355Y207477D01*
X110424Y207512D01*
X110494Y207544D01*
X110566Y207573D01*
X110639Y207598D01*
X110713Y207619D01*
X110788Y207637D01*
X110864Y207650D01*
X110941Y207660D01*
X111018Y207666D01*
X111095Y207668D01*
X112619Y207668D01*
X115308Y206144D02*
X117213Y207668D01*
X117213Y200810D01*
X115308Y200810D02*
X119118Y200810D01*
X122166Y204620D02*
X124452Y204620D01*
X124529Y204618D01*
X124606Y204612D01*
X124683Y204602D01*
X124759Y204589D01*
X124834Y204571D01*
X124908Y204550D01*
X124981Y204525D01*
X125053Y204496D01*
X125123Y204464D01*
X125192Y204429D01*
X125258Y204389D01*
X125323Y204347D01*
X125385Y204301D01*
X125445Y204252D01*
X125502Y204201D01*
X125557Y204146D01*
X125608Y204089D01*
X125657Y204029D01*
X125703Y203967D01*
X125745Y203902D01*
X125785Y203836D01*
X125820Y203767D01*
X125852Y203697D01*
X125881Y203625D01*
X125906Y203552D01*
X125927Y203478D01*
X125945Y203403D01*
X125958Y203327D01*
X125968Y203250D01*
X125974Y203173D01*
X125976Y203096D01*
X125976Y202715D01*
X125974Y202630D01*
X125968Y202544D01*
X125959Y202459D01*
X125945Y202375D01*
X125928Y202291D01*
X125907Y202208D01*
X125883Y202126D01*
X125855Y202046D01*
X125823Y201966D01*
X125787Y201888D01*
X125749Y201812D01*
X125706Y201738D01*
X125661Y201666D01*
X125612Y201595D01*
X125560Y201527D01*
X125506Y201462D01*
X125448Y201399D01*
X125387Y201338D01*
X125324Y201280D01*
X125259Y201226D01*
X125191Y201174D01*
X125120Y201125D01*
X125048Y201080D01*
X124974Y201037D01*
X124898Y200999D01*
X124820Y200963D01*
X124740Y200931D01*
X124660Y200903D01*
X124578Y200879D01*
X124495Y200858D01*
X124411Y200841D01*
X124327Y200827D01*
X124242Y200818D01*
X124156Y200812D01*
X124071Y200810D01*
X123986Y200812D01*
X123900Y200818D01*
X123815Y200827D01*
X123731Y200841D01*
X123647Y200858D01*
X123564Y200879D01*
X123482Y200903D01*
X123402Y200931D01*
X123322Y200963D01*
X123244Y200999D01*
X123168Y201037D01*
X123094Y201080D01*
X123022Y201125D01*
X122951Y201174D01*
X122883Y201226D01*
X122818Y201280D01*
X122755Y201338D01*
X122694Y201399D01*
X122636Y201462D01*
X122582Y201527D01*
X122530Y201595D01*
X122481Y201666D01*
X122436Y201738D01*
X122393Y201812D01*
X122355Y201888D01*
X122319Y201966D01*
X122287Y202046D01*
X122259Y202126D01*
X122235Y202208D01*
X122214Y202291D01*
X122197Y202375D01*
X122183Y202459D01*
X122174Y202544D01*
X122168Y202630D01*
X122166Y202715D01*
X122166Y204620D01*
X122168Y204729D01*
X122174Y204837D01*
X122183Y204946D01*
X122197Y205054D01*
X122214Y205161D01*
X122236Y205268D01*
X122261Y205374D01*
X122289Y205479D01*
X122322Y205583D01*
X122358Y205685D01*
X122398Y205786D01*
X122441Y205886D01*
X122488Y205984D01*
X122539Y206081D01*
X122593Y206175D01*
X122650Y206268D01*
X122710Y206358D01*
X122774Y206447D01*
X122841Y206533D01*
X122910Y206616D01*
X122983Y206697D01*
X123059Y206775D01*
X123137Y206851D01*
X123218Y206924D01*
X123301Y206993D01*
X123387Y207060D01*
X123476Y207124D01*
X123566Y207184D01*
X123659Y207241D01*
X123753Y207295D01*
X123850Y207346D01*
X123948Y207393D01*
X124048Y207436D01*
X124149Y207476D01*
X124251Y207512D01*
X124355Y207545D01*
X124460Y207573D01*
X124566Y207598D01*
X124673Y207620D01*
X124780Y207637D01*
X124888Y207651D01*
X124997Y207660D01*
X125105Y207666D01*
X125214Y207668D01*
X207573Y275246D02*
X209097Y275246D01*
X207573Y275246D02*
X207496Y275248D01*
X207419Y275254D01*
X207342Y275264D01*
X207266Y275277D01*
X207191Y275295D01*
X207117Y275316D01*
X207044Y275341D01*
X206972Y275370D01*
X206902Y275402D01*
X206833Y275437D01*
X206767Y275477D01*
X206702Y275519D01*
X206640Y275565D01*
X206580Y275614D01*
X206523Y275665D01*
X206468Y275720D01*
X206417Y275777D01*
X206368Y275837D01*
X206322Y275899D01*
X206280Y275964D01*
X206240Y276030D01*
X206205Y276099D01*
X206173Y276169D01*
X206144Y276241D01*
X206119Y276314D01*
X206098Y276388D01*
X206080Y276463D01*
X206067Y276539D01*
X206057Y276616D01*
X206051Y276693D01*
X206049Y276770D01*
X206049Y280580D01*
X206051Y280657D01*
X206057Y280734D01*
X206067Y280811D01*
X206080Y280887D01*
X206098Y280962D01*
X206119Y281036D01*
X206144Y281109D01*
X206173Y281181D01*
X206205Y281251D01*
X206240Y281320D01*
X206280Y281386D01*
X206322Y281451D01*
X206368Y281513D01*
X206417Y281573D01*
X206468Y281630D01*
X206523Y281685D01*
X206580Y281736D01*
X206640Y281785D01*
X206702Y281831D01*
X206767Y281873D01*
X206833Y281913D01*
X206902Y281948D01*
X206972Y281980D01*
X207044Y282009D01*
X207117Y282034D01*
X207191Y282055D01*
X207266Y282073D01*
X207342Y282086D01*
X207419Y282096D01*
X207496Y282102D01*
X207573Y282104D01*
X209097Y282104D01*
X211786Y280580D02*
X213691Y282104D01*
X213691Y275246D01*
X211786Y275246D02*
X215596Y275246D01*
X218644Y281342D02*
X218644Y282104D01*
X222454Y282104D01*
X220549Y275246D01*
X180833Y324205D02*
X179309Y324205D01*
X179232Y324207D01*
X179155Y324213D01*
X179078Y324223D01*
X179002Y324236D01*
X178927Y324254D01*
X178853Y324275D01*
X178780Y324300D01*
X178708Y324329D01*
X178638Y324361D01*
X178569Y324396D01*
X178503Y324436D01*
X178438Y324478D01*
X178376Y324524D01*
X178316Y324573D01*
X178259Y324624D01*
X178204Y324679D01*
X178153Y324736D01*
X178104Y324796D01*
X178058Y324858D01*
X178016Y324923D01*
X177976Y324989D01*
X177941Y325058D01*
X177909Y325128D01*
X177880Y325200D01*
X177855Y325273D01*
X177834Y325347D01*
X177816Y325422D01*
X177803Y325498D01*
X177793Y325575D01*
X177787Y325652D01*
X177785Y325729D01*
X177785Y329539D01*
X177787Y329616D01*
X177793Y329693D01*
X177803Y329770D01*
X177816Y329846D01*
X177834Y329921D01*
X177855Y329995D01*
X177880Y330068D01*
X177909Y330140D01*
X177941Y330210D01*
X177976Y330279D01*
X178016Y330345D01*
X178058Y330410D01*
X178104Y330472D01*
X178153Y330532D01*
X178204Y330589D01*
X178259Y330644D01*
X178316Y330695D01*
X178376Y330744D01*
X178438Y330790D01*
X178503Y330832D01*
X178569Y330872D01*
X178638Y330907D01*
X178708Y330939D01*
X178780Y330968D01*
X178853Y330993D01*
X178927Y331014D01*
X179002Y331032D01*
X179078Y331045D01*
X179155Y331055D01*
X179232Y331061D01*
X179309Y331063D01*
X180833Y331063D01*
X183523Y329539D02*
X185428Y331063D01*
X185428Y324205D01*
X183523Y324205D02*
X187333Y324205D01*
X190381Y326110D02*
X190383Y326195D01*
X190389Y326281D01*
X190398Y326366D01*
X190412Y326450D01*
X190429Y326534D01*
X190450Y326617D01*
X190474Y326699D01*
X190502Y326779D01*
X190534Y326859D01*
X190570Y326937D01*
X190608Y327013D01*
X190651Y327087D01*
X190696Y327159D01*
X190745Y327230D01*
X190797Y327298D01*
X190851Y327363D01*
X190909Y327426D01*
X190970Y327487D01*
X191033Y327545D01*
X191098Y327599D01*
X191166Y327651D01*
X191237Y327700D01*
X191309Y327745D01*
X191383Y327788D01*
X191459Y327826D01*
X191537Y327862D01*
X191617Y327894D01*
X191697Y327922D01*
X191779Y327946D01*
X191862Y327967D01*
X191946Y327984D01*
X192030Y327998D01*
X192115Y328007D01*
X192201Y328013D01*
X192286Y328015D01*
X192371Y328013D01*
X192457Y328007D01*
X192542Y327998D01*
X192626Y327984D01*
X192710Y327967D01*
X192793Y327946D01*
X192875Y327922D01*
X192955Y327894D01*
X193035Y327862D01*
X193113Y327826D01*
X193189Y327788D01*
X193263Y327745D01*
X193335Y327700D01*
X193406Y327651D01*
X193474Y327599D01*
X193539Y327545D01*
X193602Y327487D01*
X193663Y327426D01*
X193721Y327363D01*
X193775Y327298D01*
X193827Y327230D01*
X193876Y327159D01*
X193921Y327087D01*
X193964Y327013D01*
X194002Y326937D01*
X194038Y326859D01*
X194070Y326779D01*
X194098Y326699D01*
X194122Y326617D01*
X194143Y326534D01*
X194160Y326450D01*
X194174Y326366D01*
X194183Y326281D01*
X194189Y326195D01*
X194191Y326110D01*
X194189Y326025D01*
X194183Y325939D01*
X194174Y325854D01*
X194160Y325770D01*
X194143Y325686D01*
X194122Y325603D01*
X194098Y325521D01*
X194070Y325441D01*
X194038Y325361D01*
X194002Y325283D01*
X193964Y325207D01*
X193921Y325133D01*
X193876Y325061D01*
X193827Y324990D01*
X193775Y324922D01*
X193721Y324857D01*
X193663Y324794D01*
X193602Y324733D01*
X193539Y324675D01*
X193474Y324621D01*
X193406Y324569D01*
X193335Y324520D01*
X193263Y324475D01*
X193189Y324432D01*
X193113Y324394D01*
X193035Y324358D01*
X192955Y324326D01*
X192875Y324298D01*
X192793Y324274D01*
X192710Y324253D01*
X192626Y324236D01*
X192542Y324222D01*
X192457Y324213D01*
X192371Y324207D01*
X192286Y324205D01*
X192201Y324207D01*
X192115Y324213D01*
X192030Y324222D01*
X191946Y324236D01*
X191862Y324253D01*
X191779Y324274D01*
X191697Y324298D01*
X191617Y324326D01*
X191537Y324358D01*
X191459Y324394D01*
X191383Y324432D01*
X191309Y324475D01*
X191237Y324520D01*
X191166Y324569D01*
X191098Y324621D01*
X191033Y324675D01*
X190970Y324733D01*
X190909Y324794D01*
X190851Y324857D01*
X190797Y324922D01*
X190745Y324990D01*
X190696Y325061D01*
X190651Y325133D01*
X190608Y325207D01*
X190570Y325283D01*
X190534Y325361D01*
X190502Y325441D01*
X190474Y325521D01*
X190450Y325603D01*
X190429Y325686D01*
X190412Y325770D01*
X190398Y325854D01*
X190389Y325939D01*
X190383Y326025D01*
X190381Y326110D01*
X190762Y329539D02*
X190764Y329616D01*
X190770Y329693D01*
X190780Y329770D01*
X190793Y329846D01*
X190811Y329921D01*
X190832Y329995D01*
X190857Y330068D01*
X190886Y330140D01*
X190918Y330210D01*
X190953Y330279D01*
X190993Y330345D01*
X191035Y330410D01*
X191081Y330472D01*
X191130Y330532D01*
X191181Y330589D01*
X191236Y330644D01*
X191293Y330695D01*
X191353Y330744D01*
X191415Y330790D01*
X191480Y330832D01*
X191546Y330872D01*
X191615Y330907D01*
X191685Y330939D01*
X191757Y330968D01*
X191830Y330993D01*
X191904Y331014D01*
X191979Y331032D01*
X192055Y331045D01*
X192132Y331055D01*
X192209Y331061D01*
X192286Y331063D01*
X192363Y331061D01*
X192440Y331055D01*
X192517Y331045D01*
X192593Y331032D01*
X192668Y331014D01*
X192742Y330993D01*
X192815Y330968D01*
X192887Y330939D01*
X192957Y330907D01*
X193026Y330872D01*
X193092Y330832D01*
X193157Y330790D01*
X193219Y330744D01*
X193279Y330695D01*
X193336Y330644D01*
X193391Y330589D01*
X193442Y330532D01*
X193491Y330472D01*
X193537Y330410D01*
X193579Y330345D01*
X193619Y330279D01*
X193654Y330210D01*
X193686Y330140D01*
X193715Y330068D01*
X193740Y329995D01*
X193761Y329921D01*
X193779Y329846D01*
X193792Y329770D01*
X193802Y329693D01*
X193808Y329616D01*
X193810Y329539D01*
X193808Y329462D01*
X193802Y329385D01*
X193792Y329308D01*
X193779Y329232D01*
X193761Y329157D01*
X193740Y329083D01*
X193715Y329010D01*
X193686Y328938D01*
X193654Y328868D01*
X193619Y328799D01*
X193579Y328733D01*
X193537Y328668D01*
X193491Y328606D01*
X193442Y328546D01*
X193391Y328489D01*
X193336Y328434D01*
X193279Y328383D01*
X193219Y328334D01*
X193157Y328288D01*
X193092Y328246D01*
X193026Y328206D01*
X192957Y328171D01*
X192887Y328139D01*
X192815Y328110D01*
X192742Y328085D01*
X192668Y328064D01*
X192593Y328046D01*
X192517Y328033D01*
X192440Y328023D01*
X192363Y328017D01*
X192286Y328015D01*
X192209Y328017D01*
X192132Y328023D01*
X192055Y328033D01*
X191979Y328046D01*
X191904Y328064D01*
X191830Y328085D01*
X191757Y328110D01*
X191685Y328139D01*
X191615Y328171D01*
X191546Y328206D01*
X191480Y328246D01*
X191415Y328288D01*
X191353Y328334D01*
X191293Y328383D01*
X191236Y328434D01*
X191181Y328489D01*
X191130Y328546D01*
X191081Y328606D01*
X191035Y328668D01*
X190993Y328733D01*
X190953Y328799D01*
X190918Y328868D01*
X190886Y328938D01*
X190857Y329010D01*
X190832Y329083D01*
X190811Y329157D01*
X190793Y329232D01*
X190780Y329308D01*
X190770Y329385D01*
X190764Y329462D01*
X190762Y329539D01*
D17*
X87861Y228801D02*
X82959Y228801D01*
X82959Y219801D02*
X87861Y219801D01*
D10*
X80600Y232068D02*
X80600Y238926D01*
X80600Y232068D02*
X83648Y232068D01*
X86300Y237402D02*
X88205Y238926D01*
X88205Y232068D01*
X86300Y232068D02*
X90110Y232068D01*
D17*
X150319Y210544D02*
X155419Y210544D01*
X155419Y224544D02*
X150319Y224544D01*
D10*
X148026Y207501D02*
X148026Y200643D01*
X151074Y200643D01*
X157537Y205787D02*
X157535Y205869D01*
X157529Y205950D01*
X157520Y206031D01*
X157506Y206112D01*
X157489Y206191D01*
X157468Y206270D01*
X157443Y206348D01*
X157414Y206424D01*
X157382Y206499D01*
X157346Y206573D01*
X157307Y206645D01*
X157265Y206714D01*
X157219Y206782D01*
X157170Y206847D01*
X157118Y206910D01*
X157063Y206970D01*
X157005Y207028D01*
X156945Y207083D01*
X156882Y207135D01*
X156817Y207184D01*
X156749Y207230D01*
X156680Y207272D01*
X156608Y207311D01*
X156534Y207347D01*
X156459Y207379D01*
X156383Y207408D01*
X156305Y207433D01*
X156226Y207454D01*
X156147Y207471D01*
X156066Y207485D01*
X155985Y207494D01*
X155904Y207500D01*
X155822Y207502D01*
X155730Y207500D01*
X155638Y207494D01*
X155546Y207485D01*
X155454Y207471D01*
X155364Y207454D01*
X155274Y207433D01*
X155185Y207408D01*
X155097Y207379D01*
X155010Y207347D01*
X154925Y207311D01*
X154842Y207272D01*
X154760Y207229D01*
X154680Y207183D01*
X154602Y207133D01*
X154526Y207081D01*
X154453Y207025D01*
X154382Y206966D01*
X154313Y206904D01*
X154247Y206839D01*
X154184Y206772D01*
X154124Y206702D01*
X154066Y206630D01*
X154012Y206555D01*
X153961Y206478D01*
X153913Y206399D01*
X153869Y206318D01*
X153828Y206235D01*
X153790Y206151D01*
X153756Y206065D01*
X153726Y205978D01*
X156965Y204453D02*
X157024Y204512D01*
X157080Y204573D01*
X157133Y204636D01*
X157184Y204702D01*
X157231Y204770D01*
X157275Y204840D01*
X157316Y204912D01*
X157354Y204986D01*
X157388Y205061D01*
X157419Y205138D01*
X157446Y205216D01*
X157470Y205296D01*
X157491Y205376D01*
X157507Y205457D01*
X157520Y205539D01*
X157530Y205621D01*
X157535Y205704D01*
X157537Y205787D01*
X156965Y204453D02*
X153726Y200643D01*
X157536Y200643D01*
D18*
X102636Y335284D02*
X102636Y343284D01*
X87636Y343284D02*
X87636Y335284D01*
D10*
X105057Y332975D02*
X108296Y335261D01*
X105057Y337547D01*
X108296Y335261D02*
X111915Y335261D01*
X105057Y342309D02*
X105059Y342391D01*
X105065Y342472D01*
X105074Y342553D01*
X105088Y342634D01*
X105105Y342713D01*
X105126Y342792D01*
X105151Y342870D01*
X105180Y342946D01*
X105212Y343021D01*
X105248Y343095D01*
X105287Y343167D01*
X105329Y343236D01*
X105375Y343304D01*
X105424Y343369D01*
X105476Y343432D01*
X105531Y343492D01*
X105589Y343550D01*
X105649Y343605D01*
X105712Y343657D01*
X105777Y343706D01*
X105845Y343752D01*
X105915Y343794D01*
X105986Y343833D01*
X106060Y343869D01*
X106135Y343901D01*
X106211Y343930D01*
X106289Y343955D01*
X106368Y343976D01*
X106447Y343993D01*
X106528Y344007D01*
X106609Y344016D01*
X106690Y344022D01*
X106772Y344024D01*
X105057Y342309D02*
X105059Y342217D01*
X105065Y342125D01*
X105074Y342033D01*
X105088Y341941D01*
X105105Y341851D01*
X105126Y341761D01*
X105151Y341672D01*
X105180Y341584D01*
X105212Y341497D01*
X105248Y341412D01*
X105287Y341329D01*
X105330Y341247D01*
X105376Y341167D01*
X105426Y341089D01*
X105478Y341013D01*
X105534Y340940D01*
X105593Y340869D01*
X105655Y340800D01*
X105720Y340734D01*
X105787Y340671D01*
X105857Y340611D01*
X105929Y340553D01*
X106004Y340499D01*
X106081Y340448D01*
X106160Y340400D01*
X106241Y340356D01*
X106324Y340315D01*
X106408Y340277D01*
X106494Y340243D01*
X106581Y340213D01*
X108106Y343452D02*
X108047Y343511D01*
X107986Y343567D01*
X107923Y343620D01*
X107857Y343671D01*
X107789Y343718D01*
X107719Y343762D01*
X107647Y343803D01*
X107573Y343841D01*
X107498Y343875D01*
X107421Y343906D01*
X107343Y343933D01*
X107263Y343957D01*
X107183Y343978D01*
X107102Y343994D01*
X107020Y344007D01*
X106938Y344017D01*
X106855Y344022D01*
X106772Y344024D01*
X108105Y343452D02*
X111915Y340214D01*
X111915Y344024D01*
D15*
X197969Y316356D02*
X197907Y316354D01*
X197846Y316348D01*
X197785Y316339D01*
X197725Y316326D01*
X197666Y316309D01*
X197608Y316288D01*
X197551Y316264D01*
X197496Y316237D01*
X197443Y316206D01*
X197391Y316172D01*
X197342Y316135D01*
X197295Y316095D01*
X197251Y316052D01*
X197210Y316007D01*
X197171Y315959D01*
X197135Y315908D01*
X197103Y315856D01*
X197074Y315802D01*
X197048Y315746D01*
X197026Y315688D01*
X197007Y315630D01*
X196992Y315570D01*
X196981Y315509D01*
X196973Y315448D01*
X196969Y315387D01*
X196969Y315325D01*
X196973Y315264D01*
X196981Y315203D01*
X196992Y315142D01*
X197007Y315082D01*
X197026Y315024D01*
X197048Y314966D01*
X197074Y314910D01*
X197103Y314856D01*
X197135Y314804D01*
X197171Y314753D01*
X197210Y314705D01*
X197251Y314660D01*
X197295Y314617D01*
X197342Y314577D01*
X197391Y314540D01*
X197443Y314506D01*
X197496Y314475D01*
X197551Y314448D01*
X197608Y314424D01*
X197666Y314403D01*
X197725Y314386D01*
X197785Y314373D01*
X197846Y314364D01*
X197907Y314358D01*
X197969Y314356D01*
X198031Y314358D01*
X198092Y314364D01*
X198153Y314373D01*
X198213Y314386D01*
X198272Y314403D01*
X198330Y314424D01*
X198387Y314448D01*
X198442Y314475D01*
X198495Y314506D01*
X198547Y314540D01*
X198596Y314577D01*
X198643Y314617D01*
X198687Y314660D01*
X198728Y314705D01*
X198767Y314753D01*
X198803Y314804D01*
X198835Y314856D01*
X198864Y314910D01*
X198890Y314966D01*
X198912Y315024D01*
X198931Y315082D01*
X198946Y315142D01*
X198957Y315203D01*
X198965Y315264D01*
X198969Y315325D01*
X198969Y315387D01*
X198965Y315448D01*
X198957Y315509D01*
X198946Y315570D01*
X198931Y315630D01*
X198912Y315688D01*
X198890Y315746D01*
X198864Y315802D01*
X198835Y315856D01*
X198803Y315908D01*
X198767Y315959D01*
X198728Y316007D01*
X198687Y316052D01*
X198643Y316095D01*
X198596Y316135D01*
X198547Y316172D01*
X198495Y316206D01*
X198442Y316237D01*
X198387Y316264D01*
X198330Y316288D01*
X198272Y316309D01*
X198213Y316326D01*
X198153Y316339D01*
X198092Y316348D01*
X198031Y316354D01*
X197969Y316356D01*
D10*
X216997Y295860D02*
X220235Y298146D01*
X216997Y300432D01*
X220235Y298146D02*
X223855Y298146D01*
X218521Y303099D02*
X216997Y305004D01*
X223855Y305004D01*
X223855Y303099D02*
X223855Y306909D01*
D19*
X160443Y355113D02*
X160394Y362225D01*
X162369Y362238D01*
X162369Y362239D02*
X162458Y362238D01*
X162546Y362232D01*
X162635Y362223D01*
X162722Y362210D01*
X162809Y362192D01*
X162895Y362171D01*
X162980Y362147D01*
X163064Y362118D01*
X163147Y362085D01*
X163228Y362049D01*
X163307Y362010D01*
X163385Y361966D01*
X163460Y361920D01*
X163533Y361870D01*
X163604Y361816D01*
X163673Y361760D01*
X163739Y361701D01*
X163802Y361638D01*
X163862Y361573D01*
X163919Y361506D01*
X163973Y361436D01*
X164024Y361363D01*
X164072Y361288D01*
X164116Y361211D01*
X164157Y361133D01*
X164195Y361052D01*
X164228Y360970D01*
X164258Y360887D01*
X164284Y360802D01*
X164306Y360716D01*
X164325Y360629D01*
X164339Y360542D01*
X164350Y360454D01*
X164356Y360365D01*
X164359Y360277D01*
X164358Y360188D01*
X164352Y360100D01*
X164343Y360011D01*
X164330Y359924D01*
X164312Y359837D01*
X164291Y359751D01*
X164267Y359666D01*
X164238Y359582D01*
X164205Y359499D01*
X164169Y359418D01*
X164130Y359339D01*
X164086Y359261D01*
X164040Y359186D01*
X163990Y359113D01*
X163936Y359042D01*
X163880Y358973D01*
X163821Y358907D01*
X163758Y358844D01*
X163693Y358784D01*
X163626Y358727D01*
X163556Y358673D01*
X163483Y358622D01*
X163408Y358574D01*
X163332Y358530D01*
X163253Y358489D01*
X163172Y358451D01*
X163090Y358418D01*
X163007Y358388D01*
X162922Y358362D01*
X162836Y358340D01*
X162749Y358321D01*
X162662Y358307D01*
X162574Y358296D01*
X162485Y358290D01*
X162397Y358287D01*
X160421Y358274D01*
X162792Y358290D02*
X164394Y355140D01*
X168819Y358332D02*
X171189Y358349D01*
X168819Y358333D02*
X168741Y358334D01*
X168664Y358340D01*
X168587Y358349D01*
X168511Y358361D01*
X168435Y358378D01*
X168360Y358398D01*
X168286Y358422D01*
X168214Y358449D01*
X168142Y358480D01*
X168073Y358514D01*
X168005Y358552D01*
X167939Y358593D01*
X167876Y358637D01*
X167814Y358685D01*
X167755Y358735D01*
X167699Y358788D01*
X167645Y358844D01*
X167594Y358902D01*
X167546Y358963D01*
X167500Y359026D01*
X167458Y359091D01*
X167420Y359158D01*
X167384Y359228D01*
X167353Y359298D01*
X167324Y359370D01*
X167299Y359444D01*
X167278Y359518D01*
X167261Y359594D01*
X167247Y359670D01*
X167237Y359747D01*
X167230Y359824D01*
X167228Y359902D01*
X167227Y359902D02*
X167225Y360297D01*
X167224Y360296D02*
X167225Y360385D01*
X167231Y360473D01*
X167240Y360562D01*
X167253Y360649D01*
X167271Y360736D01*
X167292Y360822D01*
X167317Y360908D01*
X167345Y360991D01*
X167378Y361074D01*
X167414Y361155D01*
X167453Y361234D01*
X167497Y361312D01*
X167543Y361387D01*
X167593Y361460D01*
X167647Y361531D01*
X167703Y361600D01*
X167762Y361666D01*
X167825Y361729D01*
X167890Y361789D01*
X167957Y361846D01*
X168027Y361900D01*
X168100Y361951D01*
X168175Y361999D01*
X168252Y362043D01*
X168330Y362084D01*
X168411Y362122D01*
X168493Y362155D01*
X168576Y362185D01*
X168661Y362211D01*
X168747Y362233D01*
X168834Y362252D01*
X168921Y362266D01*
X169009Y362277D01*
X169098Y362283D01*
X169186Y362286D01*
X169275Y362285D01*
X169363Y362279D01*
X169452Y362270D01*
X169539Y362257D01*
X169626Y362239D01*
X169712Y362218D01*
X169797Y362194D01*
X169881Y362165D01*
X169964Y362132D01*
X170045Y362096D01*
X170124Y362057D01*
X170202Y362013D01*
X170277Y361967D01*
X170350Y361917D01*
X170421Y361863D01*
X170490Y361807D01*
X170556Y361748D01*
X170619Y361685D01*
X170679Y361620D01*
X170736Y361553D01*
X170790Y361483D01*
X170841Y361410D01*
X170889Y361335D01*
X170933Y361259D01*
X170974Y361180D01*
X171012Y361099D01*
X171045Y361017D01*
X171075Y360934D01*
X171101Y360849D01*
X171123Y360763D01*
X171142Y360676D01*
X171156Y360589D01*
X171167Y360501D01*
X171173Y360412D01*
X171176Y360324D01*
X171189Y358349D01*
X171190Y358349D02*
X171189Y358239D01*
X171184Y358129D01*
X171175Y358019D01*
X171162Y357909D01*
X171146Y357800D01*
X171125Y357691D01*
X171101Y357584D01*
X171074Y357477D01*
X171042Y357371D01*
X171007Y357267D01*
X170968Y357163D01*
X170926Y357062D01*
X170880Y356961D01*
X170830Y356863D01*
X170777Y356766D01*
X170721Y356671D01*
X170662Y356578D01*
X170599Y356487D01*
X170533Y356398D01*
X170465Y356312D01*
X170393Y356228D01*
X170318Y356147D01*
X170241Y356069D01*
X170160Y355993D01*
X170078Y355920D01*
X169992Y355850D01*
X169905Y355783D01*
X169815Y355719D01*
X169723Y355658D01*
X169629Y355601D01*
X169532Y355546D01*
X169435Y355496D01*
X169335Y355448D01*
X169234Y355405D01*
X169131Y355364D01*
X169027Y355328D01*
X168922Y355295D01*
X168815Y355265D01*
X168708Y355240D01*
X168600Y355218D01*
X168491Y355200D01*
X168381Y355186D01*
X168272Y355175D01*
X168161Y355169D01*
X168051Y355166D01*
D13*
X223873Y172140D02*
X73873Y172140D01*
X43373Y145140D01*
X223873Y172140D02*
X254373Y145140D01*
X254373Y53140D02*
X204373Y19140D01*
X202139Y20457D01*
X199874Y21719D01*
X197579Y22926D01*
X195256Y24077D01*
X192905Y25171D01*
X190529Y26208D01*
X188128Y27188D01*
X185704Y28109D01*
X183259Y28971D01*
X180793Y29773D01*
X178309Y30516D01*
X175807Y31198D01*
X173290Y31820D01*
X170758Y32380D01*
X168214Y32879D01*
X165658Y33317D01*
X163092Y33692D01*
X160518Y34005D01*
X157938Y34256D01*
X155352Y34444D01*
X152762Y34569D01*
X150169Y34632D01*
X147577Y34632D01*
X144984Y34569D01*
X142394Y34444D01*
X139808Y34256D01*
X137228Y34005D01*
X134654Y33692D01*
X132088Y33317D01*
X129532Y32879D01*
X126988Y32380D01*
X124456Y31820D01*
X121939Y31198D01*
X119437Y30516D01*
X116953Y29773D01*
X114487Y28971D01*
X112042Y28109D01*
X109618Y27188D01*
X107217Y26208D01*
X104841Y25171D01*
X102490Y24077D01*
X100167Y22926D01*
X97872Y21719D01*
X95607Y20457D01*
X93373Y19140D01*
X43373Y53140D01*
X254373Y130640D02*
X254373Y145140D01*
X43373Y145140D02*
X43373Y130640D01*
X43373Y66640D02*
X43373Y53140D01*
X254373Y53140D02*
X254373Y66640D01*
X252839Y205985D02*
X226870Y206212D01*
D12*
X237101Y229717D02*
X238455Y229706D01*
X237100Y229717D02*
X237029Y229720D01*
X236959Y229726D01*
X236888Y229736D01*
X236819Y229749D01*
X236750Y229766D01*
X236682Y229787D01*
X236615Y229811D01*
X236550Y229839D01*
X236486Y229870D01*
X236424Y229904D01*
X236364Y229942D01*
X236306Y229983D01*
X236250Y230026D01*
X236197Y230073D01*
X236146Y230122D01*
X236097Y230174D01*
X236052Y230228D01*
X236009Y230285D01*
X235969Y230344D01*
X235933Y230405D01*
X235899Y230467D01*
X235869Y230532D01*
X235843Y230597D01*
X235820Y230665D01*
X235800Y230733D01*
X235784Y230802D01*
X235772Y230872D01*
X235763Y230942D01*
X235758Y231013D01*
X235757Y231084D01*
X235758Y231084D02*
X235787Y234470D01*
X235787Y234471D02*
X235790Y234544D01*
X235796Y234617D01*
X235807Y234690D01*
X235821Y234762D01*
X235840Y234833D01*
X235862Y234903D01*
X235888Y234971D01*
X235917Y235039D01*
X235950Y235104D01*
X235987Y235168D01*
X236027Y235229D01*
X236070Y235288D01*
X236117Y235345D01*
X236166Y235399D01*
X236219Y235451D01*
X236274Y235499D01*
X236331Y235545D01*
X236391Y235587D01*
X236454Y235626D01*
X236518Y235662D01*
X236584Y235694D01*
X236651Y235722D01*
X236721Y235747D01*
X236791Y235768D01*
X236862Y235785D01*
X236934Y235798D01*
X237007Y235807D01*
X237080Y235813D01*
X237154Y235814D01*
X237154Y235813D02*
X238508Y235801D01*
X241496Y229679D02*
X243189Y229664D01*
X243189Y229665D02*
X243270Y229666D01*
X243350Y229671D01*
X243430Y229680D01*
X243510Y229693D01*
X243589Y229709D01*
X243667Y229729D01*
X243744Y229753D01*
X243819Y229781D01*
X243894Y229812D01*
X243967Y229846D01*
X244038Y229884D01*
X244107Y229926D01*
X244174Y229970D01*
X244239Y230018D01*
X244301Y230069D01*
X244362Y230123D01*
X244419Y230179D01*
X244474Y230238D01*
X244526Y230300D01*
X244574Y230364D01*
X244620Y230430D01*
X244663Y230499D01*
X244702Y230569D01*
X244738Y230641D01*
X244770Y230715D01*
X244799Y230790D01*
X244824Y230867D01*
X244846Y230945D01*
X244864Y231023D01*
X244878Y231102D01*
X244888Y231182D01*
X244894Y231263D01*
X244897Y231343D01*
X244896Y231424D01*
X244891Y231504D01*
X244882Y231584D01*
X244869Y231664D01*
X244853Y231743D01*
X244833Y231821D01*
X244809Y231898D01*
X244781Y231973D01*
X244750Y232048D01*
X244716Y232121D01*
X244678Y232192D01*
X244636Y232261D01*
X244592Y232328D01*
X244544Y232393D01*
X244493Y232455D01*
X244439Y232516D01*
X244383Y232573D01*
X244324Y232628D01*
X244262Y232680D01*
X244198Y232728D01*
X244132Y232774D01*
X244063Y232817D01*
X243993Y232856D01*
X243921Y232892D01*
X243847Y232924D01*
X243772Y232953D01*
X243695Y232978D01*
X243617Y233000D01*
X243539Y233018D01*
X243460Y233032D01*
X243380Y233042D01*
X243299Y233048D01*
X243219Y233051D01*
X243581Y235757D02*
X241549Y235775D01*
X243581Y235757D02*
X243653Y235754D01*
X243725Y235748D01*
X243796Y235738D01*
X243867Y235724D01*
X243937Y235706D01*
X244006Y235685D01*
X244073Y235660D01*
X244140Y235631D01*
X244204Y235599D01*
X244267Y235563D01*
X244328Y235525D01*
X244387Y235483D01*
X244443Y235438D01*
X244497Y235390D01*
X244548Y235339D01*
X244596Y235285D01*
X244642Y235229D01*
X244685Y235171D01*
X244724Y235111D01*
X244760Y235048D01*
X244793Y234984D01*
X244822Y234918D01*
X244848Y234851D01*
X244870Y234782D01*
X244888Y234712D01*
X244903Y234641D01*
X244914Y234570D01*
X244921Y234498D01*
X244924Y234426D01*
X244923Y234354D01*
X244919Y234282D01*
X244910Y234210D01*
X244898Y234139D01*
X244882Y234069D01*
X244863Y234000D01*
X244840Y233931D01*
X244813Y233864D01*
X244782Y233799D01*
X244749Y233735D01*
X244711Y233673D01*
X244671Y233614D01*
X244627Y233556D01*
X244581Y233501D01*
X244532Y233448D01*
X244479Y233398D01*
X244425Y233351D01*
X244368Y233307D01*
X244308Y233266D01*
X244247Y233229D01*
X244183Y233194D01*
X244118Y233163D01*
X244051Y233136D01*
X243983Y233112D01*
X243914Y233092D01*
X243844Y233075D01*
X243773Y233062D01*
X243701Y233053D01*
X243629Y233048D01*
X243557Y233047D01*
X243557Y233048D02*
X242202Y233060D01*
D11*
X165724Y339459D02*
X157724Y339459D01*
X157724Y320679D02*
X165724Y320679D01*
D15*
X149724Y335069D02*
X149726Y335132D01*
X149732Y335194D01*
X149742Y335256D01*
X149755Y335318D01*
X149773Y335378D01*
X149794Y335437D01*
X149819Y335495D01*
X149848Y335551D01*
X149880Y335605D01*
X149915Y335657D01*
X149953Y335706D01*
X149995Y335754D01*
X150039Y335798D01*
X150087Y335840D01*
X150136Y335878D01*
X150188Y335913D01*
X150242Y335945D01*
X150298Y335974D01*
X150356Y335999D01*
X150415Y336020D01*
X150475Y336038D01*
X150537Y336051D01*
X150599Y336061D01*
X150661Y336067D01*
X150724Y336069D01*
X150787Y336067D01*
X150849Y336061D01*
X150911Y336051D01*
X150973Y336038D01*
X151033Y336020D01*
X151092Y335999D01*
X151150Y335974D01*
X151206Y335945D01*
X151260Y335913D01*
X151312Y335878D01*
X151361Y335840D01*
X151409Y335798D01*
X151453Y335754D01*
X151495Y335706D01*
X151533Y335657D01*
X151568Y335605D01*
X151600Y335551D01*
X151629Y335495D01*
X151654Y335437D01*
X151675Y335378D01*
X151693Y335318D01*
X151706Y335256D01*
X151716Y335194D01*
X151722Y335132D01*
X151724Y335069D01*
X151722Y335006D01*
X151716Y334944D01*
X151706Y334882D01*
X151693Y334820D01*
X151675Y334760D01*
X151654Y334701D01*
X151629Y334643D01*
X151600Y334587D01*
X151568Y334533D01*
X151533Y334481D01*
X151495Y334432D01*
X151453Y334384D01*
X151409Y334340D01*
X151361Y334298D01*
X151312Y334260D01*
X151260Y334225D01*
X151206Y334193D01*
X151150Y334164D01*
X151092Y334139D01*
X151033Y334118D01*
X150973Y334100D01*
X150911Y334087D01*
X150849Y334077D01*
X150787Y334071D01*
X150724Y334069D01*
X150661Y334071D01*
X150599Y334077D01*
X150537Y334087D01*
X150475Y334100D01*
X150415Y334118D01*
X150356Y334139D01*
X150298Y334164D01*
X150242Y334193D01*
X150188Y334225D01*
X150136Y334260D01*
X150087Y334298D01*
X150039Y334340D01*
X149995Y334384D01*
X149953Y334432D01*
X149915Y334481D01*
X149880Y334533D01*
X149848Y334587D01*
X149819Y334643D01*
X149794Y334701D01*
X149773Y334760D01*
X149755Y334820D01*
X149742Y334882D01*
X149732Y334944D01*
X149726Y335006D01*
X149724Y335069D01*
D13*
X52859Y184699D02*
X52859Y176571D01*
X46271Y176571D01*
X24411Y176571D02*
X24411Y184699D01*
X24411Y176571D02*
X30999Y176571D01*
D11*
X19288Y169062D02*
X19288Y166240D01*
X19288Y169062D02*
X19290Y169145D01*
X19296Y169227D01*
X19305Y169309D01*
X19319Y169391D01*
X19336Y169472D01*
X19357Y169552D01*
X19382Y169631D01*
X19411Y169708D01*
X19443Y169785D01*
X19478Y169859D01*
X19517Y169932D01*
X19560Y170003D01*
X19606Y170072D01*
X19655Y170139D01*
X19707Y170203D01*
X19762Y170265D01*
X19819Y170324D01*
X19880Y170380D01*
X19943Y170434D01*
X20008Y170484D01*
X20076Y170532D01*
X20146Y170576D01*
X20218Y170616D01*
X20292Y170654D01*
X20367Y170688D01*
X20444Y170718D01*
X20523Y170745D01*
X20602Y170768D01*
X20683Y170787D01*
X20764Y170802D01*
X20846Y170814D01*
X20928Y170822D01*
X21011Y170826D01*
X21093Y170826D01*
X21176Y170822D01*
X21258Y170814D01*
X21340Y170802D01*
X21421Y170787D01*
X21502Y170768D01*
X21581Y170745D01*
X21660Y170718D01*
X21737Y170688D01*
X21812Y170654D01*
X21886Y170616D01*
X21958Y170576D01*
X22028Y170532D01*
X22096Y170484D01*
X22161Y170434D01*
X22224Y170380D01*
X22285Y170324D01*
X22342Y170265D01*
X22397Y170203D01*
X22449Y170139D01*
X22498Y170072D01*
X22544Y170003D01*
X22587Y169932D01*
X22626Y169859D01*
X22661Y169785D01*
X22693Y169708D01*
X22722Y169631D01*
X22747Y169552D01*
X22768Y169472D01*
X22785Y169391D01*
X22799Y169309D01*
X22808Y169227D01*
X22814Y169145D01*
X22816Y169062D01*
X22816Y166240D01*
X22814Y166157D01*
X22808Y166075D01*
X22799Y165993D01*
X22785Y165911D01*
X22768Y165830D01*
X22747Y165750D01*
X22722Y165671D01*
X22693Y165594D01*
X22661Y165517D01*
X22626Y165443D01*
X22587Y165370D01*
X22544Y165299D01*
X22498Y165230D01*
X22449Y165163D01*
X22397Y165099D01*
X22342Y165037D01*
X22285Y164978D01*
X22224Y164922D01*
X22161Y164868D01*
X22096Y164818D01*
X22028Y164770D01*
X21958Y164726D01*
X21886Y164686D01*
X21812Y164648D01*
X21737Y164614D01*
X21660Y164584D01*
X21581Y164557D01*
X21502Y164534D01*
X21421Y164515D01*
X21340Y164500D01*
X21258Y164488D01*
X21176Y164480D01*
X21093Y164476D01*
X21011Y164476D01*
X20928Y164480D01*
X20846Y164488D01*
X20764Y164500D01*
X20683Y164515D01*
X20602Y164534D01*
X20523Y164557D01*
X20444Y164584D01*
X20367Y164614D01*
X20292Y164648D01*
X20218Y164686D01*
X20146Y164726D01*
X20076Y164770D01*
X20008Y164818D01*
X19943Y164868D01*
X19880Y164922D01*
X19819Y164978D01*
X19762Y165037D01*
X19707Y165099D01*
X19655Y165163D01*
X19606Y165230D01*
X19560Y165299D01*
X19517Y165370D01*
X19478Y165443D01*
X19443Y165517D01*
X19411Y165594D01*
X19382Y165671D01*
X19357Y165750D01*
X19336Y165830D01*
X19319Y165911D01*
X19305Y165993D01*
X19296Y166075D01*
X19290Y166157D01*
X19288Y166240D01*
X22111Y165887D02*
X23522Y164476D01*
X25758Y169415D02*
X27522Y170826D01*
X27522Y164476D01*
X25758Y164476D02*
X29286Y164476D01*
D13*
X24157Y227651D02*
X24157Y235779D01*
X30745Y235779D01*
X52605Y235779D02*
X52605Y227651D01*
X52605Y235779D02*
X46017Y235779D01*
D11*
X46730Y242288D02*
X46730Y245110D01*
X46732Y245193D01*
X46738Y245275D01*
X46747Y245357D01*
X46761Y245439D01*
X46778Y245520D01*
X46799Y245600D01*
X46824Y245679D01*
X46853Y245756D01*
X46885Y245833D01*
X46920Y245907D01*
X46959Y245980D01*
X47002Y246051D01*
X47048Y246120D01*
X47097Y246187D01*
X47149Y246251D01*
X47204Y246313D01*
X47261Y246372D01*
X47322Y246428D01*
X47385Y246482D01*
X47450Y246532D01*
X47518Y246580D01*
X47588Y246624D01*
X47660Y246664D01*
X47734Y246702D01*
X47809Y246736D01*
X47886Y246766D01*
X47965Y246793D01*
X48044Y246816D01*
X48125Y246835D01*
X48206Y246850D01*
X48288Y246862D01*
X48370Y246870D01*
X48453Y246874D01*
X48535Y246874D01*
X48618Y246870D01*
X48700Y246862D01*
X48782Y246850D01*
X48863Y246835D01*
X48944Y246816D01*
X49023Y246793D01*
X49102Y246766D01*
X49179Y246736D01*
X49254Y246702D01*
X49328Y246664D01*
X49400Y246624D01*
X49470Y246580D01*
X49538Y246532D01*
X49603Y246482D01*
X49666Y246428D01*
X49727Y246372D01*
X49784Y246313D01*
X49839Y246251D01*
X49891Y246187D01*
X49940Y246120D01*
X49986Y246051D01*
X50029Y245980D01*
X50068Y245907D01*
X50103Y245833D01*
X50135Y245756D01*
X50164Y245679D01*
X50189Y245600D01*
X50210Y245520D01*
X50227Y245439D01*
X50241Y245357D01*
X50250Y245275D01*
X50256Y245193D01*
X50258Y245110D01*
X50258Y242288D01*
X50256Y242205D01*
X50250Y242123D01*
X50241Y242041D01*
X50227Y241959D01*
X50210Y241878D01*
X50189Y241798D01*
X50164Y241719D01*
X50135Y241642D01*
X50103Y241565D01*
X50068Y241491D01*
X50029Y241418D01*
X49986Y241347D01*
X49940Y241278D01*
X49891Y241211D01*
X49839Y241147D01*
X49784Y241085D01*
X49727Y241026D01*
X49666Y240970D01*
X49603Y240916D01*
X49538Y240866D01*
X49470Y240818D01*
X49400Y240774D01*
X49328Y240734D01*
X49254Y240696D01*
X49179Y240662D01*
X49102Y240632D01*
X49023Y240605D01*
X48944Y240582D01*
X48863Y240563D01*
X48782Y240548D01*
X48700Y240536D01*
X48618Y240528D01*
X48535Y240524D01*
X48453Y240524D01*
X48370Y240528D01*
X48288Y240536D01*
X48206Y240548D01*
X48125Y240563D01*
X48044Y240582D01*
X47965Y240605D01*
X47886Y240632D01*
X47809Y240662D01*
X47734Y240696D01*
X47660Y240734D01*
X47588Y240774D01*
X47518Y240818D01*
X47450Y240866D01*
X47385Y240916D01*
X47322Y240970D01*
X47261Y241026D01*
X47204Y241085D01*
X47149Y241147D01*
X47097Y241211D01*
X47048Y241278D01*
X47002Y241347D01*
X46959Y241418D01*
X46920Y241491D01*
X46885Y241565D01*
X46853Y241642D01*
X46824Y241719D01*
X46799Y241798D01*
X46778Y241878D01*
X46761Y241959D01*
X46747Y242041D01*
X46738Y242123D01*
X46732Y242205D01*
X46730Y242288D01*
X49553Y241935D02*
X50964Y240524D01*
X56728Y245287D02*
X56726Y245365D01*
X56720Y245443D01*
X56711Y245520D01*
X56697Y245597D01*
X56680Y245673D01*
X56660Y245748D01*
X56635Y245822D01*
X56607Y245895D01*
X56576Y245966D01*
X56540Y246036D01*
X56502Y246103D01*
X56460Y246169D01*
X56415Y246233D01*
X56368Y246294D01*
X56317Y246353D01*
X56263Y246410D01*
X56206Y246464D01*
X56147Y246515D01*
X56086Y246562D01*
X56022Y246607D01*
X55956Y246649D01*
X55889Y246687D01*
X55819Y246723D01*
X55748Y246754D01*
X55675Y246782D01*
X55601Y246807D01*
X55526Y246827D01*
X55450Y246844D01*
X55373Y246858D01*
X55296Y246867D01*
X55218Y246873D01*
X55140Y246875D01*
X55140Y246874D02*
X55052Y246872D01*
X54963Y246866D01*
X54875Y246857D01*
X54788Y246843D01*
X54701Y246826D01*
X54615Y246805D01*
X54530Y246781D01*
X54447Y246753D01*
X54364Y246721D01*
X54283Y246685D01*
X54204Y246646D01*
X54126Y246604D01*
X54050Y246558D01*
X53977Y246510D01*
X53905Y246458D01*
X53836Y246403D01*
X53769Y246345D01*
X53705Y246284D01*
X53644Y246220D01*
X53585Y246154D01*
X53529Y246085D01*
X53477Y246014D01*
X53427Y245941D01*
X53381Y245866D01*
X53338Y245789D01*
X53298Y245710D01*
X53262Y245629D01*
X53229Y245547D01*
X53200Y245463D01*
X56198Y244052D02*
X56255Y244110D01*
X56310Y244170D01*
X56362Y244232D01*
X56410Y244297D01*
X56456Y244365D01*
X56498Y244434D01*
X56537Y244505D01*
X56573Y244578D01*
X56605Y244653D01*
X56633Y244729D01*
X56658Y244806D01*
X56679Y244885D01*
X56696Y244964D01*
X56710Y245044D01*
X56719Y245125D01*
X56725Y245206D01*
X56727Y245287D01*
X56198Y244052D02*
X53200Y240524D01*
X56728Y240524D01*
D12*
X42536Y294762D02*
X42536Y300858D01*
X44230Y300858D01*
X44311Y300856D01*
X44391Y300850D01*
X44471Y300841D01*
X44550Y300827D01*
X44629Y300810D01*
X44707Y300789D01*
X44784Y300765D01*
X44859Y300737D01*
X44933Y300705D01*
X45006Y300670D01*
X45076Y300631D01*
X45145Y300589D01*
X45212Y300544D01*
X45277Y300496D01*
X45339Y300444D01*
X45398Y300390D01*
X45455Y300333D01*
X45509Y300274D01*
X45561Y300212D01*
X45609Y300147D01*
X45654Y300080D01*
X45696Y300012D01*
X45735Y299941D01*
X45770Y299868D01*
X45802Y299794D01*
X45830Y299719D01*
X45854Y299642D01*
X45875Y299564D01*
X45892Y299485D01*
X45906Y299406D01*
X45915Y299326D01*
X45921Y299246D01*
X45923Y299165D01*
X45921Y299084D01*
X45915Y299004D01*
X45906Y298924D01*
X45892Y298845D01*
X45875Y298766D01*
X45854Y298688D01*
X45830Y298611D01*
X45802Y298536D01*
X45770Y298462D01*
X45735Y298389D01*
X45696Y298319D01*
X45654Y298250D01*
X45609Y298183D01*
X45561Y298118D01*
X45509Y298056D01*
X45455Y297997D01*
X45398Y297940D01*
X45339Y297886D01*
X45277Y297834D01*
X45212Y297786D01*
X45145Y297741D01*
X45077Y297699D01*
X45006Y297660D01*
X44933Y297625D01*
X44859Y297593D01*
X44784Y297565D01*
X44707Y297541D01*
X44629Y297520D01*
X44550Y297503D01*
X44471Y297489D01*
X44391Y297480D01*
X44311Y297474D01*
X44230Y297472D01*
X44230Y297471D02*
X42536Y297471D01*
X44568Y297471D02*
X45923Y294762D01*
X51180Y300858D02*
X51257Y300856D01*
X51334Y300850D01*
X51411Y300840D01*
X51487Y300827D01*
X51562Y300809D01*
X51636Y300788D01*
X51709Y300763D01*
X51781Y300734D01*
X51851Y300702D01*
X51920Y300667D01*
X51986Y300627D01*
X52051Y300585D01*
X52113Y300539D01*
X52173Y300490D01*
X52230Y300439D01*
X52285Y300384D01*
X52336Y300327D01*
X52385Y300267D01*
X52431Y300205D01*
X52473Y300140D01*
X52513Y300074D01*
X52548Y300005D01*
X52580Y299935D01*
X52609Y299863D01*
X52634Y299790D01*
X52655Y299716D01*
X52673Y299641D01*
X52686Y299565D01*
X52696Y299488D01*
X52702Y299411D01*
X52704Y299334D01*
X51180Y300858D02*
X51095Y300856D01*
X51010Y300851D01*
X50926Y300841D01*
X50842Y300829D01*
X50759Y300812D01*
X50676Y300792D01*
X50595Y300768D01*
X50514Y300741D01*
X50435Y300711D01*
X50357Y300677D01*
X50281Y300639D01*
X50206Y300599D01*
X50134Y300555D01*
X50063Y300508D01*
X49994Y300458D01*
X49928Y300405D01*
X49864Y300350D01*
X49802Y300291D01*
X49743Y300230D01*
X49687Y300167D01*
X49633Y300101D01*
X49583Y300032D01*
X49535Y299962D01*
X49491Y299890D01*
X49449Y299816D01*
X49411Y299740D01*
X49377Y299662D01*
X49345Y299583D01*
X49317Y299503D01*
X52196Y298149D02*
X52251Y298204D01*
X52304Y298261D01*
X52353Y298321D01*
X52400Y298384D01*
X52444Y298448D01*
X52484Y298515D01*
X52522Y298583D01*
X52556Y298654D01*
X52587Y298725D01*
X52614Y298798D01*
X52638Y298872D01*
X52658Y298948D01*
X52674Y299024D01*
X52687Y299101D01*
X52697Y299178D01*
X52702Y299256D01*
X52704Y299334D01*
X52196Y298149D02*
X49317Y294762D01*
X52704Y294762D01*
X241433Y296239D02*
X241433Y302335D01*
X243126Y302335D01*
X243207Y302333D01*
X243287Y302327D01*
X243367Y302318D01*
X243446Y302304D01*
X243525Y302287D01*
X243603Y302266D01*
X243680Y302242D01*
X243755Y302214D01*
X243829Y302182D01*
X243902Y302147D01*
X243972Y302108D01*
X244041Y302066D01*
X244108Y302021D01*
X244173Y301973D01*
X244235Y301921D01*
X244294Y301867D01*
X244351Y301810D01*
X244405Y301751D01*
X244457Y301689D01*
X244505Y301624D01*
X244550Y301557D01*
X244592Y301489D01*
X244631Y301418D01*
X244666Y301345D01*
X244698Y301271D01*
X244726Y301196D01*
X244750Y301119D01*
X244771Y301041D01*
X244788Y300962D01*
X244802Y300883D01*
X244811Y300803D01*
X244817Y300723D01*
X244819Y300642D01*
X244817Y300561D01*
X244811Y300481D01*
X244802Y300401D01*
X244788Y300322D01*
X244771Y300243D01*
X244750Y300165D01*
X244726Y300088D01*
X244698Y300013D01*
X244666Y299939D01*
X244631Y299866D01*
X244592Y299796D01*
X244550Y299727D01*
X244505Y299660D01*
X244457Y299595D01*
X244405Y299533D01*
X244351Y299474D01*
X244294Y299417D01*
X244235Y299363D01*
X244173Y299311D01*
X244108Y299263D01*
X244041Y299218D01*
X243973Y299176D01*
X243902Y299137D01*
X243829Y299102D01*
X243755Y299070D01*
X243680Y299042D01*
X243603Y299018D01*
X243525Y298997D01*
X243446Y298980D01*
X243367Y298966D01*
X243287Y298957D01*
X243207Y298951D01*
X243126Y298949D01*
X243126Y298948D02*
X241433Y298948D01*
X243465Y298948D02*
X244819Y296239D01*
X248213Y296239D02*
X249907Y296239D01*
X249988Y296241D01*
X250068Y296247D01*
X250148Y296256D01*
X250227Y296270D01*
X250306Y296287D01*
X250384Y296308D01*
X250461Y296332D01*
X250536Y296360D01*
X250610Y296392D01*
X250683Y296427D01*
X250754Y296466D01*
X250822Y296508D01*
X250889Y296553D01*
X250954Y296601D01*
X251016Y296653D01*
X251075Y296707D01*
X251132Y296764D01*
X251186Y296823D01*
X251238Y296885D01*
X251286Y296950D01*
X251331Y297017D01*
X251373Y297086D01*
X251412Y297156D01*
X251447Y297229D01*
X251479Y297303D01*
X251507Y297378D01*
X251531Y297455D01*
X251552Y297533D01*
X251569Y297612D01*
X251583Y297691D01*
X251592Y297771D01*
X251598Y297851D01*
X251600Y297932D01*
X251598Y298013D01*
X251592Y298093D01*
X251583Y298173D01*
X251569Y298252D01*
X251552Y298331D01*
X251531Y298409D01*
X251507Y298486D01*
X251479Y298561D01*
X251447Y298635D01*
X251412Y298708D01*
X251373Y298779D01*
X251331Y298847D01*
X251286Y298914D01*
X251238Y298979D01*
X251186Y299041D01*
X251132Y299100D01*
X251075Y299157D01*
X251016Y299211D01*
X250954Y299263D01*
X250889Y299311D01*
X250822Y299356D01*
X250753Y299398D01*
X250683Y299437D01*
X250610Y299472D01*
X250536Y299504D01*
X250461Y299532D01*
X250384Y299556D01*
X250306Y299577D01*
X250227Y299594D01*
X250148Y299608D01*
X250068Y299617D01*
X249988Y299623D01*
X249907Y299625D01*
X250245Y302335D02*
X248213Y302335D01*
X250245Y302335D02*
X250317Y302333D01*
X250389Y302327D01*
X250461Y302318D01*
X250531Y302304D01*
X250602Y302287D01*
X250671Y302266D01*
X250738Y302242D01*
X250805Y302214D01*
X250870Y302182D01*
X250933Y302147D01*
X250994Y302109D01*
X251053Y302068D01*
X251110Y302023D01*
X251164Y301976D01*
X251216Y301925D01*
X251265Y301872D01*
X251311Y301817D01*
X251354Y301759D01*
X251394Y301699D01*
X251430Y301637D01*
X251464Y301573D01*
X251493Y301507D01*
X251520Y301440D01*
X251542Y301371D01*
X251561Y301302D01*
X251577Y301231D01*
X251588Y301160D01*
X251596Y301088D01*
X251600Y301016D01*
X251600Y300944D01*
X251596Y300872D01*
X251588Y300800D01*
X251577Y300729D01*
X251561Y300658D01*
X251542Y300589D01*
X251520Y300520D01*
X251493Y300453D01*
X251464Y300387D01*
X251430Y300323D01*
X251394Y300261D01*
X251354Y300201D01*
X251311Y300143D01*
X251265Y300088D01*
X251216Y300035D01*
X251164Y299984D01*
X251110Y299937D01*
X251053Y299892D01*
X250994Y299851D01*
X250933Y299813D01*
X250870Y299778D01*
X250805Y299746D01*
X250738Y299718D01*
X250671Y299694D01*
X250602Y299673D01*
X250531Y299656D01*
X250461Y299642D01*
X250389Y299633D01*
X250317Y299627D01*
X250245Y299625D01*
X250245Y299626D02*
X248891Y299626D01*
X270296Y196858D02*
X270296Y190762D01*
X270296Y196858D02*
X271990Y196858D01*
X272071Y196856D01*
X272151Y196850D01*
X272231Y196841D01*
X272310Y196827D01*
X272389Y196810D01*
X272467Y196789D01*
X272544Y196765D01*
X272619Y196737D01*
X272693Y196705D01*
X272766Y196670D01*
X272837Y196631D01*
X272905Y196589D01*
X272972Y196544D01*
X273037Y196496D01*
X273099Y196444D01*
X273158Y196390D01*
X273215Y196333D01*
X273269Y196274D01*
X273321Y196212D01*
X273369Y196147D01*
X273414Y196080D01*
X273456Y196012D01*
X273495Y195941D01*
X273530Y195868D01*
X273562Y195794D01*
X273590Y195719D01*
X273614Y195642D01*
X273635Y195564D01*
X273652Y195485D01*
X273666Y195406D01*
X273675Y195326D01*
X273681Y195246D01*
X273683Y195165D01*
X273681Y195084D01*
X273675Y195004D01*
X273666Y194924D01*
X273652Y194845D01*
X273635Y194766D01*
X273614Y194688D01*
X273590Y194611D01*
X273562Y194536D01*
X273530Y194462D01*
X273495Y194389D01*
X273456Y194319D01*
X273414Y194250D01*
X273369Y194183D01*
X273321Y194118D01*
X273269Y194056D01*
X273215Y193997D01*
X273158Y193940D01*
X273099Y193886D01*
X273037Y193834D01*
X272972Y193786D01*
X272905Y193741D01*
X272837Y193699D01*
X272766Y193660D01*
X272693Y193625D01*
X272619Y193593D01*
X272544Y193565D01*
X272467Y193541D01*
X272389Y193520D01*
X272310Y193503D01*
X272231Y193489D01*
X272151Y193480D01*
X272071Y193474D01*
X271990Y193472D01*
X271990Y193471D02*
X270296Y193471D01*
X272328Y193471D02*
X273683Y190762D01*
X277077Y192117D02*
X278432Y196858D01*
X277077Y192117D02*
X280464Y192117D01*
X279448Y193471D02*
X279448Y190762D01*
X253296Y190762D02*
X253296Y196858D01*
X254990Y196858D01*
X255071Y196856D01*
X255151Y196850D01*
X255231Y196841D01*
X255310Y196827D01*
X255389Y196810D01*
X255467Y196789D01*
X255544Y196765D01*
X255619Y196737D01*
X255693Y196705D01*
X255766Y196670D01*
X255836Y196631D01*
X255905Y196589D01*
X255972Y196544D01*
X256037Y196496D01*
X256099Y196444D01*
X256158Y196390D01*
X256215Y196333D01*
X256269Y196274D01*
X256321Y196212D01*
X256369Y196147D01*
X256414Y196080D01*
X256456Y196012D01*
X256495Y195941D01*
X256530Y195868D01*
X256562Y195794D01*
X256590Y195719D01*
X256614Y195642D01*
X256635Y195564D01*
X256652Y195485D01*
X256666Y195406D01*
X256675Y195326D01*
X256681Y195246D01*
X256683Y195165D01*
X256681Y195084D01*
X256675Y195004D01*
X256666Y194924D01*
X256652Y194845D01*
X256635Y194766D01*
X256614Y194688D01*
X256590Y194611D01*
X256562Y194536D01*
X256530Y194462D01*
X256495Y194389D01*
X256456Y194319D01*
X256414Y194250D01*
X256369Y194183D01*
X256321Y194118D01*
X256269Y194056D01*
X256215Y193997D01*
X256158Y193940D01*
X256099Y193886D01*
X256037Y193834D01*
X255972Y193786D01*
X255905Y193741D01*
X255837Y193699D01*
X255766Y193660D01*
X255693Y193625D01*
X255619Y193593D01*
X255544Y193565D01*
X255467Y193541D01*
X255389Y193520D01*
X255310Y193503D01*
X255231Y193489D01*
X255151Y193480D01*
X255071Y193474D01*
X254990Y193472D01*
X254990Y193471D02*
X253296Y193471D01*
X255328Y193471D02*
X256683Y190762D01*
X260077Y190762D02*
X262109Y190762D01*
X262180Y190764D01*
X262251Y190769D01*
X262321Y190779D01*
X262391Y190792D01*
X262460Y190808D01*
X262528Y190828D01*
X262595Y190852D01*
X262660Y190879D01*
X262724Y190910D01*
X262787Y190944D01*
X262847Y190981D01*
X262905Y191021D01*
X262962Y191064D01*
X263016Y191110D01*
X263067Y191159D01*
X263116Y191210D01*
X263162Y191264D01*
X263205Y191321D01*
X263245Y191379D01*
X263282Y191440D01*
X263316Y191502D01*
X263347Y191566D01*
X263374Y191631D01*
X263398Y191698D01*
X263418Y191766D01*
X263434Y191835D01*
X263447Y191905D01*
X263457Y191975D01*
X263462Y192046D01*
X263464Y192117D01*
X263464Y192794D01*
X263462Y192865D01*
X263457Y192936D01*
X263447Y193006D01*
X263434Y193076D01*
X263418Y193145D01*
X263398Y193213D01*
X263374Y193280D01*
X263347Y193345D01*
X263316Y193409D01*
X263282Y193472D01*
X263245Y193532D01*
X263205Y193590D01*
X263162Y193647D01*
X263116Y193701D01*
X263067Y193752D01*
X263016Y193801D01*
X262962Y193847D01*
X262905Y193890D01*
X262847Y193930D01*
X262787Y193967D01*
X262724Y194001D01*
X262660Y194032D01*
X262595Y194059D01*
X262528Y194083D01*
X262460Y194103D01*
X262391Y194119D01*
X262321Y194132D01*
X262251Y194142D01*
X262180Y194147D01*
X262109Y194149D01*
X260077Y194149D01*
X260077Y196858D01*
X263464Y196858D01*
M02*
