G04 EAGLE Gerber RS-274X export*
G75*
%MOMM*%
%FSLAX34Y34*%
%LPD*%
%INSilkscreen Top*%
%IPPOS*%
%AMOC8*
5,1,8,0,0,1.08239X$1,22.5*%
G01*
%ADD10C,0.076200*%
%ADD11C,0.127000*%
%ADD12C,0.152400*%
%ADD13C,0.203200*%
%ADD14C,0.101600*%
%ADD15C,0.200000*%
%ADD16C,0.250000*%
%ADD17C,0.120000*%
%ADD18C,0.100000*%
%ADD19C,0.050800*%


D10*
X122987Y50509D02*
X122987Y44780D01*
X122985Y44702D01*
X122980Y44624D01*
X122970Y44547D01*
X122957Y44470D01*
X122941Y44394D01*
X122921Y44319D01*
X122897Y44245D01*
X122870Y44172D01*
X122839Y44100D01*
X122805Y44030D01*
X122768Y43962D01*
X122727Y43895D01*
X122683Y43830D01*
X122637Y43768D01*
X122587Y43708D01*
X122535Y43650D01*
X122480Y43595D01*
X122422Y43543D01*
X122362Y43493D01*
X122300Y43447D01*
X122235Y43403D01*
X122169Y43362D01*
X122100Y43325D01*
X122030Y43291D01*
X121958Y43260D01*
X121885Y43233D01*
X121811Y43209D01*
X121736Y43189D01*
X121660Y43173D01*
X121583Y43160D01*
X121506Y43150D01*
X121428Y43145D01*
X121350Y43143D01*
X120532Y43143D01*
X126681Y43143D02*
X126681Y50509D01*
X126681Y43143D02*
X129955Y43143D01*
X134375Y43143D02*
X136012Y43143D01*
X134375Y43143D02*
X134297Y43145D01*
X134219Y43150D01*
X134142Y43160D01*
X134065Y43173D01*
X133989Y43189D01*
X133914Y43209D01*
X133840Y43233D01*
X133767Y43260D01*
X133695Y43291D01*
X133625Y43325D01*
X133557Y43362D01*
X133490Y43403D01*
X133425Y43447D01*
X133363Y43493D01*
X133303Y43543D01*
X133245Y43595D01*
X133190Y43650D01*
X133138Y43708D01*
X133088Y43768D01*
X133042Y43830D01*
X132998Y43895D01*
X132957Y43962D01*
X132920Y44030D01*
X132886Y44100D01*
X132855Y44172D01*
X132828Y44245D01*
X132804Y44319D01*
X132784Y44394D01*
X132768Y44470D01*
X132755Y44547D01*
X132745Y44624D01*
X132740Y44702D01*
X132738Y44780D01*
X132738Y48872D01*
X132740Y48952D01*
X132746Y49032D01*
X132756Y49112D01*
X132769Y49191D01*
X132787Y49270D01*
X132808Y49347D01*
X132834Y49423D01*
X132863Y49498D01*
X132895Y49572D01*
X132931Y49644D01*
X132971Y49714D01*
X133014Y49781D01*
X133060Y49847D01*
X133110Y49910D01*
X133162Y49971D01*
X133217Y50030D01*
X133276Y50085D01*
X133336Y50137D01*
X133400Y50187D01*
X133466Y50233D01*
X133533Y50276D01*
X133603Y50316D01*
X133675Y50352D01*
X133749Y50384D01*
X133823Y50413D01*
X133900Y50439D01*
X133977Y50460D01*
X134056Y50478D01*
X134135Y50491D01*
X134215Y50501D01*
X134295Y50507D01*
X134375Y50509D01*
X136012Y50509D01*
X140543Y50509D02*
X140543Y44780D01*
X140544Y44780D02*
X140542Y44702D01*
X140537Y44624D01*
X140527Y44547D01*
X140514Y44470D01*
X140498Y44394D01*
X140478Y44319D01*
X140454Y44245D01*
X140427Y44172D01*
X140396Y44100D01*
X140362Y44030D01*
X140325Y43962D01*
X140284Y43895D01*
X140240Y43830D01*
X140194Y43768D01*
X140144Y43708D01*
X140092Y43650D01*
X140037Y43595D01*
X139979Y43543D01*
X139919Y43493D01*
X139857Y43447D01*
X139792Y43403D01*
X139726Y43362D01*
X139657Y43325D01*
X139587Y43291D01*
X139515Y43260D01*
X139442Y43233D01*
X139368Y43209D01*
X139293Y43189D01*
X139217Y43173D01*
X139140Y43160D01*
X139063Y43150D01*
X138985Y43145D01*
X138907Y43143D01*
X138088Y43143D01*
X144237Y43143D02*
X144237Y50509D01*
X144237Y43143D02*
X147511Y43143D01*
X151932Y43143D02*
X153568Y43143D01*
X151932Y43143D02*
X151854Y43145D01*
X151776Y43150D01*
X151699Y43160D01*
X151622Y43173D01*
X151546Y43189D01*
X151471Y43209D01*
X151397Y43233D01*
X151324Y43260D01*
X151252Y43291D01*
X151182Y43325D01*
X151114Y43362D01*
X151047Y43403D01*
X150982Y43447D01*
X150920Y43493D01*
X150860Y43543D01*
X150802Y43595D01*
X150747Y43650D01*
X150695Y43708D01*
X150645Y43768D01*
X150599Y43830D01*
X150555Y43895D01*
X150514Y43962D01*
X150477Y44030D01*
X150443Y44100D01*
X150412Y44172D01*
X150385Y44245D01*
X150361Y44319D01*
X150341Y44394D01*
X150325Y44470D01*
X150312Y44547D01*
X150302Y44624D01*
X150297Y44702D01*
X150295Y44780D01*
X150295Y48872D01*
X150297Y48952D01*
X150303Y49032D01*
X150313Y49112D01*
X150326Y49191D01*
X150344Y49270D01*
X150365Y49347D01*
X150391Y49423D01*
X150420Y49498D01*
X150452Y49572D01*
X150488Y49644D01*
X150528Y49714D01*
X150571Y49781D01*
X150617Y49847D01*
X150667Y49910D01*
X150719Y49971D01*
X150774Y50030D01*
X150833Y50085D01*
X150893Y50137D01*
X150957Y50187D01*
X151023Y50233D01*
X151090Y50276D01*
X151160Y50316D01*
X151232Y50352D01*
X151306Y50384D01*
X151380Y50413D01*
X151457Y50439D01*
X151534Y50460D01*
X151613Y50478D01*
X151692Y50491D01*
X151772Y50501D01*
X151852Y50507D01*
X151932Y50509D01*
X153568Y50509D01*
X158100Y50509D02*
X158100Y44780D01*
X158098Y44702D01*
X158093Y44624D01*
X158083Y44547D01*
X158070Y44470D01*
X158054Y44394D01*
X158034Y44319D01*
X158010Y44245D01*
X157983Y44172D01*
X157952Y44100D01*
X157918Y44030D01*
X157881Y43962D01*
X157840Y43895D01*
X157796Y43830D01*
X157750Y43768D01*
X157700Y43708D01*
X157648Y43650D01*
X157593Y43595D01*
X157535Y43543D01*
X157475Y43493D01*
X157413Y43447D01*
X157348Y43403D01*
X157282Y43362D01*
X157213Y43325D01*
X157143Y43291D01*
X157071Y43260D01*
X156998Y43233D01*
X156924Y43209D01*
X156849Y43189D01*
X156773Y43173D01*
X156696Y43160D01*
X156619Y43150D01*
X156541Y43145D01*
X156463Y43143D01*
X155645Y43143D01*
X161794Y43143D02*
X161794Y50509D01*
X161794Y43143D02*
X165068Y43143D01*
X169488Y43143D02*
X171125Y43143D01*
X169488Y43143D02*
X169410Y43145D01*
X169332Y43150D01*
X169255Y43160D01*
X169178Y43173D01*
X169102Y43189D01*
X169027Y43209D01*
X168953Y43233D01*
X168880Y43260D01*
X168808Y43291D01*
X168738Y43325D01*
X168670Y43362D01*
X168603Y43403D01*
X168538Y43447D01*
X168476Y43493D01*
X168416Y43543D01*
X168358Y43595D01*
X168303Y43650D01*
X168251Y43708D01*
X168201Y43768D01*
X168155Y43830D01*
X168111Y43895D01*
X168070Y43962D01*
X168033Y44030D01*
X167999Y44100D01*
X167968Y44172D01*
X167941Y44245D01*
X167917Y44319D01*
X167897Y44394D01*
X167881Y44470D01*
X167868Y44547D01*
X167858Y44624D01*
X167853Y44702D01*
X167851Y44780D01*
X167851Y48872D01*
X167853Y48952D01*
X167859Y49032D01*
X167869Y49112D01*
X167882Y49191D01*
X167900Y49270D01*
X167921Y49347D01*
X167947Y49423D01*
X167976Y49498D01*
X168008Y49572D01*
X168044Y49644D01*
X168084Y49714D01*
X168127Y49781D01*
X168173Y49847D01*
X168223Y49910D01*
X168275Y49971D01*
X168330Y50030D01*
X168389Y50085D01*
X168449Y50137D01*
X168513Y50187D01*
X168579Y50233D01*
X168646Y50276D01*
X168716Y50316D01*
X168788Y50352D01*
X168862Y50384D01*
X168936Y50413D01*
X169013Y50439D01*
X169090Y50460D01*
X169169Y50478D01*
X169248Y50491D01*
X169328Y50501D01*
X169408Y50507D01*
X169488Y50509D01*
X171125Y50509D01*
X175656Y50509D02*
X175656Y44780D01*
X175654Y44702D01*
X175649Y44624D01*
X175639Y44547D01*
X175626Y44470D01*
X175610Y44394D01*
X175590Y44319D01*
X175566Y44245D01*
X175539Y44172D01*
X175508Y44100D01*
X175474Y44030D01*
X175437Y43962D01*
X175396Y43895D01*
X175352Y43830D01*
X175306Y43768D01*
X175256Y43708D01*
X175204Y43650D01*
X175149Y43595D01*
X175091Y43543D01*
X175031Y43493D01*
X174969Y43447D01*
X174904Y43403D01*
X174838Y43362D01*
X174769Y43325D01*
X174699Y43291D01*
X174627Y43260D01*
X174554Y43233D01*
X174480Y43209D01*
X174405Y43189D01*
X174329Y43173D01*
X174252Y43160D01*
X174175Y43150D01*
X174097Y43145D01*
X174019Y43143D01*
X173201Y43143D01*
X179350Y43143D02*
X179350Y50509D01*
X179350Y43143D02*
X182624Y43143D01*
X187044Y43143D02*
X188681Y43143D01*
X187044Y43143D02*
X186966Y43145D01*
X186888Y43150D01*
X186811Y43160D01*
X186734Y43173D01*
X186658Y43189D01*
X186583Y43209D01*
X186509Y43233D01*
X186436Y43260D01*
X186364Y43291D01*
X186294Y43325D01*
X186226Y43362D01*
X186159Y43403D01*
X186094Y43447D01*
X186032Y43493D01*
X185972Y43543D01*
X185914Y43595D01*
X185859Y43650D01*
X185807Y43708D01*
X185757Y43768D01*
X185711Y43830D01*
X185667Y43895D01*
X185626Y43962D01*
X185589Y44030D01*
X185555Y44100D01*
X185524Y44172D01*
X185497Y44245D01*
X185473Y44319D01*
X185453Y44394D01*
X185437Y44470D01*
X185424Y44547D01*
X185414Y44624D01*
X185409Y44702D01*
X185407Y44780D01*
X185407Y48872D01*
X185409Y48952D01*
X185415Y49032D01*
X185425Y49112D01*
X185438Y49191D01*
X185456Y49270D01*
X185477Y49347D01*
X185503Y49423D01*
X185532Y49498D01*
X185564Y49572D01*
X185600Y49644D01*
X185640Y49714D01*
X185683Y49781D01*
X185729Y49847D01*
X185779Y49910D01*
X185831Y49971D01*
X185886Y50030D01*
X185945Y50085D01*
X186005Y50137D01*
X186069Y50187D01*
X186135Y50233D01*
X186202Y50276D01*
X186272Y50316D01*
X186344Y50352D01*
X186418Y50384D01*
X186492Y50413D01*
X186569Y50439D01*
X186646Y50460D01*
X186725Y50478D01*
X186804Y50491D01*
X186884Y50501D01*
X186964Y50507D01*
X187044Y50509D01*
X188681Y50509D01*
D11*
X209646Y376808D02*
X212609Y376787D01*
X210655Y379764D02*
X210603Y372356D01*
X210602Y372356D02*
X210603Y372281D01*
X210609Y372206D01*
X210618Y372132D01*
X210630Y372058D01*
X210647Y371985D01*
X210667Y371912D01*
X210691Y371841D01*
X210718Y371771D01*
X210749Y371703D01*
X210783Y371636D01*
X210821Y371571D01*
X210862Y371508D01*
X210906Y371447D01*
X210953Y371389D01*
X211003Y371332D01*
X211055Y371279D01*
X211111Y371228D01*
X211169Y371180D01*
X211229Y371136D01*
X211291Y371094D01*
X211356Y371055D01*
X211422Y371020D01*
X211490Y370988D01*
X211560Y370960D01*
X211631Y370935D01*
X211703Y370914D01*
X211776Y370896D01*
X211849Y370883D01*
X211924Y370873D01*
X211999Y370866D01*
X212074Y370864D01*
X212568Y370861D01*
X215811Y370838D02*
X215814Y371332D01*
X216308Y371328D01*
X216305Y370835D01*
X215811Y370838D01*
X220409Y370806D02*
X220451Y376732D01*
X224896Y376701D01*
X224895Y376702D02*
X224970Y376700D01*
X225045Y376693D01*
X225120Y376683D01*
X225193Y376670D01*
X225266Y376652D01*
X225339Y376631D01*
X225409Y376606D01*
X225479Y376578D01*
X225547Y376546D01*
X225613Y376511D01*
X225678Y376472D01*
X225740Y376430D01*
X225800Y376386D01*
X225858Y376338D01*
X225914Y376287D01*
X225966Y376234D01*
X226016Y376177D01*
X226063Y376119D01*
X226107Y376058D01*
X226148Y375995D01*
X226186Y375930D01*
X226220Y375863D01*
X226251Y375795D01*
X226278Y375725D01*
X226302Y375654D01*
X226322Y375581D01*
X226339Y375508D01*
X226351Y375434D01*
X226360Y375360D01*
X226366Y375285D01*
X226367Y375210D01*
X226367Y375209D02*
X226336Y370765D01*
X223373Y370785D02*
X223414Y376712D01*
X232327Y370723D02*
X234797Y370705D01*
X232328Y370722D02*
X232253Y370724D01*
X232178Y370731D01*
X232103Y370741D01*
X232030Y370754D01*
X231957Y370772D01*
X231884Y370793D01*
X231814Y370818D01*
X231744Y370846D01*
X231676Y370878D01*
X231610Y370913D01*
X231545Y370952D01*
X231483Y370994D01*
X231423Y371038D01*
X231365Y371086D01*
X231309Y371137D01*
X231257Y371190D01*
X231207Y371247D01*
X231160Y371305D01*
X231116Y371366D01*
X231075Y371429D01*
X231037Y371494D01*
X231003Y371561D01*
X230972Y371629D01*
X230945Y371699D01*
X230921Y371770D01*
X230901Y371843D01*
X230884Y371916D01*
X230872Y371990D01*
X230863Y372064D01*
X230857Y372139D01*
X230856Y372214D01*
X230856Y372215D02*
X230873Y374684D01*
X230876Y374772D01*
X230882Y374861D01*
X230893Y374949D01*
X230907Y375036D01*
X230926Y375123D01*
X230948Y375209D01*
X230974Y375294D01*
X231004Y375377D01*
X231037Y375459D01*
X231075Y375540D01*
X231116Y375618D01*
X231160Y375695D01*
X231208Y375770D01*
X231259Y375843D01*
X231313Y375913D01*
X231370Y375980D01*
X231430Y376045D01*
X231493Y376108D01*
X231559Y376167D01*
X231628Y376223D01*
X231699Y376277D01*
X231772Y376327D01*
X231847Y376373D01*
X231925Y376417D01*
X232004Y376456D01*
X232085Y376492D01*
X232168Y376525D01*
X232252Y376554D01*
X232337Y376578D01*
X232423Y376599D01*
X232510Y376617D01*
X232597Y376630D01*
X232686Y376639D01*
X232774Y376645D01*
X232863Y376646D01*
X232951Y376643D01*
X233040Y376637D01*
X233128Y376626D01*
X233215Y376612D01*
X233302Y376593D01*
X233388Y376571D01*
X233473Y376545D01*
X233556Y376515D01*
X233638Y376482D01*
X233719Y376444D01*
X233797Y376403D01*
X233874Y376359D01*
X233949Y376311D01*
X234022Y376260D01*
X234092Y376206D01*
X234159Y376149D01*
X234224Y376089D01*
X234287Y376026D01*
X234346Y375960D01*
X234402Y375891D01*
X234456Y375820D01*
X234506Y375747D01*
X234552Y375672D01*
X234596Y375594D01*
X234635Y375515D01*
X234671Y375434D01*
X234704Y375351D01*
X234733Y375267D01*
X234757Y375182D01*
X234778Y375096D01*
X234796Y375009D01*
X234809Y374922D01*
X234818Y374833D01*
X234824Y374745D01*
X234825Y374656D01*
X234824Y374656D02*
X234817Y373669D01*
X230866Y373696D01*
X238459Y369692D02*
X242485Y380530D01*
X250038Y379489D02*
X249976Y370599D01*
X247506Y370617D01*
X247507Y370616D02*
X247432Y370618D01*
X247357Y370625D01*
X247282Y370635D01*
X247209Y370648D01*
X247136Y370666D01*
X247063Y370687D01*
X246993Y370712D01*
X246923Y370740D01*
X246855Y370772D01*
X246789Y370807D01*
X246724Y370846D01*
X246662Y370888D01*
X246602Y370932D01*
X246544Y370980D01*
X246488Y371031D01*
X246436Y371084D01*
X246386Y371141D01*
X246339Y371199D01*
X246295Y371260D01*
X246254Y371323D01*
X246216Y371388D01*
X246182Y371455D01*
X246151Y371523D01*
X246124Y371593D01*
X246100Y371664D01*
X246080Y371737D01*
X246063Y371810D01*
X246051Y371884D01*
X246042Y371958D01*
X246036Y372033D01*
X246035Y372108D01*
X246035Y372109D02*
X246056Y375072D01*
X246055Y375072D02*
X246057Y375147D01*
X246064Y375222D01*
X246074Y375297D01*
X246087Y375370D01*
X246105Y375443D01*
X246126Y375516D01*
X246151Y375586D01*
X246179Y375656D01*
X246211Y375724D01*
X246246Y375790D01*
X246285Y375855D01*
X246327Y375917D01*
X246371Y375977D01*
X246419Y376035D01*
X246470Y376091D01*
X246523Y376143D01*
X246580Y376193D01*
X246638Y376240D01*
X246699Y376284D01*
X246762Y376325D01*
X246827Y376363D01*
X246894Y376397D01*
X246962Y376428D01*
X247032Y376455D01*
X247103Y376479D01*
X247176Y376499D01*
X247249Y376516D01*
X247323Y376528D01*
X247397Y376537D01*
X247472Y376543D01*
X247547Y376544D01*
X247548Y376543D02*
X250017Y376526D01*
X255796Y370559D02*
X258266Y370542D01*
X255796Y370558D02*
X255721Y370560D01*
X255646Y370567D01*
X255571Y370577D01*
X255498Y370590D01*
X255425Y370608D01*
X255352Y370629D01*
X255282Y370654D01*
X255212Y370682D01*
X255144Y370714D01*
X255078Y370749D01*
X255013Y370788D01*
X254951Y370830D01*
X254891Y370874D01*
X254833Y370922D01*
X254777Y370973D01*
X254725Y371026D01*
X254675Y371083D01*
X254628Y371141D01*
X254584Y371202D01*
X254543Y371265D01*
X254505Y371330D01*
X254471Y371397D01*
X254440Y371465D01*
X254413Y371535D01*
X254389Y371606D01*
X254369Y371679D01*
X254352Y371752D01*
X254340Y371826D01*
X254331Y371900D01*
X254325Y371975D01*
X254324Y372050D01*
X254325Y372051D02*
X254342Y374520D01*
X254345Y374608D01*
X254351Y374697D01*
X254362Y374785D01*
X254376Y374872D01*
X254395Y374959D01*
X254417Y375045D01*
X254443Y375130D01*
X254473Y375213D01*
X254506Y375295D01*
X254544Y375376D01*
X254585Y375454D01*
X254629Y375531D01*
X254677Y375606D01*
X254728Y375679D01*
X254782Y375749D01*
X254839Y375816D01*
X254899Y375881D01*
X254962Y375944D01*
X255028Y376003D01*
X255097Y376059D01*
X255168Y376113D01*
X255241Y376163D01*
X255316Y376209D01*
X255394Y376253D01*
X255473Y376292D01*
X255554Y376328D01*
X255637Y376361D01*
X255721Y376390D01*
X255806Y376414D01*
X255892Y376435D01*
X255979Y376453D01*
X256066Y376466D01*
X256155Y376475D01*
X256243Y376481D01*
X256332Y376482D01*
X256420Y376479D01*
X256509Y376473D01*
X256597Y376462D01*
X256684Y376448D01*
X256771Y376429D01*
X256857Y376407D01*
X256942Y376381D01*
X257025Y376351D01*
X257107Y376318D01*
X257188Y376280D01*
X257266Y376239D01*
X257343Y376195D01*
X257418Y376147D01*
X257491Y376096D01*
X257561Y376042D01*
X257628Y375985D01*
X257693Y375925D01*
X257756Y375862D01*
X257815Y375796D01*
X257871Y375727D01*
X257925Y375656D01*
X257975Y375583D01*
X258021Y375508D01*
X258065Y375430D01*
X258104Y375351D01*
X258140Y375270D01*
X258173Y375187D01*
X258202Y375103D01*
X258226Y375018D01*
X258247Y374932D01*
X258265Y374845D01*
X258278Y374758D01*
X258287Y374669D01*
X258293Y374581D01*
X258294Y374492D01*
X258293Y374493D02*
X258286Y373505D01*
X254335Y373532D01*
X263931Y373959D02*
X266154Y373944D01*
X263931Y373960D02*
X263849Y373959D01*
X263767Y373953D01*
X263685Y373944D01*
X263604Y373931D01*
X263523Y373914D01*
X263443Y373893D01*
X263365Y373869D01*
X263288Y373841D01*
X263212Y373809D01*
X263137Y373773D01*
X263065Y373734D01*
X262994Y373692D01*
X262926Y373646D01*
X262860Y373598D01*
X262796Y373546D01*
X262735Y373491D01*
X262676Y373433D01*
X262620Y373372D01*
X262567Y373309D01*
X262518Y373244D01*
X262471Y373176D01*
X262428Y373106D01*
X262388Y373034D01*
X262351Y372960D01*
X262318Y372885D01*
X262289Y372808D01*
X262263Y372730D01*
X262242Y372650D01*
X262224Y372570D01*
X262209Y372489D01*
X262199Y372407D01*
X262193Y372325D01*
X262190Y372243D01*
X262191Y372161D01*
X262197Y372079D01*
X262206Y371997D01*
X262219Y371916D01*
X262236Y371835D01*
X262257Y371755D01*
X262281Y371677D01*
X262309Y371600D01*
X262341Y371524D01*
X262377Y371449D01*
X262416Y371377D01*
X262458Y371306D01*
X262504Y371238D01*
X262552Y371172D01*
X262604Y371108D01*
X262659Y371047D01*
X262717Y370988D01*
X262778Y370932D01*
X262841Y370879D01*
X262906Y370830D01*
X262974Y370783D01*
X263044Y370740D01*
X263116Y370700D01*
X263190Y370663D01*
X263265Y370630D01*
X263342Y370601D01*
X263420Y370575D01*
X263500Y370554D01*
X263580Y370536D01*
X263661Y370521D01*
X263743Y370511D01*
X263825Y370505D01*
X263907Y370502D01*
X266130Y370487D01*
X266161Y374931D01*
X266161Y374932D02*
X266160Y375007D01*
X266154Y375082D01*
X266145Y375156D01*
X266133Y375230D01*
X266116Y375303D01*
X266096Y375376D01*
X266072Y375447D01*
X266045Y375517D01*
X266014Y375585D01*
X265980Y375652D01*
X265942Y375717D01*
X265901Y375780D01*
X265857Y375841D01*
X265810Y375899D01*
X265760Y375956D01*
X265708Y376009D01*
X265652Y376060D01*
X265594Y376108D01*
X265534Y376152D01*
X265472Y376194D01*
X265407Y376233D01*
X265341Y376268D01*
X265273Y376300D01*
X265203Y376328D01*
X265133Y376353D01*
X265060Y376374D01*
X264987Y376392D01*
X264914Y376405D01*
X264839Y376415D01*
X264764Y376422D01*
X264689Y376424D01*
X264689Y376423D02*
X262714Y376437D01*
X270164Y370458D02*
X274156Y376357D01*
X270205Y376385D02*
X274115Y370431D01*
X277479Y370407D02*
X281471Y376306D01*
X277520Y376334D02*
X281430Y370380D01*
D12*
X240000Y140000D02*
X57000Y140000D01*
X58000Y141000D01*
X239000Y142000D02*
X240000Y140000D01*
X238999Y142000D02*
X237873Y144186D01*
X236693Y146345D01*
X235462Y148474D01*
X234178Y150573D01*
X232845Y152639D01*
X231461Y154673D01*
X230029Y156673D01*
X228548Y158637D01*
X227020Y160565D01*
X225446Y162455D01*
X223826Y164306D01*
X222162Y166117D01*
X220454Y167887D01*
X218703Y169615D01*
X216911Y171300D01*
X215079Y172941D01*
X213207Y174537D01*
X211298Y176087D01*
X209350Y177591D01*
X207368Y179046D01*
X205350Y180453D01*
X203298Y181810D01*
X201215Y183117D01*
X199100Y184373D01*
X196955Y185578D01*
X194781Y186729D01*
X192581Y187828D01*
X190354Y188873D01*
X188102Y189863D01*
X185827Y190799D01*
X183530Y191678D01*
X181213Y192502D01*
X178875Y193269D01*
X176520Y193979D01*
X174149Y194632D01*
X171762Y195227D01*
X169361Y195763D01*
X166949Y196242D01*
X164525Y196661D01*
X162092Y197021D01*
X159650Y197322D01*
X157202Y197564D01*
X154749Y197746D01*
X152293Y197868D01*
X149834Y197931D01*
X147374Y197934D01*
X144915Y197877D01*
X142458Y197760D01*
X140004Y197584D01*
X137556Y197348D01*
X135114Y197053D01*
X132680Y196698D01*
X130255Y196284D01*
X127841Y195812D01*
X125440Y195281D01*
X123051Y194692D01*
X120678Y194044D01*
X118322Y193340D01*
X115983Y192578D01*
X113663Y191760D01*
X111364Y190885D01*
X109087Y189955D01*
X106833Y188970D01*
X104604Y187931D01*
X102400Y186837D01*
X100224Y185690D01*
X98077Y184491D01*
X95959Y183240D01*
X93872Y181938D01*
X91817Y180585D01*
X89796Y179183D01*
X87810Y177732D01*
X85860Y176234D01*
X83946Y174688D01*
X82071Y173096D01*
X80235Y171460D01*
X78439Y169779D01*
X76684Y168055D01*
X74972Y166288D01*
X73304Y164481D01*
X71680Y162634D01*
X70101Y160748D01*
X68568Y158823D01*
X67083Y156863D01*
X65646Y154866D01*
X64258Y152836D01*
X62919Y150772D01*
X61631Y148677D01*
X60395Y146550D01*
X59210Y144394D01*
X58078Y142210D01*
X57000Y140000D01*
X59000Y141000D02*
X238000Y141000D01*
X238000Y142000D02*
X59000Y142000D01*
X237000Y143000D02*
X238000Y142000D01*
X237000Y143000D02*
X237000Y144000D01*
X237000Y143000D02*
X59000Y143000D01*
X61000Y145000D01*
X61000Y144000D01*
X237000Y144000D01*
X236000Y145000D01*
X61000Y145000D01*
X62000Y146000D01*
X236000Y146000D01*
X236000Y147000D01*
X62000Y147000D01*
X63000Y148000D01*
X235000Y148000D01*
X63000Y149000D02*
X63000Y150000D01*
X64000Y149000D01*
X234000Y149000D01*
D13*
X233000Y150000D02*
X64000Y150000D01*
X233000Y150000D02*
X233000Y151000D01*
X65000Y151000D01*
X67000Y153000D01*
X232000Y153000D01*
X230000Y155000D01*
X66000Y155000D01*
X67000Y154000D02*
X65000Y152000D01*
X68000Y156000D02*
X69000Y157000D01*
X229000Y157000D01*
X230000Y156000D01*
X228000Y158000D02*
X70000Y158000D01*
X226000Y160000D02*
X228000Y158000D01*
X226000Y160000D02*
X71000Y160000D01*
X72000Y161000D01*
X72000Y162000D01*
X225000Y162000D01*
X224000Y163000D01*
X74000Y163000D01*
X75000Y164000D01*
X223000Y164000D01*
X221000Y166000D01*
X76000Y166000D01*
X75000Y165000D01*
X76000Y166000D02*
X77000Y167000D01*
X220000Y167000D01*
X218000Y169000D01*
X79000Y169000D01*
X80000Y170000D01*
X217000Y170000D01*
X216000Y171000D02*
X81000Y171000D01*
X215000Y172000D02*
X216000Y171000D01*
X215000Y172000D02*
X83000Y172000D01*
X84000Y173000D01*
X84000Y174000D01*
X213000Y174000D01*
X214000Y173000D01*
X213000Y174000D02*
X211000Y176000D01*
X88000Y176000D01*
X86000Y176000D01*
X88000Y176000D02*
X89000Y177000D01*
X209000Y177000D01*
X208000Y178000D01*
X90000Y178000D01*
X91000Y179000D01*
X206000Y179000D01*
X205000Y180000D01*
X94000Y180000D01*
X93000Y180000D01*
X94000Y180000D02*
X95000Y181000D01*
X203000Y181000D01*
X201000Y183000D01*
X97000Y183000D01*
X96000Y182000D01*
X97000Y183000D02*
X98000Y184000D01*
X101000Y184000D01*
X198000Y184000D01*
X197000Y185000D01*
X195000Y185000D01*
X102000Y185000D01*
X101000Y184000D01*
X102000Y185000D02*
X103000Y186000D01*
X104000Y186000D01*
X194000Y186000D01*
X195000Y185000D01*
X194000Y186000D02*
X193000Y187000D01*
X105000Y187000D01*
X104000Y186000D01*
X105000Y187000D02*
X106000Y188000D01*
X190000Y188000D01*
X189000Y189000D01*
X109000Y189000D01*
X110000Y190000D01*
X185000Y190000D01*
X184000Y191000D01*
X115000Y191000D01*
X116000Y192000D01*
X120000Y192000D01*
X179000Y192000D01*
X178000Y193000D01*
X174000Y193000D01*
X121000Y193000D01*
X120000Y192000D01*
X121000Y193000D02*
X122000Y194000D01*
X129000Y194000D01*
X173000Y194000D02*
X174000Y193000D01*
X173000Y194000D02*
X129000Y194000D01*
X128000Y195000D01*
X170000Y195000D01*
X169000Y196000D01*
X135000Y196000D01*
X134000Y197000D01*
X151000Y197000D01*
X83000Y97000D02*
X50000Y97000D01*
X50000Y99000D02*
X83000Y99000D01*
X50000Y99000D02*
X50000Y100000D01*
X83000Y100000D01*
X83000Y101000D01*
X50000Y101000D01*
X50000Y102000D01*
X83000Y102000D01*
X83000Y104000D01*
X50000Y104000D01*
X50000Y106000D01*
X83000Y106000D01*
X83000Y107000D01*
X50000Y107000D01*
X83000Y102000D02*
X83000Y99000D01*
X83000Y97000D01*
X83000Y99000D02*
X83012Y99992D01*
X83049Y100984D01*
X83109Y101974D01*
X83194Y102962D01*
X83303Y103949D01*
X83437Y104932D01*
X83594Y105911D01*
X83775Y106887D01*
X83980Y107858D01*
X84209Y108823D01*
X84461Y109783D01*
X84737Y110736D01*
X85036Y111682D01*
X85358Y112620D01*
X85703Y113551D01*
X86070Y114472D01*
X86460Y115385D01*
X86873Y116287D01*
X87307Y117179D01*
X87763Y118060D01*
X88240Y118930D01*
X88739Y119788D01*
X89258Y120633D01*
X89798Y121466D01*
X90358Y122285D01*
X90938Y123090D01*
X91538Y123880D01*
X92156Y124656D01*
X92794Y125416D01*
X93450Y126160D01*
X94124Y126888D01*
X94816Y127600D01*
X95524Y128294D01*
X96250Y128971D01*
X96992Y129629D01*
X97750Y130270D01*
X98523Y130891D01*
X99312Y131494D01*
X100114Y132077D01*
X100931Y132640D01*
X101762Y133183D01*
X102605Y133706D01*
X103461Y134207D01*
X104329Y134688D01*
X105209Y135147D01*
X106099Y135585D01*
X107000Y136000D01*
X107000Y136001D02*
X108235Y136537D01*
X109480Y137050D01*
X110736Y137538D01*
X112000Y138001D01*
X83000Y108000D02*
X50000Y108000D01*
X83000Y108000D02*
X83000Y110000D01*
X51000Y110000D01*
X50000Y109000D01*
X51000Y110000D02*
X52000Y111000D01*
X84000Y111000D01*
X52000Y111000D02*
X50000Y111000D01*
X51000Y112000D01*
X51000Y113000D01*
X85000Y113000D01*
X85000Y114000D01*
X51000Y114000D01*
X51000Y116000D01*
X85000Y116000D01*
X86000Y117000D01*
X52000Y117000D01*
X51000Y118000D01*
X52000Y119000D01*
X87000Y119000D01*
X88000Y120000D01*
X52000Y120000D01*
X53000Y121000D01*
X88000Y121000D01*
X88000Y122000D01*
X89000Y123000D01*
X90000Y123000D01*
X89000Y123000D02*
X54000Y123000D01*
X53000Y122000D01*
X54000Y123000D02*
X54000Y124000D01*
X53000Y124000D01*
X54000Y125000D01*
X91000Y125000D01*
X92000Y126000D01*
X54000Y126000D01*
X54000Y128000D01*
X92000Y128000D01*
X93000Y127000D01*
X94000Y128000D01*
X94000Y129000D01*
X54000Y129000D01*
X55000Y130000D01*
X55000Y131000D01*
X94000Y131000D01*
X95000Y130000D01*
X96000Y131000D01*
X98000Y131000D01*
X97000Y132000D01*
X55000Y132000D01*
X56000Y133000D01*
X100000Y133000D01*
X101000Y134000D01*
X56000Y134000D01*
X57000Y135000D01*
X103000Y135000D01*
X104000Y136000D01*
X57000Y136000D01*
X58000Y137000D01*
X59000Y136000D01*
X107000Y136000D01*
X107000Y137000D01*
X58000Y137000D01*
X58000Y138000D01*
X59000Y139000D01*
X107000Y139000D01*
X106000Y138000D02*
X111000Y138000D01*
X107000Y139000D02*
X106000Y138000D01*
X107000Y139000D02*
X112000Y139000D01*
X113000Y139000D01*
X112000Y139000D02*
X111000Y138000D01*
X113000Y139000D02*
X115000Y139000D01*
D14*
X113000Y139000D02*
X119000Y139000D01*
X106000Y135000D02*
X104000Y134000D01*
X106000Y135000D02*
X106878Y135426D01*
X107766Y135831D01*
X108663Y136215D01*
X109569Y136578D01*
X110483Y136920D01*
X111405Y137240D01*
X112335Y137538D01*
X113271Y137814D01*
X114213Y138068D01*
X115161Y138299D01*
X116114Y138508D01*
X117072Y138695D01*
X118034Y138859D01*
X119000Y139000D01*
X179000Y139000D01*
X184000Y139000D01*
X179000Y139000D02*
X179997Y138829D01*
X180990Y138634D01*
X181977Y138414D01*
X182959Y138171D01*
X183935Y137904D01*
X184903Y137613D01*
X185865Y137299D01*
X186818Y136961D01*
X187763Y136601D01*
X188699Y136217D01*
X189626Y135811D01*
X190542Y135382D01*
X191447Y134931D01*
X192341Y134458D01*
X193224Y133963D01*
X194094Y133447D01*
X194951Y132911D01*
X195795Y132353D01*
X196625Y131775D01*
X197440Y131177D01*
X198241Y130559D01*
X199027Y129922D01*
X199797Y129266D01*
X200550Y128591D01*
X201287Y127898D01*
X202007Y127187D01*
X202710Y126460D01*
X203394Y125715D01*
X204060Y124953D01*
X204707Y124176D01*
X205336Y123383D01*
X205944Y122576D01*
X206533Y121753D01*
X207102Y120917D01*
X207650Y120066D01*
X208177Y119203D01*
X208683Y118327D01*
X209167Y117439D01*
X209630Y116540D01*
X210071Y115629D01*
X210489Y114708D01*
X210885Y113778D01*
X211258Y112837D01*
X211608Y111888D01*
X211935Y110931D01*
X212238Y109966D01*
X212518Y108994D01*
X212774Y108016D01*
X213006Y107031D01*
X213214Y106041D01*
X213398Y105046D01*
X213557Y104048D01*
X213692Y103045D01*
X213803Y102040D01*
X213889Y101032D01*
X213951Y100022D01*
X213988Y99011D01*
X214000Y98000D01*
X249000Y98000D01*
D13*
X240000Y139000D02*
X184000Y139000D01*
X240000Y139000D02*
X240000Y137000D01*
X239000Y138000D01*
X188000Y138000D01*
X186000Y138000D01*
X188000Y138000D02*
X189000Y137000D01*
X240000Y137000D01*
X241000Y136000D01*
X241000Y135000D01*
D15*
X241000Y136000D02*
X191000Y136000D01*
X241000Y135000D02*
X242000Y134000D01*
X241000Y135000D02*
X194000Y135000D01*
X193000Y135000D01*
X194000Y135000D02*
X196000Y133000D01*
X242000Y133000D01*
X243000Y132000D01*
X198000Y132000D01*
X199000Y131000D01*
X243000Y131000D01*
X243000Y130000D01*
X200000Y130000D01*
X201000Y129000D01*
X244000Y129000D01*
X244000Y128000D01*
X202000Y128000D01*
X203000Y127000D01*
X204000Y127000D01*
X244000Y127000D01*
X244000Y126000D01*
X205000Y126000D01*
X204000Y127000D01*
X205000Y126000D02*
X205000Y125000D01*
X244000Y125000D01*
X245000Y124000D01*
X245000Y123000D01*
X207000Y123000D01*
X206000Y124000D01*
X207000Y123000D02*
X208000Y122000D01*
X245000Y122000D01*
X245000Y121000D01*
X208000Y121000D01*
X209000Y120000D01*
X246000Y120000D01*
X246000Y119000D01*
X209000Y119000D01*
X210000Y118000D01*
X246000Y118000D01*
X246000Y117000D01*
X210000Y117000D01*
X211000Y116000D01*
X247000Y116000D01*
X247000Y115000D01*
X211000Y115000D01*
X212000Y114000D01*
X247000Y114000D01*
X247000Y113000D01*
X212000Y113000D01*
X212000Y112000D02*
X247000Y112000D01*
X247000Y111000D01*
X213000Y111000D01*
X213000Y110000D01*
X247000Y110000D01*
X248000Y109000D01*
X213000Y109000D01*
X214000Y108000D01*
X214000Y107000D01*
X247000Y107000D01*
X248000Y108000D01*
X248000Y106000D01*
X214000Y106000D01*
X214000Y104000D01*
X215000Y105000D02*
X248000Y105000D01*
X215000Y105000D02*
X215000Y103000D01*
X216000Y104000D01*
X248000Y104000D01*
X248000Y103000D01*
X215000Y103000D01*
X248000Y103000D02*
X248000Y101000D01*
X216000Y101000D01*
X215000Y102000D01*
X215000Y101000D01*
X216000Y101000D01*
X248000Y101000D02*
X248000Y100000D01*
X216000Y100000D01*
X215000Y101000D01*
X215000Y99000D01*
X249000Y99000D01*
X48945Y98338D02*
X48945Y96785D01*
X48945Y98338D02*
X48975Y100846D01*
X49065Y103352D01*
X49215Y105855D01*
X49426Y108354D01*
X49696Y110847D01*
X50026Y113333D01*
X50415Y115811D01*
X50863Y118278D01*
X51371Y120734D01*
X51937Y123177D01*
X52562Y125606D01*
X53245Y128019D01*
X53985Y130415D01*
X54783Y132792D01*
X55637Y135150D01*
X56548Y137487D01*
X57515Y139801D01*
X248833Y99755D02*
X248833Y98437D01*
X248833Y99755D02*
X248806Y102020D01*
X248726Y104283D01*
X248592Y106544D01*
X248405Y108801D01*
X248165Y111053D01*
X247872Y113299D01*
X247525Y115537D01*
X247126Y117766D01*
X246675Y119985D01*
X246171Y122193D01*
X245615Y124389D01*
X245007Y126571D01*
X244348Y128737D01*
X243638Y130888D01*
X242878Y133021D01*
X242067Y135136D01*
X241207Y137231D01*
X240297Y139305D01*
X239339Y141357D01*
X238332Y143386D01*
X237278Y145390D01*
X236176Y147369D01*
X235029Y149322D01*
X233835Y151246D01*
X232597Y153143D01*
D16*
X170508Y315121D02*
X170510Y315191D01*
X170516Y315261D01*
X170526Y315330D01*
X170539Y315399D01*
X170557Y315467D01*
X170578Y315534D01*
X170603Y315599D01*
X170632Y315663D01*
X170664Y315726D01*
X170700Y315786D01*
X170739Y315844D01*
X170781Y315900D01*
X170826Y315954D01*
X170874Y316005D01*
X170925Y316053D01*
X170979Y316098D01*
X171035Y316140D01*
X171093Y316179D01*
X171153Y316215D01*
X171216Y316247D01*
X171280Y316276D01*
X171345Y316301D01*
X171412Y316322D01*
X171480Y316340D01*
X171549Y316353D01*
X171618Y316363D01*
X171688Y316369D01*
X171758Y316371D01*
X171828Y316369D01*
X171898Y316363D01*
X171967Y316353D01*
X172036Y316340D01*
X172104Y316322D01*
X172171Y316301D01*
X172236Y316276D01*
X172300Y316247D01*
X172363Y316215D01*
X172423Y316179D01*
X172481Y316140D01*
X172537Y316098D01*
X172591Y316053D01*
X172642Y316005D01*
X172690Y315954D01*
X172735Y315900D01*
X172777Y315844D01*
X172816Y315786D01*
X172852Y315726D01*
X172884Y315663D01*
X172913Y315599D01*
X172938Y315534D01*
X172959Y315467D01*
X172977Y315399D01*
X172990Y315330D01*
X173000Y315261D01*
X173006Y315191D01*
X173008Y315121D01*
X173006Y315051D01*
X173000Y314981D01*
X172990Y314912D01*
X172977Y314843D01*
X172959Y314775D01*
X172938Y314708D01*
X172913Y314643D01*
X172884Y314579D01*
X172852Y314516D01*
X172816Y314456D01*
X172777Y314398D01*
X172735Y314342D01*
X172690Y314288D01*
X172642Y314237D01*
X172591Y314189D01*
X172537Y314144D01*
X172481Y314102D01*
X172423Y314063D01*
X172363Y314027D01*
X172300Y313995D01*
X172236Y313966D01*
X172171Y313941D01*
X172104Y313920D01*
X172036Y313902D01*
X171967Y313889D01*
X171898Y313879D01*
X171828Y313873D01*
X171758Y313871D01*
X171688Y313873D01*
X171618Y313879D01*
X171549Y313889D01*
X171480Y313902D01*
X171412Y313920D01*
X171345Y313941D01*
X171280Y313966D01*
X171216Y313995D01*
X171153Y314027D01*
X171093Y314063D01*
X171035Y314102D01*
X170979Y314144D01*
X170925Y314189D01*
X170874Y314237D01*
X170826Y314288D01*
X170781Y314342D01*
X170739Y314398D01*
X170700Y314456D01*
X170664Y314516D01*
X170632Y314579D01*
X170603Y314643D01*
X170578Y314708D01*
X170557Y314775D01*
X170539Y314843D01*
X170526Y314912D01*
X170516Y314981D01*
X170510Y315051D01*
X170508Y315121D01*
D10*
X140187Y270199D02*
X133329Y270199D01*
X140187Y269437D02*
X140187Y270961D01*
X133329Y270961D02*
X133329Y269437D01*
X140187Y275282D02*
X140187Y276806D01*
X140187Y275282D02*
X140185Y275205D01*
X140179Y275128D01*
X140169Y275051D01*
X140156Y274975D01*
X140138Y274900D01*
X140117Y274826D01*
X140092Y274753D01*
X140063Y274681D01*
X140031Y274611D01*
X139996Y274542D01*
X139956Y274476D01*
X139914Y274411D01*
X139868Y274349D01*
X139819Y274289D01*
X139768Y274232D01*
X139713Y274177D01*
X139656Y274126D01*
X139596Y274077D01*
X139534Y274031D01*
X139469Y273989D01*
X139403Y273949D01*
X139334Y273914D01*
X139264Y273882D01*
X139192Y273853D01*
X139119Y273828D01*
X139045Y273807D01*
X138970Y273789D01*
X138894Y273776D01*
X138817Y273766D01*
X138740Y273760D01*
X138663Y273758D01*
X134853Y273758D01*
X134776Y273760D01*
X134699Y273766D01*
X134622Y273776D01*
X134546Y273789D01*
X134471Y273807D01*
X134397Y273828D01*
X134324Y273853D01*
X134252Y273882D01*
X134182Y273914D01*
X134113Y273949D01*
X134047Y273989D01*
X133982Y274031D01*
X133920Y274077D01*
X133860Y274126D01*
X133803Y274177D01*
X133748Y274232D01*
X133697Y274289D01*
X133648Y274349D01*
X133602Y274411D01*
X133560Y274476D01*
X133520Y274542D01*
X133485Y274611D01*
X133453Y274681D01*
X133424Y274753D01*
X133399Y274826D01*
X133378Y274900D01*
X133360Y274975D01*
X133347Y275051D01*
X133337Y275128D01*
X133331Y275205D01*
X133329Y275282D01*
X133329Y276806D01*
X140187Y279495D02*
X140187Y281400D01*
X140185Y281485D01*
X140179Y281571D01*
X140170Y281656D01*
X140156Y281740D01*
X140139Y281824D01*
X140118Y281907D01*
X140094Y281989D01*
X140066Y282069D01*
X140034Y282149D01*
X139998Y282227D01*
X139960Y282303D01*
X139917Y282377D01*
X139872Y282449D01*
X139823Y282520D01*
X139771Y282588D01*
X139717Y282653D01*
X139659Y282716D01*
X139598Y282777D01*
X139535Y282835D01*
X139470Y282889D01*
X139402Y282941D01*
X139331Y282990D01*
X139259Y283035D01*
X139185Y283078D01*
X139109Y283116D01*
X139031Y283152D01*
X138951Y283184D01*
X138871Y283212D01*
X138789Y283236D01*
X138706Y283257D01*
X138622Y283274D01*
X138538Y283288D01*
X138453Y283297D01*
X138367Y283303D01*
X138282Y283305D01*
X138197Y283303D01*
X138111Y283297D01*
X138026Y283288D01*
X137942Y283274D01*
X137858Y283257D01*
X137775Y283236D01*
X137693Y283212D01*
X137613Y283184D01*
X137533Y283152D01*
X137455Y283116D01*
X137379Y283078D01*
X137305Y283035D01*
X137233Y282990D01*
X137162Y282941D01*
X137094Y282889D01*
X137029Y282835D01*
X136966Y282777D01*
X136905Y282716D01*
X136847Y282653D01*
X136793Y282588D01*
X136741Y282520D01*
X136692Y282449D01*
X136647Y282377D01*
X136604Y282303D01*
X136566Y282227D01*
X136530Y282149D01*
X136498Y282069D01*
X136470Y281989D01*
X136446Y281907D01*
X136425Y281824D01*
X136408Y281740D01*
X136394Y281656D01*
X136385Y281571D01*
X136379Y281485D01*
X136377Y281400D01*
X133329Y281781D02*
X133329Y279495D01*
X133329Y281781D02*
X133331Y281858D01*
X133337Y281935D01*
X133347Y282012D01*
X133360Y282088D01*
X133378Y282163D01*
X133399Y282237D01*
X133424Y282310D01*
X133453Y282382D01*
X133485Y282452D01*
X133520Y282521D01*
X133560Y282587D01*
X133602Y282652D01*
X133648Y282714D01*
X133697Y282774D01*
X133748Y282831D01*
X133803Y282886D01*
X133860Y282937D01*
X133920Y282986D01*
X133982Y283032D01*
X134047Y283074D01*
X134113Y283114D01*
X134182Y283149D01*
X134252Y283181D01*
X134324Y283210D01*
X134397Y283235D01*
X134471Y283256D01*
X134546Y283274D01*
X134622Y283287D01*
X134699Y283297D01*
X134776Y283303D01*
X134853Y283305D01*
X134930Y283303D01*
X135007Y283297D01*
X135084Y283287D01*
X135160Y283274D01*
X135235Y283256D01*
X135309Y283235D01*
X135382Y283210D01*
X135454Y283181D01*
X135524Y283149D01*
X135593Y283114D01*
X135659Y283074D01*
X135724Y283032D01*
X135786Y282986D01*
X135846Y282937D01*
X135903Y282886D01*
X135958Y282831D01*
X136009Y282774D01*
X136058Y282714D01*
X136104Y282652D01*
X136146Y282587D01*
X136186Y282521D01*
X136221Y282452D01*
X136253Y282382D01*
X136282Y282310D01*
X136307Y282237D01*
X136328Y282163D01*
X136346Y282088D01*
X136359Y282012D01*
X136369Y281935D01*
X136375Y281858D01*
X136377Y281781D01*
X136377Y280257D01*
X81259Y205632D02*
X81259Y204108D01*
X81257Y204031D01*
X81251Y203954D01*
X81241Y203877D01*
X81228Y203801D01*
X81210Y203726D01*
X81189Y203652D01*
X81164Y203579D01*
X81135Y203507D01*
X81103Y203437D01*
X81068Y203368D01*
X81028Y203302D01*
X80986Y203237D01*
X80940Y203175D01*
X80891Y203115D01*
X80840Y203058D01*
X80785Y203003D01*
X80728Y202952D01*
X80668Y202903D01*
X80606Y202857D01*
X80541Y202815D01*
X80475Y202775D01*
X80406Y202740D01*
X80336Y202708D01*
X80264Y202679D01*
X80191Y202654D01*
X80117Y202633D01*
X80042Y202615D01*
X79966Y202602D01*
X79889Y202592D01*
X79812Y202586D01*
X79735Y202584D01*
X75925Y202584D01*
X75848Y202586D01*
X75771Y202592D01*
X75694Y202602D01*
X75618Y202615D01*
X75543Y202633D01*
X75469Y202654D01*
X75396Y202679D01*
X75324Y202708D01*
X75254Y202740D01*
X75185Y202775D01*
X75119Y202815D01*
X75054Y202857D01*
X74992Y202903D01*
X74932Y202952D01*
X74875Y203003D01*
X74820Y203058D01*
X74769Y203115D01*
X74720Y203175D01*
X74674Y203237D01*
X74632Y203302D01*
X74592Y203368D01*
X74557Y203437D01*
X74525Y203507D01*
X74496Y203579D01*
X74471Y203652D01*
X74450Y203726D01*
X74432Y203801D01*
X74419Y203877D01*
X74409Y203954D01*
X74403Y204031D01*
X74401Y204108D01*
X74401Y205632D01*
X75925Y208321D02*
X74401Y210226D01*
X81259Y210226D01*
X81259Y208321D02*
X81259Y212131D01*
X82101Y184296D02*
X83625Y184296D01*
X82101Y184296D02*
X82024Y184298D01*
X81947Y184304D01*
X81870Y184314D01*
X81794Y184327D01*
X81719Y184345D01*
X81645Y184366D01*
X81572Y184391D01*
X81500Y184420D01*
X81430Y184452D01*
X81361Y184487D01*
X81295Y184527D01*
X81230Y184569D01*
X81168Y184615D01*
X81108Y184664D01*
X81051Y184715D01*
X80996Y184770D01*
X80945Y184827D01*
X80896Y184887D01*
X80850Y184949D01*
X80808Y185014D01*
X80768Y185080D01*
X80733Y185149D01*
X80701Y185219D01*
X80672Y185291D01*
X80647Y185364D01*
X80626Y185438D01*
X80608Y185513D01*
X80595Y185589D01*
X80585Y185666D01*
X80579Y185743D01*
X80577Y185820D01*
X80577Y189630D01*
X80579Y189707D01*
X80585Y189784D01*
X80595Y189861D01*
X80608Y189937D01*
X80626Y190012D01*
X80647Y190086D01*
X80672Y190159D01*
X80701Y190231D01*
X80733Y190301D01*
X80768Y190370D01*
X80808Y190436D01*
X80850Y190501D01*
X80896Y190563D01*
X80945Y190623D01*
X80996Y190680D01*
X81051Y190735D01*
X81108Y190786D01*
X81168Y190835D01*
X81230Y190881D01*
X81295Y190923D01*
X81361Y190963D01*
X81430Y190998D01*
X81500Y191030D01*
X81572Y191059D01*
X81645Y191084D01*
X81719Y191105D01*
X81794Y191123D01*
X81870Y191136D01*
X81947Y191146D01*
X82024Y191152D01*
X82101Y191154D01*
X83625Y191154D01*
X88410Y191155D02*
X88492Y191153D01*
X88573Y191147D01*
X88654Y191138D01*
X88735Y191124D01*
X88814Y191107D01*
X88893Y191086D01*
X88971Y191061D01*
X89047Y191032D01*
X89122Y191000D01*
X89196Y190964D01*
X89268Y190925D01*
X89337Y190883D01*
X89405Y190837D01*
X89470Y190788D01*
X89533Y190736D01*
X89593Y190681D01*
X89651Y190623D01*
X89706Y190563D01*
X89758Y190500D01*
X89807Y190435D01*
X89853Y190367D01*
X89895Y190298D01*
X89934Y190226D01*
X89970Y190152D01*
X90002Y190077D01*
X90031Y190001D01*
X90056Y189923D01*
X90077Y189844D01*
X90094Y189765D01*
X90108Y189684D01*
X90117Y189603D01*
X90123Y189522D01*
X90125Y189440D01*
X88410Y191154D02*
X88318Y191152D01*
X88226Y191146D01*
X88134Y191137D01*
X88042Y191123D01*
X87952Y191106D01*
X87862Y191085D01*
X87773Y191060D01*
X87685Y191031D01*
X87598Y190999D01*
X87513Y190963D01*
X87430Y190924D01*
X87348Y190881D01*
X87268Y190835D01*
X87190Y190785D01*
X87114Y190733D01*
X87041Y190677D01*
X86970Y190618D01*
X86901Y190556D01*
X86835Y190491D01*
X86772Y190424D01*
X86712Y190354D01*
X86654Y190282D01*
X86600Y190207D01*
X86549Y190130D01*
X86501Y190051D01*
X86457Y189970D01*
X86416Y189887D01*
X86378Y189803D01*
X86344Y189717D01*
X86314Y189630D01*
X89553Y188106D02*
X89612Y188165D01*
X89668Y188226D01*
X89721Y188289D01*
X89772Y188355D01*
X89819Y188423D01*
X89863Y188493D01*
X89904Y188565D01*
X89942Y188639D01*
X89976Y188714D01*
X90007Y188791D01*
X90034Y188869D01*
X90058Y188949D01*
X90079Y189029D01*
X90095Y189110D01*
X90108Y189192D01*
X90118Y189274D01*
X90123Y189357D01*
X90125Y189440D01*
X89553Y188106D02*
X86314Y184296D01*
X90124Y184296D01*
X204671Y252385D02*
X204671Y259243D01*
X206576Y259243D01*
X206661Y259241D01*
X206747Y259235D01*
X206832Y259226D01*
X206916Y259212D01*
X207000Y259195D01*
X207083Y259174D01*
X207165Y259150D01*
X207245Y259122D01*
X207325Y259090D01*
X207403Y259054D01*
X207479Y259016D01*
X207553Y258973D01*
X207625Y258928D01*
X207696Y258879D01*
X207764Y258827D01*
X207829Y258773D01*
X207892Y258715D01*
X207953Y258654D01*
X208011Y258591D01*
X208065Y258526D01*
X208117Y258458D01*
X208166Y258387D01*
X208211Y258315D01*
X208254Y258241D01*
X208292Y258165D01*
X208328Y258087D01*
X208360Y258007D01*
X208388Y257927D01*
X208412Y257845D01*
X208433Y257762D01*
X208450Y257678D01*
X208464Y257594D01*
X208473Y257509D01*
X208479Y257423D01*
X208481Y257338D01*
X208479Y257253D01*
X208473Y257167D01*
X208464Y257082D01*
X208450Y256998D01*
X208433Y256914D01*
X208412Y256831D01*
X208388Y256749D01*
X208360Y256669D01*
X208328Y256589D01*
X208292Y256511D01*
X208254Y256435D01*
X208211Y256361D01*
X208166Y256289D01*
X208117Y256218D01*
X208065Y256150D01*
X208011Y256085D01*
X207953Y256022D01*
X207892Y255961D01*
X207829Y255903D01*
X207764Y255849D01*
X207696Y255797D01*
X207625Y255748D01*
X207553Y255703D01*
X207479Y255660D01*
X207403Y255622D01*
X207325Y255586D01*
X207245Y255554D01*
X207165Y255526D01*
X207083Y255502D01*
X207000Y255481D01*
X206916Y255464D01*
X206832Y255450D01*
X206747Y255441D01*
X206661Y255435D01*
X206576Y255433D01*
X204671Y255433D01*
X206957Y255433D02*
X208481Y252385D01*
X211479Y257719D02*
X213384Y259243D01*
X213384Y252385D01*
X211479Y252385D02*
X215289Y252385D01*
X206973Y242193D02*
X205449Y242193D01*
X205372Y242195D01*
X205295Y242201D01*
X205218Y242211D01*
X205142Y242224D01*
X205067Y242242D01*
X204993Y242263D01*
X204920Y242288D01*
X204848Y242317D01*
X204778Y242349D01*
X204709Y242384D01*
X204643Y242424D01*
X204578Y242466D01*
X204516Y242512D01*
X204456Y242561D01*
X204399Y242612D01*
X204344Y242667D01*
X204293Y242724D01*
X204244Y242784D01*
X204198Y242846D01*
X204156Y242911D01*
X204116Y242977D01*
X204081Y243046D01*
X204049Y243116D01*
X204020Y243188D01*
X203995Y243261D01*
X203974Y243335D01*
X203956Y243410D01*
X203943Y243486D01*
X203933Y243563D01*
X203927Y243640D01*
X203925Y243717D01*
X203925Y247527D01*
X203927Y247604D01*
X203933Y247681D01*
X203943Y247758D01*
X203956Y247834D01*
X203974Y247909D01*
X203995Y247983D01*
X204020Y248056D01*
X204049Y248128D01*
X204081Y248198D01*
X204116Y248267D01*
X204156Y248333D01*
X204198Y248398D01*
X204244Y248460D01*
X204293Y248520D01*
X204344Y248577D01*
X204399Y248632D01*
X204456Y248683D01*
X204516Y248732D01*
X204578Y248778D01*
X204643Y248820D01*
X204709Y248860D01*
X204778Y248895D01*
X204848Y248927D01*
X204920Y248956D01*
X204993Y248981D01*
X205067Y249002D01*
X205142Y249020D01*
X205218Y249033D01*
X205295Y249043D01*
X205372Y249049D01*
X205449Y249051D01*
X206973Y249051D01*
X209662Y242193D02*
X211948Y242193D01*
X212025Y242195D01*
X212102Y242201D01*
X212179Y242211D01*
X212255Y242224D01*
X212330Y242242D01*
X212404Y242263D01*
X212477Y242288D01*
X212549Y242317D01*
X212619Y242349D01*
X212688Y242384D01*
X212754Y242424D01*
X212819Y242466D01*
X212881Y242512D01*
X212941Y242561D01*
X212998Y242612D01*
X213053Y242667D01*
X213104Y242724D01*
X213153Y242784D01*
X213199Y242846D01*
X213241Y242911D01*
X213281Y242977D01*
X213316Y243046D01*
X213348Y243116D01*
X213377Y243188D01*
X213402Y243261D01*
X213423Y243335D01*
X213441Y243410D01*
X213454Y243486D01*
X213464Y243563D01*
X213470Y243640D01*
X213472Y243717D01*
X213472Y244479D01*
X213470Y244556D01*
X213464Y244633D01*
X213454Y244710D01*
X213441Y244786D01*
X213423Y244861D01*
X213402Y244935D01*
X213377Y245008D01*
X213348Y245080D01*
X213316Y245150D01*
X213281Y245219D01*
X213241Y245285D01*
X213199Y245350D01*
X213153Y245412D01*
X213104Y245472D01*
X213053Y245529D01*
X212998Y245584D01*
X212941Y245635D01*
X212881Y245684D01*
X212819Y245730D01*
X212754Y245772D01*
X212688Y245812D01*
X212619Y245847D01*
X212549Y245879D01*
X212477Y245908D01*
X212404Y245933D01*
X212330Y245954D01*
X212255Y245972D01*
X212179Y245985D01*
X212102Y245995D01*
X212025Y246001D01*
X211948Y246003D01*
X209662Y246003D01*
X209662Y249051D01*
X213472Y249051D01*
X66575Y244593D02*
X65051Y244593D01*
X64974Y244595D01*
X64897Y244601D01*
X64820Y244611D01*
X64744Y244624D01*
X64669Y244642D01*
X64595Y244663D01*
X64522Y244688D01*
X64450Y244717D01*
X64380Y244749D01*
X64311Y244784D01*
X64245Y244824D01*
X64180Y244866D01*
X64118Y244912D01*
X64058Y244961D01*
X64001Y245012D01*
X63946Y245067D01*
X63895Y245124D01*
X63846Y245184D01*
X63800Y245246D01*
X63758Y245311D01*
X63718Y245377D01*
X63683Y245446D01*
X63651Y245516D01*
X63622Y245588D01*
X63597Y245661D01*
X63576Y245735D01*
X63558Y245810D01*
X63545Y245886D01*
X63535Y245963D01*
X63529Y246040D01*
X63527Y246117D01*
X63527Y249927D01*
X63529Y250004D01*
X63535Y250081D01*
X63545Y250158D01*
X63558Y250234D01*
X63576Y250309D01*
X63597Y250383D01*
X63622Y250456D01*
X63651Y250528D01*
X63683Y250598D01*
X63718Y250667D01*
X63758Y250733D01*
X63800Y250798D01*
X63846Y250860D01*
X63895Y250920D01*
X63946Y250977D01*
X64001Y251032D01*
X64058Y251083D01*
X64118Y251132D01*
X64180Y251178D01*
X64245Y251220D01*
X64311Y251260D01*
X64380Y251295D01*
X64450Y251327D01*
X64522Y251356D01*
X64595Y251381D01*
X64669Y251402D01*
X64744Y251420D01*
X64820Y251433D01*
X64897Y251443D01*
X64974Y251449D01*
X65051Y251451D01*
X66575Y251451D01*
X69265Y246498D02*
X69267Y246583D01*
X69273Y246669D01*
X69282Y246754D01*
X69296Y246838D01*
X69313Y246922D01*
X69334Y247005D01*
X69358Y247087D01*
X69386Y247167D01*
X69418Y247247D01*
X69454Y247325D01*
X69492Y247401D01*
X69535Y247475D01*
X69580Y247547D01*
X69629Y247618D01*
X69681Y247686D01*
X69735Y247751D01*
X69793Y247814D01*
X69854Y247875D01*
X69917Y247933D01*
X69982Y247987D01*
X70050Y248039D01*
X70121Y248088D01*
X70193Y248133D01*
X70267Y248176D01*
X70343Y248214D01*
X70421Y248250D01*
X70501Y248282D01*
X70581Y248310D01*
X70663Y248334D01*
X70746Y248355D01*
X70830Y248372D01*
X70914Y248386D01*
X70999Y248395D01*
X71085Y248401D01*
X71170Y248403D01*
X71255Y248401D01*
X71341Y248395D01*
X71426Y248386D01*
X71510Y248372D01*
X71594Y248355D01*
X71677Y248334D01*
X71759Y248310D01*
X71839Y248282D01*
X71919Y248250D01*
X71997Y248214D01*
X72073Y248176D01*
X72147Y248133D01*
X72219Y248088D01*
X72290Y248039D01*
X72358Y247987D01*
X72423Y247933D01*
X72486Y247875D01*
X72547Y247814D01*
X72605Y247751D01*
X72659Y247686D01*
X72711Y247618D01*
X72760Y247547D01*
X72805Y247475D01*
X72848Y247401D01*
X72886Y247325D01*
X72922Y247247D01*
X72954Y247167D01*
X72982Y247087D01*
X73006Y247005D01*
X73027Y246922D01*
X73044Y246838D01*
X73058Y246754D01*
X73067Y246669D01*
X73073Y246583D01*
X73075Y246498D01*
X73073Y246413D01*
X73067Y246327D01*
X73058Y246242D01*
X73044Y246158D01*
X73027Y246074D01*
X73006Y245991D01*
X72982Y245909D01*
X72954Y245829D01*
X72922Y245749D01*
X72886Y245671D01*
X72848Y245595D01*
X72805Y245521D01*
X72760Y245449D01*
X72711Y245378D01*
X72659Y245310D01*
X72605Y245245D01*
X72547Y245182D01*
X72486Y245121D01*
X72423Y245063D01*
X72358Y245009D01*
X72290Y244957D01*
X72219Y244908D01*
X72147Y244863D01*
X72073Y244820D01*
X71997Y244782D01*
X71919Y244746D01*
X71839Y244714D01*
X71759Y244686D01*
X71677Y244662D01*
X71594Y244641D01*
X71510Y244624D01*
X71426Y244610D01*
X71341Y244601D01*
X71255Y244595D01*
X71170Y244593D01*
X71085Y244595D01*
X70999Y244601D01*
X70914Y244610D01*
X70830Y244624D01*
X70746Y244641D01*
X70663Y244662D01*
X70581Y244686D01*
X70501Y244714D01*
X70421Y244746D01*
X70343Y244782D01*
X70267Y244820D01*
X70193Y244863D01*
X70121Y244908D01*
X70050Y244957D01*
X69982Y245009D01*
X69917Y245063D01*
X69854Y245121D01*
X69793Y245182D01*
X69735Y245245D01*
X69681Y245310D01*
X69629Y245378D01*
X69580Y245449D01*
X69535Y245521D01*
X69492Y245595D01*
X69454Y245671D01*
X69418Y245749D01*
X69386Y245829D01*
X69358Y245909D01*
X69334Y245991D01*
X69313Y246074D01*
X69296Y246158D01*
X69282Y246242D01*
X69273Y246327D01*
X69267Y246413D01*
X69265Y246498D01*
X69646Y249927D02*
X69648Y250004D01*
X69654Y250081D01*
X69664Y250158D01*
X69677Y250234D01*
X69695Y250309D01*
X69716Y250383D01*
X69741Y250456D01*
X69770Y250528D01*
X69802Y250598D01*
X69837Y250667D01*
X69877Y250733D01*
X69919Y250798D01*
X69965Y250860D01*
X70014Y250920D01*
X70065Y250977D01*
X70120Y251032D01*
X70177Y251083D01*
X70237Y251132D01*
X70299Y251178D01*
X70364Y251220D01*
X70430Y251260D01*
X70499Y251295D01*
X70569Y251327D01*
X70641Y251356D01*
X70714Y251381D01*
X70788Y251402D01*
X70863Y251420D01*
X70939Y251433D01*
X71016Y251443D01*
X71093Y251449D01*
X71170Y251451D01*
X71247Y251449D01*
X71324Y251443D01*
X71401Y251433D01*
X71477Y251420D01*
X71552Y251402D01*
X71626Y251381D01*
X71699Y251356D01*
X71771Y251327D01*
X71841Y251295D01*
X71910Y251260D01*
X71976Y251220D01*
X72041Y251178D01*
X72103Y251132D01*
X72163Y251083D01*
X72220Y251032D01*
X72275Y250977D01*
X72326Y250920D01*
X72375Y250860D01*
X72421Y250798D01*
X72463Y250733D01*
X72503Y250667D01*
X72538Y250598D01*
X72570Y250528D01*
X72599Y250456D01*
X72624Y250383D01*
X72645Y250309D01*
X72663Y250234D01*
X72676Y250158D01*
X72686Y250081D01*
X72692Y250004D01*
X72694Y249927D01*
X72692Y249850D01*
X72686Y249773D01*
X72676Y249696D01*
X72663Y249620D01*
X72645Y249545D01*
X72624Y249471D01*
X72599Y249398D01*
X72570Y249326D01*
X72538Y249256D01*
X72503Y249187D01*
X72463Y249121D01*
X72421Y249056D01*
X72375Y248994D01*
X72326Y248934D01*
X72275Y248877D01*
X72220Y248822D01*
X72163Y248771D01*
X72103Y248722D01*
X72041Y248676D01*
X71976Y248634D01*
X71910Y248594D01*
X71841Y248559D01*
X71771Y248527D01*
X71699Y248498D01*
X71626Y248473D01*
X71552Y248452D01*
X71477Y248434D01*
X71401Y248421D01*
X71324Y248411D01*
X71247Y248405D01*
X71170Y248403D01*
X71093Y248405D01*
X71016Y248411D01*
X70939Y248421D01*
X70863Y248434D01*
X70788Y248452D01*
X70714Y248473D01*
X70641Y248498D01*
X70569Y248527D01*
X70499Y248559D01*
X70430Y248594D01*
X70364Y248634D01*
X70299Y248676D01*
X70237Y248722D01*
X70177Y248771D01*
X70120Y248822D01*
X70065Y248877D01*
X70014Y248934D01*
X69965Y248994D01*
X69919Y249056D01*
X69877Y249121D01*
X69837Y249187D01*
X69802Y249256D01*
X69770Y249326D01*
X69741Y249398D01*
X69716Y249471D01*
X69695Y249545D01*
X69677Y249620D01*
X69664Y249696D01*
X69654Y249773D01*
X69648Y249850D01*
X69646Y249927D01*
X73605Y343605D02*
X73605Y345129D01*
X73605Y343605D02*
X73603Y343528D01*
X73597Y343451D01*
X73587Y343374D01*
X73574Y343298D01*
X73556Y343223D01*
X73535Y343149D01*
X73510Y343076D01*
X73481Y343004D01*
X73449Y342934D01*
X73414Y342865D01*
X73374Y342799D01*
X73332Y342734D01*
X73286Y342672D01*
X73237Y342612D01*
X73186Y342555D01*
X73131Y342500D01*
X73074Y342449D01*
X73014Y342400D01*
X72952Y342354D01*
X72887Y342312D01*
X72821Y342272D01*
X72752Y342237D01*
X72682Y342205D01*
X72610Y342176D01*
X72537Y342151D01*
X72463Y342130D01*
X72388Y342112D01*
X72312Y342099D01*
X72235Y342089D01*
X72158Y342083D01*
X72081Y342081D01*
X68271Y342081D01*
X68194Y342083D01*
X68117Y342089D01*
X68040Y342099D01*
X67964Y342112D01*
X67889Y342130D01*
X67815Y342151D01*
X67742Y342176D01*
X67670Y342205D01*
X67600Y342237D01*
X67531Y342272D01*
X67465Y342312D01*
X67400Y342354D01*
X67338Y342400D01*
X67278Y342449D01*
X67221Y342500D01*
X67166Y342555D01*
X67115Y342612D01*
X67066Y342672D01*
X67020Y342734D01*
X66978Y342799D01*
X66938Y342865D01*
X66903Y342934D01*
X66871Y343004D01*
X66842Y343076D01*
X66817Y343149D01*
X66796Y343223D01*
X66778Y343298D01*
X66765Y343374D01*
X66755Y343451D01*
X66749Y343528D01*
X66747Y343605D01*
X66747Y345129D01*
X69795Y347819D02*
X69795Y350105D01*
X69797Y350182D01*
X69803Y350259D01*
X69813Y350336D01*
X69826Y350412D01*
X69844Y350487D01*
X69865Y350561D01*
X69890Y350634D01*
X69919Y350706D01*
X69951Y350776D01*
X69986Y350845D01*
X70026Y350911D01*
X70068Y350976D01*
X70114Y351038D01*
X70163Y351098D01*
X70214Y351155D01*
X70269Y351210D01*
X70326Y351261D01*
X70386Y351310D01*
X70448Y351356D01*
X70513Y351398D01*
X70579Y351438D01*
X70648Y351473D01*
X70718Y351505D01*
X70790Y351534D01*
X70863Y351559D01*
X70937Y351580D01*
X71012Y351598D01*
X71088Y351611D01*
X71165Y351621D01*
X71242Y351627D01*
X71319Y351629D01*
X71700Y351629D01*
X71785Y351627D01*
X71871Y351621D01*
X71956Y351612D01*
X72040Y351598D01*
X72124Y351581D01*
X72207Y351560D01*
X72289Y351536D01*
X72369Y351508D01*
X72449Y351476D01*
X72527Y351440D01*
X72603Y351402D01*
X72677Y351359D01*
X72749Y351314D01*
X72820Y351265D01*
X72888Y351213D01*
X72953Y351159D01*
X73016Y351101D01*
X73077Y351040D01*
X73135Y350977D01*
X73189Y350912D01*
X73241Y350844D01*
X73290Y350773D01*
X73335Y350701D01*
X73378Y350627D01*
X73416Y350551D01*
X73452Y350473D01*
X73484Y350393D01*
X73512Y350313D01*
X73536Y350231D01*
X73557Y350148D01*
X73574Y350064D01*
X73588Y349980D01*
X73597Y349895D01*
X73603Y349809D01*
X73605Y349724D01*
X73603Y349639D01*
X73597Y349553D01*
X73588Y349468D01*
X73574Y349384D01*
X73557Y349300D01*
X73536Y349217D01*
X73512Y349135D01*
X73484Y349055D01*
X73452Y348975D01*
X73416Y348897D01*
X73378Y348821D01*
X73335Y348747D01*
X73290Y348675D01*
X73241Y348604D01*
X73189Y348536D01*
X73135Y348471D01*
X73077Y348408D01*
X73016Y348347D01*
X72953Y348289D01*
X72888Y348235D01*
X72820Y348183D01*
X72749Y348134D01*
X72677Y348089D01*
X72603Y348046D01*
X72527Y348008D01*
X72449Y347972D01*
X72369Y347940D01*
X72289Y347912D01*
X72207Y347888D01*
X72124Y347867D01*
X72040Y347850D01*
X71956Y347836D01*
X71871Y347827D01*
X71785Y347821D01*
X71700Y347819D01*
X69795Y347819D01*
X69686Y347821D01*
X69578Y347827D01*
X69469Y347836D01*
X69361Y347850D01*
X69254Y347867D01*
X69147Y347889D01*
X69041Y347914D01*
X68936Y347942D01*
X68832Y347975D01*
X68730Y348011D01*
X68629Y348051D01*
X68529Y348094D01*
X68431Y348141D01*
X68334Y348192D01*
X68240Y348246D01*
X68147Y348303D01*
X68057Y348363D01*
X67968Y348427D01*
X67882Y348494D01*
X67799Y348563D01*
X67718Y348636D01*
X67640Y348712D01*
X67564Y348790D01*
X67491Y348871D01*
X67422Y348954D01*
X67355Y349040D01*
X67291Y349129D01*
X67231Y349219D01*
X67174Y349312D01*
X67120Y349406D01*
X67069Y349503D01*
X67022Y349601D01*
X66979Y349701D01*
X66939Y349802D01*
X66903Y349904D01*
X66870Y350008D01*
X66842Y350113D01*
X66817Y350219D01*
X66795Y350326D01*
X66778Y350433D01*
X66764Y350541D01*
X66755Y350650D01*
X66749Y350758D01*
X66747Y350867D01*
X73145Y328122D02*
X73145Y326598D01*
X73143Y326521D01*
X73137Y326444D01*
X73127Y326367D01*
X73114Y326291D01*
X73096Y326216D01*
X73075Y326142D01*
X73050Y326069D01*
X73021Y325997D01*
X72989Y325927D01*
X72954Y325858D01*
X72914Y325792D01*
X72872Y325727D01*
X72826Y325665D01*
X72777Y325605D01*
X72726Y325548D01*
X72671Y325493D01*
X72614Y325442D01*
X72554Y325393D01*
X72492Y325347D01*
X72427Y325305D01*
X72361Y325265D01*
X72292Y325230D01*
X72222Y325198D01*
X72150Y325169D01*
X72077Y325144D01*
X72003Y325123D01*
X71928Y325105D01*
X71852Y325092D01*
X71775Y325082D01*
X71698Y325076D01*
X71621Y325074D01*
X67811Y325074D01*
X67734Y325076D01*
X67657Y325082D01*
X67580Y325092D01*
X67504Y325105D01*
X67429Y325123D01*
X67355Y325144D01*
X67282Y325169D01*
X67210Y325198D01*
X67140Y325230D01*
X67071Y325265D01*
X67005Y325305D01*
X66940Y325347D01*
X66878Y325393D01*
X66818Y325442D01*
X66761Y325493D01*
X66706Y325548D01*
X66655Y325605D01*
X66606Y325665D01*
X66560Y325727D01*
X66518Y325792D01*
X66478Y325858D01*
X66443Y325927D01*
X66411Y325997D01*
X66382Y326069D01*
X66357Y326142D01*
X66336Y326216D01*
X66318Y326291D01*
X66305Y326367D01*
X66295Y326444D01*
X66289Y326521D01*
X66287Y326598D01*
X66287Y328122D01*
X66287Y330811D02*
X67049Y330811D01*
X66287Y330811D02*
X66287Y334621D01*
X73145Y332716D01*
X58776Y300484D02*
X57252Y300484D01*
X57175Y300486D01*
X57098Y300492D01*
X57021Y300502D01*
X56945Y300515D01*
X56870Y300533D01*
X56796Y300554D01*
X56723Y300579D01*
X56651Y300608D01*
X56581Y300640D01*
X56512Y300675D01*
X56446Y300715D01*
X56381Y300757D01*
X56319Y300803D01*
X56259Y300852D01*
X56202Y300903D01*
X56147Y300958D01*
X56096Y301015D01*
X56047Y301075D01*
X56001Y301137D01*
X55959Y301202D01*
X55919Y301268D01*
X55884Y301337D01*
X55852Y301407D01*
X55823Y301479D01*
X55798Y301552D01*
X55777Y301626D01*
X55759Y301701D01*
X55746Y301777D01*
X55736Y301854D01*
X55730Y301931D01*
X55728Y302008D01*
X55728Y305818D01*
X55730Y305895D01*
X55736Y305972D01*
X55746Y306049D01*
X55759Y306125D01*
X55777Y306200D01*
X55798Y306274D01*
X55823Y306347D01*
X55852Y306419D01*
X55884Y306489D01*
X55919Y306558D01*
X55959Y306624D01*
X56001Y306689D01*
X56047Y306751D01*
X56096Y306811D01*
X56147Y306868D01*
X56202Y306923D01*
X56259Y306974D01*
X56319Y307023D01*
X56381Y307069D01*
X56446Y307111D01*
X56512Y307151D01*
X56581Y307186D01*
X56651Y307218D01*
X56723Y307247D01*
X56796Y307272D01*
X56870Y307293D01*
X56945Y307311D01*
X57021Y307324D01*
X57098Y307334D01*
X57175Y307340D01*
X57252Y307342D01*
X58776Y307342D01*
X61465Y305818D02*
X63370Y307342D01*
X63370Y300484D01*
X61465Y300484D02*
X65275Y300484D01*
X68323Y305818D02*
X70228Y307342D01*
X70228Y300484D01*
X68323Y300484D02*
X72133Y300484D01*
X59125Y254941D02*
X57601Y254941D01*
X57524Y254943D01*
X57447Y254949D01*
X57370Y254959D01*
X57294Y254972D01*
X57219Y254990D01*
X57145Y255011D01*
X57072Y255036D01*
X57000Y255065D01*
X56930Y255097D01*
X56861Y255132D01*
X56795Y255172D01*
X56730Y255214D01*
X56668Y255260D01*
X56608Y255309D01*
X56551Y255360D01*
X56496Y255415D01*
X56445Y255472D01*
X56396Y255532D01*
X56350Y255594D01*
X56308Y255659D01*
X56268Y255725D01*
X56233Y255794D01*
X56201Y255864D01*
X56172Y255936D01*
X56147Y256009D01*
X56126Y256083D01*
X56108Y256158D01*
X56095Y256234D01*
X56085Y256311D01*
X56079Y256388D01*
X56077Y256465D01*
X56077Y260275D01*
X56079Y260352D01*
X56085Y260429D01*
X56095Y260506D01*
X56108Y260582D01*
X56126Y260657D01*
X56147Y260731D01*
X56172Y260804D01*
X56201Y260876D01*
X56233Y260946D01*
X56268Y261015D01*
X56308Y261081D01*
X56350Y261146D01*
X56396Y261208D01*
X56445Y261268D01*
X56496Y261325D01*
X56551Y261380D01*
X56608Y261431D01*
X56668Y261480D01*
X56730Y261526D01*
X56795Y261568D01*
X56861Y261608D01*
X56930Y261643D01*
X57000Y261675D01*
X57072Y261704D01*
X57145Y261729D01*
X57219Y261750D01*
X57294Y261768D01*
X57370Y261781D01*
X57447Y261791D01*
X57524Y261797D01*
X57601Y261799D01*
X59125Y261799D01*
X61814Y260275D02*
X63719Y261799D01*
X63719Y254941D01*
X61814Y254941D02*
X65624Y254941D01*
X72483Y260085D02*
X72481Y260167D01*
X72475Y260248D01*
X72466Y260329D01*
X72452Y260410D01*
X72435Y260489D01*
X72414Y260568D01*
X72389Y260646D01*
X72360Y260722D01*
X72328Y260797D01*
X72292Y260871D01*
X72253Y260943D01*
X72211Y261012D01*
X72165Y261080D01*
X72116Y261145D01*
X72064Y261208D01*
X72009Y261268D01*
X71951Y261326D01*
X71891Y261381D01*
X71828Y261433D01*
X71763Y261482D01*
X71695Y261528D01*
X71626Y261570D01*
X71554Y261609D01*
X71480Y261645D01*
X71405Y261677D01*
X71329Y261706D01*
X71251Y261731D01*
X71172Y261752D01*
X71093Y261769D01*
X71012Y261783D01*
X70931Y261792D01*
X70850Y261798D01*
X70768Y261800D01*
X70768Y261799D02*
X70676Y261797D01*
X70584Y261791D01*
X70492Y261782D01*
X70400Y261768D01*
X70310Y261751D01*
X70220Y261730D01*
X70131Y261705D01*
X70043Y261676D01*
X69956Y261644D01*
X69871Y261608D01*
X69788Y261569D01*
X69706Y261526D01*
X69626Y261480D01*
X69548Y261430D01*
X69472Y261378D01*
X69399Y261322D01*
X69328Y261263D01*
X69259Y261201D01*
X69193Y261136D01*
X69130Y261069D01*
X69070Y260999D01*
X69012Y260927D01*
X68958Y260852D01*
X68907Y260775D01*
X68859Y260696D01*
X68815Y260615D01*
X68774Y260532D01*
X68736Y260448D01*
X68702Y260362D01*
X68672Y260275D01*
X71911Y258751D02*
X71970Y258810D01*
X72026Y258871D01*
X72079Y258934D01*
X72130Y259000D01*
X72177Y259068D01*
X72221Y259138D01*
X72262Y259210D01*
X72300Y259284D01*
X72334Y259359D01*
X72365Y259436D01*
X72392Y259514D01*
X72416Y259594D01*
X72437Y259674D01*
X72453Y259755D01*
X72466Y259837D01*
X72476Y259919D01*
X72481Y260002D01*
X72483Y260085D01*
X71911Y258751D02*
X68672Y254941D01*
X72482Y254941D01*
X208065Y265323D02*
X209589Y265323D01*
X208065Y265323D02*
X207988Y265325D01*
X207911Y265331D01*
X207834Y265341D01*
X207758Y265354D01*
X207683Y265372D01*
X207609Y265393D01*
X207536Y265418D01*
X207464Y265447D01*
X207394Y265479D01*
X207325Y265514D01*
X207259Y265554D01*
X207194Y265596D01*
X207132Y265642D01*
X207072Y265691D01*
X207015Y265742D01*
X206960Y265797D01*
X206909Y265854D01*
X206860Y265914D01*
X206814Y265976D01*
X206772Y266041D01*
X206732Y266107D01*
X206697Y266176D01*
X206665Y266246D01*
X206636Y266318D01*
X206611Y266391D01*
X206590Y266465D01*
X206572Y266540D01*
X206559Y266616D01*
X206549Y266693D01*
X206543Y266770D01*
X206541Y266847D01*
X206541Y270657D01*
X206543Y270734D01*
X206549Y270811D01*
X206559Y270888D01*
X206572Y270964D01*
X206590Y271039D01*
X206611Y271113D01*
X206636Y271186D01*
X206665Y271258D01*
X206697Y271328D01*
X206732Y271397D01*
X206772Y271463D01*
X206814Y271528D01*
X206860Y271590D01*
X206909Y271650D01*
X206960Y271707D01*
X207015Y271762D01*
X207072Y271813D01*
X207132Y271862D01*
X207194Y271908D01*
X207259Y271950D01*
X207325Y271990D01*
X207394Y272025D01*
X207464Y272057D01*
X207536Y272086D01*
X207609Y272111D01*
X207683Y272132D01*
X207758Y272150D01*
X207834Y272163D01*
X207911Y272173D01*
X207988Y272179D01*
X208065Y272181D01*
X209589Y272181D01*
X212278Y270657D02*
X214183Y272181D01*
X214183Y265323D01*
X212278Y265323D02*
X216088Y265323D01*
X219136Y265323D02*
X221041Y265323D01*
X221126Y265325D01*
X221212Y265331D01*
X221297Y265340D01*
X221381Y265354D01*
X221465Y265371D01*
X221548Y265392D01*
X221630Y265416D01*
X221710Y265444D01*
X221790Y265476D01*
X221868Y265512D01*
X221944Y265550D01*
X222018Y265593D01*
X222090Y265638D01*
X222161Y265687D01*
X222229Y265739D01*
X222294Y265793D01*
X222357Y265851D01*
X222418Y265912D01*
X222476Y265975D01*
X222530Y266040D01*
X222582Y266108D01*
X222631Y266179D01*
X222676Y266251D01*
X222719Y266325D01*
X222757Y266401D01*
X222793Y266479D01*
X222825Y266559D01*
X222853Y266639D01*
X222877Y266721D01*
X222898Y266804D01*
X222915Y266888D01*
X222929Y266972D01*
X222938Y267057D01*
X222944Y267143D01*
X222946Y267228D01*
X222944Y267313D01*
X222938Y267399D01*
X222929Y267484D01*
X222915Y267568D01*
X222898Y267652D01*
X222877Y267735D01*
X222853Y267817D01*
X222825Y267897D01*
X222793Y267977D01*
X222757Y268055D01*
X222719Y268131D01*
X222676Y268205D01*
X222631Y268277D01*
X222582Y268348D01*
X222530Y268416D01*
X222476Y268481D01*
X222418Y268544D01*
X222357Y268605D01*
X222294Y268663D01*
X222229Y268717D01*
X222161Y268769D01*
X222090Y268818D01*
X222018Y268863D01*
X221944Y268906D01*
X221868Y268944D01*
X221790Y268980D01*
X221710Y269012D01*
X221630Y269040D01*
X221548Y269064D01*
X221465Y269085D01*
X221381Y269102D01*
X221297Y269116D01*
X221212Y269125D01*
X221126Y269131D01*
X221041Y269133D01*
X221422Y272181D02*
X219136Y272181D01*
X221422Y272181D02*
X221499Y272179D01*
X221576Y272173D01*
X221653Y272163D01*
X221729Y272150D01*
X221804Y272132D01*
X221878Y272111D01*
X221951Y272086D01*
X222023Y272057D01*
X222093Y272025D01*
X222162Y271990D01*
X222228Y271950D01*
X222293Y271908D01*
X222355Y271862D01*
X222415Y271813D01*
X222472Y271762D01*
X222527Y271707D01*
X222578Y271650D01*
X222627Y271590D01*
X222673Y271528D01*
X222715Y271463D01*
X222755Y271397D01*
X222790Y271328D01*
X222822Y271258D01*
X222851Y271186D01*
X222876Y271113D01*
X222897Y271039D01*
X222915Y270964D01*
X222928Y270888D01*
X222938Y270811D01*
X222944Y270734D01*
X222946Y270657D01*
X222944Y270580D01*
X222938Y270503D01*
X222928Y270426D01*
X222915Y270350D01*
X222897Y270275D01*
X222876Y270201D01*
X222851Y270128D01*
X222822Y270056D01*
X222790Y269986D01*
X222755Y269917D01*
X222715Y269851D01*
X222673Y269786D01*
X222627Y269724D01*
X222578Y269664D01*
X222527Y269607D01*
X222472Y269552D01*
X222415Y269501D01*
X222355Y269452D01*
X222293Y269406D01*
X222228Y269364D01*
X222162Y269324D01*
X222093Y269289D01*
X222023Y269257D01*
X221951Y269228D01*
X221878Y269203D01*
X221804Y269182D01*
X221729Y269164D01*
X221653Y269151D01*
X221576Y269141D01*
X221499Y269135D01*
X221422Y269133D01*
X219898Y269133D01*
X206688Y231698D02*
X205164Y231698D01*
X205087Y231700D01*
X205010Y231706D01*
X204933Y231716D01*
X204857Y231729D01*
X204782Y231747D01*
X204708Y231768D01*
X204635Y231793D01*
X204563Y231822D01*
X204493Y231854D01*
X204424Y231889D01*
X204358Y231929D01*
X204293Y231971D01*
X204231Y232017D01*
X204171Y232066D01*
X204114Y232117D01*
X204059Y232172D01*
X204008Y232229D01*
X203959Y232289D01*
X203913Y232351D01*
X203871Y232416D01*
X203831Y232482D01*
X203796Y232551D01*
X203764Y232621D01*
X203735Y232693D01*
X203710Y232766D01*
X203689Y232840D01*
X203671Y232915D01*
X203658Y232991D01*
X203648Y233068D01*
X203642Y233145D01*
X203640Y233222D01*
X203640Y237032D01*
X203642Y237109D01*
X203648Y237186D01*
X203658Y237263D01*
X203671Y237339D01*
X203689Y237414D01*
X203710Y237488D01*
X203735Y237561D01*
X203764Y237633D01*
X203796Y237703D01*
X203831Y237772D01*
X203871Y237838D01*
X203913Y237903D01*
X203959Y237965D01*
X204008Y238025D01*
X204059Y238082D01*
X204114Y238137D01*
X204171Y238188D01*
X204231Y238237D01*
X204293Y238283D01*
X204358Y238325D01*
X204424Y238365D01*
X204493Y238400D01*
X204563Y238432D01*
X204635Y238461D01*
X204708Y238486D01*
X204782Y238507D01*
X204857Y238525D01*
X204933Y238538D01*
X205010Y238548D01*
X205087Y238554D01*
X205164Y238556D01*
X206688Y238556D01*
X209377Y237032D02*
X211282Y238556D01*
X211282Y231698D01*
X209377Y231698D02*
X213187Y231698D01*
X216235Y231698D02*
X218521Y231698D01*
X218598Y231700D01*
X218675Y231706D01*
X218752Y231716D01*
X218828Y231729D01*
X218903Y231747D01*
X218977Y231768D01*
X219050Y231793D01*
X219122Y231822D01*
X219192Y231854D01*
X219261Y231889D01*
X219327Y231929D01*
X219392Y231971D01*
X219454Y232017D01*
X219514Y232066D01*
X219571Y232117D01*
X219626Y232172D01*
X219677Y232229D01*
X219726Y232289D01*
X219772Y232351D01*
X219814Y232416D01*
X219854Y232482D01*
X219889Y232551D01*
X219921Y232621D01*
X219950Y232693D01*
X219975Y232766D01*
X219996Y232840D01*
X220014Y232915D01*
X220027Y232991D01*
X220037Y233068D01*
X220043Y233145D01*
X220045Y233222D01*
X220045Y233984D01*
X220043Y234061D01*
X220037Y234138D01*
X220027Y234215D01*
X220014Y234291D01*
X219996Y234366D01*
X219975Y234440D01*
X219950Y234513D01*
X219921Y234585D01*
X219889Y234655D01*
X219854Y234724D01*
X219814Y234790D01*
X219772Y234855D01*
X219726Y234917D01*
X219677Y234977D01*
X219626Y235034D01*
X219571Y235089D01*
X219514Y235140D01*
X219454Y235189D01*
X219392Y235235D01*
X219327Y235277D01*
X219261Y235317D01*
X219192Y235352D01*
X219122Y235384D01*
X219050Y235413D01*
X218977Y235438D01*
X218903Y235459D01*
X218828Y235477D01*
X218752Y235490D01*
X218675Y235500D01*
X218598Y235506D01*
X218521Y235508D01*
X216235Y235508D01*
X216235Y238556D01*
X220045Y238556D01*
D17*
X178048Y217421D02*
X178048Y212321D01*
X164048Y212321D02*
X164048Y217421D01*
D10*
X189288Y207607D02*
X189288Y206083D01*
X189286Y206006D01*
X189280Y205929D01*
X189270Y205852D01*
X189257Y205776D01*
X189239Y205701D01*
X189218Y205627D01*
X189193Y205554D01*
X189164Y205482D01*
X189132Y205412D01*
X189097Y205343D01*
X189057Y205277D01*
X189015Y205212D01*
X188969Y205150D01*
X188920Y205090D01*
X188869Y205033D01*
X188814Y204978D01*
X188757Y204927D01*
X188697Y204878D01*
X188635Y204832D01*
X188570Y204790D01*
X188504Y204750D01*
X188435Y204715D01*
X188365Y204683D01*
X188293Y204654D01*
X188220Y204629D01*
X188146Y204608D01*
X188071Y204590D01*
X187995Y204577D01*
X187918Y204567D01*
X187841Y204561D01*
X187764Y204559D01*
X183954Y204559D01*
X183877Y204561D01*
X183800Y204567D01*
X183723Y204577D01*
X183647Y204590D01*
X183572Y204608D01*
X183498Y204629D01*
X183425Y204654D01*
X183353Y204683D01*
X183283Y204715D01*
X183214Y204750D01*
X183148Y204790D01*
X183083Y204832D01*
X183021Y204878D01*
X182961Y204927D01*
X182904Y204978D01*
X182849Y205033D01*
X182798Y205090D01*
X182749Y205150D01*
X182703Y205212D01*
X182661Y205277D01*
X182621Y205343D01*
X182586Y205412D01*
X182554Y205482D01*
X182525Y205554D01*
X182500Y205627D01*
X182479Y205701D01*
X182461Y205776D01*
X182448Y205852D01*
X182438Y205929D01*
X182432Y206006D01*
X182430Y206083D01*
X182430Y207607D01*
X183954Y210296D02*
X182430Y212201D01*
X189288Y212201D01*
X189288Y210296D02*
X189288Y214106D01*
X187764Y217154D02*
X182430Y218678D01*
X187764Y217154D02*
X187764Y220964D01*
X186240Y219821D02*
X189288Y219821D01*
D17*
X120630Y217278D02*
X120630Y212178D01*
X134630Y212178D02*
X134630Y217278D01*
D10*
X117581Y203425D02*
X117581Y201901D01*
X117579Y201824D01*
X117573Y201747D01*
X117563Y201670D01*
X117550Y201594D01*
X117532Y201519D01*
X117511Y201445D01*
X117486Y201372D01*
X117457Y201300D01*
X117425Y201230D01*
X117390Y201161D01*
X117350Y201095D01*
X117308Y201030D01*
X117262Y200968D01*
X117213Y200908D01*
X117162Y200851D01*
X117107Y200796D01*
X117050Y200745D01*
X116990Y200696D01*
X116928Y200650D01*
X116863Y200608D01*
X116797Y200568D01*
X116728Y200533D01*
X116658Y200501D01*
X116586Y200472D01*
X116513Y200447D01*
X116439Y200426D01*
X116364Y200408D01*
X116288Y200395D01*
X116211Y200385D01*
X116134Y200379D01*
X116057Y200377D01*
X112247Y200377D01*
X112170Y200379D01*
X112093Y200385D01*
X112016Y200395D01*
X111940Y200408D01*
X111865Y200426D01*
X111791Y200447D01*
X111718Y200472D01*
X111646Y200501D01*
X111576Y200533D01*
X111507Y200568D01*
X111441Y200608D01*
X111376Y200650D01*
X111314Y200696D01*
X111254Y200745D01*
X111197Y200796D01*
X111142Y200851D01*
X111091Y200908D01*
X111042Y200968D01*
X110996Y201030D01*
X110954Y201095D01*
X110914Y201161D01*
X110879Y201230D01*
X110847Y201300D01*
X110818Y201372D01*
X110793Y201445D01*
X110772Y201519D01*
X110754Y201594D01*
X110741Y201670D01*
X110731Y201747D01*
X110725Y201824D01*
X110723Y201901D01*
X110723Y203425D01*
X112247Y206114D02*
X110723Y208019D01*
X117581Y208019D01*
X117581Y206114D02*
X117581Y209924D01*
X113771Y212972D02*
X113771Y215258D01*
X113773Y215335D01*
X113779Y215412D01*
X113789Y215489D01*
X113802Y215565D01*
X113820Y215640D01*
X113841Y215714D01*
X113866Y215787D01*
X113895Y215859D01*
X113927Y215929D01*
X113962Y215998D01*
X114002Y216064D01*
X114044Y216129D01*
X114090Y216191D01*
X114139Y216251D01*
X114190Y216308D01*
X114245Y216363D01*
X114302Y216414D01*
X114362Y216463D01*
X114424Y216509D01*
X114489Y216551D01*
X114555Y216591D01*
X114624Y216626D01*
X114694Y216658D01*
X114766Y216687D01*
X114839Y216712D01*
X114913Y216733D01*
X114988Y216751D01*
X115064Y216764D01*
X115141Y216774D01*
X115218Y216780D01*
X115295Y216782D01*
X115676Y216782D01*
X115761Y216780D01*
X115847Y216774D01*
X115932Y216765D01*
X116016Y216751D01*
X116100Y216734D01*
X116183Y216713D01*
X116265Y216689D01*
X116345Y216661D01*
X116425Y216629D01*
X116503Y216593D01*
X116579Y216555D01*
X116653Y216512D01*
X116725Y216467D01*
X116796Y216418D01*
X116864Y216366D01*
X116929Y216312D01*
X116992Y216254D01*
X117053Y216193D01*
X117111Y216130D01*
X117165Y216065D01*
X117217Y215997D01*
X117266Y215926D01*
X117311Y215854D01*
X117354Y215780D01*
X117392Y215704D01*
X117428Y215626D01*
X117460Y215546D01*
X117488Y215466D01*
X117512Y215384D01*
X117533Y215301D01*
X117550Y215217D01*
X117564Y215133D01*
X117573Y215048D01*
X117579Y214962D01*
X117581Y214877D01*
X117579Y214792D01*
X117573Y214706D01*
X117564Y214621D01*
X117550Y214537D01*
X117533Y214453D01*
X117512Y214370D01*
X117488Y214288D01*
X117460Y214208D01*
X117428Y214128D01*
X117392Y214050D01*
X117354Y213974D01*
X117311Y213900D01*
X117266Y213828D01*
X117217Y213757D01*
X117165Y213689D01*
X117111Y213624D01*
X117053Y213561D01*
X116992Y213500D01*
X116929Y213442D01*
X116864Y213388D01*
X116796Y213336D01*
X116725Y213287D01*
X116653Y213242D01*
X116579Y213199D01*
X116503Y213161D01*
X116425Y213125D01*
X116345Y213093D01*
X116265Y213065D01*
X116183Y213041D01*
X116100Y213020D01*
X116016Y213003D01*
X115932Y212989D01*
X115847Y212980D01*
X115761Y212974D01*
X115676Y212972D01*
X113771Y212972D01*
X113662Y212974D01*
X113554Y212980D01*
X113445Y212989D01*
X113337Y213003D01*
X113230Y213020D01*
X113123Y213042D01*
X113017Y213067D01*
X112912Y213095D01*
X112808Y213128D01*
X112706Y213164D01*
X112605Y213204D01*
X112505Y213247D01*
X112407Y213294D01*
X112310Y213345D01*
X112216Y213399D01*
X112123Y213456D01*
X112033Y213516D01*
X111944Y213580D01*
X111858Y213647D01*
X111775Y213716D01*
X111694Y213789D01*
X111616Y213865D01*
X111540Y213943D01*
X111467Y214024D01*
X111398Y214107D01*
X111331Y214193D01*
X111267Y214282D01*
X111207Y214372D01*
X111150Y214465D01*
X111096Y214559D01*
X111045Y214656D01*
X110998Y214754D01*
X110955Y214854D01*
X110915Y214955D01*
X110879Y215057D01*
X110846Y215161D01*
X110818Y215266D01*
X110793Y215372D01*
X110771Y215479D01*
X110754Y215586D01*
X110740Y215694D01*
X110731Y215803D01*
X110725Y215911D01*
X110723Y216020D01*
X207573Y275246D02*
X209097Y275246D01*
X207573Y275246D02*
X207496Y275248D01*
X207419Y275254D01*
X207342Y275264D01*
X207266Y275277D01*
X207191Y275295D01*
X207117Y275316D01*
X207044Y275341D01*
X206972Y275370D01*
X206902Y275402D01*
X206833Y275437D01*
X206767Y275477D01*
X206702Y275519D01*
X206640Y275565D01*
X206580Y275614D01*
X206523Y275665D01*
X206468Y275720D01*
X206417Y275777D01*
X206368Y275837D01*
X206322Y275899D01*
X206280Y275964D01*
X206240Y276030D01*
X206205Y276099D01*
X206173Y276169D01*
X206144Y276241D01*
X206119Y276314D01*
X206098Y276388D01*
X206080Y276463D01*
X206067Y276539D01*
X206057Y276616D01*
X206051Y276693D01*
X206049Y276770D01*
X206049Y280580D01*
X206051Y280657D01*
X206057Y280734D01*
X206067Y280811D01*
X206080Y280887D01*
X206098Y280962D01*
X206119Y281036D01*
X206144Y281109D01*
X206173Y281181D01*
X206205Y281251D01*
X206240Y281320D01*
X206280Y281386D01*
X206322Y281451D01*
X206368Y281513D01*
X206417Y281573D01*
X206468Y281630D01*
X206523Y281685D01*
X206580Y281736D01*
X206640Y281785D01*
X206702Y281831D01*
X206767Y281873D01*
X206833Y281913D01*
X206902Y281948D01*
X206972Y281980D01*
X207044Y282009D01*
X207117Y282034D01*
X207191Y282055D01*
X207266Y282073D01*
X207342Y282086D01*
X207419Y282096D01*
X207496Y282102D01*
X207573Y282104D01*
X209097Y282104D01*
X211786Y280580D02*
X213691Y282104D01*
X213691Y275246D01*
X211786Y275246D02*
X215596Y275246D01*
X218644Y281342D02*
X218644Y282104D01*
X222454Y282104D01*
X220549Y275246D01*
X199520Y322762D02*
X197996Y322762D01*
X197919Y322764D01*
X197842Y322770D01*
X197765Y322780D01*
X197689Y322793D01*
X197614Y322811D01*
X197540Y322832D01*
X197467Y322857D01*
X197395Y322886D01*
X197325Y322918D01*
X197256Y322953D01*
X197190Y322993D01*
X197125Y323035D01*
X197063Y323081D01*
X197003Y323130D01*
X196946Y323181D01*
X196891Y323236D01*
X196840Y323293D01*
X196791Y323353D01*
X196745Y323415D01*
X196703Y323480D01*
X196663Y323546D01*
X196628Y323615D01*
X196596Y323685D01*
X196567Y323757D01*
X196542Y323830D01*
X196521Y323904D01*
X196503Y323979D01*
X196490Y324055D01*
X196480Y324132D01*
X196474Y324209D01*
X196472Y324286D01*
X196472Y328096D01*
X196474Y328173D01*
X196480Y328250D01*
X196490Y328327D01*
X196503Y328403D01*
X196521Y328478D01*
X196542Y328552D01*
X196567Y328625D01*
X196596Y328697D01*
X196628Y328767D01*
X196663Y328836D01*
X196703Y328902D01*
X196745Y328967D01*
X196791Y329029D01*
X196840Y329089D01*
X196891Y329146D01*
X196946Y329201D01*
X197003Y329252D01*
X197063Y329301D01*
X197125Y329347D01*
X197190Y329389D01*
X197256Y329429D01*
X197325Y329464D01*
X197395Y329496D01*
X197467Y329525D01*
X197540Y329550D01*
X197614Y329571D01*
X197689Y329589D01*
X197765Y329602D01*
X197842Y329612D01*
X197919Y329618D01*
X197996Y329620D01*
X199520Y329620D01*
X202209Y328096D02*
X204114Y329620D01*
X204114Y322762D01*
X202209Y322762D02*
X206019Y322762D01*
X209067Y324667D02*
X209069Y324752D01*
X209075Y324838D01*
X209084Y324923D01*
X209098Y325007D01*
X209115Y325091D01*
X209136Y325174D01*
X209160Y325256D01*
X209188Y325336D01*
X209220Y325416D01*
X209256Y325494D01*
X209294Y325570D01*
X209337Y325644D01*
X209382Y325716D01*
X209431Y325787D01*
X209483Y325855D01*
X209537Y325920D01*
X209595Y325983D01*
X209656Y326044D01*
X209719Y326102D01*
X209784Y326156D01*
X209852Y326208D01*
X209923Y326257D01*
X209995Y326302D01*
X210069Y326345D01*
X210145Y326383D01*
X210223Y326419D01*
X210303Y326451D01*
X210383Y326479D01*
X210465Y326503D01*
X210548Y326524D01*
X210632Y326541D01*
X210716Y326555D01*
X210801Y326564D01*
X210887Y326570D01*
X210972Y326572D01*
X211057Y326570D01*
X211143Y326564D01*
X211228Y326555D01*
X211312Y326541D01*
X211396Y326524D01*
X211479Y326503D01*
X211561Y326479D01*
X211641Y326451D01*
X211721Y326419D01*
X211799Y326383D01*
X211875Y326345D01*
X211949Y326302D01*
X212021Y326257D01*
X212092Y326208D01*
X212160Y326156D01*
X212225Y326102D01*
X212288Y326044D01*
X212349Y325983D01*
X212407Y325920D01*
X212461Y325855D01*
X212513Y325787D01*
X212562Y325716D01*
X212607Y325644D01*
X212650Y325570D01*
X212688Y325494D01*
X212724Y325416D01*
X212756Y325336D01*
X212784Y325256D01*
X212808Y325174D01*
X212829Y325091D01*
X212846Y325007D01*
X212860Y324923D01*
X212869Y324838D01*
X212875Y324752D01*
X212877Y324667D01*
X212875Y324582D01*
X212869Y324496D01*
X212860Y324411D01*
X212846Y324327D01*
X212829Y324243D01*
X212808Y324160D01*
X212784Y324078D01*
X212756Y323998D01*
X212724Y323918D01*
X212688Y323840D01*
X212650Y323764D01*
X212607Y323690D01*
X212562Y323618D01*
X212513Y323547D01*
X212461Y323479D01*
X212407Y323414D01*
X212349Y323351D01*
X212288Y323290D01*
X212225Y323232D01*
X212160Y323178D01*
X212092Y323126D01*
X212021Y323077D01*
X211949Y323032D01*
X211875Y322989D01*
X211799Y322951D01*
X211721Y322915D01*
X211641Y322883D01*
X211561Y322855D01*
X211479Y322831D01*
X211396Y322810D01*
X211312Y322793D01*
X211228Y322779D01*
X211143Y322770D01*
X211057Y322764D01*
X210972Y322762D01*
X210887Y322764D01*
X210801Y322770D01*
X210716Y322779D01*
X210632Y322793D01*
X210548Y322810D01*
X210465Y322831D01*
X210383Y322855D01*
X210303Y322883D01*
X210223Y322915D01*
X210145Y322951D01*
X210069Y322989D01*
X209995Y323032D01*
X209923Y323077D01*
X209852Y323126D01*
X209784Y323178D01*
X209719Y323232D01*
X209656Y323290D01*
X209595Y323351D01*
X209537Y323414D01*
X209483Y323479D01*
X209431Y323547D01*
X209382Y323618D01*
X209337Y323690D01*
X209294Y323764D01*
X209256Y323840D01*
X209220Y323918D01*
X209188Y323998D01*
X209160Y324078D01*
X209136Y324160D01*
X209115Y324243D01*
X209098Y324327D01*
X209084Y324411D01*
X209075Y324496D01*
X209069Y324582D01*
X209067Y324667D01*
X209448Y328096D02*
X209450Y328173D01*
X209456Y328250D01*
X209466Y328327D01*
X209479Y328403D01*
X209497Y328478D01*
X209518Y328552D01*
X209543Y328625D01*
X209572Y328697D01*
X209604Y328767D01*
X209639Y328836D01*
X209679Y328902D01*
X209721Y328967D01*
X209767Y329029D01*
X209816Y329089D01*
X209867Y329146D01*
X209922Y329201D01*
X209979Y329252D01*
X210039Y329301D01*
X210101Y329347D01*
X210166Y329389D01*
X210232Y329429D01*
X210301Y329464D01*
X210371Y329496D01*
X210443Y329525D01*
X210516Y329550D01*
X210590Y329571D01*
X210665Y329589D01*
X210741Y329602D01*
X210818Y329612D01*
X210895Y329618D01*
X210972Y329620D01*
X211049Y329618D01*
X211126Y329612D01*
X211203Y329602D01*
X211279Y329589D01*
X211354Y329571D01*
X211428Y329550D01*
X211501Y329525D01*
X211573Y329496D01*
X211643Y329464D01*
X211712Y329429D01*
X211778Y329389D01*
X211843Y329347D01*
X211905Y329301D01*
X211965Y329252D01*
X212022Y329201D01*
X212077Y329146D01*
X212128Y329089D01*
X212177Y329029D01*
X212223Y328967D01*
X212265Y328902D01*
X212305Y328836D01*
X212340Y328767D01*
X212372Y328697D01*
X212401Y328625D01*
X212426Y328552D01*
X212447Y328478D01*
X212465Y328403D01*
X212478Y328327D01*
X212488Y328250D01*
X212494Y328173D01*
X212496Y328096D01*
X212494Y328019D01*
X212488Y327942D01*
X212478Y327865D01*
X212465Y327789D01*
X212447Y327714D01*
X212426Y327640D01*
X212401Y327567D01*
X212372Y327495D01*
X212340Y327425D01*
X212305Y327356D01*
X212265Y327290D01*
X212223Y327225D01*
X212177Y327163D01*
X212128Y327103D01*
X212077Y327046D01*
X212022Y326991D01*
X211965Y326940D01*
X211905Y326891D01*
X211843Y326845D01*
X211778Y326803D01*
X211712Y326763D01*
X211643Y326728D01*
X211573Y326696D01*
X211501Y326667D01*
X211428Y326642D01*
X211354Y326621D01*
X211279Y326603D01*
X211203Y326590D01*
X211126Y326580D01*
X211049Y326574D01*
X210972Y326572D01*
X210895Y326574D01*
X210818Y326580D01*
X210741Y326590D01*
X210665Y326603D01*
X210590Y326621D01*
X210516Y326642D01*
X210443Y326667D01*
X210371Y326696D01*
X210301Y326728D01*
X210232Y326763D01*
X210166Y326803D01*
X210101Y326845D01*
X210039Y326891D01*
X209979Y326940D01*
X209922Y326991D01*
X209867Y327046D01*
X209816Y327103D01*
X209767Y327163D01*
X209721Y327225D01*
X209679Y327290D01*
X209639Y327356D01*
X209604Y327425D01*
X209572Y327495D01*
X209543Y327567D01*
X209518Y327640D01*
X209497Y327714D01*
X209479Y327789D01*
X209466Y327865D01*
X209456Y327942D01*
X209450Y328019D01*
X209448Y328096D01*
D17*
X99839Y226261D02*
X94937Y226261D01*
X94937Y217261D02*
X99839Y217261D01*
D10*
X71495Y217062D02*
X71495Y223920D01*
X71495Y217062D02*
X74543Y217062D01*
X77195Y222396D02*
X79100Y223920D01*
X79100Y217062D01*
X77195Y217062D02*
X81005Y217062D01*
D17*
X156568Y217673D02*
X156568Y212573D01*
X142568Y212573D02*
X142568Y217673D01*
D10*
X144647Y218548D02*
X144647Y211690D01*
X147695Y211690D01*
X154157Y216833D02*
X154155Y216915D01*
X154149Y216996D01*
X154140Y217077D01*
X154126Y217158D01*
X154109Y217237D01*
X154088Y217316D01*
X154063Y217394D01*
X154034Y217470D01*
X154002Y217545D01*
X153966Y217619D01*
X153927Y217691D01*
X153885Y217760D01*
X153839Y217828D01*
X153790Y217893D01*
X153738Y217956D01*
X153683Y218016D01*
X153625Y218074D01*
X153565Y218129D01*
X153502Y218181D01*
X153437Y218230D01*
X153369Y218276D01*
X153300Y218318D01*
X153228Y218357D01*
X153154Y218393D01*
X153079Y218425D01*
X153003Y218454D01*
X152925Y218479D01*
X152846Y218500D01*
X152767Y218517D01*
X152686Y218531D01*
X152605Y218540D01*
X152524Y218546D01*
X152442Y218548D01*
X152350Y218546D01*
X152258Y218540D01*
X152166Y218531D01*
X152074Y218517D01*
X151984Y218500D01*
X151894Y218479D01*
X151805Y218454D01*
X151717Y218425D01*
X151630Y218393D01*
X151545Y218357D01*
X151462Y218318D01*
X151380Y218275D01*
X151300Y218229D01*
X151222Y218179D01*
X151146Y218127D01*
X151073Y218071D01*
X151002Y218012D01*
X150933Y217950D01*
X150867Y217885D01*
X150804Y217818D01*
X150744Y217748D01*
X150686Y217676D01*
X150632Y217601D01*
X150581Y217524D01*
X150533Y217445D01*
X150489Y217364D01*
X150448Y217281D01*
X150410Y217197D01*
X150376Y217111D01*
X150346Y217024D01*
X153585Y215499D02*
X153644Y215558D01*
X153700Y215619D01*
X153753Y215682D01*
X153804Y215748D01*
X153851Y215816D01*
X153895Y215886D01*
X153936Y215958D01*
X153974Y216032D01*
X154008Y216107D01*
X154039Y216184D01*
X154066Y216262D01*
X154090Y216342D01*
X154111Y216422D01*
X154127Y216503D01*
X154140Y216585D01*
X154150Y216667D01*
X154155Y216750D01*
X154157Y216833D01*
X153585Y215500D02*
X150346Y211690D01*
X154156Y211690D01*
D18*
X102636Y335284D02*
X102636Y343284D01*
X87636Y343284D02*
X87636Y335284D01*
D10*
X105057Y332975D02*
X108296Y335261D01*
X105057Y337547D01*
X108296Y335261D02*
X111915Y335261D01*
X105057Y342309D02*
X105059Y342391D01*
X105065Y342472D01*
X105074Y342553D01*
X105088Y342634D01*
X105105Y342713D01*
X105126Y342792D01*
X105151Y342870D01*
X105180Y342946D01*
X105212Y343021D01*
X105248Y343095D01*
X105287Y343167D01*
X105329Y343236D01*
X105375Y343304D01*
X105424Y343369D01*
X105476Y343432D01*
X105531Y343492D01*
X105589Y343550D01*
X105649Y343605D01*
X105712Y343657D01*
X105777Y343706D01*
X105845Y343752D01*
X105915Y343794D01*
X105986Y343833D01*
X106060Y343869D01*
X106135Y343901D01*
X106211Y343930D01*
X106289Y343955D01*
X106368Y343976D01*
X106447Y343993D01*
X106528Y344007D01*
X106609Y344016D01*
X106690Y344022D01*
X106772Y344024D01*
X105057Y342309D02*
X105059Y342217D01*
X105065Y342125D01*
X105074Y342033D01*
X105088Y341941D01*
X105105Y341851D01*
X105126Y341761D01*
X105151Y341672D01*
X105180Y341584D01*
X105212Y341497D01*
X105248Y341412D01*
X105287Y341329D01*
X105330Y341247D01*
X105376Y341167D01*
X105426Y341089D01*
X105478Y341013D01*
X105534Y340940D01*
X105593Y340869D01*
X105655Y340800D01*
X105720Y340734D01*
X105787Y340671D01*
X105857Y340611D01*
X105929Y340553D01*
X106004Y340499D01*
X106081Y340448D01*
X106160Y340400D01*
X106241Y340356D01*
X106324Y340315D01*
X106408Y340277D01*
X106494Y340243D01*
X106581Y340213D01*
X108106Y343452D02*
X108047Y343511D01*
X107986Y343567D01*
X107923Y343620D01*
X107857Y343671D01*
X107789Y343718D01*
X107719Y343762D01*
X107647Y343803D01*
X107573Y343841D01*
X107498Y343875D01*
X107421Y343906D01*
X107343Y343933D01*
X107263Y343957D01*
X107183Y343978D01*
X107102Y343994D01*
X107020Y344007D01*
X106938Y344017D01*
X106855Y344022D01*
X106772Y344024D01*
X108105Y343452D02*
X111915Y340214D01*
X111915Y344024D01*
D15*
X192527Y317501D02*
X192465Y317499D01*
X192404Y317493D01*
X192343Y317484D01*
X192283Y317471D01*
X192224Y317454D01*
X192166Y317433D01*
X192109Y317409D01*
X192054Y317382D01*
X192001Y317351D01*
X191949Y317317D01*
X191900Y317280D01*
X191853Y317240D01*
X191809Y317197D01*
X191768Y317152D01*
X191729Y317104D01*
X191693Y317053D01*
X191661Y317001D01*
X191632Y316947D01*
X191606Y316891D01*
X191584Y316833D01*
X191565Y316775D01*
X191550Y316715D01*
X191539Y316654D01*
X191531Y316593D01*
X191527Y316532D01*
X191527Y316470D01*
X191531Y316409D01*
X191539Y316348D01*
X191550Y316287D01*
X191565Y316227D01*
X191584Y316169D01*
X191606Y316111D01*
X191632Y316055D01*
X191661Y316001D01*
X191693Y315949D01*
X191729Y315898D01*
X191768Y315850D01*
X191809Y315805D01*
X191853Y315762D01*
X191900Y315722D01*
X191949Y315685D01*
X192001Y315651D01*
X192054Y315620D01*
X192109Y315593D01*
X192166Y315569D01*
X192224Y315548D01*
X192283Y315531D01*
X192343Y315518D01*
X192404Y315509D01*
X192465Y315503D01*
X192527Y315501D01*
X192589Y315503D01*
X192650Y315509D01*
X192711Y315518D01*
X192771Y315531D01*
X192830Y315548D01*
X192888Y315569D01*
X192945Y315593D01*
X193000Y315620D01*
X193053Y315651D01*
X193105Y315685D01*
X193154Y315722D01*
X193201Y315762D01*
X193245Y315805D01*
X193286Y315850D01*
X193325Y315898D01*
X193361Y315949D01*
X193393Y316001D01*
X193422Y316055D01*
X193448Y316111D01*
X193470Y316169D01*
X193489Y316227D01*
X193504Y316287D01*
X193515Y316348D01*
X193523Y316409D01*
X193527Y316470D01*
X193527Y316532D01*
X193523Y316593D01*
X193515Y316654D01*
X193504Y316715D01*
X193489Y316775D01*
X193470Y316833D01*
X193448Y316891D01*
X193422Y316947D01*
X193393Y317001D01*
X193361Y317053D01*
X193325Y317104D01*
X193286Y317152D01*
X193245Y317197D01*
X193201Y317240D01*
X193154Y317280D01*
X193105Y317317D01*
X193053Y317351D01*
X193000Y317382D01*
X192945Y317409D01*
X192888Y317433D01*
X192830Y317454D01*
X192771Y317471D01*
X192711Y317484D01*
X192650Y317493D01*
X192589Y317499D01*
X192527Y317501D01*
D10*
X211555Y297005D02*
X214793Y299291D01*
X211555Y301577D01*
X214793Y299291D02*
X218413Y299291D01*
X213079Y304244D02*
X211555Y306149D01*
X218413Y306149D01*
X218413Y304244D02*
X218413Y308054D01*
D19*
X160469Y355085D02*
X161163Y362163D01*
X163129Y361970D01*
X163129Y361971D02*
X163216Y361960D01*
X163302Y361946D01*
X163387Y361928D01*
X163472Y361906D01*
X163556Y361880D01*
X163638Y361851D01*
X163719Y361818D01*
X163799Y361782D01*
X163876Y361742D01*
X163952Y361699D01*
X164026Y361652D01*
X164098Y361602D01*
X164168Y361549D01*
X164235Y361493D01*
X164299Y361434D01*
X164361Y361373D01*
X164420Y361308D01*
X164477Y361241D01*
X164530Y361172D01*
X164580Y361100D01*
X164627Y361026D01*
X164670Y360951D01*
X164711Y360873D01*
X164747Y360794D01*
X164781Y360713D01*
X164810Y360630D01*
X164836Y360547D01*
X164858Y360462D01*
X164876Y360377D01*
X164891Y360291D01*
X164902Y360204D01*
X164909Y360117D01*
X164912Y360029D01*
X164911Y359942D01*
X164906Y359855D01*
X164898Y359768D01*
X164885Y359681D01*
X164869Y359595D01*
X164849Y359510D01*
X164826Y359426D01*
X164798Y359343D01*
X164767Y359261D01*
X164732Y359181D01*
X164694Y359102D01*
X164653Y359025D01*
X164608Y358950D01*
X164559Y358878D01*
X164508Y358807D01*
X164454Y358738D01*
X164396Y358673D01*
X164336Y358609D01*
X164273Y358549D01*
X164207Y358491D01*
X164139Y358436D01*
X164068Y358385D01*
X163996Y358336D01*
X163921Y358291D01*
X163844Y358249D01*
X163766Y358211D01*
X163685Y358176D01*
X163604Y358144D01*
X163521Y358117D01*
X163437Y358093D01*
X163352Y358072D01*
X163266Y358056D01*
X163179Y358043D01*
X163092Y358034D01*
X163005Y358029D01*
X162918Y358028D01*
X162830Y358031D01*
X162743Y358037D01*
X162743Y358038D02*
X160777Y358231D01*
X163136Y358000D02*
X164401Y354700D01*
X169135Y357411D02*
X171494Y357180D01*
X169135Y357412D02*
X169058Y357421D01*
X168981Y357434D01*
X168906Y357451D01*
X168831Y357472D01*
X168757Y357496D01*
X168685Y357524D01*
X168614Y357555D01*
X168545Y357590D01*
X168477Y357628D01*
X168412Y357670D01*
X168348Y357715D01*
X168287Y357762D01*
X168228Y357813D01*
X168172Y357866D01*
X168119Y357922D01*
X168068Y357981D01*
X168020Y358042D01*
X167976Y358106D01*
X167934Y358171D01*
X167896Y358239D01*
X167861Y358308D01*
X167830Y358379D01*
X167802Y358451D01*
X167777Y358525D01*
X167757Y358599D01*
X167739Y358675D01*
X167726Y358751D01*
X167717Y358828D01*
X167711Y358906D01*
X167709Y358983D01*
X167711Y359061D01*
X167717Y359138D01*
X167716Y359138D02*
X167755Y359532D01*
X167754Y359532D02*
X167765Y359620D01*
X167780Y359707D01*
X167798Y359794D01*
X167820Y359880D01*
X167847Y359965D01*
X167877Y360048D01*
X167910Y360130D01*
X167948Y360211D01*
X167988Y360289D01*
X168033Y360366D01*
X168081Y360441D01*
X168132Y360513D01*
X168186Y360583D01*
X168243Y360651D01*
X168304Y360716D01*
X168367Y360778D01*
X168433Y360837D01*
X168501Y360894D01*
X168572Y360947D01*
X168646Y360997D01*
X168721Y361043D01*
X168799Y361086D01*
X168878Y361126D01*
X168959Y361162D01*
X169041Y361194D01*
X169125Y361223D01*
X169211Y361248D01*
X169297Y361269D01*
X169384Y361286D01*
X169471Y361299D01*
X169560Y361308D01*
X169648Y361314D01*
X169737Y361315D01*
X169825Y361312D01*
X169914Y361306D01*
X170002Y361295D01*
X170089Y361280D01*
X170176Y361262D01*
X170262Y361240D01*
X170347Y361213D01*
X170430Y361183D01*
X170512Y361150D01*
X170593Y361112D01*
X170671Y361072D01*
X170748Y361027D01*
X170823Y360979D01*
X170895Y360928D01*
X170965Y360874D01*
X171033Y360817D01*
X171098Y360756D01*
X171160Y360693D01*
X171219Y360627D01*
X171276Y360559D01*
X171329Y360488D01*
X171379Y360414D01*
X171425Y360339D01*
X171468Y360261D01*
X171508Y360182D01*
X171544Y360101D01*
X171576Y360019D01*
X171605Y359935D01*
X171630Y359849D01*
X171651Y359763D01*
X171668Y359676D01*
X171681Y359589D01*
X171690Y359500D01*
X171696Y359412D01*
X171697Y359323D01*
X171694Y359235D01*
X171688Y359146D01*
X171687Y359146D02*
X171494Y357180D01*
X171481Y357070D01*
X171465Y356961D01*
X171444Y356852D01*
X171420Y356745D01*
X171393Y356638D01*
X171361Y356532D01*
X171326Y356428D01*
X171287Y356324D01*
X171245Y356223D01*
X171199Y356122D01*
X171149Y356024D01*
X171096Y355927D01*
X171040Y355832D01*
X170981Y355739D01*
X170918Y355648D01*
X170852Y355559D01*
X170784Y355473D01*
X170712Y355389D01*
X170637Y355308D01*
X170560Y355230D01*
X170479Y355154D01*
X170397Y355081D01*
X170311Y355011D01*
X170224Y354944D01*
X170134Y354880D01*
X170042Y354819D01*
X169948Y354762D01*
X169851Y354707D01*
X169754Y354657D01*
X169654Y354609D01*
X169553Y354566D01*
X169450Y354525D01*
X169346Y354489D01*
X169241Y354456D01*
X169134Y354426D01*
X169027Y354401D01*
X168919Y354379D01*
X168810Y354361D01*
X168700Y354347D01*
X168591Y354336D01*
X168480Y354330D01*
X168370Y354327D01*
X168260Y354328D01*
X168150Y354333D01*
X168040Y354342D01*
D13*
X223873Y172140D02*
X73873Y172140D01*
X43373Y145140D01*
X223873Y172140D02*
X254373Y145140D01*
X254373Y53140D02*
X204373Y19140D01*
X202139Y20457D01*
X199874Y21719D01*
X197579Y22926D01*
X195256Y24077D01*
X192905Y25171D01*
X190529Y26208D01*
X188128Y27188D01*
X185704Y28109D01*
X183259Y28971D01*
X180793Y29773D01*
X178309Y30516D01*
X175807Y31198D01*
X173290Y31820D01*
X170758Y32380D01*
X168214Y32879D01*
X165658Y33317D01*
X163092Y33692D01*
X160518Y34005D01*
X157938Y34256D01*
X155352Y34444D01*
X152762Y34569D01*
X150169Y34632D01*
X147577Y34632D01*
X144984Y34569D01*
X142394Y34444D01*
X139808Y34256D01*
X137228Y34005D01*
X134654Y33692D01*
X132088Y33317D01*
X129532Y32879D01*
X126988Y32380D01*
X124456Y31820D01*
X121939Y31198D01*
X119437Y30516D01*
X116953Y29773D01*
X114487Y28971D01*
X112042Y28109D01*
X109618Y27188D01*
X107217Y26208D01*
X104841Y25171D01*
X102490Y24077D01*
X100167Y22926D01*
X97872Y21719D01*
X95607Y20457D01*
X93373Y19140D01*
X43373Y53140D01*
X254373Y130640D02*
X254373Y145140D01*
X43373Y145140D02*
X43373Y130640D01*
X43373Y66640D02*
X43373Y53140D01*
X254373Y53140D02*
X254373Y66640D01*
X194332Y194228D02*
X194558Y220197D01*
D12*
X217614Y203998D02*
X218969Y203986D01*
X217614Y203997D02*
X217543Y204000D01*
X217473Y204006D01*
X217402Y204016D01*
X217333Y204029D01*
X217264Y204046D01*
X217196Y204067D01*
X217129Y204091D01*
X217064Y204119D01*
X217000Y204150D01*
X216938Y204184D01*
X216878Y204222D01*
X216820Y204263D01*
X216764Y204306D01*
X216711Y204353D01*
X216660Y204402D01*
X216611Y204454D01*
X216566Y204508D01*
X216523Y204565D01*
X216483Y204624D01*
X216447Y204685D01*
X216413Y204747D01*
X216383Y204812D01*
X216357Y204877D01*
X216334Y204945D01*
X216314Y205013D01*
X216298Y205082D01*
X216286Y205152D01*
X216277Y205222D01*
X216272Y205293D01*
X216271Y205364D01*
X216272Y205364D02*
X216301Y208751D01*
X216304Y208824D01*
X216310Y208897D01*
X216321Y208970D01*
X216335Y209042D01*
X216354Y209113D01*
X216376Y209183D01*
X216402Y209251D01*
X216431Y209319D01*
X216464Y209384D01*
X216501Y209448D01*
X216541Y209509D01*
X216584Y209568D01*
X216631Y209625D01*
X216680Y209679D01*
X216733Y209731D01*
X216788Y209779D01*
X216845Y209825D01*
X216905Y209867D01*
X216968Y209906D01*
X217032Y209942D01*
X217098Y209974D01*
X217165Y210002D01*
X217235Y210027D01*
X217305Y210048D01*
X217376Y210065D01*
X217448Y210078D01*
X217521Y210087D01*
X217594Y210093D01*
X217668Y210094D01*
X217668Y210093D02*
X219022Y210082D01*
X222009Y203959D02*
X223703Y203945D01*
X223702Y203945D02*
X223783Y203946D01*
X223863Y203951D01*
X223943Y203960D01*
X224023Y203973D01*
X224102Y203989D01*
X224180Y204009D01*
X224257Y204033D01*
X224332Y204061D01*
X224407Y204092D01*
X224480Y204126D01*
X224551Y204164D01*
X224620Y204206D01*
X224687Y204250D01*
X224752Y204298D01*
X224814Y204349D01*
X224875Y204403D01*
X224932Y204459D01*
X224987Y204518D01*
X225039Y204580D01*
X225087Y204644D01*
X225133Y204710D01*
X225176Y204779D01*
X225215Y204849D01*
X225251Y204921D01*
X225283Y204995D01*
X225312Y205070D01*
X225337Y205147D01*
X225359Y205225D01*
X225377Y205303D01*
X225391Y205382D01*
X225401Y205462D01*
X225407Y205543D01*
X225410Y205623D01*
X225409Y205704D01*
X225404Y205784D01*
X225395Y205864D01*
X225382Y205944D01*
X225366Y206023D01*
X225346Y206101D01*
X225322Y206178D01*
X225294Y206253D01*
X225263Y206328D01*
X225229Y206401D01*
X225191Y206472D01*
X225149Y206541D01*
X225105Y206608D01*
X225057Y206673D01*
X225006Y206735D01*
X224952Y206796D01*
X224896Y206853D01*
X224837Y206908D01*
X224775Y206960D01*
X224711Y207008D01*
X224645Y207054D01*
X224576Y207097D01*
X224506Y207136D01*
X224434Y207172D01*
X224360Y207204D01*
X224285Y207233D01*
X224208Y207258D01*
X224130Y207280D01*
X224052Y207298D01*
X223973Y207312D01*
X223893Y207322D01*
X223812Y207328D01*
X223732Y207331D01*
X224094Y210037D02*
X222062Y210055D01*
X224095Y210038D02*
X224167Y210035D01*
X224239Y210029D01*
X224310Y210019D01*
X224381Y210005D01*
X224451Y209987D01*
X224520Y209966D01*
X224587Y209941D01*
X224654Y209912D01*
X224718Y209880D01*
X224781Y209844D01*
X224842Y209806D01*
X224901Y209764D01*
X224957Y209719D01*
X225011Y209671D01*
X225062Y209620D01*
X225110Y209566D01*
X225156Y209510D01*
X225199Y209452D01*
X225238Y209392D01*
X225274Y209329D01*
X225307Y209265D01*
X225336Y209199D01*
X225362Y209132D01*
X225384Y209063D01*
X225402Y208993D01*
X225417Y208922D01*
X225428Y208851D01*
X225435Y208779D01*
X225438Y208707D01*
X225437Y208635D01*
X225433Y208563D01*
X225424Y208491D01*
X225412Y208420D01*
X225396Y208350D01*
X225377Y208281D01*
X225354Y208212D01*
X225327Y208145D01*
X225296Y208080D01*
X225263Y208016D01*
X225225Y207954D01*
X225185Y207895D01*
X225141Y207837D01*
X225095Y207782D01*
X225046Y207729D01*
X224993Y207679D01*
X224939Y207632D01*
X224882Y207588D01*
X224822Y207547D01*
X224761Y207510D01*
X224697Y207475D01*
X224632Y207444D01*
X224565Y207417D01*
X224497Y207393D01*
X224428Y207373D01*
X224358Y207356D01*
X224287Y207343D01*
X224215Y207334D01*
X224143Y207329D01*
X224071Y207328D01*
X222716Y207340D01*
D11*
X166000Y339390D02*
X158000Y339390D01*
X158000Y320610D02*
X166000Y320610D01*
D15*
X150000Y335000D02*
X150002Y335063D01*
X150008Y335125D01*
X150018Y335187D01*
X150031Y335249D01*
X150049Y335309D01*
X150070Y335368D01*
X150095Y335426D01*
X150124Y335482D01*
X150156Y335536D01*
X150191Y335588D01*
X150229Y335637D01*
X150271Y335685D01*
X150315Y335729D01*
X150363Y335771D01*
X150412Y335809D01*
X150464Y335844D01*
X150518Y335876D01*
X150574Y335905D01*
X150632Y335930D01*
X150691Y335951D01*
X150751Y335969D01*
X150813Y335982D01*
X150875Y335992D01*
X150937Y335998D01*
X151000Y336000D01*
X151063Y335998D01*
X151125Y335992D01*
X151187Y335982D01*
X151249Y335969D01*
X151309Y335951D01*
X151368Y335930D01*
X151426Y335905D01*
X151482Y335876D01*
X151536Y335844D01*
X151588Y335809D01*
X151637Y335771D01*
X151685Y335729D01*
X151729Y335685D01*
X151771Y335637D01*
X151809Y335588D01*
X151844Y335536D01*
X151876Y335482D01*
X151905Y335426D01*
X151930Y335368D01*
X151951Y335309D01*
X151969Y335249D01*
X151982Y335187D01*
X151992Y335125D01*
X151998Y335063D01*
X152000Y335000D01*
X151998Y334937D01*
X151992Y334875D01*
X151982Y334813D01*
X151969Y334751D01*
X151951Y334691D01*
X151930Y334632D01*
X151905Y334574D01*
X151876Y334518D01*
X151844Y334464D01*
X151809Y334412D01*
X151771Y334363D01*
X151729Y334315D01*
X151685Y334271D01*
X151637Y334229D01*
X151588Y334191D01*
X151536Y334156D01*
X151482Y334124D01*
X151426Y334095D01*
X151368Y334070D01*
X151309Y334049D01*
X151249Y334031D01*
X151187Y334018D01*
X151125Y334008D01*
X151063Y334002D01*
X151000Y334000D01*
X150937Y334002D01*
X150875Y334008D01*
X150813Y334018D01*
X150751Y334031D01*
X150691Y334049D01*
X150632Y334070D01*
X150574Y334095D01*
X150518Y334124D01*
X150464Y334156D01*
X150412Y334191D01*
X150363Y334229D01*
X150315Y334271D01*
X150271Y334315D01*
X150229Y334363D01*
X150191Y334412D01*
X150156Y334464D01*
X150124Y334518D01*
X150095Y334574D01*
X150070Y334632D01*
X150049Y334691D01*
X150031Y334751D01*
X150018Y334813D01*
X150008Y334875D01*
X150002Y334937D01*
X150000Y335000D01*
D13*
X52859Y184699D02*
X52859Y176571D01*
X46271Y176571D01*
X24411Y176571D02*
X24411Y184699D01*
X24411Y176571D02*
X30999Y176571D01*
D11*
X19288Y169062D02*
X19288Y166240D01*
X19288Y169062D02*
X19290Y169145D01*
X19296Y169227D01*
X19305Y169309D01*
X19319Y169391D01*
X19336Y169472D01*
X19357Y169552D01*
X19382Y169631D01*
X19411Y169708D01*
X19443Y169785D01*
X19478Y169859D01*
X19517Y169932D01*
X19560Y170003D01*
X19606Y170072D01*
X19655Y170139D01*
X19707Y170203D01*
X19762Y170265D01*
X19819Y170324D01*
X19880Y170380D01*
X19943Y170434D01*
X20008Y170484D01*
X20076Y170532D01*
X20146Y170576D01*
X20218Y170616D01*
X20292Y170654D01*
X20367Y170688D01*
X20444Y170718D01*
X20523Y170745D01*
X20602Y170768D01*
X20683Y170787D01*
X20764Y170802D01*
X20846Y170814D01*
X20928Y170822D01*
X21011Y170826D01*
X21093Y170826D01*
X21176Y170822D01*
X21258Y170814D01*
X21340Y170802D01*
X21421Y170787D01*
X21502Y170768D01*
X21581Y170745D01*
X21660Y170718D01*
X21737Y170688D01*
X21812Y170654D01*
X21886Y170616D01*
X21958Y170576D01*
X22028Y170532D01*
X22096Y170484D01*
X22161Y170434D01*
X22224Y170380D01*
X22285Y170324D01*
X22342Y170265D01*
X22397Y170203D01*
X22449Y170139D01*
X22498Y170072D01*
X22544Y170003D01*
X22587Y169932D01*
X22626Y169859D01*
X22661Y169785D01*
X22693Y169708D01*
X22722Y169631D01*
X22747Y169552D01*
X22768Y169472D01*
X22785Y169391D01*
X22799Y169309D01*
X22808Y169227D01*
X22814Y169145D01*
X22816Y169062D01*
X22816Y166240D01*
X22814Y166157D01*
X22808Y166075D01*
X22799Y165993D01*
X22785Y165911D01*
X22768Y165830D01*
X22747Y165750D01*
X22722Y165671D01*
X22693Y165594D01*
X22661Y165517D01*
X22626Y165443D01*
X22587Y165370D01*
X22544Y165299D01*
X22498Y165230D01*
X22449Y165163D01*
X22397Y165099D01*
X22342Y165037D01*
X22285Y164978D01*
X22224Y164922D01*
X22161Y164868D01*
X22096Y164818D01*
X22028Y164770D01*
X21958Y164726D01*
X21886Y164686D01*
X21812Y164648D01*
X21737Y164614D01*
X21660Y164584D01*
X21581Y164557D01*
X21502Y164534D01*
X21421Y164515D01*
X21340Y164500D01*
X21258Y164488D01*
X21176Y164480D01*
X21093Y164476D01*
X21011Y164476D01*
X20928Y164480D01*
X20846Y164488D01*
X20764Y164500D01*
X20683Y164515D01*
X20602Y164534D01*
X20523Y164557D01*
X20444Y164584D01*
X20367Y164614D01*
X20292Y164648D01*
X20218Y164686D01*
X20146Y164726D01*
X20076Y164770D01*
X20008Y164818D01*
X19943Y164868D01*
X19880Y164922D01*
X19819Y164978D01*
X19762Y165037D01*
X19707Y165099D01*
X19655Y165163D01*
X19606Y165230D01*
X19560Y165299D01*
X19517Y165370D01*
X19478Y165443D01*
X19443Y165517D01*
X19411Y165594D01*
X19382Y165671D01*
X19357Y165750D01*
X19336Y165830D01*
X19319Y165911D01*
X19305Y165993D01*
X19296Y166075D01*
X19290Y166157D01*
X19288Y166240D01*
X22111Y165887D02*
X23522Y164476D01*
X25758Y169415D02*
X27522Y170826D01*
X27522Y164476D01*
X25758Y164476D02*
X29286Y164476D01*
D13*
X24157Y227651D02*
X24157Y235779D01*
X30745Y235779D01*
X52605Y235779D02*
X52605Y227651D01*
X52605Y235779D02*
X46017Y235779D01*
D11*
X46730Y242288D02*
X46730Y245110D01*
X46732Y245193D01*
X46738Y245275D01*
X46747Y245357D01*
X46761Y245439D01*
X46778Y245520D01*
X46799Y245600D01*
X46824Y245679D01*
X46853Y245756D01*
X46885Y245833D01*
X46920Y245907D01*
X46959Y245980D01*
X47002Y246051D01*
X47048Y246120D01*
X47097Y246187D01*
X47149Y246251D01*
X47204Y246313D01*
X47261Y246372D01*
X47322Y246428D01*
X47385Y246482D01*
X47450Y246532D01*
X47518Y246580D01*
X47588Y246624D01*
X47660Y246664D01*
X47734Y246702D01*
X47809Y246736D01*
X47886Y246766D01*
X47965Y246793D01*
X48044Y246816D01*
X48125Y246835D01*
X48206Y246850D01*
X48288Y246862D01*
X48370Y246870D01*
X48453Y246874D01*
X48535Y246874D01*
X48618Y246870D01*
X48700Y246862D01*
X48782Y246850D01*
X48863Y246835D01*
X48944Y246816D01*
X49023Y246793D01*
X49102Y246766D01*
X49179Y246736D01*
X49254Y246702D01*
X49328Y246664D01*
X49400Y246624D01*
X49470Y246580D01*
X49538Y246532D01*
X49603Y246482D01*
X49666Y246428D01*
X49727Y246372D01*
X49784Y246313D01*
X49839Y246251D01*
X49891Y246187D01*
X49940Y246120D01*
X49986Y246051D01*
X50029Y245980D01*
X50068Y245907D01*
X50103Y245833D01*
X50135Y245756D01*
X50164Y245679D01*
X50189Y245600D01*
X50210Y245520D01*
X50227Y245439D01*
X50241Y245357D01*
X50250Y245275D01*
X50256Y245193D01*
X50258Y245110D01*
X50258Y242288D01*
X50256Y242205D01*
X50250Y242123D01*
X50241Y242041D01*
X50227Y241959D01*
X50210Y241878D01*
X50189Y241798D01*
X50164Y241719D01*
X50135Y241642D01*
X50103Y241565D01*
X50068Y241491D01*
X50029Y241418D01*
X49986Y241347D01*
X49940Y241278D01*
X49891Y241211D01*
X49839Y241147D01*
X49784Y241085D01*
X49727Y241026D01*
X49666Y240970D01*
X49603Y240916D01*
X49538Y240866D01*
X49470Y240818D01*
X49400Y240774D01*
X49328Y240734D01*
X49254Y240696D01*
X49179Y240662D01*
X49102Y240632D01*
X49023Y240605D01*
X48944Y240582D01*
X48863Y240563D01*
X48782Y240548D01*
X48700Y240536D01*
X48618Y240528D01*
X48535Y240524D01*
X48453Y240524D01*
X48370Y240528D01*
X48288Y240536D01*
X48206Y240548D01*
X48125Y240563D01*
X48044Y240582D01*
X47965Y240605D01*
X47886Y240632D01*
X47809Y240662D01*
X47734Y240696D01*
X47660Y240734D01*
X47588Y240774D01*
X47518Y240818D01*
X47450Y240866D01*
X47385Y240916D01*
X47322Y240970D01*
X47261Y241026D01*
X47204Y241085D01*
X47149Y241147D01*
X47097Y241211D01*
X47048Y241278D01*
X47002Y241347D01*
X46959Y241418D01*
X46920Y241491D01*
X46885Y241565D01*
X46853Y241642D01*
X46824Y241719D01*
X46799Y241798D01*
X46778Y241878D01*
X46761Y241959D01*
X46747Y242041D01*
X46738Y242123D01*
X46732Y242205D01*
X46730Y242288D01*
X49553Y241935D02*
X50964Y240524D01*
X56728Y245287D02*
X56726Y245365D01*
X56720Y245443D01*
X56711Y245520D01*
X56697Y245597D01*
X56680Y245673D01*
X56660Y245748D01*
X56635Y245822D01*
X56607Y245895D01*
X56576Y245966D01*
X56540Y246036D01*
X56502Y246103D01*
X56460Y246169D01*
X56415Y246233D01*
X56368Y246294D01*
X56317Y246353D01*
X56263Y246410D01*
X56206Y246464D01*
X56147Y246515D01*
X56086Y246562D01*
X56022Y246607D01*
X55956Y246649D01*
X55889Y246687D01*
X55819Y246723D01*
X55748Y246754D01*
X55675Y246782D01*
X55601Y246807D01*
X55526Y246827D01*
X55450Y246844D01*
X55373Y246858D01*
X55296Y246867D01*
X55218Y246873D01*
X55140Y246875D01*
X55140Y246874D02*
X55052Y246872D01*
X54963Y246866D01*
X54875Y246857D01*
X54788Y246843D01*
X54701Y246826D01*
X54615Y246805D01*
X54530Y246781D01*
X54447Y246753D01*
X54364Y246721D01*
X54283Y246685D01*
X54204Y246646D01*
X54126Y246604D01*
X54050Y246558D01*
X53977Y246510D01*
X53905Y246458D01*
X53836Y246403D01*
X53769Y246345D01*
X53705Y246284D01*
X53644Y246220D01*
X53585Y246154D01*
X53529Y246085D01*
X53477Y246014D01*
X53427Y245941D01*
X53381Y245866D01*
X53338Y245789D01*
X53298Y245710D01*
X53262Y245629D01*
X53229Y245547D01*
X53200Y245463D01*
X56198Y244052D02*
X56255Y244110D01*
X56310Y244170D01*
X56362Y244232D01*
X56410Y244297D01*
X56456Y244365D01*
X56498Y244434D01*
X56537Y244505D01*
X56573Y244578D01*
X56605Y244653D01*
X56633Y244729D01*
X56658Y244806D01*
X56679Y244885D01*
X56696Y244964D01*
X56710Y245044D01*
X56719Y245125D01*
X56725Y245206D01*
X56727Y245287D01*
X56198Y244052D02*
X53200Y240524D01*
X56728Y240524D01*
D12*
X42536Y294762D02*
X42536Y300858D01*
X44230Y300858D01*
X44311Y300856D01*
X44391Y300850D01*
X44471Y300841D01*
X44550Y300827D01*
X44629Y300810D01*
X44707Y300789D01*
X44784Y300765D01*
X44859Y300737D01*
X44933Y300705D01*
X45006Y300670D01*
X45076Y300631D01*
X45145Y300589D01*
X45212Y300544D01*
X45277Y300496D01*
X45339Y300444D01*
X45398Y300390D01*
X45455Y300333D01*
X45509Y300274D01*
X45561Y300212D01*
X45609Y300147D01*
X45654Y300080D01*
X45696Y300012D01*
X45735Y299941D01*
X45770Y299868D01*
X45802Y299794D01*
X45830Y299719D01*
X45854Y299642D01*
X45875Y299564D01*
X45892Y299485D01*
X45906Y299406D01*
X45915Y299326D01*
X45921Y299246D01*
X45923Y299165D01*
X45921Y299084D01*
X45915Y299004D01*
X45906Y298924D01*
X45892Y298845D01*
X45875Y298766D01*
X45854Y298688D01*
X45830Y298611D01*
X45802Y298536D01*
X45770Y298462D01*
X45735Y298389D01*
X45696Y298319D01*
X45654Y298250D01*
X45609Y298183D01*
X45561Y298118D01*
X45509Y298056D01*
X45455Y297997D01*
X45398Y297940D01*
X45339Y297886D01*
X45277Y297834D01*
X45212Y297786D01*
X45145Y297741D01*
X45077Y297699D01*
X45006Y297660D01*
X44933Y297625D01*
X44859Y297593D01*
X44784Y297565D01*
X44707Y297541D01*
X44629Y297520D01*
X44550Y297503D01*
X44471Y297489D01*
X44391Y297480D01*
X44311Y297474D01*
X44230Y297472D01*
X44230Y297471D02*
X42536Y297471D01*
X44568Y297471D02*
X45923Y294762D01*
X51180Y300858D02*
X51257Y300856D01*
X51334Y300850D01*
X51411Y300840D01*
X51487Y300827D01*
X51562Y300809D01*
X51636Y300788D01*
X51709Y300763D01*
X51781Y300734D01*
X51851Y300702D01*
X51920Y300667D01*
X51986Y300627D01*
X52051Y300585D01*
X52113Y300539D01*
X52173Y300490D01*
X52230Y300439D01*
X52285Y300384D01*
X52336Y300327D01*
X52385Y300267D01*
X52431Y300205D01*
X52473Y300140D01*
X52513Y300074D01*
X52548Y300005D01*
X52580Y299935D01*
X52609Y299863D01*
X52634Y299790D01*
X52655Y299716D01*
X52673Y299641D01*
X52686Y299565D01*
X52696Y299488D01*
X52702Y299411D01*
X52704Y299334D01*
X51180Y300858D02*
X51095Y300856D01*
X51010Y300851D01*
X50926Y300841D01*
X50842Y300829D01*
X50759Y300812D01*
X50676Y300792D01*
X50595Y300768D01*
X50514Y300741D01*
X50435Y300711D01*
X50357Y300677D01*
X50281Y300639D01*
X50206Y300599D01*
X50134Y300555D01*
X50063Y300508D01*
X49994Y300458D01*
X49928Y300405D01*
X49864Y300350D01*
X49802Y300291D01*
X49743Y300230D01*
X49687Y300167D01*
X49633Y300101D01*
X49583Y300032D01*
X49535Y299962D01*
X49491Y299890D01*
X49449Y299816D01*
X49411Y299740D01*
X49377Y299662D01*
X49345Y299583D01*
X49317Y299503D01*
X52196Y298149D02*
X52251Y298204D01*
X52304Y298261D01*
X52353Y298321D01*
X52400Y298384D01*
X52444Y298448D01*
X52484Y298515D01*
X52522Y298583D01*
X52556Y298654D01*
X52587Y298725D01*
X52614Y298798D01*
X52638Y298872D01*
X52658Y298948D01*
X52674Y299024D01*
X52687Y299101D01*
X52697Y299178D01*
X52702Y299256D01*
X52704Y299334D01*
X52196Y298149D02*
X49317Y294762D01*
X52704Y294762D01*
X244296Y295762D02*
X244296Y301858D01*
X245990Y301858D01*
X246071Y301856D01*
X246151Y301850D01*
X246231Y301841D01*
X246310Y301827D01*
X246389Y301810D01*
X246467Y301789D01*
X246544Y301765D01*
X246619Y301737D01*
X246693Y301705D01*
X246766Y301670D01*
X246836Y301631D01*
X246905Y301589D01*
X246972Y301544D01*
X247037Y301496D01*
X247099Y301444D01*
X247158Y301390D01*
X247215Y301333D01*
X247269Y301274D01*
X247321Y301212D01*
X247369Y301147D01*
X247414Y301080D01*
X247456Y301012D01*
X247495Y300941D01*
X247530Y300868D01*
X247562Y300794D01*
X247590Y300719D01*
X247614Y300642D01*
X247635Y300564D01*
X247652Y300485D01*
X247666Y300406D01*
X247675Y300326D01*
X247681Y300246D01*
X247683Y300165D01*
X247681Y300084D01*
X247675Y300004D01*
X247666Y299924D01*
X247652Y299845D01*
X247635Y299766D01*
X247614Y299688D01*
X247590Y299611D01*
X247562Y299536D01*
X247530Y299462D01*
X247495Y299389D01*
X247456Y299319D01*
X247414Y299250D01*
X247369Y299183D01*
X247321Y299118D01*
X247269Y299056D01*
X247215Y298997D01*
X247158Y298940D01*
X247099Y298886D01*
X247037Y298834D01*
X246972Y298786D01*
X246905Y298741D01*
X246837Y298699D01*
X246766Y298660D01*
X246693Y298625D01*
X246619Y298593D01*
X246544Y298565D01*
X246467Y298541D01*
X246389Y298520D01*
X246310Y298503D01*
X246231Y298489D01*
X246151Y298480D01*
X246071Y298474D01*
X245990Y298472D01*
X245990Y298471D02*
X244296Y298471D01*
X246328Y298471D02*
X247683Y295762D01*
X251077Y295762D02*
X252770Y295762D01*
X252851Y295764D01*
X252931Y295770D01*
X253011Y295779D01*
X253090Y295793D01*
X253169Y295810D01*
X253247Y295831D01*
X253324Y295855D01*
X253399Y295883D01*
X253473Y295915D01*
X253546Y295950D01*
X253617Y295989D01*
X253685Y296031D01*
X253752Y296076D01*
X253817Y296124D01*
X253879Y296176D01*
X253938Y296230D01*
X253995Y296287D01*
X254049Y296346D01*
X254101Y296408D01*
X254149Y296473D01*
X254194Y296540D01*
X254236Y296609D01*
X254275Y296679D01*
X254310Y296752D01*
X254342Y296826D01*
X254370Y296901D01*
X254394Y296978D01*
X254415Y297056D01*
X254432Y297135D01*
X254446Y297214D01*
X254455Y297294D01*
X254461Y297374D01*
X254463Y297455D01*
X254461Y297536D01*
X254455Y297616D01*
X254446Y297696D01*
X254432Y297775D01*
X254415Y297854D01*
X254394Y297932D01*
X254370Y298009D01*
X254342Y298084D01*
X254310Y298158D01*
X254275Y298231D01*
X254236Y298302D01*
X254194Y298370D01*
X254149Y298437D01*
X254101Y298502D01*
X254049Y298564D01*
X253995Y298623D01*
X253938Y298680D01*
X253879Y298734D01*
X253817Y298786D01*
X253752Y298834D01*
X253685Y298879D01*
X253616Y298921D01*
X253546Y298960D01*
X253473Y298995D01*
X253399Y299027D01*
X253324Y299055D01*
X253247Y299079D01*
X253169Y299100D01*
X253090Y299117D01*
X253011Y299131D01*
X252931Y299140D01*
X252851Y299146D01*
X252770Y299148D01*
X253109Y301858D02*
X251077Y301858D01*
X253109Y301858D02*
X253181Y301856D01*
X253253Y301850D01*
X253325Y301841D01*
X253395Y301827D01*
X253466Y301810D01*
X253535Y301789D01*
X253602Y301765D01*
X253669Y301737D01*
X253734Y301705D01*
X253797Y301670D01*
X253858Y301632D01*
X253917Y301591D01*
X253974Y301546D01*
X254028Y301499D01*
X254080Y301448D01*
X254129Y301395D01*
X254175Y301340D01*
X254218Y301282D01*
X254258Y301222D01*
X254294Y301160D01*
X254328Y301096D01*
X254357Y301030D01*
X254384Y300963D01*
X254406Y300894D01*
X254425Y300825D01*
X254441Y300754D01*
X254452Y300683D01*
X254460Y300611D01*
X254464Y300539D01*
X254464Y300467D01*
X254460Y300395D01*
X254452Y300323D01*
X254441Y300252D01*
X254425Y300181D01*
X254406Y300112D01*
X254384Y300043D01*
X254357Y299976D01*
X254328Y299910D01*
X254294Y299846D01*
X254258Y299784D01*
X254218Y299724D01*
X254175Y299666D01*
X254129Y299611D01*
X254080Y299558D01*
X254028Y299507D01*
X253974Y299460D01*
X253917Y299415D01*
X253858Y299374D01*
X253797Y299336D01*
X253734Y299301D01*
X253669Y299269D01*
X253602Y299241D01*
X253535Y299217D01*
X253466Y299196D01*
X253395Y299179D01*
X253325Y299165D01*
X253253Y299156D01*
X253181Y299150D01*
X253109Y299148D01*
X253109Y299149D02*
X251754Y299149D01*
X270296Y196858D02*
X270296Y190762D01*
X270296Y196858D02*
X271990Y196858D01*
X272071Y196856D01*
X272151Y196850D01*
X272231Y196841D01*
X272310Y196827D01*
X272389Y196810D01*
X272467Y196789D01*
X272544Y196765D01*
X272619Y196737D01*
X272693Y196705D01*
X272766Y196670D01*
X272837Y196631D01*
X272905Y196589D01*
X272972Y196544D01*
X273037Y196496D01*
X273099Y196444D01*
X273158Y196390D01*
X273215Y196333D01*
X273269Y196274D01*
X273321Y196212D01*
X273369Y196147D01*
X273414Y196080D01*
X273456Y196012D01*
X273495Y195941D01*
X273530Y195868D01*
X273562Y195794D01*
X273590Y195719D01*
X273614Y195642D01*
X273635Y195564D01*
X273652Y195485D01*
X273666Y195406D01*
X273675Y195326D01*
X273681Y195246D01*
X273683Y195165D01*
X273681Y195084D01*
X273675Y195004D01*
X273666Y194924D01*
X273652Y194845D01*
X273635Y194766D01*
X273614Y194688D01*
X273590Y194611D01*
X273562Y194536D01*
X273530Y194462D01*
X273495Y194389D01*
X273456Y194319D01*
X273414Y194250D01*
X273369Y194183D01*
X273321Y194118D01*
X273269Y194056D01*
X273215Y193997D01*
X273158Y193940D01*
X273099Y193886D01*
X273037Y193834D01*
X272972Y193786D01*
X272905Y193741D01*
X272837Y193699D01*
X272766Y193660D01*
X272693Y193625D01*
X272619Y193593D01*
X272544Y193565D01*
X272467Y193541D01*
X272389Y193520D01*
X272310Y193503D01*
X272231Y193489D01*
X272151Y193480D01*
X272071Y193474D01*
X271990Y193472D01*
X271990Y193471D02*
X270296Y193471D01*
X272328Y193471D02*
X273683Y190762D01*
X277077Y192117D02*
X278432Y196858D01*
X277077Y192117D02*
X280464Y192117D01*
X279448Y193471D02*
X279448Y190762D01*
X253296Y190762D02*
X253296Y196858D01*
X254990Y196858D01*
X255071Y196856D01*
X255151Y196850D01*
X255231Y196841D01*
X255310Y196827D01*
X255389Y196810D01*
X255467Y196789D01*
X255544Y196765D01*
X255619Y196737D01*
X255693Y196705D01*
X255766Y196670D01*
X255836Y196631D01*
X255905Y196589D01*
X255972Y196544D01*
X256037Y196496D01*
X256099Y196444D01*
X256158Y196390D01*
X256215Y196333D01*
X256269Y196274D01*
X256321Y196212D01*
X256369Y196147D01*
X256414Y196080D01*
X256456Y196012D01*
X256495Y195941D01*
X256530Y195868D01*
X256562Y195794D01*
X256590Y195719D01*
X256614Y195642D01*
X256635Y195564D01*
X256652Y195485D01*
X256666Y195406D01*
X256675Y195326D01*
X256681Y195246D01*
X256683Y195165D01*
X256681Y195084D01*
X256675Y195004D01*
X256666Y194924D01*
X256652Y194845D01*
X256635Y194766D01*
X256614Y194688D01*
X256590Y194611D01*
X256562Y194536D01*
X256530Y194462D01*
X256495Y194389D01*
X256456Y194319D01*
X256414Y194250D01*
X256369Y194183D01*
X256321Y194118D01*
X256269Y194056D01*
X256215Y193997D01*
X256158Y193940D01*
X256099Y193886D01*
X256037Y193834D01*
X255972Y193786D01*
X255905Y193741D01*
X255837Y193699D01*
X255766Y193660D01*
X255693Y193625D01*
X255619Y193593D01*
X255544Y193565D01*
X255467Y193541D01*
X255389Y193520D01*
X255310Y193503D01*
X255231Y193489D01*
X255151Y193480D01*
X255071Y193474D01*
X254990Y193472D01*
X254990Y193471D02*
X253296Y193471D01*
X255328Y193471D02*
X256683Y190762D01*
X260077Y190762D02*
X262109Y190762D01*
X262180Y190764D01*
X262251Y190769D01*
X262321Y190779D01*
X262391Y190792D01*
X262460Y190808D01*
X262528Y190828D01*
X262595Y190852D01*
X262660Y190879D01*
X262724Y190910D01*
X262787Y190944D01*
X262847Y190981D01*
X262905Y191021D01*
X262962Y191064D01*
X263016Y191110D01*
X263067Y191159D01*
X263116Y191210D01*
X263162Y191264D01*
X263205Y191321D01*
X263245Y191379D01*
X263282Y191440D01*
X263316Y191502D01*
X263347Y191566D01*
X263374Y191631D01*
X263398Y191698D01*
X263418Y191766D01*
X263434Y191835D01*
X263447Y191905D01*
X263457Y191975D01*
X263462Y192046D01*
X263464Y192117D01*
X263464Y192794D01*
X263462Y192865D01*
X263457Y192936D01*
X263447Y193006D01*
X263434Y193076D01*
X263418Y193145D01*
X263398Y193213D01*
X263374Y193280D01*
X263347Y193345D01*
X263316Y193409D01*
X263282Y193472D01*
X263245Y193532D01*
X263205Y193590D01*
X263162Y193647D01*
X263116Y193701D01*
X263067Y193752D01*
X263016Y193801D01*
X262962Y193847D01*
X262905Y193890D01*
X262847Y193930D01*
X262787Y193967D01*
X262724Y194001D01*
X262660Y194032D01*
X262595Y194059D01*
X262528Y194083D01*
X262460Y194103D01*
X262391Y194119D01*
X262321Y194132D01*
X262251Y194142D01*
X262180Y194147D01*
X262109Y194149D01*
X260077Y194149D01*
X260077Y196858D01*
X263464Y196858D01*
M02*
