G04 EAGLE Gerber RS-274X export*
G75*
%MOMM*%
%FSLAX34Y34*%
%LPD*%
%INSolderpaste Top*%
%IPPOS*%
%AMOC8*
5,1,8,0,0,1.08239X$1,22.5*%
G01*
%ADD10R,0.300000X0.850000*%
%ADD11R,0.850000X0.300000*%
%ADD12R,5.250000X5.250000*%
%ADD13C,0.280800*%
%ADD14C,0.500000*%
%ADD15C,0.402900*%
%ADD16R,1.800000X1.000000*%
%ADD17R,0.850000X0.950000*%
%ADD18R,4.000000X4.000000*%
%ADD19R,4.064000X6.096000*%
%ADD20R,2.500000X1.200000*%
%ADD21C,0.125000*%
%ADD22R,1.000000X1.400000*%
%ADD23R,1.000000X1.100000*%


D10*
X164258Y310871D03*
X159258Y310871D03*
X154258Y310871D03*
X149258Y310871D03*
X144258Y310871D03*
X139258Y310871D03*
X134258Y310871D03*
X129258Y310871D03*
X124258Y310871D03*
X119258Y310871D03*
X114258Y310871D03*
X109258Y310871D03*
D11*
X102258Y303871D03*
X102258Y298871D03*
X102258Y293871D03*
X102258Y288871D03*
X102258Y283871D03*
X102258Y278871D03*
X102258Y273871D03*
X102258Y268871D03*
X102258Y263871D03*
X102258Y258871D03*
X102258Y253871D03*
X102258Y248871D03*
D10*
X109258Y241871D03*
X114258Y241871D03*
X119258Y241871D03*
X124258Y241871D03*
X129258Y241871D03*
X134258Y241871D03*
X139258Y241871D03*
X144258Y241871D03*
X149258Y241871D03*
X154258Y241871D03*
X159258Y241871D03*
X164258Y241871D03*
D11*
X171258Y248871D03*
X171258Y253871D03*
X171258Y258871D03*
X171258Y263871D03*
X171258Y268871D03*
X171258Y273871D03*
X171258Y278871D03*
X171258Y283871D03*
X171258Y288871D03*
X171258Y293871D03*
X171258Y298871D03*
X171258Y303871D03*
D12*
X136758Y276371D03*
D13*
X88161Y208752D02*
X85569Y208752D01*
X88161Y208752D02*
X88161Y205560D01*
X85569Y205560D01*
X85569Y208752D01*
X85569Y208228D02*
X88161Y208228D01*
X94169Y205560D02*
X96761Y205560D01*
X94169Y205560D02*
X94169Y208752D01*
X96761Y208752D01*
X96761Y205560D01*
X96761Y208228D02*
X94169Y208228D01*
X88161Y198465D02*
X85569Y198465D01*
X88161Y198465D02*
X88161Y195273D01*
X85569Y195273D01*
X85569Y198465D01*
X85569Y197941D02*
X88161Y197941D01*
X94169Y195273D02*
X96761Y195273D01*
X94169Y195273D02*
X94169Y198465D01*
X96761Y198465D01*
X96761Y195273D01*
X96761Y197941D02*
X94169Y197941D01*
X187677Y255996D02*
X190269Y255996D01*
X190269Y252804D01*
X187677Y252804D01*
X187677Y255996D01*
X187677Y255472D02*
X190269Y255472D01*
X196277Y252804D02*
X198869Y252804D01*
X196277Y252804D02*
X196277Y255996D01*
X198869Y255996D01*
X198869Y252804D01*
X198869Y255472D02*
X196277Y255472D01*
X196404Y243025D02*
X198996Y243025D01*
X196404Y243025D02*
X196404Y246217D01*
X198996Y246217D01*
X198996Y243025D01*
X198996Y245693D02*
X196404Y245693D01*
X190396Y246217D02*
X187804Y246217D01*
X190396Y246217D02*
X190396Y243025D01*
X187804Y243025D01*
X187804Y246217D01*
X187804Y245693D02*
X190396Y245693D01*
X79968Y249601D02*
X77376Y249601D01*
X79968Y249601D02*
X79968Y246409D01*
X77376Y246409D01*
X77376Y249601D01*
X77376Y249077D02*
X79968Y249077D01*
X85976Y246409D02*
X88568Y246409D01*
X85976Y246409D02*
X85976Y249601D01*
X88568Y249601D01*
X88568Y246409D01*
X88568Y249077D02*
X85976Y249077D01*
X77343Y342350D02*
X77343Y344942D01*
X80535Y344942D01*
X80535Y342350D01*
X77343Y342350D01*
X80535Y350950D02*
X80535Y353542D01*
X80535Y350950D02*
X77343Y350950D01*
X77343Y353542D01*
X80535Y353542D01*
X80709Y335551D02*
X80709Y332959D01*
X77517Y332959D01*
X77517Y335551D01*
X80709Y335551D01*
X77517Y326951D02*
X77517Y324359D01*
X77517Y326951D02*
X80709Y326951D01*
X80709Y324359D01*
X77517Y324359D01*
X85263Y302207D02*
X87855Y302207D01*
X85263Y302207D02*
X85263Y305399D01*
X87855Y305399D01*
X87855Y302207D01*
X87855Y304875D02*
X85263Y304875D01*
X79255Y305399D02*
X76663Y305399D01*
X79255Y305399D02*
X79255Y302207D01*
X76663Y302207D01*
X76663Y305399D01*
X76663Y304875D02*
X79255Y304875D01*
X85993Y257249D02*
X88585Y257249D01*
X85993Y257249D02*
X85993Y260441D01*
X88585Y260441D01*
X88585Y257249D01*
X88585Y259917D02*
X85993Y259917D01*
X79985Y260441D02*
X77393Y260441D01*
X79985Y260441D02*
X79985Y257249D01*
X77393Y257249D01*
X77393Y260441D01*
X77393Y259917D02*
X79985Y259917D01*
X189582Y269585D02*
X192174Y269585D01*
X192174Y266393D01*
X189582Y266393D01*
X189582Y269585D01*
X189582Y269061D02*
X192174Y269061D01*
X198182Y266393D02*
X200774Y266393D01*
X198182Y266393D02*
X198182Y269585D01*
X200774Y269585D01*
X200774Y266393D01*
X200774Y269061D02*
X198182Y269061D01*
X190396Y236057D02*
X187804Y236057D01*
X190396Y236057D02*
X190396Y232865D01*
X187804Y232865D01*
X187804Y236057D01*
X187804Y235533D02*
X190396Y235533D01*
X196404Y232865D02*
X198996Y232865D01*
X196404Y232865D02*
X196404Y236057D01*
X198996Y236057D01*
X198996Y232865D01*
X198996Y235533D02*
X196404Y235533D01*
D14*
X175648Y226721D02*
X175648Y221721D01*
X166448Y221721D01*
X166448Y226721D01*
X175648Y226721D01*
X175648Y226471D02*
X166448Y226471D01*
X166448Y208021D02*
X166448Y203021D01*
X166448Y208021D02*
X175648Y208021D01*
X175648Y203021D01*
X166448Y203021D01*
X166448Y207771D02*
X175648Y207771D01*
X123030Y207878D02*
X123030Y202878D01*
X123030Y207878D02*
X132230Y207878D01*
X132230Y202878D01*
X123030Y202878D01*
X123030Y207628D02*
X132230Y207628D01*
X132230Y221578D02*
X132230Y226578D01*
X132230Y221578D02*
X123030Y221578D01*
X123030Y226578D01*
X132230Y226578D01*
X132230Y226328D02*
X123030Y226328D01*
D13*
X189582Y279237D02*
X192174Y279237D01*
X192174Y276045D01*
X189582Y276045D01*
X189582Y279237D01*
X189582Y278713D02*
X192174Y278713D01*
X198182Y276045D02*
X200774Y276045D01*
X198182Y276045D02*
X198182Y279237D01*
X200774Y279237D01*
X200774Y276045D01*
X200774Y278713D02*
X198182Y278713D01*
X178872Y308443D02*
X178872Y311035D01*
X182064Y311035D01*
X182064Y308443D01*
X178872Y308443D01*
X182064Y317043D02*
X182064Y319635D01*
X182064Y317043D02*
X178872Y317043D01*
X178872Y319635D01*
X182064Y319635D01*
D15*
X107524Y219125D02*
X103652Y219125D01*
X103652Y224397D01*
X107524Y224397D01*
X107524Y219125D01*
X107524Y222953D02*
X103652Y222953D01*
X91124Y224397D02*
X87252Y224397D01*
X91124Y224397D02*
X91124Y219125D01*
X87252Y219125D01*
X87252Y224397D01*
X87252Y222953D02*
X91124Y222953D01*
D14*
X154168Y221973D02*
X154168Y226973D01*
X154168Y221973D02*
X144968Y221973D01*
X144968Y226973D01*
X154168Y226973D01*
X154168Y226723D02*
X144968Y226723D01*
X144968Y208273D02*
X144968Y203273D01*
X144968Y208273D02*
X154168Y208273D01*
X154168Y203273D01*
X144968Y203273D01*
X144968Y208023D02*
X154168Y208023D01*
D16*
X95136Y351784D03*
X95136Y326784D03*
D17*
X198219Y308146D03*
X198219Y293646D03*
X209719Y293646D03*
X209719Y308146D03*
D13*
X179011Y352937D02*
X180903Y354708D01*
X179011Y352937D02*
X176831Y355266D01*
X178723Y357037D01*
X180903Y354708D01*
X180063Y355605D02*
X177193Y355605D01*
X172443Y351161D02*
X170551Y349390D01*
X172443Y351161D02*
X174623Y348832D01*
X172731Y347061D01*
X170551Y349390D01*
X170913Y349729D02*
X173783Y349729D01*
D18*
X148873Y98640D03*
D19*
X29493Y98640D03*
X268253Y98640D03*
D20*
G36*
X231247Y194517D02*
X231465Y219515D01*
X243463Y219411D01*
X243245Y194413D01*
X231247Y194517D01*
G37*
G36*
X198248Y194804D02*
X198466Y219802D01*
X210464Y219698D01*
X210246Y194700D01*
X198248Y194804D01*
G37*
D21*
X159249Y329444D02*
X155999Y329444D01*
X155999Y330694D01*
X159249Y330694D01*
X159249Y329444D01*
X159249Y330631D02*
X155999Y330631D01*
X164199Y329444D02*
X167449Y329444D01*
X164199Y329444D02*
X164199Y330694D01*
X167449Y330694D01*
X167449Y329444D01*
X167449Y330631D02*
X164199Y330631D01*
X159249Y334444D02*
X155999Y334444D01*
X155999Y335694D01*
X159249Y335694D01*
X159249Y334444D01*
X159249Y335631D02*
X155999Y335631D01*
X164199Y334444D02*
X167449Y334444D01*
X164199Y334444D02*
X164199Y335694D01*
X167449Y335694D01*
X167449Y334444D01*
X167449Y335631D02*
X164199Y335631D01*
X159249Y324444D02*
X155999Y324444D01*
X155999Y325694D01*
X159249Y325694D01*
X159249Y324444D01*
X159249Y325631D02*
X155999Y325631D01*
X164199Y324444D02*
X167449Y324444D01*
X164199Y324444D02*
X164199Y325694D01*
X167449Y325694D01*
X167449Y324444D01*
X167449Y325631D02*
X164199Y325631D01*
D22*
X38635Y172175D03*
X29135Y194175D03*
X48135Y194175D03*
X38381Y240175D03*
X47881Y218175D03*
X28881Y218175D03*
D23*
X47000Y285500D03*
X47000Y268500D03*
X249000Y268500D03*
X249000Y285500D03*
X275000Y163500D03*
X275000Y180500D03*
X258000Y163500D03*
X258000Y180500D03*
M02*
