G04 EAGLE Gerber RS-274X export*
G75*
%MOMM*%
%FSLAX34Y34*%
%LPD*%
%INSoldermask Top*%
%IPPOS*%
%AMOC8*
5,1,8,0,0,1.08239X$1,22.5*%
G01*
%ADD10C,1.927000*%
%ADD11R,0.427000X0.977000*%
%ADD12R,0.977000X0.427000*%
%ADD13R,5.377000X5.377000*%
%ADD14C,0.406869*%
%ADD15C,0.631119*%
%ADD16C,0.531859*%
%ADD17R,1.927000X1.127000*%
%ADD18R,0.977000X1.077000*%
%ADD19R,1.905000X2.667000*%
%ADD20C,8.127000*%
%ADD21R,2.627000X1.327000*%
%ADD22C,0.252588*%
%ADD23R,1.127000X1.527000*%
%ADD24R,1.127000X1.227000*%
%ADD25R,0.627000X0.627000*%
%ADD26R,1.027000X0.627000*%
%ADD27C,1.227000*%


D10*
X260760Y58880D03*
X47760Y373880D03*
D11*
X164258Y310871D03*
X159258Y310871D03*
X154258Y310871D03*
X149258Y310871D03*
X144258Y310871D03*
X139258Y310871D03*
X134258Y310871D03*
X129258Y310871D03*
X124258Y310871D03*
X119258Y310871D03*
X114258Y310871D03*
X109258Y310871D03*
D12*
X102258Y303871D03*
X102258Y298871D03*
X102258Y293871D03*
X102258Y288871D03*
X102258Y283871D03*
X102258Y278871D03*
X102258Y273871D03*
X102258Y268871D03*
X102258Y263871D03*
X102258Y258871D03*
X102258Y253871D03*
X102258Y248871D03*
D11*
X109258Y241871D03*
X114258Y241871D03*
X119258Y241871D03*
X124258Y241871D03*
X129258Y241871D03*
X134258Y241871D03*
X139258Y241871D03*
X144258Y241871D03*
X149258Y241871D03*
X154258Y241871D03*
X159258Y241871D03*
X164258Y241871D03*
D12*
X171258Y248871D03*
X171258Y253871D03*
X171258Y258871D03*
X171258Y263871D03*
X171258Y268871D03*
X171258Y273871D03*
X171258Y278871D03*
X171258Y283871D03*
X171258Y288871D03*
X171258Y293871D03*
X171258Y298871D03*
X171258Y303871D03*
D13*
X136758Y276371D03*
D14*
X88166Y208757D02*
X85564Y208757D01*
X88166Y208757D02*
X88166Y205555D01*
X85564Y205555D01*
X85564Y208757D01*
X94164Y205555D02*
X96766Y205555D01*
X94164Y205555D02*
X94164Y208757D01*
X96766Y208757D01*
X96766Y205555D01*
X88166Y198470D02*
X85564Y198470D01*
X88166Y198470D02*
X88166Y195268D01*
X85564Y195268D01*
X85564Y198470D01*
X94164Y195268D02*
X96766Y195268D01*
X94164Y195268D02*
X94164Y198470D01*
X96766Y198470D01*
X96766Y195268D01*
X187672Y256001D02*
X190274Y256001D01*
X190274Y252799D01*
X187672Y252799D01*
X187672Y256001D01*
X196272Y252799D02*
X198874Y252799D01*
X196272Y252799D02*
X196272Y256001D01*
X198874Y256001D01*
X198874Y252799D01*
X199001Y243020D02*
X196399Y243020D01*
X196399Y246222D01*
X199001Y246222D01*
X199001Y243020D01*
X190401Y246222D02*
X187799Y246222D01*
X190401Y246222D02*
X190401Y243020D01*
X187799Y243020D01*
X187799Y246222D01*
X79973Y249606D02*
X77371Y249606D01*
X79973Y249606D02*
X79973Y246404D01*
X77371Y246404D01*
X77371Y249606D01*
X85971Y246404D02*
X88573Y246404D01*
X85971Y246404D02*
X85971Y249606D01*
X88573Y249606D01*
X88573Y246404D01*
X77338Y342345D02*
X77338Y344947D01*
X80540Y344947D01*
X80540Y342345D01*
X77338Y342345D01*
X80540Y350945D02*
X80540Y353547D01*
X80540Y350945D02*
X77338Y350945D01*
X77338Y353547D01*
X80540Y353547D01*
X80714Y335556D02*
X80714Y332954D01*
X77512Y332954D01*
X77512Y335556D01*
X80714Y335556D01*
X77512Y326956D02*
X77512Y324354D01*
X77512Y326956D02*
X80714Y326956D01*
X80714Y324354D01*
X77512Y324354D01*
X85258Y302202D02*
X87860Y302202D01*
X85258Y302202D02*
X85258Y305404D01*
X87860Y305404D01*
X87860Y302202D01*
X79260Y305404D02*
X76658Y305404D01*
X79260Y305404D02*
X79260Y302202D01*
X76658Y302202D01*
X76658Y305404D01*
X85988Y257244D02*
X88590Y257244D01*
X85988Y257244D02*
X85988Y260446D01*
X88590Y260446D01*
X88590Y257244D01*
X79990Y260446D02*
X77388Y260446D01*
X79990Y260446D02*
X79990Y257244D01*
X77388Y257244D01*
X77388Y260446D01*
X189577Y269590D02*
X192179Y269590D01*
X192179Y266388D01*
X189577Y266388D01*
X189577Y269590D01*
X198177Y266388D02*
X200779Y266388D01*
X198177Y266388D02*
X198177Y269590D01*
X200779Y269590D01*
X200779Y266388D01*
X190401Y236062D02*
X187799Y236062D01*
X190401Y236062D02*
X190401Y232860D01*
X187799Y232860D01*
X187799Y236062D01*
X196399Y232860D02*
X199001Y232860D01*
X196399Y232860D02*
X196399Y236062D01*
X199001Y236062D01*
X199001Y232860D01*
D15*
X175628Y226701D02*
X175628Y221741D01*
X166468Y221741D01*
X166468Y226701D01*
X175628Y226701D01*
X166468Y208001D02*
X166468Y203041D01*
X166468Y208001D02*
X175628Y208001D01*
X175628Y203041D01*
X166468Y203041D01*
X123050Y202898D02*
X123050Y207858D01*
X132210Y207858D01*
X132210Y202898D01*
X123050Y202898D01*
X132210Y221598D02*
X132210Y226558D01*
X132210Y221598D02*
X123050Y221598D01*
X123050Y226558D01*
X132210Y226558D01*
D14*
X189577Y279242D02*
X192179Y279242D01*
X192179Y276040D01*
X189577Y276040D01*
X189577Y279242D01*
X198177Y276040D02*
X200779Y276040D01*
X198177Y276040D02*
X198177Y279242D01*
X200779Y279242D01*
X200779Y276040D01*
X178867Y308438D02*
X178867Y311040D01*
X182069Y311040D01*
X182069Y308438D01*
X178867Y308438D01*
X182069Y317038D02*
X182069Y319640D01*
X182069Y317038D02*
X178867Y317038D01*
X178867Y319640D01*
X182069Y319640D01*
D16*
X107514Y219135D02*
X103662Y219135D01*
X103662Y224387D01*
X107514Y224387D01*
X107514Y219135D01*
X107514Y224188D02*
X103662Y224188D01*
X91114Y224387D02*
X87262Y224387D01*
X91114Y224387D02*
X91114Y219135D01*
X87262Y219135D01*
X87262Y224387D01*
X87262Y224188D02*
X91114Y224188D01*
D15*
X154148Y221993D02*
X154148Y226953D01*
X154148Y221993D02*
X144988Y221993D01*
X144988Y226953D01*
X154148Y226953D01*
X144988Y208253D02*
X144988Y203293D01*
X144988Y208253D02*
X154148Y208253D01*
X154148Y203293D01*
X144988Y203293D01*
D17*
X95136Y351784D03*
X95136Y326784D03*
D18*
X198219Y308146D03*
X198219Y293646D03*
X209719Y293646D03*
X209719Y308146D03*
D14*
X179010Y352930D02*
X180910Y354707D01*
X179010Y352930D02*
X176824Y355267D01*
X178724Y357044D01*
X180910Y354707D01*
X178956Y356796D02*
X178459Y356796D01*
X172444Y351168D02*
X170544Y349391D01*
X172444Y351168D02*
X174630Y348831D01*
X172730Y347054D01*
X170544Y349391D01*
X172179Y350920D02*
X172676Y350920D01*
D19*
X38873Y114140D03*
D20*
X123873Y98640D02*
X173873Y98640D01*
D19*
X258873Y114140D03*
X38873Y83140D03*
X258873Y83140D03*
D21*
G36*
X230606Y193888D02*
X230835Y220156D01*
X244104Y220040D01*
X243875Y193772D01*
X230606Y193888D01*
G37*
G36*
X197607Y194175D02*
X197836Y220443D01*
X211105Y220327D01*
X210876Y194059D01*
X197607Y194175D01*
G37*
D22*
X159246Y329447D02*
X156002Y329447D01*
X156002Y330691D01*
X159246Y330691D01*
X159246Y329447D01*
X164202Y329447D02*
X167446Y329447D01*
X164202Y329447D02*
X164202Y330691D01*
X167446Y330691D01*
X167446Y329447D01*
X159246Y334447D02*
X156002Y334447D01*
X156002Y335691D01*
X159246Y335691D01*
X159246Y334447D01*
X164202Y334447D02*
X167446Y334447D01*
X164202Y334447D02*
X164202Y335691D01*
X167446Y335691D01*
X167446Y334447D01*
X159246Y324447D02*
X156002Y324447D01*
X156002Y325691D01*
X159246Y325691D01*
X159246Y324447D01*
X164202Y324447D02*
X167446Y324447D01*
X164202Y324447D02*
X164202Y325691D01*
X167446Y325691D01*
X167446Y324447D01*
D23*
X38635Y172175D03*
X29135Y194175D03*
X48135Y194175D03*
X38381Y240175D03*
X47881Y218175D03*
X28881Y218175D03*
D24*
X47000Y285500D03*
X47000Y268500D03*
X249000Y268500D03*
X249000Y285500D03*
X275000Y163500D03*
X275000Y180500D03*
X258000Y163500D03*
X258000Y180500D03*
D25*
X178884Y364904D03*
D26*
X200000Y365000D03*
D27*
X24000Y319527D03*
X23944Y306849D03*
X23960Y294156D03*
X24022Y281472D03*
X24000Y256000D03*
X24000Y268707D03*
M02*
