G04 EAGLE Gerber RS-274X export*
G75*
%MOMM*%
%FSLAX34Y34*%
%LPD*%
%INSolderpaste Top*%
%IPPOS*%
%AMOC8*
5,1,8,0,0,1.08239X$1,22.5*%
G01*
%ADD10R,0.300000X0.850000*%
%ADD11R,0.850000X0.300000*%
%ADD12R,5.250000X5.250000*%
%ADD13C,0.280800*%
%ADD14C,0.500000*%
%ADD15C,0.402900*%
%ADD16R,1.800000X1.000000*%
%ADD17R,0.850000X0.950000*%
%ADD18R,4.000000X4.000000*%
%ADD19R,4.064000X6.096000*%
%ADD20R,2.500000X1.200000*%
%ADD21C,0.125000*%
%ADD22R,1.000000X1.400000*%
%ADD23R,1.000000X1.100000*%


D10*
X164258Y310871D03*
X159258Y310871D03*
X154258Y310871D03*
X149258Y310871D03*
X144258Y310871D03*
X139258Y310871D03*
X134258Y310871D03*
X129258Y310871D03*
X124258Y310871D03*
X119258Y310871D03*
X114258Y310871D03*
X109258Y310871D03*
D11*
X102258Y303871D03*
X102258Y298871D03*
X102258Y293871D03*
X102258Y288871D03*
X102258Y283871D03*
X102258Y278871D03*
X102258Y273871D03*
X102258Y268871D03*
X102258Y263871D03*
X102258Y258871D03*
X102258Y253871D03*
X102258Y248871D03*
D10*
X109258Y241871D03*
X114258Y241871D03*
X119258Y241871D03*
X124258Y241871D03*
X129258Y241871D03*
X134258Y241871D03*
X139258Y241871D03*
X144258Y241871D03*
X149258Y241871D03*
X154258Y241871D03*
X159258Y241871D03*
X164258Y241871D03*
D11*
X171258Y248871D03*
X171258Y253871D03*
X171258Y258871D03*
X171258Y263871D03*
X171258Y268871D03*
X171258Y273871D03*
X171258Y278871D03*
X171258Y283871D03*
X171258Y288871D03*
X171258Y293871D03*
X171258Y298871D03*
X171258Y303871D03*
D12*
X136758Y276371D03*
D13*
X86643Y210524D02*
X84051Y210524D01*
X86643Y210524D02*
X86643Y207332D01*
X84051Y207332D01*
X84051Y210524D01*
X84051Y210000D02*
X86643Y210000D01*
X92651Y207332D02*
X95243Y207332D01*
X92651Y207332D02*
X92651Y210524D01*
X95243Y210524D01*
X95243Y207332D01*
X95243Y210000D02*
X92651Y210000D01*
X86643Y200237D02*
X84051Y200237D01*
X86643Y200237D02*
X86643Y197045D01*
X84051Y197045D01*
X84051Y200237D01*
X84051Y199713D02*
X86643Y199713D01*
X92651Y197045D02*
X95243Y197045D01*
X92651Y197045D02*
X92651Y200237D01*
X95243Y200237D01*
X95243Y197045D01*
X95243Y199713D02*
X92651Y199713D01*
X187677Y255996D02*
X190269Y255996D01*
X190269Y252804D01*
X187677Y252804D01*
X187677Y255996D01*
X187677Y255472D02*
X190269Y255472D01*
X196277Y252804D02*
X198869Y252804D01*
X196277Y252804D02*
X196277Y255996D01*
X198869Y255996D01*
X198869Y252804D01*
X198869Y255472D02*
X196277Y255472D01*
X196404Y243025D02*
X198996Y243025D01*
X196404Y243025D02*
X196404Y246217D01*
X198996Y246217D01*
X198996Y243025D01*
X198996Y245693D02*
X196404Y245693D01*
X190396Y246217D02*
X187804Y246217D01*
X190396Y246217D02*
X190396Y243025D01*
X187804Y243025D01*
X187804Y246217D01*
X187804Y245693D02*
X190396Y245693D01*
X79968Y249601D02*
X77376Y249601D01*
X79968Y249601D02*
X79968Y246409D01*
X77376Y246409D01*
X77376Y249601D01*
X77376Y249077D02*
X79968Y249077D01*
X85976Y246409D02*
X88568Y246409D01*
X85976Y246409D02*
X85976Y249601D01*
X88568Y249601D01*
X88568Y246409D01*
X88568Y249077D02*
X85976Y249077D01*
X77343Y342350D02*
X77343Y344942D01*
X80535Y344942D01*
X80535Y342350D01*
X77343Y342350D01*
X80535Y350950D02*
X80535Y353542D01*
X80535Y350950D02*
X77343Y350950D01*
X77343Y353542D01*
X80535Y353542D01*
X80709Y335551D02*
X80709Y332959D01*
X77517Y332959D01*
X77517Y335551D01*
X80709Y335551D01*
X77517Y326951D02*
X77517Y324359D01*
X77517Y326951D02*
X80709Y326951D01*
X80709Y324359D01*
X77517Y324359D01*
X85263Y302207D02*
X87855Y302207D01*
X85263Y302207D02*
X85263Y305399D01*
X87855Y305399D01*
X87855Y302207D01*
X87855Y304875D02*
X85263Y304875D01*
X79255Y305399D02*
X76663Y305399D01*
X79255Y305399D02*
X79255Y302207D01*
X76663Y302207D01*
X76663Y305399D01*
X76663Y304875D02*
X79255Y304875D01*
X85993Y257249D02*
X88585Y257249D01*
X85993Y257249D02*
X85993Y260441D01*
X88585Y260441D01*
X88585Y257249D01*
X88585Y259917D02*
X85993Y259917D01*
X79985Y260441D02*
X77393Y260441D01*
X79985Y260441D02*
X79985Y257249D01*
X77393Y257249D01*
X77393Y260441D01*
X77393Y259917D02*
X79985Y259917D01*
X189582Y269585D02*
X192174Y269585D01*
X192174Y266393D01*
X189582Y266393D01*
X189582Y269585D01*
X189582Y269061D02*
X192174Y269061D01*
X198182Y266393D02*
X200774Y266393D01*
X198182Y266393D02*
X198182Y269585D01*
X200774Y269585D01*
X200774Y266393D01*
X200774Y269061D02*
X198182Y269061D01*
X190396Y236057D02*
X187804Y236057D01*
X190396Y236057D02*
X190396Y232865D01*
X187804Y232865D01*
X187804Y236057D01*
X187804Y235533D02*
X190396Y235533D01*
X196404Y232865D02*
X198996Y232865D01*
X196404Y232865D02*
X196404Y236057D01*
X198996Y236057D01*
X198996Y232865D01*
X198996Y235533D02*
X196404Y235533D01*
D14*
X181103Y222109D02*
X176103Y222109D01*
X181103Y222109D02*
X181103Y212909D01*
X176103Y212909D01*
X176103Y222109D01*
X176103Y217659D02*
X181103Y217659D01*
X194803Y212909D02*
X199803Y212909D01*
X194803Y212909D02*
X194803Y222109D01*
X199803Y222109D01*
X199803Y212909D01*
X199803Y217659D02*
X194803Y217659D01*
X130021Y212993D02*
X125021Y212993D01*
X125021Y222193D01*
X130021Y222193D01*
X130021Y212993D01*
X130021Y217743D02*
X125021Y217743D01*
X111321Y222193D02*
X106321Y222193D01*
X111321Y222193D02*
X111321Y212993D01*
X106321Y212993D01*
X106321Y222193D01*
X106321Y217743D02*
X111321Y217743D01*
D13*
X189582Y279237D02*
X192174Y279237D01*
X192174Y276045D01*
X189582Y276045D01*
X189582Y279237D01*
X189582Y278713D02*
X192174Y278713D01*
X198182Y276045D02*
X200774Y276045D01*
X198182Y276045D02*
X198182Y279237D01*
X200774Y279237D01*
X200774Y276045D01*
X200774Y278713D02*
X198182Y278713D01*
X178872Y308443D02*
X178872Y311035D01*
X182064Y311035D01*
X182064Y308443D01*
X178872Y308443D01*
X182064Y317043D02*
X182064Y319635D01*
X182064Y317043D02*
X178872Y317043D01*
X178872Y319635D01*
X182064Y319635D01*
D15*
X95546Y221665D02*
X91674Y221665D01*
X91674Y226937D01*
X95546Y226937D01*
X95546Y221665D01*
X95546Y225493D02*
X91674Y225493D01*
X79146Y226937D02*
X75274Y226937D01*
X79146Y226937D02*
X79146Y221665D01*
X75274Y221665D01*
X75274Y226937D01*
X75274Y225493D02*
X79146Y225493D01*
D14*
X159719Y212944D02*
X164719Y212944D01*
X159719Y212944D02*
X159719Y222144D01*
X164719Y222144D01*
X164719Y212944D01*
X164719Y217694D02*
X159719Y217694D01*
X146019Y222144D02*
X141019Y222144D01*
X146019Y222144D02*
X146019Y212944D01*
X141019Y212944D01*
X141019Y222144D01*
X141019Y217694D02*
X146019Y217694D01*
D16*
X95136Y351784D03*
X95136Y326784D03*
D17*
X198219Y308146D03*
X198219Y293646D03*
X209719Y293646D03*
X209719Y308146D03*
D13*
X179011Y352937D02*
X180903Y354708D01*
X179011Y352937D02*
X176831Y355266D01*
X178723Y357037D01*
X180903Y354708D01*
X180063Y355605D02*
X177193Y355605D01*
X172443Y351161D02*
X170551Y349390D01*
X172443Y351161D02*
X174623Y348832D01*
X172731Y347061D01*
X170551Y349390D01*
X170913Y349729D02*
X173783Y349729D01*
D18*
X148873Y98640D03*
D19*
X29493Y98640D03*
X268253Y98640D03*
D20*
G36*
X252551Y242900D02*
X227553Y243118D01*
X227657Y255116D01*
X252655Y254898D01*
X252551Y242900D01*
G37*
G36*
X252263Y209901D02*
X227265Y210119D01*
X227369Y222117D01*
X252367Y221899D01*
X252263Y209901D01*
G37*
D21*
X159249Y329444D02*
X155999Y329444D01*
X155999Y330694D01*
X159249Y330694D01*
X159249Y329444D01*
X159249Y330631D02*
X155999Y330631D01*
X164199Y329444D02*
X167449Y329444D01*
X164199Y329444D02*
X164199Y330694D01*
X167449Y330694D01*
X167449Y329444D01*
X167449Y330631D02*
X164199Y330631D01*
X159249Y334444D02*
X155999Y334444D01*
X155999Y335694D01*
X159249Y335694D01*
X159249Y334444D01*
X159249Y335631D02*
X155999Y335631D01*
X164199Y334444D02*
X167449Y334444D01*
X164199Y334444D02*
X164199Y335694D01*
X167449Y335694D01*
X167449Y334444D01*
X167449Y335631D02*
X164199Y335631D01*
X159249Y324444D02*
X155999Y324444D01*
X155999Y325694D01*
X159249Y325694D01*
X159249Y324444D01*
X159249Y325631D02*
X155999Y325631D01*
X164199Y324444D02*
X167449Y324444D01*
X164199Y324444D02*
X164199Y325694D01*
X167449Y325694D01*
X167449Y324444D01*
X167449Y325631D02*
X164199Y325631D01*
D22*
X38635Y172175D03*
X29135Y194175D03*
X48135Y194175D03*
X38381Y240175D03*
X47881Y218175D03*
X28881Y218175D03*
D23*
X47000Y285500D03*
X47000Y268500D03*
X246136Y268977D03*
X246136Y285977D03*
X275000Y163500D03*
X275000Y180500D03*
X258000Y163500D03*
X258000Y180500D03*
M02*
