M48
;GenerationSoftware,Autodesk,EAGLE,9.6.2*%
;CreationDate,2022-06-20T19:32:18Z*%
FMAT,2
ICI,OFF
METRIC,TZ,000.000
T5C0.200
T4C0.250
T3C0.254
T2C0.300
T1C1.800
%
G90
M71
T1
X26076Y5888
X4776Y37388
T2
X3076Y36300
X28718Y22541
X28718Y23479
X28718Y24417
X28718Y25355
X28718Y26294
X28718Y27232
X28718Y28170
X28718Y29108
X28618Y30046
X28618Y30984
X28518Y31922
X28405Y32860
X28405Y33798
X28305Y34737
X28205Y35575
X19999Y36500
X887Y10659
X887Y11597
X887Y12535
X887Y13473
X887Y14411
X887Y15349
X887Y20352
X887Y19414
X19024Y36312
X3900Y12200
X3900Y11500
X3900Y10700
X3900Y9100
X3900Y8300
X3900Y7600
X25900Y12200
X25900Y10700
X25900Y11400
X25900Y9100
X25900Y8300
X25900Y7500
X1271Y36315
X2138Y36300
X887Y16600
X4014Y36300
X5890Y36300
X6829Y36300
X7767Y36300
X8705Y36300
X9643Y36300
X10581Y36300
X11519Y36300
X12457Y36300
X13395Y36300
X14333Y36300
X15271Y36300
X16210Y36300
X21087Y36300
X21726Y36300
X22464Y36300
X23402Y36300
X24340Y36300
X25278Y36300
X26216Y36300
X27154Y36300
X28092Y36300
X1217Y35375
X1163Y34406
X1124Y33498
X1046Y32517
X985Y31602
X949Y30689
X887Y29733
X887Y28795
X887Y27857
X887Y26919
X887Y25981
X887Y25043
X887Y24105
X887Y23167
X887Y22228
X887Y21290
X887Y18476
X887Y17538
X887Y9721
X887Y8782
X887Y7844
X887Y6906
X887Y5968
X887Y5030
X887Y4092
X887Y3154
X887Y2216
X887Y1278
X1513Y965
X2451Y965
X3389Y965
X4327Y965
X5265Y965
X6203Y965
X7141Y965
X8079Y965
X9018Y965
X9956Y965
X10894Y965
X11832Y965
X12770Y965
X13708Y965
X14646Y965
X15584Y965
X16522Y965
X17460Y965
X18399Y965
X19337Y965
X20275Y965
X21213Y965
X22151Y965
X23089Y965
X24027Y965
X24965Y965
X25903Y965
X26841Y965
X27779Y965
X28718Y965
X28718Y1903
X28718Y2841
X28718Y3779
X28718Y4717
X28718Y5655
X28718Y6593
X28718Y7532
X28718Y8470
X28718Y9408
X28718Y10346
X28718Y11284
X28718Y12222
X28718Y13160
X28718Y14098
X28718Y15036
X28718Y15974
X28718Y16913
X28718Y17851
X28718Y18789
X28718Y19727
X28718Y20665
X28718Y21603
T3
X18653Y31342
X13555Y21032
X13548Y20562
X6965Y22207
X17853Y23216
X18273Y23448
X19099Y26113
X6959Y22671
X10025Y20156
X10438Y20407
X17862Y23706
X12342Y28771
X13676Y27637
X12342Y26504
X12342Y27637
X13676Y28771
X15009Y28771
X15009Y27637
X15009Y26504
X13676Y26504
X11301Y26504
X11288Y27599
X11301Y28771
X16063Y26491
X16063Y27637
X16058Y28771
X11301Y25304
X12342Y25304
X13670Y25318
X15009Y25312
X16059Y25307
X11301Y29971
X12342Y29971
X13676Y29971
X15009Y29971
X16058Y29971
X19330Y28437
X2401Y26904
X10022Y20646
X7339Y19551
X7339Y20051
X7339Y20551
X21051Y21607
X21547Y21607
T4
X9191Y30939
X8345Y26488
T5
X12952Y34275
X13503Y34266
X14604Y34260
X2700Y34800
X4700Y33600
X3500Y33100
X6300Y34500
X4900Y34500
X2600Y33300
X5100Y32700
X23700Y34400
X25300Y32500
X23300Y32600
X25700Y34300
X27200Y35200
X24800Y35200
X23000Y35300
X26900Y30800
X27000Y32900
X25300Y31300
X27700Y27100
X26900Y28000
X22400Y31600
X26400Y26000
X27700Y24600
X26400Y24700
X26600Y23300
X25155Y23772
X22700Y29000
X22800Y27500
X20700Y28400
X20900Y31800
X5700Y23300
X5900Y20100
X4000Y35100
X6300Y35500
X5500Y35000
X2100Y35500
X2100Y34100
X3700Y34100
X5800Y33800
X6100Y32700
X6000Y31800
X24600Y33300
X22900Y33400
X22600Y34300
X27100Y34200
X27700Y31700
X26500Y32100
X26400Y29700
X27800Y29800
X26200Y33300
X26300Y35400
X24500Y30800
X20300Y34600
X21070Y35377
X21100Y33600
X18912Y34351
X18300Y33726
X19023Y29360
X20195Y35495
X19351Y35224
X21100Y34400
X19257Y33499
X21700Y35200
X22200Y33100
X21400Y32800
X22300Y35400
X24100Y32000
X27500Y21300
X26300Y20900
X26100Y22000
X4244Y32225
X5091Y31626
X18619Y35651
X15137Y32525
X18505Y36311
X24737Y34408
X20305Y33771
X4970Y36086
X7444Y29325
X9244Y29425
X8944Y27625
X8344Y29325
X7744Y27925
X19572Y32558
X7300Y31900
X8300Y31900
X9400Y31800
X14045Y34266
X15109Y33674
X17199Y32350
X18151Y32623
X18523Y29160
X20755Y20272
X21255Y22572
X19455Y19872
X21155Y19572
X22555Y19572
X22855Y23272
X20277Y32908
X11755Y22372
X14567Y32534
X21000Y23500
X21600Y23900
X14003Y32553
X13418Y32538
X13041Y32978
X12624Y33343
X12170Y33639
X2400Y25600
X11858Y34085
X12409Y34275
X2400Y30700
X2400Y31900
X11600Y31900
X5600Y28549
X11052Y23392
X2400Y29400
X11468Y22924
X2400Y28100
X12200Y23300
X27500Y15300
X12900Y23300
X23300Y16000
X14000Y23300
X23600Y26800
X12200Y32100
X15138Y33100
X15148Y34227
X15700Y34300
X16200Y34700
X16575Y35124
X17035Y35639
X17213Y36326
X17200Y32863
X17200Y33400
X17400Y34000
X17950Y34553
X18478Y35028
X21773Y30814
X10655Y19672
M30