M48
;GenerationSoftware,Autodesk,EAGLE,9.6.2*%
;CreationDate,2022-06-16T14:31:06Z*%
FMAT,2
ICI,OFF
METRIC,TZ,000.000
T5C0.200
T4C0.250
T3C0.254
T2C0.300
T1C1.800
%
G90
M71
T1
X26076Y5888
X4776Y37388
T2
X887Y24105
X28718Y9408
X28718Y10346
X28718Y11284
X28718Y12222
X28718Y13160
X28718Y14098
X28718Y15036
X28718Y15974
X28718Y16913
X28718Y17851
X28718Y18789
X28718Y19727
X28718Y20665
X28718Y21603
X28718Y22541
X28718Y23479
X28718Y24417
X28718Y25355
X28718Y26294
X28718Y27232
X28718Y28170
X28718Y29108
X28618Y30046
X19024Y36312
X28518Y31922
X28405Y32860
X28405Y33798
X28305Y34737
X28205Y35575
X19999Y36500
X887Y10659
X887Y11597
X887Y12535
X887Y13473
X887Y14411
X887Y15349
X887Y20352
X887Y19414
X28618Y30984
X1271Y36315
X2138Y36300
X3076Y36300
X4014Y36300
X5890Y36300
X6829Y36300
X7767Y36300
X8705Y36300
X9643Y36300
X10581Y36300
X11519Y36300
X12457Y36300
X13395Y36300
X14333Y36300
X15271Y36300
X16210Y36300
X21087Y36300
X21726Y36300
X22464Y36300
X23402Y36300
X24340Y36300
X25278Y36300
X26216Y36300
X27154Y36300
X28092Y36300
X1217Y35375
X1163Y34406
X1124Y33498
X1046Y32517
X985Y31602
X949Y30689
X887Y29733
X887Y28795
X887Y27857
X887Y26919
X887Y25981
X887Y25043
X887Y23167
X887Y22228
X887Y21290
X887Y18476
X887Y17538
X887Y16600
X887Y9721
X887Y8782
X887Y7844
X887Y6906
X887Y5968
X887Y5030
X887Y4092
X887Y3154
X887Y2216
X887Y1278
X1513Y965
X2451Y965
X3389Y965
X4327Y965
X5265Y965
X6203Y965
X7141Y965
X8079Y965
X9018Y965
X9956Y965
X10894Y965
X11832Y965
X12770Y965
X13708Y965
X14646Y965
X15584Y965
X16522Y965
X17460Y965
X18399Y965
X19337Y965
X20275Y965
X21213Y965
X22151Y965
X23089Y965
X24027Y965
X24965Y965
X25903Y965
X26841Y965
X27779Y965
X28718Y965
X28718Y1903
X28718Y2841
X28718Y3779
X28718Y4717
X28718Y5655
X28718Y6593
X28718Y7532
X28718Y8470
T3
X11301Y26504
X19330Y28437
X18419Y31865
X13930Y20043
X13930Y20576
X8715Y23091
X17803Y23103
X18197Y23471
X19099Y26113
X9233Y23095
X18935Y20698
X19435Y20698
X17697Y23571
X12342Y28771
X13676Y27637
X12342Y26504
X12342Y27637
X13676Y28771
X15009Y28771
X15009Y27637
X15009Y26504
X13676Y26504
X16058Y29971
X11288Y27599
X11301Y28771
X16063Y26491
X16063Y27637
X16058Y28771
X11301Y25304
X12342Y25304
X13670Y25318
X15009Y25312
X16059Y25307
X11301Y29971
X12342Y29971
X13676Y29971
X15009Y29971
X7339Y20551
X2401Y26904
X10539Y19951
X10535Y19398
X7339Y19551
X7339Y20051
T4
X9191Y30939
X8312Y26575
T5
X17040Y36306
X17200Y32800
X17200Y33400
X17400Y34000
X18074Y34537
X18623Y34846
X18619Y35651
X14600Y32600
X14100Y32900
X13600Y33300
X13000Y33400
X12400Y33400
X11900Y33800
X11800Y34400
X12500Y34300
X13200Y34200
X13900Y34200
X14600Y34200
X2700Y34800
X4700Y33600
X3500Y33100
X5500Y34700
X4400Y34700
X2600Y33300
X5400Y32500
X23700Y34400
X25300Y32500
X23300Y32600
X25700Y34300
X27200Y35200
X24800Y35200
X23000Y35300
X26900Y30800
X27000Y32900
X25300Y31300
X27700Y27400
X27000Y28600
X22400Y31600
X26400Y26000
X27700Y24600
X26400Y24700
X26600Y23300
X25000Y23500
X23100Y23200
X25000Y25100
X22700Y29000
X22800Y27500
X20700Y28400
X18300Y31200
X20900Y31800
X5700Y23300
X7200Y23000
X5900Y20100
X3800Y35400
X5500Y35300
X4700Y35500
X18450Y29450
X2100Y34100
X3700Y34100
X5800Y33800
X6100Y32700
X6000Y31800
X24600Y33300
X22900Y33400
X22600Y34300
X27100Y34200
X27700Y31700
X26500Y32100
X26400Y29700
X27800Y29800
X26200Y33300
X26300Y35400
X24500Y30800
X20300Y34600
X21070Y35377
X21100Y33600
X18912Y34351
X18300Y33400
X19762Y33252
X20195Y35495
X19351Y35224
X21100Y34400
X19687Y34419
X21700Y35200
X22200Y33100
X21400Y32800
X22300Y35400
X24100Y32000
X27500Y21300
X26300Y20900
X18200Y24400
X22400Y20800
X4244Y32225
X5091Y31626
X15200Y32500
X16650Y23150
X18517Y36303
X24737Y34408
X20305Y33771
X4970Y36086
X7444Y29325
X9244Y29425
X8944Y27625
X8344Y29325
X7744Y27925
X19306Y33592
X15200Y33100
X15200Y33900
X21000Y23500
X21600Y23900
X15700Y34300
X16200Y34700
X26100Y22000
X16575Y35124
X17035Y35639
X2400Y25600
X2400Y30700
X2400Y31900
X13425Y31866
X12921Y32158
X11600Y31900
X5600Y28549
X11000Y23200
X2400Y29400
X11500Y22700
X2400Y28100
X12200Y23300
X27400Y15200
X12900Y23300
X23300Y16000
X14000Y23300
X23600Y26800
X12200Y32100
X21250Y30950
X2100Y35500
M30